<?xml version="1.0" encoding="UTF-8" standalone="no"?>
<!-- Generator: Adobe Illustrator 22.1.0, SVG Export Plug-In . SVG Version: 6.00 Build 0)  -->

<svg
   xmlns:dc="http://purl.org/dc/elements/1.1/"
   xmlns:cc="http://creativecommons.org/ns#"
   xmlns:rdf="http://www.w3.org/1999/02/22-rdf-syntax-ns#"
   xmlns:svg="http://www.w3.org/2000/svg"
   xmlns="http://www.w3.org/2000/svg"
   xmlns:sodipodi="http://sodipodi.sourceforge.net/DTD/sodipodi-0.dtd"
   xmlns:inkscape="http://www.inkscape.org/namespaces/inkscape"
   version="1.1"
   id="Layer_2_1_"
   x="0px"
   y="0px"
   viewBox="0 0 179.36429 179.7903"
   enable-background="new 0 0 3947.9399414 3860.8613281"
   xml:space="preserve"
   sodipodi:docname="aerospace_complex.svg"
   inkscape:version="0.92.4 (5da689c313, 2019-01-14)"
   width="179.3643"
   height="179.7903"><metadata
   id="metadata5465"><rdf:RDF><cc:Work
       rdf:about=""><dc:format>image/svg+xml</dc:format><dc:type
         rdf:resource="http://purl.org/dc/dcmitype/StillImage" /><dc:title></dc:title></cc:Work></rdf:RDF></metadata><defs
   id="defs5463" /><sodipodi:namedview
   pagecolor="#ffffff"
   bordercolor="#666666"
   borderopacity="1"
   objecttolerance="10"
   gridtolerance="10"
   guidetolerance="10"
   inkscape:pageopacity="0"
   inkscape:pageshadow="2"
   inkscape:window-width="1920"
   inkscape:window-height="1022"
   id="namedview5461"
   showgrid="false"
   inkscape:zoom="0.21212883"
   inkscape:cx="-2261.2519"
   inkscape:cy="-103.0778"
   inkscape:window-x="1079"
   inkscape:window-y="709"
   inkscape:window-maximized="1"
   inkscape:current-layer="Layer_2_1_" />




























































































<g
   id="g4494"
   style="fill:#e1561c;fill-opacity:1"
   transform="translate(-3122.8186,-1446.5574)">
	<path
   d="m 3259.8528,1584.0176 h -94.7041 l -42.3301,42.3301 h 62.2969 l 0.1211,-23.6651 c 0,-0.9624 0.792,-1.7451 1.7539,-1.7451 h 51.0205 c 0.9619,0 1.749,0.7827 1.7539,1.7446 l 0.1211,23.6656 h 62.2969 z m -14.0879,18.6338 c -0.023,-4.2535 -3.501,-7.7139 -7.7539,-7.7139 h -51.0205 c -4.253,0 -7.7315,3.4604 -7.7539,7.7144 l -0.09,17.6958 h -41.8437 l 30.3301,-30.3301 h 89.7353 l 30.3301,30.3301 h -41.8438 z"
   id="path4490"
   style="fill:#e1561c;fill-opacity:1"
   inkscape:connector-curvature="0" />
	<path
   d="m 3212.5007,1574.9073 c 35.44,0 64.17,-28.7299 64.17,-64.17 0,-35.4499 -28.73,-64.1799 -64.17,-64.1799 -35.4399,0 -64.1699,28.73 -64.1699,64.1799 0,35.4401 28.73,64.17 64.1699,64.17 z m -23.1494,-77.4652 23.1494,-35.6377 23.1494,35.6377 23.1497,35.638 h -46.2991 -46.299 z"
   id="path4492"
   style="fill:#e1561c;fill-opacity:1"
   inkscape:connector-curvature="0" />
</g>






















































































</svg>