<?xml version="1.0" encoding="UTF-8" standalone="no"?>
<!-- Generator: Adobe Illustrator 22.1.0, SVG Export Plug-In . SVG Version: 6.00 Build 0)  -->

<svg
   xmlns:dc="http://purl.org/dc/elements/1.1/"
   xmlns:cc="http://creativecommons.org/ns#"
   xmlns:rdf="http://www.w3.org/1999/02/22-rdf-syntax-ns#"
   xmlns:svg="http://www.w3.org/2000/svg"
   xmlns="http://www.w3.org/2000/svg"
   xmlns:sodipodi="http://sodipodi.sourceforge.net/DTD/sodipodi-0.dtd"
   xmlns:inkscape="http://www.inkscape.org/namespaces/inkscape"
   version="1.1"
   id="Layer_2_1_"
   x="0px"
   y="0px"
   viewBox="0 0 182.08998 182.0902"
   enable-background="new 0 0 3947.9399414 3860.8613281"
   xml:space="preserve"
   sodipodi:docname="aquafarm.svg"
   inkscape:version="0.92.4 (5da689c313, 2019-01-14)"
   width="182.09"
   height="182.09019"><metadata
   id="metadata5465"><rdf:RDF><cc:Work
       rdf:about=""><dc:format>image/svg+xml</dc:format><dc:type
         rdf:resource="http://purl.org/dc/dcmitype/StillImage" /><dc:title></dc:title></cc:Work></rdf:RDF></metadata><defs
   id="defs5463" /><sodipodi:namedview
   pagecolor="#ffffff"
   bordercolor="#666666"
   borderopacity="1"
   objecttolerance="10"
   gridtolerance="10"
   guidetolerance="10"
   inkscape:pageopacity="0"
   inkscape:pageshadow="2"
   inkscape:window-width="1920"
   inkscape:window-height="1022"
   id="namedview5461"
   showgrid="false"
   inkscape:zoom="0.21212883"
   inkscape:cx="836.10021"
   inkscape:cy="465.6539"
   inkscape:window-x="1079"
   inkscape:window-y="709"
   inkscape:window-maximized="1"
   inkscape:current-layer="Layer_2_1_" />

















































<path
   d="M 0,0 V 182.0902 H 182.09 V 0 Z m 176.09,157.7304 c -13.61,7.3498 -27.59,13.7199 -41.95,13.7199 -15.41,0 -32.6,-9.57 -49.23,-18.82 -14.73,-8.2 -29.96,-16.68 -40.94,-16.68 -13.15,0 -25.75,4.7 -37.97,10.1099 v -18.48 c 11.66,-4.75 24.33,-8.6299 37.97,-8.6299 15.39,0 32.58,9.5699 49.21,18.8199 14.73,8.2001 29.97,16.6801 40.96,16.6801 12.91,0 27.66,-8.1601 41.95,-16.1302 z m 0,-54 c -13.61,7.3498 -27.59,13.7199 -41.95,13.7199 -15.41,0 -32.6,-9.57 -49.23,-18.82 -14.73,-8.2 -29.96,-16.68 -40.94,-16.68 -13.15,0 -25.75,4.7 -37.97,10.1099 v -18.48 c 11.66,-4.75 24.33,-8.6299 37.97,-8.6299 15.39,0 32.58,9.5699 49.21,18.8199 14.73,8.2001 29.97,16.6801 40.96,16.6801 12.91,0 27.66,-8.1601 41.95,-16.1302 z m 0,-54 c -13.61,7.3498 -27.59,13.7199 -41.95,13.7199 -15.41,0 -32.6,-9.57 -49.23,-18.82 -14.73,-8.2 -29.96,-16.6801 -40.94,-16.6801 -13.15,0 -25.75,4.7 -37.97,10.11 V 19.58 c 11.66,-4.75 24.33,-8.6298 37.97,-8.6298 15.39,0 32.58,9.5698 49.21,18.8198 14.73,8.2003 29.97,16.6803 40.96,16.6803 12.91,0 27.66,-8.1601 41.95,-16.1302 z"
   id="path4150"
   style="fill:#e2bd4d;fill-opacity:1"
   inkscape:connector-curvature="0" />

































































































































</svg>