<?xml version="1.0" encoding="UTF-8" standalone="no"?>
<!-- Generator: Adobe Illustrator 22.1.0, SVG Export Plug-In . SVG Version: 6.00 Build 0)  -->

<svg
   xmlns:dc="http://purl.org/dc/elements/1.1/"
   xmlns:cc="http://creativecommons.org/ns#"
   xmlns:rdf="http://www.w3.org/1999/02/22-rdf-syntax-ns#"
   xmlns:svg="http://www.w3.org/2000/svg"
   xmlns="http://www.w3.org/2000/svg"
   xmlns:sodipodi="http://sodipodi.sourceforge.net/DTD/sodipodi-0.dtd"
   xmlns:inkscape="http://www.inkscape.org/namespaces/inkscape"
   version="1.1"
   id="Layer_2_1_"
   x="0px"
   y="0px"
   viewBox="0 0 179.36429 179.79024"
   enable-background="new 0 0 3947.9399414 3860.8613281"
   xml:space="preserve"
   sodipodi:docname="bioenhancement_center.svg"
   inkscape:version="0.92.4 (5da689c313, 2019-01-14)"
   width="179.3643"
   height="179.79024"><metadata
   id="metadata5465"><rdf:RDF><cc:Work
       rdf:about=""><dc:format>image/svg+xml</dc:format><dc:type
         rdf:resource="http://purl.org/dc/dcmitype/StillImage" /><dc:title></dc:title></cc:Work></rdf:RDF></metadata><defs
   id="defs5463" /><sodipodi:namedview
   pagecolor="#ffffff"
   bordercolor="#666666"
   borderopacity="1"
   objecttolerance="10"
   gridtolerance="10"
   guidetolerance="10"
   inkscape:pageopacity="0"
   inkscape:pageshadow="2"
   inkscape:window-width="1920"
   inkscape:window-height="1022"
   id="namedview5461"
   showgrid="false"
   inkscape:zoom="0.21212883"
   inkscape:cx="-1951.653"
   inkscape:cy="-670.65949"
   inkscape:window-x="1079"
   inkscape:window-y="709"
   inkscape:window-maximized="1"
   inkscape:current-layer="Layer_2_1_" />




















































































<g
   id="g4454"
   style="fill:#e1561c;fill-opacity:1"
   transform="translate(-2813.2197,-878.97577)">
	<circle
   cx="2902.9019"
   cy="945.61334"
   r="5.9187012"
   id="circle4448"
   style="fill:#e1561c;fill-opacity:1" />
	<path
   d="m 2902.9019,1007.3257 c 35.4399,0 64.1699,-28.72994 64.1699,-64.16994 0,-35.45001 -28.73,-64.17999 -64.1699,-64.17999 -35.44,0 -64.17,28.72998 -64.17,64.17999 0,35.44 28.73,64.16994 64.17,64.16994 z m -39.9014,-75.03175 c 8.0068,-8.38086 22.614,-16.27399 39.9014,-16.69068 17.2873,0.41669 31.8945,8.30982 39.9013,16.69068 2.5994,2.71783 5.1043,6.47265 5.1043,10.20379 0,5.17529 -4.2615,10.32691 -8.8496,14.20954 -4.5835,3.87793 -9.4983,6.49163 -10.8003,6.57684 v -14.2948 c 1.0132,-0.83807 2.1211,-2.03125 2.9638,-3.1629 0.2984,-0.40253 0.6392,-0.97541 0.9092,-1.57203 0.27,-0.60131 0.4641,-1.22637 0.4641,-1.72351 0,-0.99432 -0.303,-1.97448 -0.8996,-2.76995 -1.9698,-2.62317 -6.0703,-6.06073 -11.9654,-8.5655 3.324,3.87793 5.3365,8.91114 5.3365,14.41791 0,12.23981 -9.9246,22.16425 -22.1643,22.16425 -12.24,0 -22.1644,-9.92444 -22.1644,-22.16425 0,-5.50677 2.0125,-10.53998 5.3365,-14.41791 -5.895,2.50477 -9.9956,5.94233 -11.9654,8.5655 -0.5966,0.79547 -0.8994,1.77563 -0.8994,2.76995 0,0.49714 0.1939,1.1222 0.4639,1.72351 0.27,0.59662 0.6108,1.1695 0.9092,1.57203 0.8427,1.13165 1.9507,2.32483 2.9638,3.1629 v 14.2948 c -1.302,-0.0852 -6.2168,-2.69891 -10.8003,-6.57684 -4.5881,-3.88263 -8.8496,-9.03425 -8.8496,-14.20954 0,-3.73114 2.5049,-7.48596 5.1043,-10.20379 z"
   id="path4450"
   style="fill:#e1561c;fill-opacity:1"
   inkscape:connector-curvature="0" />
	<path
   d="m 2950.2539,1016.4359 h -94.7041 l -42.3301,42.3301 h 62.2969 l 0.1211,-23.665 c 0,-0.9625 0.792,-1.7452 1.7539,-1.7452 h 51.0205 c 0.9619,0 1.749,0.7827 1.7539,1.7447 l 0.1211,23.6655 h 62.2969 z m -14.0879,18.6338 c -0.022,-4.2534 -3.501,-7.7139 -7.7539,-7.7139 h -51.0205 c -4.2529,0 -7.7314,3.4605 -7.7539,7.7144 l -0.09,17.6958 h -41.8438 l 30.3301,-30.3301 h 89.7353 l 30.3301,30.3301 h -41.8437 z"
   id="path4452"
   style="fill:#e1561c;fill-opacity:1"
   inkscape:connector-curvature="0" />
</g>






























































































</svg>