<?xml version="1.0" encoding="UTF-8" standalone="no"?>
<!-- Generator: Adobe Illustrator 22.1.0, SVG Export Plug-In . SVG Version: 6.00 Build 0)  -->

<svg
   xmlns:dc="http://purl.org/dc/elements/1.1/"
   xmlns:cc="http://creativecommons.org/ns#"
   xmlns:rdf="http://www.w3.org/1999/02/22-rdf-syntax-ns#"
   xmlns:svg="http://www.w3.org/2000/svg"
   xmlns="http://www.w3.org/2000/svg"
   xmlns:sodipodi="http://sodipodi.sourceforge.net/DTD/sodipodi-0.dtd"
   xmlns:inkscape="http://www.inkscape.org/namespaces/inkscape"
   version="1.1"
   id="Layer_2_1_"
   x="0px"
   y="0px"
   viewBox="0 0 177.95627 204.96001"
   enable-background="new 0 0 3947.9399414 3860.8613281"
   xml:space="preserve"
   sodipodi:docname="biology_lab.svg"
   inkscape:version="0.92.4 (5da689c313, 2019-01-14)"
   width="177.95628"
   height="204.96001"><metadata
   id="metadata5465"><rdf:RDF><cc:Work
       rdf:about=""><dc:format>image/svg+xml</dc:format><dc:type
         rdf:resource="http://purl.org/dc/dcmitype/StillImage" /><dc:title></dc:title></cc:Work></rdf:RDF></metadata><defs
   id="defs5463" /><sodipodi:namedview
   pagecolor="#ffffff"
   bordercolor="#666666"
   borderopacity="1"
   objecttolerance="10"
   gridtolerance="10"
   guidetolerance="10"
   inkscape:pageopacity="0"
   inkscape:pageshadow="2"
   inkscape:window-width="1920"
   inkscape:window-height="1022"
   id="namedview5461"
   showgrid="false"
   inkscape:zoom="0.21212883"
   inkscape:cx="-1333.159"
   inkscape:cy="477.0887"
   inkscape:window-x="1079"
   inkscape:window-y="709"
   inkscape:window-maximized="1"
   inkscape:current-layer="Layer_2_1_" />







































































<g
   id="g4322"
   style="fill:#90ae50;fill-opacity:1"
   transform="translate(-2194.7257,-2001.5542)">
	<path
   d="m 2367.5139,2164.5942 -54.78,-74.1799 v -45.75 c 0,-1.4602 0.9499,-2.8 2.3701,-3.1501 4.3298,-1.0501 7.6799,-4.93 7.6799,-9.5301 v -20.6098 c 0,-5.4202 -4.3999,-9.8201 -9.82,-9.8201 h -58.5201 c -5.4201,0 -9.82,4.3999 -9.82,9.8201 v 20.6098 c 0,4.6001 3.3501,8.48 7.6799,9.5301 1.4202,0.3501 2.3701,1.6899 2.3701,3.1501 v 45.75 l -54.78,74.1799 c -6.0501,8.19 -6.8601,18.97 -2.0501,28 4.6399,8.71 13.95,13.92 23.8201,13.92 h 124.0801 c 9.8701,0 19.1802,-5.21 23.8201,-13.92 4.81,-9.03 4,-19.81 -2.0501,-28 z m -9.3799,21.8101 c -2.33,4.46 -7.1001,7.1099 -12.1201,7.1099 h -124.6201 c -5.02,0 -9.79,-2.6499 -12.1201,-7.1099 -2.4199,-4.6201 -2.0098,-9.9001 1.0801,-14.0901 l 57.32,-77.6199 v -56.07 c 0,-4.8802 -3.75,-8.93 -8.4499,-9.69 -0.9402,-0.1501 -1.6001,-1.01 -1.6001,-1.9602 v -8.8699 c 0,-1.9599 1.5901,-3.55 3.55,-3.55 h 45.0601 c 1.9599,0 3.55,1.5901 3.55,3.55 v 8.8699 c 0,0.9502 -0.6599,1.8101 -1.6001,1.9602 -4.6999,0.76 -8.4499,4.8098 -8.4499,9.69 v 56.07 l 57.3201,77.6199 c 3.0898,4.19 3.5,9.47 1.08,14.0901 z"
   id="path4316"
   style="fill:#90ae50;fill-opacity:1"
   inkscape:connector-curvature="0" />
	<path
   d="m 2293.4885,2146.6804 c -3.813,-1.6147 -7.6262,-3.2292 -11.4394,-4.8437 -2.9141,-1.2339 -6.8225,-3.0752 -9.1607,0.2094 -4.1323,5.805 5.9585,13.6028 9.7344,16.5967 2.8418,2.2534 5.6631,5.0796 9.4959,5.1084 2.6235,0.02 6.3684,-0.4053 8.3437,-2.3369 2.094,-2.0478 2.5667,-6.9263 1.3955,-9.5359 -1.3733,-3.0605 -5.5522,-4.0051 -8.3694,-5.198 z"
   id="path4318"
   style="fill:#90ae50;fill-opacity:1"
   inkscape:connector-curvature="0" />
	<path
   d="m 2329.4524,2153.5046 c -2.3691,-0.06 -3.3174,1.5806 -5.3989,2.2698 -1.6026,0.5308 -4.0962,0.198 -2.701,-2.0444 1.0379,-1.6682 3.9124,-1.6494 5.5757,-2.3819 4.8555,-2.1379 2.0528,-9.0087 -2.9685,-7.4309 -1.2554,0.3946 -2.2466,1.2251 -3.0556,2.2449 -0.4024,0.5071 -0.9039,1.8845 -1.7471,1.804 -2.082,-0.1985 -0.335,-3.5791 0.2785,-4.2701 1.5611,-1.7578 4.1314,-2.4555 4.1448,-5.2446 0.012,-2.5163 -1.8584,-3.5823 -4.093,-3.2336 -2.2463,0.3506 -4.0554,0.9363 -4.8848,3.2253 -0.4699,1.2966 -1.1254,4.8154 -3.3982,3.1218 -3.4726,-2.5874 5.1607,-7.8278 1.2518,-11.0898 -1.73,-1.4436 -4.771,-0.4648 -6.0596,1.0676 -1.3526,1.6084 -0.5762,4.1028 -2.1577,5.3743 -1.3699,1.1016 -5.303,1.1309 -5.5069,-1.2026 -0.136,-1.5581 2.1219,-3.323 2.4995,-4.9568 1.0569,-4.5723 -4.5952,-8.1363 -8.0441,-4.6455 -1.5528,1.5712 -1.1802,3.7739 -2.3614,5.4358 -0.8808,1.2395 -1.9941,1.1665 -3.0163,0.6145 -1.4202,-1.3877 -2.5074,-3.2027 -2.4322,-5.2359 0.077,-2.0908 1.6477,-4.1103 1.0721,-6.2241 -1.0183,-3.7398 -8.856,-4.3159 -8.4986,0.3289 0.1582,2.0593 0.8252,3.3054 -1.54,4.2932 -2.3193,0.969 -3.4446,-0.2476 -3.8728,-2.4981 -0.6314,-3.3193 2.0896,-10.6836 -4.1372,-9.4836 -2.21,0.426 -3.2991,2.0591 -3.2937,4.2295 0,1.8755 1.5928,5.0334 0.2178,6.6257 -3.0569,3.5395 -6.7886,-1.9133 -9.5325,-2.1301 -2.3145,-0.1829 -5.01,-0.42 -5.6568,2.3523 -0.4531,1.9416 0.2237,4.0793 2.1009,4.8823 1.1135,0.4766 2.2309,-0.067 2.8769,1.2497 0.3308,0.6746 0.1651,1.6736 -0.2483,2.2515 -1.3462,1.8818 -4.3332,0.1094 -6.1284,-0.074 -2.3103,-0.2363 -5.0759,0.4792 -5.6848,3.0395 -0.4355,1.8311 0.7061,4.1514 2.4375,4.9297 2.6003,1.1687 3.9475,-2.5168 5.8809,-1.6696 1.5903,0.6965 1.2561,3.6455 -0.06,4.3647 -1.9258,1.0522 -4.5666,-1.0337 -5.4412,2.0959 -0.479,1.7144 0.5462,3.9671 1.9627,4.9493 2.4123,1.6731 3.6824,-0.6399 5.9121,-1.2327 1.6877,-0.4487 3.9397,0.2732 2.7432,2.3811 -0.9764,1.7205 -3.4373,1.8389 -4.4839,3.4646 -0.9949,1.5454 -0.6807,3.8303 0.6653,5.0669 1.3889,1.2759 3.593,1.4011 5.156,0.3977 1.4821,-0.9514 2.9785,-4.0615 5.1984,-2.9751 1.2718,0.6223 1.9722,3.5759 0.6932,4.3391 -0.6668,0.398 -2.2486,0.082 -3.0889,0.3816 -0.8867,0.3167 -1.7014,0.8381 -2.3245,1.5447 -2.9568,3.3515 0.3345,9.4238 4.7002,6.8249 1.8831,-1.1208 2.6228,-3.3657 4.9202,-3.9526 1.9722,-0.5037 4.3838,0.7876 2.0825,2.4546 -1.9651,1.4236 -3.8105,1.8599 -3.9311,4.6819 -0.087,2.0429 0.6355,3.6279 2.7231,4.0747 2.7549,0.5898 3.8643,-0.523 5.7554,-2.1665 1.4936,-1.2979 3.6811,-2.293 5.5508,-1.0972 1.8996,1.2153 1.5749,3.6018 -0.042,4.898 -1.2532,1.0044 -3.3701,0.6479 -3.6155,2.3418 -0.5459,3.7658 5.3445,8.8078 8.2339,4.8898 1.4505,-1.9665 0.2766,-4.8315 2.6719,-6.3723 1.5371,-0.9882 3.7361,-0.4438 3.8115,1.625 0.076,2.0882 -1.5771,3.9942 -0.7173,6.2559 0.7486,1.9697 3.1778,1.8389 5.0462,1.7571 1.6072,-0.071 4.9673,-0.086 6.073,-1.5144 1.0469,-1.3528 0.855,-4.4461 -0.5547,-5.4168 -0.9861,-0.6789 -2.136,-0.2146 -1.959,-1.7739 0.094,-0.8267 0.9981,-1.8015 1.5872,-2.332 1.3105,-1.1807 3.1906,-1.8338 4.9465,-1.5435 2.979,0.4929 1.8416,2.5354 2.999,4.4646 1.0474,1.7451 3.5384,1.3833 5.2884,1.1206 2.7707,-0.4158 4.3449,-1.9714 6.2758,-3.864 1.5318,-1.5015 3.2622,-2.9263 4.4024,-4.7712 0.7138,-1.1553 1.4319,-2.762 1.2322,-4.1612 -0.3438,-2.4099 -2.3355,-2.0688 -4.1954,-1.7007 -1.6345,0.3238 -4.6557,0.8848 -5.1501,-1.1894 -0.4722,-1.9815 1.3252,-3.5401 3.0076,-3.929 4.1013,-0.948 10.1797,0.4959 12.103,-4.395 0.8872,-2.2558 0.968,-5.4348 -2.0957,-5.5115 z m -41.8821,-21.4787 c -0.4863,-0.3008 -0.9453,-0.6985 -1.3403,-1.1004 z m 24.6795,25.0598 c -1.6087,10.6706 -12.9971,19.9233 -23.6951,15.9333 -5.7322,-2.1379 -9.6709,-6.3234 -13.3899,-11.0046 -4.0066,-5.0435 -8.9363,-10.3037 -11.9729,-16.0032 -2.5195,-4.7287 -0.3821,-12.7898 5.2888,-14.539 5.0056,-1.544 13.1345,3.1462 17.398,5.4289 5.551,2.9717 10.9118,6.0972 16.6997,8.6006 5.5822,2.4141 10.7195,4.6311 9.6714,11.584 z"
   id="path4320"
   style="fill:#90ae50;fill-opacity:1"
   inkscape:connector-curvature="0" />
</g>











































































































</svg>