<?xml version="1.0" encoding="UTF-8" standalone="no"?>
<!-- Generator: Adobe Illustrator 22.1.0, SVG Export Plug-In . SVG Version: 6.00 Build 0)  -->

<svg
   xmlns:dc="http://purl.org/dc/elements/1.1/"
   xmlns:cc="http://creativecommons.org/ns#"
   xmlns:rdf="http://www.w3.org/1999/02/22-rdf-syntax-ns#"
   xmlns:svg="http://www.w3.org/2000/svg"
   xmlns="http://www.w3.org/2000/svg"
   xmlns:sodipodi="http://sodipodi.sourceforge.net/DTD/sodipodi-0.dtd"
   xmlns:inkscape="http://www.inkscape.org/namespaces/inkscape"
   version="1.1"
   id="Layer_2_1_"
   x="0px"
   y="0px"
   viewBox="0 0 192.67969 196"
   enable-background="new 0 0 3947.9399414 3860.8613281"
   xml:space="preserve"
   sodipodi:docname="brood_pit.svg"
   inkscape:version="0.92.4 (5da689c313, 2019-01-14)"
   width="192.6797"
   height="196"><metadata
   id="metadata5465"><rdf:RDF><cc:Work
       rdf:about=""><dc:format>image/svg+xml</dc:format><dc:type
         rdf:resource="http://purl.org/dc/dcmitype/StillImage" /><dc:title></dc:title></cc:Work></rdf:RDF></metadata><defs
   id="defs5463" /><sodipodi:namedview
   pagecolor="#ffffff"
   bordercolor="#666666"
   borderopacity="1"
   objecttolerance="10"
   gridtolerance="10"
   guidetolerance="10"
   inkscape:pageopacity="0"
   inkscape:pageshadow="2"
   inkscape:window-width="1920"
   inkscape:window-height="1022"
   id="namedview5461"
   showgrid="false"
   inkscape:zoom="0.21212883"
   inkscape:cx="-1325.7973"
   inkscape:cy="1607.772"
   inkscape:window-x="1079"
   inkscape:window-y="709"
   inkscape:window-maximized="1"
   inkscape:current-layer="Layer_2_1_" />




















































































































<g
   id="g4684"
   style="fill:#e2bd4d;fill-opacity:1"
   transform="translate(-2187.364,-3141.1975)">
	<path
   d="m 2283.7039,3141.1975 c -53.1221,0 -96.3399,43.2227 -96.3399,96.3501 v 99.6499 h 192.6797 v -99.6499 c 0,-53.1274 -43.2178,-96.3501 -96.3398,-96.3501 z m 80.3398,180 H 2203.364 v -83.6499 c 0,-44.3052 36.0401,-80.3501 80.3399,-80.3501 44.2998,0 80.3398,36.0449 80.3398,80.3501 z"
   id="path4680"
   style="fill:#e2bd4d;fill-opacity:1"
   inkscape:connector-curvature="0" />
	<path
   d="m 2305.658,3248.4827 -2.4966,-10.3557 -11.3672,-47.1751 c -1.3462,-5.5854 -3.4873,-10.9485 -6.3579,-15.9253 l -0.1489,-0.2583 c -0.5801,-1.0051 -2.0308,-1.0054 -2.6109,-5e-4 l -0.1416,0.2451 c -2.8769,4.9827 -5.022,10.3536 -6.3696,15.9471 l -11.3633,47.1674 -2.5034,10.356 -7.7202,7.3398 -35.1709,33.4319 c -4.1643,3.9583 -7.7383,8.4942 -10.6128,13.4688 l -0.1494,0.258 c -0.5806,1.0049 0.1445,2.2615 1.3051,2.2615 h 0.283 c 5.7537,0 11.4773,-0.8276 16.9954,-2.4573 l 46.5297,-13.7429 10.2203,-3.01 10.2168,3.0161 46.538,13.7429 c 5.5103,1.6272 11.2256,2.4546 16.9707,2.4568 h 0.2984 c 1.1606,5e-4 1.8862,-1.2558 1.3056,-2.261 l -0.1411,-0.2448 c -2.8769,-4.9829 -6.4555,-9.5259 -10.6259,-13.4898 l -35.1665,-33.4248 z m -6.5972,21.2336 -3.5513,14.1287 -11.5307,-8.1758 v -0.01 l -11.5303,8.17 -3.5498,-14.1299 h -0.01 l -10.4599,-10.1402 12.8457,-5.8979 v 0 l -1.3101,-14.0706 14.0117,3.9907 0.01,-0.01 14.0112,-3.9887 -1.3149,14.0737 h -0.01 l 12.8408,5.9004 -10.4619,10.1394 z"
   id="path4682"
   style="fill:#e2bd4d;fill-opacity:1"
   inkscape:connector-curvature="0" />
</g>






























































</svg>