<?xml version="1.0" encoding="UTF-8" standalone="no"?>
<!-- Generator: Adobe Illustrator 22.1.0, SVG Export Plug-In . SVG Version: 6.00 Build 0)  -->

<svg
   xmlns:dc="http://purl.org/dc/elements/1.1/"
   xmlns:cc="http://creativecommons.org/ns#"
   xmlns:rdf="http://www.w3.org/1999/02/22-rdf-syntax-ns#"
   xmlns:svg="http://www.w3.org/2000/svg"
   xmlns="http://www.w3.org/2000/svg"
   xmlns:sodipodi="http://sodipodi.sourceforge.net/DTD/sodipodi-0.dtd"
   xmlns:inkscape="http://www.inkscape.org/namespaces/inkscape"
   version="1.1"
   id="Layer_2_1_"
   x="0px"
   y="0px"
   viewBox="0 0 208.18019 208.17999"
   enable-background="new 0 0 3947.9399414 3860.8613281"
   xml:space="preserve"
   sodipodi:docname="centauri_preserve.svg"
   inkscape:version="0.92.4 (5da689c313, 2019-01-14)"
   width="208.18021"
   height="208.17999"><metadata
   id="metadata5465"><rdf:RDF><cc:Work
       rdf:about=""><dc:format>image/svg+xml</dc:format><dc:type
         rdf:resource="http://purl.org/dc/dcmitype/StillImage" /><dc:title></dc:title></cc:Work></rdf:RDF></metadata><defs
   id="defs5463" /><sodipodi:namedview
   pagecolor="#ffffff"
   bordercolor="#666666"
   borderopacity="1"
   objecttolerance="10"
   gridtolerance="10"
   guidetolerance="10"
   inkscape:pageopacity="0"
   inkscape:pageshadow="2"
   inkscape:window-width="1920"
   inkscape:window-height="1022"
   id="namedview5461"
   showgrid="false"
   inkscape:zoom="0.21212883"
   inkscape:cx="-2246.8439"
   inkscape:cy="194.90789"
   inkscape:window-x="1079"
   inkscape:window-y="709"
   inkscape:window-maximized="1"
   inkscape:current-layer="Layer_2_1_" />





























































































<g
   id="g4502"
   style="fill:#90ae50;fill-opacity:1"
   transform="translate(-3108.4106,-1716.1534)">
	<path
   d="m 3212.5007,1716.1534 c -57.3901,0 -104.0901,46.69 -104.0901,104.09 0,57.39 46.7,104.09 104.0901,104.09 57.3999,0 104.0901,-46.7 104.0901,-104.09 0,-57.4 -46.6902,-104.09 -104.0901,-104.09 z m 0,192.18 c -48.6499,0 -88.0901,-39.44 -88.0901,-88.09 0,-48.65 39.4402,-88.09 88.0901,-88.09 48.6499,0 88.0901,39.44 88.0901,88.09 0,48.65 -39.4402,88.09 -88.0901,88.09 z"
   id="path4496"
   style="fill:#90ae50;fill-opacity:1"
   inkscape:connector-curvature="0" />
	<path
   d="m 3212.5007,1862.7885 c 22.0601,0 39.94,-17.8901 39.94,-39.95 0,-7.0601 -1.8301,-13.7001 -5.0601,-19.4501 -11.0898,7 -8.1499,15.77 -3.7099,18.6501 -11.3101,3.38 -13.5,7.1199 -12.25,15.75 -8,-1 -11.0401,4.04 -13.19,10 -3.0898,-5.72 -7.77,-9.3901 -15.5,-2.94 1.6201,-7.31 -2.7099,-12.5801 -10.1999,-11.43 6.1198,-3 1.9099,-9.7301 -1.9202,-13.7601 3.52,-3.25 6.8501,-6.22 6.9402,-11.92 5.1799,0 9.3699,10.8201 9.3699,25.0501 6.29,-6.6601 10.4899,-11.73 11.82,-25.9001 12.0901,-1.7999 17,-5.8099 25.8101,-12.8499 -6.46,0 -13.52,-1.23 -22.0701,-3.1301 0.9199,-3.18 4.71,-14.0699 1.8401,-25.5999 -3.3701,8.3299 -15.3701,16.8 -22.1401,18.9399 -0.02,0.01 -0.03,0.01 -0.05,0.02 -17.0298,4.5601 -29.5698,20.11 -29.5698,38.5701 0,22.0599 17.8799,39.95 39.9399,39.95 z"
   id="path4498"
   style="fill:#90ae50;fill-opacity:1"
   inkscape:connector-curvature="0" />
	<path
   d="m 3289.0808,1815.7885 h -7.616 c -0.9856,-15.4046 -7.0378,-29.4451 -16.507,-40.4827 l 5.2004,-5.2005 -7.0144,-7.0144 -5.1643,5.1643 c -10.9981,-9.633 -25.0603,-15.8347 -40.5188,-16.9372 v -7.1497 h -9.9199 v 7.1497 c -15.4585,1.1025 -29.5208,7.3042 -40.5188,16.9372 l -5.1643,-5.1643 -7.0144,7.0144 5.2004,5.2005 c -9.4692,11.0376 -15.5215,25.0781 -16.5071,40.4827 h -7.6159 v 9.9199 h 7.6931 c 1.2004,15.2597 7.3706,29.1357 16.8987,40.0139 l -5.6692,5.6692 7.0144,7.0144 5.7053,-5.7053 c 10.9167,9.3654 24.7717,15.384 39.9778,16.4685 v 8.1594 h 9.9199 v -8.1594 c 15.206,-1.0845 29.061,-7.1031 39.9778,-16.4685 l 5.7053,5.7053 7.0144,-7.0144 -5.6692,-5.6692 c 9.5281,-10.8782 15.6983,-24.7542 16.8987,-40.0139 h 7.6931 z m -124.6633,-36.1089 h 5.6003 l 3.9456,3.9458 1.4143,-1.4143 -3.9458,-3.9457 v -5.6002 l -0.1597,-0.16 c 9.8955,-8.5578 22.4619,-14.0922 36.2686,-15.1716 v 0.3748 l 3.9599,3.9599 v 5.5801 h 2 v -5.5801 l 3.96,-3.9599 v -0.3748 c 13.8066,1.0794 26.373,6.6138 36.2685,15.1716 l -0.1596,0.16 v 5.6002 l -3.9458,3.9457 1.4143,1.4143 3.9455,-3.9458 h 5.6004 l 0.1238,-0.1238 c 8.4135,9.9527 13.7995,22.5318 14.7478,36.3179 l -3.8748,3.8747 h -5.5801 v 2 h 5.5801 l 3.8032,3.8032 c -1.1579,13.8304 -6.7883,26.4009 -15.4438,36.2657 h -4.9566 l -3.9455,-3.9458 -1.4143,1.4143 3.9458,3.9456 v 4.8888 c -10.0122,8.6009 -22.7351,14.1177 -36.699,15.0782 l -3.3699,-3.3699 v -5.5801 h -2 v 5.5801 l -3.3698,3.3699 c -13.9639,-0.9605 -26.6868,-6.4773 -36.699,-15.0782 v -4.8888 l 3.9458,-3.9456 -1.4143,-1.4143 -3.9456,3.9458 h -4.9565 c -8.6555,-9.8648 -14.2859,-22.4353 -15.4439,-36.2657 l 3.8033,-3.8032 h 5.58 v -2 h -5.58 l -3.8748,-3.8747 c 0.9482,-13.7861 6.3342,-26.3652 14.7478,-36.3179 z"
   id="path4500"
   style="fill:#90ae50;fill-opacity:1"
   inkscape:connector-curvature="0" />
</g>





















































































</svg>