<?xml version="1.0" encoding="UTF-8" standalone="no"?>
<!-- Generator: Adobe Illustrator 22.1.0, SVG Export Plug-In . SVG Version: 6.00 Build 0)  -->

<svg
   xmlns:dc="http://purl.org/dc/elements/1.1/"
   xmlns:cc="http://creativecommons.org/ns#"
   xmlns:rdf="http://www.w3.org/1999/02/22-rdf-syntax-ns#"
   xmlns:svg="http://www.w3.org/2000/svg"
   xmlns="http://www.w3.org/2000/svg"
   xmlns:sodipodi="http://sodipodi.sourceforge.net/DTD/sodipodi-0.dtd"
   xmlns:inkscape="http://www.inkscape.org/namespaces/inkscape"
   version="1.1"
   id="Layer_2_1_"
   x="0px"
   y="0px"
   viewBox="0 0 192.6797 196"
   enable-background="new 0 0 3947.9399414 3860.8613281"
   xml:space="preserve"
   sodipodi:docname="childrens_creche.svg"
   inkscape:version="0.92.4 (5da689c313, 2019-01-14)"
   width="192.67972"
   height="196"><metadata
   id="metadata5465"><rdf:RDF><cc:Work
       rdf:about=""><dc:format>image/svg+xml</dc:format><dc:type
         rdf:resource="http://purl.org/dc/dcmitype/StillImage" /><dc:title></dc:title></cc:Work></rdf:RDF></metadata><defs
   id="defs5463" /><sodipodi:namedview
   pagecolor="#ffffff"
   bordercolor="#666666"
   borderopacity="1"
   objecttolerance="10"
   gridtolerance="10"
   guidetolerance="10"
   inkscape:pageopacity="0"
   inkscape:pageshadow="2"
   inkscape:window-width="1920"
   inkscape:window-height="1022"
   id="namedview5461"
   showgrid="false"
   inkscape:zoom="0.21212883"
   inkscape:cx="-87.401673"
   inkscape:cy="-946.34548"
   inkscape:window-x="1079"
   inkscape:window-y="709"
   inkscape:window-maximized="1"
   inkscape:current-layer="Layer_2_1_" />

















<g
   id="g3840"
   style="fill:#90ae50;fill-opacity:1"
   transform="translate(-948.96838,-587.08002)">
	<path
   d="m 1045.3082,587.08002 c -53.12204,0 -96.33982,43.22265 -96.33982,96.35009 v 99.64991 h 192.67972 v -99.64991 c 0,-53.12744 -43.2178,-96.35009 -96.3399,-96.35009 z m 80.3399,180 H 964.96838 v -83.64991 c 0,-44.30517 36.04002,-80.35009 80.33982,-80.35009 44.2998,0 80.3399,36.04492 80.3399,80.35009 z"
   id="path3830"
   style="fill:#90ae50;fill-opacity:1"
   inkscape:connector-curvature="0" />
	<path
   d="m 1018.778,734.65021 c -4.6499,-0.02 -5.8799,1.46002 -8.1499,3.76001 -4.69,4.75 -4.25,2.97003 -5.1299,-1.94001 -1.2901,-7.23999 -8.73026,-8.90997 -14.3201,-3.34997 -5.15015,5.11999 -5.34009,15.84003 -4.05005,22.56 2.31006,11.95001 14.34005,4.82 19.75005,4.82 h 16.6499 v -16.85003 c 0,-4.95996 -2.1299,-9 -4.75,-9 z"
   id="path3832"
   style="fill:#90ae50;fill-opacity:1"
   inkscape:connector-curvature="0" />
	<path
   d="m 1009.7679,721.72021 0.6102,-0.59997 10.78,-10.78998 -0.5,10.15997 h 24.6499 24.6501 l -0.5,-10.15997 10.7801,10.78998 0.6098,0.59997 c 5.1201,4.44001 16.0301,0.41004 16.0301,-5.97998 0,-11.22979 -20.5833,-30.30474 -45.2908,-33.18707 14.7517,-2.91974 25.8708,-15.92242 25.8708,-31.5329 0,-17.76001 -14.3901,-32.15002 -32.1501,-32.15002 -17.76,0 -32.1499,14.39001 -32.1499,32.15002 0,15.61048 11.119,28.61316 25.8706,31.5329 -24.7074,2.88233 -45.29054,21.95728 -45.29054,33.18707 0,6.39002 10.90994,10.41999 16.02974,5.97998 z"
   id="path3834"
   style="fill:#90ae50;fill-opacity:1"
   inkscape:connector-curvature="0" />
	<path
   d="m 1071.838,724.49023 h -26.53 -26.53 v 6.15998 c 4.9899,0 8.75,5.59002 8.75,13 v 16.85003 h 17.78 17.78 v -16.85003 c 0,-7.40998 3.76,-13 8.75,-13 z"
   id="path3836"
   style="fill:#90ae50;fill-opacity:1"
   inkscape:connector-curvature="0" />
	<path
   d="m 1085.118,736.47021 c -0.8798,4.91004 -0.4399,6.69001 -5.1298,1.94001 -2.2701,-2.29999 -3.5,-3.77997 -8.1502,-3.76001 -2.6199,0 -4.75,4.04004 -4.75,9 v 16.85003 h 16.6502 c 5.4099,0 17.4399,7.13001 19.75,-4.82 1.29,-6.71997 1.0998,-17.44001 -4.0501,-22.56 -5.5901,-5.56 -13.03,-3.89002 -14.3201,3.34997 z"
   id="path3838"
   style="fill:#90ae50;fill-opacity:1"
   inkscape:connector-curvature="0" />
</g>

































































































































































</svg>