<?xml version="1.0" encoding="UTF-8" standalone="no"?>
<!-- Generator: Adobe Illustrator 22.1.0, SVG Export Plug-In . SVG Version: 6.00 Build 0)  -->

<svg
   xmlns:dc="http://purl.org/dc/elements/1.1/"
   xmlns:cc="http://creativecommons.org/ns#"
   xmlns:rdf="http://www.w3.org/1999/02/22-rdf-syntax-ns#"
   xmlns:svg="http://www.w3.org/2000/svg"
   xmlns="http://www.w3.org/2000/svg"
   xmlns:sodipodi="http://sodipodi.sourceforge.net/DTD/sodipodi-0.dtd"
   xmlns:inkscape="http://www.inkscape.org/namespaces/inkscape"
   version="1.1"
   id="Layer_2_1_"
   x="0px"
   y="0px"
   viewBox="0 0 179.36424 179.79269"
   enable-background="new 0 0 3947.9399414 3860.8613281"
   xml:space="preserve"
   sodipodi:docname="command_center.svg"
   inkscape:version="0.92.4 (5da689c313, 2019-01-14)"
   width="179.36426"
   height="179.79269"><metadata
   id="metadata5465"><rdf:RDF><cc:Work
       rdf:about=""><dc:format>image/svg+xml</dc:format><dc:type
         rdf:resource="http://purl.org/dc/dcmitype/StillImage" /><dc:title></dc:title></cc:Work></rdf:RDF></metadata><defs
   id="defs5463" /><sodipodi:namedview
   pagecolor="#ffffff"
   bordercolor="#666666"
   borderopacity="1"
   objecttolerance="10"
   gridtolerance="10"
   guidetolerance="10"
   inkscape:pageopacity="0"
   inkscape:pageshadow="2"
   inkscape:window-width="1920"
   inkscape:window-height="1022"
   id="namedview5461"
   showgrid="false"
   inkscape:zoom="0.21212883"
   inkscape:cx="525.13843"
   inkscape:cy="180.7127"
   inkscape:window-x="1079"
   inkscape:window-y="709"
   inkscape:window-maximized="1"
   inkscape:current-layer="Layer_2_1_" />
































<g
   id="g3938"
   style="fill:#e1561c;fill-opacity:1"
   transform="translate(-336.42828,-1730.3455)">
	<path
   d="m 515.79254,1910.1382 h -62.29687 l -0.1211,-23.6655 c -0.005,-0.962 -0.79199,-1.7447 -1.7539,-1.7447 h -51.02051 c -0.96192,0 -1.74902,0.7827 -1.75391,1.7451 l -0.12109,23.6651 h -62.29688 l 42.33008,-42.3301 h 94.7041 z m -56.32812,-6 h 41.84375 l -30.33008,-30.3301 h -89.73535 l -30.33008,30.3301 h 41.84375 l 0.0898,-17.6958 c 0.0225,-4.2539 3.50098,-7.7144 7.75391,-7.7144 h 51.02051 c 4.25293,0 7.73144,3.4605 7.7539,7.7139 z"
   id="path3934"
   style="fill:#e1561c;fill-opacity:1"
   inkscape:connector-curvature="0" />
	<path
   d="m 490.04907,1789.002 c -0.0534,-0.605 -0.11566,-1.21 -0.17795,-1.8062 -0.0712,-0.6051 -0.15124,-1.2012 -0.23135,-1.7974 -0.16907,-1.1922 -0.37369,-2.3757 -0.61395,-3.5501 -0.34702,-1.753 -0.77408,-3.479 -1.26346,-5.1873 -0.16013,-0.5607 -0.32919,-1.1301 -0.51605,-1.6907 -0.15128,-0.4983 -0.32032,-0.9964 -0.48938,-1.4859 -0.0623,-0.169 -0.12458,-0.338 -0.17795,-0.4983 -0.14237,-0.3915 -0.28476,-0.7829 -0.42709,-1.1655 -0.0356,-0.08 -0.0623,-0.1602 -0.089,-0.2403 -0.20465,-0.516 -0.40927,-1.0411 -0.62281,-1.5571 -0.44488,-1.0765 -0.92538,-2.1355 -1.42367,-3.1853 l -34.46066,34.4607 h -3.68366 v 24.1837 l 5.05386,5.054 h 6.68216 v 3.6213 h -8.45279 l -8.95996,-8.96 h -7.65197 c -1.44144,0 -2.16214,1.7441 -1.1478,2.7583 l 6.20166,6.2017 h -22.97382 l 6.20172,-6.2017 c 1.01429,-1.0142 0.29358,-2.7583 -1.14782,-2.7583 h -7.65198 l -8.95999,8.96 h -8.45279 v -3.6213 h 6.68216 l 5.05389,-5.054 v -24.1837 h -3.68365 l -34.4607,-34.4607 c -0.45379,0.9432 -0.88085,1.8953 -1.28128,2.865 -0.13348,0.3026 -0.25799,0.605 -0.37368,0.9076 -0.0801,0.1958 -0.16019,0.3825 -0.23133,0.5783 -0.16906,0.4183 -0.32922,0.8453 -0.48053,1.2725 -0.17791,0.4714 -0.34695,0.952 -0.50711,1.4324 -0.14239,0.4094 -0.27588,0.8097 -0.40042,1.2191 -0.10675,0.3291 -0.21353,0.6584 -0.30252,0.9875 -0.089,0.2848 -0.16907,0.5695 -0.24911,0.8543 -0.32038,1.1122 -0.60505,2.2333 -0.85419,3.3721 -0.1246,0.5072 -0.23135,1.0145 -0.32922,1.5216 -0.15125,0.7295 -0.28473,1.4592 -0.4004,2.1887 -0.0534,0.3292 -0.10678,0.6586 -0.15127,0.9966 -0.0623,0.3737 -0.11566,0.7474 -0.16013,1.1211 -0.0178,0.1246 -0.0356,0.2402 -0.0445,0.3559 -0.0534,0.3916 -0.0979,0.7919 -0.1424,1.1834 -0.0178,0.2313 -0.0445,0.4626 -0.0623,0.6941 -0.0356,0.3203 -0.0623,0.6494 -0.089,0.9698 -0.0356,0.4894 -0.0712,0.9786 -0.0978,1.4769 -0.0357,0.605 -0.0623,1.219 -0.0801,1.842 -0.0178,0.6138 -0.0267,1.2277 -0.0267,1.8507 0,0.6938 0.009,1.379 0.0356,2.0642 0.0178,0.5606 0.0356,1.1122 0.0712,1.6639 0.0177,0.3291 0.0356,0.6585 0.0622,0.9876 0.0178,0.1869 0.0267,0.3736 0.0445,0.5606 0.0356,0.3914 0.0623,0.774 0.10678,1.1566 0.10675,1.1301 0.24909,2.2422 0.41815,3.3544 0.0801,0.525 0.16907,1.0501 0.26694,1.575 0.0623,0.3559 0.12457,0.7207 0.20468,1.0765 0.0889,0.4806 0.1868,0.9431 0.29358,1.4148 0.30255,1.3881 0.64957,2.7672 1.04996,4.1196 0.17792,0.6139 0.36477,1.21 0.56051,1.8151 0.16907,0.5338 0.34702,1.0679 0.54279,1.6016 0.42709,1.228 0.89868,2.4379 1.40579,3.6214 0.13349,0.3202 0.267,0.6405 0.40933,0.952 0.0978,0.2225 0.19577,0.445 0.30256,0.6674 0.12451,0.2936 0.2669,0.5872 0.40924,0.8809 0.10678,0.2402 0.22244,0.4803 0.33813,0.7118 0.16013,0.3201 0.32028,0.6406 0.4805,0.9608 0.23129,0.4538 0.46265,0.8897 0.70288,1.3347 5.94367,10.9619 14.98367,20.0019 25.94562,25.9455 0.44488,0.2404 0.88092,0.4717 1.33465,0.703 0.32035,0.1602 0.64066,0.3204 0.96097,0.4804 0.23133,0.1158 0.47159,0.2314 0.71179,0.3382 0.29364,0.1424 0.58729,0.2847 0.88086,0.4094 0.22245,0.1066 0.44489,0.2045 0.66733,0.3024 0.31146,0.1424 0.63175,0.2758 0.95206,0.4093 1.18341,0.5072 2.39349,0.9787 3.62137,1.4059 0.53387,0.1957 1.06772,0.3737 1.60156,0.5428 0.6051,0.1956 1.20123,0.3824 1.81515,0.5605 1.35242,0.4004 2.7316,0.7473 4.11963,1.0499 0.47156,0.1067 0.93427,0.2046 1.41471,0.2936 0.35592,0.08 0.7207,0.1425 1.07666,0.2047 0.52493,0.098 1.04989,0.1869 1.57489,0.2669 1.11221,0.169 2.22442,0.3115 3.3544,0.4182 0.38257,0.044 0.76517,0.071 1.15668,0.1068 0.18685,0.018 0.37374,0.027 0.56054,0.044 0.32923,0.027 0.65848,0.044 0.9877,0.062 0.55164,0.035 1.10331,0.053 1.66385,0.071 0.68509,0.027 1.37024,0.036 2.06427,0.036 0.694,0 1.37912,-0.01 2.06421,-0.036 0.56058,-0.018 1.11221,-0.036 1.66391,-0.071 0.32923,-0.018 0.65842,-0.035 0.98764,-0.062 0.19571,-0.018 0.3826,-0.027 0.57831,-0.053 0.37375,-0.027 0.73853,-0.053 1.11221,-0.089 1.14783,-0.1156 2.29563,-0.267 3.42566,-0.436 0.50717,-0.08 1.0232,-0.1602 1.53037,-0.258 0.35592,-0.062 0.7207,-0.1246 1.07663,-0.2047 0.48047,-0.089 0.94314,-0.1869 1.4147,-0.2936 0.73853,-0.1601 1.46814,-0.3293 2.18884,-0.5161 0.62287,-0.1601 1.2457,-0.3381 1.85965,-0.516 0.63169,-0.1781 1.26346,-0.3738 1.88629,-0.5783 0.53385,-0.1691 1.06775,-0.3471 1.60157,-0.5428 0.70291,-0.2403 1.39694,-0.4983 2.08203,-0.7741 0.50717,-0.1957 1.01434,-0.4092 1.51263,-0.6139 0.55164,-0.2314 1.1033,-0.4716 1.64609,-0.7296 0.30249,-0.1247 0.59613,-0.267 0.88086,-0.4094 1.01434,-0.4804 2.01981,-0.9876 3.00742,-1.5216 10.97082,-5.9436 20.01089,-14.9836 25.94561,-25.9455 0.30255,-0.5693 0.60504,-1.1388 0.89868,-1.7172 0.28473,-0.5783 0.56946,-1.1567 0.84528,-1.744 0.26694,-0.5872 0.53384,-1.1833 0.7919,-1.7794 0.50714,-1.1924 0.98764,-2.4025 1.42362,-3.6304 0.88085,-2.4647 1.61938,-4.9916 2.19769,-7.5808 0.13348,-0.5872 0.25809,-1.1833 0.37375,-1.7884 0.0267,-0.1156 0.0445,-0.2314 0.0711,-0.347 0.0979,-0.525 0.18689,-1.0499 0.27588,-1.5749 0.009,-0.089 0.0267,-0.1779 0.0445,-0.267 0.20462,-1.3079 0.36477,-2.6158 0.49826,-3.9504 0.0623,-0.6674 0.11566,-1.3437 0.16015,-2.0287 0.0801,-1.3615 0.12458,-2.7317 0.12458,-4.1107 0,-1.8597 -0.0801,-3.7016 -0.23136,-5.5255 z m -73.77951,-9.2892 h 2.49133 v -14.0673 h 13.72022 l 4.37762,4.3777 h -6.00592 v 7.0559 l 3.35443,4.3776 14.6189,-14.6188 h 35.19028 c -0.45377,-0.9611 -0.93424,-1.8953 -1.4325,-2.8206 -0.009,0 -0.009,-0.01 -0.009,-0.01 -5.93472,-10.9709 -14.97479,-20.0109 -25.94562,-25.9458 0,0 -0.009,0 -0.009,-0.01 -0.56057,-0.3023 -1.13003,-0.596 -1.70834,-0.8897 -0.57837,-0.2847 -1.15674,-0.5694 -1.74396,-0.8453 -0.58725,-0.2757 -1.18341,-0.5338 -1.77954,-0.7917 -1.14779,-0.4984 -2.31338,-0.9521 -3.49679,-1.3793 -0.13349,-0.053 -0.258,-0.098 -0.39151,-0.1423 -0.53382,-0.1869 -1.06772,-0.3738 -1.60157,-0.5427 -0.62283,-0.2047 -1.2546,-0.4004 -1.88629,-0.5784 -0.61395,-0.178 -1.23678,-0.356 -1.85965,-0.5161 -0.7919,-0.2046 -1.60156,-0.3914 -2.41128,-0.5606 -0.42707,-0.098 -0.86304,-0.1869 -1.29901,-0.2669 -0.13352,-0.036 -0.26694,-0.062 -0.40043,-0.08 -0.56054,-0.1068 -1.12112,-0.2047 -1.69058,-0.2937 -0.0445,-0.01 -0.08,-0.018 -0.11566,-0.018 -0.64954,-0.1068 -1.29904,-0.2048 -1.94855,-0.2848 -0.009,0 -0.0178,0 -0.0178,0 -0.66733,-0.089 -1.34354,-0.1601 -2.01977,-0.2224 -0.66733,-0.062 -1.34357,-0.1246 -2.02866,-0.1601 -0.67624,-0.045 -1.36136,-0.08 -2.04651,-0.098 -0.68509,-0.027 -1.37021,-0.036 -2.06421,-0.036 -0.69403,0 -1.37918,0.01 -2.06427,0.036 -0.68512,0.018 -1.37027,0.053 -2.04651,0.098 -0.68509,0.035 -1.36129,0.098 -2.02862,0.1601 -0.67624,0.062 -1.35248,0.1334 -2.01981,0.2224 0,0 -0.009,0 -0.0178,0 -0.63174,0.08 -1.2724,0.1691 -1.90411,0.2759 -0.089,0.01 -0.17795,0.027 -0.27582,0.044 -0.52499,0.08 -1.04993,0.178 -1.57492,0.2759 -0.13342,0.018 -0.26691,0.044 -0.40039,0.08 -0.43598,0.08 -0.87195,0.1692 -1.29904,0.2669 -1.46814,0.3114 -2.91846,0.6763 -4.34208,1.0945 -0.61392,0.178 -1.21005,0.3648 -1.81515,0.5606 -0.53384,0.1689 -1.06769,0.3558 -1.60156,0.5427 -0.13343,0.044 -0.25803,0.089 -0.39151,0.1423 -1.18335,0.4272 -2.349,0.8809 -3.49677,1.3793 -0.59613,0.2579 -1.19226,0.516 -1.77954,0.7917 -0.58722,0.2759 -1.16559,0.5606 -1.74396,0.8453 -0.57834,0.2937 -1.14779,0.5963 -1.71725,0.8986 -10.96195,5.9349 -20.00195,14.9749 -25.94562,25.9458 -0.50717,0.9253 -0.98761,1.8683 -1.44141,2.8294 h 35.19031 z"
   id="path3936"
   style="fill:#e1561c;fill-opacity:1"
   inkscape:connector-curvature="0" />
</g>


















































































































































</svg>