<?xml version="1.0" encoding="UTF-8" standalone="no"?>
<!-- Generator: Adobe Illustrator 22.1.0, SVG Export Plug-In . SVG Version: 6.00 Build 0)  -->

<svg
   xmlns:dc="http://purl.org/dc/elements/1.1/"
   xmlns:cc="http://creativecommons.org/ns#"
   xmlns:rdf="http://www.w3.org/1999/02/22-rdf-syntax-ns#"
   xmlns:svg="http://www.w3.org/2000/svg"
   xmlns="http://www.w3.org/2000/svg"
   xmlns:sodipodi="http://sodipodi.sourceforge.net/DTD/sodipodi-0.dtd"
   xmlns:inkscape="http://www.inkscape.org/namespaces/inkscape"
   version="1.1"
   id="Layer_2_1_"
   x="0px"
   y="0px"
   viewBox="0 0 179.36418 179.79029"
   enable-background="new 0 0 3947.9399414 3860.8613281"
   xml:space="preserve"
   sodipodi:docname="covert_ops_center.svg"
   inkscape:version="0.92.4 (5da689c313, 2019-01-14)"
   width="179.3642"
   height="179.7903"><metadata
   id="metadata5465"><rdf:RDF><cc:Work
       rdf:about=""><dc:format>image/svg+xml</dc:format><dc:type
         rdf:resource="http://purl.org/dc/dcmitype/StillImage" /><dc:title></dc:title></cc:Work></rdf:RDF></metadata><defs
   id="defs5463" /><sodipodi:namedview
   pagecolor="#ffffff"
   bordercolor="#666666"
   borderopacity="1"
   objecttolerance="10"
   gridtolerance="10"
   guidetolerance="10"
   inkscape:pageopacity="0"
   inkscape:pageshadow="2"
   inkscape:window-width="1920"
   inkscape:window-height="1022"
   id="namedview5461"
   showgrid="false"
   inkscape:zoom="0.21212883"
   inkscape:cx="-2570.8508"
   inkscape:cy="-103.07779"
   inkscape:window-x="1079"
   inkscape:window-y="709"
   inkscape:window-maximized="1"
   inkscape:current-layer="Layer_2_1_" />



































































































<g
   id="g4558"
   style="fill:#e1561c;fill-opacity:1"
   transform="translate(-3432.4175,-1446.5574)">
	<path
   d="m 3569.4517,1584.0176 h -94.7041 l -42.3301,42.3301 h 62.2969 l 0.121,-23.6651 c 0,-0.9624 0.792,-1.7451 1.754,-1.7451 h 51.0205 c 0.9619,0 1.749,0.7827 1.7539,1.7446 l 0.1211,23.6656 h 62.2968 z m -14.0879,18.6338 c -0.023,-4.2535 -3.501,-7.7139 -7.7539,-7.7139 h -51.0205 c -4.253,0 -7.7315,3.4604 -7.754,7.7144 l -0.09,17.6958 h -41.8437 l 30.33,-30.3301 h 89.7354 l 30.3301,30.3301 h -41.8438 z"
   id="path4538"
   style="fill:#e1561c;fill-opacity:1"
   inkscape:connector-curvature="0" />
	<g
   id="g4556"
   style="fill:#e1561c;fill-opacity:1">
		<path
   d="m 3524.5269,1491.5986 v 16.7008 h 16.7004 c -1.0969,-8.7115 -7.989,-15.6036 -16.7004,-16.7008 z"
   id="path4540"
   style="fill:#e1561c;fill-opacity:1"
   inkscape:connector-curvature="0" />
		<path
   d="m 3519.6665,1491.5985 c -8.7117,1.0969 -15.6038,7.9893 -16.7007,16.7009 h 16.7007 z"
   id="path4542"
   style="fill:#e1561c;fill-opacity:1"
   inkscape:connector-curvature="0" />
		<path
   d="m 3519.6665,1529.8599 v -16.7002 h -16.7007 c 1.0972,8.7114 7.9893,15.6032 16.7007,16.7002 z"
   id="path4544"
   style="fill:#e1561c;fill-opacity:1"
   inkscape:connector-curvature="0" />
		<path
   d="m 3547.5754,1508.2994 h 17.5428 c -1.22,-21.8315 -18.7608,-39.3722 -40.5913,-40.5922 v 17.5427 c 12.1784,1.1527 21.896,10.8711 23.0485,23.0495 z"
   id="path4546"
   style="fill:#e1561c;fill-opacity:1"
   inkscape:connector-curvature="0" />
		<path
   d="m 3496.6172,1513.1597 h -17.5427 c 1.2199,21.8307 18.7605,39.3712 40.592,40.5913 v -17.5427 c -12.1782,-1.1526 -21.8967,-10.8702 -23.0493,-23.0486 z"
   id="path4548"
   style="fill:#e1561c;fill-opacity:1"
   inkscape:connector-curvature="0" />
		<path
   d="m 3522.0996,1446.5574 c -35.3923,0 -64.175,28.7826 -64.175,64.175 0,35.3828 28.7827,64.1749 64.175,64.1749 35.3828,0 64.1751,-28.7921 64.1751,-64.1749 0,-35.3924 -28.7923,-64.175 -64.1751,-64.175 z m 51.4705,66.6051 c -1.2347,26.4885 -22.5518,47.8056 -49.0403,49.0403 v 6.3862 h -4.8604 v -6.3862 c -26.4885,-1.2347 -47.8152,-22.5518 -49.0498,-49.0403 h -6.3767 v -4.8603 h 6.3767 c 1.2346,-26.4884 22.5613,-47.8151 49.0498,-49.0498 v -6.3767 h 4.8604 v 6.3767 c 26.4885,1.2347 47.8056,22.5614 49.0403,49.0498 h 6.3862 v 4.8603 z"
   id="path4550"
   style="fill:#e1561c;fill-opacity:1"
   inkscape:connector-curvature="0" />
		<path
   d="m 3519.6665,1485.2499 v -17.5427 c -21.8315,1.22 -39.3721,18.7607 -40.592,40.5922 h 17.5427 c 1.1526,-12.1784 10.8711,-21.8968 23.0493,-23.0495 z"
   id="path4552"
   style="fill:#e1561c;fill-opacity:1"
   inkscape:connector-curvature="0" />
		<path
   d="m 3565.1228,1513.1625 c -1.2249,21.8325 -18.7607,39.3683 -40.593,40.593 v -40.593 z"
   id="path4554"
   style="fill:#e1561c;fill-opacity:1"
   inkscape:connector-curvature="0" />
	</g>
</g>















































































</svg>