<?xml version="1.0" encoding="UTF-8" standalone="no"?>
<!-- Generator: Adobe Illustrator 22.1.0, SVG Export Plug-In . SVG Version: 6.00 Build 0)  -->

<svg
   xmlns:dc="http://purl.org/dc/elements/1.1/"
   xmlns:cc="http://creativecommons.org/ns#"
   xmlns:rdf="http://www.w3.org/1999/02/22-rdf-syntax-ns#"
   xmlns:svg="http://www.w3.org/2000/svg"
   xmlns="http://www.w3.org/2000/svg"
   xmlns:sodipodi="http://sodipodi.sourceforge.net/DTD/sodipodi-0.dtd"
   xmlns:inkscape="http://www.inkscape.org/namespaces/inkscape"
   version="1.1"
   id="Layer_2_1_"
   x="0px"
   y="0px"
   viewBox="0 0 198.91363 198.9134"
   enable-background="new 0 0 3947.9399414 3860.8613281"
   xml:space="preserve"
   sodipodi:docname="energy_bank.svg"
   inkscape:version="0.92.4 (5da689c313, 2019-01-14)"
   width="198.91365"
   height="198.91341"><metadata
   id="metadata5465"><rdf:RDF><cc:Work
       rdf:about=""><dc:format>image/svg+xml</dc:format><dc:type
         rdf:resource="http://purl.org/dc/dcmitype/StillImage" /><dc:title></dc:title></cc:Work></rdf:RDF></metadata><defs
   id="defs5463" /><sodipodi:namedview
   pagecolor="#ffffff"
   bordercolor="#666666"
   borderopacity="1"
   objecttolerance="10"
   gridtolerance="10"
   guidetolerance="10"
   inkscape:pageopacity="0"
   inkscape:pageshadow="2"
   inkscape:window-width="1920"
   inkscape:window-height="1022"
   id="namedview5461"
   showgrid="false"
   inkscape:zoom="0.21212883"
   inkscape:cx="-84.284743"
   inkscape:cy="474.06538"
   inkscape:window-x="1079"
   inkscape:window-y="709"
   inkscape:window-maximized="1"
   inkscape:current-layer="Layer_2_1_" />




















































<path
   d="m 27.46785,143.85225 c -4.506,12.4186 -14.3619,22.2745 -26.7857,26.781 -0.5237,0.1899 -0.5235,0.9281 2e-4,1.1178 12.4237,4.5011 22.2795,14.3516 26.7855,26.7698 0.19,0.5234 0.9279,0.5234 1.1178,0 4.506,-12.4182 14.3619,-22.2687 26.7856,-26.7698 0.5237,-0.1897 0.5239,-0.9279 2e-4,-1.1178 -12.4238,-4.5065 -22.2797,-14.3624 -26.7858,-26.781 -0.1899,-0.5234 -0.9278,-0.5234 -1.1178,0 z m 71.9889,-141.419 -97.0234,97.0236 97.0234,97.0233 97.0235,-97.0233 z m 34.4385,92.0236 h -29.4385 v -29.1915 h 29.4385 z m -67.0059,10 h 27.5674 v 27.8134 h -27.5674 z m 0,-10 v -29.1915 h 27.5674 v 29.1915 z m 37.5674,10 h 29.4385 v 27.8134 h -29.4385 z m 0,-49.1915 v -29.4472 l 29.4473,29.4472 z m -10,0 h -29.4472 l 29.4472,-29.4472 z m -37.5674,39.1915 h -31.0712 l 31.0712,-31.0714 z m 0,10 v 31.0713 l -31.0712,-31.0713 z m 37.5674,37.8133 v 30.8253 l -30.8252,-30.8253 z m 10,0 h 30.8252 l -30.8252,30.8253 z m 39.4385,-37.8133 h 29.2002 l -29.2002,29.2001 z m 0,-10 v -29.2003 l 29.2002,29.2003 z m -88.8339,-66.989 c -12.4188,-4.506 -22.2748,-14.362 -26.781,-26.7858 -0.19,-0.5237 -0.9283,-0.5234 -1.118,3e-4 -4.5009,12.4237 -14.3515,22.2795 -26.7698,26.7855 -0.5234,0.1899 -0.5234,0.9278 0,1.1178 12.4183,4.506 22.2689,14.3619 26.7698,26.7856 0.1897,0.5237 0.928,0.5237 1.118,0 4.5062,-12.4236 14.3622,-22.2796 26.781,-26.7856 0.5235,-0.19 0.5235,-0.9279 0,-1.1178 z m 88.7909,143.9779 c 12.4189,4.506 22.2748,14.3617 26.781,26.7855 0.19,0.5238 0.9283,0.5236 1.118,-2e-4 4.5008,-12.4236 14.3515,-22.2795 26.7697,-26.7853 0.5236,-0.19 0.5236,-0.9281 0,-1.118 -12.4182,-4.5059 -22.2689,-14.3616 -26.7697,-26.7853 -0.1897,-0.524 -0.928,-0.524 -1.118,-4e-4 -4.5062,12.4237 -14.3621,22.2799 -26.781,26.7857 -0.5235,0.1901 -0.5235,0.9281 0,1.118 z m 27.5934,-116.3845 c 4.5061,-12.4187 14.3621,-22.2746 26.7858,-26.7809 0.5237,-0.1901 0.5235,-0.9282 -3e-4,-1.118 -12.4235,-4.5009 -22.2795,-14.3514 -26.7855,-26.7698 -0.1899,-0.5234 -0.9278,-0.5234 -1.1178,0 -4.506,12.4184 -14.3618,22.2689 -26.7855,26.7698 -0.5237,0.1898 -0.5238,0.9279 -1e-4,1.118 12.4237,4.5063 22.2796,14.3622 26.7856,26.7809 0.19,0.5237 0.9279,0.5237 1.1178,0 z"
   id="path4156"
   style="fill:#e2bd4d;fill-opacity:1"
   inkscape:connector-curvature="0" />






























































































































</svg>