<?xml version="1.0" encoding="UTF-8" standalone="no"?>
<!-- Generator: Adobe Illustrator 22.1.0, SVG Export Plug-In . SVG Version: 6.00 Build 0)  -->

<svg
   xmlns:dc="http://purl.org/dc/elements/1.1/"
   xmlns:cc="http://creativecommons.org/ns#"
   xmlns:rdf="http://www.w3.org/1999/02/22-rdf-syntax-ns#"
   xmlns:svg="http://www.w3.org/2000/svg"
   xmlns="http://www.w3.org/2000/svg"
   xmlns:sodipodi="http://sodipodi.sourceforge.net/DTD/sodipodi-0.dtd"
   xmlns:inkscape="http://www.inkscape.org/namespaces/inkscape"
   version="1.1"
   id="Layer_2_1_"
   x="0px"
   y="0px"
   viewBox="0 0 140.55078 191.83979"
   enable-background="new 0 0 3947.9399414 3860.8613281"
   xml:space="preserve"
   sodipodi:docname="flechette_defense_system.svg"
   inkscape:version="0.92.4 (5da689c313, 2019-01-14)"
   width="140.5508"
   height="191.8398"><metadata
   id="metadata5465"><rdf:RDF><cc:Work
       rdf:about=""><dc:format>image/svg+xml</dc:format><dc:type
         rdf:resource="http://purl.org/dc/dcmitype/StillImage" /><dc:title></dc:title></cc:Work></rdf:RDF></metadata><defs
   id="defs5463" /><sodipodi:namedview
   pagecolor="#ffffff"
   bordercolor="#666666"
   borderopacity="1"
   objecttolerance="10"
   gridtolerance="10"
   guidetolerance="10"
   inkscape:pageopacity="0"
   inkscape:pageshadow="2"
   inkscape:window-width="1920"
   inkscape:window-height="1022"
   id="namedview5461"
   showgrid="false"
   inkscape:zoom="0.21212883"
   inkscape:cx="-1042.2629"
   inkscape:cy="1605.6919"
   inkscape:window-x="1079"
   inkscape:window-y="709"
   inkscape:window-maximized="1"
   inkscape:current-layer="Layer_2_1_" />



































































































































<g
   id="g4904"
   style="fill:#90ae50;fill-opacity:1"
   transform="translate(-1903.8296,-3143.2776)">
	<path
   d="m 2038.3804,3149.2776 v 113.0791 l -64.2754,64.2754 -64.2754,-64.2754 v -113.0791 h 128.5508 m 6,-6 h -140.5508 v 121.5644 l 70.2754,70.2754 70.2754,-70.2754 z"
   id="path4900"
   style="fill:#90ae50;fill-opacity:1"
   inkscape:connector-curvature="0" />
	<polygon
   points="1995.9102,3230.136 1995.9102,3222.8115 1924.8291,3254.9956 1924.8291,3256.1438 1941.3203,3272.635 1980.2778,3254.9998 1970.6836,3245.4055 1984.0137,3249.6455 1990.4336,3238.2053 1990.4336,3251.5154 2002.3237,3248.2954 1993.0537,3257.5754 2002.2637,3263.9753 1990.3535,3260.9453 1992.7637,3275.8054 1986.3237,3263.9954 1980.3335,3269.9753 1980.3335,3262.6509 1946.6069,3277.9216 1974.105,3305.4194 2023.3804,3256.1438 2023.3804,3164.2776 1924.8291,3164.2776 1924.8291,3207.9521 1980.2778,3182.8521 1970.6836,3173.2576 1984.0137,3177.4976 1990.4336,3166.0576 1990.4336,3179.3677 2002.3237,3176.1477 1993.0537,3185.4275 2002.2637,3191.8276 1990.3535,3188.7976 1992.7637,3203.6577 1986.3237,3191.8477 1980.3335,3197.8276 1980.3335,3190.5032 1924.8291,3215.6345 1924.8291,3247.3115 1995.8545,3215.1604 1986.2603,3205.5662 1999.5903,3209.8062 2006.0103,3198.366 2006.0103,3211.676 2017.9004,3208.4561 2008.6304,3217.7361 2017.8403,3224.136 2005.9302,3221.106 2008.3403,3235.9661 2001.9004,3224.156 "
   id="polygon4902"
   style="fill:#90ae50;fill-opacity:1" />
</g>















































</svg>