<?xml version="1.0" encoding="UTF-8" standalone="no"?>
<!-- Generator: Adobe Illustrator 22.1.0, SVG Export Plug-In . SVG Version: 6.00 Build 0)  -->

<svg
   xmlns:dc="http://purl.org/dc/elements/1.1/"
   xmlns:cc="http://creativecommons.org/ns#"
   xmlns:rdf="http://www.w3.org/1999/02/22-rdf-syntax-ns#"
   xmlns:svg="http://www.w3.org/2000/svg"
   xmlns="http://www.w3.org/2000/svg"
   xmlns:sodipodi="http://sodipodi.sourceforge.net/DTD/sodipodi-0.dtd"
   xmlns:inkscape="http://www.inkscape.org/namespaces/inkscape"
   version="1.1"
   id="Layer_2_1_"
   x="0px"
   y="0px"
   viewBox="0 0 177.95626 204.96"
   enable-background="new 0 0 3947.9399414 3860.8613281"
   xml:space="preserve"
   sodipodi:docname="fusion_lab.svg"
   inkscape:version="0.92.4 (5da689c313, 2019-01-14)"
   width="177.95628"
   height="204.96001"><metadata
   id="metadata5465"><rdf:RDF><cc:Work
       rdf:about=""><dc:format>image/svg+xml</dc:format><dc:type
         rdf:resource="http://purl.org/dc/dcmitype/StillImage" /><dc:title></dc:title></cc:Work></rdf:RDF></metadata><defs
   id="defs5463" /><sodipodi:namedview
   pagecolor="#ffffff"
   bordercolor="#666666"
   borderopacity="1"
   objecttolerance="10"
   gridtolerance="10"
   guidetolerance="10"
   inkscape:pageopacity="0"
   inkscape:pageshadow="2"
   inkscape:window-width="1920"
   inkscape:window-height="1022"
   id="namedview5461"
   showgrid="false"
   inkscape:zoom="0.21212883"
   inkscape:cx="-2881.1536"
   inkscape:cy="477.08867"
   inkscape:window-x="1079"
   inkscape:window-y="709"
   inkscape:window-maximized="1"
   inkscape:current-layer="Layer_2_1_" />














































































































<g
   id="g4654"
   style="fill:#d7e6ed;fill-opacity:1"
   transform="translate(-3742.7204,-2001.5542)">
	<path
   d="m 3915.5085,2164.5942 -54.78,-74.1799 v -45.7501 c 0,-1.4601 0.9502,-2.7999 2.3701,-3.15 4.3301,-1.0501 7.68,-4.93 7.68,-9.5301 v -20.6098 c 0,-5.4202 -4.3999,-9.8201 -9.8201,-9.8201 h -58.52 c -5.4199,0 -9.8201,4.3999 -9.8201,9.8201 v 20.6098 c 0,4.6001 3.3501,8.48 7.6799,9.5301 1.4202,0.3501 2.3702,1.6899 2.3702,3.15 v 45.7501 l -54.7801,74.1799 c -6.05,8.19 -6.8601,18.97 -2.05,28 4.6401,8.71 13.9499,13.92 23.82,13.92 h 124.0801 c 9.8701,0 19.1802,-5.21 23.8201,-13.92 4.8101,-9.03 4,-19.81 -2.0501,-28 z m -9.3798,21.8101 c -2.3301,4.46 -7.1001,7.1099 -12.1202,7.1099 h -124.6201 c -5.02,0 -9.79,-2.6499 -12.1198,-7.1099 -2.4202,-4.6201 -2.0101,-9.9001 1.0798,-14.0901 l 57.3201,-77.6199 v -56.07 c 0,-4.8802 -3.75,-8.9301 -8.45,-9.6901 -0.9402,-0.15 -1.6001,-1.01 -1.6001,-1.9601 v -8.8699 c 0,-1.96 1.5901,-3.55 3.5501,-3.55 h 45.06 c 1.96,0 3.5501,1.59 3.5501,3.55 v 8.8699 c 0,0.9501 -0.6599,1.8101 -1.5999,1.9601 -4.7002,0.76 -8.4502,4.8099 -8.4502,9.6901 v 56.07 l 57.3201,77.6199 c 3.0901,4.19 3.5,9.47 1.0801,14.0901 z"
   id="path4650"
   style="fill:#d7e6ed;fill-opacity:1"
   inkscape:connector-curvature="0" />
	<path
   d="m 3831.6985,2108.0566 c -22.9197,0 -41.5,18.5804 -41.5,41.5 0,22.92 18.5803,41.5 41.5,41.5 22.9199,0 41.5,-18.58 41.5,-41.5 0,-22.9196 -18.5801,-41.5 -41.5,-41.5 z m 27.5862,13.9131 -6.6411,16.9351 c -2.2571,-4.426 -5.8721,-8.041 -10.2937,-10.294 z m -8.1255,27.5869 c 0,10.7478 -8.7129,19.4607 -19.4607,19.4607 -10.7478,0 -19.4607,-8.7129 -19.4607,-19.4607 0,-10.7478 8.7129,-19.4604 19.4607,-19.4604 10.7478,0 19.4607,8.7126 19.4607,19.4604 z m -19.4607,-39.0158 7.2759,16.6745 c -2.2908,-0.748 -4.7371,-1.1516 -7.2759,-1.1516 -2.5388,0 -4.9851,0.4036 -7.2759,1.1516 z m -10.6511,18.07 c -4.4219,2.253 -8.0367,5.868 -10.294,10.294 l -6.6411,-16.9351 z m -28.3641,20.9451 16.6705,-7.2759 c -0.7439,2.2908 -1.1475,4.7371 -1.1475,7.2759 0,2.5388 0.4036,4.9851 1.1475,7.2759 z m 11.429,27.5864 6.6411,-16.9309 c 2.2573,4.4219 5.8677,8.0366 10.2898,10.2896 z m 27.5862,11.4287 -7.2759,-16.6704 c 2.2908,0.7483 4.7371,1.1519 7.2759,1.1519 2.5388,0 4.9851,-0.4036 7.2759,-1.1519 z m 10.6555,-18.07 c 4.4219,-2.253 8.0325,-5.8677 10.2896,-10.2896 l 6.6411,16.9309 z m 11.6892,-13.6692 c 0.7442,-2.2908 1.1477,-4.7371 1.1477,-7.2759 0,-2.5388 -0.4035,-4.9851 -1.1477,-7.2759 l 16.6704,7.2759 z"
   id="path4652"
   style="fill:#d7e6ed;fill-opacity:1"
   inkscape:connector-curvature="0" />
</g>




































































</svg>