<?xml version="1.0" encoding="UTF-8" standalone="no"?>
<!-- Generator: Adobe Illustrator 22.1.0, SVG Export Plug-In . SVG Version: 6.00 Build 0)  -->

<svg
   xmlns:dc="http://purl.org/dc/elements/1.1/"
   xmlns:cc="http://creativecommons.org/ns#"
   xmlns:rdf="http://www.w3.org/1999/02/22-rdf-syntax-ns#"
   xmlns:svg="http://www.w3.org/2000/svg"
   xmlns="http://www.w3.org/2000/svg"
   xmlns:sodipodi="http://sodipodi.sourceforge.net/DTD/sodipodi-0.dtd"
   xmlns:inkscape="http://www.inkscape.org/namespaces/inkscape"
   version="1.1"
   id="Layer_2_1_"
   x="0px"
   y="0px"
   viewBox="0 0 174.99998 179.99999"
   enable-background="new 0 0 3947.9399414 3860.8613281"
   xml:space="preserve"
   sodipodi:docname="genejack_factory.svg"
   inkscape:version="0.92.4 (5da689c313, 2019-01-14)"
   width="175"
   height="180"><metadata
   id="metadata5465"><rdf:RDF><cc:Work
       rdf:about=""><dc:format>image/svg+xml</dc:format><dc:type
         rdf:resource="http://purl.org/dc/dcmitype/StillImage" /><dc:title></dc:title></cc:Work></rdf:RDF></metadata><defs
   id="defs5463" /><sodipodi:namedview
   pagecolor="#ffffff"
   bordercolor="#666666"
   borderopacity="1"
   objecttolerance="10"
   gridtolerance="10"
   guidetolerance="10"
   inkscape:pageopacity="0"
   inkscape:pageshadow="2"
   inkscape:window-width="1920"
   inkscape:window-height="1022"
   id="namedview5461"
   showgrid="false"
   inkscape:zoom="0.21212883"
   inkscape:cx="-2882.6317"
   inkscape:cy="-386.76383"
   inkscape:window-x="1079"
   inkscape:window-y="709"
   inkscape:window-maximized="1"
   inkscape:current-layer="Layer_2_1_" />











































































































<g
   id="g4636"
   style="fill:#e2bd4d;fill-opacity:1"
   transform="translate(-3744.1985,-1162.6617)">
	<path
   d="m 3824.7664,1287.1615 h -18.0867 c 2.1318,5.2909 4.81,8.0342 7.5017,8.7856 v 6.1521 h 3.9128 v -6.4255 c 2.7012,-1.1371 5.1304,-4.1775 6.6722,-8.5122 z"
   id="path4622"
   style="fill:#e2bd4d;fill-opacity:1"
   inkscape:connector-curvature="0" />
	<path
   d="m 3831.6985,1277.4117 c -0.9422,0 -1.8504,-0.1389 -2.7168,-0.3796 l -3.8623,3.8623 c 1.9924,0.9624 4.2182,1.5173 6.5791,1.5173 8.3762,0 15.1665,-6.7904 15.1665,-15.1666 0,-2.3608 -0.5549,-4.5868 -1.5173,-6.5791 l -3.8623,3.8624 c 0.2407,0.8663 0.3796,1.7747 0.3796,2.7167 0,5.6059 -4.5606,10.1666 -10.1665,10.1666 z"
   id="path4624"
   style="fill:#e2bd4d;fill-opacity:1"
   inkscape:connector-curvature="0" />
	
		<rect
   x="3810.2087"
   y="1264.2451"
   transform="rotate(-45,3831.6988,1267.2446)"
   width="42.980228"
   height="5.9993901"
   id="rect4626"
   style="fill:#e2bd4d;fill-opacity:1" />
	<path
   d="m 3821.9114,1269.9618 c -0.241,-0.8662 -0.3797,-1.7747 -0.3797,-2.7167 0,-5.6059 4.5608,-10.1667 10.1668,-10.1667 0.9419,0 1.8503,0.1388 2.7165,0.3796 l 3.8623,-3.8623 c -1.9921,-0.9623 -4.218,-1.5173 -6.5788,-1.5173 -8.3765,0 -15.1668,6.7904 -15.1668,15.1667 0,2.3607 0.555,4.5868 1.5174,6.579 z"
   id="path4628"
   style="fill:#e2bd4d;fill-opacity:1"
   inkscape:connector-curvature="0" />
	<path
   d="m 3912.9482,1222.1106 v -59.4489 h -37.5 v 59.4489 h -6.2497 v 19.6512 h -12.5 v -19.6512 h -6.2503 v -59.4489 h -37.5 v 59.4489 h -6.2497 v 19.6512 h -12.5 v -19.6512 h -6.2503 v -59.4489 h -37.5 v 59.4489 h -6.2497 v 120.5511 h 175 v -120.5511 z m -41.9543,72.4022 c 0,5.4773 -4.4363,9.9209 -9.9211,9.9209 -0.3155,0 -0.6014,0.1248 -0.8067,0.33 -0.2053,0.2054 -0.3298,0.4913 -0.3298,0.8065 v 9.899 c 0,3.4757 -1.3787,6.8047 -3.835,9.2611 l -8.5132,8.5132 c -2.4563,2.4491 -5.7854,3.8349 -9.261,3.8349 h -13.2573 c -3.4758,0 -6.8047,-1.3858 -9.2612,-3.8349 l -8.5132,-8.5132 c -2.4563,-2.4564 -3.835,-5.7854 -3.835,-9.2611 v -9.899 c 0,-0.3152 -0.1245,-0.6011 -0.3298,-0.8065 -0.2053,-0.2052 -0.4912,-0.33 -0.8066,-0.33 -5.4846,0 -9.9212,-4.4436 -9.9212,-9.9209 v -17.217 c 0,-1.5618 1.0855,-2.9185 2.618,-3.2483 l 4.7221,-1.0266 v -5.8074 c 0,-13.3893 10.8523,-24.2343 24.2342,-24.2343 h 15.4426 c 13.3821,0 24.2341,10.845 24.2341,24.2343 v 5.8074 l 4.7222,1.0266 c 1.5324,0.3298 2.6179,1.6865 2.6179,3.2483 z"
   id="path4630"
   style="fill:#e2bd4d;fill-opacity:1"
   inkscape:connector-curvature="0" />
	<rect
   x="3819.74"
   y="1318.0784"
   width="23.916748"
   height="4.083374"
   id="rect4632"
   style="fill:#e2bd4d;fill-opacity:1" />
	<path
   d="m 3845.3025,1295.6737 v 6.4255 h 3.9128 v -6.1521 c 2.6917,-0.7514 5.3699,-3.4947 7.5017,-8.7856 h -18.0866 c 1.5417,4.3347 3.9709,7.3751 6.6721,8.5122 z"
   id="path4634"
   style="fill:#e2bd4d;fill-opacity:1"
   inkscape:connector-curvature="0" />
</g>







































































</svg>