<?xml version="1.0" encoding="UTF-8" standalone="no"?>
<!-- Generator: Adobe Illustrator 22.1.0, SVG Export Plug-In . SVG Version: 6.00 Build 0)  -->

<svg
   xmlns:dc="http://purl.org/dc/elements/1.1/"
   xmlns:cc="http://creativecommons.org/ns#"
   xmlns:rdf="http://www.w3.org/1999/02/22-rdf-syntax-ns#"
   xmlns:svg="http://www.w3.org/2000/svg"
   xmlns="http://www.w3.org/2000/svg"
   xmlns:sodipodi="http://sodipodi.sourceforge.net/DTD/sodipodi-0.dtd"
   xmlns:inkscape="http://www.inkscape.org/namespaces/inkscape"
   version="1.1"
   id="Layer_2_1_"
   x="0px"
   y="0px"
   viewBox="0 0 132.17969 189.30278"
   enable-background="new 0 0 3947.9399414 3860.8613281"
   xml:space="preserve"
   sodipodi:docname="geosynchronous_survey_pod.svg"
   inkscape:version="0.92.4 (5da689c313, 2019-01-14)"
   width="132.1797"
   height="189.3028"><metadata
   id="metadata5465"><rdf:RDF><cc:Work
       rdf:about=""><dc:format>image/svg+xml</dc:format><dc:type
         rdf:resource="http://purl.org/dc/dcmitype/StillImage" /><dc:title></dc:title></cc:Work></rdf:RDF></metadata><defs
   id="defs5463" /><sodipodi:namedview
   pagecolor="#ffffff"
   bordercolor="#666666"
   borderopacity="1"
   objecttolerance="10"
   gridtolerance="10"
   guidetolerance="10"
   inkscape:pageopacity="0"
   inkscape:pageshadow="2"
   inkscape:window-width="1920"
   inkscape:window-height="1022"
   id="namedview5461"
   showgrid="false"
   inkscape:zoom="0.21212883"
   inkscape:cx="-1975.2452"
   inkscape:cy="1604.4234"
   inkscape:window-x="1079"
   inkscape:window-y="709"
   inkscape:window-maximized="1"
   inkscape:current-layer="Layer_2_1_" />




































































































































<g
   id="g4914"
   style="fill:#90ae50;fill-opacity:1"
   transform="translate(-2836.812,-3144.5461)">
	<path
   d="m 2836.812,3144.5461 v 123.2066 l 66.0967,66.0962 66.083,-66.0962 v -123.2066 z m 126.1797,120.7215 -60.0835,60.0957 -60.0962,-60.096 v -114.7212 h 120.1797 z"
   id="path4906"
   style="fill:#90ae50;fill-opacity:1"
   inkscape:connector-curvature="0" />
	<polygon
   points="2951.9922,3181.2725 2932.2622,3161.5425 2857.332,3161.5425 2951.9922,3256.2024 "
   id="polygon4908"
   style="fill:#90ae50;fill-opacity:1" />
	<path
   d="m 2902.9121,3309.8025 43.6201,-43.6301 3.0699,-3.0699 c -1.3399,-0.56 -2.69,-1.1001 -4.0499,-1.6101 -13.2602,-5.06 -27.6303,-7.83 -42.6401,-7.83 -15.02,0 -29.3999,2.77 -42.6601,7.83 -1.3599,0.51 -2.71,1.0501 -4.0401,1.6199 l 3.0703,3.0701 z m 0,-52.1401 c 13.8701,0 27.19,2.4499 39.5298,6.9401 l -39.5298,39.5398 -39.5498,-39.5398 c 12.3496,-4.4902 25.6699,-6.9401 39.5498,-6.9401 z"
   id="path4910"
   style="fill:#90ae50;fill-opacity:1"
   inkscape:connector-curvature="0" />
	<polygon
   points="2907.8418,3221.8142 2891.7202,3205.6926 2869.7251,3243.8093 "
   id="polygon4912"
   style="fill:#90ae50;fill-opacity:1" />
</g>














































</svg>