<?xml version="1.0" encoding="UTF-8" standalone="no"?>
<!-- Generator: Adobe Illustrator 22.1.0, SVG Export Plug-In . SVG Version: 6.00 Build 0)  -->

<svg
   xmlns:dc="http://purl.org/dc/elements/1.1/"
   xmlns:cc="http://creativecommons.org/ns#"
   xmlns:rdf="http://www.w3.org/1999/02/22-rdf-syntax-ns#"
   xmlns:svg="http://www.w3.org/2000/svg"
   xmlns="http://www.w3.org/2000/svg"
   xmlns:sodipodi="http://sodipodi.sourceforge.net/DTD/sodipodi-0.dtd"
   xmlns:inkscape="http://www.inkscape.org/namespaces/inkscape"
   version="1.1"
   id="Layer_2_1_"
   x="0px"
   y="0px"
   viewBox="0 0 187.08008 198.36328"
   enable-background="new 0 0 3947.9399414 3860.8613281"
   xml:space="preserve"
   sodipodi:docname="hab_complex.svg"
   inkscape:version="0.92.4 (5da689c313, 2019-01-14)"
   width="187.08009"
   height="198.3633"><metadata
   id="metadata5465"><rdf:RDF><cc:Work
       rdf:about=""><dc:format>image/svg+xml</dc:format><dc:type
         rdf:resource="http://purl.org/dc/dcmitype/StillImage" /><dc:title></dc:title></cc:Work></rdf:RDF></metadata><defs
   id="defs5463" /><sodipodi:namedview
   pagecolor="#ffffff"
   bordercolor="#666666"
   borderopacity="1"
   objecttolerance="10"
   gridtolerance="10"
   guidetolerance="10"
   inkscape:pageopacity="0"
   inkscape:pageshadow="2"
   inkscape:window-width="1920"
   inkscape:window-height="1022"
   id="namedview5461"
   showgrid="false"
   inkscape:zoom="0.21212883"
   inkscape:cx="-1328.597"
   inkscape:cy="-93.791328"
   inkscape:window-x="1079"
   inkscape:window-y="709"
   inkscape:window-maximized="1"
   inkscape:current-layer="Layer_2_1_" />



































































<g
   id="g4292"
   style="fill:#90ae50;fill-opacity:1"
   transform="translate(-2190.1638,-1437.2709)">
	<path
   d="m 2298.0737,1524.7216 c 3.0501,3.8899 4.67,12.88 5.1402,27.6799 h 7.9199 c -0.4002,-17.72 1.56,-42.35 -22.0601,-50.02 v -4.07 c 10.71,-9.67 9.3101,-24.87 -5.3698,-24.94 -14.6802,0.07 -16.0801,15.27 -5.3702,24.94 v 4.07 c -23.6198,7.67 -21.6599,32.3 -22.06,50.02 h 7.9201 c 0.47,-14.7999 2.0899,-23.79 5.1399,-27.6799 v 83.2099 l -8.3899,8.39 h 20.22 v -52.95 h 2.5401 2.5398 v 52.95 h 20.2202 l -8.3902,-8.39 z"
   id="path4288"
   style="fill:#90ae50;fill-opacity:1"
   inkscape:connector-curvature="0" />
	<path
   d="m 2377.2439,1635.6342 h -187.0801 v -104.8233 l 93.5401,-93.54 93.54,93.54 z m -171.0801,-16 h 155.0801 v -82.1963 l -77.54,-77.5401 -77.5401,77.5401 z"
   id="path4290"
   style="fill:#90ae50;fill-opacity:1"
   inkscape:connector-curvature="0" />
</g>















































































































</svg>