<?xml version="1.0" encoding="UTF-8" standalone="no"?>
<!-- Generator: Adobe Illustrator 22.1.0, SVG Export Plug-In . SVG Version: 6.00 Build 0)  -->

<svg
   xmlns:dc="http://purl.org/dc/elements/1.1/"
   xmlns:cc="http://creativecommons.org/ns#"
   xmlns:rdf="http://www.w3.org/1999/02/22-rdf-syntax-ns#"
   xmlns:svg="http://www.w3.org/2000/svg"
   xmlns="http://www.w3.org/2000/svg"
   xmlns:sodipodi="http://sodipodi.sourceforge.net/DTD/sodipodi-0.dtd"
   xmlns:inkscape="http://www.inkscape.org/namespaces/inkscape"
   version="1.1"
   id="Layer_2_1_"
   x="0px"
   y="0px"
   viewBox="0 0 192.68268 196.00099"
   enable-background="new 0 0 3947.9399414 3860.8613281"
   xml:space="preserve"
   sodipodi:docname="habitation_dome.svg"
   inkscape:version="0.92.4 (5da689c313, 2019-01-14)"
   width="192.68269"
   height="196.00101"><metadata
   id="metadata5465"><rdf:RDF><cc:Work
       rdf:about=""><dc:format>image/svg+xml</dc:format><dc:type
         rdf:resource="http://purl.org/dc/dcmitype/StillImage" /><dc:title></dc:title></cc:Work></rdf:RDF></metadata><defs
   id="defs5463" /><sodipodi:namedview
   pagecolor="#ffffff"
   bordercolor="#666666"
   borderopacity="1"
   objecttolerance="10"
   gridtolerance="10"
   guidetolerance="10"
   inkscape:pageopacity="0"
   inkscape:pageshadow="2"
   inkscape:window-width="1920"
   inkscape:window-height="1022"
   id="namedview5461"
   showgrid="false"
   inkscape:zoom="0.21212883"
   inkscape:cx="-1325.7957"
   inkscape:cy="1323.9817"
   inkscape:window-x="1079"
   inkscape:window-y="709"
   inkscape:window-maximized="1"
   inkscape:current-layer="Layer_2_1_" />
















































































































































































<g
   id="g5450"
   style="fill:#90ae50;fill-opacity:1"
   transform="translate(-2187.3625,-2857.4062)">
	<path
   d="m 2298.074,2943.0603 c 3.05,3.8901 4.6699,12.8801 5.1401,27.6802 h 7.9199 c -0.4001,-17.7202 1.5601,-42.3501 -22.06,-50.02 v -4.0701 c 10.7099,-9.6699 9.31,-24.8701 -5.3699,-24.94 -14.6802,0.07 -16.0801,15.2701 -5.3701,24.94 v 4.0701 c -23.6199,7.6699 -21.6599,32.2998 -22.0601,50.02 h 7.9202 c 0.47,-14.8001 2.0898,-23.7901 5.1399,-27.6802 v 83.21 l -8.3899,8.3901 h 20.22 v -52.95 h 2.54 2.5398 v 52.95 h 20.2202 l -8.3901,-8.3901 z"
   id="path5446"
   style="fill:#90ae50;fill-opacity:1"
   inkscape:connector-curvature="0" />
	<path
   d="m 2380.0452,3053.4072 h -192.6827 v -99.6592 c 0,-53.123 43.2188,-96.3418 96.3418,-96.3418 53.1221,0 96.3409,43.2188 96.3409,96.3418 z m -176.6827,-16 h 160.6827 v -83.6592 c 0,-44.3007 -36.041,-80.3418 -80.3409,-80.3418 -44.3007,0 -80.3418,36.0411 -80.3418,80.3418 z"
   id="path5448"
   style="fill:#90ae50;fill-opacity:1"
   inkscape:connector-curvature="0" />
</g>


</svg>