<?xml version="1.0" encoding="UTF-8" standalone="no"?>
<!-- Generator: Adobe Illustrator 22.1.0, SVG Export Plug-In . SVG Version: 6.00 Build 0)  -->

<svg
   xmlns:dc="http://purl.org/dc/elements/1.1/"
   xmlns:cc="http://creativecommons.org/ns#"
   xmlns:rdf="http://www.w3.org/1999/02/22-rdf-syntax-ns#"
   xmlns:svg="http://www.w3.org/2000/svg"
   xmlns="http://www.w3.org/2000/svg"
   xmlns:sodipodi="http://sodipodi.sourceforge.net/DTD/sodipodi-0.dtd"
   xmlns:inkscape="http://www.inkscape.org/namespaces/inkscape"
   version="1.1"
   id="Layer_2_1_"
   x="0px"
   y="0px"
   viewBox="0 0 179.36429 179.79019"
   enable-background="new 0 0 3947.9399414 3860.8613281"
   xml:space="preserve"
   sodipodi:docname="headquarters.svg"
   inkscape:version="0.92.4 (5da689c313, 2019-01-14)"
   width="179.3643"
   height="179.79021"><metadata
   id="metadata5465"><rdf:RDF><cc:Work
       rdf:about=""><dc:format>image/svg+xml</dc:format><dc:type
         rdf:resource="http://purl.org/dc/dcmitype/StillImage" /><dc:title></dc:title></cc:Work></rdf:RDF></metadata><defs
   id="defs5463" /><sodipodi:namedview
   pagecolor="#ffffff"
   bordercolor="#666666"
   borderopacity="1"
   objecttolerance="10"
   gridtolerance="10"
   guidetolerance="10"
   inkscape:pageopacity="0"
   inkscape:pageshadow="2"
   inkscape:window-width="1920"
   inkscape:window-height="1022"
   id="namedview5461"
   showgrid="false"
   inkscape:zoom="0.21212883"
   inkscape:cx="-94.059348"
   inkscape:cy="-1522.2703"
   inkscape:window-x="1079"
   inkscape:window-y="709"
   inkscape:window-maximized="1"
   inkscape:current-layer="Layer_2_1_" />


<path
   d="m 89.6822,0 c -35.44,0 -64.1701,28.73 -64.1701,64.18 0,35.44 28.7301,64.17 64.1701,64.17 35.44,0 64.17,-28.73 64.17,-64.17 0,-35.45 -28.73,-64.18 -64.17,-64.18 z m 32.15,108.43 -32.15,-23.36 -32.15,23.36 12.2801,-37.8 -32.1501,-23.36 h 39.74 l 12.28,-37.79 12.2801,37.79 h 39.74 l -32.1501,23.36 z"
   id="path3768"
   style="fill:#e2bd4d;fill-opacity:1"
   inkscape:connector-curvature="0" />
<path
   d="m 179.3643,179.7902 h -62.2969 l -0.1211,-23.6655 c 0,-0.9619 -0.792,-1.7446 -1.7539,-1.7446 H 64.1719 c -0.9619,0 -1.749,0.7827 -1.7539,1.7451 l -0.1211,23.665 H 0 l 42.3301,-42.33 h 94.7041 z m -56.3282,-6 h 41.8438 l -30.3301,-30.33 H 44.8145 l -30.3301,30.33 h 41.8437 l 0.09,-17.6958 c 0.022,-4.2539 3.5009,-7.7143 7.7539,-7.7143 h 51.0205 c 4.2529,0 7.7314,3.4604 7.7539,7.7138 z"
   id="path3770"
   style="fill:#e2bd4d;fill-opacity:1"
   inkscape:connector-curvature="0" />















































































































































































</svg>