<?xml version="1.0" encoding="UTF-8" standalone="no"?>
<!-- Generator: Adobe Illustrator 22.1.0, SVG Export Plug-In . SVG Version: 6.00 Build 0)  -->

<svg
   xmlns:dc="http://purl.org/dc/elements/1.1/"
   xmlns:cc="http://creativecommons.org/ns#"
   xmlns:rdf="http://www.w3.org/1999/02/22-rdf-syntax-ns#"
   xmlns:svg="http://www.w3.org/2000/svg"
   xmlns="http://www.w3.org/2000/svg"
   xmlns:sodipodi="http://sodipodi.sourceforge.net/DTD/sodipodi-0.dtd"
   xmlns:inkscape="http://www.inkscape.org/namespaces/inkscape"
   version="1.1"
   id="Layer_2_1_"
   x="0px"
   y="0px"
   viewBox="0 0 194.12299 194.12208"
   enable-background="new 0 0 3947.9399414 3860.8613281"
   xml:space="preserve"
   sodipodi:docname="hologram_theatre.svg"
   inkscape:version="0.92.4 (5da689c313, 2019-01-14)"
   width="194.123"
   height="194.1221"><metadata
   id="metadata5465"><rdf:RDF><cc:Work
       rdf:about=""><dc:format>image/svg+xml</dc:format><dc:type
         rdf:resource="http://purl.org/dc/dcmitype/StillImage" /><dc:title></dc:title></cc:Work></rdf:RDF></metadata><defs
   id="defs5463" /><sodipodi:namedview
   pagecolor="#ffffff"
   bordercolor="#666666"
   borderopacity="1"
   objecttolerance="10"
   gridtolerance="10"
   guidetolerance="10"
   inkscape:pageopacity="0"
   inkscape:pageshadow="2"
   inkscape:window-width="1920"
   inkscape:window-height="1022"
   id="namedview5461"
   showgrid="false"
   inkscape:zoom="0.21212883"
   inkscape:cx="-1015.4767"
   inkscape:cy="1323.0423"
   inkscape:window-x="1079"
   inkscape:window-y="709"
   inkscape:window-maximized="1"
   inkscape:current-layer="Layer_2_1_" />















































































































































































<g
   id="g5444"
   style="fill:#e2bd4d;fill-opacity:1"
   transform="translate(-1877.0435,-2858.3457)">
	<path
   d="m 1974.1079,2881.6768 c 6.4326,0 11.666,-5.2334 11.666,-11.6661 0,-6.4316 -5.2334,-11.665 -11.666,-11.665 -6.4326,0 -11.666,5.2334 -11.666,11.665 0,6.4327 5.2334,11.6661 11.666,11.6661 z m 0,-17.7315 c 3.3447,0 6.0664,2.7207 6.0664,6.0654 0,3.3448 -2.7217,6.0664 -6.0664,6.0664 -3.3447,0 -6.0664,-2.7216 -6.0664,-6.0664 0,-3.3447 2.7217,-6.0654 6.0664,-6.0654 z"
   id="path5408"
   style="fill:#e2bd4d;fill-opacity:1"
   inkscape:connector-curvature="0" />
	<path
   d="m 1931.4077,2881.6768 c 6.4326,0 11.666,-5.2334 11.666,-11.6661 0,-6.4316 -5.2334,-11.665 -11.666,-11.665 -6.4326,0 -11.666,5.2334 -11.666,11.665 0,6.4327 5.2334,11.6661 11.666,11.6661 z m 0,-17.7315 c 3.3447,0 6.0664,2.7207 6.0664,6.0654 0,3.3448 -2.7217,6.0664 -6.0664,6.0664 -3.3447,0 -6.0664,-2.7216 -6.0664,-6.0664 0,-3.3447 2.7217,-6.0654 6.0664,-6.0654 z"
   id="path5410"
   style="fill:#e2bd4d;fill-opacity:1"
   inkscape:connector-curvature="0" />
	<path
   d="m 1888.7095,2858.3457 c -6.4326,0 -11.666,5.2334 -11.666,11.665 0,6.4327 5.2334,11.6661 11.666,11.6661 6.4326,0 11.666,-5.2334 11.666,-11.6661 0,-6.4316 -5.2334,-11.665 -11.666,-11.665 z m 0,17.7314 c -3.3448,0 -6.0664,-2.7216 -6.0664,-6.0664 0,-3.3447 2.7216,-6.0654 6.0664,-6.0654 3.3447,0 6.0664,2.7207 6.0664,6.0654 0,3.3448 -2.7217,6.0664 -6.0664,6.0664 z"
   id="path5412"
   style="fill:#e2bd4d;fill-opacity:1"
   inkscape:connector-curvature="0" />
	<path
   d="m 2016.8032,2881.6768 c 6.4326,0 11.666,-5.2334 11.666,-11.6661 0,-6.4316 -5.2334,-11.665 -11.666,-11.665 -6.4326,0 -11.666,5.2334 -11.666,11.665 0,6.4327 5.2334,11.6661 11.666,11.6661 z m 0,-17.7315 c 3.3447,0 6.0664,2.7207 6.0664,6.0654 0,3.3448 -2.7217,6.0664 -6.0664,6.0664 -3.3447,0 -6.0664,-2.7216 -6.0664,-6.0664 0,-3.3447 2.7217,-6.0654 6.0664,-6.0654 z"
   id="path5414"
   style="fill:#e2bd4d;fill-opacity:1"
   inkscape:connector-curvature="0" />
	<path
   d="m 2059.5005,2881.6768 c 6.4326,0 11.666,-5.2334 11.666,-11.6661 0,-6.4316 -5.2334,-11.665 -11.666,-11.665 -6.4326,0 -11.666,5.2334 -11.666,11.665 0,6.4327 5.2334,11.6661 11.666,11.6661 z m 0,-17.7315 c 3.3447,0 6.0664,2.7207 6.0664,6.0654 0,3.3448 -2.7217,6.0664 -6.0664,6.0664 -3.3447,0 -6.0664,-2.7216 -6.0664,-6.0664 0,-3.3447 2.7217,-6.0654 6.0664,-6.0654 z"
   id="path5416"
   style="fill:#e2bd4d;fill-opacity:1"
   inkscape:connector-curvature="0" />
	<path
   d="m 2059.5005,2901.043 c -6.4326,0 -11.666,5.2334 -11.666,11.666 0,6.4326 5.2334,11.666 11.666,11.666 6.4326,0 11.666,-5.2334 11.666,-11.666 0,-6.4326 -5.2334,-11.666 -11.666,-11.666 z m 0,17.7324 c -3.3447,0 -6.0664,-2.7217 -6.0664,-6.0664 0,-3.3447 2.7217,-6.0664 6.0664,-6.0664 3.3447,0 6.0664,2.7217 6.0664,6.0664 0,3.3447 -2.7217,6.0664 -6.0664,6.0664 z"
   id="path5418"
   style="fill:#e2bd4d;fill-opacity:1"
   inkscape:connector-curvature="0" />
	<path
   d="m 2059.5005,2943.7402 c -6.4326,0 -11.666,5.2334 -11.666,11.6661 0,6.4326 5.2334,11.666 11.666,11.666 6.4326,0 11.666,-5.2334 11.666,-11.666 0,-6.4327 -5.2334,-11.6661 -11.666,-11.6661 z m 0,17.7325 c -3.3447,0 -6.0664,-2.7217 -6.0664,-6.0664 0,-3.3448 2.7217,-6.0665 6.0664,-6.0665 3.3447,0 6.0664,2.7217 6.0664,6.0665 0,3.3447 -2.7217,6.0664 -6.0664,6.0664 z"
   id="path5420"
   style="fill:#e2bd4d;fill-opacity:1"
   inkscape:connector-curvature="0" />
	<path
   d="m 2059.5005,2986.4385 c -6.4326,0 -11.666,5.2334 -11.666,11.666 0,6.4326 5.2334,11.666 11.666,11.666 6.4326,0 11.666,-5.2334 11.666,-11.666 0,-6.4326 -5.2334,-11.666 -11.666,-11.666 z m 0,17.7324 c -3.3447,0 -6.0664,-2.7217 -6.0664,-6.0664 0,-3.3447 2.7217,-6.0664 6.0664,-6.0664 3.3447,0 6.0664,2.7217 6.0664,6.0664 0,3.3447 -2.7217,6.0664 -6.0664,6.0664 z"
   id="path5422"
   style="fill:#e2bd4d;fill-opacity:1"
   inkscape:connector-curvature="0" />
	<path
   d="m 2059.5005,3029.1357 c -6.4326,0 -11.666,5.2334 -11.666,11.6661 0,6.4326 5.2334,11.666 11.666,11.666 6.4326,0 11.666,-5.2334 11.666,-11.666 0,-6.4327 -5.2334,-11.6661 -11.666,-11.6661 z m 0,17.7325 c -3.3447,0 -6.0664,-2.7217 -6.0664,-6.0664 0,-3.3448 2.7217,-6.0664 6.0664,-6.0664 3.3447,0 6.0664,2.7216 6.0664,6.0664 0,3.3447 -2.7217,6.0664 -6.0664,6.0664 z"
   id="path5424"
   style="fill:#e2bd4d;fill-opacity:1"
   inkscape:connector-curvature="0" />
	<path
   d="m 2016.8032,3029.1357 c -6.4326,0 -11.666,5.2334 -11.666,11.6661 0,6.4326 5.2334,11.666 11.666,11.666 6.4326,0 11.666,-5.2334 11.666,-11.666 0,-6.4327 -5.2334,-11.6661 -11.666,-11.6661 z m 0,17.7325 c -3.3447,0 -6.0664,-2.7217 -6.0664,-6.0664 0,-3.3448 2.7217,-6.0664 6.0664,-6.0664 3.3447,0 6.0664,2.7216 6.0664,6.0664 0,3.3447 -2.7217,6.0664 -6.0664,6.0664 z"
   id="path5426"
   style="fill:#e2bd4d;fill-opacity:1"
   inkscape:connector-curvature="0" />
	<path
   d="m 1974.105,3029.1357 c -6.4326,0 -11.666,5.2334 -11.666,11.6661 0,6.4326 5.2334,11.666 11.666,11.666 6.4326,0 11.666,-5.2334 11.666,-11.666 0,-6.4327 -5.2334,-11.6661 -11.666,-11.6661 z m 0,17.7325 c -3.3447,0 -6.0664,-2.7217 -6.0664,-6.0664 0,-3.3448 2.7217,-6.0664 6.0664,-6.0664 3.3447,0 6.0664,2.7216 6.0664,6.0664 0,3.3447 -2.7217,6.0664 -6.0664,6.0664 z"
   id="path5428"
   style="fill:#e2bd4d;fill-opacity:1"
   inkscape:connector-curvature="0" />
	<path
   d="m 1931.4077,3029.1357 c -6.4326,0 -11.666,5.2334 -11.666,11.6661 0,6.4326 5.2334,11.666 11.666,11.666 6.4326,0 11.666,-5.2334 11.666,-11.666 0,-6.4327 -5.2334,-11.6661 -11.666,-11.6661 z m 0,17.7325 c -3.3447,0 -6.0664,-2.7217 -6.0664,-6.0664 0,-3.3448 2.7217,-6.0664 6.0664,-6.0664 3.3447,0 6.0664,2.7216 6.0664,6.0664 0,3.3447 -2.7217,6.0664 -6.0664,6.0664 z"
   id="path5430"
   style="fill:#e2bd4d;fill-opacity:1"
   inkscape:connector-curvature="0" />
	<path
   d="m 1888.7095,3029.1357 c -6.4326,0 -11.666,5.2334 -11.666,11.6661 0,6.4326 5.2334,11.666 11.666,11.666 6.4326,0 11.666,-5.2334 11.666,-11.666 0,-6.4327 -5.2334,-11.6661 -11.666,-11.6661 z m 0,17.7325 c -3.3448,0 -6.0664,-2.7217 -6.0664,-6.0664 0,-3.3448 2.7216,-6.0664 6.0664,-6.0664 3.3447,0 6.0664,2.7216 6.0664,6.0664 0,3.3447 -2.7217,6.0664 -6.0664,6.0664 z"
   id="path5432"
   style="fill:#e2bd4d;fill-opacity:1"
   inkscape:connector-curvature="0" />
	<path
   d="m 1888.7095,2986.4385 c -6.4326,0 -11.666,5.2334 -11.666,11.666 0,6.4326 5.2334,11.666 11.666,11.666 6.4326,0 11.666,-5.2334 11.666,-11.666 0,-6.4326 -5.2334,-11.666 -11.666,-11.666 z m 0,17.7324 c -3.3448,0 -6.0664,-2.7217 -6.0664,-6.0664 0,-3.3447 2.7216,-6.0664 6.0664,-6.0664 3.3447,0 6.0664,2.7217 6.0664,6.0664 0,3.3447 -2.7217,6.0664 -6.0664,6.0664 z"
   id="path5434"
   style="fill:#e2bd4d;fill-opacity:1"
   inkscape:connector-curvature="0" />
	<path
   d="m 1888.7095,2943.7402 c -6.4326,0 -11.666,5.2334 -11.666,11.6661 0,6.4326 5.2334,11.666 11.666,11.666 6.4326,0 11.666,-5.2334 11.666,-11.666 0,-6.4327 -5.2334,-11.6661 -11.666,-11.6661 z m 0,17.7325 c -3.3448,0 -6.0664,-2.7217 -6.0664,-6.0664 0,-3.3448 2.7216,-6.0665 6.0664,-6.0665 3.3447,0 6.0664,2.7217 6.0664,6.0665 0,3.3447 -2.7217,6.0664 -6.0664,6.0664 z"
   id="path5436"
   style="fill:#e2bd4d;fill-opacity:1"
   inkscape:connector-curvature="0" />
	<path
   d="m 1888.7095,2901.043 c -6.4326,0 -11.666,5.2334 -11.666,11.666 0,6.4326 5.2334,11.666 11.666,11.666 6.4326,0 11.666,-5.2334 11.666,-11.666 0,-6.4326 -5.2334,-11.666 -11.666,-11.666 z m 0,17.7324 c -3.3448,0 -6.0664,-2.7217 -6.0664,-6.0664 0,-3.3447 2.7216,-6.0664 6.0664,-6.0664 3.3447,0 6.0664,2.7217 6.0664,6.0664 0,3.3447 -2.7217,6.0664 -6.0664,6.0664 z"
   id="path5438"
   style="fill:#e2bd4d;fill-opacity:1"
   inkscape:connector-curvature="0" />
	<path
   d="m 2024.8296,2933.4609 -4.2559,-0.9257 v -5.6778 c 0,-19.8047 -16.1133,-35.9179 -35.9179,-35.9179 h -10.5479 -10.5488 c -19.8047,0 -35.917,16.1132 -35.917,35.9179 v 5.6778 l -4.2568,0.9257 c -3.3506,0.7286 -5.7823,3.7461 -5.7823,7.1758 v 23.5264 c 0,8.6035 6.6748,15.6767 15.1172,16.3135 v 12.3252 c 0,5.5273 2.1524,10.7246 6.0606,14.6337 l 11.6347,11.6338 c 3.9073,3.9082 9.1045,6.0616 14.6328,6.0616 h 9.0596 9.0586 c 5.5283,0 10.7256,-2.1534 14.6338,-6.0616 l 11.6348,-11.6338 c 3.9082,-3.9091 6.0605,-9.1064 6.0605,-14.6337 v -12.3252 c 8.4424,-0.6368 15.1172,-7.71 15.1172,-16.3135 v -23.5264 c 0,-3.4297 -2.4326,-6.4472 -5.7832,-7.1758 z m -10.5942,9.5943 c -0.4534,0.2744 -0.9517,0.4031 -1.4444,0.4031 -0.9519,0 -1.8757,-0.4815 -2.4018,-1.355 -1.2823,-2.1219 -3.1133,-3.8855 -5.2913,-5.0838 -2.0996,-1.1589 -5.0557,-1.8252 -7.9114,-2.4692 -1.8418,-0.4143 -3.7456,-0.8455 -5.459,-1.4165 -6.2426,-2.0828 -10.2627,-5.9126 -13.6782,-9.7422 -1.0244,-1.1589 -0.9238,-2.9282 0.2298,-3.9529 1.1533,-1.03 2.9226,-0.9294 3.9528,0.2298 3.3482,3.7568 6.5452,6.5786 11.2652,8.1518 1.4499,0.4817 3.1352,0.8623 4.9214,1.271 3.2363,0.728 6.5844,1.4839 9.3781,3.0234 3.0403,1.6741 5.5935,4.1265 7.385,7.094 0.8008,1.3213 0.3753,3.0457 -0.9462,3.8465 z m -0.1734,3.9641 c -4.1714,5.0559 -13.1633,11.5339 -19.1933,12.6985 -8.0904,1.5564 -12.5977,-10.0616 -14.0254,-16.9536 7.542,2.5586 25.0385,4.7478 33.2187,4.2551 z m -37.564,43.4895 c 1.6036,-0.3115 3.2081,-0.6152 4.8355,-0.7727 1.4426,-0.1399 2.8682,-0.049 4.3174,0.1111 2.9682,0.3278 5.9555,0.7426 8.602,2.1653 2.1109,1.1364 3.6897,2.665 4.2832,5.0446 0.3638,1.4615 0.9126,5.3582 -0.2968,6.6629 -1.5398,1.6628 -3.0179,-1.0696 -4.552,-1.9148 -2.2676,-1.2598 -4.7366,-1.971 -7.3067,-2.1446 -4.0647,-0.2744 -8.1743,-0.207 -12.2449,-0.2238 h -0.028 c -1.4895,-0.078 -2.9453,-0.1289 -4.3672,-0.1736 -2.3069,-0.073 -4.6977,-0.1514 -7.1557,-0.3753 -2.917,-0.2631 -5.75,-1.0974 -7.9673,-2.3515 -1.9317,-1.0918 -3.5496,-3.085 -4.4344,-5.4759 -0.3415,-0.935 -0.4758,-3.0009 -0.3918,-5.6828 2.8555,1.9485 6.5732,3.3931 11.2258,4.384 2.6358,0.5567 5.3245,0.836 8.0142,0.9402 1.303,0.05 2.6074,0.06 3.9109,0.038 1.228,-0.02 2.3491,0 3.5556,-0.2314 z m -22.1235,24.6016 -11.6348,-11.6338 c -2.8505,-2.8516 -4.4199,-6.6426 -4.4199,-10.6748 v -13.5215 c 0,-1.1514 -0.4658,-2.2764 -1.2705,-3.0791 -0.8096,-0.8116 -1.9336,-1.2774 -3.0859,-1.2774 -5.9336,0 -10.7608,-4.8271 -10.7608,-10.7607 v -23.5264 c 0,-0.8144 0.5772,-1.5322 1.3721,-1.7051 l 4.3735,-0.9511 c 0.2735,0.5117 0.6995,0.947 1.2642,1.2138 0.3867,0.1827 0.793,0.2686 1.1934,0.2686 1.0498,0 2.0556,-0.5928 2.5332,-1.6045 2.956,-6.2617 7.9707,-10.4551 14.1201,-11.8086 5.6299,-1.2393 11.4267,0.062 15.5117,3.4775 1.1895,0.9942 2.9521,0.834 3.9434,-0.3515 0.9921,-1.1865 0.8339,-2.9512 -0.3516,-3.9434 -5.4063,-4.5205 -12.9932,-6.2568 -20.3066,-4.6513 -5.3521,1.1782 -10.0108,3.998 -13.6143,8.1464 v -1.8701 c 0,-16.7178 13.6006,-30.3183 30.3174,-30.3183 h 10.5488 v 88.5754 c -3.9307,0.1289 -7.9844,0.01 -11.9258,-0.8342 -6.3325,-1.3382 -10.3694,-3.5218 -12.3569,-6.6739 -0.6384,-1.0078 -1.8367,-1.5004 -2.9956,-1.2375 -1.1589,0.2688 -2.0269,1.2375 -2.1555,2.4187 -0.532,4.7312 -0.9126,11.0413 0.2575,14.2102 1.3606,3.6731 3.8184,6.6628 6.9371,8.4153 2.9338,1.6572 6.4667,2.7099 10.2126,3.0515 2.6145,0.2407 5.0894,0.3191 7.4802,0.3975 1.5508,0.045 3.0401,0.095 4.5464,0.1792 v 14.4899 h -9.0596 c -4.0332,1e-4 -7.8232,-1.5693 -10.6738,-4.4208 z"
   id="path5440"
   style="fill:#e2bd4d;fill-opacity:1"
   inkscape:connector-curvature="0" />
	<path
   d="m 1970.186,2956.3408 c 0.9864,-1.5049 1.1485,-3.3838 0.4336,-5.0263 -0.6416,-1.4747 -1.5117,-2.8399 -2.583,-4.0547 -2.2881,-2.6045 -5.4365,-4.5928 -9.3574,-5.9063 -5.5693,-1.873 -10.9092,-1.6494 -15.0361,0.6299 -3.2305,1.7871 -5.5127,5.7744 -7.1407,9.0498 -0.83,1.6719 -0.7382,3.6172 0.2452,5.2031 0.9843,1.5869 2.6865,2.5352 4.5537,2.5352 h 24.3906 c 1.8164,0 3.4961,-0.9092 4.4941,-2.4307 z m -28.4922,-3.1689 c 1.7334,-3.4219 3.3008,-5.5371 4.6583,-6.2891 2.6953,-1.4892 6.538,-1.5693 10.5449,-0.2217 2.9736,0.9971 5.3056,2.4414 6.9365,4.2979 0.5859,0.665 1.0928,1.4238 1.4785,2.2129 z"
   id="path5442"
   style="fill:#e2bd4d;fill-opacity:1"
   inkscape:connector-curvature="0" />
</g>



</svg>