<?xml version="1.0" encoding="UTF-8" standalone="no"?>
<!-- Generator: Adobe Illustrator 22.1.0, SVG Export Plug-In . SVG Version: 6.00 Build 0)  -->

<svg
   xmlns:dc="http://purl.org/dc/elements/1.1/"
   xmlns:cc="http://creativecommons.org/ns#"
   xmlns:rdf="http://www.w3.org/1999/02/22-rdf-syntax-ns#"
   xmlns:svg="http://www.w3.org/2000/svg"
   xmlns="http://www.w3.org/2000/svg"
   xmlns:sodipodi="http://sodipodi.sourceforge.net/DTD/sodipodi-0.dtd"
   xmlns:inkscape="http://www.inkscape.org/namespaces/inkscape"
   version="1.1"
   id="Layer_2_1_"
   x="0px"
   y="0px"
   viewBox="0 0 157.02 197.54002"
   enable-background="new 0 0 3947.9399414 3860.8613281"
   xml:space="preserve"
   sodipodi:docname="hybrid_forest.svg"
   inkscape:version="0.92.4 (5da689c313, 2019-01-14)"
   width="157.02"
   height="197.54004"><metadata
   id="metadata5465"><rdf:RDF><cc:Work
       rdf:about=""><dc:format>image/svg+xml</dc:format><dc:type
         rdf:resource="http://purl.org/dc/dcmitype/StillImage" /><dc:title></dc:title></cc:Work></rdf:RDF></metadata><defs
   id="defs5463" /><sodipodi:namedview
   pagecolor="#ffffff"
   bordercolor="#666666"
   borderopacity="1"
   objecttolerance="10"
   gridtolerance="10"
   guidetolerance="10"
   inkscape:pageopacity="0"
   inkscape:pageshadow="2"
   inkscape:window-width="1920"
   inkscape:window-height="1022"
   id="namedview5461"
   showgrid="false"
   inkscape:zoom="0.21212883"
   inkscape:cx="-2272.4239"
   inkscape:cy="-1513.1571"
   inkscape:window-x="1079"
   inkscape:window-y="709"
   inkscape:window-maximized="1"
   inkscape:current-layer="Layer_2_1_" />























































































<g
   id="g4470"
   style="fill:#e2bd4d;fill-opacity:1"
   transform="translate(-3133.9907,-18.728359)">
	<path
   d="M 3237.7407,85.928314 V 39.758389 c 1.94,0 4.44,-1.27002 4.44,-4.060059 V 18.728359 h -59.3599 V 35.69833 c 0,2.790039 2.5,4.060059 4.4399,4.060059 v 46.169925 c -30.9499,9.189942 -53.27,34.800046 -53.27,64.859986 0,28.81634 20.5012,53.53418 49.4505,63.63824 3.5163,1.22724 7.2194,1.84186 10.9436,1.84186 h 36.2319 c 3.7241,0 7.4275,-0.61462 10.9436,-1.84186 28.9492,-10.10406 49.4504,-34.8219 49.4504,-63.63824 0,-30.05994 -22.32,-55.670044 -53.27,-64.859986 z m -25.24,121.359986 c -36.6699,0 -66.51,-25.34998 -66.51,-56.5 0,-25.16003 19.47,-46.53992 46.3001,-53.819947 0.48,-0.130005 0.9599,-0.26001 1.4499,-0.380005 5.52,-1.900024 5.52,-7.990112 5.52,-11.450073 V 32.45834 c -1.9399,0 -4.3598,-1.469971 -4.3598,-4.26001 v -1.52002 h 35.1997 v 1.52002 c 0,2.790039 -2.4199,4.26001 -4.3599,4.26001 v 52.679935 c 0,3.459961 0,9.550049 5.52,11.450073 0.49,0.119996 0.97,0.25 1.45,0.380005 26.8301,7.280027 46.3,28.659917 46.3,53.819947 0,31.15002 -29.84,56.5 -66.51,56.5 z"
   id="path4466"
   style="fill:#e2bd4d;fill-opacity:1"
   inkscape:connector-curvature="0" />
	<path
   d="m 3215.9973,160.41409 v -2.60003 l 27.1199,12.64001 -2.7998,-7.92999 h -0.01 l -24.3101,-11.33002 v -2.58996 l 23.22,10.81994 -2.8001,-7.91998 -20.4199,-9.52002 v -2.58997 l 19.3201,9.01001 -2.8001,-7.92999 -16.52,-7.70001 v -2.60004 l 15.4199,7.19 -2.8098,-7.92999 -12.6101,-5.86999 v -2.59998 l 11.51,5.37 -2.8,-7.93 -8.71,-4.05999 v -2.59003 l 7.6101,3.54999 -2.8,-7.91999 -4.8101,-2.25 v -2.59002 l 3.71,1.73004 -5.7801,-16.359987 c -0.4699,-1.340027 -2.3698,-1.340027 -2.8398,0 l -5.8,16.369997 3.7099,-1.73004 v 2.59002 l -4.8,2.23999 -2.8101,7.91999 7.6101,-3.53998 v 2.59003 l -8.6999,4.04998 -2.8001,7.93 11.5,-5.35999 v 2.58997 l -12.6001,5.86999 -2.8,7.92999 15.4001,-7.17999 v 2.60004 l -16.51,7.69 -2.8,7.91998 19.31,-8.98999 v 2.58997 l -20.4099,9.51001 -2.8,7.91998 23.2099,-10.81 v 2.59003 l -24.31,11.32001 -2.8001,7.92999 27.1101,-12.63 v 2.59997 l -28.2099,13.14002 -2.8001,7.91998 31.01,-14.44995 v 23.07001 h 7 v -23.08002 l 31.02,14.45996 -2.8,-7.91998 z"
   id="path4468"
   style="fill:#e2bd4d;fill-opacity:1"
   inkscape:connector-curvature="0" />
</g>



























































































</svg>