<?xml version="1.0" encoding="UTF-8" standalone="no"?>
<!-- Generator: Adobe Illustrator 22.1.0, SVG Export Plug-In . SVG Version: 6.00 Build 0)  -->

<svg
   xmlns:dc="http://purl.org/dc/elements/1.1/"
   xmlns:cc="http://creativecommons.org/ns#"
   xmlns:rdf="http://www.w3.org/1999/02/22-rdf-syntax-ns#"
   xmlns:svg="http://www.w3.org/2000/svg"
   xmlns="http://www.w3.org/2000/svg"
   xmlns:sodipodi="http://sodipodi.sourceforge.net/DTD/sodipodi-0.dtd"
   xmlns:inkscape="http://www.inkscape.org/namespaces/inkscape"
   version="1.1"
   id="Layer_2_1_"
   x="0px"
   y="0px"
   viewBox="0 0 206.9351 205.81569"
   enable-background="new 0 0 3947.9399414 3860.8613281"
   xml:space="preserve"
   sodipodi:docname="nanoreplicator.svg"
   inkscape:version="0.92.4 (5da689c313, 2019-01-14)"
   width="206.9351"
   height="205.8157"><metadata
   id="metadata5465"><rdf:RDF><cc:Work
       rdf:about=""><dc:format>image/svg+xml</dc:format><dc:type
         rdf:resource="http://purl.org/dc/dcmitype/StillImage" /><dc:title></dc:title></cc:Work></rdf:RDF></metadata><defs
   id="defs5463" /><sodipodi:namedview
   pagecolor="#ffffff"
   bordercolor="#666666"
   borderopacity="1"
   objecttolerance="10"
   gridtolerance="10"
   guidetolerance="10"
   inkscape:pageopacity="0"
   inkscape:pageshadow="2"
   inkscape:window-width="1920"
   inkscape:window-height="1022"
   id="namedview5461"
   showgrid="false"
   inkscape:zoom="0.21212883"
   inkscape:cx="-389.87295"
   inkscape:cy="1045.0982"
   inkscape:window-x="1079"
   inkscape:window-y="709"
   inkscape:window-maximized="1"
   inkscape:current-layer="Layer_2_1_" />





























































































































































<g
   id="g5176"
   transform="translate(-1251.4397,-2568.708)"
   style="fill:#e2bd4d;fill-opacity:1">
	<path
   d="m 1252.7322,2568.708 102.1748,205.8157 102.1753,-205.8157 z m 183.3828,13 -43.3853,87.3921 h -75.6453 l -43.3849,-87.3921 z m -92.2566,141.3245 h 22.097 l -2.5157,5.0676 h -17.0654 z m -2.9449,-5.9324 -2.5158,-5.0676 h 33.0186 l -2.5158,5.0676 z m -5.4609,-11 -2.0194,-4.0676 h 42.9475 l -2.0194,4.0676 z m -4.9643,-10 -1.523,-3.0676 h 51.8833 l -1.5228,3.0676 z m -4.468,-9 -1.523,-3.0676 h 60.8194 l -1.523,3.0676 z m -4.4681,-9 -1.5229,-3.0676 h 69.7554 l -1.523,3.0676 z m 27.7671,55.9324 h 11.1753 l -5.5876,11.2553 z"
   id="path5166"
   inkscape:connector-curvature="0"
   style="fill:#e2bd4d;fill-opacity:1" />
	<polygon
   points="1458.3748,2740.1538 1441.5447,2709.3738 1412.9949,2724.9836 1402.7747,2706.3037 1359.0647,2774.5237 1440.0847,2774.5237 1429.8245,2755.7637 "
   id="polygon5168"
   style="fill:#e2bd4d;fill-opacity:1" />
	<polygon
   points="1296.8196,2724.9836 1268.2698,2709.3738 1251.4397,2740.1538 1279.99,2755.7637 1269.7297,2774.5237 1350.7498,2774.5237 1307.0398,2706.3037 "
   id="polygon5170"
   style="fill:#e2bd4d;fill-opacity:1" />
	<rect
   x="1317.4443"
   y="2660.1001"
   width="74.925659"
   height="5.932373"
   id="rect5172"
   style="fill:#e2bd4d;fill-opacity:1" />
	<path
   d="m 1321.4443,2657.9304 h 66.9257 c 2.2091,0 4,-1.791 4,-4 v -17.8313 c 0,-2.2092 -1.7909,-4 -4,-4 h -23.0128 c -1.6569,0 -3,-1.343 -3,-3 v -19.0303 c 0,-1.6569 1.3431,-3 3,-3 h 0.9665 c 1.6569,0 3,-1.343 3,-3 v -14.0312 c 0,-3.3137 -2.6862,-6 -6,-6 h -16.8332 c -3.3137,0 -6,2.6863 -6,6 v 14.0312 c 0,1.657 1.3431,3 3,3 h 0.9667 c 1.6568,0 3,1.3431 3,3 v 19.0303 c 0,1.657 -1.3432,3 -3,3 h -23.0129 c -2.2092,0 -4,1.7908 -4,4 v 17.8313 c 0,2.209 1.7908,4 4,4 z"
   id="path5174"
   inkscape:connector-curvature="0"
   style="fill:#e2bd4d;fill-opacity:1" />
</g>





















</svg>