<?xml version="1.0" encoding="UTF-8" standalone="no"?>
<!-- Generator: Adobe Illustrator 22.1.0, SVG Export Plug-In . SVG Version: 6.00 Build 0)  -->

<svg
   xmlns:dc="http://purl.org/dc/elements/1.1/"
   xmlns:cc="http://creativecommons.org/ns#"
   xmlns:rdf="http://www.w3.org/1999/02/22-rdf-syntax-ns#"
   xmlns:svg="http://www.w3.org/2000/svg"
   xmlns="http://www.w3.org/2000/svg"
   xmlns:sodipodi="http://sodipodi.sourceforge.net/DTD/sodipodi-0.dtd"
   xmlns:inkscape="http://www.inkscape.org/namespaces/inkscape"
   version="1.1"
   id="Layer_2_1_"
   x="0px"
   y="0px"
   viewBox="0 0 179.3643 179.79022"
   enable-background="new 0 0 3947.9399414 3860.8613281"
   xml:space="preserve"
   sodipodi:docname="naval_yard.svg"
   inkscape:version="0.92.4 (5da689c313, 2019-01-14)"
   width="179.3643"
   height="179.79024"><metadata
   id="metadata5465"><rdf:RDF><cc:Work
       rdf:about=""><dc:format>image/svg+xml</dc:format><dc:type
         rdf:resource="http://purl.org/dc/dcmitype/StillImage" /><dc:title></dc:title></cc:Work></rdf:RDF></metadata><defs
   id="defs5463" /><sodipodi:namedview
   pagecolor="#ffffff"
   bordercolor="#666666"
   borderopacity="1"
   objecttolerance="10"
   gridtolerance="10"
   guidetolerance="10"
   inkscape:pageopacity="0"
   inkscape:pageshadow="2"
   inkscape:window-width="1920"
   inkscape:window-height="1022"
   id="namedview5461"
   showgrid="false"
   inkscape:zoom="0.21212883"
   inkscape:cx="-1951.6529"
   inkscape:cy="-1238.2412"
   inkscape:window-x="1079"
   inkscape:window-y="709"
   inkscape:window-maximized="1"
   inkscape:current-layer="Layer_2_1_" />


















































































<g
   id="g4440"
   style="fill:#e1561c;fill-opacity:1"
   transform="translate(-2813.2197,-311.3941)">
	<path
   d="m 2992.584,491.18433 h -62.2969 l -0.1211,-23.66553 c 0,-0.96192 -0.792,-1.74463 -1.7539,-1.74463 h -51.0205 c -0.9619,0 -1.749,0.78271 -1.7539,1.74512 l -0.1211,23.66504 h -62.2969 l 42.3301,-42.33008 h 94.7041 z m -56.3281,-6 h 41.8437 l -30.3301,-30.33008 h -89.7353 l -30.3301,30.33008 h 41.8438 l 0.09,-17.6958 c 0.022,-4.25391 3.501,-7.71436 7.7539,-7.71436 h 51.0205 c 4.2529,0 7.7315,3.46045 7.7539,7.71387 z"
   id="path4436"
   style="fill:#e1561c;fill-opacity:1"
   inkscape:connector-curvature="0" />
	<path
   d="m 2902.9016,311.3941 c -35.4399,0 -64.1699,28.72998 -64.1699,64.18 0,35.44 28.73,64.16998 64.1699,64.16998 35.44,0 64.1699,-28.72998 64.1699,-64.16998 0,-35.45002 -28.7299,-64.18 -64.1699,-64.18 z m 7.51,113.50995 v 2.26001 h -15 v -2.25 c -20.02,-2.98999 -36.2402,-17.73999 -41.3901,-36.96997 h 12.5703 c 4.54,12.57996 15.4497,22.14997 28.8198,24.78998 v -54.60999 h -27.54 l 5.8701,-12 h 21.6699 v -22.15002 h 15 v 22.15002 h 21.6602 l 5.8696,12 h -27.5298 v 54.60999 c 13.3599,-2.65002 24.2598,-12.21002 28.7998,-24.78998 h 12.5703 c -5.1499,19.22998 -21.3603,33.97998 -41.3701,36.95996 z"
   id="path4438"
   style="fill:#e1561c;fill-opacity:1"
   inkscape:connector-curvature="0" />
</g>
































































































</svg>