<?xml version="1.0" encoding="UTF-8" standalone="no"?>
<!-- Generator: Adobe Illustrator 22.1.0, SVG Export Plug-In . SVG Version: 6.00 Build 0)  -->

<svg
   xmlns:dc="http://purl.org/dc/elements/1.1/"
   xmlns:cc="http://creativecommons.org/ns#"
   xmlns:rdf="http://www.w3.org/1999/02/22-rdf-syntax-ns#"
   xmlns:svg="http://www.w3.org/2000/svg"
   xmlns="http://www.w3.org/2000/svg"
   xmlns:sodipodi="http://sodipodi.sourceforge.net/DTD/sodipodi-0.dtd"
   xmlns:inkscape="http://www.inkscape.org/namespaces/inkscape"
   version="1.1"
   id="Layer_2_1_"
   x="0px"
   y="0px"
   viewBox="0 0 209.6405 201.25608"
   enable-background="new 0 0 3947.9399414 3860.8613281"
   xml:space="preserve"
   sodipodi:docname="nessus_mining_station.svg"
   inkscape:version="0.92.4 (5da689c313, 2019-01-14)"
   width="209.6405"
   height="201.2561"><metadata
   id="metadata5465"><rdf:RDF><cc:Work
       rdf:about=""><dc:format>image/svg+xml</dc:format><dc:type
         rdf:resource="http://purl.org/dc/dcmitype/StillImage" /><dc:title></dc:title></cc:Work></rdf:RDF></metadata><defs
   id="defs5463" /><sodipodi:namedview
   pagecolor="#ffffff"
   bordercolor="#666666"
   borderopacity="1"
   objecttolerance="10"
   gridtolerance="10"
   guidetolerance="10"
   inkscape:pageopacity="0"
   inkscape:pageshadow="2"
   inkscape:window-width="1920"
   inkscape:window-height="1022"
   id="namedview5461"
   showgrid="false"
   inkscape:zoom="0.21212883"
   inkscape:cx="-1007.718"
   inkscape:cy="1894.191"
   inkscape:window-x="1079"
   inkscape:window-y="709"
   inkscape:window-maximized="1"
   inkscape:current-layer="Layer_2_1_" />





















































































































































<g
   id="g5090"
   style="fill:#e2bd4d;fill-opacity:1"
   transform="translate(-1869.2848,-3422.3604)">
	<path
   d="m 2031.7599,3448.9009 -26.5286,-26.5405 h -62.2527 l -26.5284,26.5405 v 18.0547 l 57.6549,57.6548 57.6548,-57.6548 z m -12.0365,13.0715 -45.6183,45.6062 -45.6184,-45.6062 v -8.0886 l 19.475,-19.4871 h 52.2867 l 19.475,19.4871 z"
   id="path5082"
   style="fill:#e2bd4d;fill-opacity:1"
   inkscape:connector-curvature="0" />
	<path
   d="m 1918.4413,3587.6104 c 5.2397,0 9.5029,4.2631 9.5029,9.5031 0,5.24 -4.2632,9.503 -9.5029,9.503 -5.2403,0 -9.5029,-4.263 -9.5029,-9.503 0,-5.24 4.2626,-9.5031 9.5029,-9.5031 m 0,-17 c -14.6372,0 -26.5032,11.8657 -26.5032,26.5031 0,14.6372 11.866,26.503 26.5032,26.503 14.6372,0 26.5029,-11.8658 26.5029,-26.503 0,-14.6374 -11.8657,-26.5031 -26.5029,-26.5031 z"
   id="path5084"
   style="fill:#e2bd4d;fill-opacity:1"
   inkscape:connector-curvature="0" />
	<path
   d="m 2029.7684,3587.6104 c 5.2398,0 9.503,4.2631 9.503,9.5031 0,5.24 -4.2632,9.503 -9.503,9.503 -5.2397,0 -9.5029,-4.263 -9.5029,-9.503 0,-5.24 4.2632,-9.5031 9.5029,-9.5031 m 0,-17 c -14.6372,0 -26.5029,11.8657 -26.5029,26.5031 0,14.6372 11.8657,26.503 26.5029,26.503 14.6372,0 26.5031,-11.8658 26.5031,-26.503 0,-14.6374 -11.8659,-26.5031 -26.5031,-26.5031 z"
   id="path5086"
   style="fill:#e2bd4d;fill-opacity:1"
   inkscape:connector-curvature="0" />
	<path
   d="m 1869.2848,3525.4404 24.8601,49.19 c 6.04,-6.5401 14.6899,-10.6299 24.2998,-10.6299 18.2803,0 33.1001,14.8298 33.1001,33.1099 0,3.6 -0.5698,7.06 -1.6401,10.3 h 48.4004 c -1.0704,-3.24 -1.6402,-6.7 -1.6402,-10.3 0,-18.2801 14.8198,-33.1099 33.1001,-33.1099 9.6099,0 18.2599,4.0898 24.2999,10.6299 l 24.8604,-49.19 z"
   id="path5088"
   style="fill:#e2bd4d;fill-opacity:1"
   inkscape:connector-curvature="0" />
</g>





























</svg>