<?xml version="1.0" encoding="UTF-8" standalone="no"?>
<!-- Generator: Adobe Illustrator 22.1.0, SVG Export Plug-In . SVG Version: 6.00 Build 0)  -->

<svg
   xmlns:dc="http://purl.org/dc/elements/1.1/"
   xmlns:cc="http://creativecommons.org/ns#"
   xmlns:rdf="http://www.w3.org/1999/02/22-rdf-syntax-ns#"
   xmlns:svg="http://www.w3.org/2000/svg"
   xmlns="http://www.w3.org/2000/svg"
   xmlns:sodipodi="http://sodipodi.sourceforge.net/DTD/sodipodi-0.dtd"
   xmlns:inkscape="http://www.inkscape.org/namespaces/inkscape"
   version="1.1"
   id="Layer_2_1_"
   x="0px"
   y="0px"
   viewBox="0 0 177.95628 204.95998"
   enable-background="new 0 0 3947.9399414 3860.8613281"
   xml:space="preserve"
   sodipodi:docname="network_node.svg"
   inkscape:version="0.92.4 (5da689c313, 2019-01-14)"
   width="177.95628"
   height="204.96001"><metadata
   id="metadata5465"><rdf:RDF><cc:Work
       rdf:about=""><dc:format>image/svg+xml</dc:format><dc:type
         rdf:resource="http://purl.org/dc/dcmitype/StillImage" /><dc:title></dc:title></cc:Work></rdf:RDF></metadata><defs
   id="defs5463" /><sodipodi:namedview
   pagecolor="#ffffff"
   bordercolor="#666666"
   borderopacity="1"
   objecttolerance="10"
   gridtolerance="10"
   guidetolerance="10"
   inkscape:pageopacity="0"
   inkscape:pageshadow="2"
   inkscape:window-width="1920"
   inkscape:window-height="1022"
   id="namedview5461"
   showgrid="false"
   inkscape:zoom="0.21212883"
   inkscape:cx="-713.9612"
   inkscape:cy="-90.49305"
   inkscape:window-x="1079"
   inkscape:window-y="709"
   inkscape:window-maximized="1"
   inkscape:current-layer="Layer_2_1_" />





































































<g
   id="g4308"
   style="fill:#d7e6ed;fill-opacity:1"
   transform="translate(-1575.528,-1433.9725)">
	<path
   d="m 1697.4259,1567.2799 v -5.2629 h -8.1804 c -7.2904,-3.7527 -15.7147,-6.6082 -24.7394,2.9642 -9.0243,-9.5724 -17.4488,-6.7173 -24.7394,-2.9642 h -8.1804 v 5.2629 h -3.8182 v 52.8368 h 73.476 v -52.8368 z m -62.5372,38.5956 h 27.3471 4.5407 27.3472 v 2.2704 h -59.235 z m 52.75,-39.5767 0.4942,0.2588 h 4.7524 v 34.7772 h -26.1088 v -32.0857 c 6.8569,-8.1065 12.4586,-7.3479 20.8622,-2.9503 z m -51.5116,0.2588 h 4.7522 l 0.4942,-0.2588 c 8.4041,-4.3976 14.0049,-5.1562 20.8623,2.9503 v 32.0857 h -26.1087 z m -3.8184,49.0184 v -2.8895 h 64.3948 v 2.8895 z"
   id="path4304"
   style="fill:#d7e6ed;fill-opacity:1"
   inkscape:connector-curvature="0" />
	<path
   d="m 1748.3162,1597.0126 -54.7801,-74.1801 v -45.75 c 0,-1.4601 0.9501,-2.7999 2.3702,-3.15 4.3299,-1.0501 7.6799,-4.9299 7.6799,-9.53 v -20.6099 c 0,-5.4202 -4.4,-9.8201 -9.8201,-9.8201 h -58.52 c -5.4201,0 -9.8201,4.3999 -9.8201,9.8201 v 20.6099 c 0,4.6001 3.35,8.4799 7.68,9.53 1.42,0.3501 2.3701,1.6899 2.3701,3.15 v 45.75 l -54.7801,74.1801 c -6.05,8.1899 -6.8601,18.9699 -2.05,28 4.64,8.7099 13.9499,13.9199 23.8201,13.9199 h 124.08 c 9.8702,0 19.1801,-5.21 23.8201,-13.9199 4.8101,-9.0301 4,-19.8101 -2.05,-28 z m -9.38,21.8099 c -2.33,4.4601 -7.1,7.11 -12.12,7.11 H 1602.196 c -5.02,0 -9.79,-2.6499 -12.12,-7.11 -2.42,-4.62 -2.01,-9.9 1.08,-14.09 l 57.3201,-77.62 v -56.0699 c 0,-4.8801 -3.75,-8.9301 -8.4501,-9.6901 -0.9401,-0.15 -1.6,-1.01 -1.6,-1.96 v -8.8699 c 0,-1.9601 1.5901,-3.5501 3.5501,-3.5501 h 45.06 c 1.96,0 3.5501,1.59 3.5501,3.5501 v 8.8699 c 0,0.95 -0.6599,1.81 -1.6,1.96 -4.7001,0.76 -8.4501,4.81 -8.4501,9.6901 v 56.0699 l 57.3201,77.62 c 3.09,4.19 3.5,9.47 1.08,14.09 z"
   id="path4306"
   style="fill:#d7e6ed;fill-opacity:1"
   inkscape:connector-curvature="0" />
</g>













































































































</svg>