<?xml version="1.0" encoding="UTF-8" standalone="no"?>
<!-- Generator: Adobe Illustrator 22.1.0, SVG Export Plug-In . SVG Version: 6.00 Build 0)  -->

<svg
   xmlns:dc="http://purl.org/dc/elements/1.1/"
   xmlns:cc="http://creativecommons.org/ns#"
   xmlns:rdf="http://www.w3.org/1999/02/22-rdf-syntax-ns#"
   xmlns:svg="http://www.w3.org/2000/svg"
   xmlns="http://www.w3.org/2000/svg"
   xmlns:sodipodi="http://sodipodi.sourceforge.net/DTD/sodipodi-0.dtd"
   xmlns:inkscape="http://www.inkscape.org/namespaces/inkscape"
   version="1.1"
   id="Layer_2_1_"
   x="0px"
   y="0px"
   viewBox="0 0 213.02009 213.00997"
   enable-background="new 0 0 3947.9399414 3860.8613281"
   xml:space="preserve"
   sodipodi:docname="orbital_defense_pod.svg"
   inkscape:version="0.92.4 (5da689c313, 2019-01-14)"
   width="213.0201"
   height="213.00999"><metadata
   id="metadata5465"><rdf:RDF><cc:Work
       rdf:about=""><dc:format>image/svg+xml</dc:format><dc:type
         rdf:resource="http://purl.org/dc/dcmitype/StillImage" /><dc:title></dc:title></cc:Work></rdf:RDF></metadata><defs
   id="defs5463" /><sodipodi:namedview
   pagecolor="#ffffff"
   bordercolor="#666666"
   borderopacity="1"
   objecttolerance="10"
   gridtolerance="10"
   guidetolerance="10"
   inkscape:pageopacity="0"
   inkscape:pageshadow="2"
   inkscape:window-width="1920"
   inkscape:window-height="1022"
   id="namedview5461"
   showgrid="false"
   inkscape:zoom="0.21212883"
   inkscape:cx="-1315.627"
   inkscape:cy="1900.0678"
   inkscape:window-x="1079"
   inkscape:window-y="709"
   inkscape:window-maximized="1"
   inkscape:current-layer="Layer_2_1_" />






















































































































































<g
   id="g5108"
   style="fill:#e1561c;fill-opacity:1"
   transform="translate(-2177.1938,-3416.4834)">
	<g
   id="g5100"
   style="fill:#e1561c;fill-opacity:1">
		<polygon
   points="2300.1738,3449.7935 2317.9941,3467.6135 2317.9941,3476.7036 2330.0039,3488.7036 2339.0938,3488.7036 2356.9043,3506.5134 2390.2139,3473.2036 2365.4238,3448.4136 2334.7842,3479.0535 2327.6338,3471.9136 2358.2739,3441.2734 2333.4839,3416.4834 "
   id="polygon5092"
   style="fill:#e1561c;fill-opacity:1" />
		<polygon
   points="2390.2139,3572.7734 2356.9043,3539.4634 2339.0938,3557.2734 2330.0039,3557.2734 2317.9941,3569.2734 2317.9941,3578.3635 2300.1738,3596.1836 2333.4839,3629.4934 2358.2739,3604.7036 2327.644,3574.0735 2334.7842,3566.9233 2365.4238,3597.5635 "
   id="polygon5094"
   style="fill:#e1561c;fill-opacity:1" />
		<polygon
   points="2267.2339,3449.7935 2233.9238,3416.4834 2209.1338,3441.2734 2239.7739,3471.9136 2232.6338,3479.0535 2201.9941,3448.4136 2177.1938,3473.2036 2210.5039,3506.5134 2228.3242,3488.7036 2237.4043,3488.7036 2249.4141,3476.7036 2249.4141,3467.6135 "
   id="polygon5096"
   style="fill:#e1561c;fill-opacity:1" />
		<polygon
   points="2267.2339,3596.1836 2249.4141,3578.3635 2249.4141,3569.2734 2237.4043,3557.2734 2228.3242,3557.2734 2210.5039,3539.4634 2177.1938,3572.7734 2201.9941,3597.5635 2232.6338,3566.9233 2239.7739,3574.0635 2209.1338,3604.7036 2233.9238,3629.4934 "
   id="polygon5098"
   style="fill:#e1561c;fill-opacity:1" />
	</g>
	<g
   id="g5106"
   style="fill:#e1561c;fill-opacity:1">
		<path
   d="m 2314.0537,3496.832 v 52.0806 l -30.3496,30.3496 -30.3496,-30.3496 v -52.0806 h 60.6992 m 10,-10 h -80.6992 v 66.2227 l 40.3496,40.3496 40.3496,-40.3496 z"
   id="path5102"
   style="fill:#e1561c;fill-opacity:1"
   inkscape:connector-curvature="0" />
		<polygon
   points="2263.3547,3544.7705 2283.7041,3565.1199 2304.0535,3544.7705 2304.0535,3506.8323 2263.3547,3506.8323 "
   id="polygon5104"
   style="fill:#e1561c;fill-opacity:1" />
	</g>
</g>




























</svg>