<?xml version="1.0" encoding="UTF-8" standalone="no"?>
<!-- Generator: Adobe Illustrator 22.1.0, SVG Export Plug-In . SVG Version: 6.00 Build 0)  -->

<svg
   xmlns:dc="http://purl.org/dc/elements/1.1/"
   xmlns:cc="http://creativecommons.org/ns#"
   xmlns:rdf="http://www.w3.org/1999/02/22-rdf-syntax-ns#"
   xmlns:svg="http://www.w3.org/2000/svg"
   xmlns="http://www.w3.org/2000/svg"
   xmlns:sodipodi="http://sodipodi.sourceforge.net/DTD/sodipodi-0.dtd"
   xmlns:inkscape="http://www.inkscape.org/namespaces/inkscape"
   version="1.1"
   id="Layer_2_1_"
   x="0px"
   y="0px"
   viewBox="0 0 213.02003 213.00999"
   enable-background="new 0 0 3947.9399414 3860.8613281"
   xml:space="preserve"
   sodipodi:docname="orbital_power_transmitter.svg"
   inkscape:version="0.92.4 (5da689c313, 2019-01-14)"
   width="213.02003"
   height="213.00999"><metadata
   id="metadata5465"><rdf:RDF><cc:Work
       rdf:about=""><dc:format>image/svg+xml</dc:format><dc:type
         rdf:resource="http://purl.org/dc/dcmitype/StillImage" /><dc:title></dc:title></cc:Work></rdf:RDF></metadata><defs
   id="defs5463" /><sodipodi:namedview
   pagecolor="#ffffff"
   bordercolor="#666666"
   borderopacity="1"
   objecttolerance="10"
   gridtolerance="10"
   guidetolerance="10"
   inkscape:pageopacity="0"
   inkscape:pageshadow="2"
   inkscape:window-width="1920"
   inkscape:window-height="1022"
   id="namedview5461"
   showgrid="false"
   inkscape:zoom="0.21212883"
   inkscape:cx="1262.2573"
   inkscape:cy="1242.8932"
   inkscape:window-x="1079"
   inkscape:window-y="709"
   inkscape:window-maximized="1"
   inkscape:current-layer="Layer_2_1_" />

































































































































<g
   id="g4878"
   style="fill:#d7e6ed;fill-opacity:1"
   transform="translate(-10.001486,-3132.6926)">
	<path
   d="m 117.25784,3202.6907 c -0.25342,-0.6992 -1.23926,-0.6992 -1.49268,0 -6.01807,16.5859 -19.181641,29.7492 -35.773926,35.768 -0.699707,0.2537 -0.699707,1.24 0,1.4934 16.592285,6.0113 29.755366,19.167 35.773436,35.7522 0.25391,0.6995 1.23975,0.6995 1.49365,0 6.01807,-16.5852 19.18068,-29.7409 35.77345,-35.7522 0.69922,-0.2534 0.69971,-1.2397 0,-1.4934 -16.59277,-6.0188 -29.75587,-19.1821 -35.77393,-35.768 z m -0.74659,48.5273 -12.02002,-12.0202 12.02002,-12.0203 12.02052,12.0203 z"
   id="path4874"
   style="fill:#d7e6ed;fill-opacity:1"
   inkscape:connector-curvature="0" />
	<path
   d="m 171.9014,3273.4824 h -9.08985 l -2.18017,2.1802 v -14.04 c 3.44043,-6.73 5.37012,-14.3501 5.37012,-22.43 0,-8.07 -1.92969,-15.7002 -5.37012,-22.4301 v -14.0301 l 2.18017,2.1802 h 9.08985 l 17.81006,17.8101 33.31005,-33.3101 -24.79003,-24.79 -30.63965,30.6399 -7.15039,-7.1399 30.64013,-30.6402 -24.79004,-24.7898 -33.31005,33.3098 17.82031,17.8201 v 9.0901 l 2.16992,2.1699 h -14.01025 c -6.73975,-3.4399 -14.36964,-5.3799 -22.44972,-5.3799 -8.08008,0 -15.70996,1.94 -22.450194,5.3799 H 80.051781 l 2.169922,-2.1699 v -9.0901 l 17.819827,-17.8201 -33.310062,-33.3098 -24.790035,24.7898 30.640133,30.6402 -7.140137,7.1399 -30.639644,-30.6399 -24.800295,24.79 33.310058,33.3101 17.819824,-17.8101 h 9.080071 l 2.189941,-2.1899 v 14.0197 c -3.439941,6.74 -5.379882,14.3701 -5.379882,22.4502 0,8.0799 1.939941,15.71 5.379882,22.45 v 14.03 l -2.189941,-2.1902 h -9.080074 l -17.819824,-17.8098 -33.310059,33.3098 24.800297,24.7901 30.63964,-30.6399 7.140137,7.1399 -30.640133,30.6401 24.790035,24.79 33.310058,-33.31 -17.819823,-17.8201 v -9.0901 l -2.169922,-2.1699 h 14.009766 c 6.740229,3.4299 14.370119,5.3701 22.450199,5.3701 8.08007,0 15.70997,-1.9402 22.44972,-5.3701 h 14.01025 l -2.16992,2.1699 v 9.0901 l -17.82031,17.8201 33.31006,33.31 24.79004,-24.79 -30.62989,-30.6301 7.14014,-7.1499 30.63965,30.6399 24.79004,-24.7901 -33.31006,-33.3098 z m -55.38966,8.9466 c -23.875975,0 -43.231444,-19.3555 -43.231444,-43.2315 0,-23.876 19.355469,-43.2314 43.231444,-43.2314 23.87598,0 43.23145,19.3554 43.23145,43.2314 0,23.876 -19.35546,43.2315 -43.23145,43.2315 z"
   id="path4876"
   style="fill:#d7e6ed;fill-opacity:1"
   inkscape:connector-curvature="0" />
</g>

















































</svg>