<?xml version="1.0" encoding="UTF-8" standalone="no"?>
<!-- Generator: Adobe Illustrator 22.1.0, SVG Export Plug-In . SVG Version: 6.00 Build 0)  -->

<svg
   xmlns:dc="http://purl.org/dc/elements/1.1/"
   xmlns:cc="http://creativecommons.org/ns#"
   xmlns:rdf="http://www.w3.org/1999/02/22-rdf-syntax-ns#"
   xmlns:svg="http://www.w3.org/2000/svg"
   xmlns="http://www.w3.org/2000/svg"
   xmlns:sodipodi="http://sodipodi.sourceforge.net/DTD/sodipodi-0.dtd"
   xmlns:inkscape="http://www.inkscape.org/namespaces/inkscape"
   version="1.1"
   id="Layer_2_1_"
   x="0px"
   y="0px"
   viewBox="0 0 192.6797 195.99998"
   enable-background="new 0 0 3947.9399414 3860.8613281"
   xml:space="preserve"
   sodipodi:docname="paradise_garden.svg"
   inkscape:version="0.92.4 (5da689c313, 2019-01-14)"
   width="192.6797"
   height="196"><metadata
   id="metadata5465"><rdf:RDF><cc:Work
       rdf:about=""><dc:format>image/svg+xml</dc:format><dc:type
         rdf:resource="http://purl.org/dc/dcmitype/StillImage" /><dc:title></dc:title></cc:Work></rdf:RDF></metadata><defs
   id="defs5463" /><sodipodi:namedview
   pagecolor="#ffffff"
   bordercolor="#666666"
   borderopacity="1"
   objecttolerance="10"
   gridtolerance="10"
   guidetolerance="10"
   inkscape:pageopacity="0"
   inkscape:pageshadow="2"
   inkscape:window-width="1920"
   inkscape:window-height="1022"
   id="namedview5461"
   showgrid="false"
   inkscape:zoom="0.21212883"
   inkscape:cx="-1944.9952"
   inkscape:cy="756.39945"
   inkscape:window-x="1079"
   inkscape:window-y="709"
   inkscape:window-maximized="1"
   inkscape:current-layer="Layer_2_1_" />

















































































































































<g
   id="g5058"
   style="fill:#e2bd4d;fill-opacity:1"
   transform="translate(-2806.562,-2289.825)">
	<path
   d="m 2902.9019,2289.825 c -53.1221,0 -96.3399,43.2226 -96.3399,96.35 v 99.65 h 192.6797 v -99.65 c 0,-53.1274 -43.2178,-96.35 -96.3398,-96.35 z m 80.3398,180 H 2822.562 v -83.65 c 0,-44.3051 36.0401,-80.35 80.3399,-80.35 44.2998,0 80.3398,36.0449 80.3398,80.35 z"
   id="path5054"
   style="fill:#e2bd4d;fill-opacity:1"
   inkscape:connector-curvature="0" />
	<path
   d="m 2956.4185,2344.0796 v -8.48 h -13.3301 l -14.72,14.72 v 2.8401 c -1.1799,0 -2.22,0.5298 -2.9299,1.3598 h -5.5301 c -0.3601,-0.57 -0.84,-1.04 -1.4099,-1.4101 v -2.4199 h -5 v 2.4301 c -0.56,0.3599 -1.04,0.8399 -1.4001,1.3999 h -5.3001 c -0.3598,-0.56 -0.8398,-1.04 -1.3999,-1.3999 v -2.4301 h -5 v 2.4301 c -0.56,0.3599 -1.04,0.8399 -1.3999,1.3999 h -5.3 c -0.3601,-0.56 -0.8401,-1.04 -1.4002,-1.3999 v -2.4301 h -5 v 2.4199 c -0.5698,0.3701 -1.0498,0.8401 -1.4099,1.4101 h -5.53 c -0.71,-0.83 -1.75,-1.3598 -2.9299,-1.3598 v -2.8401 l -14.72,-14.72 h -13.3301 v 8.48 c 0,0 2.3701,3.49 3.8999,5.51 12.9903,17.2698 -3.3598,52.7898 -3.5,72.25 -0.1299,17.7698 17.28,29.21 29.6001,32.1599 v 1.69 h -13.4199 l -5.5801,5.58 v 2.25 h 85.0401 v -2.25 l -5.5801,-5.58 h -13.4199 v -1.69 c 12.32,-2.9499 29.7299,-14.3901 29.6001,-32.1599 -0.1402,-19.4602 -16.4903,-54.9802 -3.5,-72.25 1.5297,-2.02 3.8999,-5.51 3.8999,-5.51 z m -69.1202,78.02 c 0,0.8599 -1.01,1.3599 -1.6799,0.8101 -5.03,-4.1302 -8.1899,-10.0401 -8.1899,-16.6101 v -45.4202 c 1.1799,0 2.2199,-0.5298 2.9299,-1.3599 h 5.53 c 0.3601,0.5701 0.8401,1.0401 1.4099,1.4099 z m 13.1001,3.4299 c 0,1.8001 -1.6601,3.1399 -3.4199,2.7701 -0.9302,-0.1902 -1.8301,-0.43 -2.7099,-0.72 -1.1802,-0.3701 -1.9703,-1.48 -1.9703,-2.71 v -63.9502 c 0.5601,-0.3598 1.0401,-0.8398 1.4002,-1.3999 h 5.3 c 0.3599,0.5601 0.8399,1.0401 1.3999,1.3999 z m 13.1001,-0.6599 c 0,1.23 -0.79,2.3399 -1.9702,2.71 -0.8799,0.29 -1.7798,0.5298 -2.7099,0.72 -1.7598,0.3698 -3.42,-0.97 -3.42,-2.7701 v -64.6101 c 0.5601,-0.3598 1.0401,-0.8398 1.3999,-1.3999 h 5.3001 c 0.3601,0.5601 0.8401,1.0401 1.4001,1.3999 z m 14.8699,-18.57 c 0,6.57 -3.1599,12.4799 -8.1899,16.6101 -0.67,0.5498 -1.68,0.05 -1.68,-0.8101 v -61.1702 c 0.5699,-0.3698 1.0498,-0.8398 1.4099,-1.4099 h 5.5301 c 0.7099,0.8301 1.75,1.3599 2.9299,1.3599 z"
   id="path5056"
   style="fill:#e2bd4d;fill-opacity:1"
   inkscape:connector-curvature="0" />
</g>

































</svg>