<?xml version="1.0" encoding="UTF-8" standalone="no"?>
<!-- Generator: Adobe Illustrator 22.1.0, SVG Export Plug-In . SVG Version: 6.00 Build 0)  -->

<svg
   xmlns:dc="http://purl.org/dc/elements/1.1/"
   xmlns:cc="http://creativecommons.org/ns#"
   xmlns:rdf="http://www.w3.org/1999/02/22-rdf-syntax-ns#"
   xmlns:svg="http://www.w3.org/2000/svg"
   xmlns="http://www.w3.org/2000/svg"
   xmlns:sodipodi="http://sodipodi.sourceforge.net/DTD/sodipodi-0.dtd"
   xmlns:inkscape="http://www.inkscape.org/namespaces/inkscape"
   version="1.1"
   id="Layer_2_1_"
   x="0px"
   y="0px"
   viewBox="0 0 193 193.407"
   enable-background="new 0 0 3947.9399414 3860.8613281"
   xml:space="preserve"
   sodipodi:docname="pressure_dome.svg"
   inkscape:version="0.92.4 (5da689c313, 2019-01-14)"
   width="193"
   height="193.40701"><metadata
   id="metadata5465"><rdf:RDF><cc:Work
       rdf:about=""><dc:format>image/svg+xml</dc:format><dc:type
         rdf:resource="http://purl.org/dc/dcmitype/StillImage" /><dc:title></dc:title></cc:Work></rdf:RDF></metadata><defs
   id="defs5463" /><sodipodi:namedview
   pagecolor="#ffffff"
   bordercolor="#666666"
   borderopacity="1"
   objecttolerance="10"
   gridtolerance="10"
   guidetolerance="10"
   inkscape:pageopacity="0"
   inkscape:pageshadow="2"
   inkscape:window-width="1920"
   inkscape:window-height="1022"
   id="namedview5461"
   showgrid="false"
   inkscape:zoom="0.21212883"
   inkscape:cx="-1016.0382"
   inkscape:cy="-1231.4328"
   inkscape:window-x="1079"
   inkscape:window-y="709"
   inkscape:window-maximized="1"
   inkscape:current-layer="Layer_2_1_" />
























































<g
   id="g4190"
   style="fill:#90ae50;fill-opacity:1"
   transform="translate(-1877.605,-304.58569)">
	<path
   d="m 1974.355,368.73782 c -29.9131,0 -54.25,26.46973 -54.25,59.00489 v 51.76367 h 108.5 v -51.76367 c 0,-32.53516 -24.3369,-59.00489 -54.25,-59.00489 z m 42.25,98.76856 h -84.5 v -39.76367 c 0,-25.91846 18.9531,-47.00489 42.25,-47.00489 23.2969,0 42.25,21.08643 42.25,47.00489 z"
   id="path4186"
   style="fill:#90ae50;fill-opacity:1"
   inkscape:connector-curvature="0" />
	<path
   d="m 2069.7417,325.87271 h -0.3389 c -0.3584,0 -0.6772,-0.24335 -0.7466,-0.59491 -0.965,-4.90289 -13.7797,-8.78509 -29.4414,-8.78509 -13.7558,0 -25.3215,3.00018 -28.5742,7.04913 -0.5251,0.6535 -1.3142,1.03082 -2.1523,1.03082 -0.9187,0 -1.6633,-0.74469 -1.6633,-1.66321 v -2.5805 c 0,-0.51648 0.2487,-1.00311 0.6567,-1.31976 5.7219,-4.44062 -10.5449,-5.03022 -16.7068,-1.88648 -2.5671,1.31641 -3.8022,1.51495 -5.2507,1.45618 -0.8736,-0.0354 -1.4637,-0.90564 -1.1536,-1.72302 l 3.9981,-10.54303 c 0.3166,-0.83484 -0.3042,-1.73304 -1.1971,-1.72712 -26.4978,0.17591 -37.4328,6.11927 -51.6167,20.56696 -27.8874,28.41009 -45.1775,6.12878 -56.2668,-4.41644 -0.6343,-0.60297 -1.6831,-0.14453 -1.6831,0.73053 v 176.52594 h 193 V 326.73587 c 0,-0.47675 -0.3865,-0.86316 -0.8633,-0.86316 z m -29.1367,165.63367 h -132.5 v -63.76367 c 0,-39.15235 29.7197,-71.00489 66.25,-71.00489 36.5303,0 66.25,31.85254 66.25,71.00489 z"
   id="path4188"
   style="fill:#90ae50;fill-opacity:1"
   inkscape:connector-curvature="0" />
</g>


























































































































</svg>