<?xml version="1.0" encoding="UTF-8" standalone="no"?>
<!-- Generator: Adobe Illustrator 22.1.0, SVG Export Plug-In . SVG Version: 6.00 Build 0)  -->

<svg
   xmlns:dc="http://purl.org/dc/elements/1.1/"
   xmlns:cc="http://creativecommons.org/ns#"
   xmlns:rdf="http://www.w3.org/1999/02/22-rdf-syntax-ns#"
   xmlns:svg="http://www.w3.org/2000/svg"
   xmlns="http://www.w3.org/2000/svg"
   xmlns:sodipodi="http://sodipodi.sourceforge.net/DTD/sodipodi-0.dtd"
   xmlns:inkscape="http://www.inkscape.org/namespaces/inkscape"
   version="1.1"
   id="Layer_2_1_"
   x="0px"
   y="0px"
   viewBox="0 0 139 202.74999"
   enable-background="new 0 0 3947.9399414 3860.8613281"
   xml:space="preserve"
   sodipodi:docname="psi_gate.svg"
   inkscape:version="0.92.4 (5da689c313, 2019-01-14)"
   width="139"
   height="202.75"><metadata
   id="metadata5465"><rdf:RDF><cc:Work
       rdf:about=""><dc:format>image/svg+xml</dc:format><dc:type
         rdf:resource="http://purl.org/dc/dcmitype/StillImage" /><dc:title></dc:title></cc:Work></rdf:RDF></metadata><defs
   id="defs5463" /><sodipodi:namedview
   pagecolor="#ffffff"
   bordercolor="#666666"
   borderopacity="1"
   objecttolerance="10"
   gridtolerance="10"
   guidetolerance="10"
   inkscape:pageopacity="0"
   inkscape:pageshadow="2"
   inkscape:window-width="1920"
   inkscape:window-height="1022"
   id="namedview5461"
   showgrid="false"
   inkscape:zoom="0.21212883"
   inkscape:cx="-2900.6315"
   inkscape:cy="1043.5655"
   inkscape:window-x="1079"
   inkscape:window-y="709"
   inkscape:window-maximized="1"
   inkscape:current-layer="Layer_2_1_" />





































































































































































<g
   id="g5264"
   style="fill:#e1561c;fill-opacity:1"
   transform="translate(-3762.1983,-2570.241)">
	<path
   d="m 3866.9385,2579.8611 c -2.76,-1.6402 -5.6499,-3.0901 -8.6499,-4.3301 -1.97,-0.8201 -3.99,-1.55 -6.0501,-2.1899 -2.8901,-0.9002 -5.8701,-1.6101 -8.9101,-2.1202 -1.8399,-0.32 -3.71,-0.56 -5.5899,-0.7199 -1.99,-0.1702 -4.01,-0.26 -6.04,-0.26 -1.3001,0 -2.5901,0.04 -3.8701,0.1098 -2.1499,0.1201 -4.2798,0.3301 -6.3699,0.6402 -3.9099,0.58 -7.71,1.49 -11.3801,2.6999 h -0.01 c -3.7102,1.21 -7.29,2.74 -10.7002,4.5401 -4.0298,2.1301 -7.8298,4.6398 -11.3398,7.4799 -15.75,12.76 -25.8301,32.24 -25.8301,54.0301 v 133.25 h 139 v -133.25 c 0,-25.47 -13.77,-47.7801 -34.26,-59.8799 z m -83.74,172.1299 v -112.25 c 0,-10.3401 3.25,-19.93 8.79,-27.8101 0.5501,-0.79 1.1399,-1.5698 1.74,-2.3301 1.95,-2.4599 4.1399,-4.7197 6.52,-6.75 2.3098,-1.9697 4.8098,-3.73 7.46,-5.25 1.29,6.2803 3.98,10.5401 6.5601,14.3301 0.2199,0.3301 0.4499,0.6602 0.6699,0.98 3.4699,5.05 6.4599,9.4101 6.4599,18.5801 0,9.1699 -2.99,13.53 -6.4599,18.58 -3.77,5.49 -8.0401,11.71 -8.0401,23.67 0,11.9599 4.2701,18.1799 8.0401,23.6699 3.4699,5.05 6.4599,9.4101 6.4599,18.5801 0,9.1699 -2.99,13.53 -6.4599,18.58 -1.27,1.8399 -2.5901,3.7701 -3.7801,5.98 -1.6999,3.0999 -3.1398,6.74 -3.83,11.44 z m 34.1299,0 c 1.1801,-8.0501 4.56,-12.98 7.6101,-17.42 3.4699,-5.05 6.4599,-9.4101 6.4599,-18.58 0,-9.17 -2.99,-13.5301 -6.4599,-18.5801 -3.77,-5.49 -8.0401,-11.71 -8.0401,-23.6699 0,-11.96 4.2701,-18.18 8.0401,-23.67 3.4699,-5.05 6.4599,-9.4101 6.4599,-18.58 0,-9.17 -2.99,-13.5301 -6.4599,-18.5801 -3.3001,-4.7998 -6.97,-10.1599 -7.8499,-19.4199 1.9099,-0.6099 3.8799,-1.1001 5.8999,-1.46 0.6001,10.1699 4.48,15.8301 7.95,20.8799 3.4699,5.05 6.4599,9.4101 6.4599,18.5801 0,9.1699 -2.99,13.53 -6.4599,18.58 -3.77,5.49 -8.0401,11.71 -8.0401,23.67 0,11.9599 4.2701,18.1799 8.0401,23.6699 3.4699,5.05 6.4599,9.4101 6.4599,18.5801 0,9.1699 -2.99,13.53 -6.4599,18.58 -3.0501,4.44 -6.43,9.3699 -7.6101,17.42 z m 16,0 c 1.1801,-8.0501 4.56,-12.98 7.6101,-17.42 3.4699,-5.05 6.4599,-9.4101 6.4599,-18.58 0,-9.17 -2.99,-13.5301 -6.4599,-18.5801 -3.77,-5.49 -8.0401,-11.71 -8.0401,-23.6699 0,-11.96 4.2701,-18.18 8.0401,-23.67 3.4699,-5.05 6.4599,-9.4101 6.4599,-18.58 0,-9.17 -2.99,-13.5301 -6.4599,-18.5801 -3.5501,-5.1699 -7.5501,-10.99 -8,-21.6499 2.04,0.05 4.05,0.23 6.03,0.52 0.5501,10.3301 4.48,16.04 7.97,21.1299 3.4699,5.05 6.4599,9.4101 6.4599,18.5801 0,9.1699 -2.99,13.53 -6.4599,18.58 -3.77,5.49 -8.0401,11.71 -8.0401,23.67 0,11.9599 4.2701,18.1799 8.0401,23.6699 3.4699,5.05 6.4599,9.4101 6.4599,18.5801 0,9.1699 -2.99,13.53 -6.4599,18.58 -3.0501,4.44 -6.43,9.3699 -7.6101,17.42 z m 46.8701,0 h -30.8701 c 1.1801,-8.0501 4.56,-12.98 7.6101,-17.42 3.4699,-5.05 6.4599,-9.4101 6.4599,-18.58 0,-5.22 -0.9699,-8.8799 -2.4399,-12 -1.1199,-2.3599 -2.53,-4.4102 -4.02,-6.5801 -3.77,-5.49 -8.0401,-11.71 -8.0401,-23.6699 0,-11.96 4.2701,-18.18 8.0401,-23.67 1.49,-2.1701 2.9001,-4.2202 4.02,-6.58 1.47,-3.1202 2.4399,-6.7801 2.4399,-12 0,-9.17 -2.99,-13.5301 -6.4599,-18.5801 -3.1699,-4.6199 -6.7,-9.76 -7.73,-18.3999 2.6699,1.04 5.23,2.31 7.6499,3.78 13.0701,7.96 22.0901,21.9299 23.22,38.03 0.08,1.1299 0.1201,2.2701 0.1201,3.42 z"
   id="path5258"
   style="fill:#e1561c;fill-opacity:1"
   inkscape:connector-curvature="0" />
	<path
   d="m 3805.9385,2697.4109 c -3.77,-5.49 -8.0401,-11.71 -8.0401,-23.6699 0,-11.96 4.2701,-18.18 8.0401,-23.67 3.4699,-5.05 6.4599,-9.4101 6.4599,-18.58 0,-9.17 -2.99,-13.5301 -6.4599,-18.5801 -0.22,-0.3198 -0.45,-0.6499 -0.6699,-0.98 h -10 c 0.2199,0.3301 0.4499,0.6602 0.6699,0.98 3.4699,5.05 6.4599,9.4101 6.4599,18.5801 0,9.1699 -2.99,13.53 -6.4599,18.58 -3.77,5.49 -8.0401,11.71 -8.0401,23.67 0,11.9599 4.2701,18.1799 8.0401,23.6699 3.4699,5.05 6.4599,9.4101 6.4599,18.5801 0,9.1699 -2.99,13.53 -6.4599,18.58 -1.27,1.8399 -2.5901,3.7701 -3.7801,5.98 h 10 c 1.19,-2.2099 2.5101,-4.1401 3.7801,-5.98 3.4699,-5.05 6.4599,-9.4101 6.4599,-18.58 0,-9.17 -2.99,-13.5301 -6.4599,-18.5801 z"
   id="path5260"
   style="fill:#e1561c;fill-opacity:1"
   inkscape:connector-curvature="0" />
	<path
   d="m 3877.9585,2643.491 h -10 c -1.1199,2.3598 -2.53,4.4099 -4.02,6.58 -3.77,5.49 -8.0401,11.71 -8.0401,23.67 0,11.9599 4.2701,18.1799 8.0401,23.6699 1.49,2.1699 2.9001,4.2202 4.02,6.5801 h 10 c -1.1199,-2.3599 -2.53,-4.4102 -4.02,-6.5801 -3.77,-5.49 -8.0401,-11.71 -8.0401,-23.6699 0,-11.96 4.2701,-18.18 8.0401,-23.67 1.49,-2.1701 2.9001,-4.2202 4.02,-6.58 z"
   id="path5262"
   style="fill:#e1561c;fill-opacity:1"
   inkscape:connector-curvature="0" />
</g>













</svg>