<?xml version="1.0" encoding="UTF-8" standalone="no"?>
<!-- Generator: Adobe Illustrator 22.1.0, SVG Export Plug-In . SVG Version: 6.00 Build 0)  -->

<svg
   xmlns:dc="http://purl.org/dc/elements/1.1/"
   xmlns:cc="http://creativecommons.org/ns#"
   xmlns:rdf="http://www.w3.org/1999/02/22-rdf-syntax-ns#"
   xmlns:svg="http://www.w3.org/2000/svg"
   xmlns="http://www.w3.org/2000/svg"
   xmlns:sodipodi="http://sodipodi.sourceforge.net/DTD/sodipodi-0.dtd"
   xmlns:inkscape="http://www.inkscape.org/namespaces/inkscape"
   version="1.1"
   id="Layer_2_1_"
   x="0px"
   y="0px"
   viewBox="0 0 205.2999 205.29998"
   enable-background="new 0 0 3947.9399414 3860.8613281"
   xml:space="preserve"
   sodipodi:docname="punishment_sphere.svg"
   inkscape:version="0.92.4 (5da689c313, 2019-01-14)"
   width="205.2999"
   height="205.29999"><metadata
   id="metadata5465"><rdf:RDF><cc:Work
       rdf:about=""><dc:format>image/svg+xml</dc:format><dc:type
         rdf:resource="http://purl.org/dc/dcmitype/StillImage" /><dc:title></dc:title></cc:Work></rdf:RDF></metadata><defs
   id="defs5463" /><sodipodi:namedview
   pagecolor="#ffffff"
   bordercolor="#666666"
   borderopacity="1"
   objecttolerance="10"
   gridtolerance="10"
   guidetolerance="10"
   inkscape:pageopacity="0"
   inkscape:pageshadow="2"
   inkscape:window-width="1920"
   inkscape:window-height="1022"
   id="namedview5461"
   showgrid="false"
   inkscape:zoom="0.21212883"
   inkscape:cx="-700.2893"
   inkscape:cy="-1225.4863"
   inkscape:window-x="1079"
   inkscape:window-y="709"
   inkscape:window-maximized="1"
   inkscape:current-layer="Layer_2_1_" />






































<g
   id="g3996"
   style="fill:#e2bd4d;fill-opacity:1"
   transform="translate(-1561.8561,-298.63922)">
	<path
   d="m 1611.7852,475.65216 c 14.8798,10.58002 33.0799,16.79004 52.7199,16.79004 19.64,0 37.8401,-6.21002 52.72,-16.79004 5.0701,-4.19 -12.8398,-7.67999 -22.45,-4.11999 -0.4399,0.19 -0.8699,0.38 -1.32,0.55999 -0.01,0 -0.02,0.01 -0.03,0.01 -8.9201,3.65003 -18.6801,5.66004 -28.9201,5.66004 -10.24,0 -20,-2.01001 -28.92,-5.66004 -0.01,0 -0.02,-0.01 -0.03,-0.01 -0.4501,-0.17999 -0.8802,-0.36999 -1.3201,-0.55999 -9.6101,-3.56 -27.52,-0.07 -22.4499,4.11999 z"
   id="path3984"
   style="fill:#e2bd4d;fill-opacity:1"
   inkscape:connector-curvature="0" />
	<path
   d="m 1738.8671,454.01114 c 10.5799,-14.87988 16.79,-33.07996 16.79,-52.71997 0,-19.64002 -6.2101,-37.84009 -16.79,-52.71997 -4.1901,-5.07007 -7.6801,12.83984 -4.12,22.44995 0.1899,0.43994 0.38,0.86999 0.5599,1.32007 0,0.01 0.01,0.0199 0.01,0.0299 3.65,8.92005 5.6601,18.68006 5.6601,28.92005 0,10.23999 -2.0101,20 -5.6601,28.92004 0,0.01 -0.01,0.02 -0.01,0.0299 -0.1799,0.45007 -0.37,0.88013 -0.5599,1.32007 -3.5601,9.61011 -0.07,27.52002 4.12,22.44995 z"
   id="path3986"
   style="fill:#e2bd4d;fill-opacity:1"
   inkscape:connector-curvature="0" />
	<path
   d="m 1717.226,326.92926 c -14.8799,-10.58002 -33.08,-16.79004 -52.72,-16.79004 -19.64,0 -37.8401,6.21002 -52.72,16.79004 -5.0701,4.19 12.8399,7.67999 22.45,4.12 0.4399,-0.19001 0.87,-0.38001 1.32,-0.56 0.01,0 0.02,-0.01 0.03,-0.01 8.9201,-3.65003 18.6801,-5.66004 28.9201,-5.66004 10.24,0 20,2.01001 28.92,5.66004 0.01,0 0.02,0.01 0.03,0.01 0.4501,0.17999 0.8802,0.36999 1.3201,0.56 9.6101,3.55999 27.52,0.07 22.45,-4.12 z"
   id="path3988"
   style="fill:#e2bd4d;fill-opacity:1"
   inkscape:connector-curvature="0" />
	<path
   d="m 1590.1442,348.57028 c -10.5801,14.87988 -16.7901,33.07996 -16.7901,52.71997 0,19.64002 6.21,37.84009 16.7901,52.71997 4.1899,5.07007 7.6799,-12.83984 4.12,-22.44995 -0.1901,-0.43994 -0.38,-0.86999 -0.5601,-1.32007 0,-0.01 -0.01,-0.0199 -0.01,-0.0299 -3.65,-8.92005 -5.66,-18.68006 -5.66,-28.92005 0,-10.23999 2.01,-20 5.66,-28.92004 0,-0.01 0.01,-0.02 0.01,-0.0299 0.1801,-0.45007 0.37,-0.88013 0.5601,-1.32007 3.5599,-9.6101 0.07,-27.52002 -4.12,-22.44995 z"
   id="path3990"
   style="fill:#e2bd4d;fill-opacity:1"
   inkscape:connector-curvature="0" />
	<path
   d="m 1664.506,298.63922 c -56.69,0 -102.6499,45.96002 -102.6499,102.65003 0,56.69 45.9599,102.64996 102.6499,102.64996 56.69,0 102.65,-45.95996 102.65,-102.64996 0,-56.69001 -45.96,-102.65003 -102.65,-102.65003 z m -63.1328,173.56354 35.6728,-35.66351 -7.78,-7.78003 -35.673,35.66351 c -14.9487,-16.77887 -24.037,-38.89307 -24.037,-63.13348 0,-24.24146 9.089,-46.35437 24.0388,-63.13117 l 35.6712,35.67114 7.78,-7.77996 -35.6703,-35.67029 c 16.7785,-14.94477 38.8914,-24.02973 63.1303,-24.02973 24.2427,0 46.3564,9.08771 63.1335,24.0365 l -35.6635,35.66352 7.78,7.77996 35.6584,-35.66797 c 14.9458,16.77643 24.0316,38.88807 24.0316,63.128 0,24.23889 -9.0849,46.3518 -24.0296,63.13024 l -35.6604,-35.66027 -7.78,7.78003 35.6611,35.66113 c -16.7767,14.94989 -38.8897,24.03888 -63.1311,24.03888 -24.2403,0 -46.3541,-9.08808 -63.1328,-24.0365 z"
   id="path3992"
   style="fill:#e2bd4d;fill-opacity:1"
   inkscape:connector-curvature="0" />
	<path
   d="m 1714.526,380.83923 -6.4399,-1.40997 v -7.91003 c 0,-1.02997 -0.05,-2.04999 -0.1401,-3.04999 l -8.19,8.19 -10.61,-10.60998 13.18,-13.18 c -5.9599,-8.70001 -15.9599,-14.40002 -27.29,-14.40002 h -21.06 c -11.33,0 -21.33,5.70001 -27.29,14.39001 l 13.1901,13.19001 -10.6101,10.60998 -8.2,-8.20001 c -0.09,1.01001 -0.14,2.03003 -0.14,3.06 v 7.91003 l -6.45,1.40997 c -2.08,0.45002 -3.57,2.28998 -3.57,4.43 v 23.47998 c 0,7.47003 6.0599,13.53003 13.54,13.53003 0.4301,0 0.82,0.16998 1.1,0.45001 0.28,0.27997 0.45,0.66998 0.45,1.09997 v 5.37 l 3.27,-3.26996 10.6101,10.60999 -10.8001,10.79998 c 0.62,0.93 1.35,1.81 2.15,2.60999 l 11.6101,11.60998 c 3.3499,3.35004 7.8899,5.23005 12.6298,5.23005 h 18.0801 c 4.74,0 9.28,-1.88001 12.63,-5.23005 l 11.61,-11.60998 c 0.8101,-0.81 1.53,-1.69 2.16,-2.62 l -10.8,-10.78997 10.61,-10.60999 3.26,3.25995 v -5.35999 c 0,-0.42999 0.17,-0.82 0.4499,-1.09997 0.2801,-0.28003 0.6702,-0.45001 1.1001,-0.45001 7.48,0 13.5301,-6.06 13.5301,-13.53003 v -23.47998 c 0,-2.14002 -1.48,-3.97998 -3.5701,-4.43 z m -40.1599,59.27002 c -2.26,-2.97003 -5.8401,-4.89001 -9.8701,-4.89001 -4.0301,0 -7.6,1.91998 -9.8699,4.89001 h -11.9301 c 1.12,-11.05005 10.45,-19.67999 21.8,-19.67999 11.3501,0 20.69,8.62994 21.81,19.67999 z"
   id="path3994"
   style="fill:#e2bd4d;fill-opacity:1"
   inkscape:connector-curvature="0" />
</g>












































































































































</svg>