<?xml version="1.0" encoding="UTF-8" standalone="no"?>
<!-- Generator: Adobe Illustrator 22.1.0, SVG Export Plug-In . SVG Version: 6.00 Build 0)  -->

<svg
   xmlns:dc="http://purl.org/dc/elements/1.1/"
   xmlns:cc="http://creativecommons.org/ns#"
   xmlns:rdf="http://www.w3.org/1999/02/22-rdf-syntax-ns#"
   xmlns:svg="http://www.w3.org/2000/svg"
   xmlns="http://www.w3.org/2000/svg"
   xmlns:sodipodi="http://sodipodi.sourceforge.net/DTD/sodipodi-0.dtd"
   xmlns:inkscape="http://www.inkscape.org/namespaces/inkscape"
   version="1.1"
   id="Layer_2_1_"
   x="0px"
   y="0px"
   viewBox="0 0 177.95624 204.95989"
   enable-background="new 0 0 3947.9399414 3860.8613281"
   xml:space="preserve"
   sodipodi:docname="quantum_lab.svg"
   inkscape:version="0.92.4 (5da689c313, 2019-01-14)"
   width="177.95624"
   height="204.9599"><metadata
   id="metadata5465"><rdf:RDF><cc:Work
       rdf:about=""><dc:format>image/svg+xml</dc:format><dc:type
         rdf:resource="http://purl.org/dc/dcmitype/StillImage" /><dc:title></dc:title></cc:Work></rdf:RDF></metadata><defs
   id="defs5463" /><sodipodi:namedview
   pagecolor="#ffffff"
   bordercolor="#666666"
   borderopacity="1"
   objecttolerance="10"
   gridtolerance="10"
   guidetolerance="10"
   inkscape:pageopacity="0"
   inkscape:pageshadow="2"
   inkscape:window-width="1920"
   inkscape:window-height="1022"
   id="namedview5461"
   showgrid="false"
   inkscape:zoom="0.21212883"
   inkscape:cx="-2261.9558"
   inkscape:cy="760.87936"
   inkscape:window-x="1079"
   inkscape:window-y="709"
   inkscape:window-maximized="1"
   inkscape:current-layer="Layer_2_1_" />


















































































































































<g
   id="g5072"
   style="fill:#d7e6ed;fill-opacity:1"
   transform="translate(-3123.5226,-2285.345)">
	<g
   id="g5068"
   style="fill:#d7e6ed;fill-opacity:1">
		<path
   d="m 3187.04,2405.5432 c -3.6201,9.9776 -11.5388,17.8963 -21.5202,21.5169 -0.4209,0.1525 -0.4207,0.7456 0,0.8982 9.9817,3.6159 17.9001,11.5302 21.5202,21.5075 0.1529,0.4204 0.7456,0.4204 0.8982,0 3.6201,-9.9773 11.5389,-17.8916 21.5203,-21.5075 0.4209,-0.1526 0.4209,-0.7457 2e-4,-0.8982 -9.9816,-3.6206 -17.9001,-11.5393 -21.5205,-21.5169 -0.1526,-0.4206 -0.7456,-0.4206 -0.8982,0 z m 0.4493,29.1922 -7.231,-7.231 7.231,-7.2307 7.2307,7.2307 z"
   id="path5060"
   style="fill:#d7e6ed;fill-opacity:1"
   inkscape:connector-curvature="0" />
		<path
   d="m 3237.0632,2405.5432 c -3.6201,9.9776 -11.5385,17.896 -21.52,21.5166 -0.4209,0.1526 -0.4206,0.7459 3e-4,0.8985 9.9812,3.6159 17.8996,11.5302 21.5197,21.507 0.1526,0.4209 0.7456,0.4209 0.8985,0 3.6201,-9.9768 11.5385,-17.8911 21.5197,-21.507 0.4209,-0.1526 0.4209,-0.7459 3e-4,-0.8985 -9.9815,-3.6206 -17.9002,-11.539 -21.5203,-21.5166 -0.1526,-0.4206 -0.7453,-0.4206 -0.8982,0 z m 0.4493,29.1922 -7.231,-7.231 7.231,-7.2307 7.2307,7.2307 z"
   id="path5062"
   style="fill:#d7e6ed;fill-opacity:1"
   inkscape:connector-curvature="0" />
		<path
   d="m 3212.0518,2380.5388 c -3.6204,9.9776 -11.5389,17.8963 -21.5205,21.5166 -0.4207,0.1526 -0.4207,0.7459 2e-4,0.8982 9.9814,3.6162 17.8999,11.5305 21.5203,21.5078 0.1525,0.4204 0.7453,0.4204 0.8982,0 3.6201,-9.9773 11.5385,-17.8916 21.5202,-21.5078 0.4207,-0.1523 0.4209,-0.7456 0,-0.8982 -9.9814,-3.6203 -17.9001,-11.539 -21.5202,-21.5166 -0.1526,-0.4206 -0.7457,-0.4206 -0.8982,0 z m 0.4489,29.1922 -7.2307,-7.231 7.2307,-7.2307 7.231,7.2307 z"
   id="path5064"
   style="fill:#d7e6ed;fill-opacity:1"
   inkscape:connector-curvature="0" />
		<path
   d="m 3212.0518,2430.5476 c -3.6204,9.9775 -11.5389,17.8962 -21.5205,21.5166 -0.4207,0.1526 -0.4207,0.7459 2e-4,0.8982 9.9814,3.6162 17.8999,11.5305 21.5203,21.5078 0.1525,0.4204 0.7453,0.4204 0.8982,0 3.6201,-9.9773 11.5385,-17.8916 21.5202,-21.5078 0.4207,-0.1523 0.4209,-0.7456 0,-0.8982 -9.9814,-3.6204 -17.9001,-11.5391 -21.5202,-21.5166 -0.1526,-0.4206 -0.7457,-0.4206 -0.8982,0 z m 0.4489,29.1921 -7.2307,-7.2309 7.2307,-7.231 7.231,7.231 z"
   id="path5066"
   style="fill:#d7e6ed;fill-opacity:1"
   inkscape:connector-curvature="0" />
	</g>
	<path
   d="m 3296.3108,2448.385 -54.78,-74.1799 v -45.75 c 0,-1.4602 0.9499,-2.8001 2.3701,-3.1502 4.3298,-1.05 7.6799,-4.9299 7.6799,-9.53 v -20.6099 c 0,-5.4201 -4.4001,-9.82 -9.8201,-9.82 h -58.52 c -5.4201,0 -9.82,4.3999 -9.82,9.82 v 20.6099 c 0,4.6001 3.3498,8.48 7.6799,9.53 1.4199,0.3501 2.3701,1.69 2.3701,3.1502 v 45.75 l -54.78,74.1799 c -6.0501,8.19 -6.8601,18.97 -2.0501,28 4.6399,8.71 13.95,13.9199 23.8201,13.9199 h 124.0801 c 9.8701,0 19.1799,-5.2099 23.82,-13.9199 4.8101,-9.03 4,-19.81 -2.05,-28 z m -9.3801,21.8101 c -2.3299,4.4599 -7.0999,7.1098 -12.1199,7.1098 h -124.6201 c -5.02,0 -9.7901,-2.6499 -12.1201,-7.1098 -2.42,-4.6201 -2.0101,-9.9002 1.08,-14.0901 l 57.3201,-77.6199 v -56.0701 c 0,-4.8801 -3.75,-8.9299 -8.4502,-9.6899 -0.9399,-0.1501 -1.5998,-1.01 -1.5998,-1.9602 v -8.8699 c 0,-1.9599 1.59,-3.55 3.55,-3.55 h 45.0601 c 1.9599,0 3.55,1.5901 3.55,3.55 v 8.8699 c 0,0.9502 -0.6599,1.8101 -1.6001,1.9602 -4.6999,0.76 -8.4499,4.8098 -8.4499,9.6899 v 56.0701 l 57.32,77.6199 c 3.0899,4.1899 3.5,9.47 1.0799,14.0901 z"
   id="path5070"
   style="fill:#d7e6ed;fill-opacity:1"
   inkscape:connector-curvature="0" />
</g>
































</svg>