<?xml version="1.0" encoding="UTF-8" standalone="no"?>
<!-- Generator: Adobe Illustrator 22.1.0, SVG Export Plug-In . SVG Version: 6.00 Build 0)  -->

<svg
   xmlns:dc="http://purl.org/dc/elements/1.1/"
   xmlns:cc="http://creativecommons.org/ns#"
   xmlns:rdf="http://www.w3.org/1999/02/22-rdf-syntax-ns#"
   xmlns:svg="http://www.w3.org/2000/svg"
   xmlns="http://www.w3.org/2000/svg"
   xmlns:sodipodi="http://sodipodi.sourceforge.net/DTD/sodipodi-0.dtd"
   xmlns:inkscape="http://www.inkscape.org/namespaces/inkscape"
   version="1.1"
   id="Layer_2_1_"
   x="0px"
   y="0px"
   viewBox="0 0 175 179.99999"
   enable-background="new 0 0 3947.9399414 3860.8613281"
   xml:space="preserve"
   sodipodi:docname="quantum_converter.svg"
   inkscape:version="0.92.4 (5da689c313, 2019-01-14)"
   width="175"
   height="180"><metadata
   id="metadata5465"><rdf:RDF><cc:Work
       rdf:about=""><dc:format>image/svg+xml</dc:format><dc:type
         rdf:resource="http://purl.org/dc/dcmitype/StillImage" /><dc:title></dc:title></cc:Work></rdf:RDF></metadata><defs
   id="defs5463" /><sodipodi:namedview
   pagecolor="#ffffff"
   bordercolor="#666666"
   borderopacity="1"
   objecttolerance="10"
   gridtolerance="10"
   guidetolerance="10"
   inkscape:pageopacity="0"
   inkscape:pageshadow="2"
   inkscape:window-width="1920"
   inkscape:window-height="1022"
   id="namedview5461"
   showgrid="false"
   inkscape:zoom="0.21212883"
   inkscape:cx="-715.4393"
   inkscape:cy="-386.76384"
   inkscape:window-x="1079"
   inkscape:window-y="709"
   inkscape:window-maximized="1"
   inkscape:current-layer="Layer_2_1_" />












































<g
   id="g4104"
   style="fill:#e2bd4d;fill-opacity:1"
   transform="translate(-1577.0061,-1162.6617)">
	<g
   id="g4100"
   style="fill:#e2bd4d;fill-opacity:1">
		<path
   d="m 1639.7416,1268.0323 c -3.5214,9.705 -11.2234,17.407 -20.9322,20.9286 -0.4091,0.1485 -0.409,0.7254 2e-4,0.8737 9.7087,3.5172 17.4107,11.2151 20.932,20.9196 0.1484,0.409 0.7251,0.409 0.8735,0 3.5213,-9.7045 11.2233,-17.4024 20.9319,-20.9196 0.4093,-0.1483 0.4094,-0.7252 2e-4,-0.8737 -9.7088,-3.5216 -17.4108,-11.2236 -20.9321,-20.9286 -0.1484,-0.409 -0.7251,-0.409 -0.8735,0 z m 0.4367,28.3942 -7.0332,-7.0332 7.0332,-7.0332 7.0332,7.0332 z"
   id="path4092"
   style="fill:#e2bd4d;fill-opacity:1"
   inkscape:connector-curvature="0" />
		<path
   d="m 1688.3997,1268.0254 c -3.5202,9.7081 -11.2236,17.4131 -20.9346,20.9354 -0.4148,0.1504 -0.4147,0.7235 1e-4,0.8738 9.7086,3.5172 17.4107,11.2151 20.9319,20.9194 0.1504,0.4146 0.7231,0.4146 0.8735,0 3.5213,-9.7043 11.2233,-17.4022 20.9319,-20.9194 0.4148,-0.1503 0.4149,-0.7234 10e-5,-0.8738 -9.711,-3.5223 -17.4144,-11.2273 -20.9345,-20.9354 -0.1494,-0.4122 -0.719,-0.4122 -0.8684,0 z m 0.4342,28.4011 -7.0332,-7.0332 7.0332,-7.0332 7.0332,7.0332 z"
   id="path4094"
   style="fill:#e2bd4d;fill-opacity:1"
   inkscape:connector-curvature="0" />
		<path
   d="m 1664.0693,1243.7117 c -3.5212,9.7048 -11.2234,17.407 -20.9321,20.9284 -0.4092,0.1485 -0.4091,0.7254 3e-4,0.8737 9.7086,3.5172 17.4106,11.2152 20.9318,20.9195 0.1485,0.4092 0.7251,0.4092 0.8736,0 3.5212,-9.7043 11.2232,-17.4023 20.9319,-20.9195 0.4093,-0.1483 0.4094,-0.7252 2e-4,-0.8737 -9.7087,-3.5214 -17.4109,-11.2236 -20.9321,-20.9284 -0.1485,-0.4091 -0.7251,-0.4091 -0.8736,0 z m 0.4368,28.394 -7.0332,-7.0332 7.0332,-7.0332 7.0332,7.0332 z"
   id="path4096"
   style="fill:#e2bd4d;fill-opacity:1"
   inkscape:connector-curvature="0" />
		<path
   d="m 1664.0693,1292.3531 c -3.5212,9.7049 -11.2234,17.407 -20.9321,20.9285 -0.4092,0.1485 -0.4091,0.7254 3e-4,0.8737 9.7086,3.5172 17.4106,11.2152 20.9318,20.9195 0.1485,0.4092 0.7251,0.4092 0.8736,0 3.5212,-9.7043 11.2232,-17.4023 20.9319,-20.9195 0.4093,-0.1483 0.4094,-0.7252 2e-4,-0.8737 -9.7087,-3.5215 -17.4109,-11.2236 -20.9321,-20.9285 -0.1485,-0.409 -0.7251,-0.409 -0.8736,0 z m 0.4368,28.3941 -7.0332,-7.0332 7.0332,-7.0332 7.0332,7.0332 z"
   id="path4098"
   style="fill:#e2bd4d;fill-opacity:1"
   inkscape:connector-curvature="0" />
	</g>
	<path
   d="m 1745.7561,1222.1105 v -59.4488 h -37.5001 v 59.4488 h -6.2499 v 19.6513 h -12.5 v -19.6513 h -6.25 v -59.4488 h -37.5001 v 59.4488 h -6.2499 v 19.6513 h -12.5 v -19.6513 h -6.25 v -59.4488 h -37.5001 v 59.4488 h -6.2499 v 120.5512 h 175 v -120.5512 z m -81.25,115.7011 c -26.7407,0 -48.4183,-21.6777 -48.4183,-48.4183 0,-26.7407 21.6776,-48.4183 48.4183,-48.4183 26.7407,0 48.4183,21.6776 48.4183,48.4183 0,26.7406 -21.6776,48.4183 -48.4183,48.4183 z"
   id="path4102"
   style="fill:#e2bd4d;fill-opacity:1"
   inkscape:connector-curvature="0" />
</g>






































































































































</svg>