<?xml version="1.0" encoding="UTF-8" standalone="no"?>
<!-- Generator: Adobe Illustrator 22.1.0, SVG Export Plug-In . SVG Version: 6.00 Build 0)  -->

<svg
   xmlns:dc="http://purl.org/dc/elements/1.1/"
   xmlns:cc="http://creativecommons.org/ns#"
   xmlns:rdf="http://www.w3.org/1999/02/22-rdf-syntax-ns#"
   xmlns:svg="http://www.w3.org/2000/svg"
   xmlns="http://www.w3.org/2000/svg"
   xmlns:sodipodi="http://sodipodi.sourceforge.net/DTD/sodipodi-0.dtd"
   xmlns:inkscape="http://www.inkscape.org/namespaces/inkscape"
   version="1.1"
   id="Layer_2_1_"
   x="0px"
   y="0px"
   viewBox="0 0 192.67972 195.99999"
   enable-background="new 0 0 3947.9399414 3860.8613281"
   xml:space="preserve"
   sodipodi:docname="recreation_commons.svg"
   inkscape:version="0.92.4 (5da689c313, 2019-01-14)"
   width="192.67972"
   height="196"><metadata
   id="metadata5465"><rdf:RDF><cc:Work
       rdf:about=""><dc:format>image/svg+xml</dc:format><dc:type
         rdf:resource="http://purl.org/dc/dcmitype/StillImage" /><dc:title></dc:title></cc:Work></rdf:RDF></metadata><defs
   id="defs5463" /><sodipodi:namedview
   pagecolor="#ffffff"
   bordercolor="#666666"
   borderopacity="1"
   objecttolerance="10"
   gridtolerance="10"
   guidetolerance="10"
   inkscape:pageopacity="0"
   inkscape:pageshadow="2"
   inkscape:window-width="1920"
   inkscape:window-height="1022"
   id="namedview5461"
   showgrid="false"
   inkscape:zoom="0.21212883"
   inkscape:cx="-87.401588"
   inkscape:cy="-378.76384"
   inkscape:window-x="1079"
   inkscape:window-y="709"
   inkscape:window-maximized="1"
   inkscape:current-layer="Layer_2_1_" />


























<g
   id="g3904"
   style="fill:#e2bd4d;fill-opacity:1"
   transform="translate(-948.96838,-1154.6617)">
	<path
   d="m 1045.3082,1154.6617 c -53.12204,0 -96.33982,43.2227 -96.33982,96.3501 v 99.6499 h 192.67972 v -99.6499 c 0,-53.1274 -43.2178,-96.3501 -96.3399,-96.3501 z m 80.3399,180 H 964.96838 v -83.6499 c 0,-44.3051 36.04002,-80.3501 80.33982,-80.3501 44.2998,0 80.3399,36.045 80.3399,80.3501 z"
   id="path3900"
   style="fill:#e2bd4d;fill-opacity:1"
   inkscape:connector-curvature="0" />
	<path
   d="m 1095.3282,1237.8717 -6.4399,-1.3999 v -7.92 c 0,-18.2601 -14.8,-33.0501 -33.05,-33.0501 h -21.0601 c -18.25,0 -33.0501,14.79 -33.0501,33.0501 v 7.92 l -6.43989,1.3999 c -2.08997,0.45 -3.57007,2.3001 -3.57007,4.4301 v 23.4799 c 0,7.47 6.05005,13.5299 13.53006,13.5299 0.43,0 0.82,0.1702 1.1001,0.4501 0.28,0.28 0.4499,0.6701 0.4499,1.1 v 13.5 c 0,4.74 1.88,9.28 5.23,12.63 l 11.6101,11.61 c 3.3499,3.3401 7.8899,5.23 12.6299,5.23 h 18.0801 c 4.74,0 9.28,-1.8899 12.6298,-5.23 l 11.6102,-11.61 c 3.3499,-3.35 5.2299,-7.89 5.2299,-12.63 v -13.5 c 0,-0.4299 0.17,-0.82 0.45,-1.1 0.28,-0.2799 0.67,-0.4501 1.1001,-0.4501 7.48,0 13.53,-6.0599 13.53,-13.5299 v -23.4799 c 0,-2.13 -1.4801,-3.9801 -3.5701,-4.4301 z m -84.14,18.4301 c 4.89,-10.13 14.74,-13.83 26.0299,0 z m 34.12,49.2799 c -9.39,0 -17.5999,-6.23 -22.02,-15.5 h 44.04 c -4.42,9.27 -12.63,15.5 -22.02,15.5 z m 8.0901,-49.2799 c 11.2899,-13.83 21.1399,-10.13 26.0299,0 z"
   id="path3902"
   style="fill:#e2bd4d;fill-opacity:1"
   inkscape:connector-curvature="0" />
</g>
























































































































































</svg>