<?xml version="1.0" encoding="UTF-8" standalone="no"?>
<!-- Generator: Adobe Illustrator 22.1.0, SVG Export Plug-In . SVG Version: 6.00 Build 0)  -->

<svg
   xmlns:dc="http://purl.org/dc/elements/1.1/"
   xmlns:cc="http://creativecommons.org/ns#"
   xmlns:rdf="http://www.w3.org/1999/02/22-rdf-syntax-ns#"
   xmlns:svg="http://www.w3.org/2000/svg"
   xmlns="http://www.w3.org/2000/svg"
   xmlns:sodipodi="http://sodipodi.sourceforge.net/DTD/sodipodi-0.dtd"
   xmlns:inkscape="http://www.inkscape.org/namespaces/inkscape"
   version="1.1"
   id="Layer_2_1_"
   x="0px"
   y="0px"
   viewBox="0 0 161.53575 153.49383"
   enable-background="new 0 0 3947.9399414 3860.8613281"
   xml:space="preserve"
   sodipodi:docname="recycling_tanks.svg"
   inkscape:version="0.92.4 (5da689c313, 2019-01-14)"
   width="161.53575"
   height="153.49384"><metadata
   id="metadata5465"><rdf:RDF><cc:Work
       rdf:about=""><dc:format>image/svg+xml</dc:format><dc:type
         rdf:resource="http://purl.org/dc/dcmitype/StillImage" /><dc:title></dc:title></cc:Work></rdf:RDF></metadata><defs
   id="defs5463" /><sodipodi:namedview
   pagecolor="#ffffff"
   bordercolor="#666666"
   borderopacity="1"
   objecttolerance="10"
   gridtolerance="10"
   guidetolerance="10"
   inkscape:pageopacity="0"
   inkscape:pageshadow="2"
   inkscape:window-width="1920"
   inkscape:window-height="1022"
   id="namedview5461"
   showgrid="false"
   inkscape:zoom="0.21212883"
   inkscape:cx="825.82317"
   inkscape:cy="-683.80774"
   inkscape:window-x="1079"
   inkscape:window-y="709"
   inkscape:window-maximized="1"
   inkscape:current-layer="Layer_2_1_" />


















<g
   id="g3848"
   style="fill:#e2bd4d;fill-opacity:1"
   transform="translate(-35.743627,-892.12396)">
	<path
   d="m 80.271324,968.86871 c 0,20.02002 16.230042,36.23999 36.240056,36.23999 20.00995,0 36.23999,-16.21997 36.23999,-36.23999 0,-20.01001 -16.23004,-36.23999 -36.23999,-36.23999 -20.010014,0 -36.240056,16.22998 -36.240056,36.23999 z m 61.480046,0 c 0,13.92005 -11.32,25.23999 -25.23999,25.23999 -13.92005,0 -25.240056,-11.31994 -25.240056,-25.23999 0,-13.90997 11.320006,-25.23999 25.240056,-25.23999 13.91999,0 25.23999,11.33002 25.23999,25.23999 z"
   id="path3842"
   style="fill:#e2bd4d;fill-opacity:1"
   inkscape:connector-curvature="0" />
	<path
   d="m 185.82913,944.19788 c 3,26.41003 -13.17999,54.44989 -32.51001,67.68992 l 6.32001,8.02 c -19.94,13.3101 -38.40003,17.5501 -56.25001,12.97 -16.100035,-4.1399 -32.20001,-15.72 -49.210016,-35.41998 l -8.330017,7.17998 c 18.530025,21.4602 36.460018,34.1802 54.809993,38.8902 5.42004,1.3999 10.92004,2.0898 16.49005,2.0898 15.94996,0 32.45997,-5.7 49.31996,-17.0498 l 5.76001,7.2998 c 27.67004,-21.21 32.73999,-66.44989 13.60003,-91.66992 z"
   id="path3844"
   style="fill:#e2bd4d;fill-opacity:1"
   inkscape:connector-curvature="0" />
	<path
   d="m 79.70388,925.85394 -6.320007,-8.02002 c 19.940002,-13.31006 38.400027,-17.55005 56.250007,-12.96997 16.10004,4.1399 32.20001,15.71997 49.21002,35.41992 l 8.33002,-7.17993 c -18.53003,-21.46008 -36.46002,-34.18005 -54.81,-38.89013 -5.42005,-1.39991 -10.92005,-2.08985 -16.49006,-2.08985 -15.949948,0 -32.459958,5.69995 -49.319943,17.04993 l -5.760006,-7.29993 c -27.670044,21.20996 -32.73999,66.44989 -13.600037,91.66992 -3,-26.41003 13.179993,-54.44995 32.510006,-67.68994 z"
   id="path3846"
   style="fill:#e2bd4d;fill-opacity:1"
   inkscape:connector-curvature="0" />
</g>
































































































































































</svg>