<?xml version="1.0" encoding="UTF-8" standalone="no"?>
<!-- Generator: Adobe Illustrator 22.1.0, SVG Export Plug-In . SVG Version: 6.00 Build 0)  -->

<svg
   xmlns:dc="http://purl.org/dc/elements/1.1/"
   xmlns:cc="http://creativecommons.org/ns#"
   xmlns:rdf="http://www.w3.org/1999/02/22-rdf-syntax-ns#"
   xmlns:svg="http://www.w3.org/2000/svg"
   xmlns="http://www.w3.org/2000/svg"
   xmlns:sodipodi="http://sodipodi.sourceforge.net/DTD/sodipodi-0.dtd"
   xmlns:inkscape="http://www.inkscape.org/namespaces/inkscape"
   version="1.1"
   id="Layer_2_1_"
   x="0px"
   y="0px"
   viewBox="0 0 177.95624 204.96"
   enable-background="new 0 0 3947.9399414 3860.8613281"
   xml:space="preserve"
   sodipodi:docname="research_hospital.svg"
   inkscape:version="0.92.4 (5da689c313, 2019-01-14)"
   width="177.95624"
   height="204.96001"><metadata
   id="metadata5465"><rdf:RDF><cc:Work
       rdf:about=""><dc:format>image/svg+xml</dc:format><dc:type
         rdf:resource="http://purl.org/dc/dcmitype/StillImage" /><dc:title></dc:title></cc:Work></rdf:RDF></metadata><defs
   id="defs5463" /><sodipodi:namedview
   pagecolor="#ffffff"
   bordercolor="#666666"
   borderopacity="1"
   objecttolerance="10"
   gridtolerance="10"
   guidetolerance="10"
   inkscape:pageopacity="0"
   inkscape:pageshadow="2"
   inkscape:window-width="1920"
   inkscape:window-height="1022"
   id="namedview5461"
   showgrid="false"
   inkscape:zoom="0.21212883"
   inkscape:cx="-1023.5601"
   inkscape:cy="477.08867"
   inkscape:window-x="1079"
   inkscape:window-y="709"
   inkscape:window-maximized="1"
   inkscape:current-layer="Layer_2_1_" />






































































<g
   id="g4314"
   style="fill:#d7e6ed;fill-opacity:1"
   transform="translate(-1885.1269,-2001.5542)">
	<path
   d="m 1974.105,2109.0574 c -22.5518,0 -40.8335,18.2817 -40.8335,40.8335 0,22.5517 18.2817,40.8332 40.8335,40.8332 22.5517,0 40.8335,-18.2815 40.8335,-40.8332 0,-22.5518 -18.2818,-40.8335 -40.8335,-40.8335 z m 35.7334,53.1667 h -23.6665 v 23.6668 h -24.8335 v -23.6668 h -23.6665 v -24.8332 h 23.6665 v -23.6668 h 24.8335 v 23.6668 h 23.6665 z"
   id="path4310"
   style="fill:#d7e6ed;fill-opacity:1"
   inkscape:connector-curvature="0" />
	<path
   d="m 2057.915,2164.5942 -54.78,-74.1799 v -45.7501 c 0,-1.4601 0.9501,-2.7999 2.3701,-3.15 4.33,-1.0501 7.68,-4.93 7.68,-9.5301 v -20.6098 c 0,-5.4202 -4.4001,-9.8201 -9.8201,-9.8201 h -58.52 c -5.4201,0 -9.8201,4.3999 -9.8201,9.8201 v 20.6098 c 0,4.6001 3.35,8.48 7.6799,9.5301 1.4201,0.3501 2.3702,1.6899 2.3702,3.15 v 45.7501 l -54.7801,74.1799 c -6.05,8.19 -6.8601,18.97 -2.05,28 4.64,8.71 13.9499,13.92 23.82,13.92 h 124.0801 c 9.8701,0 19.1802,-5.21 23.8201,-13.92 4.81,-9.03 4,-19.81 -2.0501,-28 z m -9.3798,21.8101 c -2.3301,4.46 -7.1001,7.1099 -12.1202,7.1099 h -124.6201 c -5.02,0 -9.79,-2.6499 -12.12,-7.1099 -2.42,-4.6201 -2.01,-9.9001 1.08,-14.0901 l 57.3201,-77.6199 v -56.07 c 0,-4.8802 -3.75,-8.9301 -8.4501,-9.6901 -0.9401,-0.15 -1.6,-1.01 -1.6,-1.9601 v -8.8699 c 0,-1.96 1.5901,-3.55 3.5501,-3.55 h 45.06 c 1.96,0 3.5501,1.59 3.5501,3.55 v 8.8699 c 0,0.9501 -0.66,1.8101 -1.6,1.9601 -4.7001,0.76 -8.4501,4.8099 -8.4501,9.6901 v 56.07 l 57.3201,77.6199 c 3.0901,4.19 3.5,9.47 1.0801,14.0901 z"
   id="path4312"
   style="fill:#d7e6ed;fill-opacity:1"
   inkscape:connector-curvature="0" />
</g>












































































































</svg>