<?xml version="1.0" encoding="UTF-8" standalone="no"?>
<!-- Generator: Adobe Illustrator 22.1.0, SVG Export Plug-In . SVG Version: 6.00 Build 0)  -->

<svg
   xmlns:dc="http://purl.org/dc/elements/1.1/"
   xmlns:cc="http://creativecommons.org/ns#"
   xmlns:rdf="http://www.w3.org/1999/02/22-rdf-syntax-ns#"
   xmlns:svg="http://www.w3.org/2000/svg"
   xmlns="http://www.w3.org/2000/svg"
   xmlns:sodipodi="http://sodipodi.sourceforge.net/DTD/sodipodi-0.dtd"
   xmlns:inkscape="http://www.inkscape.org/namespaces/inkscape"
   version="1.1"
   id="Layer_2_1_"
   x="0px"
   y="0px"
   viewBox="0 0 175 179.99999"
   enable-background="new 0 0 3947.9399414 3860.8613281"
   xml:space="preserve"
   sodipodi:docname="robotic_assembly_plant.svg"
   inkscape:version="0.92.4 (5da689c313, 2019-01-14)"
   width="175"
   height="180"><metadata
   id="metadata5465"><rdf:RDF><cc:Work
       rdf:about=""><dc:format>image/svg+xml</dc:format><dc:type
         rdf:resource="http://purl.org/dc/dcmitype/StillImage" /><dc:title></dc:title></cc:Work></rdf:RDF></metadata><defs
   id="defs5463" /><sodipodi:namedview
   pagecolor="#ffffff"
   bordercolor="#666666"
   borderopacity="1"
   objecttolerance="10"
   gridtolerance="10"
   guidetolerance="10"
   inkscape:pageopacity="0"
   inkscape:pageshadow="2"
   inkscape:window-width="1920"
   inkscape:window-height="1022"
   id="namedview5461"
   showgrid="false"
   inkscape:zoom="0.21212883"
   inkscape:cx="-715.43926"
   inkscape:cy="1883.5628"
   inkscape:window-x="1079"
   inkscape:window-y="709"
   inkscape:window-maximized="1"
   inkscape:current-layer="Layer_2_1_" />








































































































































<g
   id="g4954"
   style="fill:#e2bd4d;fill-opacity:1"
   transform="translate(-1577.0061,-3432.9883)">
	<path
   d="m 1694.0491,3543.48 -6.4092,2.6572 c -0.3008,-0.4819 -0.6162,-0.9497 -0.9424,-1.4065 l 4.9067,-4.9067 -6.3447,-6.3487 -4.9106,4.9102 c -0.4571,-0.3293 -0.9243,-0.6448 -1.4029,-0.9424 l 2.6539,-6.4089 -8.2901,-3.4363 -2.6538,6.4089 c -0.5488,-0.124 -1.1016,-0.2375 -1.6616,-0.3296 v -6.9367 h -8.9736 v 6.9367 c -0.5596,0.092 -1.1124,0.2056 -1.6617,0.3296 l -2.6533,-6.4089 -8.29,3.4363 2.6533,6.4089 c -0.478,0.2976 -0.9458,0.6131 -1.4028,0.9424 l -4.9102,-4.9102 -6.3452,6.3487 4.9067,4.9067 c -0.3261,0.4568 -0.6411,0.9246 -0.9424,1.4065 l -6.4086,-2.6572 -3.4332,8.2937 6.4087,2.6535 c -0.1274,0.5455 -0.2373,1.0982 -0.3296,1.658 h -6.9399 v 8.9773 h 6.9399 c 0.092,0.5598 0.2022,1.1125 0.3296,1.658 l -6.4087,2.6535 3.4332,8.2937 6.4086,-2.6535 c 0.3013,0.4782 0.6163,0.9458 0.9424,1.4028 l -4.9067,4.9067 6.3452,6.3487 4.9102,-4.9102 c 0.457,0.3294 0.9248,0.6448 1.4028,0.9424 l -2.6533,6.4087 8.29,3.4365 2.6533,-6.4087 c 0.5493,0.1238 1.1021,0.2373 1.6617,0.3294 v 6.9367 h 8.9736 v -6.9367 c 0.56,-0.092 1.1128,-0.2056 1.6616,-0.3294 l 2.6538,6.4087 8.2901,-3.4365 -2.6539,-6.4087 c 0.4786,-0.2976 0.9458,-0.613 1.4029,-0.9424 l 4.9106,4.9102 6.3447,-6.3487 -4.9067,-4.9067 c 0.3262,-0.457 0.6416,-0.9246 0.9424,-1.4028 l 6.4092,2.6535 3.4326,-8.2937 -6.4087,-2.6535 c 0.1274,-0.5455 0.2373,-1.0982 0.3296,-1.658 h 6.9365 v -8.9773 h -6.9365 c -0.092,-0.5598 -0.2022,-1.1125 -0.3296,-1.658 l 6.4087,-2.6535 z m -29.543,38.1272 c -11.6172,0 -21.0337,-9.4168 -21.0337,-21.0335 0,-11.6167 9.4165,-21.0332 21.0337,-21.0332 11.6201,0 21.0366,9.4165 21.0366,21.0332 0,11.6167 -9.4165,21.0335 -21.0366,21.0335 z"
   id="path4946"
   style="fill:#e2bd4d;fill-opacity:1"
   inkscape:connector-curvature="0" />
	<path
   d="m 1745.7561,3492.4373 v -59.449 h -37.5005 v 59.449 h -6.2495 v 19.6511 h -12.5 v -19.6511 h -6.25 v -59.449 h -37.5005 v 59.449 h -6.2495 v 19.6511 h -12.5 v -19.6511 h -6.25 v -59.449 h -37.5005 v 59.449 h -6.2495 v 120.551 h 175 v -120.551 z m -81.25,111.6115 c -24.0107,0 -43.4751,-19.4643 -43.4751,-43.4751 0,-24.0105 19.4644,-43.4748 43.4751,-43.4748 24.0103,0 43.4746,19.4643 43.4746,43.4748 0,24.0108 -19.4643,43.4751 -43.4746,43.4751 z"
   id="path4948"
   style="fill:#e2bd4d;fill-opacity:1"
   inkscape:connector-curvature="0" />
	<path
   d="m 1664.5061,3544.7036 c -8.7651,0 -15.8706,7.1052 -15.8706,15.8701 0,8.7649 7.1055,15.8704 15.8706,15.8704 8.7647,0 15.8701,-7.1055 15.8701,-15.8704 0,-8.7649 -7.1054,-15.8701 -15.8701,-15.8701 z m 0,26.7405 c -5.9941,0 -10.8706,-4.8765 -10.8706,-10.8704 0,-5.9939 4.8765,-10.8701 10.8706,-10.8701 5.9937,0 10.8701,4.8762 10.8701,10.8701 0,5.9939 -4.8764,10.8704 -10.8701,10.8704 z"
   id="path4950"
   style="fill:#e2bd4d;fill-opacity:1"
   inkscape:connector-curvature="0" />
	<path
   d="m 1664.5061,3552.4531 c -4.4853,0 -8.1211,3.6358 -8.1211,8.1206 0,4.4851 3.6358,8.1209 8.1211,8.1209 4.4849,0 8.1206,-3.6358 8.1206,-8.1209 0,-4.4848 -3.6357,-8.1206 -8.1206,-8.1206 z"
   id="path4952"
   style="fill:#e2bd4d;fill-opacity:1"
   inkscape:connector-curvature="0" />
</g>










































</svg>