<?xml version="1.0" encoding="UTF-8" standalone="no"?>
<!-- Generator: Adobe Illustrator 22.1.0, SVG Export Plug-In . SVG Version: 6.00 Build 0)  -->

<svg
   xmlns:dc="http://purl.org/dc/elements/1.1/"
   xmlns:cc="http://creativecommons.org/ns#"
   xmlns:rdf="http://www.w3.org/1999/02/22-rdf-syntax-ns#"
   xmlns:svg="http://www.w3.org/2000/svg"
   xmlns="http://www.w3.org/2000/svg"
   xmlns:sodipodi="http://sodipodi.sourceforge.net/DTD/sodipodi-0.dtd"
   xmlns:inkscape="http://www.inkscape.org/namespaces/inkscape"
   version="1.1"
   id="Layer_2_1_"
   x="0px"
   y="0px"
   viewBox="0 0 177.95624 204.95989"
   enable-background="new 0 0 3947.9399414 3860.8613281"
   xml:space="preserve"
   sodipodi:docname="skunkworks.svg"
   inkscape:version="0.92.4 (5da689c313, 2019-01-14)"
   width="177.95624"
   height="204.9599"><metadata
   id="metadata5465"><rdf:RDF><cc:Work
       rdf:about=""><dc:format>image/svg+xml</dc:format><dc:type
         rdf:resource="http://purl.org/dc/dcmitype/StillImage" /><dc:title></dc:title></cc:Work></rdf:RDF></metadata><defs
   id="defs5463" /><sodipodi:namedview
   pagecolor="#ffffff"
   bordercolor="#666666"
   borderopacity="1"
   objecttolerance="10"
   gridtolerance="10"
   guidetolerance="10"
   inkscape:pageopacity="0"
   inkscape:pageshadow="2"
   inkscape:window-width="1920"
   inkscape:window-height="1022"
   id="namedview5461"
   showgrid="false"
   inkscape:zoom="0.21212883"
   inkscape:cx="-1642.7578"
   inkscape:cy="-374.28384"
   inkscape:window-x="1079"
   inkscape:window-y="709"
   inkscape:window-maximized="1"
   inkscape:current-layer="Layer_2_1_" />













































































<g
   id="g4388"
   style="fill:#e1561c;fill-opacity:1"
   transform="translate(-2504.3246,-1150.1818)">
	<path
   d="m 2677.1128,1313.2218 -54.78,-74.1799 v -45.75 c 0,-1.4602 0.9499,-2.8001 2.3701,-3.1502 4.3298,-1.05 7.6799,-4.9299 7.6799,-9.53 v -20.6099 c 0,-5.4201 -4.3999,-9.82 -9.8201,-9.82 h -58.52 c -5.4201,0 -9.82,4.3999 -9.82,9.82 v 20.6099 c 0,4.6001 3.3501,8.48 7.6799,9.53 1.4202,0.3501 2.3701,1.69 2.3701,3.1502 v 45.75 l -54.78,74.1799 c -6.0501,8.1899 -6.8601,18.97 -2.0501,28 4.6399,8.71 13.95,13.9199 23.8201,13.9199 h 124.0801 c 9.8701,0 19.1801,-5.2099 23.82,-13.9199 4.8101,-9.03 4,-19.8101 -2.05,-28 z m -9.3799,21.8101 c -2.3301,4.4599 -7.1001,7.1098 -12.1201,7.1098 h -124.6201 c -5.02,0 -9.7901,-2.6499 -12.1201,-7.1098 -2.42,-4.6202 -2.0098,-9.9002 1.08,-14.0901 l 57.3201,-77.6199 v -56.0701 c 0,-4.8801 -3.75,-8.9299 -8.4499,-9.6899 -0.9402,-0.1502 -1.6001,-1.01 -1.6001,-1.9602 v -8.8699 c 0,-1.9599 1.59,-3.55 3.55,-3.55 h 45.0601 c 1.9599,0 3.55,1.5901 3.55,3.55 v 8.8699 c 0,0.9502 -0.6599,1.81 -1.6001,1.9602 -4.6999,0.76 -8.4499,4.8098 -8.4499,9.6899 v 56.0701 l 57.32,77.6199 c 3.0899,4.1899 3.5,9.4699 1.0801,14.0901 z"
   id="path4372"
   style="fill:#e1561c;fill-opacity:1"
   inkscape:connector-curvature="0" />
	<g
   id="g4386"
   style="fill:#e1561c;fill-opacity:1">
		<polygon
   points="2581.1729,1316.9916 2590.2429,1325.9315 2597.0928,1325.9315 2605.7629,1317.2716 2605.7629,1316.6067 2581.1729,1316.6067 "
   id="polygon4374"
   style="fill:#e1561c;fill-opacity:1" />
		<path
   d="m 2581.1729,1309.6067 h 24.59 v -24.5901 h -24.59 z m 12.1301,-22.7483 c 5.7732,0 10.4531,4.6801 10.4531,10.4532 0,5.7734 -4.6799,10.4534 -10.4531,10.4534 -5.7735,0 -10.4534,-4.68 -10.4534,-10.4534 0,-5.7731 4.6799,-10.4532 10.4534,-10.4532 z"
   id="path4376"
   style="fill:#e1561c;fill-opacity:1"
   inkscape:connector-curvature="0" />
		<polygon
   points="2589.843,1268.6918 2581.1729,1277.3517 2581.1729,1278.0166 2605.7629,1278.0166 2605.7629,1277.6317 2596.6929,1268.6918 "
   id="polygon4378"
   style="fill:#e1561c;fill-opacity:1" />
		<path
   d="m 2593.303,1255.0411 c -23.3455,0 -42.2708,18.9252 -42.2708,42.2705 0,23.3455 18.9253,42.2708 42.2708,42.2708 23.3452,0 42.2705,-18.9253 42.2705,-42.2708 0,-23.3453 -18.9253,-42.2705 -42.2705,-42.2705 z m 22.7749,61.5656 h -3.315 v 6.3849 l -9.9399,9.9399 h -15.4402 l -13.2099,-13.01 v -3.3148 h -6.3851 l -9.9399,-9.94 v -15.4401 l 13.0103,-13.21 h 3.3147 v -6.3849 l 9.9399,-9.9399 h 15.4402 l 13.2099,13.01 v 3.3148 h 6.3848 l 9.9399,9.9399 v 15.4402 z"
   id="path4380"
   style="fill:#e1561c;fill-opacity:1"
   inkscape:connector-curvature="0" />
		<polygon
   points="2612.7629,1285.0166 2612.7629,1309.6067 2613.1477,1309.6067 2622.0876,1300.5366 2622.0876,1293.6868 2613.428,1285.0166 "
   id="polygon4382"
   style="fill:#e1561c;fill-opacity:1" />
		<polygon
   points="2564.8479,1294.0867 2564.8479,1300.9365 2573.5081,1309.6067 2574.1729,1309.6067 2574.1729,1285.0166 2573.7878,1285.0166 "
   id="polygon4384"
   style="fill:#e1561c;fill-opacity:1" />
	</g>
</g>





































































































</svg>