<?xml version="1.0" encoding="UTF-8" standalone="no"?>
<!-- Generator: Adobe Illustrator 22.1.0, SVG Export Plug-In . SVG Version: 6.00 Build 0)  -->

<svg
   xmlns:dc="http://purl.org/dc/elements/1.1/"
   xmlns:cc="http://creativecommons.org/ns#"
   xmlns:rdf="http://www.w3.org/1999/02/22-rdf-syntax-ns#"
   xmlns:svg="http://www.w3.org/2000/svg"
   xmlns="http://www.w3.org/2000/svg"
   xmlns:sodipodi="http://sodipodi.sourceforge.net/DTD/sodipodi-0.dtd"
   xmlns:inkscape="http://www.inkscape.org/namespaces/inkscape"
   version="1.1"
   id="Layer_2_1_"
   x="0px"
   y="0px"
   viewBox="0 0 213.0197 213.00998"
   enable-background="new 0 0 3947.9399414 3860.8613281"
   xml:space="preserve"
   sodipodi:docname="sky_hydroponics_lab.svg"
   inkscape:version="0.92.4 (5da689c313, 2019-01-14)"
   width="213.0197"
   height="213.00999"><metadata
   id="metadata5465"><rdf:RDF><cc:Work
       rdf:about=""><dc:format>image/svg+xml</dc:format><dc:type
         rdf:resource="http://purl.org/dc/dcmitype/StillImage" /><dc:title></dc:title></cc:Work></rdf:RDF></metadata><defs
   id="defs5463" /><sodipodi:namedview
   pagecolor="#ffffff"
   bordercolor="#666666"
   borderopacity="1"
   objecttolerance="10"
   gridtolerance="10"
   guidetolerance="10"
   inkscape:pageopacity="0"
   inkscape:pageshadow="2"
   inkscape:window-width="1920"
   inkscape:window-height="1022"
   id="namedview5461"
   showgrid="false"
   inkscape:zoom="0.21212883"
   inkscape:cx="-1625.2262"
   inkscape:cy="1332.4861"
   inkscape:window-x="1079"
   inkscape:window-y="709"
   inkscape:window-maximized="1"
   inkscape:current-layer="Layer_2_1_" />















































































































<g
   id="g4660"
   style="fill:#90ae50;fill-opacity:1"
   transform="translate(-2486.793,-2848.9016)">
	<path
   d="m 2648.6926,2989.6917 h -9.0898 l -2.1802,2.1801 v -14.04 c 3.4404,-6.73 5.3701,-14.3501 5.3701,-22.4302 0,-8.0698 -1.9297,-15.6999 -5.3701,-22.4299 v -14.03 l 2.1802,2.1801 h 9.0898 l 17.8101,17.8098 33.31,-33.3098 -24.79,-24.79 -30.6396,30.6399 -7.1504,-7.1399 30.6401,-30.6401 -24.79,-24.7901 -33.3101,33.3101 17.8203,17.82 v 9.0901 l 2.1699,2.1699 h -14.0102 c -6.7398,-3.4399 -14.3696,-5.3801 -22.4497,-5.3801 -8.0801,0 -15.71,1.9402 -22.4502,5.3801 h -14.0098 l 2.1699,-2.1699 v -9.0901 l 17.8199,-17.82 -33.3101,-33.3101 -24.7898,24.7901 30.6399,30.6401 -7.1401,7.1399 -30.6397,-30.6399 -24.8,24.79 33.3098,33.3098 17.8198,-17.8098 h 9.0801 l 2.1899,-2.1902 v 14.0201 c -3.4399,6.74 -5.3799,14.3701 -5.3799,22.4499 0,8.0801 1.94,15.7102 5.3799,22.4502 v 14.0298 l -2.1899,-2.1899 h -9.0801 l -17.8198,-17.8101 -33.3098,33.3101 24.8,24.79 30.6397,-30.6399 7.1401,7.1399 -30.6399,30.6401 24.7898,24.7898 33.3101,-33.3098 -17.8199,-17.8201 v -9.09 l -2.1699,-2.17 h 14.0098 c 6.7402,3.43 14.3701,5.3699 22.4502,5.3699 8.0801,0 15.7099,-1.9399 22.4497,-5.3699 h 14.0102 l -2.1699,2.17 v 9.09 l -17.8203,17.8201 33.3101,33.3098 24.79,-24.7898 -30.6299,-30.6301 7.1402,-7.1499 30.6396,30.6399 24.79,-24.79 -33.31,-33.3101 z m -55.3896,8.9465 c -23.876,0 -43.2315,-19.3555 -43.2315,-43.2315 0,-23.8759 19.3555,-43.2314 43.2315,-43.2314 23.876,0 43.2314,19.3555 43.2314,43.2314 0,23.876 -19.3554,43.2315 -43.2314,43.2315 z"
   id="path4656"
   style="fill:#90ae50;fill-opacity:1"
   inkscape:connector-curvature="0" />
	<path
   d="m 2616.5398,2959.0574 c -0.06,-0.1101 -0.1201,-0.2202 -0.1802,-0.3301 -0.1797,-0.3301 -0.3598,-0.6599 -0.5498,-0.99 -0.09,-0.1699 -0.1899,-0.3501 -0.2998,-0.52 -1.9404,-3.3999 -4.1103,-6.6499 -6.21,-9.8101 -6.4462,-9.6592 -14.4189,-23.4551 -14.9697,-32.782 -0.033,-0.5556 -0.4726,-0.998 -1.0288,-0.998 v 0 c -0.5567,0 -0.9966,0.4424 -1.0293,0.998 -0.5503,9.3269 -8.5137,23.1228 -14.96,32.782 -2.1098,3.1602 -4.2798,6.4102 -6.2197,9.8101 -0.09,0.1599 -0.1802,0.3201 -0.2803,0.48 -0.2099,0.3801 -0.4199,0.76 -0.6201,1.1399 -0.04,0.07 -0.08,0.1501 -0.1201,0.2202 h 0.01 c -2.187,4.3239 -3.1831,9.3349 -2.5927,14.5991 1.3398,11.9416 10.9731,21.5449 22.9194,22.8433 15.6216,1.6975 28.8735,-10.5496 28.8735,-25.8226 0,-4.1699 -0.9902,-8.1198 -2.75,-11.6198 h 0.01 z m -24.9771,31.5112 c -4.8344,-0.4202 -9.186,-2.561 -12.4243,-5.8193 l 12.4243,-5.7896 z m 3.4751,2e-4 v -11.614 l 12.4283,5.7932 c -3.2373,3.2591 -7.5894,5.4004 -12.4283,5.8208 z m 14.4014,-8.1845 -14.4014,-6.7107 v -1.2908 l 13.4629,6.2747 -1.3901,-3.9366 v 0 l -12.0679,-5.6245 v -1.2856 l 11.5269,5.3713 -1.3901,-3.9316 -10.1368,-4.7261 v -1.2856 l 9.5909,4.4726 -1.3902,-3.9365 -8.2007,-3.8225 v -1.2905 l 7.6548,3.5691 -1.395,-3.9366 -6.2598,-2.914 v -1.2906 l 5.7139,2.6658 -1.3901,-3.9368 -4.3238,-2.0153 v -1.2857 l 3.7779,1.7622 -1.3902,-3.9316 -2.3877,-1.117 v -1.2856 l 1.8418,0.8586 -2.8696,-8.1213 c -0.2329,-0.6653 -1.1763,-0.6653 -1.4097,0 l -2.8789,8.1265 1.8413,-0.8589 v 1.2856 l -2.3828,1.1121 -1.3945,3.9316 3.7773,-1.7573 v 1.2856 l -4.3183,2.0105 -1.3902,3.9368 5.7085,-2.6609 v 1.2857 l -6.2548,2.914 -1.3897,3.9366 7.6445,-3.5643 v 1.2908 l -8.1958,3.8174 -1.3901,3.9316 9.5859,-4.4628 v 1.2858 l -10.1318,4.721 -1.3896,3.9316 11.5214,-5.3664 v 1.2859 l -12.0678,5.6193 -1.3902,3.9366 13.458,-6.2698 v 1.2908 l -14.3984,6.7068 c -2.4014,-3.2962 -3.8447,-7.3309 -3.8447,-11.7081 0,-3.3598 0.8301,-6.52 2.3105,-9.3 0.08,-0.1599 0.1699,-0.3098 0.25,-0.46 1.9297,-3.4599 4.1099,-6.7299 6.4097,-10.1799 1.0601,-1.5901 2.1401,-3.1999 3.1899,-4.8301 2.9903,-4.6499 5.8101,-9.53 7.8203,-15.07 2.0098,5.54 4.8301,10.4201 7.8199,15.07 1.06,1.6302 2.1299,3.24 3.1899,4.8301 2.2998,3.45 4.48,6.72 6.4102,10.1799 0.08,0.1502 0.1699,0.3001 0.25,0.46 1.48,2.78 2.31,5.9402 2.31,9.3 0,4.3768 -1.4414,8.4112 -3.8408,11.7071 z"
   id="path4658"
   style="fill:#90ae50;fill-opacity:1"
   inkscape:connector-curvature="0" />
</g>



































































</svg>