<?xml version="1.0" encoding="UTF-8" standalone="no"?>
<!-- Generator: Adobe Illustrator 22.1.0, SVG Export Plug-In . SVG Version: 6.00 Build 0)  -->

<svg
   xmlns:dc="http://purl.org/dc/elements/1.1/"
   xmlns:cc="http://creativecommons.org/ns#"
   xmlns:rdf="http://www.w3.org/1999/02/22-rdf-syntax-ns#"
   xmlns:svg="http://www.w3.org/2000/svg"
   xmlns="http://www.w3.org/2000/svg"
   xmlns:sodipodi="http://sodipodi.sourceforge.net/DTD/sodipodi-0.dtd"
   xmlns:inkscape="http://www.inkscape.org/namespaces/inkscape"
   version="1.1"
   id="Layer_2_1_"
   x="0px"
   y="0px"
   viewBox="0 0 154.16991 149.21457"
   enable-background="new 0 0 3947.9399414 3860.8613281"
   xml:space="preserve"
   sodipodi:docname="subsea_trunkline.svg"
   inkscape:version="0.92.4 (5da689c313, 2019-01-14)"
   width="154.16991"
   height="149.21458"><metadata
   id="metadata5465"><rdf:RDF><cc:Work
       rdf:about=""><dc:format>image/svg+xml</dc:format><dc:type
         rdf:resource="http://purl.org/dc/dcmitype/StillImage" /><dc:title></dc:title></cc:Work></rdf:RDF></metadata><defs
   id="defs5463" /><sodipodi:namedview
   pagecolor="#ffffff"
   bordercolor="#666666"
   borderopacity="1"
   objecttolerance="10"
   gridtolerance="10"
   guidetolerance="10"
   inkscape:pageopacity="0"
   inkscape:pageshadow="2"
   inkscape:window-width="1920"
   inkscape:window-height="1022"
   id="namedview5461"
   showgrid="false"
   inkscape:zoom="0.21212883"
   inkscape:cx="-2273.849"
   inkscape:cy="-876.39969"
   inkscape:window-x="1079"
   inkscape:window-y="709"
   inkscape:window-maximized="1"
   inkscape:current-layer="Layer_2_1_" />
























































































<g
   id="g4478"
   style="fill:#d7e6ed;fill-opacity:1"
   transform="translate(-3135.4158,-326.68194)">
	<path
   d="m 3260.3958,384.92419 -22.0401,-22.04998 h -51.72 l -22.04,22.04998 v 15 l 47.9001,47.90003 47.9,-47.90003 z m -10,10.85999 -37.9,37.89001 -37.9001,-37.89001 v -6.71997 l 16.1799,-16.19 h 43.4402 l 16.18,16.19 z"
   id="path4472"
   style="fill:#d7e6ed;fill-opacity:1"
   inkscape:connector-curvature="0" />
	<path
   d="m 3289.5857,401.28418 c 0,-23.52997 -10.5999,-44.62994 -27.27,-58.77997 l 5.2099,-5.07001 c -4.4399,-5.59997 -16.0498,-10.36999 -35.5197,-10.72998 -4.7801,-0.09 -10.0401,0.09 -15.7901,0.58997 3.25,0.69 7.0501,1.90002 11,3.42999 0.01,0 0.03,0 0.04,0.01 11.8899,4.60004 25.1799,12.11005 29.3298,17.34003 l 2.1201,-2.06 c 15.8101,13.21997 25.8799,33.09998 25.8799,55.26996 0,22.18005 -10.0698,42.05005 -25.8799,55.28003 l -2.1201,-2.06 c -4.1499,5.22998 -17.4399,12.73999 -29.3298,17.34003 -0.01,0.01 -0.03,0.01 -0.04,0.01 -3.9499,1.53003 -7.75,2.74005 -11,3.42999 5.75,0.5 11.01,0.68005 15.7901,0.59003 h 0.01 c 19.4599,-0.35999 31.0698,-5.13001 35.5097,-10.72998 l -5.2099,-5.07001 c 16.6701,-14.15003 27.27,-35.26001 27.27,-58.79004 z"
   id="path4474"
   style="fill:#d7e6ed;fill-opacity:1"
   inkscape:connector-curvature="0" />
	<path
   d="m 3197.7957,471.8642 c -11.8999,-4.59998 -25.22,-12.13001 -29.3799,-17.35999 l -2.1201,2.06 c -15.8099,-13.22998 -25.8799,-33.09998 -25.8799,-55.28003 0,-22.16998 10.07,-42.04999 25.8799,-55.26996 l 2.1201,2.06 c 4.1599,-5.22998 17.48,-12.76001 29.3799,-17.35999 3.9501,-1.53003 7.7402,-2.73004 10.9902,-3.42004 -5.75,-0.5 -11.0103,-0.67999 -15.7901,-0.58997 -19.4702,0.35999 -31.08,5.13001 -35.52,10.72998 l 5.21,5.07001 c -16.6699,14.15003 -27.27,35.25 -27.27,58.77997 0,23.53003 10.6001,44.64001 27.27,58.79004 l -5.21,5.07001 c 4.44,5.59997 16.0498,10.36999 35.51,10.72998 h 0.01 c 4.7798,0.09 10.0401,-0.09 15.7901,-0.59003 -3.25,-0.68994 -7.0401,-1.88995 -10.98,-3.41998 h -0.01 z"
   id="path4476"
   style="fill:#d7e6ed;fill-opacity:1"
   inkscape:connector-curvature="0" />
</g>


























































































</svg>