<?xml version="1.0" encoding="UTF-8" standalone="no"?>
<!-- Generator: Adobe Illustrator 22.1.0, SVG Export Plug-In . SVG Version: 6.00 Build 0)  -->

<svg
   xmlns:dc="http://purl.org/dc/elements/1.1/"
   xmlns:cc="http://creativecommons.org/ns#"
   xmlns:rdf="http://www.w3.org/1999/02/22-rdf-syntax-ns#"
   xmlns:svg="http://www.w3.org/2000/svg"
   xmlns="http://www.w3.org/2000/svg"
   xmlns:sodipodi="http://sodipodi.sourceforge.net/DTD/sodipodi-0.dtd"
   xmlns:inkscape="http://www.inkscape.org/namespaces/inkscape"
   version="1.1"
   id="Layer_2_1_"
   x="0px"
   y="0px"
   viewBox="0 0 199 198.99998"
   enable-background="new 0 0 3947.9399414 3860.8613281"
   xml:space="preserve"
   sodipodi:docname="subspace_generator.svg"
   inkscape:version="0.92.4 (5da689c313, 2019-01-14)"
   width="199"
   height="199"><metadata
   id="metadata5465"><rdf:RDF><cc:Work
       rdf:about=""><dc:format>image/svg+xml</dc:format><dc:type
         rdf:resource="http://purl.org/dc/dcmitype/StillImage" /><dc:title></dc:title></cc:Work></rdf:RDF></metadata><defs
   id="defs5463" /><sodipodi:namedview
   pagecolor="#ffffff"
   bordercolor="#666666"
   borderopacity="1"
   objecttolerance="10"
   gridtolerance="10"
   guidetolerance="10"
   inkscape:pageopacity="0"
   inkscape:pageshadow="2"
   inkscape:window-width="1920"
   inkscape:window-height="1022"
   id="namedview5461"
   showgrid="false"
   inkscape:zoom="0.21212883"
   inkscape:cx="-1941.8351"
   inkscape:cy="1418.8198"
   inkscape:window-x="1079"
   inkscape:window-y="709"
   inkscape:window-maximized="1"
   inkscape:current-layer="Layer_2_1_" />


































































































































































<g
   id="g5218"
   style="fill:#e1561c;fill-opacity:1"
   transform="translate(-2803.4019,-2572.116)">
	<path
   d="m 2902.9019,2572.116 c -54.9524,0 -99.5,44.5476 -99.5,99.5 0,54.9524 44.5476,99.5 99.5,99.5 54.9523,0 99.5,-44.5476 99.5,-99.5 0,-54.9524 -44.5477,-99.5 -99.5,-99.5 z m 0,196 c -53.2102,0 -96.5,-43.2898 -96.5,-96.5 0,-53.2102 43.2898,-96.5 96.5,-96.5 53.2102,0 96.5,43.2898 96.5,96.5 0,53.2102 -43.2898,96.5 -96.5,96.5 z"
   id="path5206"
   style="fill:#e1561c;fill-opacity:1"
   inkscape:connector-curvature="0" />
	<path
   d="m 2994.4019,2671.616 c 0,-7.4527 -0.8975,-14.6946 -2.5789,-21.6304 v 5e-4 c -0.015,-0.06 -0.032,-0.1196 -0.047,-0.1799 -0.2078,-0.8497 -0.4265,-1.6949 -0.658,-2.5352 -0.039,-0.1411 -0.075,-0.2832 -0.1147,-0.4241 -0.2505,-0.8923 -0.5132,-1.7793 -0.7898,-2.6601 -0.073,-0.2332 -0.1511,-0.4639 -0.2261,-0.6963 -0.2085,-0.6458 -0.4231,-1.2886 -0.6452,-1.928 -0.104,-0.2986 -0.2083,-0.5972 -0.3152,-0.8945 -0.249,-0.6931 -0.5066,-1.3824 -0.7718,-2.0677 -0.064,-0.1652 -0.124,-0.3325 -0.1889,-0.497 -0.3274,-0.8313 -0.6699,-1.6551 -1.0205,-2.4744 -0.1045,-0.2434 -0.2119,-0.4849 -0.3184,-0.7273 -0.2839,-0.6474 -0.5752,-1.291 -0.8735,-1.9307 -0.097,-0.2065 -0.1914,-0.4135 -0.2893,-0.6191 -0.4012,-0.8433 -0.8123,-1.6804 -1.2381,-2.5088 -0.011,-0.021 -0.022,-0.041 -0.032,-0.061 -0.4136,-0.8032 -0.8418,-1.5974 -1.2781,-2.3865 -0.046,-0.082 -0.088,-0.1667 -0.1336,-0.249 l -0.1767,-0.3059 c -1.3396,-2.3826 -2.782,-4.699 -4.3225,-6.9434 -0.107,-0.1555 -0.2149,-0.31 -0.3225,-0.4648 -0.4734,-0.6807 -0.9554,-1.3552 -1.4466,-2.0222 -0.087,-0.1189 -0.1726,-0.239 -0.2605,-0.3572 -0.5566,-0.7483 -1.1255,-1.4868 -1.7043,-2.2173 -0.1323,-0.1672 -0.2676,-0.332 -0.4014,-0.4985 -0.4802,-0.5974 -0.9678,-1.1885 -1.4626,-1.7737 -0.1372,-0.1621 -0.2732,-0.3255 -0.4114,-0.4866 -0.6155,-0.7175 -1.2402,-1.4267 -1.8774,-2.1245 -0.059,-0.065 -0.1197,-0.1279 -0.179,-0.1924 -0.5898,-0.6426 -1.1902,-1.2754 -1.7979,-1.9009 -0.1354,-0.1394 -0.2709,-0.2785 -0.4074,-0.4169 -10.7891,-10.9629 -24.3198,-19.2166 -39.4829,-23.6519 v 0 c -0.068,-0.02 -0.1379,-0.037 -0.206,-0.056 -0.9302,-0.2698 -1.8652,-0.5278 -2.8074,-0.7686 -0.1084,-0.028 -0.2182,-0.053 -0.3266,-0.08 -0.8206,-0.2065 -1.646,-0.4004 -2.4751,-0.5845 -0.2586,-0.057 -0.5171,-0.1137 -0.7764,-0.1689 -0.8257,-0.1758 -1.6548,-0.3418 -2.4883,-0.4951 -0.1223,-0.023 -0.2436,-0.048 -0.366,-0.07 -0.936,-0.1682 -1.8779,-0.3186 -2.8234,-0.458 -0.264,-0.039 -0.5289,-0.074 -0.7935,-0.1111 -0.7515,-0.104 -1.5056,-0.1987 -2.2627,-0.2847 -0.2402,-0.027 -0.4795,-0.057 -0.72,-0.082 -0.9558,-0.1006 -1.9157,-0.1875 -2.8801,-0.2583 -0.2046,-0.015 -0.4106,-0.025 -0.6155,-0.039 -0.7934,-0.053 -1.5896,-0.096 -2.3884,-0.1284 -0.2769,-0.011 -0.5535,-0.023 -0.8311,-0.032 -0.9831,-0.031 -1.9689,-0.053 -2.9599,-0.053 0,0 -0.01,-2e-4 -0.01,-2e-4 -5e-4,0 0,0 0,0 -8e-4,0 0,0 0,0 -0.9971,0 -1.9891,0.022 -2.9783,0.053 -0.2705,0.01 -0.5401,0.02 -0.8098,0.031 -0.8113,0.033 -1.6201,0.076 -2.4258,0.1303 -0.1939,0.013 -0.3887,0.023 -0.5823,0.037 -0.9726,0.071 -1.9409,0.1587 -2.9048,0.2605 -0.2236,0.024 -0.446,0.051 -0.6692,0.076 -0.7819,0.088 -1.5608,0.1863 -2.3366,0.2942 -0.2425,0.034 -0.4854,0.066 -0.7273,0.1018 -0.9656,0.1421 -1.927,0.2957 -2.8826,0.4678 -0.065,0.012 -0.1304,0.025 -0.1958,0.037 -0.9038,0.1648 -1.802,0.3457 -2.6965,0.5368 -0.209,0.045 -0.4178,0.09 -0.6262,0.1363 -0.931,0.2058 -1.858,0.4221 -2.7779,0.656 -0.013,0 -0.026,0.01 -0.039,0.01 -0.9956,0.2535 -1.9834,0.5262 -2.9654,0.812 -0.036,0.01 -0.072,0.019 -0.1081,0.03 v 0 c -17.3867,5.0845 -32.6272,15.1895 -44.0493,28.6416 -0.012,0.014 -0.023,0.027 -0.035,0.041 -5.6924,6.7116 -10.4329,14.2541 -14.0161,22.4211 -0.024,0.055 -0.048,0.1099 -0.072,0.1648 -4.8867,11.1982 -7.6032,23.5608 -7.6032,36.5596 0,12.9983 2.7163,25.3603 7.6027,36.5583 0.024,0.056 0.049,0.1116 0.073,0.1675 3.5832,8.1665 8.3237,15.7082 14.0156,22.4197 0.012,0.014 0.023,0.027 0.035,0.041 12.7436,15.0083 30.2405,25.8496 50.1667,30.2007 0.059,0.013 0.1189,0.026 0.1785,0.039 1.9944,0.4311 4.012,0.7991 6.0522,1.0979 0.1961,0.029 0.3926,0.055 0.5891,0.082 0.8177,0.1145 1.6385,0.218 2.4629,0.3105 0.2024,0.023 0.4041,0.048 0.6067,0.07 0.9712,0.1025 1.9466,0.1909 2.9265,0.2627 0.1883,0.014 0.3775,0.023 0.566,0.036 0.8098,0.054 1.6225,0.098 2.4379,0.1311 0.2693,0.011 0.5389,0.022 0.8089,0.031 0.9892,0.032 1.9812,0.053 2.9783,0.053 7e-4,0 0,0 0,0 4e-4,0 0,0 0,0 0,0 0.01,-3e-4 0.01,-3e-4 0.991,0 1.9768,-0.021 2.9599,-0.053 0.2771,-0.01 0.5535,-0.02 0.8299,-0.031 0.803,-0.033 1.6032,-0.076 2.4006,-0.1292 0.1997,-0.013 0.3999,-0.023 0.5994,-0.038 0.9717,-0.072 1.9387,-0.1592 2.9016,-0.2608 0.2197,-0.023 0.438,-0.05 0.657,-0.075 0.7995,-0.09 1.5957,-0.1907 2.3889,-0.3013 0.2185,-0.03 0.4372,-0.06 0.6553,-0.092 2.0063,-0.2944 3.9907,-0.6558 5.9524,-1.0784 0.1093,-0.024 0.2187,-0.047 0.3278,-0.071 17.6104,-3.8618 33.3199,-12.7932 45.5225,-25.1906 0.1396,-0.1416 0.2781,-0.284 0.4167,-0.4265 0.6038,-0.6214 1.2002,-1.2503 1.7864,-1.8885 0.062,-0.068 0.126,-0.1343 0.1883,-0.2024 0.6355,-0.6963 1.2587,-1.4038 1.8728,-2.1194 0.1403,-0.1638 0.2783,-0.3295 0.4177,-0.4941 0.4919,-0.582 0.977,-1.1699 1.4546,-1.7639 0.1357,-0.169 0.2732,-0.3364 0.4077,-0.5064 0.5771,-0.7282 1.1443,-1.4648 1.6994,-2.2109 0.091,-0.1226 0.1795,-0.2471 0.2701,-0.3701 0.4875,-0.6621 0.9658,-1.3313 1.4355,-2.0068 0.1101,-0.1585 0.2205,-0.3162 0.3296,-0.4754 1.5383,-2.2412 2.9785,-4.5544 4.3164,-6.9333 l 0.1799,-0.3113 c 0.047,-0.084 0.09,-0.1707 0.1365,-0.2549 0.4324,-0.782 0.8565,-1.5688 1.2666,-2.3645 0.014,-0.027 0.029,-0.054 0.043,-0.081 0.4246,-0.8259 0.8343,-1.6604 1.2342,-2.5007 0.1001,-0.2098 0.1968,-0.4209 0.2949,-0.6316 0.2961,-0.6345 0.5852,-1.2732 0.8669,-1.9156 0.1082,-0.246 0.2173,-0.4914 0.3233,-0.7387 0.3496,-0.8169 0.6911,-1.6382 1.0176,-2.4671 0.067,-0.1701 0.1291,-0.3425 0.195,-0.5131 0.263,-0.6797 0.5183,-1.3631 0.7654,-2.0506 0.1079,-0.3003 0.2134,-0.6015 0.3181,-0.9033 0.2207,-0.6353 0.4341,-1.2739 0.6411,-1.9153 0.076,-0.2358 0.1556,-0.4702 0.2295,-0.707 0.2759,-0.8792 0.5384,-1.7642 0.7881,-2.6546 0.04,-0.1438 0.078,-0.2888 0.1172,-0.4328 0.2305,-0.8369 0.4485,-1.679 0.6555,-2.5252 0.015,-0.062 0.033,-0.122 0.048,-0.1838 v 2e-4 c 1.6814,-6.9355 2.5789,-14.1777 2.5789,-21.6303 z m -23.116,-40.5699 0.47,0.8299 0.6899,1.1902 c 1.79,3.2299 3.3499,6.5598 4.6699,9.9799 l -20.23,-2.6001 7.8501,-18.8 c 2.41,2.98 4.5999,6.1201 6.5501,9.4001 z m -68.3801,-38.9301 c 4.1599,0 8.29,0.32 12.3601,0.9599 l -12.3601,16.21 -12.3601,-16.21 c 4.07,-0.6399 8.2001,-0.9599 12.3601,-0.9599 z m -69.25,40.4199 0.3899,-0.6699 0.02,-0.04 0.03,-0.04 0.1301,-0.23 c 2.0301,-3.4697 4.3101,-6.77 6.8501,-9.8899 l 7.8399,18.78 -20.22,2.6001 c 1.3899,-3.6201 3.05,-7.1301 4.96,-10.5102 z m 0.57,79.1501 -0.1301,-0.24 -0.02,-0.04 -0.03,-0.04 -0.3799,-0.67 c -1.92,-3.3701 -3.5801,-6.8798 -4.97,-10.51 l 20.22,2.5999 -7.8399,18.7803 c -2.54,-3.1101 -4.82,-6.4202 -6.8501,-9.8802 z m 138.22,-1.52 -0.6799,1.1799 -0.48,0.8401 c -1.9502,3.2801 -4.1401,6.42 -6.5501,9.4002 l -7.8501,-18.8003 20.23,-2.5999 c -1.3098,3.42 -2.8699,6.75 -4.6699,9.98 z m 11.863,-15.9526 -5.383,0.6926 -29.18,3.75 11.3301,27.1299 2.0825,4.9927 c -10.5896,10.7834 -24.0314,18.7558 -39.1015,22.6547 l -21.1511,-27.7272 -21.1524,27.7292 c -15.072,-3.8984 -28.5159,-11.8711 -39.1067,-22.6553 l 2.0891,-4.9941 11.3299,-27.1299 -29.19,-3.75 -5.3808,-0.6929 c -2.0008,-7.1982 -3.093,-14.7705 -3.093,-22.5971 0,-7.8267 1.0922,-15.399 3.093,-22.597 l 5.3808,-0.6931 29.19,-3.75 -11.3299,-27.1299 -2.0891,-4.9941 c 10.5926,-10.7861 24.0388,-18.7598 39.114,-22.6572 l 3.305,4.3313 17.8401,23.4001 17.84,-23.4001 3.3038,-4.3296 c 15.073,3.8984 28.5175,11.8718 39.1088,22.657 l -2.0825,4.9926 -11.3301,27.1299 29.19,3.75 5.3728,0.6919 c 2.001,7.1983 3.0933,14.771 3.0933,22.5982 0,7.8269 -1.0923,15.3994 -3.0931,22.5974 z"
   id="path5208"
   style="fill:#e1561c;fill-opacity:1"
   inkscape:connector-curvature="0" />
	<path
   d="m 2861.5657,2652.2261 3.8401,10.3999 c 11.31,-5.5999 24.05,-8.74 37.5,-8.74 13.4499,0 26.1799,3.1401 37.49,8.74 l 3.84,-10.3999 c -12.52,-5.99 -26.53,-9.3401 -41.33,-9.3401 -14.8001,0 -28.8201,3.3501 -41.3401,9.3401 z"
   id="path5210"
   style="fill:#e1561c;fill-opacity:1"
   inkscape:connector-curvature="0" />
	<path
   d="m 2869.7559,2674.426 3.1399,8.52 c 8.9399,-4.83 19.1601,-7.56 30.01,-7.56 10.8501,0 21.07,2.73 30,7.56 l 3.1399,-8.52 c -9.94,-5.1401 -21.21,-8.04 -33.1399,-8.04 -11.94,0 -23.21,2.8999 -33.1499,8.04 z"
   id="path5212"
   style="fill:#e1561c;fill-opacity:1"
   inkscape:connector-curvature="0" />
	<path
   d="m 2877.9858,2696.7261 2.47,6.6899 c 6.5,-4.1399 14.2,-6.53 22.45,-6.53 8.25,0 15.9599,2.3999 22.4499,6.53 l 2.4702,-6.6899 c -7.3,-4.3401 -15.8301,-6.8401 -24.9201,-6.8401 -9.0999,0 -17.6199,2.49 -24.92,6.8401 z"
   id="path5214"
   style="fill:#e1561c;fill-opacity:1"
   inkscape:connector-curvature="0" />
	<path
   d="m 2886.3857,2719.4961 1.8702,5.0701 c 3.7299,-3.8101 8.9199,-6.1802 14.6499,-6.1802 5.7299,0 10.9201,2.3701 14.6399,6.1899 l 1.8701,-5.0698 c -4.45,-3.8201 -10.22,-6.1201 -16.51,-6.1201 -6.3001,0 -12.0701,2.3 -16.5201,6.1101 z"
   id="path5216"
   style="fill:#e1561c;fill-opacity:1"
   inkscape:connector-curvature="0" />
</g>
















</svg>