<?xml version="1.0" encoding="UTF-8" standalone="no"?>
<!-- Generator: Adobe Illustrator 22.1.0, SVG Export Plug-In . SVG Version: 6.00 Build 0)  -->

<svg
   xmlns:dc="http://purl.org/dc/elements/1.1/"
   xmlns:cc="http://creativecommons.org/ns#"
   xmlns:rdf="http://www.w3.org/1999/02/22-rdf-syntax-ns#"
   xmlns:svg="http://www.w3.org/2000/svg"
   xmlns="http://www.w3.org/2000/svg"
   xmlns:sodipodi="http://sodipodi.sourceforge.net/DTD/sodipodi-0.dtd"
   xmlns:inkscape="http://www.inkscape.org/namespaces/inkscape"
   version="1.1"
   id="Layer_2_1_"
   x="0px"
   y="0px"
   viewBox="0 0 155.76001 209.35986"
   enable-background="new 0 0 3947.9399414 3860.8613281"
   xml:space="preserve"
   sodipodi:docname="tachyon_field.svg"
   inkscape:version="0.92.4 (5da689c313, 2019-01-14)"
   width="155.76001"
   height="209.35988"><metadata
   id="metadata5465"><rdf:RDF><cc:Work
       rdf:about=""><dc:format>image/svg+xml</dc:format><dc:type
         rdf:resource="http://purl.org/dc/dcmitype/StillImage" /><dc:title></dc:title></cc:Work></rdf:RDF></metadata><defs
   id="defs5463" /><sodipodi:namedview
   pagecolor="#ffffff"
   bordercolor="#666666"
   borderopacity="1"
   objecttolerance="10"
   gridtolerance="10"
   guidetolerance="10"
   inkscape:pageopacity="0"
   inkscape:pageshadow="2"
   inkscape:window-width="1920"
   inkscape:window-height="1022"
   id="namedview5461"
   showgrid="false"
   inkscape:zoom="0.21212883"
   inkscape:cx="203.73748"
   inkscape:cy="-278.74541"
   inkscape:window-x="1079"
   inkscape:window-y="709"
   inkscape:window-maximized="1"
   inkscape:current-layer="Layer_2_1_" />






















<g
   id="g3866"
   style="fill:#e1561c;fill-opacity:1"
   transform="translate(-657.82935,-864.19092)">
	<path
   d="M 810.58936,864.19092 H 660.82935 c -1.66004,0 -3,1.34002 -3,3 v 128.48004 c 0,0.79993 0.30999,1.55994 0.88,2.11987 l 74.88001,74.88007 c 0.57995,0.59 1.34997,0.8799 2.11999,0.8799 0.76996,0 1.52997,-0.2899 2.12,-0.8799 l 74.88,-74.88007 c 0.56,-0.55993 0.88001,-1.31994 0.88001,-2.11987 V 867.19092 c 0,-1.65998 -1.35004,-3 -3,-3 z m -3,130.24005 -71.88001,71.87983 -71.88,-71.87983 V 870.19092 h 143.76001 z"
   id="path3860"
   style="fill:#e1561c;fill-opacity:1"
   inkscape:connector-curvature="0" />
	<path
   d="M 798.58936,876.19092 H 672.82935 c -1.66004,0 -3,1.34002 -3,3 v 111.50006 c 0,0.79993 0.30999,1.55994 0.88,2.11987 l 62.88001,62.88005 c 0.57995,0.59 1.34997,0.8799 2.11999,0.8799 0.76996,0 1.52997,-0.2899 2.12,-0.8799 l 62.88,-62.88005 c 0.56,-0.55993 0.88001,-1.31994 0.88001,-2.11987 V 879.19092 c 0,-1.65998 -1.35004,-3 -3,-3 z m -3,113.26007 -59.88001,59.87981 -59.88,-59.87981 V 882.19092 h 119.76001 z"
   id="path3862"
   style="fill:#e1561c;fill-opacity:1"
   inkscape:connector-curvature="0" />
	<path
   d="m 688.82935,895.19092 v 87.40002 l 46.88,46.87986 46.88001,-46.87986 v -87.40002 z m 85.76001,84.09002 -38.88001,38.87996 -38.88,-38.87996 v -76.09002 h 77.76001 z"
   id="path3864"
   style="fill:#e1561c;fill-opacity:1"
   inkscape:connector-curvature="0" />
</g>




























































































































































</svg>