<?xml version="1.0" encoding="UTF-8" standalone="no"?>
<!-- Generator: Adobe Illustrator 22.1.0, SVG Export Plug-In . SVG Version: 6.00 Build 0)  -->

<svg
   xmlns:dc="http://purl.org/dc/elements/1.1/"
   xmlns:cc="http://creativecommons.org/ns#"
   xmlns:rdf="http://www.w3.org/1999/02/22-rdf-syntax-ns#"
   xmlns:svg="http://www.w3.org/2000/svg"
   xmlns="http://www.w3.org/2000/svg"
   xmlns:sodipodi="http://sodipodi.sourceforge.net/DTD/sodipodi-0.dtd"
   xmlns:inkscape="http://www.inkscape.org/namespaces/inkscape"
   version="1.1"
   id="Layer_2_1_"
   x="0px"
   y="0px"
   viewBox="0 0 207.39001 207.39988"
   enable-background="new 0 0 3947.9399414 3860.8613281"
   xml:space="preserve"
   sodipodi:docname="temple_of_planet.svg"
   inkscape:version="0.92.4 (5da689c313, 2019-01-14)"
   width="207.39001"
   height="207.3999"><metadata
   id="metadata5465"><rdf:RDF><cc:Work
       rdf:about=""><dc:format>image/svg+xml</dc:format><dc:type
         rdf:resource="http://purl.org/dc/dcmitype/StillImage" /><dc:title></dc:title></cc:Work></rdf:RDF></metadata><defs
   id="defs5463" /><sodipodi:namedview
   pagecolor="#ffffff"
   bordercolor="#666666"
   borderopacity="1"
   objecttolerance="10"
   gridtolerance="10"
   guidetolerance="10"
   inkscape:pageopacity="0"
   inkscape:pageshadow="2"
   inkscape:window-width="1920"
   inkscape:window-height="1022"
   id="namedview5461"
   showgrid="false"
   inkscape:zoom="0.21212883"
   inkscape:cx="848.75034"
   inkscape:cy="1423.0197"
   inkscape:window-x="1079"
   inkscape:window-y="709"
   inkscape:window-maximized="1"
   inkscape:current-layer="Layer_2_1_" />

























































































































































<g
   id="g5130"
   style="fill:#90ae50;fill-opacity:1"
   transform="translate(-12.81649,-2567.916)">
	<path
   d="m 116.50649,2567.916 c -57.269952,0 -103.69,46.4299 -103.69,103.7 0,57.27 46.420044,103.6999 103.69,103.6999 57.27003,0 103.70002,-46.4299 103.70002,-103.6999 0,-57.2701 -46.42999,-103.7 -103.70002,-103.7 z m 0,191.3999 c -48.349973,0 -87.69,-39.3401 -87.69,-87.6999 0,-48.3601 39.340027,-87.7 87.69,-87.7 48.36006,0 87.70002,39.3399 87.70002,87.7 0,48.3598 -39.33996,87.6999 -87.70002,87.6999 z"
   id="path5122"
   style="fill:#90ae50;fill-opacity:1"
   inkscape:connector-curvature="0" />
	<g
   id="g5128"
   style="fill:#90ae50;fill-opacity:1">
		<path
   d="m 59.022793,2720.5308 c 13.848385,16.2597 34.457149,26.5852 57.488707,26.5852 23.03162,0 43.64032,-10.3255 57.48871,-26.5852 z"
   id="path5124"
   style="fill:#90ae50;fill-opacity:1"
   inkscape:connector-curvature="0" />
		<path
   d="m 116.5115,2596.116 c -41.697451,0 -75.500002,33.8025 -75.500002,75.5 0,16.3857 5.236877,31.5395 14.104614,43.9148 H 177.90695 c 8.86774,-12.3753 14.10456,-27.5291 14.10456,-43.9148 0,-41.6975 -33.8025,-75.5 -75.50001,-75.5 z M 82.636498,2709.564 H 68.503197 v -54.1668 h 14.133301 z m 27.294492,0 H 95.79763 v -54.1668 h 14.13336 z m 27.29444,0 h -14.13337 v -54.1668 h 14.13337 z m 27.29444,0 h -14.13336 v -54.1668 h 14.13336 z m -102.332587,-63.0327 54.324217,-30.6148 54.32422,30.6148 z"
   id="path5126"
   style="fill:#90ae50;fill-opacity:1"
   inkscape:connector-curvature="0" />
	</g>
</g>

























</svg>