<?xml version="1.0" encoding="UTF-8" standalone="no"?>
<!-- Generator: Adobe Illustrator 22.1.0, SVG Export Plug-In . SVG Version: 6.00 Build 0)  -->

<svg
   xmlns:dc="http://purl.org/dc/elements/1.1/"
   xmlns:cc="http://creativecommons.org/ns#"
   xmlns:rdf="http://www.w3.org/1999/02/22-rdf-syntax-ns#"
   xmlns:svg="http://www.w3.org/2000/svg"
   xmlns="http://www.w3.org/2000/svg"
   xmlns:sodipodi="http://sodipodi.sourceforge.net/DTD/sodipodi-0.dtd"
   xmlns:inkscape="http://www.inkscape.org/namespaces/inkscape"
   version="1.1"
   id="Layer_2_1_"
   x="0px"
   y="0px"
   viewBox="0 0 196.5507 196.55078"
   enable-background="new 0 0 3947.9399414 3860.8613281"
   xml:space="preserve"
   sodipodi:docname="thermocline_transducer.svg"
   inkscape:version="0.92.4 (5da689c313, 2019-01-14)"
   width="196.5507"
   height="196.5508"><metadata
   id="metadata5465"><rdf:RDF><cc:Work
       rdf:about=""><dc:format>image/svg+xml</dc:format><dc:type
         rdf:resource="http://purl.org/dc/dcmitype/StillImage" /><dc:title></dc:title></cc:Work></rdf:RDF></metadata><defs
   id="defs5463" /><sodipodi:namedview
   pagecolor="#ffffff"
   bordercolor="#666666"
   borderopacity="1"
   objecttolerance="10"
   gridtolerance="10"
   guidetolerance="10"
   inkscape:pageopacity="0"
   inkscape:pageshadow="2"
   inkscape:window-width="1920"
   inkscape:window-height="1022"
   id="namedview5461"
   showgrid="false"
   inkscape:zoom="0.21212883"
   inkscape:cx="-1323.8617"
   inkscape:cy="-852.73161"
   inkscape:window-x="1079"
   inkscape:window-y="709"
   inkscape:window-maximized="1"
   inkscape:current-layer="Layer_2_1_" />































































<g
   id="g4252"
   style="fill:#e2bd4d;fill-opacity:1"
   transform="translate(-2185.4285,-303.01382)">
	<path
   d="m 2185.4285,303.01382 v 196.55079 h 196.5507 V 303.01382 Z m 148.6333,47.91626 h 11.9575 v -11.95752 h 16.0024 v 11.95752 h 11.9575 v 16.00245 h -11.9575 v 11.95752 h -16.0024 v -11.95752 h -11.9575 z m 31.5495,54.03614 c 0,1.1665 -0.7373,2.21679 -1.8359,2.61328 -5.1514,1.86914 -9.1797,5.8999 -11.0479,11.05713 -0.3964,1.0957 -1.4463,1.83252 -2.6123,1.83252 -1.166,0 -2.2158,-0.73682 -2.6123,-1.8335 -1.8701,-5.15527 -5.9004,-9.18603 -11.0576,-11.05762 -1.0947,-0.39697 -1.831,-1.44677 -1.831,-2.61181 0,-1.16553 0.7363,-2.21534 1.831,-2.61231 5.1572,-1.87109 9.1875,-5.90185 11.0576,-11.05957 0.3965,-1.09472 1.4463,-1.83154 2.6123,-1.83154 1.166,0 2.2159,0.73682 2.6123,1.83349 1.8682,5.15625 5.8965,9.18702 11.0518,11.05762 1.0947,0.39502 1.832,1.44531 1.832,2.61231 z m -134.4655,60.83551 h -39.9173 v -16.00251 h 39.9173 z m -29.0804,-60.83551 c 0,-1.167 0.7373,-2.21729 1.836,-2.61377 5.1523,-1.86963 9.1826,-5.90039 11.0527,-11.05811 0.3955,-1.09277 1.4434,-1.82959 2.6074,-1.83154 0,0 0,0 0,0 1.1621,0 2.2109,0.73291 2.6104,1.82519 1.8711,5.16456 5.8994,9.19532 11.0546,11.06592 1.0948,0.39697 1.8311,1.44678 1.8311,2.61231 0,1.16504 -0.7363,2.21484 -1.8311,2.61181 -5.1552,1.87061 -9.1835,5.90137 -11.0517,11.0586 -0.4024,1.09961 -1.4512,1.83252 -2.6133,1.83252 0,0 0,0 0,0 -1.164,-0.002 -2.2119,-0.73877 -2.6074,-1.8335 -1.8701,-5.15576 -5.9004,-9.18652 -11.0566,-11.05762 -1.0957,-0.39746 -1.8321,-1.44677 -1.8321,-2.61181 z m 28.4971,42.03613 c -3.1445,0 -5.7031,-2.55859 -5.7031,-5.70313 0,-3.14453 2.5586,-5.70312 5.7031,-5.70312 3.1445,0 5.7031,2.55859 5.7031,5.70312 0,3.14454 -2.5586,5.70313 -5.7031,5.70313 z m 1.356,-87.43115 -12.5801,5.21997 c -9.1599,3.80005 -19.5401,4.14001 -28.9099,1 v -18.28998 l 3.8398,1.59003 c 5.94,2.46997 12.6101,2.45996 18.5601,0 l 12.57,-5.22003 c 5.94,-2.45997 12.6199,-2.46998 18.5599,0 l 12.59,5.22003 c 5.9402,2.46997 12.6101,2.45996 18.5501,0 l 12.5801,-5.22003 c 5.9399,-2.45997 12.6198,-2.46998 18.56,0 l 21.3198,8.84002 -8.77,14.76996 -19.06,-7.90997 c -1.7898,-0.73999 -3.75,-0.73999 -5.5298,0 l -12.5801,5.21997 c -10.1799,4.23004 -21.3999,4.23004 -31.5901,0 l -12.5798,-5.21997 c -1.76,-0.72998 -3.78,-0.72998 -5.53,0 z m 89.5092,45.39502 c 0,1.16504 -0.7363,2.21484 -1.831,2.61181 -5.1553,1.87061 -9.1836,5.90137 -11.0518,11.0586 -0.3955,1.09375 -1.4433,1.83056 -2.6074,1.83252 0,0 0,0 0,0 -1.1621,0 -2.2109,-0.73291 -2.6103,-1.8252 -1.8731,-5.16406 -5.9034,-9.19482 -11.0596,-11.06592 -1.0947,-0.39697 -1.8311,-1.44677 -1.8311,-2.61181 0,-1.16553 0.7364,-2.21534 1.8311,-2.61231 5.1562,-1.8706 9.1865,-5.90185 11.0566,-11.05957 0.4024,-1.09863 1.4512,-1.83154 2.6133,-1.83154 0,0 0,0 0,0 1.1641,0.002 2.2119,0.73877 2.6074,1.8335 1.8682,5.15625 5.8965,9.18701 11.0518,11.05761 1.0947,0.39697 1.831,1.44678 1.831,2.61231 z m -44.1826,0 c 0,1.16504 -0.7363,2.21484 -1.831,2.61181 -5.1543,1.87012 -9.1827,5.90088 -11.0518,11.0586 -0.3965,1.0957 -1.4463,1.83252 -2.6133,1.83252 -1.166,0 -2.2158,-0.73682 -2.6123,-1.8335 -1.8701,-5.15576 -5.9004,-9.18652 -11.0566,-11.05762 -1.0947,-0.39697 -1.8311,-1.44677 -1.8311,-2.61181 0,-1.16553 0.7364,-2.21534 1.8311,-2.61231 5.1562,-1.8706 9.1865,-5.90185 11.0566,-11.05957 0.3965,-1.09472 1.4463,-1.83154 2.6123,-1.83154 1.167,0 2.2168,0.73682 2.6133,1.8335 1.8691,5.15673 5.8975,9.1875 11.0518,11.05761 1.0947,0.39697 1.831,1.44678 1.831,2.61231 z m 99.7373,58.66296 c -9.3699,3.14002 -19.75,2.80005 -28.9099,-1 l -12.5801,-5.21997 c -1.75,-0.72998 -3.77,-0.72998 -5.53,0 l -12.5798,5.21997 c -10.1902,4.23004 -21.4102,4.23004 -31.5901,0 l -12.5801,-5.21997 c -1.7798,-0.73999 -3.74,-0.73999 -5.5298,0 l -19.06,7.90997 -8.7701,-14.76996 21.3199,-8.84002 c 5.9401,-2.46997 12.6201,-2.45996 18.56,0 l 12.5801,5.22003 c 5.9399,2.45996 12.6099,2.46997 18.55,0 l 12.5901,-5.22003 c 5.94,-2.46997 12.6199,-2.45996 18.5599,0 l 12.57,5.22003 c 5.95,2.45996 12.6201,2.46997 18.5601,0 l 3.8398,-1.59003 z m -5.1269,-117.08142 c -3.1446,0 -5.7032,-2.55859 -5.7032,-5.70313 0,-3.14453 2.5586,-5.70312 5.7032,-5.70312 3.1445,0 5.7031,2.55859 5.7031,5.70312 0,3.14454 -2.5586,5.70313 -5.7031,5.70313 z"
   id="path4236"
   style="fill:#e2bd4d;fill-opacity:1"
   inkscape:connector-curvature="0" />
	<circle
   cx="2230.5625"
   cy="441.29922"
   r="2.703125"
   id="circle4238"
   style="fill:#e2bd4d;fill-opacity:1" />
	<circle
   cx="2371.8555"
   cy="340.84464"
   r="2.703125"
   id="circle4240"
   style="fill:#e2bd4d;fill-opacity:1" />
	<polygon
   points="2205.6074,402.8793 2205.5986,402.87637 2205.6025,402.87784 "
   id="polygon4242"
   style="fill:#e2bd4d;fill-opacity:1" />
	<path
   d="m 2217.5654,412.60538 c 1.9141,-3.10889 4.5274,-5.72315 7.6367,-7.63965 -3.1093,-1.91602 -5.7216,-4.5293 -7.6367,-7.64014 -1.916,3.11035 -4.5293,5.72461 -7.6386,7.64014 3.1093,1.91601 5.7226,4.52978 7.6386,7.63965 z"
   id="path4244"
   style="fill:#e2bd4d;fill-opacity:1"
   inkscape:connector-curvature="0" />
	<path
   d="m 2261.749,397.32559 c -1.917,3.11084 -4.5302,5.72412 -7.6396,7.64014 3.1103,1.9165 5.7236,4.53027 7.6396,7.64062 1.9151,-3.11084 4.5274,-5.72461 7.6367,-7.64062 -3.1103,-1.91602 -5.7216,-4.5293 -7.6367,-7.64014 z"
   id="path4246"
   style="fill:#e2bd4d;fill-opacity:1"
   inkscape:connector-curvature="0" />
	<path
   d="m 2350.1143,397.32608 c -1.9161,3.11035 -4.5293,5.72412 -7.6397,7.63965 3.1104,1.9165 5.7236,4.52978 7.6397,7.64014 1.915,-3.11036 4.5283,-5.72413 7.6367,-7.64014 -3.1094,-1.91651 -5.7217,-4.52979 -7.6367,-7.63965 z"
   id="path4248"
   style="fill:#e2bd4d;fill-opacity:1"
   inkscape:connector-curvature="0" />
	<path
   d="m 2305.9316,397.32608 c -1.915,3.10986 -4.5293,5.72363 -7.6396,7.64014 3.1103,1.91601 5.7236,4.52978 7.6396,7.64013 1.9151,-3.11035 4.5274,-5.72412 7.6368,-7.64062 -3.1094,-1.91602 -5.7217,-4.5293 -7.6368,-7.63965 z"
   id="path4250"
   style="fill:#e2bd4d;fill-opacity:1"
   inkscape:connector-curvature="0" />
</g>



















































































































</svg>