<?xml version="1.0" encoding="UTF-8" standalone="no"?>
<!-- Generator: Adobe Illustrator 22.1.0, SVG Export Plug-In . SVG Version: 6.00 Build 0)  -->

<svg
   xmlns:dc="http://purl.org/dc/elements/1.1/"
   xmlns:cc="http://creativecommons.org/ns#"
   xmlns:rdf="http://www.w3.org/1999/02/22-rdf-syntax-ns#"
   xmlns:svg="http://www.w3.org/2000/svg"
   xmlns="http://www.w3.org/2000/svg"
   xmlns:sodipodi="http://sodipodi.sourceforge.net/DTD/sodipodi-0.dtd"
   xmlns:inkscape="http://www.inkscape.org/namespaces/inkscape"
   version="1.1"
   id="Layer_2_1_"
   x="0px"
   y="0px"
   viewBox="0 0 213.25 213.25"
   enable-background="new 0 0 3947.9399414 3860.8613281"
   xml:space="preserve"
   sodipodi:docname="tree_farm.svg"
   inkscape:version="0.92.4 (5da689c313, 2019-01-14)"
   width="213.25"
   height="213.25"><metadata
   id="metadata5465"><rdf:RDF><cc:Work
       rdf:about=""><dc:format>image/svg+xml</dc:format><dc:type
         rdf:resource="http://purl.org/dc/dcmitype/StillImage" /><dc:title></dc:title></cc:Work></rdf:RDF></metadata><defs
   id="defs5463" /><sodipodi:namedview
   pagecolor="#ffffff"
   bordercolor="#666666"
   borderopacity="1"
   objecttolerance="10"
   gridtolerance="10"
   guidetolerance="10"
   inkscape:pageopacity="0"
   inkscape:pageshadow="2"
   inkscape:window-width="1920"
   inkscape:window-height="1022"
   id="namedview5461"
   showgrid="false"
   inkscape:zoom="0.21212883"
   inkscape:cx="-1833.6169"
   inkscape:cy="-745.4104"
   inkscape:window-x="1079"
   inkscape:window-y="709"
   inkscape:window-maximized="1"
   inkscape:current-layer="Layer_2_1_" />

























































































<path
   d="M -3.24e-5,2.8999999e-6 V 213.25 H 213.24997 V 2.8999999e-6 Z M 175.45317,186.3515 v 19.06 h -7.1402 v -19.04999 l -28.6699,13.35998 -28.6899,-13.36999 v 19.06 h -7.1402 v -19.04999 l -28.669902,13.35998 -28.6899,-13.36999 v 19.06 h -7.1402 v -19.04999 l -31.6299004,14.73999 2.8599004,-8.08002 28.77,-13.39996 v -2.65003 l -27.6499,12.88001 2.8501,-8.09003 24.7998,-11.53998 v -2.64001 l -23.6699,11.02002 2.8501,-8.08002 20.8198,-9.70001 v -2.63995 l -19.6999,9.16998 2.8601,-8.08002 16.8398,-7.83996 v -2.65003 l -15.7099,7.32001 2.8601,-8.09003 12.8498,-5.98999 v -2.63995 l -11.73,5.46997 2.8601,-8.09003 8.8699,-4.12994 v -2.64002 l -7.7597,3.60999 2.8598,-8.08002 4.8999,-2.27997 v -2.65002 l -3.7798,1.77002 5.9099,-16.70001 c 0.48,-1.37 2.42,-1.37 2.8999,0 l 5.8902,16.69 -3.78,-1.77002 v 2.65002 l 4.9099,2.28998 2.8501,8.08002 -7.76,-3.62 v 2.64002 l 8.8798,4.13995 2.8601,8.09003 -11.7399,-5.47998 v 2.64996 l 12.8598,5.98999 2.8701,8.09003 -15.7299,-7.33002 v 2.65003 l 16.8501,7.84997 2.8598,8.09003 -19.7099,-9.19 v 2.64001 l 20.83,9.70996 2.8499,8.08002 -23.6799,-11.03003 v 2.64001 l 24.8,11.54999 h 0.01 l 2.8499,8.09003 -27.6599,-12.89002 v 2.65003 l 28.6899,13.36999 28.669902,-13.35998 v -2.65003 l -27.649902,12.88001 2.8501,-8.09003 24.799802,-11.53998 v -2.64001 l -23.669902,11.02002 2.8501,-8.08002 20.819802,-9.70001 v -2.63995 l -19.699902,9.16998 2.8601,-8.08002 16.839802,-7.83996 v -2.65003 l -15.709902,7.32001 2.8601,-8.09003 12.849802,-5.98999 v -2.63995 l -11.730002,5.46997 2.8601,-8.09003 8.869902,-4.12994 v -2.64002 l -7.759702,3.60999 2.8598,-8.08002 4.899902,-2.27997 v -2.65002 l -3.7798,1.77002 5.9099,-16.70001 c 0.48,-1.37 2.42,-1.37 2.8999,0 l 5.8902,16.69 -3.78,-1.77002 v 2.65002 l 4.9099,2.28998 2.8501,8.08002 -7.76,-3.62 v 2.64002 l 8.8798,4.13995 2.8601,8.09003 -11.7399,-5.47998 v 2.64996 l 12.8598,5.98999 2.8701,8.09003 -15.7299,-7.33002 v 2.65003 l 16.8501,7.84997 2.8598,8.09003 -19.7099,-9.19 v 2.64001 l 20.83,9.70996 2.8499,8.08002 -23.6799,-11.03003 v 2.64001 l 24.8,11.54999 h 0.01 l 2.8499,8.09003 -27.6599,-12.89002 v 2.65003 l 28.6899,13.36999 28.6699,-13.35998 v -2.65003 l -27.6499,12.88001 2.8501,-8.09003 24.7998,-11.53998 v -2.64001 l -23.6699,11.02002 2.8501,-8.08002 20.8198,-9.70001 v -2.63995 l -19.6999,9.16998 2.8601,-8.08002 16.8398,-7.83996 v -2.65003 l -15.7099,7.32001 2.8601,-8.09003 12.8498,-5.98999 v -2.63995 l -11.73,5.46997 2.8601,-8.09003 8.8699,-4.12994 v -2.64002 l -7.7597,3.60999 2.8598,-8.08002 4.8999,-2.27997 v -2.65002 l -3.7798,1.77002 5.9099,-16.70001 c 0.48,-1.37 2.42,-1.37 2.8999,0 l 5.8902,16.69 -3.78,-1.77002 v 2.65002 l 4.9099,2.28998 2.8501,8.08002 -7.76,-3.62 v 2.64002 l 8.8798,4.13995 2.8601,8.09003 -11.7399,-5.47998 v 2.64996 l 12.8598,5.98999 2.8701,8.09003 -15.7299,-7.33002 v 2.65003 l 16.8501,7.84997 2.8598,8.09003 -19.7099,-9.19 v 2.64001 l 20.83,9.70996 2.8499,8.08002 -23.6799,-11.03003 v 2.64001 l 24.8,11.54999 h 0.01 l 2.8499,8.09003 -27.6599,-12.89002 v 2.65003 l 28.78,13.40997 2.8598,8.08002 z m 0,-97.491517 v 9.06 h -7.1402 v -9.04999 l -28.6699,13.359987 -28.6899,-13.369997 v 9.06 h -7.1402 v -9.04999 L 75.143068,102.22998 46.453168,88.859983 v 9.06 h -7.1402 v -9.04999 l -31.6299004,14.739987 2.8599004,-8.080007 28.77,-13.39997 v -2.65002 l -27.6499,12.88 2.8501,-8.09002 24.7998,-11.53998 v -2.64002 l -23.6699,11.02002 2.8501,-8.08001 20.8198,-9.70002 v -2.63995 l -19.6999,9.16998 2.8601,-8.08001 16.8398,-7.83997 v -2.65002 l -15.7099,7.32 2.8601,-8.09002 12.8498,-5.98999 v -2.63996 l -11.73,5.46997 2.8601,-8.09002 8.8699,-4.12995 v -2.64001 l -7.7597,3.60998 2.8598,-8.08001 4.8999,-2.27997 v -2.65003 l -3.7798,1.77002 5.9099,-16.7000101 c 0.48,-1.37 2.42,-1.37 2.8999,0 l 5.8902,16.6900001 -3.78,-1.77002 v 2.65003 l 4.9099,2.28998 2.8501,8.08001 -7.76,-3.61999 v 2.64001 l 8.8798,4.13996 2.8601,8.09002 -11.7399,-5.47998 v 2.64997 l 12.8598,5.98999 2.8701,8.09002 -15.7299,-7.33001 v 2.65002 l 16.8501,7.84998 2.8598,8.09002 -19.7099,-9.19 v 2.64001 l 20.83,9.70997 2.8499,8.08001 -23.6799,-11.03003 v 2.64002 l 24.8,11.54999 h 0.01 l 2.8499,8.09002 -27.6599,-12.89001 v 2.65002 l 28.6899,13.37 28.669902,-13.35999 v -2.65002 l -27.649902,12.88 2.8501,-8.09002 24.799802,-11.53998 v -2.64002 l -23.669902,11.02002 2.8501,-8.08001 20.819802,-9.70002 v -2.63995 l -19.699902,9.16998 2.8601,-8.08001 16.839802,-7.83997 v -2.65002 l -15.709902,7.32 2.8601,-8.09002 12.849802,-5.98999 v -2.63996 l -11.730002,5.46997 2.8601,-8.09002 8.869902,-4.12995 v -2.64001 l -7.759702,3.60998 2.8598,-8.08001 4.899902,-2.27997 v -2.65003 l -3.7798,1.77002 5.9099,-16.7000101 c 0.48,-1.37 2.42,-1.37 2.8999,0 l 5.8902,16.6900001 -3.78,-1.77002 v 2.65003 l 4.9099,2.28998 2.8501,8.08001 -7.76,-3.61999 v 2.64001 l 8.8798,4.13996 2.8601,8.09002 -11.7399,-5.47998 v 2.64997 l 12.8598,5.98999 2.8701,8.09002 -15.7299,-7.33001 v 2.65002 l 16.8501,7.84998 2.8598,8.09002 -19.7099,-9.19 v 2.64001 l 20.83,9.70997 2.8499,8.08001 -23.6799,-11.03003 v 2.64002 l 24.8,11.54999 h 0.01 l 2.8499,8.09002 -27.6599,-12.89001 v 2.65002 l 28.6899,13.37 28.6699,-13.35999 v -2.65002 l -27.6499,12.88 2.8501,-8.09002 24.7998,-11.53998 v -2.64002 l -23.6699,11.02002 2.8501,-8.08001 20.8198,-9.70002 v -2.63995 l -19.6999,9.16998 2.8601,-8.08001 16.8398,-7.83997 v -2.65002 l -15.7099,7.32 2.8601,-8.09002 12.8498,-5.98999 v -2.63996 l -11.73,5.46997 2.8601,-8.09002 8.8699,-4.12995 v -2.64001 l -7.7597,3.60998 2.8598,-8.08001 4.8999,-2.27997 v -2.65003 l -3.7798,1.77002 5.9099,-16.7000101 c 0.48,-1.37 2.42,-1.37 2.8999,0 l 5.8902,16.6900001 -3.78,-1.77002 v 2.65003 l 4.9099,2.28998 2.8501,8.08001 -7.76,-3.61999 v 2.64001 l 8.8798,4.13996 2.8601,8.09002 -11.7399,-5.47998 v 2.64997 l 12.8598,5.98999 2.8701,8.09002 -15.7299,-7.33001 v 2.65002 l 16.8501,7.84998 2.8598,8.09002 -19.7099,-9.19 v 2.64001 l 20.83,9.70997 2.8499,8.08001 -23.6799,-11.03003 v 2.64002 l 24.8,11.54999 h 0.01 l 2.8499,8.09002 -27.6599,-12.89001 v 2.65002 l 28.78,13.40998 2.8598,8.080007 z"
   id="path4480"
   style="fill:#e2bd4d;fill-opacity:1"
   inkscape:connector-curvature="0" />

























































































</svg>