<?xml version="1.0" encoding="UTF-8" standalone="no"?>
<!-- Generator: Adobe Illustrator 22.1.0, SVG Export Plug-In . SVG Version: 6.00 Build 0)  -->

<svg
   xmlns:dc="http://purl.org/dc/elements/1.1/"
   xmlns:cc="http://creativecommons.org/ns#"
   xmlns:rdf="http://www.w3.org/1999/02/22-rdf-syntax-ns#"
   xmlns:svg="http://www.w3.org/2000/svg"
   xmlns="http://www.w3.org/2000/svg"
   xmlns:sodipodi="http://sodipodi.sourceforge.net/DTD/sodipodi-0.dtd"
   xmlns:inkscape="http://www.inkscape.org/namespaces/inkscape"
   version="1.1"
   id="Layer_2_1_"
   x="0px"
   y="0px"
   viewBox="0 0 212.48 212.48"
   enable-background="new 0 0 3947.9399414 3860.8613281"
   xml:space="preserve"
   sodipodi:docname="clinical_immortality.svg"
   inkscape:version="0.92.4 (5da689c313, 2019-01-14)"
   width="212.48"
   height="212.48"><metadata
   id="metadata5465"><rdf:RDF><cc:Work
       rdf:about=""><dc:format>image/svg+xml</dc:format><dc:type
         rdf:resource="http://purl.org/dc/dcmitype/StillImage" /><dc:title></dc:title></cc:Work></rdf:RDF></metadata><defs
   id="defs5463" /><sodipodi:namedview
   pagecolor="#ffffff"
   bordercolor="#666666"
   borderopacity="1"
   objecttolerance="10"
   gridtolerance="10"
   guidetolerance="10"
   inkscape:pageopacity="0"
   inkscape:pageshadow="2"
   inkscape:window-width="1920"
   inkscape:window-height="1022"
   id="namedview5461"
   showgrid="false"
   inkscape:zoom="0.21212883"
   inkscape:cx="-286.00732"
   inkscape:cy="1052.176"
   inkscape:window-x="1079"
   inkscape:window-y="709"
   inkscape:window-maximized="1"
   inkscape:current-layer="Layer_2_1_" />






























































































































































<g
   id="g5184"
   transform="translate(-1558.2661,-2565.376)"
   style="fill:#e2bd4d;fill-opacity:1">
	<path
   d="m 1677.988,2657.4453 c -0.3202,-0.087 -0.6403,-0.1736 -0.9671,-0.2536 -3.6824,-1.2674 -3.6824,-5.3301 -3.6824,-7.6382 v -35.1426 c 1.2941,0 2.9084,-0.9807 2.9084,-2.8418 v -1.0139 h -23.4815 v 1.0139 c 0,1.8611 1.6144,2.8418 2.9084,2.8418 v 35.1426 c 0,2.3081 0,6.3708 -3.6823,7.6382 -0.3269,0.08 -0.6471,0.1667 -0.9673,0.2536 -17.8982,4.8565 -30.8865,19.1187 -30.8865,35.9028 0,20.7801 19.9061,37.691 44.3684,37.691 24.4623,0 44.3685,-16.9109 44.3685,-37.691 0,-16.7841 -12.9884,-31.0463 -30.8866,-35.9028 z m 10.5181,36.6665 h -7.02 v -2 h -14.19 v 24.96 h 2.25 v 7.02 h -10.08 v -7.02 h 2.25 v -24.96 h -14.19 v 2 h -7.02 v -8.98 h 7.02 v 2 h 12.76 l -3.33,-7.2099 c -1.6499,-3.5801 -2.5101,-7.4702 -2.5101,-11.4102 0,-3.1799 1.1202,-6.06 2.9401,-8.1499 1.82,-2.0801 4.34,-3.3701 7.12,-3.3701 2.78,0 5.3001,1.29 7.12,3.3701 1.8199,2.0899 2.9401,4.97 2.9401,8.1499 0,3.94 -0.8601,7.8301 -2.51,11.4102 l -3.3301,7.2099 h 12.76 v -2 h 7.02 z"
   id="path5178"
   inkscape:connector-curvature="0"
   style="fill:#e2bd4d;fill-opacity:1" />
	<path
   d="m 1664.5061,2565.376 -106.24,106.2397 106.24,106.2403 106.24,-106.2403 z m 0,8.48 34.3001,34.2998 c -10.21,-5.5201 -21.8902,-8.66 -34.3001,-8.66 -12.4199,0 -24.1001,3.1399 -34.3,8.66 z m -97.76,97.7597 34.3,-34.2998 c -5.52,10.1997 -8.6601,21.8799 -8.6601,34.2998 0,12.4199 3.1401,24.1001 8.6702,34.3101 z m 97.76,97.7603 -34.3,-34.3003 c 10.1999,5.5303 21.8801,8.6701 34.3,8.6701 12.4099,0 24.0901,-3.1398 34.3001,-8.6599 z m 19.3855,-33.5752 c -2.3456,0.8188 -4.816,1.2287 -7.3004,1.2287 h -24.1702 c -2.4842,0 -4.9546,-0.4099 -7.3003,-1.2287 -19.3119,-6.7403 -32.9881,-23.2295 -32.9881,-42.4527 0,-20.0527 14.8895,-37.1372 35.5361,-43.2675 v -30.7998 c -1.2941,0 -2.9618,-0.8472 -2.9618,-2.7085 v -11.3206 h 39.5985 v 11.3206 c 0,1.8613 -1.6677,2.7085 -2.9618,2.7085 v 30.7998 c 20.6465,6.1303 35.5362,23.2148 35.5362,43.2675 0,19.2232 -13.6763,35.7124 -32.9882,42.4527 z m 44.0845,-98.4649 34.29,34.2798 -34.29,34.2901 c 5.52,-10.2 8.6599,-21.8799 8.6599,-34.2901 0,-12.4099 -3.1399,-24.0898 -8.6599,-34.2798 z"
   id="path5180"
   inkscape:connector-curvature="0"
   style="fill:#e2bd4d;fill-opacity:1" />
	<path
   d="m 1669.5161,2668.5117 c 0,-1.5 -0.56,-2.8598 -1.47,-3.8501 -0.91,-0.98 -2.16,-1.5798 -3.54,-1.5898 -1.38,0.01 -2.63,0.6098 -3.54,1.5898 -0.9099,0.9903 -1.47,2.3501 -1.47,3.8501 v 0.4302 c 0,3.6599 0.74,7.2898 2.1799,10.6599 l 2.8301,6.6399 2.8301,-6.6399 c 1.4399,-3.3701 2.1799,-7 2.1799,-10.6599 z"
   id="path5182"
   inkscape:connector-curvature="0"
   style="fill:#e2bd4d;fill-opacity:1" />
</g>




















</svg>