<?xml version="1.0" encoding="UTF-8" standalone="no"?>
<!-- Generator: Adobe Illustrator 22.1.0, SVG Export Plug-In . SVG Version: 6.00 Build 0)  -->

<svg
   xmlns:dc="http://purl.org/dc/elements/1.1/"
   xmlns:cc="http://creativecommons.org/ns#"
   xmlns:rdf="http://www.w3.org/1999/02/22-rdf-syntax-ns#"
   xmlns:svg="http://www.w3.org/2000/svg"
   xmlns="http://www.w3.org/2000/svg"
   xmlns:sodipodi="http://sodipodi.sourceforge.net/DTD/sodipodi-0.dtd"
   xmlns:inkscape="http://www.inkscape.org/namespaces/inkscape"
   version="1.1"
   id="Layer_2_1_"
   x="0px"
   y="0px"
   viewBox="0 0 212.47999 212.47998"
   enable-background="new 0 0 3947.9399414 3860.8613281"
   xml:space="preserve"
   sodipodi:docname="the_cyborg_factory.svg"
   inkscape:version="0.92.4 (5da689c313, 2019-01-14)"
   width="212.48"
   height="212.47998"><metadata
   id="metadata5465"><rdf:RDF><cc:Work
       rdf:about=""><dc:format>image/svg+xml</dc:format><dc:type
         rdf:resource="http://purl.org/dc/dcmitype/StillImage" /><dc:title></dc:title></cc:Work></rdf:RDF></metadata><defs
   id="defs5463" /><sodipodi:namedview
   pagecolor="#ffffff"
   bordercolor="#666666"
   borderopacity="1"
   objecttolerance="10"
   gridtolerance="10"
   guidetolerance="10"
   inkscape:pageopacity="0"
   inkscape:pageshadow="2"
   inkscape:window-width="1920"
   inkscape:window-height="1022"
   id="namedview5461"
   showgrid="false"
   inkscape:zoom="0.21212883"
   inkscape:cx="-2453.1997"
   inkscape:cy="-1501.9417"
   inkscape:window-x="1079"
   inkscape:window-y="709"
   inkscape:window-maximized="1"
   inkscape:current-layer="Layer_2_1_" />






































































































<g
   id="g4588"
   transform="translate(-3725.4585,-11.258389)"
   style="fill:#e1561c;fill-opacity:1">
	<path
   d="m 3831.6987,11.258389 -106.2402,106.239991 106.2402,106.23999 106.2398,-106.23999 z m 0,8.47998 34.2998,34.299988 c -10.2099,-5.52002 -21.8901,-8.659973 -34.2998,-8.659973 -12.4199,0 -24.1001,3.139953 -34.3003,8.659973 z m -97.7602,97.760011 34.3003,-34.299985 c -5.52,10.199951 -8.6602,21.879945 -8.6602,34.299985 0,12.41999 3.1402,24.09998 8.6699,34.31 z m 97.7602,97.76001 -34.3003,-34.30005 c 10.2002,5.53003 21.8804,8.67005 34.3003,8.67005 12.4097,0 24.0899,-3.14002 34.2998,-8.66004 z m 0,-33.86999 c -35.2802,0 -63.8799,-28.60004 -63.8799,-63.89002 0,-35.280027 28.5997,-63.880006 63.8799,-63.880006 35.2798,0 63.8799,28.599979 63.8799,63.880006 0,35.28998 -28.6001,63.89002 -63.8799,63.89002 z m 72.1299,-63.89002 c 0,-12.41003 -3.1401,-24.090024 -8.6601,-34.280027 l 34.29,34.280027 -34.29,34.28998 c 5.52,-10.20001 8.6601,-21.88 8.6601,-34.28998 z"
   id="path4572"
   inkscape:connector-curvature="0"
   style="fill:#e1561c;fill-opacity:1" />
	<path
   d="m 3805.0059,93.525055 c 4.6184,0 8.3625,-3.743958 8.3625,-8.362427 0,-4.618408 -3.7441,-8.362366 -8.3625,-8.362366 -4.6184,0 -8.3623,3.743958 -8.3623,8.362366 0,4.618469 3.7439,8.362427 8.3623,8.362427 z m 0,-12.224792 c 2.1298,0 3.8625,1.732665 3.8625,3.862365 0,2.129761 -1.7327,3.862427 -3.8625,3.862427 -2.1297,0 -3.8623,-1.732666 -3.8623,-3.862427 0,-2.1297 1.7326,-3.862365 3.8623,-3.862365 z"
   id="path4574"
   inkscape:connector-curvature="0"
   style="fill:#e1561c;fill-opacity:1" />
	<path
   style="fill:#e1561c;fill-opacity:1"
   d="m 3820.6125,128.01266 h 6.0948 v 11 h -6.0948 z"
   id="rect4576"
   inkscape:connector-curvature="0" />
	<path
   d="m 3821.0244,106.71188 3.418,-3.64843 c -5.5508,-5.201176 -18.3233,-11.130375 -30.9951,-0.36426 l 3.2382,3.81055 c 12.294,-10.445317 23.1426,-0.91797 24.3389,0.20214 z"
   id="path4578"
   inkscape:connector-curvature="0"
   style="fill:#e1561c;fill-opacity:1" />
	<path
   d="m 3877.4463,98.067657 -6.0398,-1.320007 v -7.409973 c 0,-17.100037 -13.8601,-30.950016 -30.95,-30.950016 h -19.7202 c -17.0898,0 -30.9399,13.849979 -30.9399,30.950016 v 7.409973 l -6.0401,1.320007 c -1.9499,0.419983 -3.3398,2.149963 -3.3398,4.140013 v 21.98999 c 0,7 5.6699,12.66999 12.6699,12.66999 0.3999,0 0.77,0.16003 1.0301,0.42999 0.26,0.26001 0.4199,0.61999 0.4199,1.03003 v 12.63 c 0,4.44 1.77,8.69 4.9001,11.82996 l 10.8699,10.86999 c 3.1399,3.13001 7.3899,4.90003 11.8301,4.90003 h 16.9299 c 4.4299,0 8.6899,-1.77002 11.8201,-4.90003 l 10.8698,-10.86999 c 3.1402,-3.13996 4.9002,-7.38996 4.9002,-11.82996 v -12.63 c 0,-0.41004 0.1599,-0.77002 0.4299,-1.03003 0.26,-0.26996 0.6201,-0.42999 1.0301,-0.42999 7,0 12.6699,-5.66999 12.6699,-12.66999 v -21.98999 c 0,-1.99005 -1.3899,-3.72003 -3.3401,-4.140013 z m -28.5098,2.619993 c 5.8198,0 10.6399,4.21997 11.5799,9.76001 h -4.6099 c -0.8601,-3.03003 -3.6502,-5.26001 -6.97,-5.26001 -3.31,0 -6.1001,2.22998 -6.9602,5.26001 h -4.6199 c 0.95,-5.54004 5.7701,-9.76001 11.5801,-9.76001 z m -11.5801,13.76001 h 4.6199 c 0.8601,3.02997 3.6502,5.26001 6.9602,5.26001 3.3198,0 6.1099,-2.23004 6.97,-5.26001 h 4.6099 c -0.94,5.54999 -5.7601,9.76001 -11.5799,9.76001 -5.81,0 -10.6301,-4.21002 -11.5801,-9.76001 z m 3.23,13.56 v 11 h -6.1001 v -11 z m 5.5801,-15.56 c 0,-1.53003 1.24,-2.78003 2.77,-2.78003 1.5398,0 2.7798,1.25 2.7798,2.78003 0,1.53998 -1.24,2.77997 -2.7798,2.77997 -1.53,0 -2.77,-1.23999 -2.77,-2.77997 z m -53.2202,19.41999 c -4.19,0.09 -7.5298,-3.52997 -7.5298,-7.71998 v -19.72003 c 0,-0.93924 0.6548,-1.75142 1.5728,-1.95063 l 3.8671,-0.83935 c 2.2996,-0.49908 3.94,-2.53377 3.94,-4.88679 v -7.423264 c 0,-14.32624 11.6138,-25.939945 25.9399,-25.939945 h 9.8601 v 13.409977 c 4.6199,0 8.3601,3.75 8.3601,8.359986 0,4.620056 -3.7402,8.370056 -8.3601,8.370056 v 56.44006 h -20.9472 c -0.5301,0 -1.0386,0.21042 -1.4136,0.58506 l -1.053,1.05191 v -15.63355 h -5 v 20.62842 l -0.7458,0.74512 c -1.2251,-1.88758 -1.9004,-4.10071 -1.9004,-6.38703 v -12.40002 c 0,-1.5 -0.4199,-3.01001 -1.3499,-4.19 -1.28,-1.64002 -3.1902,-2.53998 -5.2402,-2.5 z m 29.1802,41.69 c -3.1001,0 -6.0801,-1.23999 -8.2801,-3.44 l -9.0603,-9.05188 5.5198,-5.51311 c 0.375,-0.37454 0.8836,-0.58492 1.4133,-0.58492 h 18.8772 v 18.58991 z m 36.9099,-11.27997 -7.7241,-7.72427 c -0.3753,-0.37508 -0.8838,-0.58579 -1.4144,-0.58579 h -19.3012 v -3 h 20.5412 c 0.5306,0 1.0391,0.21071 1.4143,0.58577 l 8.6043,8.60423 z m -2.8401,-68.750001 c -4.6199,0 -8.3699,-3.75 -8.3699,-8.370056 0,-4.609985 3.75,-8.359985 8.3699,-8.359985 4.6101,0 8.3601,3.75 8.3601,8.359985 0,4.620056 -3.75,8.370056 -8.3601,8.370056 z"
   id="path4580"
   inkscape:connector-curvature="0"
   style="fill:#e1561c;fill-opacity:1" />
	<path
   d="m 3822.2363,85.157623 c 0,4.620056 3.74,8.370057 8.3601,8.370057 v -4.5 c 2.1299,0 3.8601,-1.740052 3.8601,-3.870057 0,-2.119995 -1.7302,-3.859985 -3.8601,-3.859985 v -4.5 c -4.6201,0 -8.3601,3.75 -8.3601,8.359985 z"
   id="path4582"
   inkscape:connector-curvature="0"
   style="fill:#e1561c;fill-opacity:1" />
	<path
   d="m 3856.1914,81.300263 c -2.1296,0 -3.8623,1.732665 -3.8623,3.862365 0,2.129761 1.7327,3.862427 3.8623,3.862427 2.1296,0 3.8623,-1.732666 3.8623,-3.862427 0,-2.1297 -1.7327,-3.862365 -3.8623,-3.862365 z"
   id="path4584"
   inkscape:connector-curvature="0"
   style="fill:#e1561c;fill-opacity:1" />
	<path
   d="m 3823.2056,115.03708 c -10.1607,-12.44696 -19.0259,-9.11701 -23.4268,0 h 7.4497 v -4.0669 h 1 v 4.0669 h 2.9639 v -4.0669 h 1 v 4.0669 z"
   id="path4586"
   inkscape:connector-curvature="0"
   style="fill:#e1561c;fill-opacity:1" />
</g>












































































</svg>