<?xml version="1.0" encoding="UTF-8" standalone="no"?>
<!-- Generator: Adobe Illustrator 22.1.0, SVG Export Plug-In . SVG Version: 6.00 Build 0)  -->

<svg
   xmlns:dc="http://purl.org/dc/elements/1.1/"
   xmlns:cc="http://creativecommons.org/ns#"
   xmlns:rdf="http://www.w3.org/1999/02/22-rdf-syntax-ns#"
   xmlns:svg="http://www.w3.org/2000/svg"
   xmlns="http://www.w3.org/2000/svg"
   xmlns:sodipodi="http://sodipodi.sourceforge.net/DTD/sodipodi-0.dtd"
   xmlns:inkscape="http://www.inkscape.org/namespaces/inkscape"
   version="1.1"
   id="Layer_2_1_"
   x="0px"
   y="0px"
   viewBox="0 0 212.47992 212.48"
   enable-background="new 0 0 3947.9399414 3860.8613281"
   xml:space="preserve"
   sodipodi:docname="the_manifold_harmonics.svg"
   inkscape:version="0.92.4 (5da689c313, 2019-01-14)"
   width="212.4799"
   height="212.48"><metadata
   id="metadata5465"><rdf:RDF><cc:Work
       rdf:about=""><dc:format>image/svg+xml</dc:format><dc:type
         rdf:resource="http://purl.org/dc/dcmitype/StillImage" /><dc:title></dc:title></cc:Work></rdf:RDF></metadata><defs
   id="defs5463" /><sodipodi:namedview
   pagecolor="#ffffff"
   bordercolor="#666666"
   borderopacity="1"
   objecttolerance="10"
   gridtolerance="10"
   guidetolerance="10"
   inkscape:pageopacity="0"
   inkscape:pageshadow="2"
   inkscape:window-width="1920"
   inkscape:window-height="1022"
   id="namedview5461"
   showgrid="false"
   inkscape:zoom="0.21212883"
   inkscape:cx="-905.20512"
   inkscape:cy="1052.176"
   inkscape:window-x="1079"
   inkscape:window-y="709"
   inkscape:window-maximized="1"
   inkscape:current-layer="Layer_2_1_" />
































































































































































<g
   id="g5202"
   transform="translate(-2177.4639,-2565.376)"
   style="fill:#e2bd4d;fill-opacity:1">
	<path
   d="m 2283.7039,2565.376 -106.24,106.2397 106.24,106.2403 106.2399,-106.2403 z m 0,8.48 34.3,34.2998 c -10.21,-5.5201 -21.8901,-8.66 -34.3,-8.66 -12.42,0 -24.1001,3.1399 -34.3001,8.66 z m -97.7601,97.7597 34.3001,-34.2998 c -5.52,10.2 -8.6602,21.8799 -8.6602,34.2998 0,12.4202 3.1402,24.1001 8.6702,34.3101 z m 97.7601,97.7603 -34.3001,-34.3003 c 10.2,5.5303 21.8801,8.6701 34.3001,8.6701 12.4099,0 24.09,-3.1398 34.3,-8.6599 z m 0,-33.8701 c -35.2801,0 -63.8799,-28.6001 -63.8799,-63.8902 0,-35.2798 28.5998,-63.8799 63.8799,-63.8799 35.28,0 63.8798,28.6001 63.8798,63.8799 0,35.2901 -28.5998,63.8902 -63.8798,63.8902 z m 72.1298,-63.8902 c 0,-12.4099 -3.1399,-24.0898 -8.6599,-34.2798 l 34.2901,34.2798 -34.2901,34.2901 c 5.52,-10.2 8.6599,-21.8799 8.6599,-34.2901 z"
   id="path5192"
   inkscape:connector-curvature="0"
   style="fill:#e2bd4d;fill-opacity:1" />
	<path
   d="m 2339.7725,2655.0813 c -2.6519,-9.02 -7.4202,-17.1284 -13.7295,-23.7551 -7.6265,-8.0147 -17.5049,-13.865 -28.6182,-16.5291 -4.3982,-1.0698 -8.9966,-1.6286 -13.7236,-1.6286 -4.7276,0 -9.3199,0.5588 -13.7183,1.623 -11.113,2.6697 -20.9914,8.52 -28.6238,16.5347 -6.3093,6.6267 -11.072,14.7351 -13.7238,23.7551 -1.5467,5.239 -2.3755,10.7898 -2.3755,16.5344 0,5.7447 0.8288,11.2954 2.3755,16.5344 2.6518,9.0201 7.4145,17.1287 13.7238,23.7554 7.6324,8.0144 17.5108,13.8653 28.6238,16.5344 4.3984,1.0645 8.9907,1.6231 13.7183,1.6231 4.727,0 9.3254,-0.5586 13.7236,-1.6289 11.1133,-2.6633 20.9917,-8.5142 28.6182,-16.5286 6.3093,-6.6267 11.0776,-14.7353 13.7295,-23.7554 1.5466,-5.239 2.3757,-10.7897 2.3757,-16.5344 0,-5.7446 -0.8291,-11.2954 -2.3757,-16.5344 z m -3.2776,31.116 c -1.6516,-0.6934 -3.4676,-1.0752 -5.3719,-1.0752 -7.6616,0 -13.8708,6.2094 -13.8708,13.8708 0,4.5042 2.1465,8.5025 5.4685,11.0371 5e-4,3e-4 0,3e-4 0,8e-4 -6.8411,6.9484 -15.522,12.0798 -25.2559,14.6001 -2e-4,-5e-4 -2e-4,0 -2e-4,0 -0.8584,-6.8381 -6.6973,-12.1303 -13.7649,-12.1303 -7.0679,0 -12.9009,5.2922 -13.7593,12.1303 -2e-4,8e-4 -2e-4,0 -5e-4,0 -9.7351,-2.5197 -18.4177,-7.6521 -25.26,-14.6018 3.322,-2.5346 5.4683,-6.5329 5.4683,-11.0371 0,-7.6614 -6.2093,-13.8708 -13.8709,-13.8708 -1.904,0 -3.7197,0.3818 -5.3713,1.0749 -1.2798,-4.643 -1.9668,-9.5317 -1.9668,-14.5813 0,-5.0495 0.687,-9.9385 1.9668,-14.5813 1.6516,0.6931 3.4673,1.075 5.3713,1.075 7.6616,0 13.8709,-6.2093 13.8709,-13.8711 0,-4.5039 -2.1463,-8.5083 -5.4683,-11.0364 0,0 0,0 -2e-4,0 6.8427,-6.9502 15.5256,-12.0825 25.2612,-14.6025 0.8545,6.8366 6.6863,12.1269 13.7588,12.1269 7.0717,0 12.9094,-5.2898 13.7639,-12.126 9.7344,2.5201 18.4158,7.6517 25.2571,14.6006 -5e-4,3e-4 0,5e-4 0,0 -3.322,2.5281 -5.4685,6.5325 -5.4685,11.0364 0,7.6618 6.2092,13.8711 13.8708,13.8711 1.9043,0 3.7203,-0.3819 5.3719,-1.075 1.2795,4.6428 1.9665,9.5318 1.9665,14.5813 0,5.0498 -0.687,9.9385 -1.9665,14.5816 z"
   id="path5194"
   inkscape:connector-curvature="0"
   style="fill:#e2bd4d;fill-opacity:1" />
	<path
   d="m 2331.1467,2667.0127 -7.7834,-5.8857 c -5.9136,-4.4712 -9.8316,-11.2557 -10.7476,-18.6133 l -1.2048,-9.6841 c -0.2258,-1.8108 -1.2612,-3.3726 -2.8413,-4.2837 -1.5821,-0.9121 -3.4522,-1.0269 -5.1306,-0.3179 l -8.9876,3.7976 c -6.8293,2.8855 -14.6636,2.8875 -21.4949,0 l -8.9875,-3.7966 c -1.6787,-0.7119 -3.5496,-0.5962 -5.1316,0.3169 -1.5801,0.9121 -2.6155,2.4729 -2.8416,4.2847 l -1.2048,9.6831 c -0.9167,7.3586 -4.833,14.143 -10.7466,18.6133 l -7.7834,5.8857 c -1.4556,1.1006 -2.2901,2.7783 -2.2901,4.6035 0,1.825 0.8345,3.5027 2.2901,4.6033 l 7.7834,5.8847 c 5.9136,4.4712 9.8308,11.2557 10.7466,18.6143 l 1.2048,9.6831 c 0.2261,1.8098 1.2615,3.3709 2.8436,4.2857 1.581,0.9101 3.4509,1.0258 5.1286,0.3169 l 8.9885,-3.7986 c 3.3975,-1.4346 7.013,-2.1629 10.7474,-2.1629 3.7343,0 7.3501,0.7283 10.7475,2.1638 l 8.9876,3.7977 c 0.7282,0.3071 1.4909,0.4592 2.2517,0.4592 0.9944,0 1.9841,-0.2613 2.8799,-0.7781 1.5791,-0.9119 2.6145,-2.4729 2.8403,-4.2844 l 1.2048,-9.6824 c 0.916,-7.3567 4.833,-14.1421 10.7476,-18.6143 l 7.7844,-5.8857 c 1.4548,-1.1016 2.2893,-2.7793 2.2893,-4.6023 0,-1.8252 -0.8345,-3.5029 -2.2903,-4.6035 z m -2.3637,6.0791 -7.7835,5.8857 c -6.7539,5.1077 -11.228,12.855 -12.2729,21.2566 l -1.2051,9.6814 c -0.074,0.5906 -0.397,1.0786 -0.9111,1.3743 -0.5147,0.2986 -1.1006,0.333 -1.646,0.1025 l -8.9876,-3.7966 c -3.8826,-1.6414 -8.0112,-2.4729 -12.2729,-2.4729 -4.2615,0 -8.3902,0.8315 -12.273,2.4719 l -8.9883,3.7976 c -0.5447,0.2315 -1.1303,0.1951 -1.6443,-0.1006 -0.5149,-0.2976 -0.8393,-0.7866 -0.913,-1.3752 l -1.2049,-9.6824 c -1.0461,-8.4026 -5.5193,-16.1508 -12.272,-21.2575 l -7.7834,-5.8848 c -0.4739,-0.3579 -0.7341,-0.8814 -0.7341,-1.4756 0,-0.5945 0.2602,-1.1179 0.7341,-1.4758 l 7.7834,-5.8858 c 6.7527,-5.1057 11.2259,-12.853 12.272,-21.2566 l 1.2049,-9.6823 c 0.074,-0.5896 0.3972,-1.0777 0.9111,-1.3743 0.5149,-0.2966 1.1006,-0.335 1.6462,-0.1013 l 8.9883,3.7974 c 7.8018,3.2951 16.7481,3.2941 24.5459,0 l 8.9885,-3.7984 c 0.5454,-0.2327 1.1311,-0.1963 1.6451,0.1023 0.5141,0.2957 0.8374,0.7839 0.9111,1.3733 l 1.2051,9.6833 c 1.0459,8.4019 5.519,16.1499 12.2729,21.2566 l 7.7835,5.8858 c 0.4736,0.3579 0.7341,0.8813 0.7341,1.4758 0,0.5933 -0.2612,1.1177 -0.7341,1.4756 z"
   id="path5196"
   inkscape:connector-curvature="0"
   style="fill:#e2bd4d;fill-opacity:1" />
	<path
   d="m 2318.093,2668.2427 -5.6369,-4.2627 c -4.2723,-3.231 -7.1021,-8.1319 -7.7635,-13.4473 l -0.8728,-7.0122 c -0.1655,-1.3284 -0.9255,-2.4729 -2.0815,-3.1389 -1.159,-0.6692 -2.5305,-0.7542 -3.7622,-0.2337 l -6.5088,2.7496 c -4.9353,2.0854 -10.5952,2.0835 -15.5269,0 l -6.5088,-2.7486 c -1.2277,-0.5224 -2.601,-0.4365 -3.7609,0.2317 -1.159,0.669 -1.919,1.8145 -2.0826,3.1399 l -0.8728,7.0122 c -0.6623,5.3164 -3.4922,10.2173 -7.7634,13.4473 l -5.637,4.2617 c -1.0671,0.8057 -1.6787,2.0356 -1.6787,3.3745 0,1.3369 0.6116,2.5667 1.6787,3.3735 l 5.637,4.2615 c 4.2712,3.23 7.1011,8.1311 7.7634,13.4473 l 0.8728,7.0112 c 0.1636,1.3264 0.9236,2.4722 2.0835,3.1421 1.158,0.667 2.5284,0.7503 3.7591,0.2324 l 6.5097,-2.7505 c 4.9097,-2.0749 10.6175,-2.0749 15.5269,0 l 6.5088,2.7505 c 0.5342,0.2259 1.094,0.3379 1.6509,0.3379 0.7292,0 1.4538,-0.1924 2.1103,-0.5713 1.158,-0.6682 1.917,-1.8127 2.0825,-3.1401 l 0.8728,-7.0122 c 0.6614,-5.3142 3.4912,-10.2153 7.7635,-13.4473 l 5.6369,-4.2615 c 1.0669,-0.8068 1.6785,-2.0366 1.6785,-3.3735 0,-1.3371 -0.6116,-2.5669 -1.6785,-3.3735 z m -1.7734,4.4023 -5.637,4.2615 c -4.9018,3.7075 -8.1482,9.331 -8.907,15.4285 l -0.8728,7.0122 c -0.052,0.4104 -0.2766,0.7512 -0.6364,0.9577 -0.357,0.2068 -0.7657,0.2317 -1.1456,0.071 l -6.5087,-2.7508 c -2.8196,-1.1904 -5.8169,-1.7944 -8.9082,-1.7944 -3.0911,0 -6.0887,0.604 -8.908,1.7944 l -6.5098,2.7508 c -0.3808,0.1606 -0.7866,0.1357 -1.1455,-0.071 -0.3589,-0.2075 -0.5847,-0.5473 -0.6355,-0.9577 l -0.8728,-7.0122 c -0.76,-6.0992 -4.0061,-11.7227 -8.9079,-15.4285 l -5.636,-4.2615 c -0.3303,-0.25 -0.5122,-0.6155 -0.5122,-1.0288 0,-0.4145 0.1819,-0.779 0.5112,-1.0288 l 5.637,-4.2627 c 4.9018,-3.7056 8.1479,-9.3291 8.9079,-15.4282 l 0.8728,-7.0132 c 0.051,-0.4097 0.2766,-0.7495 0.6345,-0.9561 0.3589,-0.2067 0.7657,-0.2346 1.1465,-0.071 l 6.5098,2.7496 c 5.6619,2.3925 12.1543,2.3906 17.8162,0 l 6.5095,-2.7505 c 0.3821,-0.1619 0.7868,-0.135 1.1467,0.073 0.3579,0.2056 0.5828,0.5454 0.6345,0.9561 l 0.8728,7.0122 c 0.7588,6.0981 4.0052,11.7217 8.907,15.4282 l 5.636,4.2627 c 0.3311,0.2498 0.5129,0.6152 0.5129,1.0288 0,0.4133 -0.1818,0.7788 -0.5119,1.0288 z"
   id="path5198"
   inkscape:connector-curvature="0"
   style="fill:#e2bd4d;fill-opacity:1" />
	<path
   d="m 2306.2593,2669.3921 -3.6961,-2.7957 c -2.7973,-2.114 -4.6501,-5.323 -5.0837,-8.8027 l -0.5723,-4.5986 c -0.1091,-0.8745 -0.6096,-1.6287 -1.3725,-2.0691 -0.7657,-0.4431 -1.669,-0.4995 -2.4805,-0.1541 l -4.2666,1.8032 c -3.2327,1.3628 -6.9375,1.3628 -10.1665,0 l -4.2673,-1.8032 c -0.8125,-0.3445 -1.7161,-0.2881 -2.4798,0.1531 -0.7636,0.4414 -1.2641,1.1956 -1.3733,2.071 l -0.5722,4.5967 c -0.4336,3.4807 -2.2864,6.6897 -5.0838,8.8037 l -3.6941,2.7947 c -0.7036,0.531 -1.1074,1.3416 -1.1074,2.2251 0,0.8814 0.4028,1.6929 1.1065,2.2251 l 3.695,2.7935 c 2.7974,2.115 4.6502,5.3239 5.0838,8.8047 l 0.5722,4.5966 c 0.1092,0.8758 0.6106,1.6309 1.3723,2.0691 0.7647,0.4412 1.6683,0.4986 2.4798,0.1541 l 4.2683,-1.802 c 3.2139,-1.3572 6.9509,-1.3572 10.1665,0 l 4.2666,1.802 c 0.3521,0.1494 0.7214,0.2229 1.0891,0.2229 0.4802,0 0.958,-0.1262 1.3894,-0.375 0.7639,-0.4402 1.2654,-1.1953 1.3745,-2.0711 l 0.5723,-4.5966 c 0.4336,-3.4817 2.2864,-6.6907 5.0837,-8.8047 l 3.6961,-2.7945 c 0.7024,-0.5332 1.1052,-1.3437 1.1052,-2.2241 0,-0.8806 -0.4028,-1.6912 -1.1052,-2.2241 z m -1.1839,2.8852 -3.695,2.7937 c -3.2166,2.4319 -5.347,6.1221 -5.8457,10.1253 l -0.5723,4.5967 c -0.033,0.2641 -0.178,0.4824 -0.4097,0.6164 -0.2277,0.1321 -0.489,0.1492 -0.7358,0.045 l -4.2664,-1.802 c -1.8501,-0.7819 -3.8166,-1.1782 -5.8466,-1.1782 -2.0298,0 -3.9966,0.3963 -5.8455,1.1782 l -4.2683,1.802 c -0.2442,0.1043 -0.5054,0.089 -0.7371,-0.047 -0.2295,-0.1321 -0.374,-0.3504 -0.4077,-0.6145 l -0.5723,-4.5967 c -0.4985,-4.0022 -2.6289,-7.6926 -5.8454,-10.1253 l -3.6951,-2.7937 c -0.2124,-0.1596 -0.3293,-0.3952 -0.3293,-0.6611 0,-0.2671 0.1169,-0.5015 0.3293,-0.6614 l 3.6941,-2.7946 c 3.2175,-2.4317 5.3479,-6.1221 5.8464,-10.1253 l 0.5723,-4.5967 c 0.034,-0.2641 0.1782,-0.4824 0.4097,-0.6162 0.2278,-0.1321 0.49,-0.1494 0.7351,-0.045 l 4.2683,1.8032 c 3.7134,1.5693 7.9749,1.5693 11.6921,0 l 4.2674,-1.8032 c 0.2448,-0.1043 0.5063,-0.087 0.7358,0.046 0.2307,0.1328 0.3753,0.3511 0.4087,0.6143 l 0.5723,4.5986 c 0.4987,4.0022 2.6291,7.6926 5.8457,10.1243 l 3.695,2.7946 c 0.2124,0.1607 0.3291,0.3963 0.3291,0.6614 0,0.2659 -0.1167,0.5005 -0.3291,0.6611 z"
   id="path5200"
   inkscape:connector-curvature="0"
   style="fill:#e2bd4d;fill-opacity:1" />
</g>


















</svg>