<?xml version="1.0" encoding="UTF-8" standalone="no"?>
<!-- Generator: Adobe Illustrator 22.1.0, SVG Export Plug-In . SVG Version: 6.00 Build 0)  -->

<svg
   xmlns:dc="http://purl.org/dc/elements/1.1/"
   xmlns:cc="http://creativecommons.org/ns#"
   xmlns:rdf="http://www.w3.org/1999/02/22-rdf-syntax-ns#"
   xmlns:svg="http://www.w3.org/2000/svg"
   xmlns="http://www.w3.org/2000/svg"
   xmlns:sodipodi="http://sodipodi.sourceforge.net/DTD/sodipodi-0.dtd"
   xmlns:inkscape="http://www.inkscape.org/namespaces/inkscape"
   version="1.1"
   id="Layer_2_1_"
   x="0px"
   y="0px"
   viewBox="0 0 212.48 212.47991"
   enable-background="new 0 0 3947.9399414 3860.8613281"
   xml:space="preserve"
   sodipodi:docname="the_self_aware_colony.svg"
   inkscape:version="0.92.4 (5da689c313, 2019-01-14)"
   width="212.48"
   height="212.4799"><metadata
   id="metadata5465"><rdf:RDF><cc:Work
       rdf:about=""><dc:format>image/svg+xml</dc:format><dc:type
         rdf:resource="http://purl.org/dc/dcmitype/StillImage" /><dc:title></dc:title></cc:Work></rdf:RDF></metadata><defs
   id="defs5463" /><sodipodi:namedview
   pagecolor="#ffffff"
   bordercolor="#666666"
   borderopacity="1"
   objecttolerance="10"
   gridtolerance="10"
   guidetolerance="10"
   inkscape:pageopacity="0"
   inkscape:pageshadow="2"
   inkscape:window-width="1920"
   inkscape:window-height="1022"
   id="namedview5461"
   showgrid="false"
   inkscape:zoom="0.21212883"
   inkscape:cx="-595.60622"
   inkscape:cy="768.38486"
   inkscape:window-x="1079"
   inkscape:window-y="709"
   inkscape:window-maximized="1"
   inkscape:current-layer="Layer_2_1_" />























































































































































<g
   id="g5114"
   transform="translate(-1867.865,-2281.585)"
   style="fill:#d7e6ed;fill-opacity:1">
	<path
   d="m 1974.105,2281.585 -106.24,106.24 106.24,106.2399 106.24,-106.2399 z m 0,8.4799 34.3,34.3001 c -10.2102,-5.52 -21.8901,-8.6599 -34.3,-8.6599 -12.4202,0 -24.1001,3.1399 -34.3001,8.6599 z m -97.76,97.7601 34.2998,-34.2999 c -5.5198,10.2 -8.6599,21.8799 -8.6599,34.2999 0,12.4199 3.1401,24.1 8.6701,34.31 z m 71.1899,-25.42 v 10.0801 h -7.1201 v -10.0801 z m -7.1201,-5.08 v -10.0899 h 7.1201 v 10.0899 z m 33.6929,35.7167 c 17.4148,0.42 32.1298,8.3711 40.1958,16.814 2.6186,2.7378 5.1418,6.5205 5.1418,10.2791 0,5.2133 -4.293,10.403 -8.9148,14.3144 -4.6172,3.9065 -9.5683,6.5393 -10.8801,6.6253 v -14.4002 c 1.0207,-0.8445 2.137,-2.0464 2.9858,-3.1863 0.3006,-0.4055 0.6441,-0.9826 0.9158,-1.5837 0.272,-0.6057 0.4675,-1.2354 0.4675,-1.7361 0,-1.0017 -0.3051,-1.989 -0.9062,-2.7905 -1.9844,-2.6426 -6.115,-6.1055 -12.0535,-8.6287 3.3484,3.9065 5.3755,8.9768 5.3755,14.5242 0,12.3303 -9.9976,22.3279 -22.3276,22.3279 -12.3301,0 -22.3277,-9.9976 -22.3277,-22.3279 0,-5.5474 2.0271,-10.6177 5.3755,-14.5242 -5.9385,2.5232 -10.0691,5.9861 -12.0534,8.6287 -0.6011,0.8015 -0.9063,1.7888 -0.9063,2.7905 0,0.5007 0.1956,1.1304 0.4675,1.7361 0.2718,0.6011 0.6153,1.1782 0.9158,1.5837 0.8489,1.1399 1.9651,2.3418 2.9858,3.1863 v 14.4002 c -1.3117,-0.086 -6.2629,-2.7188 -10.8801,-6.6253 -4.6218,-3.9114 -8.9148,-9.1011 -8.9148,-14.3144 0,-3.7586 2.5232,-7.5413 5.1419,-10.2791 8.0659,-8.4429 22.781,-16.394 40.1958,-16.814 z m 9.5473,-46.7167 v 9.08 h -19.2402 v -9.08 z m -19.2402,-3.92 v -9.08 h 19.2402 v 9.08 z m 19.2402,16.92 v 9.08 h -19.2402 v -9.08 z m 27.7598,32.08 v -10.08 h 7.1201 v 10.08 z m -75.8799,2.0801 h -7.1201 v -10.0801 h 7.1201 z m -1.8799,-18.1001 h -6.1601 v -2.98 h 6.1601 z m 40.45,110.2 -34.3001,-34.3001 c 10.2,5.53 21.8799,8.6702 34.3001,8.6702 12.4099,0 24.0898,-3.1402 34.3,-8.6599 z m 52.3498,-61.1399 v -14.21 h -2.9199 v -7 h 12.5701 c -1.9002,7.72 -5.2102,14.8899 -9.6502,21.21 z m -2.9199,-25.1201 v -27.3199 c 0,-9.8 -5.8201,-17.75 -13,-17.75 -7.1799,0 -13,7.95 -13,17.75 v 9.3199 h -10.8799 v -54.0499 h -25.2402 v 62.1299 h -6.8799 v -61.3701 l -20.99,20.9902 v 19.2999 h -9.9299 v 7 h -7.0801 v 27 h -4.6499 c -1.0901,-4.66 -1.6601,-9.5101 -1.6601,-14.5 0,-28.45 18.6001,-52.5601 44.31,-60.8199 0.5,-0.1701 1,-0.32 1.5,-0.4702 5.73,-1.6899 11.7901,-2.5898 18.0701,-2.5898 35.28,0 63.8799,28.6001 63.8799,63.8799 0,3.9301 -0.3499,7.77 -1.0401,11.5 z m 22.7,-11.5 c 0,-12.41 -3.1399,-24.0899 -8.6599,-34.2798 l 34.29,34.2798 -34.29,34.29 c 5.52,-10.2 8.6599,-21.8799 8.6599,-34.29 z"
   id="path5110"
   inkscape:connector-curvature="0"
   style="fill:#d7e6ed;fill-opacity:1" />
	<path
   d="m 1974.1077,2429.2356 c 3.2912,0 5.9624,-2.6709 5.9624,-5.9624 0,-3.291 -2.6712,-5.9622 -5.9624,-5.9622 -3.2913,0 -5.9624,2.6712 -5.9624,5.9622 0,3.2915 2.6711,5.9624 5.9624,5.9624 z"
   id="path5112"
   inkscape:connector-curvature="0"
   style="fill:#d7e6ed;fill-opacity:1" />
</g>



























</svg>