<?xml version="1.0" encoding="UTF-8" standalone="no"?>
<!-- Generator: Adobe Illustrator 22.1.0, SVG Export Plug-In . SVG Version: 6.00 Build 0)  -->

<svg
   xmlns:dc="http://purl.org/dc/elements/1.1/"
   xmlns:cc="http://creativecommons.org/ns#"
   xmlns:rdf="http://www.w3.org/1999/02/22-rdf-syntax-ns#"
   xmlns:svg="http://www.w3.org/2000/svg"
   xmlns="http://www.w3.org/2000/svg"
   xmlns:sodipodi="http://sodipodi.sourceforge.net/DTD/sodipodi-0.dtd"
   xmlns:inkscape="http://www.inkscape.org/namespaces/inkscape"
   version="1.1"
   id="Layer_2_1_"
   x="0px"
   y="0px"
   viewBox="0 0 212.4853 212.48539"
   enable-background="new 0 0 3947.9399414 3860.8613281"
   xml:space="preserve"
   sodipodi:docname="the_weather_paradigm.svg"
   inkscape:version="0.92.4 (5da689c313, 2019-01-14)"
   width="212.48531"
   height="212.4854"><metadata
   id="metadata5465"><rdf:RDF><cc:Work
       rdf:about=""><dc:format>image/svg+xml</dc:format><dc:type
         rdf:resource="http://purl.org/dc/dcmitype/StillImage" /><dc:title></dc:title></cc:Work></rdf:RDF></metadata><defs
   id="defs5463" /><sodipodi:namedview
   pagecolor="#ffffff"
   bordercolor="#666666"
   borderopacity="1"
   objecttolerance="10"
   gridtolerance="10"
   guidetolerance="10"
   inkscape:pageopacity="0"
   inkscape:pageshadow="2"
   inkscape:window-width="1920"
   inkscape:window-height="1022"
   id="namedview5461"
   showgrid="false"
   inkscape:zoom="0.21212883"
   inkscape:cx="23.594182"
   inkscape:cy="200.80604"
   inkscape:window-x="1079"
   inkscape:window-y="709"
   inkscape:window-maximized="1"
   inkscape:current-layer="Layer_2_1_" />














































<path
   d="M 106.2431,0 0,106.2427 106.2431,212.4854 212.4853,106.2427 Z m -16.4726,146.82 14.87,-14.88 h -27.24 l 18.37,-25 h 23.37 l -12.9501,12.9499 h 21.9501 l -9.83,9.8401 h 20.83 L 99.7304,169.1499 110.5205,146.82 Z M 54.7404,104.69 c 0.39,0 2.02,-2.5501 2.02,-4 h 100.8801 v 4 z M 67.8005,72.5399 c 14.4299,0 26.28,11.11 27.4499,25.23 H 40.3505 c 1.17,-14.12 13.0199,-25.23 27.45,-25.23 z m 102.27,25.23 H 99.9604 C 99.2004,87.08 93.2304,77.83 84.5705,72.55 c 3.9399,-10.4101 13.99,-17.81 25.77,-17.81 14.6199,0 26.58,11.3899 27.49,25.7799 2.0499,-0.49 4.19,-0.7599 6.3899,-0.7599 11.8601,0 21.97,7.5 25.8501,18.0099 z m 8.2999,8.4701 c 0,-12.411 -3.1371,-24.0886 -8.659,-34.2867 l 34.2895,34.2894 -34.2885,34.2888 c 5.5212,-10.1991 8.658,-21.8781 8.658,-34.2915 z M 140.5395,42.7815 c -10.2009,-5.5234 -21.8827,-8.6616 -34.2991,-8.6616 -12.4145,0 -24.0954,3.1388 -34.2956,8.6633 L 106.2431,8.4854 Z M 42.7843,71.9434 c -5.5248,10.2003 -8.6639,21.8816 -8.6639,34.2966 0,12.4173 3.1387,24.1001 8.6629,34.3014 L 8.4843,106.2427 Z m 29.1676,97.7665 c 10.1984,5.5224 21.8768,8.66 34.2885,8.66 12.4136,0 24.0928,-3.137 34.292,-8.6582 l -34.2893,34.2893 z"
   id="path4144"
   inkscape:connector-curvature="0"
   style="fill:#90ae50;fill-opacity:1" />




































































































































</svg>