<?xml version="1.0" encoding="UTF-8" standalone="no"?>
<!-- Generator: Adobe Illustrator 22.1.0, SVG Export Plug-In . SVG Version: 6.00 Build 0)  -->

<svg
   xmlns:dc="http://purl.org/dc/elements/1.1/"
   xmlns:cc="http://creativecommons.org/ns#"
   xmlns:rdf="http://www.w3.org/1999/02/22-rdf-syntax-ns#"
   xmlns:svg="http://www.w3.org/2000/svg"
   xmlns="http://www.w3.org/2000/svg"
   xmlns:sodipodi="http://sodipodi.sourceforge.net/DTD/sodipodi-0.dtd"
   xmlns:inkscape="http://www.inkscape.org/namespaces/inkscape"
   version="1.1"
   id="Layer_2_1_"
   x="0px"
   y="0px"
   viewBox="0 0 212.47999 212.47997"
   enable-background="new 0 0 3947.9399414 3860.8613281"
   xml:space="preserve"
   sodipodi:docname="the_empath_guild.svg"
   inkscape:version="0.92.4 (5da689c313, 2019-01-14)"
   width="212.48"
   height="212.47998"><metadata
   id="metadata5465"><rdf:RDF><cc:Work
       rdf:about=""><dc:format>image/svg+xml</dc:format><dc:type
         rdf:resource="http://purl.org/dc/dcmitype/StillImage" /><dc:title></dc:title></cc:Work></rdf:RDF></metadata><defs
   id="defs5463" /><sodipodi:namedview
   pagecolor="#ffffff"
   bordercolor="#666666"
   borderopacity="1"
   objecttolerance="10"
   gridtolerance="10"
   guidetolerance="10"
   inkscape:pageopacity="0"
   inkscape:pageshadow="2"
   inkscape:window-width="1920"
   inkscape:window-height="1022"
   id="namedview5461"
   showgrid="false"
   inkscape:zoom="0.21212883"
   inkscape:cx="-1214.8039"
   inkscape:cy="-1501.9417"
   inkscape:window-x="1079"
   inkscape:window-y="709"
   inkscape:window-maximized="1"
   inkscape:current-layer="Layer_2_1_" />








































































<g
   id="g4328"
   transform="translate(-2487.0627,-11.258389)"
   style="fill:#90ae50;fill-opacity:1">
	<path
   d="m 2593.3027,11.258389 -106.24,106.239991 106.24,106.23999 106.24,-106.23999 z m 0,8.47998 34.3001,34.299988 c -10.21,-5.52002 -21.8902,-8.659973 -34.3001,-8.659973 -12.4199,0 -24.1001,3.139953 -34.3,8.659973 z m -97.76,97.760011 34.3001,-34.299985 c -5.52,10.199951 -8.6602,21.879945 -8.6602,34.299985 0,12.41999 3.1402,24.09998 8.6702,34.31 z m 97.76,97.76001 -34.3,-34.30005 c 10.1999,5.53003 21.8801,8.67005 34.3,8.67005 12.4099,0 24.0901,-3.14002 34.3001,-8.66004 z m 0,-33.86999 c -35.28,0 -63.8798,-28.60004 -63.8798,-63.89002 0,-35.280027 28.5998,-63.880006 63.8798,-63.880006 35.2801,0 63.8799,28.599979 63.8799,63.880006 0,35.28998 -28.5998,63.89002 -63.8799,63.89002 z m 72.1299,-63.89002 c 0,-12.41003 -3.1399,-24.090024 -8.6599,-34.280027 l 34.29,34.280027 -34.29,34.28998 c 5.52,-10.20001 8.6599,-21.88 8.6599,-34.28998 z"
   id="path4324"
   inkscape:connector-curvature="0"
   style="fill:#90ae50;fill-opacity:1" />
	<path
   d="m 2593.3027,80.56839 c -26.51,-25.650028 -54.32,-3.130005 -54.3401,28.61999 -0.02,26.63001 29.5801,54.06 54.3401,68.18 24.76,-14.12 54.3599,-41.54999 54.3401,-68.18 -0.02,-31.749995 -27.8301,-54.270018 -54.3401,-28.61999 z m 27.95,42.50995 -0.26,0.41003 c -0.5601,0.90998 -1.5601,1.46997 -2.6499,1.46997 h -2.9102 v 19.05005 h -16.8699 v 1.32996 l 10.3001,10.30005 c -4.96,4.12994 -10.23,7.92999 -15.5601,11.25 -8.8598,-5.52002 -17.56,-12.36005 -24.9399,-19.81006 l 7.01,-7.00995 v -13.36005 c -5.1201,-4.09997 -8.3401,-10.09997 -8.3401,-16.76995 0,-12.38001 11.0901,-22.410039 24.78,-22.410039 13.68,0 24.7801,10.030029 24.7801,22.410039 v 2.39996 l 4.7099,8.54004 c 0.3799,0.69 0.3599,1.52997 -0.05,2.19995 z"
   id="path4326"
   inkscape:connector-curvature="0"
   style="fill:#90ae50;fill-opacity:1" />
</g>










































































































</svg>