<?xml version="1.0" encoding="UTF-8" standalone="no"?>
<!-- Generator: Adobe Illustrator 22.1.0, SVG Export Plug-In . SVG Version: 6.00 Build 0)  -->

<svg
   xmlns:dc="http://purl.org/dc/elements/1.1/"
   xmlns:cc="http://creativecommons.org/ns#"
   xmlns:rdf="http://www.w3.org/1999/02/22-rdf-syntax-ns#"
   xmlns:svg="http://www.w3.org/2000/svg"
   xmlns="http://www.w3.org/2000/svg"
   xmlns:sodipodi="http://sodipodi.sourceforge.net/DTD/sodipodi-0.dtd"
   xmlns:inkscape="http://www.inkscape.org/namespaces/inkscape"
   version="1.1"
   id="Layer_2_1_"
   x="0px"
   y="0px"
   viewBox="0 0 212.48 212.48"
   enable-background="new 0 0 3947.9399414 3860.8613281"
   xml:space="preserve"
   sodipodi:docname="the_singularity_inductor.svg"
   inkscape:version="0.92.4 (5da689c313, 2019-01-14)"
   width="212.48"
   height="212.48"><metadata
   id="metadata5465"><rdf:RDF><cc:Work
       rdf:about=""><dc:format>image/svg+xml</dc:format><dc:type
         rdf:resource="http://purl.org/dc/dcmitype/StillImage" /><dc:title></dc:title></cc:Work></rdf:RDF></metadata><defs
   id="defs5463" /><sodipodi:namedview
   pagecolor="#ffffff"
   bordercolor="#666666"
   borderopacity="1"
   objecttolerance="10"
   gridtolerance="10"
   guidetolerance="10"
   inkscape:pageopacity="0"
   inkscape:pageshadow="2"
   inkscape:window-width="1920"
   inkscape:window-height="1022"
   id="namedview5461"
   showgrid="false"
   inkscape:zoom="0.21212883"
   inkscape:cx="1261.9873"
   inkscape:cy="1335.9667"
   inkscape:window-x="1079"
   inkscape:window-y="709"
   inkscape:window-maximized="1"
   inkscape:current-layer="Layer_2_1_" />









































































































































































<g
   id="g5310"
   transform="translate(-10.271509,-2849.1667)"
   style="fill:#d7e6ed;fill-opacity:1">
	<path
   d="m 116.5115,2849.1667 -106.239991,106.24 106.239991,106.24 106.24,-106.24 z m 0,8.48 34.30005,34.2998 c -10.20996,-5.52 -21.89013,-8.6599 -34.30005,-8.6599 -12.41992,0 -24.1001,3.1399 -34.300051,8.6599 z m -97.76001,97.76 34.300048,-34.3 c -5.520019,10.1999 -8.660156,21.8799 -8.660156,34.3 0,12.42 3.140137,24.0999 8.670166,34.3099 z m 97.76001,97.76 -34.300051,-34.3 c 10.199951,5.53 21.880131,8.6699 34.300051,8.6699 12.40992,0 24.09009,-3.1399 34.30005,-8.6599 z m 0,-33.8701 c -35.280032,0 -63.879881,-28.6001 -63.879881,-63.8899 0,-35.28 28.599849,-63.8801 63.879881,-63.8801 35.28003,0 63.87989,28.6001 63.87989,63.8801 0,35.2898 -28.59986,63.8899 -63.87989,63.8899 z m 72.12989,-63.8899 c 0,-12.4101 -3.13989,-24.09 -8.65991,-34.28 l 34.29003,34.28 -34.29003,34.2898 c 5.52002,-10.1999 8.65991,-21.8798 8.65991,-34.2898 z"
   id="path5306"
   inkscape:connector-curvature="0"
   style="fill:#d7e6ed;fill-opacity:1" />
	<path
   d="m 116.50741,2899.1145 c -31.089968,0 -56.289976,25.2002 -56.289976,56.3001 0,31.09 25.200008,56.29 56.289976,56.29 31.09003,0 56.30005,-25.2 56.30005,-56.29 0,-31.0999 -25.21002,-56.3001 -56.30005,-56.3001 z m 0,7 c 5.33002,0 10.46002,0.8501 15.26002,2.4199 -20.28999,6.7002 -42.469983,21.9402 -33.81001,57.5901 -13.619995,-7.2898 -20.649963,-21.98 -24.339966,-34.98 8.479981,-14.9399 24.529969,-25.03 42.889956,-25.03 z m -49.28998,49.3001 c 0,-5.3201 0.849976,-10.45 2.419983,-15.2601 6.710022,20.2901 21.950012,42.46 57.590027,33.8001 -7.28003,13.6399 -21.97998,20.6499 -34.98999,24.3498 -14.929993,-8.4799 -25.02002,-24.5297 -25.02002,-42.8898 z m 36.12,-5.5701 c 7.30999,-0.27 11.88,-6.1099 18.73999,-7.6199 0.27001,7.3201 6.11005,11.8799 7.61005,18.75 -7.32002,0.27 -11.88001,6.0999 -18.74006,7.6101 -0.26996,-7.3201 -6.09997,-11.8801 -7.60998,-18.7402 z m 13.16998,54.8601 c -5.32996,0 -10.45996,-0.8501 -15.25995,-2.4202 20.29999,-6.7099 42.47999,-21.9497 33.81995,-57.5998 13.63001,7.29 20.64002,21.98 24.34003,34.99 -8.47998,14.9299 -24.52997,25.03 -42.90003,25.03 z m -10.70996,-67.8501 c 7.27997,-13.6299 21.96997,-20.6499 34.97999,-24.3399 14.92999,8.48 25.03002,24.5301 25.03002,42.9 0,5.32 -0.85003,10.4399 -2.42004,15.2399 -6.70996,-20.29 -21.94995,-42.4599 -57.58997,-33.8 z"
   id="path5308"
   inkscape:connector-curvature="0"
   style="fill:#d7e6ed;fill-opacity:1" />
</g>









</svg>