<?xml version="1.0" encoding="UTF-8" standalone="no"?>
<!-- Generator: Adobe Illustrator 22.1.0, SVG Export Plug-In . SVG Version: 6.00 Build 0)  -->

<svg
   xmlns:dc="http://purl.org/dc/elements/1.1/"
   xmlns:cc="http://creativecommons.org/ns#"
   xmlns:rdf="http://www.w3.org/1999/02/22-rdf-syntax-ns#"
   xmlns:svg="http://www.w3.org/2000/svg"
   xmlns="http://www.w3.org/2000/svg"
   xmlns:sodipodi="http://sodipodi.sourceforge.net/DTD/sodipodi-0.dtd"
   xmlns:inkscape="http://www.inkscape.org/namespaces/inkscape"
   version="1.1"
   id="Layer_2_1_"
   x="0px"
   y="0px"
   viewBox="0 0 212.47999 212.47994"
   enable-background="new 0 0 3947.9399414 3860.8613281"
   xml:space="preserve"
   sodipodi:docname="the_longevity_vaccine.svg"
   inkscape:version="0.92.4 (5da689c313, 2019-01-14)"
   width="212.48"
   height="212.47993"><metadata
   id="metadata5465"><rdf:RDF><cc:Work
       rdf:about=""><dc:format>image/svg+xml</dc:format><dc:type
         rdf:resource="http://purl.org/dc/dcmitype/StillImage" /><dc:title></dc:title></cc:Work></rdf:RDF></metadata><defs
   id="defs5463" /><sodipodi:namedview
   pagecolor="#ffffff"
   bordercolor="#666666"
   borderopacity="1"
   objecttolerance="10"
   gridtolerance="10"
   guidetolerance="10"
   inkscape:pageopacity="0"
   inkscape:pageshadow="2"
   inkscape:window-width="1920"
   inkscape:window-height="1022"
   id="namedview5461"
   showgrid="false"
   inkscape:zoom="0.21212883"
   inkscape:cx="-2143.6008"
   inkscape:cy="-650.56926"
   inkscape:window-x="1079"
   inkscape:window-y="709"
   inkscape:window-maximized="1"
   inkscape:current-layer="Layer_2_1_" />








































































































<g
   id="g4602"
   transform="translate(-3415.8596,-862.63086)"
   style="fill:#e2bd4d;fill-opacity:1">
	<path
   d="m 3522.0996,862.63086 -106.24,106.23999 106.24,106.23995 106.24,-106.23995 z m 0,8.47998 34.3001,34.29999 c -10.21,-5.52002 -21.8902,-8.65998 -34.3001,-8.65998 -12.4199,0 -24.1001,3.13996 -34.3,8.65998 z m -97.76,97.76001 34.3,-34.29999 c -5.52,10.19995 -8.6601,21.87995 -8.6601,34.29999 0,12.41998 3.1401,24.09998 8.6702,34.30995 z m 97.76,97.76005 -34.3,-34.3001 c 10.1999,5.53 21.8801,8.6701 34.3,8.6701 12.4099,0 24.0901,-3.1401 34.3001,-8.6601 z m 0,-33.87 c -35.28,0 -63.8799,-28.6001 -63.8799,-63.89005 0,-35.28003 28.5999,-63.88001 63.8799,-63.88001 35.28,0 63.8799,28.59998 63.8799,63.88001 0,35.28995 -28.5999,63.89005 -63.8799,63.89005 z m 72.1299,-63.89005 c 0,-12.41003 -3.1399,-24.09003 -8.6599,-34.28003 l 34.29,34.28003 -34.29,34.28995 c 5.52,-10.19998 8.6599,-21.87998 8.6599,-34.28995 z"
   id="path4592"
   inkscape:connector-curvature="0"
   style="fill:#e2bd4d;fill-opacity:1" />
	<path
   d="m 3522.0996,912.31396 c -31.2356,0 -56.5566,25.32142 -56.5566,56.55689 0,31.23545 25.321,56.55685 56.5566,56.55685 31.2356,0 56.5567,-25.3214 56.5567,-56.55685 0,-31.23547 -25.3211,-56.55689 -56.5567,-56.55689 z m 24.5625,81.11939 v 23.24995 h -49.125 v -23.24995 h -23.25 v -49.125 h 23.25 v -23.25 h 49.125 v 23.25 h 23.25 v 49.125 z"
   id="path4594"
   inkscape:connector-curvature="0"
   style="fill:#e2bd4d;fill-opacity:1" />
	<path
   style="fill:#e2bd4d;fill-opacity:1"
   d="m 3522.0981,980.71185 -5.4694,5.72773 -5.4695,5.72778 h 21.8774 l -10.9385,-11.45551 v 6e-5 z"
   id="polygon4596"
   inkscape:connector-curvature="0" />
	<path
   d="m 3499.7061,942.27209 h 1.3066 v 0.032 53.13342 0.032 h -1.3066 v 3.81128 h 44.7871 v -3.81128 h -1.3067 v -0.032 -53.13342 -0.032 h 1.3067 v -3.81127 h -44.7871 z m 38.9775,37.54249 c -1.9099,-5.79926 -4.9766,-9.09498 -8.0979,-10.94379 3.1213,-1.84876 6.188,-5.14441 8.0979,-10.94373 z m -3.7988,-36.22937 c 0,11.61499 -3.139,21.08288 -11.8262,21.7315 v 7.10828 c 8.6872,0.64856 11.8262,10.11645 11.8262,21.73144 h -25.5703 c 0,-11.61334 3.1379,-21.0802 11.8225,-21.73126 v -7.1087 c -8.6846,-0.65106 -11.8225,-10.11786 -11.8225,-21.73126 z m -29.3692,14.34185 c 1.9099,5.79932 4.9766,9.09497 8.0979,10.94373 -3.1213,1.84881 -6.188,5.14453 -8.0979,10.94379 z"
   id="path4598"
   inkscape:connector-curvature="0"
   style="fill:#e2bd4d;fill-opacity:1" />
	<path
   d="m 3516.3882,961.40417 c 0.3974,0.34125 0.8069,0.63141 1.2241,0.87641 0.2085,0.1225 0.4192,0.2337 0.6311,0.33435 0.4241,0.20129 0.8538,0.36029 1.2849,0.48285 0.8623,0.24512 1.7305,0.34442 2.5713,0.34442 0.8408,0 1.709,-0.0993 2.5713,-0.34442 0.4312,-0.12256 0.8608,-0.28156 1.2849,-0.48285 1.6958,-0.80512 3.3003,-2.28668 4.5447,-4.8169 0.311,-0.63256 0.5996,-1.33062 0.8613,-2.10009 v 0 h -18.5244 v 0 c 0.2617,0.76947 0.5503,1.46753 0.8613,2.10009 0.7779,1.58136 1.6961,2.75318 2.6895,3.60614 z"
   id="path4600"
   inkscape:connector-curvature="0"
   style="fill:#e2bd4d;fill-opacity:1" />
</g>










































































</svg>