<?xml version="1.0" encoding="UTF-8" standalone="no"?>
<!-- Generator: Adobe Illustrator 22.1.0, SVG Export Plug-In . SVG Version: 6.00 Build 0)  -->

<svg
   xmlns:dc="http://purl.org/dc/elements/1.1/"
   xmlns:cc="http://creativecommons.org/ns#"
   xmlns:rdf="http://www.w3.org/1999/02/22-rdf-syntax-ns#"
   xmlns:svg="http://www.w3.org/2000/svg"
   xmlns="http://www.w3.org/2000/svg"
   xmlns:sodipodi="http://sodipodi.sourceforge.net/DTD/sodipodi-0.dtd"
   xmlns:inkscape="http://www.inkscape.org/namespaces/inkscape"
   version="1.1"
   id="Layer_2_1_"
   x="0px"
   y="0px"
   viewBox="0 0 212.47991 212.48"
   enable-background="new 0 0 3947.9399414 3860.8613281"
   xml:space="preserve"
   sodipodi:docname="the_bulk_matter_transmitter.svg"
   inkscape:version="0.92.4 (5da689c313, 2019-01-14)"
   width="212.4799"
   height="212.48"><metadata
   id="metadata5465"><rdf:RDF><cc:Work
       rdf:about=""><dc:format>image/svg+xml</dc:format><dc:type
         rdf:resource="http://purl.org/dc/dcmitype/StillImage" /><dc:title></dc:title></cc:Work></rdf:RDF></metadata><defs
   id="defs5463" /><sodipodi:namedview
   pagecolor="#ffffff"
   bordercolor="#666666"
   borderopacity="1"
   objecttolerance="10"
   gridtolerance="10"
   guidetolerance="10"
   inkscape:pageopacity="0"
   inkscape:pageshadow="2"
   inkscape:window-width="1920"
   inkscape:window-height="1022"
   id="namedview5461"
   showgrid="false"
   inkscape:zoom="0.21212883"
   inkscape:cx="-1524.4031"
   inkscape:cy="1903.5483"
   inkscape:window-x="1079"
   inkscape:window-y="709"
   inkscape:window-maximized="1"
   inkscape:current-layer="Layer_2_1_" />






































































































































































<g
   id="g5272"
   transform="translate(-2796.6619,-3416.7483)"
   style="fill:#e2bd4d;fill-opacity:1">
	<path
   d="m 2902.9021,3416.7483 -106.2402,106.24 106.2402,106.24 106.2397,-106.24 z m 0,8.48 34.2998,34.3 c -10.21,-5.52 -21.8901,-8.6601 -34.2998,-8.6601 -12.4199,0 -24.1001,3.1401 -34.3003,8.6601 z m 11.4468,38.0998 c 3.4599,5.0503 6.4599,9.4102 6.4599,18.5801 0,9.1699 -3,13.52 -6.4599,18.5801 -3.7705,5.48 -8.0401,11.7099 -8.0401,23.6699 0,11.96 4.2696,18.1802 8.0401,23.6699 3.4599,5.0503 6.4599,9.4102 6.4599,18.5801 0,9.1699 -3,13.52 -6.4599,18.5801 -0.2168,0.3161 -0.437,0.6423 -0.6563,0.9643 -2.1411,0.3643 -4.3169,0.6224 -6.5249,0.7681 0.3955,-0.5886 0.791,-1.1658 1.1812,-1.7324 3.4599,-5.0601 6.4599,-9.4102 6.4599,-18.5801 0,-9.1699 -3,-13.5298 -6.4599,-18.5801 -3.7705,-5.4897 -8.0401,-11.7099 -8.0401,-23.6699 0,-11.96 4.2696,-18.1899 8.0401,-23.6699 3.4599,-5.0601 6.4599,-9.4102 6.4599,-18.5801 0,-9.1699 -3,-13.5298 -6.4599,-18.5801 -0.8989,-1.3147 -1.8281,-2.6833 -2.7237,-4.1509 2.1456,0.09 4.2627,0.2872 6.3487,0.5835 0.7842,1.2496 1.5908,2.4253 2.375,3.5674 z m -22,84.5 c -3.7705,-5.4897 -8.0401,-11.7099 -8.0401,-23.6699 0,-11.96 4.2696,-18.1899 8.0401,-23.6699 3.4599,-5.0601 6.4599,-9.4102 6.4599,-18.5801 0,-9.1699 -3,-13.5298 -6.4599,-18.5801 -0.6602,-0.9621 -1.336,-1.947 -2.0005,-2.9792 1.8008,-0.3589 3.6299,-0.638 5.4819,-0.8421 0.8316,1.3418 1.6856,2.6053 2.5186,3.8213 3.4599,5.0503 6.4599,9.4102 6.4599,18.5801 0,9.1699 -3,13.52 -6.4599,18.5801 -3.7705,5.48 -8.0401,11.7099 -8.0401,23.6699 0,11.96 4.2696,18.1802 8.0401,23.6699 3.4599,5.0503 6.4599,9.4102 6.4599,18.5801 0,9.1699 -3,13.52 -6.4599,18.5801 -0.3638,0.5322 -0.7339,1.0757 -1.1045,1.6264 -1.8618,-0.1633 -3.6978,-0.4099 -5.5098,-0.7294 0.2051,-0.3008 0.4112,-0.6011 0.6143,-0.897 3.4599,-5.0601 6.4599,-9.4102 6.4599,-18.5801 0,-9.1699 -3,-13.5298 -6.4599,-18.5801 z m -87.2071,-24.8398 34.3003,-34.3001 c -5.52,10.2 -8.6601,21.8802 -8.6601,34.3001 0,12.4199 3.1401,24.1001 8.6699,34.31 z m 33.8804,0 c 0,-27.918 17.916,-51.6375 42.8726,-60.3277 0.1513,0.2212 0.3047,0.4493 0.4541,0.6675 3.4599,5.0503 6.4599,9.4102 6.4599,18.5801 0,9.1699 -3,13.52 -6.4599,18.5801 -3.7705,5.48 -8.0401,11.7099 -8.0401,23.6699 0,11.96 4.2696,18.1802 8.0401,23.6699 3.4599,5.0503 6.4599,9.4102 6.4599,18.5801 0,8.4219 -2.5322,12.7788 -5.6255,17.3535 -25.6269,-8.3115 -44.1611,-32.3689 -44.1611,-60.7734 z m 63.8799,97.76 -34.3003,-34.3001 c 10.2002,5.5301 21.8804,8.67 34.3003,8.67 12.4097,0 24.0898,-3.1399 34.2998,-8.6599 z m 23.0776,-38.1853 c 2.7193,-4.1699 4.8291,-8.4692 4.8291,-16.1548 0,-9.1699 -3,-13.5298 -6.4599,-18.5801 -3.7705,-5.4897 -8.0401,-11.7099 -8.0401,-23.6699 0,-11.96 4.2696,-18.1899 8.0401,-23.6699 3.4599,-5.0601 6.4599,-9.4102 6.4599,-18.5801 0,-9.1699 -3,-13.5298 -6.4599,-18.5801 -0.1519,-0.2229 -0.3062,-0.4492 -0.4595,-0.674 24.9668,8.6845 42.8926,32.4089 42.8926,60.3342 0,27.147 -16.9321,50.3188 -40.8023,59.5747 z m 49.0523,-59.5747 c 0,-12.4102 -3.1402,-24.0901 -8.6602,-34.28 l 34.2901,34.28 -34.2901,34.29 c 5.52,-10.2002 8.6602,-21.8801 8.6602,-34.29 z"
   id="path5266"
   inkscape:connector-curvature="0"
   style="fill:#e2bd4d;fill-opacity:1" />
	<path
   d="m 2874.8191,3493.6882 c -0.7568,1.2908 -1.6309,2.5662 -2.5894,3.9659 -3.9746,5.7766 -8.9209,12.9655 -8.9209,26.5041 0,13.5156 4.9454,20.7153 8.9414,26.5344 0.068,0.099 0.1358,0.1975 0.2027,0.2957 h -14.9243 v -57.3001 h 17.2905 m 7.3296,-5 h -29.6201 v 67.3001 h 28.52 c -1.1997,-3.0601 -2.8902,-5.52 -4.6997,-8.1602 -3.7705,-5.4897 -8.0401,-11.7099 -8.0401,-23.6699 0,-11.96 4.2696,-18.1899 8.0401,-23.6699 2.4795,-3.6201 4.7197,-6.8799 5.7998,-11.8001 z"
   id="path5268"
   inkscape:connector-curvature="0"
   style="fill:#e2bd4d;fill-opacity:1" />
	<path
   d="m 2948.2786,3493.6882 v 57.3001 h -10.0391 c -1.1494,-2.169 -2.46,-4.0808 -3.7407,-5.9492 l -0.027,-0.04 v 0 c -3.6831,-5.362 -7.1617,-10.427 -7.1617,-20.8391 0,-10.4307 3.6397,-15.7202 7.1592,-20.8357 l 0.027,-0.04 v 0 c 1.957,-2.8569 3.9639,-5.7873 5.3804,-9.5901 h 8.3999 m 5,-5 h -17.1299 c -1.0801,4.9202 -3.3203,8.18 -5.7998,11.8001 -3.7705,5.48 -8.0401,11.7099 -8.0401,23.6699 0,11.96 4.2696,18.1802 8.0401,23.6699 1.8095,2.6402 3.5,5.1001 4.6997,8.1602 h 18.23 z"
   id="path5270"
   inkscape:connector-curvature="0"
   style="fill:#e2bd4d;fill-opacity:1" />
</g>












</svg>