<?xml version="1.0" encoding="UTF-8" standalone="no"?>
<!-- Generator: Adobe Illustrator 22.1.0, SVG Export Plug-In . SVG Version: 6.00 Build 0)  -->

<svg
   xmlns:dc="http://purl.org/dc/elements/1.1/"
   xmlns:cc="http://creativecommons.org/ns#"
   xmlns:rdf="http://www.w3.org/1999/02/22-rdf-syntax-ns#"
   xmlns:svg="http://www.w3.org/2000/svg"
   xmlns="http://www.w3.org/2000/svg"
   xmlns:sodipodi="http://sodipodi.sourceforge.net/DTD/sodipodi-0.dtd"
   xmlns:inkscape="http://www.inkscape.org/namespaces/inkscape"
   version="1.1"
   id="Layer_2_1_"
   x="0px"
   y="0px"
   viewBox="0 0 212.47999 212.47998"
   enable-background="new 0 0 3947.9399414 3860.8613281"
   xml:space="preserve"
   sodipodi:docname="the_supercollider.svg"
   inkscape:version="0.92.4 (5da689c313, 2019-01-14)"
   width="212.48"
   height="212.47998"><metadata
   id="metadata5465"><rdf:RDF><cc:Work
       rdf:about=""><dc:format>image/svg+xml</dc:format><dc:type
         rdf:resource="http://purl.org/dc/dcmitype/StillImage" /><dc:title></dc:title></cc:Work></rdf:RDF></metadata><defs
   id="defs5463" /><sodipodi:namedview
   pagecolor="#ffffff"
   bordercolor="#666666"
   borderopacity="1"
   objecttolerance="10"
   gridtolerance="10"
   guidetolerance="10"
   inkscape:pageopacity="0"
   inkscape:pageshadow="2"
   inkscape:window-width="1920"
   inkscape:window-height="1022"
   id="namedview5461"
   showgrid="false"
   inkscape:zoom="0.21212883"
   inkscape:cx="-2143.6008"
   inkscape:cy="-1501.9417"
   inkscape:window-x="1079"
   inkscape:window-y="709"
   inkscape:window-maximized="1"
   inkscape:current-layer="Layer_2_1_" />































































































<g
   id="g4518"
   transform="translate(-3415.8596,-11.258389)"
   style="fill:#d7e6ed;fill-opacity:1">
	<path
   d="m 3522.0996,11.258389 -106.24,106.239991 106.24,106.23999 106.24,-106.23999 z m 0,8.47998 34.2898,34.299988 c -10.21,-5.519959 -21.8799,-8.659973 -34.2898,-8.659973 -12.4202,0 -24.1001,3.140014 -34.3,8.659973 z m -63.4499,132.070011 -34.3101,-34.31 34.2998,-34.299985 c -5.52,10.200012 -8.6599,21.880005 -8.6599,34.299985 0,12.41999 3.1399,24.09003 8.6702,34.29999 z m 63.4499,63.45001 -34.3,-34.29999 c 10.1999,5.52997 21.8798,8.66999 34.3,8.66999 12.4099,0 24.0899,-3.14002 34.3001,-8.66004 z m 61.5398,-133.970029 -26.5498,26.540039 c 0.8599,3.07996 1.3101,6.32001 1.3101,9.66998 0,20.03998 -16.25,36.28998 -36.3001,36.28998 -3.3401,0 -6.5801,-0.44995 -9.6601,-1.29999 l -26.5501,26.54999 -10.23,-10.21997 -4.8799,-4.89001 -10.2299,-10.21998 26.55,-26.55004 c -0.8501,-3.06995 -1.3,-6.31 -1.3,-9.65998 0,-20.049985 16.25,-36.299985 36.3,-36.299985 3.3399,0 6.5798,0.450012 9.6599,1.299988 l 26.5501,-26.539982 25.3298,25.320011 v 0.0099 z m 1.9302,1.929992 34.29,34.280027 -34.29,34.28998 c 5.52,-10.19995 8.6599,-21.88 8.6599,-34.28998 0,-12.40997 -3.1399,-24.090024 -8.6599,-34.280027 z"
   id="path4512"
   inkscape:connector-curvature="0"
   style="fill:#d7e6ed;fill-opacity:1" />
	<path
   d="M 3529.5596,99.478363 V 87.5784 h -14.9202 v 11.909973 l -8.4199,-8.419983 -10.5501,10.54999 8.4202,8.41998 h -11.9102 v 14.91003 h 11.9102 l -8.4202,8.43 -25.6399,25.63 2.8301,2.83002 25.6399,-25.64002 2.8301,-2.82 12.4199,-12.43 h -5.6599 -11.9102 v -6.91003 h 17.5701 l -6.8301,-6.82996 -5.5898,-5.59002 4.8899,-4.900027 5.5901,5.600037 6.8298,6.83002 V 91.5784 h 3.4602 v 19.26001 c 3.6699,0 6.6499,2.97998 6.6499,6.65997 0,3.66999 -2.98,6.65003 -6.6499,6.65003 v 19.25995 h -3.4602 v -11.90998 -5.65997 l -12.4199,12.42999 -2.8301,2.82001 -7.21,7.20996 -15.5998,15.60004 -2.8301,2.82995 2.8301,2.83002 25.6399,-25.64001 v 0 l 0.5263,-0.52631 7.8936,-7.89368 v 11.90998 h 14.9202 v -11.90998 l 8.4199,8.41999 10.55,-10.53998 -8.4299,-8.43 h 11.9099 v -14.91003 h -11.9099 l 8.4299,-8.41998 25.6299,-25.640017 -10.5498,-10.549988 -25.6301,25.640015 z m 13.3049,2.135007 -4.885,-4.895017 -5.5999,5.600037 -6.82,6.83002 v -0.01 l 12.4199,-12.420047 4.8899,4.890017 z"
   id="path4514"
   inkscape:connector-curvature="0"
   style="fill:#d7e6ed;fill-opacity:1" />
	<path
   d="m 3515.4395,117.49838 c 0,3.66999 2.9799,6.65003 6.6601,6.65003 v -13.31 c -3.6802,0 -6.6601,2.97998 -6.6601,6.65997 z"
   id="path4516"
   inkscape:connector-curvature="0"
   style="fill:#d7e6ed;fill-opacity:1" />
</g>



















































































</svg>