<?xml version="1.0" encoding="UTF-8" standalone="no"?>
<!-- Generator: Adobe Illustrator 22.1.0, SVG Export Plug-In . SVG Version: 6.00 Build 0)  -->

<svg
   xmlns:dc="http://purl.org/dc/elements/1.1/"
   xmlns:cc="http://creativecommons.org/ns#"
   xmlns:rdf="http://www.w3.org/1999/02/22-rdf-syntax-ns#"
   xmlns:svg="http://www.w3.org/2000/svg"
   xmlns="http://www.w3.org/2000/svg"
   xmlns:sodipodi="http://sodipodi.sourceforge.net/DTD/sodipodi-0.dtd"
   xmlns:inkscape="http://www.inkscape.org/namespaces/inkscape"
   version="1.1"
   id="Layer_2_1_"
   x="0px"
   y="0px"
   viewBox="0 0 212.4805 212.48"
   enable-background="new 0 0 3947.9399414 3860.8613281"
   xml:space="preserve"
   sodipodi:docname="the_universal_translator.svg"
   inkscape:version="0.92.4 (5da689c313, 2019-01-14)"
   width="212.4805"
   height="212.48"><metadata
   id="metadata5465"><rdf:RDF><cc:Work
       rdf:about=""><dc:format>image/svg+xml</dc:format><dc:type
         rdf:resource="http://purl.org/dc/dcmitype/StillImage" /><dc:title></dc:title></cc:Work></rdf:RDF></metadata><defs
   id="defs5463" /><sodipodi:namedview
   pagecolor="#ffffff"
   bordercolor="#666666"
   borderopacity="1"
   objecttolerance="10"
   gridtolerance="10"
   guidetolerance="10"
   inkscape:pageopacity="0"
   inkscape:pageshadow="2"
   inkscape:window-width="1920"
   inkscape:window-height="1022"
   id="namedview5461"
   showgrid="false"
   inkscape:zoom="0.21212883"
   inkscape:cx="23.591782"
   inkscape:cy="1903.5483"
   inkscape:window-x="1079"
   inkscape:window-y="709"
   inkscape:window-maximized="1"
   inkscape:current-layer="Layer_2_1_" />































































































































<path
   d="M 106.2402,0 0,106.24 106.2402,212.48 212.4805,106.24 Z m 0,8.48 34.2998,34.3 c -10.2099,-5.52 -21.8896,-8.6599 -34.2998,-8.6599 -12.4199,0 -24.1001,3.1399 -34.2998,8.6599 z M 8.48,106.24 42.7803,71.9399 c -5.5201,10.2 -8.6602,21.8802 -8.6602,34.3001 0,12.4199 3.1401,24.1001 8.6699,34.31 z M 106.2402,204 71.9404,169.6999 c 10.1997,5.5301 21.8799,8.67 34.2998,8.67 12.4102,0 24.0899,-3.1399 34.2998,-8.6599 z m 27.2378,-46.3733 -8.3403,-89.708 -18.3975,-18.3879 v 114.8547 c -0.1675,0 -0.3325,0.013 -0.5,0.013 -0.1675,0 -0.3325,-0.011 -0.5,-0.013 V 49.5261 l -18.3926,18.3926 -8.3491,89.706 C 60.6099,147.8552 48.082,128.5144 48.082,106.24 c 0,-32.1199 26.0386,-58.158 58.1582,-58.158 32.1197,0 58.1582,26.0381 58.1582,58.158 0,22.2761 -12.5298,41.6179 -30.9204,51.3867 z M 169.71,71.96 204,106.24 169.71,140.53 c 5.5205,-10.2002 8.6601,-21.8801 8.6601,-34.29 0,-12.4102 -3.1396,-24.0901 -8.6601,-34.28 z"
   id="path4866"
   inkscape:connector-curvature="0"
   style="fill:#d7e6ed;fill-opacity:1" />



















































</svg>