<?xml version="1.0" encoding="UTF-8" standalone="no"?>
<!-- Generator: Adobe Illustrator 22.1.0, SVG Export Plug-In . SVG Version: 6.00 Build 0)  -->

<svg
   xmlns:dc="http://purl.org/dc/elements/1.1/"
   xmlns:cc="http://creativecommons.org/ns#"
   xmlns:rdf="http://www.w3.org/1999/02/22-rdf-syntax-ns#"
   xmlns:svg="http://www.w3.org/2000/svg"
   xmlns="http://www.w3.org/2000/svg"
   xmlns:sodipodi="http://sodipodi.sourceforge.net/DTD/sodipodi-0.dtd"
   xmlns:inkscape="http://www.inkscape.org/namespaces/inkscape"
   version="1.1"
   id="Layer_2_1_"
   x="0px"
   y="0px"
   viewBox="0 0 212.47999 212.47999"
   enable-background="new 0 0 3947.9399414 3860.8613281"
   xml:space="preserve"
   sodipodi:docname="the_xenoempathy_dome.svg"
   inkscape:version="0.92.4 (5da689c313, 2019-01-14)"
   width="212.48"
   height="212.48"><metadata
   id="metadata5465"><rdf:RDF><cc:Work
       rdf:about=""><dc:format>image/svg+xml</dc:format><dc:type
         rdf:resource="http://purl.org/dc/dcmitype/StillImage" /><dc:title></dc:title></cc:Work></rdf:RDF></metadata><defs
   id="defs5463" /><sodipodi:namedview
   pagecolor="#ffffff"
   bordercolor="#666666"
   borderopacity="1"
   objecttolerance="10"
   gridtolerance="10"
   guidetolerance="10"
   inkscape:pageopacity="0"
   inkscape:pageshadow="2"
   inkscape:window-width="1920"
   inkscape:window-height="1022"
   id="namedview5461"
   showgrid="false"
   inkscape:zoom="0.21212883"
   inkscape:cx="-1834.0019"
   inkscape:cy="484.59414"
   inkscape:window-x="1079"
   inkscape:window-y="709"
   inkscape:window-maximized="1"
   inkscape:current-layer="Layer_2_1_" />






























































































<g
   id="g4510"
   transform="translate(-3106.2607,-1997.7942)"
   style="fill:#90ae50;fill-opacity:1">
	<path
   d="m 3212.5007,1997.7942 -106.24,106.24 106.24,106.24 106.24,-106.24 z m 0,8.48 34.3001,34.3 c -10.21,-5.52 -21.8902,-8.66 -34.3001,-8.66 -12.4199,0 -24.1001,3.14 -34.3,8.66 z m -97.76,97.76 34.3001,-34.3001 c -5.52,10.2 -8.6602,21.8802 -8.6602,34.3001 0,12.4199 3.1402,24.1001 8.6702,34.31 z m 97.76,97.76 -34.3,-34.3001 c 10.1999,5.5301 21.8801,8.67 34.3,8.67 12.4099,0 24.0901,-3.1399 34.3001,-8.6599 z m 54.99,-52.135 h -109.98 v -56.8794 c 0,-30.3245 24.6685,-54.9956 54.99,-54.9956 30.3216,0 54.99,24.6711 54.99,54.9956 z m 8.48,-79.905 34.29,34.28 -34.29,34.29 c 5.52,-10.2002 8.6599,-21.8801 8.6599,-34.29 0,-12.4102 -3.1399,-24.0901 -8.6599,-34.28 z"
   id="path4504"
   inkscape:connector-curvature="0"
   style="fill:#90ae50;fill-opacity:1" />
	<path
   d="m 3212.5007,2064.6467 c -18.4358,0 -33.3811,14.9453 -33.3811,33.3811 0,18.4361 14.9453,33.3814 33.3811,33.3814 18.4358,0 33.3811,-14.9453 33.3811,-33.3814 0,-18.4358 -14.9453,-33.3811 -33.3811,-33.3811 z m 0,61.6856 c -12.2053,-6.7093 -26.8,-19.7525 -26.7876,-32.4119 0.013,-15.0937 13.5384,-26.6184 26.7876,-11.2275 13.2454,-15.3909 26.7752,-3.8662 26.7876,11.2275 0.01,12.6594 -14.5822,25.7026 -26.7876,32.4119 z"
   id="path4506"
   inkscape:connector-curvature="0"
   style="fill:#90ae50;fill-opacity:1" />
	<path
   d="m 3212.5005,2051.9092 c -25.4297,0 -46.1182,20.6885 -46.1182,46.1191 0,25.4297 20.6885,46.1182 46.1182,46.1182 25.4307,0 46.1191,-20.6885 46.1191,-46.1182 0,-25.4306 -20.6884,-46.1191 -46.1191,-46.1191 z m 0,84.2373 c -21.0186,0 -38.1182,-17.0996 -38.1182,-38.1182 0,-21.0185 17.0996,-38.1191 38.1182,-38.1191 21.0185,0 38.1191,17.1006 38.1191,38.1191 0,21.0186 -17.1006,38.1182 -38.1191,38.1182 z"
   id="path4508"
   inkscape:connector-curvature="0"
   style="fill:#90ae50;fill-opacity:1" />
</g>




















































































</svg>