<?xml version="1.0" encoding="UTF-8" standalone="no"?>
<!-- Generator: Adobe Illustrator 22.1.0, SVG Export Plug-In . SVG Version: 6.00 Build 0)  -->

<svg
   xmlns:dc="http://purl.org/dc/elements/1.1/"
   xmlns:cc="http://creativecommons.org/ns#"
   xmlns:rdf="http://www.w3.org/1999/02/22-rdf-syntax-ns#"
   xmlns:svg="http://www.w3.org/2000/svg"
   xmlns="http://www.w3.org/2000/svg"
   xmlns:sodipodi="http://sodipodi.sourceforge.net/DTD/sodipodi-0.dtd"
   xmlns:inkscape="http://www.inkscape.org/namespaces/inkscape"
   version="1.1"
   id="Layer_2_1_"
   x="0px"
   y="0px"
   viewBox="0 0 212.48539 212.48539"
   enable-background="new 0 0 3947.9399414 3860.8613281"
   xml:space="preserve"
   sodipodi:docname="the_virtual_world.svg"
   inkscape:version="0.92.4 (5da689c313, 2019-01-14)"
   width="212.4854"
   height="212.4854"><metadata
   id="metadata5465"><rdf:RDF><cc:Work
       rdf:about=""><dc:format>image/svg+xml</dc:format><dc:type
         rdf:resource="http://purl.org/dc/dcmitype/StillImage" /><dc:title></dc:title></cc:Work></rdf:RDF></metadata><defs
   id="defs5463" /><sodipodi:namedview
   pagecolor="#ffffff"
   bordercolor="#666666"
   borderopacity="1"
   objecttolerance="10"
   gridtolerance="10"
   guidetolerance="10"
   inkscape:pageopacity="0"
   inkscape:pageshadow="2"
   inkscape:window-width="1920"
   inkscape:window-height="1022"
   id="namedview5461"
   showgrid="false"
   inkscape:zoom="0.21212883"
   inkscape:cx="-286.00462"
   inkscape:cy="484.59684"
   inkscape:window-x="1079"
   inkscape:window-y="709"
   inkscape:window-maximized="1"
   inkscape:current-layer="Layer_2_1_" />






















































<path
   d="M 106.2432,0 0,106.2427 106.2432,212.4854 212.4854,106.2427 Z m 72.1295,106.2383 c 0,-12.4094 -3.1373,-24.0855 -8.6588,-34.2827 l 34.2871,34.2871 -34.29,34.2903 c 5.5234,-10.2 8.6617,-21.8802 8.6617,-34.2947 z m -72.13,63.8899 c -35.28,0 -63.88,-28.5999 -63.88,-63.8899 0,-35.28 28.6,-63.8801 63.88,-63.8801 35.28,0 63.88,28.6001 63.88,63.8801 0,35.29 -28.6,63.8899 -63.88,63.8899 z M 140.5381,42.7803 c -10.2008,-5.5237 -21.8818,-8.6621 -34.2954,-8.6621 -12.415,0 -24.0962,3.1389 -34.2966,8.6638 L 106.2432,8.4854 Z M 42.787,71.9407 c -5.5251,10.2004 -8.6643,21.8821 -8.6643,34.2976 0,12.4206 3.1401,24.1064 8.6671,34.3096 L 8.4844,106.2427 Z m 29.159,97.7634 c 10.2003,5.5252 21.8817,8.6641 34.2967,8.6641 12.4136,0 24.0947,-3.1385 34.2957,-8.6624 l -34.2952,34.2952 z m 34.2967,-6.8086 c -31.2383,0 -56.6523,-25.4141 -56.6523,-56.6523 0,-31.2383 25.414,-56.6534 56.6523,-56.6534 31.2383,0 56.6523,25.4151 56.6523,56.6534 0,31.2382 -25.414,56.6523 -56.6523,56.6523 z m 0,-110.3057 c -29.584,0 -53.6523,24.0684 -53.6523,53.6534 0,29.584 24.0683,53.6523 53.6523,53.6523 29.584,0 53.6523,-24.0683 53.6523,-53.6523 0,-29.585 -24.0683,-53.6534 -53.6523,-53.6534 z m 3.5,87.087 h 8.9668 c 1.1046,0 2,0.8955 2,2 v 7.7036 c -4.0942,1.3725 -8.446,2.1777 -12.9668,2.3244 v -10.028 c 0,-1.1045 0.8954,-2 2,-2 z m -17.9668,-5 V 125.71 c 0,-1.1045 0.8954,-2 2,-2 h 8.9668 c 1.1046,0 2,0.8955 2,2 v 8.9668 c 0,1.1045 -0.8954,2 -2,2 h -8.9668 c -1.1046,0 -2,-0.8955 -2,-2 z m 15.9668,0 V 125.71 c 0,-1.1045 0.8954,-2 2,-2 h 8.9668 c 1.1046,0 2,0.8955 2,2 v 8.9668 c 0,1.1045 -0.8954,2 -2,2 h -8.9668 c -1.1046,0 -2,-0.8955 -2,-2 z m 12.9668,-56.8682 v 8.9668 c 0,1.1045 -0.8954,2 -2,2 h -8.9668 c -1.1046,0 -2,-0.8955 -2,-2 v -8.9668 c 0,-1.1045 0.8954,-2 2,-2 h 8.9668 c 1.1046,0 2,0.8955 2,2 z m -15.9668,0 v 8.9668 c 0,1.1045 -0.8954,2 -2,2 h -8.9668 c -1.1046,0 -2,-0.8955 -2,-2 v -8.9668 c 0,-1.1045 0.8954,-2 2,-2 h 8.9668 c 1.1046,0 2,0.8955 2,2 z m -15.9668,0 v 8.9668 c 0,1.1045 -0.8954,2 -2,2 h -8.9668 c -1.1046,0 -2,-0.8955 -2,-2 v -8.9668 c 0,-1.1045 0.8954,-2 2,-2 h 8.9668 c 1.1046,0 2,0.8955 2,2 z m -12.9668,24.9346 v -8.9678 c 0,-1.1045 0.8954,-2 2,-2 h 8.9668 c 1.1046,0 2,0.8955 2,2 v 8.9678 c 0,1.1045 -0.8954,2 -2,2 h -8.9668 c -1.1046,0 -2,-0.8955 -2,-2 z m 10.9668,36.9336 c 1.1046,0 2,0.8955 2,2 v 6.5864 c -4.7916,-1.9942 -9.1685,-4.782 -12.9668,-8.2024 v -0.384 z m 38.9336,0 h 10.9678 v 0.3833 c -3.7985,3.4206 -8.1758,6.2089 -12.9678,8.2031 v -6.5864 c 0,-1.1045 0.8954,-2 2,-2 z M 75.8091,118.71 v -8.9668 c 0,-1.1045 0.8954,-2 2,-2 h 8.9668 c 1.1046,0 2,0.8955 2,2 v 8.9668 c 0,1.1045 -0.8954,2 -2,2 h -8.9668 c -1.1046,0 -2,-0.8955 -2,-2 z m 17.9668,20.9668 h 8.9668 c 1.1046,0 2,0.8955 2,2 v 10.028 c -4.5207,-0.1467 -8.8726,-0.9519 -12.9668,-2.3244 v -7.7036 c 0,-1.1045 0.8954,-2 2,-2 z m -17.9668,-5 V 125.71 c 0,-1.1045 0.8954,-2 2,-2 h 8.9668 c 1.1046,0 2,0.8955 2,2 v 8.9668 c 0,1.1045 -0.8954,2 -2,2 h -8.9668 c -1.1046,0 -2,-0.8955 -2,-2 z M 86.7759,72.8086 H 75.8091 v -0.384 c 3.7983,-3.4202 8.1752,-6.2083 12.9668,-8.2024 v 6.5864 c 0,1.1045 -0.8954,2 -2,2 z m 15.9668,0 h -8.9668 c -1.1046,0 -2,-0.8955 -2,-2 v -7.7034 c 4.0942,-1.3728 8.4461,-2.1777 12.9668,-2.3244 v 10.0278 c 0,1.1045 -0.8954,2 -2,2 z m 15.9668,0 h -8.9668 c -1.1046,0 -2,-0.8955 -2,-2 V 60.7808 c 4.5208,0.1467 8.8726,0.9516 12.9668,2.3244 v 7.7034 c 0,1.1045 -0.8954,2 -2,2 z m 7,0 c -1.1046,0 -2,-0.8955 -2,-2 v -6.5864 c 4.792,1.9941 9.1693,4.7824 12.9678,8.2031 v 0.3833 z M 64.2224,88.7754 c 1.9942,-4.7915 4.7823,-9.1685 8.2027,-12.9668 h 0.384 v 10.9668 c 0,1.1045 -0.8954,2 -2,2 z m 6.5867,15.9678 H 60.7805 c 0.1468,-4.521 0.9519,-8.8731 2.3249,-12.9678 h 7.7037 c 1.1046,0 2,0.8955 2,2 v 8.9678 c 0,1.1045 -0.8954,2 -2,2 z m 1.6157,31.9336 c -3.4204,-3.7984 -6.2082,-8.1753 -8.2024,-12.9668 h 6.5867 c 1.1046,0 2,0.8955 2,2 v 10.9668 z M 70.8091,120.71 h -7.7038 c -1.3726,-4.0943 -2.1778,-8.4461 -2.3246,-12.9668 h 10.0284 c 1.1046,0 2,0.8955 2,2 v 8.9668 c 0,1.1045 -0.8954,2 -2,2 z m 52.9004,-17.9668 v -8.9678 c 0,-1.1045 0.8954,-2 2,-2 h 8.9678 c 1.1046,0 2,0.8955 2,2 v 8.9678 c 0,1.1045 -0.8954,2 -2,2 h -8.9678 c -1.1046,0 -2,-0.8955 -2,-2 z m 0,31.9336 V 125.71 c 0,-1.1045 0.8954,-2 2,-2 h 8.9678 c 1.1046,0 2,0.8955 2,2 v 8.9668 c 0,1.1045 -0.8954,2 -2,2 h -8.9678 c -1.1046,0 -2,-0.8955 -2,-2 z m 0,-15.9668 v -8.9668 c 0,-1.1045 0.8954,-2 2,-2 h 8.9678 c 1.1046,0 2,0.8955 2,2 v 8.9668 c 0,1.1045 -0.8954,2 -2,2 h -8.9678 c -1.1046,0 -2,-0.8955 -2,-2 z m 12.9678,-40.9014 v 8.9668 c 0,1.1045 -0.8954,2 -2,2 h -8.9678 c -1.1046,0 -2,-0.8955 -2,-2 v -8.9668 c 0,-1.1045 0.8954,-2 2,-2 h 8.9678 c 1.1046,0 2,0.8955 2,2 z m 3,8.9668 V 75.8086 h 0.383 c 3.4204,3.7983 6.2085,8.1753 8.2027,12.9668 h -6.5857 c -1.1046,0 -2,-0.8955 -2,-2 z m 2,5 h 7.7027 c 1.373,4.0947 2.1781,8.4468 2.3249,12.9678 h -10.0276 c -1.1046,0 -2,-0.8955 -2,-2 v -8.9678 c 0,-1.1045 0.8954,-2 2,-2 z m 6.5857,31.9346 c -1.9942,4.7915 -4.782,9.1684 -8.2024,12.9668 h -0.3833 V 125.71 c 0,-1.1045 0.8954,-2 2,-2 z m -6.5857,-15.9668 h 10.0274 c -0.1468,4.5207 -0.952,8.8725 -2.3245,12.9668 h -7.7029 c -1.1046,0 -2,-0.8955 -2,-2 v -8.9668 c 0,-1.1045 0.8954,-2 2,-2 z"
   id="path4160"
   inkscape:connector-curvature="0"
   style="fill:#d7e6ed;fill-opacity:1" />




























































































































</svg>