<?xml version="1.0" encoding="UTF-8" standalone="no"?>
<!-- Generator: Adobe Illustrator 22.1.0, SVG Export Plug-In . SVG Version: 6.00 Build 0)  -->

<svg
   xmlns:dc="http://purl.org/dc/elements/1.1/"
   xmlns:cc="http://creativecommons.org/ns#"
   xmlns:rdf="http://www.w3.org/1999/02/22-rdf-syntax-ns#"
   xmlns:svg="http://www.w3.org/2000/svg"
   xmlns="http://www.w3.org/2000/svg"
   xmlns:sodipodi="http://sodipodi.sourceforge.net/DTD/sodipodi-0.dtd"
   xmlns:inkscape="http://www.inkscape.org/namespaces/inkscape"
   version="1.1"
   id="Layer_2_1_"
   x="0px"
   y="0px"
   viewBox="0 0 212.48561 212.48531"
   enable-background="new 0 0 3947.9399414 3860.8613281"
   xml:space="preserve"
   sodipodi:docname="the_voice_of_planet.svg"
   inkscape:version="0.92.4 (5da689c313, 2019-01-14)"
   width="212.4856"
   height="212.48531"><metadata
   id="metadata5465"><rdf:RDF><cc:Work
       rdf:about=""><dc:format>image/svg+xml</dc:format><dc:type
         rdf:resource="http://purl.org/dc/dcmitype/StillImage" /><dc:title></dc:title></cc:Work></rdf:RDF></metadata><defs
   id="defs5463" /><sodipodi:namedview
   pagecolor="#ffffff"
   bordercolor="#666666"
   borderopacity="1"
   objecttolerance="10"
   gridtolerance="10"
   guidetolerance="10"
   inkscape:pageopacity="0"
   inkscape:pageshadow="2"
   inkscape:window-width="1920"
   inkscape:window-height="1022"
   id="namedview5461"
   showgrid="false"
   inkscape:zoom="0.21212883"
   inkscape:cx="642.79228"
   inkscape:cy="1335.9694"
   inkscape:window-x="1079"
   inkscape:window-y="709"
   inkscape:window-maximized="1"
   inkscape:current-layer="Layer_2_1_" />










































































































































































<path
   d="M 106.2428,0 0,106.2426 106.2428,212.4853 212.4856,106.2426 Z m 65.1297,106.2424 c 0,11.48 -2.9977,22.2688 -8.2341,31.6453 L 115.6467,90.396 c -0.9548,-0.9551 -1.164,-2.3831 -0.6445,-3.6297 0.01,-0.018 0.015,-0.036 0.023,-0.054 0.5099,-1.2454 1.6702,-2.0996 3.0159,-2.0996 h 49.6234 c 2.3928,6.7722 3.7084,14.0488 3.7084,21.6301 z M 104.742,71.3142 c 0,1.3457 -0.8542,2.5058 -2.0996,3.0158 -0.018,0.01 -0.036,0.015 -0.054,0.023 -1.2464,0.5193 -2.6746,0.3101 -3.6294,-0.6445 L 74.6032,49.3525 c 8.9633,-5.0044 19.2225,-7.9426 30.1391,-8.1914 z m 3,-30.1536 c 10.9164,0.2485 21.1764,3.1865 30.1408,8.1907 L 113.5257,73.708 c -0.9549,0.9548 -2.383,1.164 -3.6295,0.6445 -0.018,-0.01 -0.036,-0.015 -0.055,-0.023 -1.2454,-0.51 -2.0995,-1.6704 -2.0995,-3.0161 z m 10.2984,40.4517 c -1.3457,0 -2.506,-0.8543 -3.0158,-2.0996 -0.01,-0.018 -0.015,-0.036 -0.022,-0.054 -0.5195,-1.2466 -0.3103,-2.6746 0.6445,-3.6296 l 24.905,-24.9046 c 11.5789,7.2056 20.7376,17.9378 25.9683,30.6878 H 118.0408 Z M 106.2428,8.4851 140.5468,42.789 c -10.203,-5.5266 -21.8872,-8.6665 -34.3044,-8.6665 -12.4183,0 -24.1029,3.1406 -34.3052,8.6682 z M 71.9342,50.9257 96.8373,75.8288 c 0.955,0.9549 1.164,2.3831 0.6445,3.6297 -0.01,0.018 -0.015,0.036 -0.023,0.054 -0.5099,1.2454 -1.6702,2.0994 -3.0158,2.0994 H 45.9728 C 51.2018,68.8624 60.3574,58.1307 71.9337,50.9253 Z M 44.8297,84.6123 h 49.6136 c 1.3457,0 2.5059,0.854 3.0158,2.0996 0.01,0.018 0.015,0.036 0.023,0.055 0.5196,1.2465 0.3105,2.6748 -0.6445,3.6296 l -47.4863,47.4861 c -5.2331,-9.3753 -8.2285,-20.1621 -8.2285,-31.6399 0,-7.5813 1.3152,-14.8579 3.7073,-21.6301 z M 8.4852,106.2426 42.7907,71.9372 c -5.5276,10.2024 -8.6682,21.887 -8.6682,34.3052 0,12.4167 3.1397,24.1008 8.6661,34.3035 z m 97.7576,97.7576 -34.2905,-34.2905 c 10.1988,5.5239 21.8777,8.6628 34.2901,8.6628 12.4112,0 24.0899,-3.1382 34.2892,-8.6611 z m -4e-4,-32.6277 c -23.3268,0 -43.816,-12.3371 -55.3182,-30.8213 L 98.9584,92.5173 c 0.9549,-0.9548 2.383,-1.1641 3.6295,-0.6445 0.018,0.01 0.036,0.015 0.055,0.022 1.2453,0.51 2.0995,1.6702 2.0995,3.0159 v 16.5962 c -19.343,0.5154 -36.2039,10.9541 -45.6796,26.415 9.7201,15.8701 27.2101,26.4502 47.1801,26.4502 19.9701,0 37.4601,-10.5801 47.18,-26.4502 -9.4757,-15.4614 -26.3369,-25.8999 -45.6805,-26.415 V 94.9107 c 0,-1.3457 0.8542,-2.5059 2.0995,-3.0159 0.018,-0.01 0.037,-0.015 0.055,-0.022 1.2465,-0.5196 2.6747,-0.3103 3.6296,0.6445 l 48.0389,48.0388 c -11.5059,18.4815 -31.9976,30.8164 -55.3223,30.8164 z m 72.1301,-65.1301 c 0,-12.4126 -3.139,-24.0918 -8.6633,-34.2908 l 34.2912,34.291 -34.2891,34.2891 c 5.523,-10.1995 8.6612,-21.8782 8.6612,-34.2893 z"
   id="path5312"
   inkscape:connector-curvature="0"
   style="fill:#d7e6ed;fill-opacity:1" />








</svg>