<?xml version="1.0" encoding="UTF-8" standalone="no"?>
<!-- Generator: Adobe Illustrator 22.1.0, SVG Export Plug-In . SVG Version: 6.00 Build 0)  -->

<svg
   xmlns:dc="http://purl.org/dc/elements/1.1/"
   xmlns:cc="http://creativecommons.org/ns#"
   xmlns:rdf="http://www.w3.org/1999/02/22-rdf-syntax-ns#"
   xmlns:svg="http://www.w3.org/2000/svg"
   xmlns="http://www.w3.org/2000/svg"
   xmlns:sodipodi="http://sodipodi.sourceforge.net/DTD/sodipodi-0.dtd"
   xmlns:inkscape="http://www.inkscape.org/namespaces/inkscape"
   version="1.1"
   id="Layer_2_1_"
   x="0px"
   y="0px"
   viewBox="0 0 212.48051 212.48"
   enable-background="new 0 0 3947.9399414 3860.8613281"
   xml:space="preserve"
   sodipodi:docname="the_theory_of_everything.svg"
   inkscape:version="0.92.4 (5da689c313, 2019-01-14)"
   width="212.48051"
   height="212.48"><metadata
   id="metadata5465"><rdf:RDF><cc:Work
       rdf:about=""><dc:format>image/svg+xml</dc:format><dc:type
         rdf:resource="http://purl.org/dc/dcmitype/StillImage" /><dc:title></dc:title></cc:Work></rdf:RDF></metadata><defs
   id="defs5463" /><sodipodi:namedview
   pagecolor="#ffffff"
   bordercolor="#666666"
   borderopacity="1"
   objecttolerance="10"
   gridtolerance="10"
   guidetolerance="10"
   inkscape:pageopacity="0"
   inkscape:pageshadow="2"
   inkscape:window-width="1920"
   inkscape:window-height="1022"
   id="namedview5461"
   showgrid="false"
   inkscape:zoom="0.21212883"
   inkscape:cx="333.19079"
   inkscape:cy="1903.5483"
   inkscape:window-x="1079"
   inkscape:window-y="709"
   inkscape:window-maximized="1"
   inkscape:current-layer="Layer_2_1_" />























































































































<g
   id="g4722"
   transform="translate(-939.06799,-3416.7483)"
   style="fill:#d7e6ed;fill-opacity:1">
	<path
   d="m 1023.4034,3507.6675 c -1.8408,-0.7608 -3.8037,-1.1494 -5.8203,-1.1494 -9.081,0 -16.4697,7.3886 -16.4697,16.4707 0,4.4072 1.7119,8.541 4.8203,11.6406 3.1162,3.1152 7.252,4.8291 11.6494,4.8291 4.0703,0 7.8965,-1.5859 10.7744,-4.4648 h 10e-4 l 12.0049,-12.0049 -12.0049,-12.0059 c -1.4199,-1.4189 -3.0869,-2.5342 -4.9551,-3.3154 z"
   id="path4714"
   inkscape:connector-curvature="0"
   style="fill:#d7e6ed;fill-opacity:1" />
	<path
   d="m 1045.3082,3468.8303 c -29.8628,0 -54.15818,24.2952 -54.15818,54.158 0,29.863 24.29538,54.1582 54.15818,54.1582 29.8628,0 54.1582,-24.2952 54.1582,-54.1582 0,-29.8628 -24.2954,-54.158 -54.1582,-54.158 z m 51.1949,54.1585 c 0,12.9414 -10.5245,23.4697 -23.46,23.4697 -2.9385,0 -5.7998,-0.5674 -8.5068,-1.6856 -2.7461,-1.1474 -5.1729,-2.7734 -7.2247,-4.8369 l -11.998,-11.9978 -12.0059,12.0047 h 10e-4 c -4.2012,4.2011 -9.7851,6.5156 -15.7256,6.5156 -6.2675,0 -12.1611,-2.4414 -16.5947,-6.876 -4.43261,-4.4189 -6.875,-10.3135 -6.875,-16.5937 0,-12.9414 10.5283,-23.4707 23.4697,-23.4707 2.9385,0 5.7998,0.5673 8.5069,1.6855 2.7265,1.1397 5.1513,2.7627 7.2177,4.8301 l 12.0059,12.0054 12.001,-12.0025 c 4.1318,-4.1426 9.8642,-6.5185 15.7285,-6.5185 6.2617,0 12.1514,2.4414 16.585,6.8759 4.4335,4.4327 6.875,10.3262 6.875,16.5948 z"
   id="path4716"
   inkscape:connector-curvature="0"
   style="fill:#d7e6ed;fill-opacity:1" />
	<path
   d="m 1062.2716,3510.98 v 0 l -12.0044,12.0054 5e-4,5e-4 -5e-4,5e-4 12.0044,12.0044 c 1.4082,1.416 3.0732,2.5292 4.9551,3.3154 1.8408,0.7607 3.8037,1.1494 5.8203,1.1494 9.0762,0 16.46,-7.3887 16.46,-16.4697 0,-4.3985 -1.7129,-8.5342 -4.8243,-11.6455 -3.1123,-3.1114 -7.2441,-4.8252 -11.6357,-4.8252 -4.0176,0 -7.9443,1.6259 -10.7715,4.4619 z"
   id="path4718"
   inkscape:connector-curvature="0"
   style="fill:#d7e6ed;fill-opacity:1" />
	<path
   d="m 1045.3082,3416.7483 -106.24021,106.24 106.24021,106.24 106.2403,-106.24 z m 0,8.48 34.2998,34.3 c -10.2099,-5.52 -21.8896,-8.6599 -34.2998,-8.6599 -12.4199,0 -24.1001,3.1399 -34.2998,8.6599 z m -97.76023,97.76 34.3003,-34.3001 c -5.52002,10.2 -8.66016,21.8802 -8.66016,34.3001 0,12.4199 3.14014,24.1001 8.66992,34.31 z m 97.76023,97.76 -34.2998,-34.3001 c 10.1997,5.5301 21.8799,8.67 34.2998,8.67 12.4102,0 24.0899,-3.1399 34.2998,-8.6599 z m 0,-39.6018 c -32.1196,0 -58.15818,-26.0383 -58.15818,-58.1582 0,-32.1199 26.03858,-58.158 58.15818,-58.158 32.1197,0 58.1582,26.0381 58.1582,58.158 0,32.1199 -26.0385,58.1582 -58.1582,58.1582 z m 63.4698,-92.4382 34.29,34.28 -34.29,34.29 c 5.5205,-10.2002 8.6601,-21.8801 8.6601,-34.29 0,-12.4102 -3.1396,-24.0901 -8.6601,-34.28 z"
   id="path4720"
   inkscape:connector-curvature="0"
   style="fill:#d7e6ed;fill-opacity:1" />
</g>



























































</svg>