<?xml version="1.0" encoding="UTF-8" standalone="no"?>
<!-- Generator: Adobe Illustrator 22.1.0, SVG Export Plug-In . SVG Version: 6.00 Build 0)  -->

<svg
   xmlns:dc="http://purl.org/dc/elements/1.1/"
   xmlns:cc="http://creativecommons.org/ns#"
   xmlns:rdf="http://www.w3.org/1999/02/22-rdf-syntax-ns#"
   xmlns:svg="http://www.w3.org/2000/svg"
   xmlns="http://www.w3.org/2000/svg"
   xmlns:sodipodi="http://sodipodi.sourceforge.net/DTD/sodipodi-0.dtd"
   xmlns:inkscape="http://www.inkscape.org/namespaces/inkscape"
   version="1.1"
   id="Layer_2_1_"
   x="0px"
   y="0px"
   viewBox="0 0 212.4801 212.47999"
   enable-background="new 0 0 3947.9399414 3860.8613281"
   xml:space="preserve"
   sodipodi:docname="the_citizens_defense_force.svg"
   inkscape:version="0.92.4 (5da689c313, 2019-01-14)"
   width="212.4801"
   height="212.48"><metadata
   id="metadata5465"><rdf:RDF><cc:Work
       rdf:about=""><dc:format>image/svg+xml</dc:format><dc:type
         rdf:resource="http://purl.org/dc/dcmitype/StillImage" /><dc:title></dc:title></cc:Work></rdf:RDF></metadata><defs
   id="defs5463" /><sodipodi:namedview
   pagecolor="#ffffff"
   bordercolor="#666666"
   borderopacity="1"
   objecttolerance="10"
   gridtolerance="10"
   guidetolerance="10"
   inkscape:pageopacity="0"
   inkscape:pageshadow="2"
   inkscape:window-width="1920"
   inkscape:window-height="1022"
   id="namedview5461"
   showgrid="false"
   inkscape:zoom="0.21212883"
   inkscape:cx="642.78948"
   inkscape:cy="-366.78197"
   inkscape:window-x="1079"
   inkscape:window-y="709"
   inkscape:window-maximized="1"
   inkscape:current-layer="Layer_2_1_" />




















<path
   d="M 106.24,0 0,106.24 106.24,212.48 212.4801,106.24 Z m 0,8.48 34.3,34.3 c -10.2,-5.53 -21.88,-8.6701 -34.3,-8.6701 -12.42,0 -24.1,3.1401 -34.3,8.6701 z M 42.78,140.5399 8.48,106.24 42.78,71.9399 c -0.57,1.0401 -1.11,2.1 -1.62,3.18 -4.51,9.42 -7.04,19.9701 -7.04,31.1201 0,12.4199 3.14,24.1 8.66,34.2999 z M 106.24,204 71.94,169.6999 c 10.2,5.5201 21.88,8.66 34.3,8.66 12.42,0 24.1,-3.1399 34.3,-8.66 z m 39.35,-72.1301 -10.78,10.78 -28.57,28.5701 -39.35,-39.3501 v -74.51 h 78.7 z m 25.73,-56.75 c -0.51,-1.08 -1.05,-2.1399 -1.62,-3.18 L 204,106.24 169.7,140.5399 c 5.52,-10.1999 8.66,-21.88 8.66,-34.2999 0,-11.15 -2.53,-21.7001 -7.04,-31.1201 z"
   id="path3856"
   inkscape:connector-curvature="0"
   style="fill:#e1561c;fill-opacity:1" />
<path
   d="m 137.3859,98.4299 -0.26,0.4201 c -0.57,0.92 -1.59,1.49 -2.69,1.49 h -2.98 v 19.42 h -17.1801 v 1.34 l 18.0201,18.0199 -25.03,25.03 -32.51,-32.51 15.8999,-15.8999 v -13.6101 c -5.2099,-4.18 -8.5,-10.2899 -8.5,-17.09 0,-12.61 11.31,-22.8299 25.25,-22.8299 13.9401,0 25.24,10.2199 25.24,22.8299 V 87.51 l 4.8001,8.6799 c 0.3899,0.7 0.37,1.5601 -0.06,2.24 z"
   id="path3858"
   inkscape:connector-curvature="0"
   style="fill:#e1561c;fill-opacity:1" />





























































































































































</svg>