<?xml version="1.0" encoding="UTF-8" standalone="no"?>
<!-- Generator: Adobe Illustrator 22.1.0, SVG Export Plug-In . SVG Version: 6.00 Build 0)  -->

<svg
   xmlns:dc="http://purl.org/dc/elements/1.1/"
   xmlns:cc="http://creativecommons.org/ns#"
   xmlns:rdf="http://www.w3.org/1999/02/22-rdf-syntax-ns#"
   xmlns:svg="http://www.w3.org/2000/svg"
   xmlns="http://www.w3.org/2000/svg"
   xmlns:sodipodi="http://sodipodi.sourceforge.net/DTD/sodipodi-0.dtd"
   xmlns:inkscape="http://www.inkscape.org/namespaces/inkscape"
   version="1.1"
   id="Layer_2_1_"
   x="0px"
   y="0px"
   viewBox="0 0 212.4799 212.47991"
   enable-background="new 0 0 3947.9399414 3860.8613281"
   xml:space="preserve"
   sodipodi:docname="the_dream_twister.svg"
   inkscape:version="0.92.4 (5da689c313, 2019-01-14)"
   width="212.4799"
   height="212.4799"><metadata
   id="metadata5465"><rdf:RDF><cc:Work
       rdf:about=""><dc:format>image/svg+xml</dc:format><dc:type
         rdf:resource="http://purl.org/dc/dcmitype/StillImage" /><dc:title></dc:title></cc:Work></rdf:RDF></metadata><defs
   id="defs5463" /><sodipodi:namedview
   pagecolor="#ffffff"
   bordercolor="#666666"
   borderopacity="1"
   objecttolerance="10"
   gridtolerance="10"
   guidetolerance="10"
   inkscape:pageopacity="0"
   inkscape:pageshadow="2"
   inkscape:window-width="1920"
   inkscape:window-height="1022"
   id="namedview5461"
   showgrid="false"
   inkscape:zoom="0.21212883"
   inkscape:cx="-905.20512"
   inkscape:cy="768.38486"
   inkscape:window-x="1079"
   inkscape:window-y="709"
   inkscape:window-maximized="1"
   inkscape:current-layer="Layer_2_1_" />















































































































































<g
   id="g5042"
   transform="translate(-2177.4639,-2281.585)"
   style="fill:#90ae50;fill-opacity:1">
	<path
   d="m 2283.7039,2281.585 -106.24,106.24 106.24,106.2399 106.2399,-106.2399 z m 0,8.4799 34.3,34.3001 c -10.21,-5.52 -21.8901,-8.6602 -34.3,-8.6602 -12.42,0 -24.1001,3.1402 -34.3001,8.6602 z m -97.7601,97.7601 34.3001,-34.2999 c -5.52,10.1998 -8.6602,21.8799 -8.6602,34.2999 0,12.4199 3.1402,24.1 8.6702,34.31 z m 97.7601,97.76 -34.3001,-34.3001 c 10.2,5.53 21.8801,8.6699 34.3001,8.6699 12.4099,0 24.09,-3.1399 34.3,-8.6599 z m 53.5949,-90.6443 c 0,7.476 -6.0569,13.5327 -13.5329,13.5327 -0.4302,0 -0.8213,0.1733 -1.1009,0.4526 -0.2793,0.2793 -0.4526,0.6704 -0.4526,1.1006 v 13.4937 c 0,4.7382 -1.8828,9.2807 -5.2297,12.6279 l -11.6106,11.6108 c -3.3472,3.3467 -7.8897,5.2295 -12.628,5.2295 h -18.081 c -4.7381,0 -9.2808,-1.8828 -12.6275,-5.2295 l -11.6108,-11.6108 c -3.3469,-3.3472 -5.23,-7.8897 -5.23,-12.6279 v -13.4937 c 0,-0.4302 -0.1731,-0.8213 -0.4526,-1.1006 -0.2793,-0.2793 -0.6704,-0.4526 -1.1006,-0.4526 -7.4761,0 -13.5327,-6.0567 -13.5327,-13.5327 v -23.4785 c 0,-2.1348 1.4861,-3.9786 3.5703,-4.4312 l 6.4478,-1.4023 v -7.9175 c 0,-18.2544 14.7956,-33.0498 33.05,-33.0498 h 21.0535 c 18.2544,0 33.0498,14.7954 33.0498,33.0498 v 7.9175 l 6.448,1.4023 c 2.0842,0.4526 3.5705,2.2964 3.5705,4.4312 z m 9.875,-41.3958 34.2901,34.2801 -34.2901,34.29 c 5.52,-10.2002 8.6599,-21.8799 8.6599,-34.29 0,-12.4102 -3.1399,-24.0899 -8.6599,-34.2801 z"
   id="path5018"
   inkscape:connector-curvature="0"
   style="fill:#90ae50;fill-opacity:1" />
	<path
   d="m 2283.6987,2406.6252 c -11.3498,0 -20.6799,8.6299 -21.8,19.6797 h 11.9302 c 2.27,-2.9697 5.8398,-4.8899 9.8698,-4.8899 4.0301,0 7.6101,1.9202 9.8701,4.8899 h 11.94 c -1.1201,-11.0498 -10.46,-19.6797 -21.8101,-19.6797 z"
   id="path5020"
   inkscape:connector-curvature="0"
   style="fill:#90ae50;fill-opacity:1" />
	<g
   id="g5040"
   style="fill:#90ae50;fill-opacity:1">
		<path
   d="m 2262.9585,2355.3428 0.023,-0.024 c 2.2649,-4.7637 6.1231,-8.6216 10.8868,-10.8865 l 0.023,-0.024 -16.3364,-6.809 c -0.8865,-0.3694 -1.7759,0.52 -1.4065,1.4062 z"
   id="path5022"
   inkscape:connector-curvature="0"
   style="fill:#90ae50;fill-opacity:1" />
		<path
   d="m 2262.0967,2372.8508 c -0.8572,-2.4062 -1.3277,-4.9961 -1.3277,-7.6963 0,-2.7004 0.4705,-5.2902 1.3277,-7.6962 v -0.035 l -16.3665,6.7368 c -0.8879,0.3657 -0.8879,1.6235 0,1.9888 l 16.3665,6.7368 z"
   id="path5024"
   inkscape:connector-curvature="0"
   style="fill:#90ae50;fill-opacity:1" />
		<path
   d="m 2283.7036,2342.2197 c 2.7007,0 5.2903,0.4705 7.6963,1.3277 h 0.035 l -6.7369,-16.3665 c -0.3657,-0.8882 -1.6232,-0.8882 -1.9887,0 l -6.7368,16.3665 h 0.035 c 2.4063,-0.8572 4.9961,-1.3277 7.6963,-1.3277 z"
   id="path5026"
   inkscape:connector-curvature="0"
   style="fill:#90ae50;fill-opacity:1" />
		<path
   d="m 2304.4255,2355.3191 0.024,0.024 6.8091,-16.3367 c 0.3694,-0.8862 -0.52,-1.7756 -1.4062,-1.4062 l -16.3365,6.809 0.023,0.024 c 4.7636,2.2649 8.6215,6.1228 10.8864,10.8865 z"
   id="path5028"
   inkscape:connector-curvature="0"
   style="fill:#90ae50;fill-opacity:1" />
		<path
   d="m 2321.6772,2364.1599 -16.3664,-6.7368 v 0.035 c 0.8572,2.406 1.3276,4.9958 1.3276,7.6962 0,2.7002 -0.4704,5.2901 -1.3276,7.6963 v 0.035 l 16.3664,-6.7368 c 0.8882,-0.3653 0.8882,-1.6231 0,-1.9888 z"
   id="path5030"
   inkscape:connector-curvature="0"
   style="fill:#90ae50;fill-opacity:1" />
		<path
   d="m 2304.4492,2374.9661 -0.024,0.024 c -2.2649,4.7635 -6.123,8.6216 -10.8864,10.8865 l -0.023,0.023 16.3365,6.8093 c 0.8862,0.3694 1.7756,-0.52 1.4062,-1.4065 z"
   id="path5032"
   inkscape:connector-curvature="0"
   style="fill:#90ae50;fill-opacity:1" />
		<path
   d="m 2273.8687,2385.8762 c -4.7637,-2.2649 -8.6219,-6.123 -10.8868,-10.8865 l -0.023,-0.024 -6.8093,16.3364 c -0.3694,0.8865 0.52,1.7759 1.4065,1.4065 l 16.3364,-6.8093 z"
   id="path5034"
   inkscape:connector-curvature="0"
   style="fill:#90ae50;fill-opacity:1" />
		<path
   d="m 2276.0073,2386.7615 h -0.035 l 6.7368,16.3664 c 0.3655,0.888 1.623,0.888 1.9887,0 l 6.7369,-16.3664 h -0.035 c -2.406,0.8572 -4.9956,1.3276 -7.6963,1.3276 -2.7002,0 -5.29,-0.4704 -7.6963,-1.3276 z"
   id="path5036"
   inkscape:connector-curvature="0"
   style="fill:#90ae50;fill-opacity:1" />
		<path
   d="m 2302.2456,2362.1541 h -11.2993 l 7.9897,-7.9893 -4.2426,-4.2427 -7.9898,7.9898 v -11.2994 h -6 v 11.2994 l -7.9892,-7.9898 -4.2427,4.2427 7.9897,7.9893 h -11.2993 v 6 h 11.2993 l -7.9897,7.9897 4.2427,4.2427 7.9892,-7.9898 v 11.2993 h 6 v -11.2993 l 7.9898,7.9898 4.2426,-4.2427 -7.9897,-7.9897 h 11.2993 z m -18.542,10.2094 c -3.9814,0 -7.209,-3.228 -7.209,-7.2094 0,-3.9815 3.2276,-7.209 7.209,-7.209 3.9819,0 7.2095,3.2275 7.2095,7.209 0,3.9814 -3.2276,7.2094 -7.2095,7.2094 z"
   id="path5038"
   inkscape:connector-curvature="0"
   style="fill:#90ae50;fill-opacity:1" />
	</g>
</g>



































</svg>