<?xml version="1.0" encoding="UTF-8" standalone="no"?>
<!-- Generator: Adobe Illustrator 22.1.0, SVG Export Plug-In . SVG Version: 6.00 Build 0)  -->

<svg
   xmlns:dc="http://purl.org/dc/elements/1.1/"
   xmlns:cc="http://creativecommons.org/ns#"
   xmlns:rdf="http://www.w3.org/1999/02/22-rdf-syntax-ns#"
   xmlns:svg="http://www.w3.org/2000/svg"
   xmlns="http://www.w3.org/2000/svg"
   xmlns:sodipodi="http://sodipodi.sourceforge.net/DTD/sodipodi-0.dtd"
   xmlns:inkscape="http://www.inkscape.org/namespaces/inkscape"
   version="1.1"
   id="Layer_2_1_"
   x="0px"
   y="0px"
   viewBox="0 0 212.4799 212.4799"
   enable-background="new 0 0 3947.9399414 3860.8613281"
   xml:space="preserve"
   sodipodi:docname="the_neural_amplifier.svg"
   inkscape:version="0.92.4 (5da689c313, 2019-01-14)"
   width="212.4799"
   height="212.4799"><metadata
   id="metadata5465"><rdf:RDF><cc:Work
       rdf:about=""><dc:format>image/svg+xml</dc:format><dc:type
         rdf:resource="http://purl.org/dc/dcmitype/StillImage" /><dc:title></dc:title></cc:Work></rdf:RDF></metadata><defs
   id="defs5463" /><sodipodi:namedview
   pagecolor="#ffffff"
   bordercolor="#666666"
   borderopacity="1"
   objecttolerance="10"
   gridtolerance="10"
   guidetolerance="10"
   inkscape:pageopacity="0"
   inkscape:pageshadow="2"
   inkscape:window-width="1920"
   inkscape:window-height="1022"
   id="namedview5461"
   showgrid="false"
   inkscape:zoom="0.21212883"
   inkscape:cx="-1524.4031"
   inkscape:cy="-366.77835"
   inkscape:window-x="1079"
   inkscape:window-y="709"
   inkscape:window-maximized="1"
   inkscape:current-layer="Layer_2_1_" />






































































































































<g
   id="g4932"
   transform="translate(-2796.6619,-1146.4218)"
   style="fill:#90ae50;fill-opacity:1">
	<path
   d="m 2902.9019,1146.4218 -106.24,106.2399 106.24,106.24 106.2399,-106.24 z m 0,8.4799 34.3,34.3 c -10.21,-5.5201 -21.8901,-8.66 -34.3,-8.66 -12.42,0 -24.1001,3.1399 -34.3001,8.66 z m -97.7601,97.76 34.3001,-34.2999 c -5.52,10.2 -8.6602,21.8799 -8.6602,34.2999 0,12.4201 3.1402,24.1 8.6702,34.31 z m 97.7601,97.7601 -34.3001,-34.3001 c 10.2,5.53 21.8801,8.67 34.3001,8.67 12.4099,0 24.09,-3.14 34.3,-8.66 z m 53.5949,-90.6445 c 0,7.4761 -6.0569,13.5328 -13.5329,13.5328 -0.4302,0 -0.8213,0.1733 -1.1009,0.4526 -0.2793,0.2794 -0.4526,0.6705 -0.4526,1.1008 v 13.4937 c 0,4.7383 -1.8828,9.2807 -5.2297,12.6277 l -11.6106,11.6108 c -3.3472,3.3469 -7.8897,5.2297 -12.628,5.2297 h -18.081 c -4.7381,0 -9.2808,-1.8828 -12.6275,-5.2297 l -11.6108,-11.6108 c -3.3469,-3.347 -5.23,-7.8894 -5.23,-12.6277 v -13.4937 c 0,-0.4303 -0.1731,-0.8214 -0.4526,-1.1008 -0.2793,-0.2793 -0.6704,-0.4526 -1.1006,-0.4526 -7.4761,0 -13.5327,-6.0567 -13.5327,-13.5328 v -23.4785 c 0,-2.1345 1.4861,-3.9782 3.5703,-4.4309 l 6.4478,-1.4024 v -7.9175 c 0,-18.2543 14.7956,-33.05 33.05,-33.05 h 21.0535 c 18.2544,0 33.0498,14.7957 33.0498,33.05 v 7.9175 l 6.448,1.4024 c 2.0842,0.4527 3.5705,2.2964 3.5705,4.4309 z m 9.875,-41.3956 34.2901,34.28 -34.2901,34.29 c 5.52,-10.2 8.6599,-21.8799 8.6599,-34.29 0,-12.41 -3.1399,-24.0899 -8.6599,-34.28 z"
   id="path4924"
   inkscape:connector-curvature="0"
   style="fill:#90ae50;fill-opacity:1" />
	<path
   d="m 2902.8967,1271.4619 c -11.3498,0 -20.6799,8.6299 -21.8,19.6799 h 11.9302 c 2.27,-2.9699 5.8398,-4.89 9.8698,-4.89 4.0301,0 7.6101,1.9201 9.8701,4.89 h 11.94 c -1.1201,-11.05 -10.46,-19.6799 -21.8101,-19.6799 z"
   id="path4926"
   inkscape:connector-curvature="0"
   style="fill:#90ae50;fill-opacity:1" />
	<path
   d="m 2902.9016,1231.9214 c 3.9819,0 7.2095,-3.2278 7.2095,-7.2094 0,-3.9813 -3.2276,-7.2091 -7.2095,-7.2091 -3.9814,0 -7.209,3.2278 -7.209,7.2091 0,3.9816 3.2276,7.2094 7.209,7.2094 z"
   id="path4928"
   inkscape:connector-curvature="0"
   style="fill:#90ae50;fill-opacity:1" />
	<path
   d="m 2879.8962,1240.1792 23.0057,23.0059 23.0056,-23.0059 v -42.8904 h -46.0113 z m 4.4639,-18.4672 h 11.2993 l -7.9897,-7.9895 4.2427,-4.2426 7.9892,7.9898 v -11.2992 h 6 v 11.2992 l 7.9898,-7.9898 4.2426,4.2426 -7.9897,7.9895 h 11.2993 v 6.0002 h -11.2993 l 7.9897,7.9897 -4.2426,4.2427 -7.9898,-7.9898 v 11.2991 h -6 v -11.2991 l -7.9892,7.9898 -4.2427,-4.2427 7.9897,-7.9897 h -11.2993 z"
   id="path4930"
   inkscape:connector-curvature="0"
   style="fill:#90ae50;fill-opacity:1" />
</g>












































</svg>