<?xml version="1.0" encoding="UTF-8" standalone="no"?>
<!-- Generator: Adobe Illustrator 22.1.0, SVG Export Plug-In . SVG Version: 6.00 Build 0)  -->

<svg
   xmlns:dc="http://purl.org/dc/elements/1.1/"
   xmlns:cc="http://creativecommons.org/ns#"
   xmlns:rdf="http://www.w3.org/1999/02/22-rdf-syntax-ns#"
   xmlns:svg="http://www.w3.org/2000/svg"
   xmlns="http://www.w3.org/2000/svg"
   xmlns:sodipodi="http://sodipodi.sourceforge.net/DTD/sodipodi-0.dtd"
   xmlns:inkscape="http://www.inkscape.org/namespaces/inkscape"
   version="1.1"
   id="Layer_2_1_"
   x="0px"
   y="0px"
   viewBox="0 0 212.48004 212.48999"
   enable-background="new 0 0 3947.9399414 3860.8613281"
   xml:space="preserve"
   sodipodi:docname="the_human_genome_project.svg"
   inkscape:version="0.92.4 (5da689c313, 2019-01-14)"
   width="212.48004"
   height="212.48999"><metadata
   id="metadata5465"><rdf:RDF><cc:Work
       rdf:about=""><dc:format>image/svg+xml</dc:format><dc:type
         rdf:resource="http://purl.org/dc/dcmitype/StillImage" /><dc:title></dc:title></cc:Work></rdf:RDF></metadata><defs
   id="defs5463" /><sodipodi:namedview
   pagecolor="#ffffff"
   bordercolor="#666666"
   borderopacity="1"
   objecttolerance="10"
   gridtolerance="10"
   guidetolerance="10"
   inkscape:pageopacity="0"
   inkscape:pageshadow="2"
   inkscape:window-width="1920"
   inkscape:window-height="1022"
   id="namedview5461"
   showgrid="false"
   inkscape:zoom="0.21212883"
   inkscape:cx="642.78947"
   inkscape:cy="-1501.9367"
   inkscape:window-x="1079"
   inkscape:window-y="709"
   inkscape:window-maximized="1"
   inkscape:current-layer="Layer_2_1_" />















<g
   id="g3826"
   transform="translate(-629.4693,-11.253384)"
   style="fill:#d7e6ed;fill-opacity:1">
	<path
   d="m 730.5993,168.18338 c 2.31,0 3.47998,-2.32001 3.47998,-4.78998 v -31.32001 h 1.63001 1.63 v 31.32001 c 0,2.46997 1.16999,4.78998 3.47999,4.78998 1.91998,0 4.5,-3.06 4.5,-5.29999 v -61.5 c 8.61999,-0.72003 23.94,-10.299986 23.94,-20.92999 v -4.309998 h -2.22998 c -3.40003,0 -7.43,8.72998 -11.5,11.809998 -3.44001,2.599975 -7.07001,4.519958 -10.21003,5.029968 -2.40002,0.390014 -4.51,-0.02997 -6.05999,-1.579956 2.97998,-1.340027 5.04999,-4.340027 5.04999,-7.820008 0,-4.75 -3.84998,-8.590026 -8.59998,-8.590026 -4.75,0 -8.59998,3.840026 -8.59998,8.590026 0,3.479981 2.07001,6.479981 5.04999,7.820008 -1.54999,1.549988 -3.65997,1.96997 -6.06,1.579956 -3.14001,-0.51001 -6.77002,-2.429993 -10.21002,-5.029968 -4.07001,-3.080018 -8.09997,-11.809998 -11.5,-11.809998 H 702.1593 V 80.4534 c 0,10.630004 15.32001,20.20996 23.94,20.92999 v 61.5 c 0,2.23999 2.58002,5.29999 4.5,5.29999 z"
   id="path3818"
   inkscape:connector-curvature="0"
   style="fill:#d7e6ed;fill-opacity:1" />
	<path
   d="m 735.8493,174.74338 c -7.61999,3.34002 -15.53003,7.02002 -22.72998,11.27002 7.09998,2.33996 14.69995,3.60998 22.58997,3.60998 7.76001,0 15.23004,-1.21997 22.23004,-3.5 -7.29004,-3.88 -14.65002,-7.71002 -22.09003,-11.38 z"
   id="path3820"
   inkscape:connector-curvature="0"
   style="fill:#d7e6ed;fill-opacity:1" />
	<path
   d="m 761.5293,50.143398 c -8.01001,-3.090027 -16.71997,-4.770019 -25.82001,-4.770019 -8.82001,0 -17.26001,1.580017 -25.07001,4.48999 7.23004,2.890015 16.03003,6.5 25.01001,10.229981 8.31,-3.239991 17.21002,-6.679993 25.88001,-9.949952 z"
   id="path3822"
   inkscape:connector-curvature="0"
   style="fill:#d7e6ed;fill-opacity:1" />
	<path
   d="M 735.70929,11.253384 629.4693,117.49338 l 106.23999,106.25 106.24005,-106.25 z m 97.76001,106.250006 -31.91998,31.90997 c 4.11999,-9.75 6.27996,-20.63 6.27996,-31.91998 0,-12.02002 -2.79998,-23.419985 -7.83996,-33.469973 z m -195.52002,-0.01 36.73004,-36.729983 -5.08002,7.849976 v 0.01001 c -3.86999,8.840026 -6.02002,18.599977 -6.02002,28.869997 0,11.81 2.61005,23.04999 7.37,33 z m 64.30005,64.29999 c 8.47998,-3.71998 19.60998,-8.75 24.37994,-11.51996 -5.81,-2.76001 -11.66998,-5.39002 -17.56994,-7.89002 -8.72004,-3.69 -32.54004,-10.86999 -28.33002,-23.91998 2.83996,-8.76001 21.34997,-16.15002 33.46997,-20.57001 -15.17999,-7.52002 -50.72998,-18.869993 -30.07001,-34.760008 9.5,-7.299987 28.19,-13.850036 38.93006,-18.090027 1.22998,-0.48999 2.47998,-0.98999 3.75994,-1.489994 -2.94,-1.409973 -6.07995,-2.419982 -9.19,-3.409973 -2.82995,-0.910034 -10.31,-3.98999 -16.04999,-6.270019 l 34.13001,-34.130005 33.40002,33.400024 c -8.51001,4.229981 -19.92999,10.059998 -23.09002,11.279972 18.17999,7.669983 34.85003,14.980042 38.10003,17.100037 2.10999,1.380005 4.19995,2.869995 5.81,4.809998 1.62,1.940002 2.72998,4.389953 2.62,6.899963 -0.10004,2.51001 -1.42005,4.799988 -3.01001,6.730042 -4.03998,4.88995 -10.07001,7.70996 -15.84998,10.33997 -5.37006,2.44 -10.85004,4.65002 -16.41003,6.61999 10.91998,4.04004 25.34997,10.23999 32.40002,16.92999 9.47998,8.98004 -2.42999,18.77002 -10.65002,22.91004 -10.94001,5.51996 -22.83997,9.45001 -34.21997,14.13 3.21997,2.63001 7.21997,4.16999 11.10998,5.66999 2.20996,0.84002 8.39996,3.61999 12.88001,5.59997 l -33.09003,33.09003 z"
   id="path3824"
   inkscape:connector-curvature="0"
   style="fill:#d7e6ed;fill-opacity:1" />
</g>



































































































































































</svg>