<?xml version="1.0" encoding="UTF-8" standalone="no"?>
<!-- Generator: Adobe Illustrator 22.1.0, SVG Export Plug-In . SVG Version: 6.00 Build 0)  -->

<svg
   xmlns:dc="http://purl.org/dc/elements/1.1/"
   xmlns:cc="http://creativecommons.org/ns#"
   xmlns:rdf="http://www.w3.org/1999/02/22-rdf-syntax-ns#"
   xmlns:svg="http://www.w3.org/2000/svg"
   xmlns="http://www.w3.org/2000/svg"
   xmlns:sodipodi="http://sodipodi.sourceforge.net/DTD/sodipodi-0.dtd"
   xmlns:inkscape="http://www.inkscape.org/namespaces/inkscape"
   version="1.1"
   id="Layer_2_1_"
   x="0px"
   y="0px"
   viewBox="0 0 212.47997 212.4802"
   enable-background="new 0 0 3947.9399414 3860.8613281"
   xml:space="preserve"
   sodipodi:docname="the_network_backbone.svg"
   inkscape:version="0.92.4 (5da689c313, 2019-01-14)"
   width="212.47997"
   height="212.48019"><metadata
   id="metadata5465"><rdf:RDF><cc:Work
       rdf:about=""><dc:format>image/svg+xml</dc:format><dc:type
         rdf:resource="http://purl.org/dc/dcmitype/StillImage" /><dc:title></dc:title></cc:Work></rdf:RDF></metadata><defs
   id="defs5463" /><sodipodi:namedview
   pagecolor="#ffffff"
   bordercolor="#666666"
   borderopacity="1"
   objecttolerance="10"
   gridtolerance="10"
   guidetolerance="10"
   inkscape:pageopacity="0"
   inkscape:pageshadow="2"
   inkscape:window-width="1920"
   inkscape:window-height="1022"
   id="namedview5461"
   showgrid="false"
   inkscape:zoom="0.21212883"
   inkscape:cx="333.19054"
   inkscape:cy="768.38516"
   inkscape:window-x="1079"
   inkscape:window-y="709"
   inkscape:window-maximized="1"
   inkscape:current-layer="Layer_2_1_" />













































































































































<g
   id="g4998"
   transform="translate(-939.06824,-2281.585)"
   style="fill:#d7e6ed;fill-opacity:1">
	<path
   style="fill:#d7e6ed;fill-opacity:1"
   d="m 1001.1473,2417.7129 h 88.3152 v 3.9629 h -88.3152 z"
   id="rect4988"
   inkscape:connector-curvature="0" />
	<path
   d="m 1103.6383,2339.915 -2.4199,-2.4199 h -10e-5 l -55.9101,-55.9101 -55.90988,55.9101 -2.54004,2.5401 -47.79004,47.79 47.79004,47.79 2.55005,2.5498 55.89987,55.9002 55.9002,-55.9002 2.4299,-2.4299 47.9099,-47.9099 z m -156.09008,47.9102 34.30005,-34.3001 c -5.52002,10.2 -8.65992,21.8799 -8.65992,34.3001 0,12.4199 3.1399,24.0998 8.66993,34.3101 z m 39.31006,25.8198 c -1.04541,-2.3635 -1.93311,-4.8115 -2.68994,-7.3169 h 2.68994 z m 0,-12.3169 h -3.99829 c -0.76636,-3.5639 -1.22071,-7.2422 -1.36573,-11 h 5.36402 z m 0,-16 h -5.36414 c 0.1449,-3.7566 0.59949,-7.435 1.36646,-11 h 3.99768 z m 0,-16 h -2.68885 c 0.7566,-2.5039 1.64392,-4.9507 2.68885,-7.313 z m 58.44992,-79.2629 34.3001,34.3 c -10.21,-5.52 -21.8899,-8.6601 -34.3001,-8.6601 -12.4199,0 -24.0998,3.1401 -34.2999,8.6601 z m 39.3501,47.4299 h -12.853 v -7.8047 c 4.6013,2.1001 8.9143,4.7227 12.853,7.8047 z m -17.853,-9.8369 v 9.8369 h -11 v -12.6846 c 3.7895,0.6265 7.4663,1.5855 11,2.8477 z m -16,-3.4797 v 13.3166 h -11 v -13.3164 c 1.8137,-0.1545 3.6492,-0.2336 5.5029,-0.2336 1.8518,0 3.6852,0.079 5.4971,0.2334 z m -16,0.6328 v 12.6838 h -11 v -9.8345 c 3.5337,-1.2629 7.2104,-2.2224 11,-2.8493 z m -16,4.8821 v 7.8017 h -12.8469 c 3.9369,-3.0805 8.2479,-5.7021 12.8469,-7.8017 z m 26.5029,155.8916 -34.2999,-34.2998 c 10.2001,5.53 21.88,8.6699 34.2999,8.6699 12.4102,0 24.0901,-3.1399 34.3001,-8.6599 z m -39.3498,-47.42 h 12.8469 v 7.8018 c -4.599,-2.0996 -8.91,-4.7212 -12.8469,-7.8018 z m 17.8469,9.8345 v -9.8345 h 11 v 12.6839 c -3.7896,-0.627 -7.4663,-1.5864 -11,-2.8494 z m 16,3.4819 v -13.3164 h 11 v 13.3167 c -1.8119,0.1545 -3.6453,0.2334 -5.4971,0.2334 -1.8537,0 -3.6892,-0.079 -5.5029,-0.2337 z m 16,-0.6318 v -12.6846 h 11 v 9.8367 c -3.5337,1.2625 -7.2105,2.2214 -11,2.8479 z m 16,-4.8799 v -7.8047 h 12.853 c -3.9387,3.0821 -8.2517,5.7046 -12.853,7.8047 z m 23.8846,-18.0666 H 994.92004 v -72.4639 h 5.23656 v -7.218 h 11.2191 c 9.9992,-5.147 21.5526,-9.0625 33.9294,4.0654 12.3769,-13.1279 23.9304,-9.2119 33.9292,-4.0654 h 11.2189 v 7.218 h 5.2367 z m 7.9484,-66.158 c 1.0973,2.4466 2.0244,4.9839 2.8101,7.583 h -2.8101 z m 0,12.583 h 4.1217 c 0.7662,3.564 1.2174,7.2427 1.3619,11 h -5.4836 z m 0,39.5869 v -7.5869 h 2.811 c -0.7857,2.6006 -1.7132,5.1392 -2.811,7.5869 z m 0,-12.5869 v -11 h 5.4836 c -0.1447,3.7586 -0.5957,7.437 -1.3614,11 z m 13.8001,-13.5029 c 0,-12.4102 -3.1402,-24.0901 -8.6601,-34.28 l 34.2899,34.28 -34.2899,34.29 c 5.5199,-10.2002 8.6601,-21.8801 8.6601,-34.29 z"
   id="path4990"
   inkscape:connector-curvature="0"
   style="fill:#d7e6ed;fill-opacity:1" />
	<path
   d="m 1042.1913,2358.1401 c -9.4046,-11.1181 -17.086,-10.0776 -28.6118,-4.0463 l -0.6779,0.3549 h -6.5176 v 47.6958 h 35.8073 z"
   id="path4992"
   inkscape:connector-curvature="0"
   style="fill:#d7e6ed;fill-opacity:1" />
	<path
   d="m 1084.226,2354.4487 h -6.5176 l -0.6779,-0.3549 c -11.5253,-6.0313 -19.2079,-7.0718 -28.6119,4.0463 v 44.0044 h 35.8074 z"
   id="path4994"
   inkscape:connector-curvature="0"
   style="fill:#d7e6ed;fill-opacity:1" />
	<path
   style="fill:#d7e6ed;fill-opacity:1"
   d="m 1004.6857,2411.4854 h 81.2386 v -3.1136 h -37.5057 -6.2273 -37.5056 z"
   id="polygon4996"
   inkscape:connector-curvature="0" />
</g>





































</svg>