<?xml version="1.0" encoding="UTF-8" standalone="no"?>
<!-- Generator: Adobe Illustrator 22.1.0, SVG Export Plug-In . SVG Version: 6.00 Build 0)  -->

<svg
   xmlns:dc="http://purl.org/dc/elements/1.1/"
   xmlns:cc="http://creativecommons.org/ns#"
   xmlns:rdf="http://www.w3.org/1999/02/22-rdf-syntax-ns#"
   xmlns:svg="http://www.w3.org/2000/svg"
   xmlns="http://www.w3.org/2000/svg"
   xmlns:sodipodi="http://sodipodi.sourceforge.net/DTD/sodipodi-0.dtd"
   xmlns:inkscape="http://www.inkscape.org/namespaces/inkscape"
   version="1.1"
   id="Layer_2_1_"
   x="0px"
   y="0px"
   viewBox="0 0 212.48004 212.49001"
   enable-background="new 0 0 3947.9399414 3860.8613281"
   xml:space="preserve"
   sodipodi:docname="the_nethack_terminus.svg"
   inkscape:version="0.92.4 (5da689c313, 2019-01-14)"
   width="212.48003"
   height="212.49001"><metadata
   id="metadata5465"><rdf:RDF><cc:Work
       rdf:about=""><dc:format>image/svg+xml</dc:format><dc:type
         rdf:resource="http://purl.org/dc/dcmitype/StillImage" /><dc:title></dc:title></cc:Work></rdf:RDF></metadata><defs
   id="defs5463" /><sodipodi:namedview
   pagecolor="#ffffff"
   bordercolor="#666666"
   borderopacity="1"
   objecttolerance="10"
   gridtolerance="10"
   guidetolerance="10"
   inkscape:pageopacity="0"
   inkscape:pageshadow="2"
   inkscape:window-width="1920"
   inkscape:window-height="1022"
   id="namedview5461"
   showgrid="false"
   inkscape:zoom="0.21212883"
   inkscape:cx="23.591582"
   inkscape:cy="-934.35504"
   inkscape:window-x="1079"
   inkscape:window-y="709"
   inkscape:window-maximized="1"
   inkscape:current-layer="Layer_2_1_" />







































<path
   d="M 106.24002,0 0,106.24 l 106.24002,106.25 106.24,-106.25 z m 0,8.49 34.2801,34.28 c -10.2,-5.52 -21.8799,-8.65 -34.2801,-8.65 -12.3999,0 -24.0799,3.13 -34.2799,8.65 z m 16.2101,136.85 h -14.4 v -37.72 h -3.62 v 37.72 h -14.4 l 5.9699,-5.97 V 80.09 c -2.1699,2.77 -3.3199,9.18 -3.6599,19.72 h -5.64 c 0.2799,-12.62 -1.11,-30.17 15.71,-35.63 v -2.9 c -1.62,-1.47 -2.86,-3.12 -3.6901,-4.8 -1.5599,-3.13 -1.72,-6.39 -0.4499,-8.86 1.25,-2.43 3.89,-4.09 7.9699,-4.11 4.0801,0.02 6.7201,1.68 7.9601,4.11 1.2799,2.46 1.11,5.72 -0.4401,8.86 -0.8399,1.68 -2.0699,3.33 -3.6999,4.8 v 2.9 c 16.8301,5.46 15.4299,23.01 15.72,35.63 h -5.6399 c -0.3401,-10.54 -1.49,-16.95 -3.6602,-19.72 v 59.28 z M 42.7701,140.53 8.48,106.24 42.7701,71.95 c -5.5201,10.2 -8.66,21.88 -8.66,34.29 0,12.41 3.1399,24.09 8.66,34.29 z M 106.24002,204 71.94012,169.7 c 10.2001,5.53 21.89,8.67 34.2999,8.67 12.4102,0 24.1001,-3.14 34.3001,-8.67 z m 0,-38.59 c -32.6799,0 -59.15992,-26.49 -59.15992,-59.17 0,-26.4 17.3001,-48.76 41.17992,-56.38 h 0.01 l 2.1101,8.61 C 70.36,65.11 55.92,83.99 55.92,106.24 c 0,27.8 22.53002,50.33 50.31992,50.33 27.7901,0 50.3201,-22.53 50.3201,-50.33 0,-22.25 -14.4399,-41.13 -34.46,-47.77 l 2.11,-8.6 c 23.89,7.6 41.1901,29.97 41.1901,56.37 0,32.68 -26.4901,59.17 -59.1602,59.17 z m 63.4701,-93.46 34.2899,34.29 -34.2999,34.3 c 5.5199,-10.2 8.66,-21.88 8.66,-34.3 0,-12.41 -3.1301,-24.09 -8.65,-34.29 z"
   id="path3998"
   inkscape:connector-curvature="0"
   style="fill:#90ae50;fill-opacity:1" />











































































































































</svg>