<?xml version="1.0" encoding="UTF-8" standalone="no"?>
<!-- Generator: Adobe Illustrator 22.1.0, SVG Export Plug-In . SVG Version: 6.00 Build 0)  -->

<svg
   xmlns:dc="http://purl.org/dc/elements/1.1/"
   xmlns:cc="http://creativecommons.org/ns#"
   xmlns:rdf="http://www.w3.org/1999/02/22-rdf-syntax-ns#"
   xmlns:svg="http://www.w3.org/2000/svg"
   xmlns="http://www.w3.org/2000/svg"
   xmlns:sodipodi="http://sodipodi.sourceforge.net/DTD/sodipodi-0.dtd"
   xmlns:inkscape="http://www.inkscape.org/namespaces/inkscape"
   version="1.1"
   id="Layer_2_1_"
   x="0px"
   y="0px"
   viewBox="0 0 212.4853 212.48539"
   enable-background="new 0 0 3947.9399414 3860.8613281"
   xml:space="preserve"
   sodipodi:docname="the_planetary_transit_system.svg"
   inkscape:version="0.92.4 (5da689c313, 2019-01-14)"
   width="212.48531"
   height="212.4854"><metadata
   id="metadata5465"><rdf:RDF><cc:Work
       rdf:about=""><dc:format>image/svg+xml</dc:format><dc:type
         rdf:resource="http://purl.org/dc/dcmitype/StillImage" /><dc:title></dc:title></cc:Work></rdf:RDF></metadata><defs
   id="defs5463" /><sodipodi:namedview
   pagecolor="#ffffff"
   bordercolor="#666666"
   borderopacity="1"
   objecttolerance="10"
   gridtolerance="10"
   guidetolerance="10"
   inkscape:pageopacity="0"
   inkscape:pageshadow="2"
   inkscape:window-width="1920"
   inkscape:window-height="1022"
   id="namedview5461"
   showgrid="false"
   inkscape:zoom="0.21212883"
   inkscape:cx="-905.20242"
   inkscape:cy="200.80604"
   inkscape:window-x="1079"
   inkscape:window-y="709"
   inkscape:window-maximized="1"
   inkscape:current-layer="Layer_2_1_" />




































































<g
   id="g4302"
   transform="translate(-2177.4612,-1714.0007)"
   style="fill:#90ae50;fill-opacity:1">
	<path
   d="m 2283.7039,1763.5906 c -31.2383,0 -56.6524,25.415 -56.6524,56.6533 0,31.2383 25.4141,56.6523 56.6524,56.6523 31.2382,0 56.6523,-25.414 56.6523,-56.6523 0,-31.2383 -25.4141,-56.6533 -56.6523,-56.6533 z m 0,110.3056 c -29.584,0 -53.6524,-24.0683 -53.6524,-53.6523 0,-29.585 24.0684,-53.6533 53.6524,-53.6533 29.5839,0 53.6523,24.0683 53.6523,53.6533 0,29.584 -24.0684,53.6523 -53.6523,53.6523 z"
   id="path4294"
   inkscape:connector-curvature="0"
   style="fill:#90ae50;fill-opacity:1" />
	<path
   d="m 2283.7043,1714.0007 -106.2431,106.2427 106.2431,106.2427 106.2422,-106.2427 z m 0,8.4854 34.295,34.2949 c -10.2007,-5.5237 -21.8819,-8.6621 -34.2954,-8.6621 -12.4151,0 -24.0962,3.1389 -34.2967,8.6638 z m -97.7587,97.7573 34.3027,-34.302 c -5.5254,10.2004 -8.6646,21.8821 -8.6646,34.2976 0,12.4207 3.1402,24.1065 8.6673,34.3096 z m 97.7587,97.7583 -34.2973,-34.2969 c 10.2004,5.5252 21.8818,8.6641 34.2969,8.6641 12.4135,0 24.0947,-3.1384 34.2956,-8.6624 z m -4e-4,-33.8728 c -35.2801,0 -63.8799,-28.5998 -63.8799,-63.8899 0,-35.28 28.5998,-63.8801 63.8799,-63.8801 35.28,0 63.8798,28.6001 63.8798,63.8801 0,35.2901 -28.5998,63.8899 -63.8798,63.8899 z m 72.1298,-63.8899 c 0,-12.4094 -3.1372,-24.0854 -8.6587,-34.2827 l 34.2872,34.2871 -34.2901,34.2903 c 5.5235,-10.2 8.6616,-21.8801 8.6616,-34.2947 z"
   id="path4296"
   inkscape:connector-curvature="0"
   style="fill:#90ae50;fill-opacity:1" />
	<path
   d="m 2283.7039,1772.4178 c -26.4134,0 -47.8257,21.4123 -47.8257,47.8256 0,26.4133 21.4123,47.8254 47.8257,47.8254 26.4133,0 47.8256,-21.4121 47.8256,-47.8254 0,-26.4133 -21.4123,-47.8256 -47.8256,-47.8256 z m 22.509,53.3302 c -0.5681,2.3302 -1.4834,4.5242 -2.6963,6.5188 l 8.6533,8.6536 4.218,-4.218 v 16.2251 h -16.2251 l 4.2181,-4.218 -8.6536,-8.6536 c -1.9946,1.2131 -4.1885,2.1284 -6.5186,2.6963 v 12.2395 h 5.9725 l -11.4773,11.4773 -11.4771,-11.4773 h 5.9724 v -12.2395 c -2.3303,-0.5679 -4.5242,-1.4832 -6.5188,-2.6963 l -8.6533,8.6536 4.2178,4.218 h -16.2251 v -16.2251 l 4.218,4.218 8.6536,-8.6536 c -1.2132,-1.9945 -2.1285,-4.1886 -2.6963,-6.5188 h -12.2395 v 5.9727 l -11.4773,-11.4773 11.4773,-11.4773 v 5.9727 h 12.2395 c 0.5678,-2.3304 1.4831,-4.5243 2.6963,-6.5188 l -8.6536,-8.6536 -4.218,4.218 v -16.2251 h 16.2251 l -4.2178,4.218 8.6533,8.6535 c 1.9946,-1.213 4.1885,-2.1283 6.5188,-2.6963 v -12.2394 h -5.9724 l 11.4771,-11.4773 11.4773,11.4773 h -5.9725 v 12.2394 c 2.3301,0.568 4.5242,1.4833 6.5186,2.6963 l 8.6536,-8.6535 -4.2181,-4.218 h 16.2251 v 16.2251 l -4.218,-4.218 -8.6535,8.6536 c 1.2131,1.9946 2.1284,4.1884 2.6962,6.5188 h 12.2395 v -5.9727 l 11.4773,11.4773 -11.4773,11.4773 v -5.9727 z"
   id="path4298"
   inkscape:connector-curvature="0"
   style="fill:#90ae50;fill-opacity:1" />
	<path
   style="fill:#90ae50;fill-opacity:1"
   d="m 2301.1697,1820.2434 a 17.46582,17.46582 0 0 1 -17.4658,17.4658 17.46582,17.46582 0 0 1 -17.4659,-17.4658 17.46582,17.46582 0 0 1 17.4659,-17.4658 17.46582,17.46582 0 0 1 17.4658,17.4658 z"
   id="circle4300"
   inkscape:connector-curvature="0" />
</g>














































































































</svg>