<?xml version="1.0" encoding="UTF-8" standalone="no"?>
<!-- Generator: Adobe Illustrator 22.1.0, SVG Export Plug-In . SVG Version: 6.00 Build 0)  -->

<svg
   xmlns:dc="http://purl.org/dc/elements/1.1/"
   xmlns:cc="http://creativecommons.org/ns#"
   xmlns:rdf="http://www.w3.org/1999/02/22-rdf-syntax-ns#"
   xmlns:svg="http://www.w3.org/2000/svg"
   xmlns="http://www.w3.org/2000/svg"
   xmlns:sodipodi="http://sodipodi.sourceforge.net/DTD/sodipodi-0.dtd"
   xmlns:inkscape="http://www.inkscape.org/namespaces/inkscape"
   version="1.1"
   id="Layer_2_1_"
   x="0px"
   y="0px"
   viewBox="0 0 212.47998 212.48"
   enable-background="new 0 0 3947.9399414 3860.8613281"
   xml:space="preserve"
   sodipodi:docname="the_ascent_to_transcendence.svg"
   inkscape:version="0.92.4 (5da689c313, 2019-01-14)"
   width="212.47997"
   height="212.48"><metadata
   id="metadata5465"><rdf:RDF><cc:Work
       rdf:about=""><dc:format>image/svg+xml</dc:format><dc:type
         rdf:resource="http://purl.org/dc/dcmitype/StillImage" /><dc:title></dc:title></cc:Work></rdf:RDF></metadata><defs
   id="defs5463" /><sodipodi:namedview
   pagecolor="#ffffff"
   bordercolor="#666666"
   borderopacity="1"
   objecttolerance="10"
   gridtolerance="10"
   guidetolerance="10"
   inkscape:pageopacity="0"
   inkscape:pageshadow="2"
   inkscape:window-width="1920"
   inkscape:window-height="1022"
   id="namedview5461"
   showgrid="false"
   inkscape:zoom="0.21212883"
   inkscape:cx="333.19054"
   inkscape:cy="1335.9667"
   inkscape:window-x="1079"
   inkscape:window-y="709"
   inkscape:window-maximized="1"
   inkscape:current-layer="Layer_2_1_" />












































































































































































<g
   id="g5346"
   transform="translate(-939.06824,-2849.1667)"
   style="fill:#d7e6ed;fill-opacity:1">
	<path
   d="m 1044.3082,3011.678 v -16.3758 l -3.0686,-26.6272 -15.3408,39.5911 c 5.7532,2.1133 11.9504,3.2991 18.4094,3.4119 z"
   id="path5316"
   inkscape:connector-curvature="0"
   style="fill:#d7e6ed;fill-opacity:1" />
	<path
   d="m 1064.7177,2902.5474 c -5.7532,-2.1133 -11.9505,-3.2991 -18.4095,-3.4121 v 16.3759 l 3.0686,26.6272 z"
   id="path5318"
   inkscape:connector-curvature="0"
   style="fill:#d7e6ed;fill-opacity:1" />
	<path
   d="m 1044.3082,2899.1353 c -6.459,0.113 -12.6562,1.2985 -18.4094,3.4121 l 15.3408,39.591 3.0686,-26.6272 z"
   id="path5320"
   inkscape:connector-curvature="0"
   style="fill:#d7e6ed;fill-opacity:1" />
	<path
   d="m 1057.8541,2961.3401 28.4459,32.6301 c 4.6999,-4.9941 8.4966,-10.8428 11.1315,-17.2942 z"
   id="path5322"
   inkscape:connector-curvature="0"
   style="fill:#d7e6ed;fill-opacity:1" />
	<path
   d="m 1058.5752,2951.3379 35.306,4.0688 -35.3042,4.0684 39.5882,15.3401 c 2.2214,-6.0491 3.4351,-12.5847 3.4351,-19.4041 0,-6.823 -1.2144,-13.3615 -3.4368,-19.4131 z"
   id="path5324"
   inkscape:connector-curvature="0"
   style="fill:#d7e6ed;fill-opacity:1" />
	<path
   d="m 1097.4298,2934.137 c -2.6348,-6.451 -6.4313,-12.2991 -11.1302,-17.2932 l -28.4443,32.6279 z"
   id="path5326"
   inkscape:connector-curvature="0"
   style="fill:#d7e6ed;fill-opacity:1" />
	<path
   d="m 1051.2424,2942.8604 32.6291,-28.4451 c -4.9939,-4.7007 -10.8418,-8.4986 -17.293,-11.134 z"
   id="path5328"
   inkscape:connector-curvature="0"
   style="fill:#d7e6ed;fill-opacity:1" />
	<path
   d="m 1049.3768,2968.675 -3.0686,26.6272 v 16.3758 c 6.459,-0.1131 12.6563,-1.2986 18.4095,-3.4119 z"
   id="path5330"
   inkscape:connector-curvature="0"
   style="fill:#d7e6ed;fill-opacity:1" />
	<path
   d="m 1039.374,2967.9531 -32.6296,28.4453 c 4.994,4.7007 10.8423,8.4983 17.2936,11.1338 z"
   id="path5332"
   inkscape:connector-curvature="0"
   style="fill:#d7e6ed;fill-opacity:1" />
	<path
   d="m 1045.3082,2849.1667 -106.23996,106.24 106.23996,106.24 106.24,-106.24 z m 0,8.48 34.3001,34.3001 c -10.21,-5.52 -21.8902,-8.6602 -34.3001,-8.6602 -12.4199,0 -24.1001,3.1402 -34.3,8.6602 z m -97.75998,97.76 34.30005,-34.3 c -5.52002,10.1999 -8.66016,21.8801 -8.66016,34.3 0,12.42 3.14014,24.1001 8.67017,34.3101 z m 97.75998,97.76 -34.3,-34.3 c 10.1999,5.53 21.8801,8.6699 34.3,8.6699 12.4099,0 24.0901,-3.1399 34.3001,-8.6599 z m 48.6978,-47.9335 -4.3892,-3.8265 c -11.4867,11.0704 -27.0967,17.8902 -44.3086,17.8902 -17.2119,0 -32.822,-6.8198 -44.3086,-17.8902 l -4.389,3.8262 c -0.75086,0.6546 -1.78333,-0.3779 -1.12879,-1.1287 l 3.82654,-4.3894 c -11.06384,-11.487 -17.88001,-27.0957 -17.88001,-44.3081 0,-17.2094 6.81775,-32.8173 17.88392,-44.3037 l -3.83045,-4.3938 c -0.65454,-0.7509 0.37793,-1.7834 1.12879,-1.1286 l 4.3938,3.8303 c 11.4862,-11.0664 27.0942,-17.884 44.3038,-17.884 17.2096,0 32.8177,6.8176 44.3039,17.884 l 4.3938,-3.8303 c 0.7508,-0.6548 1.7833,0.3777 1.1287,1.1286 l -3.8304,4.3938 c 11.0663,11.4864 17.8839,27.0943 17.8839,44.3037 0,17.2124 -6.8162,32.8211 -17.8801,44.3084 l 3.8266,4.3894 c 0.6546,0.7507 -0.3779,1.7832 -1.1286,1.1287 z m 23.4321,-49.8265 c 0,-12.4101 -3.1399,-24.09 -8.6599,-34.28 l 34.29,34.28 -34.29,34.2901 c 5.52,-10.2002 8.6599,-21.8801 8.6599,-34.2901 z"
   id="path5334"
   inkscape:connector-curvature="0"
   style="fill:#d7e6ed;fill-opacity:1" />
	<path
   d="m 993.18494,2976.676 c 2.63488,6.4514 6.43164,12.3001 11.13136,17.2942 l 28.446,-32.6301 z"
   id="path5336"
   inkscape:connector-curvature="0"
   style="fill:#d7e6ed;fill-opacity:1" />
	<path
   d="m 1066.5785,3007.5322 c 6.4513,-2.6355 12.2994,-6.4331 17.2934,-11.1335 l -32.6293,-28.4453 z"
   id="path5338"
   inkscape:connector-curvature="0"
   style="fill:#d7e6ed;fill-opacity:1" />
	<path
   d="m 1024.038,2903.2813 c -6.4511,2.6354 -12.2991,6.4333 -17.293,11.134 l 32.629,28.4451 z"
   id="path5340"
   inkscape:connector-curvature="0"
   style="fill:#d7e6ed;fill-opacity:1" />
	<path
   d="m 1032.7611,2949.4717 -28.4442,-32.6279 c -4.6991,4.9938 -8.49549,10.842 -11.13025,17.2932 z"
   id="path5342"
   inkscape:connector-curvature="0"
   style="fill:#d7e6ed;fill-opacity:1" />
	<path
   d="m 1032.0394,2959.4751 -35.30417,-4.0684 35.30607,-4.0688 -39.5883,-15.3399 c -2.22241,6.0516 -3.43689,12.5901 -3.43689,19.4131 0,6.8194 1.21375,13.355 3.43518,19.4041 z"
   id="path5344"
   inkscape:connector-curvature="0"
   style="fill:#d7e6ed;fill-opacity:1" />
</g>






</svg>