<?xml version="1.0" encoding="UTF-8" standalone="no"?>
<!-- Generator: Adobe Illustrator 22.1.0, SVG Export Plug-In . SVG Version: 6.00 Build 0)  -->

<svg
   xmlns:dc="http://purl.org/dc/elements/1.1/"
   xmlns:cc="http://creativecommons.org/ns#"
   xmlns:rdf="http://www.w3.org/1999/02/22-rdf-syntax-ns#"
   xmlns:svg="http://www.w3.org/2000/svg"
   xmlns="http://www.w3.org/2000/svg"
   xmlns:sodipodi="http://sodipodi.sourceforge.net/DTD/sodipodi-0.dtd"
   xmlns:inkscape="http://www.inkscape.org/namespaces/inkscape"
   version="1.1"
   id="Layer_2_1_"
   x="0px"
   y="0px"
   viewBox="0 0 212.48532 212.48536"
   enable-background="new 0 0 3947.9399414 3860.8613281"
   xml:space="preserve"
   sodipodi:docname="the_planetary_energy_grid.svg"
   inkscape:version="0.92.4 (5da689c313, 2019-01-14)"
   width="212.48531"
   height="212.48535"><metadata
   id="metadata5465"><rdf:RDF><cc:Work
       rdf:about=""><dc:format>image/svg+xml</dc:format><dc:type
         rdf:resource="http://purl.org/dc/dcmitype/StillImage" /><dc:title></dc:title></cc:Work></rdf:RDF></metadata><defs
   id="defs5463" /><sodipodi:namedview
   pagecolor="#ffffff"
   bordercolor="#666666"
   borderopacity="1"
   objecttolerance="10"
   gridtolerance="10"
   guidetolerance="10"
   inkscape:pageopacity="0"
   inkscape:pageshadow="2"
   inkscape:window-width="1920"
   inkscape:window-height="1022"
   id="namedview5461"
   showgrid="false"
   inkscape:zoom="0.21212883"
   inkscape:cx="-905.20242"
   inkscape:cy="-934.35735"
   inkscape:window-x="1079"
   inkscape:window-y="709"
   inkscape:window-maximized="1"
   inkscape:current-layer="Layer_2_1_" />
































































<g
   id="g4270"
   transform="translate(-2177.4612,-578.83734)"
   style="fill:#e2bd4d;fill-opacity:1">
	<path
   d="m 2283.7043,578.83734 -106.2431,106.24268 106.2431,106.24267 106.2422,-106.24267 z m 72.127,106.24268 c 0,-12.41162 -3.1375,-24.09082 -8.6599,-34.29053 l 34.2908,34.29053 -34.2935,34.29364 c 5.5242,-10.19965 8.6626,-21.87989 8.6626,-34.29364 z m -72.1301,68.24005 c -37.69,0 -68.24,-30.55005 -68.24,-68.24005 0,-37.69001 30.55,-68.23999 68.24,-68.23999 37.6902,0 68.25,30.54998 68.25,68.23999 0,37.69 -30.5598,68.24005 -68.25,68.24005 z m 34.2898,-131.71082 c -10.1985,-5.52166 -21.877,-8.65918 -34.2898,-8.65918 -12.4104,0 -24.0872,3.13788 -34.2849,8.66022 l 34.288,-34.2876 z m -97.7456,29.17151 c -5.5249,10.20172 -8.6641,21.88416 -8.6641,34.29926 0,12.41723 3.1401,24.10064 8.6667,34.3023 l -34.3024,-34.3023 z m 29.154,97.75281 c 10.2014,5.52655 21.8848,8.6665 34.3018,8.6665 12.4194,0 24.1042,-3.13958 34.3069,-8.66552 l -34.3038,34.30377 z"
   id="path4254"
   inkscape:connector-curvature="0"
   style="fill:#e2bd4d;fill-opacity:1" />
	<path
   d="m 2283.7039,746.47852 c -33.8555,0 -61.3985,-27.54346 -61.3985,-61.39844 0,-33.85498 27.543,-61.39844 61.3985,-61.39844 33.8554,0 61.3984,27.54346 61.3984,61.39844 0,33.85498 -27.543,61.39844 -61.3984,61.39844 z m 0,-120.79688 c -32.752,0 -59.3985,26.646 -59.3985,59.39844 0,32.75244 26.6465,59.39844 59.3985,59.39844 32.7519,0 59.3984,-26.646 59.3984,-59.39844 0,-32.75244 -26.6465,-59.39844 -59.3984,-59.39844 z"
   id="path4256"
   inkscape:connector-curvature="0"
   style="fill:#e2bd4d;fill-opacity:1" />
	<path
   d="m 2275.2112,631.42004 -26.8799,94.90003 c -11.6101,-9.97003 -18.96,-24.74005 -18.96,-41.24005 0,-27.12 19.8699,-49.58997 45.8399,-53.65998 z"
   id="path4258"
   inkscape:connector-curvature="0"
   style="fill:#e2bd4d;fill-opacity:1" />
	<path
   d="m 2338.0313,685.08002 c 0,16.5 -7.3501,31.27002 -18.95,41.24005 l -26.8801,-94.90003 c 25.9699,4.07001 45.8301,26.53998 45.8301,53.65998 z"
   id="path4260"
   inkscape:connector-curvature="0"
   style="fill:#e2bd4d;fill-opacity:1" />
	<path
   d="m 2269.0862,688.44189 c -1.8084,4.98395 -5.7639,8.9394 -10.7498,10.74787 -0.2102,0.0762 -0.2102,0.3725 0,0.44867 4.9861,1.80627 8.9414,5.75952 10.7498,10.74328 0.076,0.21009 0.3723,0.21009 0.4485,0 1.8083,-4.98376 5.7639,-8.93701 10.7497,-10.74328 0.2102,-0.0762 0.2102,-0.37244 0,-0.44867 -4.9858,-1.80847 -8.9414,-5.76392 -10.7497,-10.74787 -0.076,-0.21008 -0.3723,-0.21008 -0.4485,0 z"
   id="path4262"
   inkscape:connector-curvature="0"
   style="fill:#e2bd4d;fill-opacity:1" />
	<path
   d="m 2297.8716,688.44678 c -1.8091,4.98138 -5.7632,8.93469 -10.7473,10.74261 -0.2178,0.079 -0.2176,0.37042 2e-4,0.44934 4.9854,1.80628 8.9402,5.7591 10.7485,10.74231 0.079,0.21765 0.3704,0.21765 0.4493,0 1.8083,-4.98321 5.7631,-8.93603 10.7485,-10.74231 0.2178,-0.0789 0.218,-0.3703 2e-4,-0.44934 -4.9841,-1.80792 -8.9382,-5.76123 -10.7473,-10.74261 -0.08,-0.219 -0.3725,-0.219 -0.4521,0 z"
   id="path4264"
   inkscape:connector-curvature="0"
   style="fill:#e2bd4d;fill-opacity:1" />
	<path
   d="m 2283.4797,674.05188 c -1.8083,4.98401 -5.7636,8.93939 -10.7497,10.74786 -0.2102,0.0762 -0.21,0.3725 0,0.44867 4.9861,1.80628 8.9414,5.75959 10.7497,10.74335 0.076,0.21008 0.3724,0.21008 0.4488,0 1.8083,-4.98376 5.7636,-8.93707 10.7495,-10.74335 0.2102,-0.0762 0.2102,-0.37243 2e-4,-0.44867 -4.9861,-1.80847 -8.9414,-5.76385 -10.7497,-10.74786 -0.076,-0.21008 -0.3726,-0.21008 -0.4488,0 z"
   id="path4266"
   inkscape:connector-curvature="0"
   style="fill:#e2bd4d;fill-opacity:1" />
	<path
   d="m 2283.4797,702.83185 c -1.8083,4.98401 -5.7636,8.93939 -10.7497,10.74786 -0.2102,0.0762 -0.21,0.3725 0,0.44867 4.9861,1.80628 8.9414,5.75958 10.7497,10.74335 0.076,0.21008 0.3724,0.21008 0.4488,0 1.8083,-4.98377 5.7636,-8.93707 10.7495,-10.74335 0.2102,-0.0762 0.2102,-0.37244 2e-4,-0.44867 -4.9861,-1.80847 -8.9414,-5.76385 -10.7497,-10.74786 -0.076,-0.21008 -0.3726,-0.21008 -0.4488,0 z"
   id="path4268"
   inkscape:connector-curvature="0"
   style="fill:#e2bd4d;fill-opacity:1" />
</g>


















































































































</svg>