<?xml version="1.0" encoding="UTF-8" standalone="no"?>
<!-- Generator: Adobe Illustrator 22.1.0, SVG Export Plug-In . SVG Version: 6.00 Build 0)  -->

<svg
   xmlns:dc="http://purl.org/dc/elements/1.1/"
   xmlns:cc="http://creativecommons.org/ns#"
   xmlns:rdf="http://www.w3.org/1999/02/22-rdf-syntax-ns#"
   xmlns:svg="http://www.w3.org/2000/svg"
   xmlns="http://www.w3.org/2000/svg"
   xmlns:sodipodi="http://sodipodi.sourceforge.net/DTD/sodipodi-0.dtd"
   xmlns:inkscape="http://www.inkscape.org/namespaces/inkscape"
   version="1.1"
   id="Layer_2_1_"
   x="0px"
   y="0px"
   viewBox="0 0 212.4799 212.47998"
   enable-background="new 0 0 3947.9399414 3860.8613281"
   xml:space="preserve"
   sodipodi:docname="the_planetary_datalinks.svg"
   inkscape:version="0.92.4 (5da689c313, 2019-01-14)"
   width="212.4799"
   height="212.47998"><metadata
   id="metadata5465"><rdf:RDF><cc:Work
       rdf:about=""><dc:format>image/svg+xml</dc:format><dc:type
         rdf:resource="http://purl.org/dc/dcmitype/StillImage" /><dc:title></dc:title></cc:Work></rdf:RDF></metadata><defs
   id="defs5463" /><sodipodi:namedview
   pagecolor="#ffffff"
   bordercolor="#666666"
   borderopacity="1"
   objecttolerance="10"
   gridtolerance="10"
   guidetolerance="10"
   inkscape:pageopacity="0"
   inkscape:pageshadow="2"
   inkscape:window-width="1920"
   inkscape:window-height="1022"
   id="namedview5461"
   showgrid="false"
   inkscape:zoom="0.21212883"
   inkscape:cx="-1524.4031"
   inkscape:cy="-1501.9417"
   inkscape:window-x="1079"
   inkscape:window-y="709"
   inkscape:window-maximized="1"
   inkscape:current-layer="Layer_2_1_" />

















































































<g
   id="g4434"
   transform="translate(-2796.6619,-11.258389)"
   style="fill:#d7e6ed;fill-opacity:1">
	<path
   d="m 2902.9019,57.679958 c -33.0369,0 -59.8184,26.78162 -59.8184,59.818422 0,33.03681 26.7815,59.81848 59.8184,59.81848 33.0368,0 59.8183,-26.78167 59.8183,-59.81848 0,-33.036802 -26.7815,-59.818422 -59.8183,-59.818422 z m 0,111.636902 c -28.5728,0 -51.8184,-23.24572 -51.8184,-51.81848 0,-28.572812 23.2456,-51.818418 51.8184,-51.818418 28.5727,0 51.8183,23.245606 51.8183,51.818418 0,28.57276 -23.2456,51.81848 -51.8183,51.81848 z"
   id="path4428"
   inkscape:connector-curvature="0"
   style="fill:#d7e6ed;fill-opacity:1" />
	<path
   d="m 2936.4688,94.684906 v -5.082031 h -8.169 c -7.477,-3.858765 -16.1328,-6.815552 -25.3984,3.218689 -9.2657,-10.035095 -17.9224,-7.077454 -25.3975,-3.218689 h -8.1689 v 5.082031 h -3.9336 v 54.081054 h 75 V 94.684906 Z m -64.4102,39.413084 h 28.8428 4 28.8437 v 3.01514 h -61.6865 z m 54.8252,-40.723143 0.4355,0.228028 h 5.1495 v 36.495115 h -27.5674 V 96.589691 c 7.2461,-8.628418 13.1347,-7.845215 21.9824,-3.214844 z m -53.5488,0.228028 h 5.1494 l 0.4355,-0.228027 c 8.8467,-4.631348 14.7364,-5.413575 21.9815,3.214843 v 33.508299 h -27.5664 z m -3.9336,51.163085 v -3.65283 h 67 v 3.65283 z"
   id="path4430"
   inkscape:connector-curvature="0"
   style="fill:#d7e6ed;fill-opacity:1" />
	<path
   d="m 2902.9019,11.258389 -106.24,106.239991 106.24,106.23999 106.2399,-106.23999 z m 0,8.47998 34.3,34.299988 c -10.21,-5.52002 -21.8901,-8.659973 -34.3,-8.659973 -12.42,0 -24.1001,3.139953 -34.3001,8.659973 z m -97.7601,97.760011 34.3001,-34.299985 c -5.52,10.199951 -8.6602,21.879945 -8.6602,34.299985 0,12.41999 3.1402,24.09998 8.6702,34.31 z m 97.7601,97.76001 -34.3001,-34.30005 c 10.2,5.53003 21.8801,8.67005 34.3001,8.67005 12.4099,0 24.09,-3.14002 34.3,-8.66004 z m 0,-33.86999 c -35.2801,0 -63.8799,-28.60004 -63.8799,-63.89002 0,-35.280027 28.5998,-63.880006 63.8799,-63.880006 35.28,0 63.8798,28.599979 63.8798,63.880006 0,35.28998 -28.5998,63.89002 -63.8798,63.89002 z m 72.1298,-63.89002 c 0,-12.41003 -3.1399,-24.090024 -8.6599,-34.280027 l 34.2901,34.280027 -34.2901,34.28998 c 5.52,-10.20001 8.6599,-21.88 8.6599,-34.28998 z"
   id="path4432"
   inkscape:connector-curvature="0"
   style="fill:#d7e6ed;fill-opacity:1" />
</g>

































































































</svg>