<?xml version="1.0" encoding="UTF-8" standalone="no"?>
<!-- Generator: Adobe Illustrator 22.1.0, SVG Export Plug-In . SVG Version: 6.00 Build 0)  -->

<svg
   xmlns:dc="http://purl.org/dc/elements/1.1/"
   xmlns:cc="http://creativecommons.org/ns#"
   xmlns:rdf="http://www.w3.org/1999/02/22-rdf-syntax-ns#"
   xmlns:svg="http://www.w3.org/2000/svg"
   xmlns="http://www.w3.org/2000/svg"
   xmlns:sodipodi="http://sodipodi.sourceforge.net/DTD/sodipodi-0.dtd"
   xmlns:inkscape="http://www.inkscape.org/namespaces/inkscape"
   version="1.1"
   id="Layer_2_1_"
   x="0px"
   y="0px"
   viewBox="0 0 212.48 212.47989"
   enable-background="new 0 0 3947.9399414 3860.8613281"
   xml:space="preserve"
   sodipodi:docname="the_nano_factory.svg"
   inkscape:version="0.92.4 (5da689c313, 2019-01-14)"
   width="212.48"
   height="212.47989"><metadata
   id="metadata5465"><rdf:RDF><cc:Work
       rdf:about=""><dc:format>image/svg+xml</dc:format><dc:type
         rdf:resource="http://purl.org/dc/dcmitype/StillImage" /><dc:title></dc:title></cc:Work></rdf:RDF></metadata><defs
   id="defs5463" /><sodipodi:namedview
   pagecolor="#ffffff"
   bordercolor="#666666"
   borderopacity="1"
   objecttolerance="10"
   gridtolerance="10"
   guidetolerance="10"
   inkscape:pageopacity="0"
   inkscape:pageshadow="2"
   inkscape:window-width="1920"
   inkscape:window-height="1022"
   id="namedview5461"
   showgrid="false"
   inkscape:zoom="0.21212883"
   inkscape:cx="1261.9873"
   inkscape:cy="768.38485"
   inkscape:window-x="1079"
   inkscape:window-y="709"
   inkscape:window-maximized="1"
   inkscape:current-layer="Layer_2_1_" />









































































































































<path
   d="M 106.24,0 0,106.24 106.24,212.47989 212.48,106.24 Z m 0,8.4799 34.3,34.3001 c -10.2099,-5.52 -21.8901,-8.6602 -34.3,-8.6602 -12.42,0 -24.1001,3.1402 -34.3001,8.6602 z m -10.7098,53.93 V 68.03 h 3.57 v -5.6201 h 1.78 v -16.98 h 10.72 v 16.98 h 1.78 V 68.03 h 3.57 v -5.6201 h 1.79 v -16.98 h 10.71 v 16.98 h 1.79 v 11.3301 5.82 9.8098 l -25,50.36009 -25,-50.36009 V 79.56 73.74 62.4099 h 1.79 v -16.98 h 10.71 v 16.98 z M 77.2402,73.74 v 5.82 h -7.37 l 36.37,73.24999 36.37,-73.24999 h -7.37 v -5.82 h 16.75 l -45.75,92.16989 L 60.4802,73.74 Z M 8.48,106.24 42.78,71.9399 c -5.52,10.2 -8.6602,21.8801 -8.6602,34.3001 0,12.4199 3.1402,24.1 8.6702,34.30999 z m 51.426,44.27529 7.5367,-13.7836 12.7849,6.9902 4.5768,-8.365 19.5738,30.5496 H 68.0965 l 4.5946,-8.4009 z m 46.334,53.4847 -34.3001,-34.3001 c 10.2,5.53 21.8801,8.6699 34.3001,8.6699 12.4099,0 24.0901,-3.1399 34.3,-8.6599 z m 38.1434,-38.0935 h -36.2817 l 19.5738,-30.5496 4.5768,8.365 12.7849,-6.9902 7.5367,13.7836 -12.7852,6.9903 z M 169.7099,71.9599 204,106.24 169.7099,140.52999 c 5.5201,-10.20019 8.66,-21.88009 8.66,-34.28999 0,-12.4102 -3.1399,-24.0901 -8.66,-34.2801 z"
   id="path4956"
   inkscape:connector-curvature="0"
   style="fill:#e1561c;fill-opacity:1" />









































</svg>