<?xml version="1.0" encoding="UTF-8" standalone="no"?>
<!-- Generator: Adobe Illustrator 22.1.0, SVG Export Plug-In . SVG Version: 6.00 Build 0)  -->

<svg
   xmlns:dc="http://purl.org/dc/elements/1.1/"
   xmlns:cc="http://creativecommons.org/ns#"
   xmlns:rdf="http://www.w3.org/1999/02/22-rdf-syntax-ns#"
   xmlns:svg="http://www.w3.org/2000/svg"
   xmlns="http://www.w3.org/2000/svg"
   xmlns:sodipodi="http://sodipodi.sourceforge.net/DTD/sodipodi-0.dtd"
   xmlns:inkscape="http://www.inkscape.org/namespaces/inkscape"
   version="1.1"
   id="Layer_2_1_"
   x="0px"
   y="0px"
   viewBox="0 0 212.48001 212.48"
   enable-background="new 0 0 3947.9399414 3860.8613281"
   xml:space="preserve"
   sodipodi:docname="the_cloudbase_academy.svg"
   inkscape:version="0.92.4 (5da689c313, 2019-01-14)"
   width="212.48"
   height="212.48"><metadata
   id="metadata5465"><rdf:RDF><cc:Work
       rdf:about=""><dc:format>image/svg+xml</dc:format><dc:type
         rdf:resource="http://purl.org/dc/dcmitype/StillImage" /><dc:title></dc:title></cc:Work></rdf:RDF></metadata><defs
   id="defs5463" /><sodipodi:namedview
   pagecolor="#ffffff"
   bordercolor="#666666"
   borderopacity="1"
   objecttolerance="10"
   gridtolerance="10"
   guidetolerance="10"
   inkscape:pageopacity="0"
   inkscape:pageshadow="2"
   inkscape:window-width="1920"
   inkscape:window-height="1022"
   id="namedview5461"
   showgrid="false"
   inkscape:zoom="0.21212883"
   inkscape:cx="-2453.1998"
   inkscape:cy="-1218.1508"
   inkscape:window-x="1079"
   inkscape:window-y="709"
   inkscape:window-maximized="1"
   inkscape:current-layer="Layer_2_1_" />







































































































<path
   d="M 106.2402,0 0,106.24 106.2402,212.48 212.48,106.24 Z m 54.6419,81.19 c -0.02,0.01 -0.05,0.03 -0.08,0.04 l -27.3999,13.19 c -0.25,-0.36 -0.5,-0.68 -0.74,-0.96 -0.97,-1.14 -1.8501,-1.75 -2.6201,-2.03 l 31.9101,-24.97 c 2.3999,6.67 2.97,12.7 -1.07,14.73 z m -64.7239,32.3448 c 0.4949,0.7971 0.4614,1.809 -0.1777,2.4958 l -7.6126,8.1795 c -1.51,1.6299 -3.8,-0.91 -5.04,-4.1801 -0.25,-0.6799 -0.46,-1.39 -0.6101,-2.0999 -0.05,-0.25 -0.09,-0.5 -0.1299,-0.75 -0.1299,-0.9001 -0.5401,-1.7301 -1.22,-2.3501 -0.1699,-0.1599 -0.3401,-0.32 -0.5,-0.49 -0.5801,-0.58 -1.0701,-1.2 -1.49,-1.83 -1.1101,-1.67 -1.73,-3.48 -1.98,-5.31 -0.1001,-0.7099 -0.1401,-1.4099 -0.1401,-2.12 0.02,-3.06 0.9302,-6.0299 2.1401,-8.2899 0.3301,-0.63 0.69,-1.2001 1.0501,-1.7101 1.3899,-1.89 2.8999,-2.8399 3.8999,-2.1599 0,0.01 0.01,0.01 0.01,0.01 0.02,0.01 0.04,0.03 0.06,0.04 l 15.9199,12.46 c -2.0261,2.159 -5.3623,6.2004 -4.1797,8.1047 z m -9.5903,12.6152 -3.3999,3.66 c -0.02,0.02 -0.04,0.04 -0.06,0.06 -3.23,3.33 -9.5801,-1.61 -7.6001,-3.3299 0.01,-0.01 0.01,-0.01 0.02,-0.02 l 6.5901,-5.48 c 0.95,2.29 2.76,4.44 4.45,5.11 z m 19.6721,-15.2766 33.4512,35.9612 H 72.7888 Z m 23.1321,18.9966 c -0.02,-0.02 -0.04,-0.04 -0.06,-0.06 l -3.3999,-3.6599 c 1.6899,-0.67 3.5,-2.8201 4.45,-5.11 l 6.59,5.4799 c 0.01,0.01 0.01,0.01 0.02,0.02 1.9799,1.72 -4.3702,6.66 -7.6001,3.33 z m 0.52,-12.6899 c -0.04,0.25 -0.08,0.5 -0.1299,0.75 -0.1501,0.7099 -0.3601,1.42 -0.6101,2.0999 -1.24,3.2701 -3.53,5.81 -5.04,4.1801 l -7.6126,-8.1795 c -0.6392,-0.6868 -0.6726,-1.6987 -0.1775,-2.4958 1.1824,-1.9043 -2.1538,-5.9458 -4.1799,-8.1047 l 15.9199,-12.46 c 0.02,-0.01 0.04,-0.03 0.06,-0.04 0,0 0.01,0 0.01,-0.01 1,-0.68 2.51,0.2699 3.8999,2.1599 0.3601,0.51 0.7199,1.08 1.05,1.7101 1.21,2.26 2.1201,5.2299 2.1402,8.2899 0,0.7101 -0.04,1.4101 -0.1402,2.12 -0.25,1.83 -0.8698,3.64 -1.98,5.31 -0.4199,0.63 -0.9099,1.25 -1.4899,1.83 -0.16,0.17 -0.3301,0.3301 -0.5,0.49 -0.68,0.62 -1.0901,1.45 -1.22,2.3501 z M 106.2402,8.48 140.54,42.78 c -10.2099,-5.52 -21.8901,-8.66 -34.2998,-8.66 -12.4199,0 -24.1001,3.14 -34.3003,8.66 z m -55.7124,57.9801 31.9102,24.97 c -0.77,0.28 -1.6502,0.8899 -2.6201,2.03 -0.24,0.28 -0.49,0.5999 -0.74,0.96 L 51.678,81.2301 c -0.03,-0.01 -0.06,-0.03 -0.08,-0.04 -4.04,-2.03 -3.47,-8.06 -1.0701,-14.73 z M 8.48,106.24 42.7803,71.94 c -5.52,10.2 -8.6602,21.88 -8.6602,34.3 0,12.42 3.1402,24.1 8.6699,34.31 z M 48.6379,81.9801 78.0378,96.14 c -1.05,2 -1.9599,4.5901 -2.2099,7.5 -0.03,0.3301 -0.05,0.6601 -0.06,1.01 L 54.868,98.62 C 47.5079,96.5 46.2779,91.37 48.638,81.9801 Z m 3.0401,17.81 24.1599,6.9599 c 0.1699,1.9 0.7099,3.9701 1.8999,5.96 l -12.5298,1.57 c -0.02,0 -0.04,0 -0.06,0.01 -5.8601,0.6699 -13.4599,-6.5101 -13.4699,-14.5 z m 11.77,16.7299 15.5998,-1.96 c 0.3902,0.46 0.8201,0.9201 1.3101,1.3701 0.4099,0.3799 0.6599,0.8799 0.75,1.4699 0.07,0.5201 0.1799,1.0601 0.3301,1.6 l -4.8701,4.0501 C 71.9678,126.88 64.1279,122.27 63.448,116.52 Z M 106.2402,204 71.9399,169.7 c 10.2002,5.53 21.8804,8.67 34.3003,8.67 12.4097,0 24.0899,-3.14 34.2998,-8.66 z M 135.9121,123.0501 131.042,119 c 0.1501,-0.5399 0.26,-1.0799 0.3301,-1.6 0.09,-0.59 0.3401,-1.09 0.75,-1.4699 0.49,-0.45 0.9199,-0.9101 1.31,-1.3701 l 15.5999,1.96 c -0.68,5.75 -8.5198,10.36 -13.1199,6.5301 z m 11.4199,-8.76 c -0.02,-0.01 -0.04,-0.01 -0.06,-0.01 l -12.5298,-1.57 c 1.1899,-1.99 1.73,-4.06 1.8999,-5.9601 l 24.1599,-6.9599 c -0.01,7.99 -7.6099,15.17 -13.47,14.5 z m 10.2801,-15.6701 -20.8999,6.0301 c -0.01,-0.35 -0.03,-0.68 -0.06,-1.0101 -0.25,-2.9099 -1.1599,-5.5 -2.21,-7.5 L 163.8421,81.9801 C 166.2022,91.37 164.9723,96.5 157.6122,98.62 Z M 169.71,71.96 204,106.24 169.71,140.53 c 5.52,-10.2 8.6601,-21.88 8.6601,-34.29 0,-12.41 -3.1401,-24.09 -8.6601,-34.28 z"
   id="path4590"
   inkscape:connector-curvature="0"
   style="fill:#e1561c;fill-opacity:1" />











































































</svg>