<?xml version="1.0" encoding="UTF-8" standalone="no"?>
<!-- Generator: Adobe Illustrator 22.1.0, SVG Export Plug-In . SVG Version: 6.00 Build 0)  -->

<svg
   xmlns:dc="http://purl.org/dc/elements/1.1/"
   xmlns:cc="http://creativecommons.org/ns#"
   xmlns:rdf="http://www.w3.org/1999/02/22-rdf-syntax-ns#"
   xmlns:svg="http://www.w3.org/2000/svg"
   xmlns="http://www.w3.org/2000/svg"
   xmlns:sodipodi="http://sodipodi.sourceforge.net/DTD/sodipodi-0.dtd"
   xmlns:inkscape="http://www.inkscape.org/namespaces/inkscape"
   version="1.1"
   id="Layer_2_1_"
   x="0px"
   y="0px"
   viewBox="0 0 212.4853 212.48539"
   enable-background="new 0 0 3947.9399414 3860.8613281"
   xml:space="preserve"
   sodipodi:docname="the_merchant_exchange.svg"
   inkscape:version="0.92.4 (5da689c313, 2019-01-14)"
   width="212.48531"
   height="212.4854"><metadata
   id="metadata5465"><rdf:RDF><cc:Work
       rdf:about=""><dc:format>image/svg+xml</dc:format><dc:type
         rdf:resource="http://purl.org/dc/dcmitype/StillImage" /><dc:title></dc:title></cc:Work></rdf:RDF></metadata><defs
   id="defs5463" /><sodipodi:namedview
   pagecolor="#ffffff"
   bordercolor="#666666"
   borderopacity="1"
   objecttolerance="10"
   gridtolerance="10"
   guidetolerance="10"
   inkscape:pageopacity="0"
   inkscape:pageshadow="2"
   inkscape:window-width="1920"
   inkscape:window-height="1022"
   id="namedview5461"
   showgrid="false"
   inkscape:zoom="0.21212883"
   inkscape:cx="23.594182"
   inkscape:cy="-82.984859"
   inkscape:window-x="1079"
   inkscape:window-y="709"
   inkscape:window-maximized="1"
   inkscape:current-layer="Layer_2_1_" />













































<g
   id="g4142"
   transform="translate(-1248.6646,-1430.2098)"
   style="fill:#e2bd4d;fill-opacity:1">
	<path
   style="fill:#e2bd4d;fill-opacity:1"
   d="m 1357.4075,1571.3998 h 11.2197 v 11.2178 h -11.2197 z"
   id="rect4106"
   inkscape:connector-curvature="0" />
	<path
   style="fill:#e2bd4d;fill-opacity:1"
   d="m 1373.6272,1571.3998 h 11.2197 v 11.2178 h -11.2197 z"
   id="rect4108"
   inkscape:connector-curvature="0" />
	<path
   style="fill:#e2bd4d;fill-opacity:1"
   d="m 1389.8469,1555.1771 h 11.2305 v 11.2227 h -11.2305 z"
   id="rect4110"
   inkscape:connector-curvature="0" />
	<path
   style="fill:#e2bd4d;fill-opacity:1"
   d="m 1324.967,1555.1771 h 11.2207 v 11.2227 h -11.2207 z"
   id="rect4112"
   inkscape:connector-curvature="0" />
	<path
   style="fill:#e2bd4d;fill-opacity:1"
   d="m 1308.7375,1571.3998 h 11.2295 v 11.2178 h -11.2295 z"
   id="rect4114"
   inkscape:connector-curvature="0" />
	<path
   style="fill:#e2bd4d;fill-opacity:1"
   d="m 1341.1877,1571.3998 h 11.2198 v 11.2178 h -11.2198 z"
   id="rect4116"
   inkscape:connector-curvature="0" />
	<path
   style="fill:#e2bd4d;fill-opacity:1"
   d="m 1308.7375,1555.1771 h 11.2295 v 11.2227 h -11.2295 z"
   id="rect4118"
   inkscape:connector-curvature="0" />
	<path
   style="fill:#e2bd4d;fill-opacity:1"
   d="m 1389.8469,1571.3998 h 11.2305 v 11.2178 h -11.2305 z"
   id="rect4120"
   inkscape:connector-curvature="0" />
	<path
   style="fill:#e2bd4d;fill-opacity:1"
   d="m 1324.967,1571.3998 h 11.2207 v 11.2178 h -11.2207 z"
   id="rect4122"
   inkscape:connector-curvature="0" />
	<path
   style="fill:#e2bd4d;fill-opacity:1"
   d="m 1341.1877,1490.2875 h 11.2198 v 11.2226 h -11.2198 z"
   id="rect4124"
   inkscape:connector-curvature="0" />
	<path
   style="fill:#e2bd4d;fill-opacity:1"
   d="m 1324.967,1490.2875 h 11.2207 v 11.2226 h -11.2207 z"
   id="rect4126"
   inkscape:connector-curvature="0" />
	<path
   d="m 1354.9077,1430.2098 -106.2431,106.2427 106.2431,106.2427 106.2422,-106.2427 z m 0,8.4854 34.2946,34.2943 c -10.2001,-5.5237 -21.8808,-8.662 -34.2951,-8.662 -12.4138,0 -24.094,3.1381 -34.2937,8.6614 z m -97.7588,97.7573 34.2952,-34.2945 c -5.5236,10.1999 -8.6619,21.8803 -8.6619,34.2945 0,12.4146 3.1385,24.0952 8.6624,34.2954 z m 97.7588,97.7583 -34.2954,-34.2953 c 10.2,5.5237 21.8806,8.662 34.2949,8.662 12.4149,0 24.096,-3.1385 34.2964,-8.6626 z m 51.1697,-46.5932 h -102.3399 v -37.4405 h 2.5 15.5568 l 2.1516,2.1516 c 0.5626,0.5625 1.3257,0.8787 2.1214,0.8787 2e-4,0 4e-4,0 7e-4,0 0.7959,-2e-4 1.5591,-0.3167 2.1216,-0.8798 l 2.1484,-2.1505 h 11.9064 l 5,5 h -6.0567 v 11.2227 h 11.2198 v -6.0596 l 5,5 v 1.0596 h 1.0595 l 4.099,4.099 c 0.5627,0.5626 1.3257,0.8786 2.1214,0.8786 10e-5,0 10e-5,0 2e-4,0 0.7957,-10e-5 1.5589,-0.3162 2.1214,-0.879 l 6.8182,-6.8202 v 2.7216 h 11.2197 v -11.2227 h -2.7209 l 4.9985,-5 h 16.4529 2.5 z m -96.6101,-69.8799 v -8.1702 l 8.1702,8.1702 v 0 l 5.0001,5 h -10e-5 l 3.4298,3.4297 3.4264,-3.4297 v 0 l 4.9951,-5 v 0 l 1.6989,-1.7007 v 0 l 0.1,-0.1 6.8003,6.8003 h -10e-5 l 21.6,21.5998 26.5921,-26.5998 h 2e-4 l 9.0676,-9.0703 v 9.0703 5 9.9697 l -35.6599,35.67 -1.9777,-1.9776 v 0 l -0.454,-0.454 -25.9685,-25.9684 -10.2199,10.23 -16.6,-16.6 v -10.8697 -5 z m 96.6101,5 h -2.5 -0.2301 v -14.0703 c 0,-1.2135 -0.7311,-2.3074 -1.8522,-2.7718 -0.3711,-0.1537 -0.7608,-0.2284 -1.1472,-0.2284 -0.7622,0 -1.5088,0.2951 -2.0779,0.8429 h -8.4231 v 8.4175 l -7.8078,7.8101 h -34.7089 l -5,-5 h 10.0773 v -11.2276 h -11.2198 v 10.0851 l -2.7791,-2.7792 c -0.5627,-0.5625 -1.3257,-0.8786 -2.1214,-0.8786 -2e-4,0 -5e-4,0 -7e-4,0 -0.033,0 -0.066,0.01 -0.099,0.01 v -6.437 h -11.2207 v 11.2276 h 5.2812 l -4.182,4.186 -6.0992,-6.0991 v -9.3145 h -11.2295 v 0.1592 c -0.1406,0.035 -0.2816,0.07 -0.4183,0.1266 -1.121,0.4644 -1.8519,1.5582 -1.8519,2.7716 v 13.1702 h -0.2298 -2.5 v -37.4502 h 102.3399 v 37.4502 z m 12.2927,-20.5805 34.2954,34.2953 -34.2959,34.2962 c 5.5242,-10.2005 8.6626,-21.8814 8.6626,-34.2962 0,-12.4144 -3.1383,-24.0952 -8.6621,-34.2953 z"
   id="path4128"
   inkscape:connector-curvature="0"
   style="fill:#e2bd4d;fill-opacity:1" />
	<path
   style="fill:#e2bd4d;fill-opacity:1"
   d="m 1308.7375,1490.2875 h 11.2295 v 11.2226 h -11.2295 z"
   id="rect4130"
   inkscape:connector-curvature="0" />
	<path
   style="fill:#e2bd4d;fill-opacity:1"
   d="m 1357.4075,1506.5101 h 11.2197 v 11.2276 h -11.2197 z"
   id="rect4132"
   inkscape:connector-curvature="0" />
	<path
   style="fill:#e2bd4d;fill-opacity:1"
   d="m 1389.8469,1490.2875 h 11.2305 v 11.2226 h -11.2305 z"
   id="rect4134"
   inkscape:connector-curvature="0" />
	<path
   style="fill:#e2bd4d;fill-opacity:1"
   d="m 1373.6272,1506.5101 h 11.2197 v 11.2276 h -11.2197 z"
   id="rect4136"
   inkscape:connector-curvature="0" />
	<path
   style="fill:#e2bd4d;fill-opacity:1"
   d="m 1373.6272,1490.2875 h 11.2197 v 11.2226 h -11.2197 z"
   id="rect4138"
   inkscape:connector-curvature="0" />
	<path
   style="fill:#e2bd4d;fill-opacity:1"
   d="m 1357.4075,1490.2875 h 11.2197 v 11.2226 h -11.2197 z"
   id="rect4140"
   inkscape:connector-curvature="0" />
</g>





































































































































</svg>