<?xml version="1.0" encoding="UTF-8" standalone="no"?>
<!-- Generator: Adobe Illustrator 22.1.0, SVG Export Plug-In . SVG Version: 6.00 Build 0)  -->

<svg
   xmlns:dc="http://purl.org/dc/elements/1.1/"
   xmlns:cc="http://creativecommons.org/ns#"
   xmlns:rdf="http://www.w3.org/1999/02/22-rdf-syntax-ns#"
   xmlns:svg="http://www.w3.org/2000/svg"
   xmlns="http://www.w3.org/2000/svg"
   xmlns:sodipodi="http://sodipodi.sourceforge.net/DTD/sodipodi-0.dtd"
   xmlns:inkscape="http://www.inkscape.org/namespaces/inkscape"
   version="1.1"
   id="Layer_2_1_"
   x="0px"
   y="0px"
   viewBox="0 0 212.4799 212.47998"
   enable-background="new 0 0 3947.9399414 3860.8613281"
   xml:space="preserve"
   sodipodi:docname="the_maritime_control_center.svg"
   inkscape:version="0.92.4 (5da689c313, 2019-01-14)"
   width="212.4799"
   height="212.47998"><metadata
   id="metadata5465"><rdf:RDF><cc:Work
       rdf:about=""><dc:format>image/svg+xml</dc:format><dc:type
         rdf:resource="http://purl.org/dc/dcmitype/StillImage" /><dc:title></dc:title></cc:Work></rdf:RDF></metadata><defs
   id="defs5463" /><sodipodi:namedview
   pagecolor="#ffffff"
   bordercolor="#666666"
   borderopacity="1"
   objecttolerance="10"
   gridtolerance="10"
   guidetolerance="10"
   inkscape:pageopacity="0"
   inkscape:pageshadow="2"
   inkscape:window-width="1920"
   inkscape:window-height="1022"
   id="namedview5461"
   showgrid="false"
   inkscape:zoom="0.21212883"
   inkscape:cx="-1524.4031"
   inkscape:cy="-934.36005"
   inkscape:window-x="1079"
   inkscape:window-y="709"
   inkscape:window-maximized="1"
   inkscape:current-layer="Layer_2_1_" />



















































































<g
   id="g4446"
   transform="translate(-2796.6619,-578.84003)"
   style="fill:#e1561c;fill-opacity:1">
	<path
   d="m 2902.9019,578.84003 -106.24,106.23999 106.24,106.23999 106.2399,-106.23999 z m 0,8.47998 34.3,34.29999 c -10.21,-5.52002 -21.8901,-8.65998 -34.3,-8.65998 -12.42,0 -24.1001,3.13996 -34.3001,8.65998 z m -97.7601,97.76001 34.3001,-34.29999 c -5.52,10.19995 -8.6602,21.87994 -8.6602,34.29999 0,12.41998 3.1402,24.09997 8.6702,34.30999 z m 97.7601,97.76001 -34.3001,-34.30005 c 10.2,5.53003 21.8801,8.67004 34.3001,8.67004 12.4099,0 24.09,-3.14001 34.3,-8.66003 z m 0,-33.87 c -35.2801,0 -63.8799,-28.60003 -63.8799,-63.89001 0,-35.28003 28.5998,-63.88001 63.8799,-63.88001 35.28,0 63.8798,28.59998 63.8798,63.88001 0,35.28998 -28.5998,63.89001 -63.8798,63.89001 z m 72.1298,-63.89001 c 0,-12.41004 -3.1399,-24.09003 -8.6599,-34.28003 l 34.2901,34.28003 -34.2901,34.28998 c 5.52,-10.20002 8.6599,-21.88001 8.6599,-34.28998 z"
   id="path4442"
   inkscape:connector-curvature="0"
   style="fill:#e1561c;fill-opacity:1" />
	<path
   d="m 2902.9016,628.78345 c -31.0891,0 -56.292,25.20294 -56.292,56.30096 0,31.08924 25.2029,56.29224 56.292,56.29224 31.0894,0 56.2922,-25.203 56.2922,-56.29224 0,-31.09802 -25.2028,-56.30096 -56.2922,-56.30096 z m 7.5103,105.63159 v 2.26001 h -15 v -2.25 c -20.0201,-2.98999 -36.2403,-17.73999 -41.3902,-36.96997 h 12.5703 c 4.5401,12.57995 15.4497,22.14996 28.8199,24.78998 v -54.60999 h -27.5401 l 5.8701,-12 h 21.67 v -22.15002 h 15 v 22.15002 h 21.6601 l 5.8697,12 h -27.5298 v 54.60999 c 13.3598,-2.65003 24.2597,-12.21003 28.7998,-24.78998 h 12.5703 c -5.1499,19.22998 -21.3604,33.97998 -41.3701,36.95996 z"
   id="path4444"
   inkscape:connector-curvature="0"
   style="fill:#e1561c;fill-opacity:1" />
</g>































































































</svg>