<?xml version="1.0" encoding="UTF-8" standalone="no"?>
<!-- Generator: Adobe Illustrator 22.1.0, SVG Export Plug-In . SVG Version: 6.00 Build 0)  -->

<svg
   xmlns:dc="http://purl.org/dc/elements/1.1/"
   xmlns:cc="http://creativecommons.org/ns#"
   xmlns:rdf="http://www.w3.org/1999/02/22-rdf-syntax-ns#"
   xmlns:svg="http://www.w3.org/2000/svg"
   xmlns="http://www.w3.org/2000/svg"
   xmlns:sodipodi="http://sodipodi.sourceforge.net/DTD/sodipodi-0.dtd"
   xmlns:inkscape="http://www.inkscape.org/namespaces/inkscape"
   version="1.1"
   id="Layer_2_1_"
   x="0px"
   y="0px"
   viewBox="0 0 212.4804 212.48"
   enable-background="new 0 0 3947.9399414 3860.8613281"
   xml:space="preserve"
   sodipodi:docname="the_cloning_vats.svg"
   inkscape:version="0.92.4 (5da689c313, 2019-01-14)"
   width="212.48039"
   height="212.48"><metadata
   id="metadata5465"><rdf:RDF><cc:Work
       rdf:about=""><dc:format>image/svg+xml</dc:format><dc:type
         rdf:resource="http://purl.org/dc/dcmitype/StillImage" /><dc:title></dc:title></cc:Work></rdf:RDF></metadata><defs
   id="defs5463" /><sodipodi:namedview
   pagecolor="#ffffff"
   bordercolor="#666666"
   borderopacity="1"
   objecttolerance="10"
   gridtolerance="10"
   guidetolerance="10"
   inkscape:pageopacity="0"
   inkscape:pageshadow="2"
   inkscape:window-width="1920"
   inkscape:window-height="1022"
   id="namedview5461"
   showgrid="false"
   inkscape:zoom="0.21212883"
   inkscape:cx="-286.00712"
   inkscape:cy="1619.7575"
   inkscape:window-x="1079"
   inkscape:window-y="709"
   inkscape:window-maximized="1"
   inkscape:current-layer="Layer_2_1_" />



























































































































<g
   id="g4836"
   transform="translate(-1558.2659,-3132.9575)"
   style="fill:#90ae50;fill-opacity:1">
	<path
   d="m 1656.156,3244.1875 0.25,-0.3999 c 0.4102,-0.6702 0.4302,-1.51 0.06,-2.2 l -4.7002,-8.4902 v -2.3899 c 0,-12.32 -11.0401,-22.31 -24.6499,-22.31 -7.5498,0 -14.3101,3.07 -18.8296,7.9101 -3.6402,3.8799 -5.8301,8.9099 -5.8301,14.3999 0,4.8501 1.71,9.3301 4.6196,12.99 1.0601,1.3601 2.3003,2.6001 3.6802,3.7 v 13.3 l -2.27,7.98 c 2.8799,7.1699 9.8999,12.25 18.0898,12.25 5.3203,0 10.3003,-2.1099 14.0103,-5.94 0.3799,-0.3999 0.81,-0.7399 1.27,-1.03 l -8.02,-8.03 v -1.3101 h 16.7798 v -10.5398 h -6.2198 v -2.6301 h 6.2198 v -5.79 h 2.8999 c 1.08,0 2.0703,-0.5601 2.6401,-1.47 z m -12.1899,-6.3999 c -2.7598,0 -5.0098,-1.1602 -5.0098,-2.6001 0,-1.4299 2.25,-2.5901 5.0098,-2.5901 2.77,0 5.0097,1.1602 5.0097,2.5901 0,1.4399 -2.2397,2.6001 -5.0097,2.6001 z"
   id="path4824"
   inkscape:connector-curvature="0"
   style="fill:#90ae50;fill-opacity:1" />
	<path
   d="m 1661.4856,3237.7876 c 2.77,0 5.02,-1.1602 5.02,-2.6001 0,-1.4299 -2.25,-2.5901 -5.02,-2.5901 -2.75,0 -5,1.1602 -5,2.5901 0,1.4399 2.25,2.6001 5,2.6001 z"
   id="path4826"
   inkscape:connector-curvature="0"
   style="fill:#90ae50;fill-opacity:1" />
	<path
   d="m 1691.2063,3244.1875 0.25,-0.3999 c 0.4097,-0.6702 0.4297,-1.51 0.06,-2.2 l -4.6997,-8.4902 v -2.3899 c 0,-12.32 -11.0401,-22.31 -24.6499,-22.31 -3.0904,0 -6.0503,0.52 -8.7701,1.4599 9.2998,3.1902 15.8999,11.3201 15.8999,20.8501 v 2.3899 l 4.69,8.4902 c 0.3799,0.69 0.3598,1.5298 -0.06,2.2 l -0.25,0.3999 c -0.56,0.9099 -1.56,1.47 -2.6299,1.47 h -2.9101 v 5.79 h -6.21 v 2.6301 h 6.21 v 10.5398 h -16.77 v 1.3101 l 7.8901,7.9001 7.0303,7.0298 c 4.5298,-0.3699 8.7295,-2.2898 12,-5.5198 l -9.4004,-9.4101 v -1.3101 h 16.7803 v -10.5398 h -6.2203 v -2.6301 h 6.2203 v -5.79 h 2.8999 c 1.08,0 2.0698,-0.5601 2.6401,-1.47 z m -12.1904,-6.3999 c -2.7598,0 -5.0098,-1.1602 -5.0098,-2.6001 0,-1.4299 2.25,-2.5901 5.0098,-2.5901 2.7705,0 5.0102,1.1602 5.0102,2.5901 0,1.4399 -2.2397,2.6001 -5.0102,2.6001 z"
   id="path4828"
   inkscape:connector-curvature="0"
   style="fill:#90ae50;fill-opacity:1" />
	<path
   d="m 1696.5354,3237.7876 c 2.7705,0 5.0205,-1.1602 5.0205,-2.6001 0,-1.4299 -2.25,-2.5901 -5.0205,-2.5901 -2.75,0 -5,1.1602 -5,2.5901 0,1.4399 2.25,2.6001 5,2.6001 z"
   id="path4830"
   inkscape:connector-curvature="0"
   style="fill:#90ae50;fill-opacity:1" />
	<path
   d="m 1722.2063,3233.7075 -0.3403,-0.6101 v -2.3899 c 0,-12.32 -11.0401,-22.31 -24.6499,-22.31 -3.0899,0 -6.0498,0.51 -8.7798,1.4599 9.2998,3.1802 15.9096,11.3201 15.9096,20.8501 v 2.3899 l 4.6905,8.4902 c 0.3799,0.69 0.3598,1.5298 -0.061,2.2 l -0.25,0.3999 c -0.5595,0.9099 -1.5595,1.47 -2.6299,1.47 h -2.9096 v 5.79 h -6.2105 v 2.6301 h 6.2105 v 10.5398 h -16.77 v 1.3101 l 7.8896,7.9001 7.0503,7.0498 c 0.4497,0.03 0.8999,0.05 1.3501,0.05 4.54,0 8.7197,-1.5601 12.04,-4.1799 l -10.81,-10.8201 v -1.3101 h 16.7798 v -10.5398 h -6.2198 v -2.6301 h 6.2198 v -5.79 h 2.8999 c 1.08,0 2.0703,-0.5601 2.6401,-1.47 l 0.25,-0.3999 c 0.4102,-0.6702 0.4302,-1.51 0.06,-2.2 z m -8.1401,4.0801 c -2.7603,0 -5.0103,-1.1602 -5.0103,-2.6001 0,-1.4299 2.25,-2.5901 5.0103,-2.5901 2.77,0 5.0097,1.1602 5.0097,2.5901 0,1.4399 -2.2397,2.6001 -5.0097,2.6001 z"
   id="path4832"
   inkscape:connector-curvature="0"
   style="fill:#90ae50;fill-opacity:1" />
	<path
   d="m 1664.5061,3132.9575 -106.2402,106.24 106.2402,106.24 106.2402,-106.24 z m 0,8.48 34.2998,34.3 c -10.21,-5.52 -21.8896,-8.6599 -34.2998,-8.6599 -12.4199,0 -24.0996,3.1399 -34.2998,8.6599 z m -97.7598,97.76 34.2998,-34.3 c -5.5195,10.1999 -8.6601,21.8801 -8.6601,34.3 0,12.4199 3.1406,24.1001 8.6699,34.3101 z m 97.7598,97.76 -34.2998,-34.3 c 10.2002,5.53 21.8799,8.6701 34.2998,8.6701 12.4102,0 24.0898,-3.1401 34.2998,-8.6601 z m 38.1987,-49.0278 c -7.4702,0 -14.2133,-3.095 -19.0312,-8.0667 -4.8179,4.9717 -11.5615,8.0667 -19.0313,8.0667 -7.4702,0 -14.2133,-3.095 -19.0312,-8.0667 -4.8179,4.9717 -11.5615,8.0667 -19.0313,8.0667 -14.6386,0 -26.5053,-11.8667 -26.5053,-26.5051 v -38.375 c 0,-14.6385 11.8667,-26.5054 26.5053,-26.5054 7.4698,0 14.2134,3.095 19.0313,8.0666 4.8179,-4.9716 11.561,-8.0666 19.0312,-8.0666 7.4698,0 14.2134,3.095 19.0313,8.0666 4.8179,-4.9716 11.561,-8.0666 19.0312,-8.0666 14.6382,0 26.5054,11.8669 26.5054,26.5054 v 38.375 c 0,14.6384 -11.8672,26.5051 -26.5054,26.5051 z m 33.9312,-48.7322 c 0,-12.4099 -3.1397,-24.0901 -8.6602,-34.28 l 34.2901,34.28 -34.2901,34.29 c 5.5205,-10.1999 8.6602,-21.8801 8.6602,-34.29 z"
   id="path4834"
   inkscape:connector-curvature="0"
   style="fill:#90ae50;fill-opacity:1" />
</g>























































</svg>