<?xml version="1.0" encoding="UTF-8" standalone="no"?>
<!-- Generator: Adobe Illustrator 22.1.0, SVG Export Plug-In . SVG Version: 6.00 Build 0)  -->

<svg
   xmlns:dc="http://purl.org/dc/elements/1.1/"
   xmlns:cc="http://creativecommons.org/ns#"
   xmlns:rdf="http://www.w3.org/1999/02/22-rdf-syntax-ns#"
   xmlns:svg="http://www.w3.org/2000/svg"
   xmlns="http://www.w3.org/2000/svg"
   xmlns:sodipodi="http://sodipodi.sourceforge.net/DTD/sodipodi-0.dtd"
   xmlns:inkscape="http://www.inkscape.org/namespaces/inkscape"
   version="1.1"
   id="Layer_2_1_"
   x="0px"
   y="0px"
   viewBox="0 0 212.48535 212.48441"
   enable-background="new 0 0 3947.9399414 3860.8613281"
   xml:space="preserve"
   sodipodi:docname="the_ascetic_virtues.svg"
   inkscape:version="0.92.4 (5da689c313, 2019-01-14)"
   width="212.48535"
   height="212.48441"><metadata
   id="metadata5465"><rdf:RDF><cc:Work
       rdf:about=""><dc:format>image/svg+xml</dc:format><dc:type
         rdf:resource="http://purl.org/dc/dcmitype/StillImage" /><dc:title></dc:title></cc:Work></rdf:RDF></metadata><defs
   id="defs5463" /><sodipodi:namedview
   pagecolor="#ffffff"
   bordercolor="#666666"
   borderopacity="1"
   objecttolerance="10"
   gridtolerance="10"
   guidetolerance="10"
   inkscape:pageopacity="0"
   inkscape:pageshadow="2"
   inkscape:window-width="1920"
   inkscape:window-height="1022"
   id="namedview5461"
   showgrid="false"
   inkscape:zoom="0.21212883"
   inkscape:cx="952.39104"
   inkscape:cy="-82.985356"
   inkscape:window-x="1079"
   inkscape:window-y="709"
   inkscape:window-maximized="1"
   inkscape:current-layer="Layer_2_1_" />




























<g
   id="g3916"
   transform="translate(-319.86774,-1430.2103)"
   style="fill:#90ae50;fill-opacity:1">
	<path
   d="m 426.11041,1430.2103 -106.24267,106.2422 106.24267,106.2422 106.24268,-106.2422 z m 72.1297,106.2447 c 0,-12.4124 -3.13739,-24.0906 -8.65881,-34.2891 l 34.28644,34.2866 -34.28833,34.2886 c 5.52264,-10.198 8.6607,-21.8754 8.6607,-34.2861 z m -72.13,67.12 c -37.01001,0 -67.12,-30.11 -67.12,-67.12 0,-37.0201 30.10999,-67.13 67.12,-67.13 37.01001,0 67.13,30.1099 67.13,67.13 0,37.01 -30.11999,67.12 -67.13,67.12 z m 34.28985,-130.5905 c -10.19958,-5.5222 -21.87854,-8.6595 -34.28985,-8.6595 -12.41272,0 -24.09198,3.138 -34.29102,8.6612 l 34.29132,-34.2915 z m -97.74591,29.1669 c -5.5249,10.2019 -8.66394,21.8853 -8.66394,34.3036 0,12.4165 3.13977,24.0993 8.6659,34.3005 l -34.30292,-34.303 z m 29.15515,97.7575 c 10.20136,5.5263 21.88422,8.6661 34.30091,8.6661 12.41528,0 24.0979,-3.1392 34.29974,-8.6642 l -34.29944,34.2995 z"
   id="path3912"
   inkscape:connector-curvature="0"
   style="fill:#90ae50;fill-opacity:1" />
	<path
   d="m 426.11011,1474.325 c -34.26001,0 -62.12,27.8699 -62.12,62.13 0,34.25 27.85999,62.12 62.12,62.12 34.26001,0 62.13,-27.87 62.13,-62.12 0,-34.2601 -27.86999,-62.13 -62.13,-62.13 z m 20.63,28.5999 c 0,-5.24 1.09998,-5.7099 6.01996,-5.7099 h 0.21002 c 4.91999,0 6.02002,0.4699 6.02002,5.7099 v 10.98 c 0,1.3901 -2.67999,4.7101 -5.22003,5.0601 -2.66998,0.37 -5.83997,-0.3001 -7.02997,-2.5901 z m -17.98004,-9.05 c 0,-3.7 1.10004,-5.7 6.01001,-5.7 h 3.45001 c 4.91999,0 6.02002,2 6.02002,5.7 v 21.55 h -9 v -9.27 l -3.23004,-3.23 h -3.25 z m -17.93994,-3.99 c 0,-3.71 1.09997,-5.71 6.01996,-5.71 h 3.40002 c 4.91999,0 6.01996,2 6.01996,5.71 v 13.04 h -15.43994 z m -13.95001,-2.6499 h 6.25 c 2.39996,0 5.20001,-0.28 5.20001,4.9099 v 10.78 h -10.67004 l -4.82996,4.8301 v -7.5801 h -2.5 v 10.0801 l -4.52002,4.52 c 0,-14.8601 1.27002,-27.54 11.07001,-27.54 z m 67.95001,96.9399 h -50.83002 v -6.62 l -26.46002,-21.0199 c -2.86999,-2.27 -4.53998,-5.7301 -4.53998,-9.3901 v -26.0499 l 15.67999,-15.6701 h 32.29999 l 1.77002,1.77 v 8.1501 l -7.09002,7.0799 h -15.93 l -6.72998,6.73 v 4.77 h 15.96997 l 21.07001,21.0501 1.76001,-1.76 -21.78998,-21.7901 h -14.51001 v -1.23 l 5.26996,-5.27 h 15.93005 l 6.98999,-7 h 11.65998 c 1.52002,2.21 4.35003,3.13 7.07,3.13 0.56,0 1.10999,-0.04 1.64002,-0.11 1.13,-0.1499 2.27002,-0.7099 3.31,-1.4799 l 7.46002,7.4599 z"
   id="path3914"
   inkscape:connector-curvature="0"
   style="fill:#90ae50;fill-opacity:1" />
</g>






















































































































































</svg>