<?xml version="1.0" encoding="UTF-8" standalone="no"?>
<!-- Generator: Adobe Illustrator 22.1.0, SVG Export Plug-In . SVG Version: 6.00 Build 0)  -->

<svg
   xmlns:dc="http://purl.org/dc/elements/1.1/"
   xmlns:cc="http://creativecommons.org/ns#"
   xmlns:rdf="http://www.w3.org/1999/02/22-rdf-syntax-ns#"
   xmlns:svg="http://www.w3.org/2000/svg"
   xmlns="http://www.w3.org/2000/svg"
   xmlns:sodipodi="http://sodipodi.sourceforge.net/DTD/sodipodi-0.dtd"
   xmlns:inkscape="http://www.inkscape.org/namespaces/inkscape"
   version="1.1"
   id="Layer_2_1_"
   x="0px"
   y="0px"
   viewBox="0 0 212.48531 212.48534"
   enable-background="new 0 0 3947.9399414 3860.8613281"
   xml:space="preserve"
   sodipodi:docname="the_living_refinery.svg"
   inkscape:version="0.92.4 (5da689c313, 2019-01-14)"
   width="212.48531"
   height="212.48534"><metadata
   id="metadata5465"><rdf:RDF><cc:Work
       rdf:about=""><dc:format>image/svg+xml</dc:format><dc:type
         rdf:resource="http://purl.org/dc/dcmitype/StillImage" /><dc:title></dc:title></cc:Work></rdf:RDF></metadata><defs
   id="defs5463" /><sodipodi:namedview
   pagecolor="#ffffff"
   bordercolor="#666666"
   borderopacity="1"
   objecttolerance="10"
   gridtolerance="10"
   guidetolerance="10"
   inkscape:pageopacity="0"
   inkscape:pageshadow="2"
   inkscape:window-width="1920"
   inkscape:window-height="1022"
   id="namedview5461"
   showgrid="false"
   inkscape:zoom="0.21212883"
   inkscape:cx="23.594182"
   inkscape:cy="-650.56654"
   inkscape:window-x="1079"
   inkscape:window-y="709"
   inkscape:window-maximized="1"
   inkscape:current-layer="Layer_2_1_" />










































<g
   id="g4084"
   transform="translate(-1248.6646,-862.62817)"
   style="fill:#e1561c;fill-opacity:1">
	<path
   d="m 1394.5591,980.14575 c -7.9568,-8.32843 -22.4727,-16.17224 -39.6519,-16.5863 -17.1792,0.41406 -31.6952,8.25787 -39.6518,16.5863 -2.5833,2.70087 -5.0724,6.43219 -5.0724,10.14002 0,5.14288 4.2347,10.26233 8.7942,14.12073 4.5548,3.8536 9.4389,6.451 10.7329,6.5357 v -14.20544 c -1.007,-0.83283 -2.1079,-2.01856 -2.9456,-3.14313 -0.2964,-0.39997 -0.6351,-0.9693 -0.9033,-1.5622 -0.2683,-0.59759 -0.4612,-1.21869 -0.4612,-1.71277 0,-0.98809 0.3012,-1.96209 0.8941,-2.75256 1.9574,-2.60681 6.0322,-6.02283 11.8903,-8.51196 -3.3032,3.85364 -5.3029,8.85541 -5.3029,14.3277 0,12.16336 9.8624,22.02566 22.0257,22.02566 12.1632,0 22.0257,-9.8623 22.0257,-22.02566 0,-5.47229 -1.9998,-10.47406 -5.3029,-14.3277 5.8582,2.48913 9.9329,5.90515 11.8903,8.51196 0.5929,0.79047 0.894,1.76447 0.894,2.75256 0,0.49408 -0.1929,1.11518 -0.4611,1.71277 -0.2683,0.5929 -0.607,1.16223 -0.9034,1.5622 -0.8375,1.12457 -1.9386,2.3103 -2.9456,3.14313 v 14.20544 c 1.294,-0.085 6.1781,-2.6821 10.7328,-6.5357 4.5596,-3.8584 8.7943,-8.97785 8.7943,-14.12073 0,-3.70783 -2.489,-7.43915 -5.0722,-10.14002 z m -39.6519,19.1178 c -3.2467,0 -5.8817,-2.63501 -5.8817,-5.88171 0,-3.24665 2.635,-5.88166 5.8817,-5.88166 3.2466,0 5.8816,2.63501 5.8816,5.88166 0,3.2467 -2.635,5.88171 -5.8816,5.88171 z"
   id="path4080"
   inkscape:connector-curvature="0"
   style="fill:#e1561c;fill-opacity:1" />
	<path
   d="m 1354.9077,862.62817 -106.2431,106.24268 106.2431,106.24265 106.2422,-106.24265 z m 0,8.48536 34.2946,34.29431 c -10.2001,-5.52368 -21.8808,-8.66199 -34.2951,-8.66199 -12.4138,0 -24.094,3.13806 -34.2937,8.66132 z m -97.7588,97.75732 34.2951,-34.29456 c -5.5235,10.19996 -8.6618,21.88038 -8.6618,34.29456 0,12.41443 3.1385,24.09521 8.6623,34.29525 z m 97.7588,97.75835 -34.2955,-34.2953 c 10.2001,5.5236 21.8807,8.6619 34.295,8.6619 12.4149,0 24.096,-3.1385 34.2963,-8.6627 z m 51.2052,-46.9262 h -102.4114 v -70.54724 h 3.6576 v -34.78992 h 21.9452 v 34.78992 h 3.6577 v 11.50006 h 7.315 v -11.50006 h 3.6576 v -34.78992 h 21.9452 v 34.78992 h 3.6577 v 11.50006 h 7.3149 v -11.50006 h 3.6576 v -34.78992 h 21.9452 v 34.78992 h 3.6577 z m 12.2571,-85.12744 34.2955,34.29529 -34.2959,34.29605 c 5.5241,-10.20023 8.6626,-21.88138 8.6626,-34.29605 0,-12.41443 -3.1383,-24.09522 -8.6622,-34.29529 z"
   id="path4082"
   inkscape:connector-curvature="0"
   style="fill:#e1561c;fill-opacity:1" />
</g>








































































































































</svg>