<?xml version="1.0" encoding="UTF-8" standalone="no"?>
<!-- Generator: Adobe Illustrator 22.1.0, SVG Export Plug-In . SVG Version: 6.00 Build 0)  -->

<svg
   xmlns:dc="http://purl.org/dc/elements/1.1/"
   xmlns:cc="http://creativecommons.org/ns#"
   xmlns:rdf="http://www.w3.org/1999/02/22-rdf-syntax-ns#"
   xmlns:svg="http://www.w3.org/2000/svg"
   xmlns="http://www.w3.org/2000/svg"
   xmlns:sodipodi="http://sodipodi.sourceforge.net/DTD/sodipodi-0.dtd"
   xmlns:inkscape="http://www.inkscape.org/namespaces/inkscape"
   version="1.1"
   id="Layer_2_1_"
   x="0px"
   y="0px"
   viewBox="0 0 212.4801 212.4801"
   enable-background="new 0 0 3947.9399414 3860.8613281"
   xml:space="preserve"
   sodipodi:docname="the_command_nexus.svg"
   inkscape:version="0.92.4 (5da689c313, 2019-01-14)"
   width="212.4801"
   height="212.4801"><metadata
   id="metadata5465"><rdf:RDF><cc:Work
       rdf:about=""><dc:format>image/svg+xml</dc:format><dc:type
         rdf:resource="http://purl.org/dc/dcmitype/StillImage" /><dc:title></dc:title></cc:Work></rdf:RDF></metadata><defs
   id="defs5463" /><sodipodi:namedview
   pagecolor="#ffffff"
   bordercolor="#666666"
   borderopacity="1"
   objecttolerance="10"
   gridtolerance="10"
   guidetolerance="10"
   inkscape:pageopacity="0"
   inkscape:pageshadow="2"
   inkscape:window-width="1920"
   inkscape:window-height="1022"
   id="namedview5461"
   showgrid="false"
   inkscape:zoom="0.21212883"
   inkscape:cx="642.78947"
   inkscape:cy="-934.35996"
   inkscape:window-x="1079"
   inkscape:window-y="709"
   inkscape:window-maximized="1"
   inkscape:current-layer="Layer_2_1_" />
















<path
   d="M 106.24,0 0,106.24 106.24,212.4801 212.4801,106.24 Z m 0,8.4801 34.3,34.3 C 130.34,37.25 118.66,34.11 106.24,34.11 c -12.42,0 -24.1,3.14 -34.3,8.6701 z m 0,195.5199 -34.3,-34.3 c 10.2,5.5201 21.88,8.66 34.3,8.66 12.42,0 24.1,-3.1399 34.3,-8.66 z m 65.08,-128.88 -38.73,38.7301 h -4.14 v 27.18 l 5.68,5.6799 h 7.51 v 4.0701 h -9.5 L 122.07,140.71 h -8.6 c -1.62,0 -2.43,1.9601 -1.29,3.1 l 6.97,6.9701 H 93.33 l 6.97,-6.9701 c 1.14,-1.1399 0.33,-3.1 -1.29,-3.1 h -8.6 l -10.07,10.0701 h -9.5 V 146.71 h 7.51 l 5.68,-5.6799 v -27.18 H 79.89 L 41.16,75.12 c -4.51,9.4201 -7.04,19.9701 -7.04,31.12 0,12.4201 3.14,24.1 8.66,34.3001 L 8.48,106.24 42.78,71.94 c -0.57,1.0401 -1.11,2.1001 -1.62,3.18 h 39.55 l 14.47,14.4701 h 2.8 v -15.81 h 15.42 l 4.92,4.9199 h -6.75 v 7.93 l 3.77,4.92 16.43,-16.43 h 39.55 c -0.51,-1.0799 -1.05,-2.1399 -1.62,-3.18 l 34.3,34.3 -34.3,34.3001 c 5.52,-10.2001 8.66,-21.88 8.66,-34.3001 0,-11.1499 -2.53,-21.6999 -7.04,-31.12 z"
   id="path3828"
   inkscape:connector-curvature="0"
   style="fill:#e1561c;fill-opacity:1" />


































































































































































</svg>