<?xml version="1.0" encoding="UTF-8" standalone="no"?>
<!-- Generator: Adobe Illustrator 22.1.0, SVG Export Plug-In . SVG Version: 6.00 Build 0)  -->

<svg
   xmlns:dc="http://purl.org/dc/elements/1.1/"
   xmlns:cc="http://creativecommons.org/ns#"
   xmlns:rdf="http://www.w3.org/1999/02/22-rdf-syntax-ns#"
   xmlns:svg="http://www.w3.org/2000/svg"
   xmlns="http://www.w3.org/2000/svg"
   xmlns:sodipodi="http://sodipodi.sourceforge.net/DTD/sodipodi-0.dtd"
   xmlns:inkscape="http://www.inkscape.org/namespaces/inkscape"
   version="1.1"
   id="Layer_2_1_"
   x="0px"
   y="0px"
   viewBox="0 0 212.48019 212.48"
   enable-background="new 0 0 3947.9399414 3860.8613281"
   xml:space="preserve"
   sodipodi:docname="the_pholus_mutagen.svg"
   inkscape:version="0.92.4 (5da689c313, 2019-01-14)"
   width="212.48019"
   height="212.48"><metadata
   id="metadata5465"><rdf:RDF><cc:Work
       rdf:about=""><dc:format>image/svg+xml</dc:format><dc:type
         rdf:resource="http://purl.org/dc/dcmitype/StillImage" /><dc:title></dc:title></cc:Work></rdf:RDF></metadata><defs
   id="defs5463" /><sodipodi:namedview
   pagecolor="#ffffff"
   bordercolor="#666666"
   borderopacity="1"
   objecttolerance="10"
   gridtolerance="10"
   guidetolerance="10"
   inkscape:pageopacity="0"
   inkscape:pageshadow="2"
   inkscape:window-width="1920"
   inkscape:window-height="1022"
   id="namedview5461"
   showgrid="false"
   inkscape:zoom="0.21212883"
   inkscape:cx="-1834.0017"
   inkscape:cy="1619.7574"
   inkscape:window-x="1079"
   inkscape:window-y="709"
   inkscape:window-maximized="1"
   inkscape:current-layer="Layer_2_1_" />





















































































































<g
   id="g4698"
   transform="translate(-3106.2605,-3132.9575)"
   style="fill:#90ae50;fill-opacity:1">
	<path
   d="m 3212.5005,3132.9575 -106.24,106.24 106.24,106.24 106.2402,-106.24 z m 0,8.48 34.2998,34.3 c -10.21,-5.52 -21.8897,-8.6599 -34.2998,-8.6599 -12.4199,0 -24.1001,3.1399 -34.2998,8.6599 z m -97.76,97.76 34.3,-34.3 c -5.52,10.1999 -8.6601,21.8801 -8.6601,34.3 0,12.4199 3.1401,24.1001 8.6699,34.3101 z m 97.76,97.76 -34.2998,-34.3 c 10.1997,5.53 21.8799,8.6701 34.2998,8.6701 12.4101,0 24.0898,-3.1401 34.2998,-8.6601 z m 0,-33.8699 c -35.2803,0 -63.8799,-28.6001 -63.8799,-63.8901 0,-35.28 28.5996,-63.8799 63.8799,-63.8799 35.2803,0 63.8799,28.5999 63.8799,63.8799 0,35.29 -28.5996,63.8901 -63.8799,63.8901 z m 72.1299,-63.8901 c 0,-12.4099 -3.1397,-24.0901 -8.6602,-34.28 l 34.2901,34.28 -34.2901,34.29 c 5.5205,-10.1999 8.6602,-21.8801 8.6602,-34.29 z"
   id="path4686"
   inkscape:connector-curvature="0"
   style="fill:#90ae50;fill-opacity:1" />
	<path
   d="m 3204.3423,3288.5725 h 21.2578 l -8.1367,-7.3635 v -15.9031 l 13.2021,-13.2021 c 5.1939,3.9638 10.5889,7.3098 16.3604,6.1003 11.643,-2.4387 10.2524,-23.3674 7.4106,-33.8215 -1.27,-4.6697 -1.478,-8.8889 -5.852,-11.4285 -5.1397,-2.9832 -8.2305,-1.2363 -12.7788,-5.5498 -6.3897,-6.0466 -14.378,-12.6174 -24.167,-12.7048 -5.4019,-0.04 -13.3164,0.5373 -17.7373,4.1049 -4.085,3.2923 -2.4121,6.0806 -7.1758,8.6739 -15.2847,8.311 -18.3418,17.623 -18.127,31.7321 0.168,11.3008 10.898,21.043 22.4473,15.7823 1.2158,-0.5576 2.3315,-1.2364 3.3726,-2.0022 l 14.4184,14.4182 v 17.959 z m 13.1211,-45.633 c 3.4199,1.4174 6.8667,4.1789 10.4009,6.9807 l -5.1802,5.1799 c -1.418,1.4177 -3.2588,2.3113 -5.2207,2.5464 z m -13.7329,12.4428 -5.5967,-5.5967 c 3.4199,-3.3256 6.4165,-6.853 10.7031,-7.8808 v 15.7954 c -1.9219,-0.1274 -3.7358,-0.9473 -5.1064,-2.3179 z"
   id="path4688"
   inkscape:connector-curvature="0"
   style="fill:#90ae50;fill-opacity:1" />
	<path
   d="m 3205.8403,3253.2476 v -6.5601 c -1.1499,0.8601 -2.27,1.9399 -3.4497,3.1101 z"
   id="path4690"
   inkscape:connector-curvature="0"
   style="fill:#90ae50;fill-opacity:1" />
	<path
   d="m 3212.5005,3296.697 c 8.4609,0 16.4873,-1.8425 23.7217,-5.1245 h -47.4434 c 7.2344,3.282 15.2608,5.1245 23.7217,5.1245 z"
   id="path4692"
   inkscape:connector-curvature="0"
   style="fill:#90ae50;fill-opacity:1" />
	<path
   d="m 3212.5005,3181.698 c -31.7559,0 -57.4995,25.7434 -57.4995,57.4995 0,20.9832 11.2441,39.3342 28.0317,49.375 h 16.1455 l 3.4024,-2.425 3.2597,-2.3299 v -15.1701 l -11.8198,-11.8199 c -0.5698,0.3299 -1.1401,0.6199 -1.73,0.8899 -2.5302,1.1599 -5.1299,1.74 -7.73,1.74 -10.1201,0 -18.8002,-9.25 -18.9599,-20.1999 -0.2202,-14.5201 2.9897,-25.3401 19.6899,-34.4102 1.7198,-0.9399 2.0801,-1.6999 2.7403,-3.0898 0.6699,-1.4102 1.5796,-3.3501 3.9897,-5.2901 3.9199,-3.1599 10.3501,-4.77 19.1099,-4.77 h 0.5302 c 10.5997,0.1001 19.1998,6.8901 26.21,13.53 2.0098,1.91 3.4497,2.23 5.6397,2.73 1.7802,0.3999 3.9902,0.8999 6.58,2.3999 4.73,2.75 5.7603,7.1101 6.67,10.9602 0.1801,0.74 0.3603,1.5 0.5703,2.2798 1.9101,7 4.0698,22.6001 -1.3799,31.5 -2,3.27 -4.8003,5.3101 -8.3101,6.0401 -1,0.2099 -2.02,0.32 -3.04,0.32 -4.9702,0 -9.48,-2.4399 -13.6402,-5.4099 l -10.5,10.5 v 13.3298 l 7.15,6.47 2.4594,2.2251 h 11.8985 c 16.7876,-10.0408 28.0317,-28.3918 28.0317,-49.375 0,-31.7561 -25.7437,-57.4995 -57.4995,-57.4995 z"
   id="path4694"
   inkscape:connector-curvature="0"
   style="fill:#90ae50;fill-opacity:1" />
	<path
   d="m 3220.4604,3248.0676 v 5.01 c 0.04,-0.03 2.8902,-2.8901 2.8902,-2.8901 -0.98,-0.76 -1.94,-1.48 -2.8902,-2.1199 z"
   id="path4696"
   inkscape:connector-curvature="0"
   style="fill:#90ae50;fill-opacity:1" />
</g>





























































</svg>