<?xml version="1.0" encoding="UTF-8" standalone="no"?>
<!-- Generator: Adobe Illustrator 22.1.0, SVG Export Plug-In . SVG Version: 6.00 Build 0)  -->

<svg
   xmlns:dc="http://purl.org/dc/elements/1.1/"
   xmlns:cc="http://creativecommons.org/ns#"
   xmlns:rdf="http://www.w3.org/1999/02/22-rdf-syntax-ns#"
   xmlns:svg="http://www.w3.org/2000/svg"
   xmlns="http://www.w3.org/2000/svg"
   xmlns:sodipodi="http://sodipodi.sourceforge.net/DTD/sodipodi-0.dtd"
   xmlns:inkscape="http://www.inkscape.org/namespaces/inkscape"
   version="1.1"
   id="Layer_2_1_"
   x="0px"
   y="0px"
   viewBox="0 0 212.4856 212.4856"
   enable-background="new 0 0 3947.9399414 3860.8613281"
   xml:space="preserve"
   sodipodi:docname="the_space_elevator.svg"
   inkscape:version="0.92.4 (5da689c313, 2019-01-14)"
   width="212.4856"
   height="212.4856"><metadata
   id="metadata5465"><rdf:RDF><cc:Work
       rdf:about=""><dc:format>image/svg+xml</dc:format><dc:type
         rdf:resource="http://purl.org/dc/dcmitype/StillImage" /><dc:title></dc:title></cc:Work></rdf:RDF></metadata><defs
   id="defs5463" /><sodipodi:namedview
   pagecolor="#ffffff"
   bordercolor="#666666"
   borderopacity="1"
   objecttolerance="10"
   gridtolerance="10"
   guidetolerance="10"
   inkscape:pageopacity="0"
   inkscape:pageshadow="2"
   inkscape:window-width="1920"
   inkscape:window-height="1022"
   id="namedview5461"
   showgrid="false"
   inkscape:zoom="0.21212883"
   inkscape:cx="-286.00452"
   inkscape:cy="-1501.9389"
   inkscape:window-x="1079"
   inkscape:window-y="709"
   inkscape:window-maximized="1"
   inkscape:current-layer="Layer_2_1_" />




































<g
   id="g3976"
   transform="translate(-1558.2633,-11.255581)"
   style="fill:#d7e6ed;fill-opacity:1">
	<path
   d="m 1664.5061,11.255581 -106.2428,106.242799 106.2428,106.2428 106.2428,-106.2428 z m 72.1296,106.242619 c 0,-12.41266 -3.1389,-24.091919 -8.6632,-34.290894 l 34.2912,34.291074 -34.2891,34.289 c 5.523,-10.1994 8.6611,-21.87811 8.6611,-34.28918 z m -72.13,65.13 c -35.91,0 -65.12,-29.22003 -65.12,-65.13 0,-35.910035 29.21,-65.119996 65.12,-65.119996 35.9101,0 65.13,29.209961 65.13,65.119996 0,35.90997 -29.2199,65.13 -65.13,65.13 z m 34.3044,-128.583435 c -10.203,-5.526611 -21.8872,-8.666564 -34.3044,-8.666564 -12.4183,0 -24.1029,3.140564 -34.3053,8.668274 l 34.3057,-34.305603 z m -97.7561,29.148259 c -5.5276,10.202331 -8.6683,21.886776 -8.6683,34.305176 0,12.41681 3.1398,24.10077 8.6662,34.30347 l -34.3034,-34.30329 z m 29.1616,97.772336 c 10.1988,5.52405 21.8777,8.66284 34.2901,8.66284 12.4112,0 24.0899,-3.13824 34.2892,-8.66119 l -34.2888,34.28888 z"
   id="path3966"
   inkscape:connector-curvature="0"
   style="fill:#d7e6ed;fill-opacity:1" />
	<path
   d="m 1711.6858,149.17819 c -9.72,15.87 -27.21,26.45001 -47.1801,26.45001 -19.9699,0 -37.4599,-10.58001 -47.18,-26.45001 9.7201,-15.85998 27.2101,-26.44 47.18,-26.44 19.9701,0 37.4601,10.58002 47.1801,26.44 z"
   id="path3968"
   inkscape:connector-curvature="0"
   style="fill:#d7e6ed;fill-opacity:1" />
	<path
   style="fill:#d7e6ed;fill-opacity:1"
   d="m 1651.2914,119.65186 h 26.4295 l -13.2147,-13.67545 z"
   id="polygon3970"
   inkscape:connector-curvature="0" />
	<path
   style="fill:#d7e6ed;fill-opacity:1"
   d="m 1651.2914,102.04581 h 26.4295 l -13.2147,-13.675441 z"
   id="polygon3972"
   inkscape:connector-curvature="0" />
	<path
   d="m 1664.5061,85.207855 c -8.0723,0 -14.6396,-6.567383 -14.6396,-14.639648 0,-8.072266 6.5673,-14.639653 14.6396,-14.639653 8.0723,0 14.6397,6.567383 14.6397,14.639653 0,8.072269 -6.5674,14.639648 -14.6397,14.639648 z m 0,-24.279301 c -5.3154,0 -9.6396,4.324223 -9.6396,9.639653 0,5.315429 4.3242,9.639648 9.6396,9.639648 5.3154,0 9.6397,-4.324219 9.6397,-9.639648 0,-5.31543 -4.3243,-9.639653 -9.6397,-9.639653 z"
   id="path3974"
   inkscape:connector-curvature="0"
   style="fill:#d7e6ed;fill-opacity:1" />
</g>














































































































































</svg>