<?xml version="1.0" encoding="UTF-8" standalone="no"?>
<!-- Generator: Adobe Illustrator 22.1.0, SVG Export Plug-In . SVG Version: 6.00 Build 0)  -->

<svg
   xmlns:dc="http://purl.org/dc/elements/1.1/"
   xmlns:cc="http://creativecommons.org/ns#"
   xmlns:rdf="http://www.w3.org/1999/02/22-rdf-syntax-ns#"
   xmlns:svg="http://www.w3.org/2000/svg"
   xmlns="http://www.w3.org/2000/svg"
   xmlns:sodipodi="http://sodipodi.sourceforge.net/DTD/sodipodi-0.dtd"
   xmlns:inkscape="http://www.inkscape.org/namespaces/inkscape"
   version="1.1"
   id="Layer_2_1_"
   x="0px"
   y="0px"
   viewBox="0 0 212.47999 212.48"
   enable-background="new 0 0 3947.9399414 3860.8613281"
   xml:space="preserve"
   sodipodi:docname="the_telepathic_matrix.svg"
   inkscape:version="0.92.4 (5da689c313, 2019-01-14)"
   width="212.47998"
   height="212.48"><metadata
   id="metadata5465"><rdf:RDF><cc:Work
       rdf:about=""><dc:format>image/svg+xml</dc:format><dc:type
         rdf:resource="http://purl.org/dc/dcmitype/StillImage" /><dc:title></dc:title></cc:Work></rdf:RDF></metadata><defs
   id="defs5463" /><sodipodi:namedview
   pagecolor="#ffffff"
   bordercolor="#666666"
   borderopacity="1"
   objecttolerance="10"
   gridtolerance="10"
   guidetolerance="10"
   inkscape:pageopacity="0"
   inkscape:pageshadow="2"
   inkscape:window-width="1920"
   inkscape:window-height="1022"
   id="namedview5461"
   showgrid="false"
   inkscape:zoom="0.21212883"
   inkscape:cx="952.38836"
   inkscape:cy="1052.176"
   inkscape:window-x="1079"
   inkscape:window-y="709"
   inkscape:window-maximized="1"
   inkscape:current-layer="Layer_2_1_" />


























































































































































<g
   id="g5136"
   transform="translate(-319.87042,-2565.376)"
   style="fill:#e2bd4d;fill-opacity:1">
	<path
   d="m 426.11041,2565.376 -106.23999,106.24 106.23999,106.24 106.23999,-106.24 z m 58.00305,91.3252 -19.92419,8.2527 c -0.62976,-1.9156 -1.39996,-3.7662 -2.29858,-5.542 l 20.47937,-8.4827 c 0.67559,1.8818 1.25671,3.8081 1.7434,5.772 z m -10.78619,-22.1961 -16.8382,16.8379 c -1.307,-1.5173 -2.72491,-2.9348 -4.24273,-4.2417 l 17.15655,-17.1562 c 1.38251,1.4531 2.69245,2.9738 3.92438,4.56 z m -72.99524,63.5354 c -0.18481,-0.1848 -0.44354,-0.2995 -0.72815,-0.2995 -4.94641,0 -8.95367,-4.0074 -8.95367,-8.9536 v -15.5342 c 0,-1.4124 0.98321,-2.6324 2.36218,-2.9317 l 4.26605,-0.9279 v -5.2386 c 0,-12.0776 9.78931,-21.8667 21.86695,-21.8667 h 13.92968 c 12.07764,0 21.86676,9.7891 21.86676,21.8667 v 5.2386 l 4.26624,0.9279 c 1.37897,0.2993 2.36236,1.5193 2.36236,2.9317 v 15.5342 c 0,4.9462 -4.00744,8.9536 -8.95385,8.9536 -0.28461,0 -0.5434,0.1147 -0.72834,0.2995 -0.18475,0.1848 -0.29943,0.4436 -0.29943,0.7281 v 8.9279 c 0,3.135 -1.24573,6.1404 -3.46021,8.355 l -7.68194,7.6821 c -2.21454,2.2144 -5.22004,3.46 -8.35499,3.46 h -11.96301 c -3.13482,0 -6.14044,-1.2456 -8.35473,-3.46 l -7.68207,-7.6821 c -2.21448,-2.2146 -3.46033,-5.22 -3.46033,-8.355 v -8.9279 c 0,-0.2845 -0.11456,-0.5433 -0.2995,-0.7281 z m -2.01739,-79.8257 c 1.76593,-0.9296 3.5841,-1.7712 5.44891,-2.5236 l 9.82159,23.7107 c -1.91565,0.6296 -3.76629,1.3996 -5.54229,2.2983 z m 24.79583,19.3042 v -26.0874 c 0.99231,-0.049 1.99048,-0.076 2.99494,-0.076 1.00787,0 2.00946,0.027 3.00506,0.076 v 26.0879 c -0.99322,-0.074 -1.99304,-0.1238 -3.00506,-0.1238 -1.00861,0 -2.00501,0.05 -2.99494,0.123 z m 15.52448,1.8843 9.82141,-23.7109 c 1.86475,0.7527 3.68304,1.594 5.44897,2.5237 l -9.72802,23.4856 c -1.77606,-0.8985 -3.62665,-1.6687 -5.54236,-2.2984 z m -12.52454,-65.5473 34.30005,34.3 c -10.20996,-5.52 -21.89014,-8.6602 -34.30005,-8.6602 -12.41992,0 -24.1001,3.1402 -34.30005,8.6602 z m -43.29321,56.0886 17.15643,17.1562 c -1.5177,1.3067 -2.93548,2.7244 -4.24243,4.242 l -16.83819,-16.8379 c 1.23193,-1.5862 2.54174,-3.1072 3.92419,-4.5603 z m -12.96661,20.9848 20.47931,8.4825 c -0.8985,1.7758 -1.66877,3.6264 -2.29847,5.542 l -19.92407,-8.2527 c 0.4867,-1.9639 1.06763,-3.8899 1.74323,-5.7718 z m -41.50019,20.6866 34.30005,-34.2998 c -5.52002,10.1997 -8.66015,21.8798 -8.66015,34.2998 0,12.4199 3.14013,24.1001 8.67016,34.31 z m 38.09473,2.8632 h 19.70343 c -0.0733,0.9905 -0.12317,1.9874 -0.12317,2.9966 0,1.0115 0.0501,2.0108 0.12372,3.0034 h -19.06799 c -0.31012,-1.9697 -0.52332,-3.9711 -0.63599,-6 z m 5.61285,22.1426 15.97535,-6.6174 c 0.62988,1.9155 1.40014,3.7659 2.29876,5.5417 l -15.42865,6.3909 c -1.03576,-1.7165 -1.98321,-3.4917 -2.84546,-5.3152 z m 10.82929,15.739 11.51745,-10.3703 c 1.22699,1.5849 2.57001,3.0737 4.01654,4.457 l -11.16583,10.054 c -1.52508,-1.3069 -2.98205,-2.6888 -4.36816,-4.1407 z m 43.22314,57.0152 -34.30005,-34.3001 c 10.19995,5.5301 21.88013,8.6699 34.30005,8.6699 12.40991,0 24.09009,-3.1398 34.30005,-8.6599 z m 38.85407,-52.8753 -11.16571,-10.0537 c 1.44665,-1.383 2.78979,-2.872 4.01684,-4.457 l 11.51721,10.3704 c -1.38616,1.4519 -2.8432,2.8337 -4.36834,4.1403 z m 12.35254,-14.5637 -15.42853,-6.3909 c 0.89868,-1.7758 1.66894,-3.6259 2.29889,-5.5415 l 15.97522,6.6172 c -0.86237,1.8235 -1.80976,3.5987 -2.84558,5.3152 z m 7.82269,-21.4578 h -19.06799 c 0.0736,-0.9926 0.12371,-1.9919 0.12371,-3.0034 0,-1.0092 -0.0499,-2.0061 -0.12316,-2.9966 h 19.70343 c -0.11268,2.0289 -0.32587,4.0303 -0.63599,6 z m 4.44067,-43.1433 34.29004,34.2801 -34.29004,34.29 c 5.52002,-10.2002 8.65992,-21.8799 8.65992,-34.29 0,-12.4102 -3.1399,-24.0899 -8.65992,-34.2801 z"
   id="path5132"
   inkscape:connector-curvature="0"
   style="fill:#e2bd4d;fill-opacity:1" />
	<path
   d="m 426.10699,2706.3035 c 2.66639,0 5.0351,1.2705 6.5304,3.2353 h 7.89984 c -0.74109,-7.3108 -6.92065,-13.0205 -14.43024,-13.0205 -7.50939,0 -13.68249,5.7097 -14.42358,13.0205 h 7.89337 c 1.50189,-1.9648 3.86383,-3.2353 6.53021,-3.2353 z"
   id="path5134"
   inkscape:connector-curvature="0"
   style="fill:#e2bd4d;fill-opacity:1" />
</g>
























</svg>