<?xml version="1.0" encoding="UTF-8" standalone="no"?>
<!-- Generator: Adobe Illustrator 22.1.0, SVG Export Plug-In . SVG Version: 6.00 Build 0)  -->

<svg
   xmlns:dc="http://purl.org/dc/elements/1.1/"
   xmlns:cc="http://creativecommons.org/ns#"
   xmlns:rdf="http://www.w3.org/1999/02/22-rdf-syntax-ns#"
   xmlns:svg="http://www.w3.org/2000/svg"
   xmlns="http://www.w3.org/2000/svg"
   xmlns:sodipodi="http://sodipodi.sourceforge.net/DTD/sodipodi-0.dtd"
   xmlns:inkscape="http://www.inkscape.org/namespaces/inkscape"
   version="1.1"
   id="Layer_2_1_"
   x="0px"
   y="0px"
   viewBox="0 0 212.47999 212.48"
   enable-background="new 0 0 3947.9399414 3860.8613281"
   xml:space="preserve"
   sodipodi:docname="the_hunter_seeker_algorithm.svg"
   inkscape:version="0.92.4 (5da689c313, 2019-01-14)"
   width="212.48"
   height="212.48"><metadata
   id="metadata5465"><rdf:RDF><cc:Work
       rdf:about=""><dc:format>image/svg+xml</dc:format><dc:type
         rdf:resource="http://purl.org/dc/dcmitype/StillImage" /><dc:title></dc:title></cc:Work></rdf:RDF></metadata><defs
   id="defs5463" /><sodipodi:namedview
   pagecolor="#ffffff"
   bordercolor="#666666"
   borderopacity="1"
   objecttolerance="10"
   gridtolerance="10"
   guidetolerance="10"
   inkscape:pageopacity="0"
   inkscape:pageshadow="2"
   inkscape:window-width="1920"
   inkscape:window-height="1022"
   id="namedview5461"
   showgrid="false"
   inkscape:zoom="0.21212883"
   inkscape:cx="-2143.6008"
   inkscape:cy="200.80334"
   inkscape:window-x="1079"
   inkscape:window-y="709"
   inkscape:window-maximized="1"
   inkscape:current-layer="Layer_2_1_" />




































































































<g
   id="g4564"
   transform="translate(-3415.8596,-1714.0034)"
   style="fill:#e1561c;fill-opacity:1">
	<path
   d="m 3522.0996,1714.0034 -106.24,106.24 106.24,106.24 106.24,-106.24 z m 0,8.48 34.3001,34.3 c -10.21,-5.52 -21.8902,-8.66 -34.3001,-8.66 -12.4199,0 -24.1001,3.14 -34.3,8.66 z m -97.76,97.76 34.3,-34.3 c -5.52,10.1999 -8.6601,21.88 -8.6601,34.3 0,12.4199 3.1401,24.1 8.6702,34.3101 z m 97.76,97.76 -34.3,-34.3 c 10.1999,5.53 21.8801,8.67 34.3,8.67 12.4099,0 24.0901,-3.14 34.3001,-8.66 z m 39.0247,-69.9612 -39.0247,39.0248 -39.0249,-39.0248 v -76.3731 h 78.0496 z m 24.4453,-62.0788 34.29,34.28 -34.29,34.29 c 5.52,-10.2 8.6599,-21.8801 8.6599,-34.29 0,-12.41 -3.1399,-24.0901 -8.6599,-34.28 z"
   id="path4560"
   inkscape:connector-curvature="0"
   style="fill:#e1561c;fill-opacity:1" />
	<path
   d="m 3553.9695,1808.6533 c -5,-12.72 -17.3799,-21.72 -31.8701,-21.72 -14.49,0 -26.8699,9 -31.8699,21.72 -1.52,3.8701 -2.3501,8.0901 -2.3501,12.5 0,4.4101 0.8301,8.6301 2.3501,12.5 5,12.7201 17.3799,21.7201 31.8699,21.7201 14.4902,0 26.8701,-9 31.8701,-21.7201 1.52,-3.8699 2.3501,-8.0899 2.3501,-12.5 0,-4.4099 -0.8301,-8.6299 -2.3501,-12.5 z m -32.27,16.7201 c -2.8301,0 -5.1202,-2.3 -5.1202,-5.12 0,-2.8301 2.2901,-5.13 5.1202,-5.13 2.83,0 5.1201,2.2999 5.1201,5.13 0,2.82 -2.2901,5.12 -5.1201,5.12 z m -22.6402,8.2799 c -2.0298,-3.72 -3.1799,-7.98 -3.1799,-12.5 0,-4.52 1.1501,-8.7799 3.1799,-12.5 h 11.4402 c -3.04,2.9301 -4.9202,7.0501 -4.9202,11.6001 0,5.58 2.8401,10.51 7.1602,13.3999 z m 31.6001,0 c 4.3201,-2.8899 7.1602,-7.8199 7.1602,-13.3999 0,-4.55 -1.8801,-8.67 -4.9202,-11.6001 h 12.24 c 2.03,3.7201 3.1802,7.98 3.1802,12.5 0,4.52 -1.1502,8.78 -3.1802,12.5 z"
   id="path4562"
   inkscape:connector-curvature="0"
   style="fill:#e1561c;fill-opacity:1" />
</g>














































































</svg>