<?xml version="1.0" encoding="UTF-8" standalone="no"?>
<!-- Created with Inkscape (http://www.inkscape.org/) -->

<svg
   xmlns:dc="http://purl.org/dc/elements/1.1/"
   xmlns:cc="http://creativecommons.org/ns#"
   xmlns:rdf="http://www.w3.org/1999/02/22-rdf-syntax-ns#"
   xmlns:svg="http://www.w3.org/2000/svg"
   xmlns="http://www.w3.org/2000/svg"
   xmlns:sodipodi="http://sodipodi.sourceforge.net/DTD/sodipodi-0.dtd"
   xmlns:inkscape="http://www.inkscape.org/namespaces/inkscape"
   width="54.716522mm"
   height="54.716496mm"
   viewBox="0 0 54.716523 54.716496"
   version="1.1"
   id="svg883"
   inkscape:version="0.92.4 (f8dce91, 2019-08-02)"
   sodipodi:docname="adaptive_doctrine.svg">
  <defs
     id="defs877" />
  <sodipodi:namedview
     id="base"
     pagecolor="#ffffff"
     bordercolor="#666666"
     borderopacity="1.0"
     inkscape:pageopacity="0.0"
     inkscape:pageshadow="2"
     inkscape:zoom="0.35"
     inkscape:cx="366.53664"
     inkscape:cy="-87.612526"
     inkscape:document-units="mm"
     inkscape:current-layer="layer1"
     showgrid="false"
     inkscape:window-width="446"
     inkscape:window-height="439"
     inkscape:window-x="1255"
     inkscape:window-y="1048"
     inkscape:window-maximized="0" />
  <metadata
     id="metadata880">
    <rdf:RDF>
      <cc:Work
         rdf:about="">
        <dc:format>image/svg+xml</dc:format>
        <dc:type
           rdf:resource="http://purl.org/dc/dcmitype/StillImage" />
        <dc:title></dc:title>
      </cc:Work>
    </rdf:RDF>
  </metadata>
  <g
     inkscape:label="Layer 1"
     inkscape:groupmode="layer"
     id="layer1"
     transform="translate(46.216223,-15.542241)">
    <g
       transform="matrix(0.26458333,0,0,0.26458333,-705.00264,-138.36027)"
       id="g4364"
       style="fill:#e1561c;fill-opacity:1">
      <path
         inkscape:connector-curvature="0"
         d="m 2695.8264,682.96381 -27.6499,-27.65003 c -0.56,-0.57001 -0.8801,-1.33002 -0.8801,-2.13 V 614.0838 c 0,-1.65002 -1.3399,-3 -3,-3 h -39.0999 c -0.79,0 -1.56,-0.31 -2.1201,-0.86999 l -27.6499,-27.65003 c -1.1699,-1.17999 -3.0701,-1.17999 -4.24,0 l -27.6499,27.65003 c -0.57,0.55999 -1.3301,0.86999 -2.1301,0.86999 h -39.0999 c -1.6501,0 -3,1.34998 -3,3 v 39.09998 c 0,0.79998 -0.31,1.55999 -0.8701,2.13 l -27.6499,27.65003 c -1.1802,1.16998 -1.1802,3.06994 0,4.23999 l 27.6499,27.64996 c 0.5601,0.56 0.8701,1.32001 0.8701,2.11999 v 39.10004 c 0,1.65997 1.3499,3 3,3 h 39.0999 c 0.8,0 1.5601,0.32001 2.1301,0.88001 l 27.6499,27.64996 c 1.1699,1.17004 3.0701,1.17004 4.24,0 l 27.6499,-27.64996 c 0.5601,-0.56 1.3301,-0.88001 2.1201,-0.88001 h 39.0999 c 1.6601,0 3,-1.34003 3,-3 v -39.10004 c 0,-0.79998 0.3201,-1.55999 0.8801,-2.11999 l 27.6499,-27.64996 c 1.1702,-1.17005 1.1702,-3.07001 0,-4.23999 z m -38.53,28.62994 v 37.48004 h -37.48 l -26.5098,26.51001 -26.5102,-26.51001 h -37.4898 v -37.48004 l -26.5,-26.50995 26.5,-26.51001 V 621.0838 h 37.4898 l 26.5102,-26.5 26.5098,26.5 h 37.48 v 37.48999 l 26.5102,26.51001 z"
         id="path4346"
         style="fill:#e1561c;fill-opacity:1" />
      <path
         inkscape:connector-curvature="0"
         d="m 2531.7698,713.26202 c 3.6816,0 7.4829,-0.83191 9.636,-2.07598 v -50.85041 c -2.1531,-1.24408 -5.9544,-2.07599 -9.636,-2.07599 z"
         id="path4348"
         style="fill:#e1561c;fill-opacity:1" />
      <path
         style="fill:#e1561c;fill-opacity:1"
         d="m 2649.064,663.1311 h 6.6855 v 39.19269 h -6.6855 z"
         id="rect4350"
         inkscape:connector-curvature="0" />
      <path
         style="fill:#e1561c;fill-opacity:1"
         d="m 2649.064,705.78583 h 6.6855 v 3.78796 h -6.6855 z"
         id="rect4352"
         inkscape:connector-curvature="0" />
      <path
         inkscape:connector-curvature="0"
         d="m 2592.7695,660.63544 c -1.1496,1.00427 -13.7563,5.83819 -19.4648,6.82 -1.6616,0.56958 -1.7346,2.13593 -1.2893,3.35004 0.5847,1.59638 3.1499,2.28583 4.4458,2.83295 3.8679,1.63385 7.5693,2.3833 11.6033,1.46893 7.7087,-1.74628 16.3149,-9.22577 24.4423,-6.24298 2.8243,1.04175 3.6084,4.15204 6.3665,5.87573 4.0803,2.54816 7.7419,5.53845 11.417,8.76111 2.4324,2.14343 6.1804,4.32434 7.1838,7.83929 1.0833,3.82221 -1.6282,5.8982 -3.143,8.84357 -0.1333,0.26978 -0.2593,0.62952 -0.08,0.86182 0.133,0.17242 0.3657,0.17987 0.5649,0.17242 2.4124,-0.14239 4.7251,-1.06427 6.9981,-1.97107 0.6577,-0.26233 1.3156,-0.53216 1.9336,-0.89935 0.2326,-0.13489 0.4519,-0.28479 0.6645,-0.44965 v -26.7705 c -5.0373,-4.00208 -21.6977,-15.00403 -35.6335,-15.00403 -10.0015,0 -12.1546,1.13165 -16.0091,4.51172 z"
         id="path4354"
         style="fill:#e1561c;fill-opacity:1" />
      <path
         inkscape:connector-curvature="0"
         d="m 2567.4565,701.42065 c -6.0229,-1.30682 -5.3554,5.1988 -5.2375,11.11451 0.017,0.84979 0.3911,1.64178 1.0059,2.13366 0.142,0.11365 0.2844,0.22553 0.4277,0.3396 0.3242,0.25812 0.7121,0.39704 1.1091,0.39704 h 6.177 c 0.5662,0 1.0366,-0.54712 1.0432,-0.95185 0.013,-5.67334 1.6416,-11.69146 -4.5254,-13.03296 z"
         id="path4356"
         style="fill:#e1561c;fill-opacity:1" />
      <path
         inkscape:connector-curvature="0"
         d="m 2589.8254,702.26001 c 1.2161,-6.40033 -2.718,-8.61121 -6.978,-5.63586 -6.5542,4.59381 -10.54,13.10913 -6.6243,18.83398 0.3462,0.50604 0.8902,0.79419 1.4571,0.79419 h 7.7468 c 0.949,0 1.7146,-0.8833 1.6851,-1.95282 -0.046,-1.64624 -0.1348,-3.27521 0.1416,-4.78473 0.4519,-2.49573 2.0666,-4.58673 2.5717,-7.25476 z"
         id="path4358"
         style="fill:#e1561c;fill-opacity:1" />
      <path
         inkscape:connector-curvature="0"
         d="m 2634.0317,694.13599 c -2.8774,-5.04383 -14.8728,-12.05872 -18.1091,-15.43128 -1.5749,-1.64129 -3.0237,-3.49994 -4.5122,-5.3136 -0.7512,-0.90686 -1.7878,-1.47644 -2.8909,-1.47644 h -0.02 c -3.4292,0 -7.2837,1.78369 -11.0117,3.50745 -2.8643,1.32654 -5.8215,2.69055 -8.7722,3.35754 -1.3689,0.31476 -2.7644,0.47217 -4.1468,0.47217 -2.9306,0 -5.8813,-0.66699 -9.2705,-2.10596 -0.1928,-0.0749 -0.4052,-0.15741 -0.6447,-0.24731 -1.8474,-0.69702 -4.6453,-1.75372 -5.7085,-4.66162 -0.6514,-1.78369 -0.6514,-3.63483 0.01,-5.20123 0.6379,-1.51386 1.8342,-2.638 3.3891,-3.16266 l 0.2261,-0.0824 0.2393,-0.0375 c 4.3925,-0.75689 13.1716,-3.9646 16.7468,-5.56091 -29.792,-1.43897 -31.6265,1.82117 -44.1599,8.96344 v 33.83777 c 5.3896,0.86194 9.6294,5.18628 14.7597,6.93243 0.047,-2.81787 0.399,-5.44848 1.8875,-7.17969 0.9968,-1.15417 2.3393,-1.74627 3.9807,-1.74627 0.5581,0 1.1697,0.075 1.8142,0.2099 3.6685,0.80188 5.2634,3.00525 5.9146,5.58337 1.4621,-3.8222 4.3261,-7.47198 8.0478,-10.08008 1.5352,-1.07177 3.1301,-1.64129 4.6121,-1.64129 1.7478,0 3.2695,0.78686 4.2929,2.21081 0.8973,1.25165 1.8077,3.55994 1.0701,7.44959 -0.06,0.31482 -0.1396,0.61456 -0.2195,0.91437 0.638,-0.24738 1.3225,-0.37476 2.0469,-0.37476 1.2427,0 2.5718,0.37476 3.7349,1.07172 1.4687,0.86932 2.9506,2.27081 4.1467,3.88214 0.4453,0.17236 0.884,0.36725 1.3093,0.59955 0.9771,0.52465 13.6367,6.10058 15.1384,4.21197 2.7381,-3.44 -2.206,-6.198 -4.1799,-7.29217 -3.7214,-2.05353 -7.5029,-3.9646 -11.344,-5.74079 -1.3689,-0.63708 -2.7512,-1.20666 -4.1867,-1.6413 -1.0965,-0.33728 -2.2994,-0.60705 -2.4854,-2.14349 -0.073,-0.61456 0.073,-1.22906 0.2656,-1.80615 0.067,-0.20239 0.1465,-0.41968 0.2993,-0.56207 0.1529,-0.15741 0.3721,-0.21735 0.5782,-0.23987 0.8239,-0.0899 1.8474,0.45715 2.5849,0.86188 0.937,0.52459 1.7879,1.2066 2.7115,1.75372 1.6149,0.95178 3.2299,1.91107 4.8579,2.8479 3.8545,2.22589 7.7487,4.41431 11.8159,6.14551 1.03,0.4422 2.0866,0.79443 3.1633,1.07922 0.9837,0.25482 2.1797,0.50214 3.0967,0 0.206,-0.0974 0.3989,-0.21735 0.5784,-0.35223 7.1171,-5.32111 -6.2935,-9.44312 -9.1844,-10.85212 -3.489,-1.69372 -6.8715,-3.65728 -10.3405,-5.39599 -1.721,-0.86188 -3.469,-1.67883 -5.2566,-2.3758 -1.2295,-0.48712 -3.8477,-0.7644 -3.7015,-2.82543 0.2193,-2.92286 3.7481,-1.18415 5.1436,-0.5846 2.1265,0.92181 4.1668,2.091 6.1804,3.29016 4.6385,2.75043 9.1443,5.80072 13.8758,8.34888 1.9741,1.06421 4.0007,2.07599 6.1142,2.7055 0.8572,0.25483 1.8142,0.48713 2.7378,0.48713 0.6116,0 1.2095,-0.0899 1.7676,-0.34473 0.4255,-0.19482 0.811,-0.47962 1.1233,-0.86188 0.7641,-0.94433 0.6247,-2.10595 -0.1131,-3.40246 z"
         id="path4360"
         style="fill:#e1561c;fill-opacity:1" />
      <path
         inkscape:connector-curvature="0"
         d="m 2603.9209,713.65918 c -1.2495,-1.22162 -2.645,-2.09845 -3.6753,-3.58984 -0.99,-1.43897 -2.4058,-2.88544 -3.8411,-3.73975 -1.781,-1.05676 -4.2929,-1.29657 -5.7417,0.59204 -1.1936,1.56824 -0.84,5.83228 -0.6635,8.96216 0.058,1.02209 0.8105,1.815 1.7187,1.815 h 10.573 c 0.333,0 0.6626,-0.10138 0.9422,-0.30585 0.5749,-0.42065 1.0607,-0.9696 1.2922,-1.68774 0.1064,-0.32227 0.1462,-0.68201 0.067,-1.01923 -0.1,-0.41223 -0.3855,-0.742 -0.6711,-1.02679 z"
         id="path4362"
         style="fill:#e1561c;fill-opacity:1" />
    </g>
  </g>
</svg>
