<?xml version="1.0" encoding="UTF-8" standalone="no"?>
<!-- Created with Inkscape (http://www.inkscape.org/) -->

<svg
   xmlns:dc="http://purl.org/dc/elements/1.1/"
   xmlns:cc="http://creativecommons.org/ns#"
   xmlns:rdf="http://www.w3.org/1999/02/22-rdf-syntax-ns#"
   xmlns:svg="http://www.w3.org/2000/svg"
   xmlns="http://www.w3.org/2000/svg"
   xmlns:sodipodi="http://sodipodi.sourceforge.net/DTD/sodipodi-0.dtd"
   xmlns:inkscape="http://www.inkscape.org/namespaces/inkscape"
   width="50.479801mm"
   height="50.4772mm"
   viewBox="0 0 50.479804 50.477201"
   version="1.1"
   id="svg883"
   inkscape:version="0.92.4 (f8dce91, 2019-08-02)"
   sodipodi:docname="adaptive_economics.svg">
  <defs
     id="defs877" />
  <sodipodi:namedview
     id="base"
     pagecolor="#ffffff"
     bordercolor="#666666"
     borderopacity="1.0"
     inkscape:pageopacity="0.0"
     inkscape:pageshadow="2"
     inkscape:zoom="0.35"
     inkscape:cx="366.79035"
     inkscape:cy="-0.03359754"
     inkscape:document-units="mm"
     inkscape:current-layer="layer1"
     showgrid="false"
     inkscape:window-width="446"
     inkscape:window-height="440"
     inkscape:window-x="1255"
     inkscape:window-y="1048"
     inkscape:window-maximized="0" />
  <metadata
     id="metadata880">
    <rdf:RDF>
      <cc:Work
         rdf:about="">
        <dc:format>image/svg+xml</dc:format>
        <dc:type
           rdf:resource="http://purl.org/dc/dcmitype/StillImage" />
        <dc:title></dc:title>
      </cc:Work>
    </rdf:RDF>
  </metadata>
  <g
     inkscape:label="Layer 1"
     inkscape:groupmode="layer"
     id="layer1"
     transform="translate(46.283351,-43.331441)">
    <g
       transform="matrix(0.26458333,0,0,0.26458333,-625.27346,37.481928)"
       id="g4234"
       style="fill:#e2bd4d;fill-opacity:1">
      <path
         inkscape:connector-curvature="0"
         d="M 2188.3091,22.108395 V 212.88836 h 190.7898 V 22.108395 Z m 128.8598,4 h 24.4603 v 27.45996 h -24.4603 z m -30.4699,0 h 24.4699 v 27.45996 h -24.4699 z m -30.46,0 h 24.46 v 27.45996 h -24.46 z m -30.4599,0 h 24.4599 v 27.45996 h -24.4599 z m -33.47,0 h 27.47 v 27.45996 h -27.47 z m 27.47,182.779975 h -27.47 V 181.4184 h 27.47 z m 30.4599,0 h -24.4599 V 181.4184 h 24.4599 z m 30.46,0 h -24.46 V 181.4184 h 24.46 z m 30.4699,0 H 2286.699 V 181.4184 h 24.4699 z m 30.4603,0 h -24.4603 V 181.4184 h 24.4603 z m 33.4697,0 h -27.4697 V 181.4184 h 27.4697 z m 0,-124.419986 h -7.6099 v 51.999996 h 7.6099 v 4 h -7.6099 v 4.57996 h 7.6099 v 30.37006 h -27.4697 v -24.46003 h 16.1098 c -1.9599,-1.23999 -3.25,-3.42999 -3.25,-5.91003 v -0.09 h -12.8598 v -2.78003 c -0.4002,0.04 -0.8001,0.08 -1.2103,0.10004 -0.05,0 -0.3798,0.01 -0.5,0.01 -1.82,0 -3.1999,-0.53003 -4.2399,-1.16003 -0.01,0.04 -0.03,0.08 -0.05,0.11999 v 3.71002 h -2.4603 c -0.8,0.83997 -1.78,1.66999 -2.9899,2.46997 -0.5899,0.39002 -1.22,0.74006 -1.8599,1.02002 -1.4502,0.66999 -3.0601,1.01001 -4.8101,1.01001 -0.24,0 -0.4799,-0.01 -0.7199,-0.02 -0.05,0.51001 -0.1502,1.02002 -0.2901,1.52002 h 13.1302 v 24.46003 h -24.4603 v -16.93006 c -1.78,-0.15997 -3.8498,-0.57995 -6,-1.12994 v 18.06 h -24.4699 v -11.14002 h -6 v 11.14002 h -24.46 v -13.86005 c -0.8201,-0.34998 -1.5901,-0.79999 -2.28,-1.35999 -1.1299,0.59998 -2.3899,0.95002 -3.72,1 v 14.22004 h -24.4599 v -24.46003 h 4.06 c 0,-0.14001 -0.03,-0.27002 -0.03,-0.41003 0,-0.08 0,-0.15997 -0.01,-0.23999 -3.1802,-1.15997 -6.0401,-2.66998 -8.8101,-4.14996 -0.78,-0.41004 -1.54,-0.81 -2.3,-1.20002 h -6.2 v 3.63001 c 0,0.82001 -0.1599,1.61999 -0.4299,2.36999 h 7.72 v 24.46003 h -27.47 v -24.08002 c 5.1098,-0.16004 10.1999,-1.22003 13.1799,-2.75 V 80.738342 c -2.98,-1.529968 -8.0701,-2.589966 -13.1799,-2.75 V 59.568356 h 27.47 v 18.140018 c 1.9799,-0.960022 3.9399,-1.840027 6,-2.630005 V 59.568356 h 24.4599 v 11.08002 c 1.8799,-0.09003 3.8701,-0.150024 6,-0.179992 V 59.568356 h 24.46 v 11.890018 c 0.7099,0.309998 1.3601,0.719971 1.9302,1.229981 1.3198,-0.809998 2.6398,-1.489991 4.0698,-2.059998 V 59.568356 h 24.4699 v 8.720035 c 2,0.159973 4,0.409973 6,0.75 v -9.470035 h 24.4603 v 17.210025 c 2.0998,0.940003 4.1098,1.890015 6,2.839966 V 59.568356 h 27.4697 v 24.900028 z m 0,-30.900028 h -27.4697 V 26.108395 h 27.4697 z"
         id="path4220"
         style="fill:#e2bd4d;fill-opacity:1" />
      <path
         inkscape:connector-curvature="0"
         d="m 2360.489,84.468384 c 0,-0.147522 0.013,-0.291748 0.022,-0.437012 h -4.6467 c 1.7841,1.025147 3.3459,1.966492 4.6247,2.762085 z"
         id="path4222"
         style="fill:#e2bd4d;fill-opacity:1" />
      <path
         inkscape:connector-curvature="0"
         d="m 2359.489,131.45837 c 0.3501,-0.17999 0.6799,-0.38 1,-0.59997 V 95.138367 c -7.5801,-5.340027 -32.6499,-20.02002 -53.6201,-20.02002 -15.0498,0 -18.2898,1.51001 -24.0898,6.02002 -1.73,1.340027 -20.7,7.789978 -29.2901,9.099975 -2.5,0.76001 -2.6098,2.850037 -1.9399,4.470032 0.8799,2.130005 4.74,3.049988 6.6899,3.779968 5.8201,2.180058 11.3902,3.180058 17.46,1.960018 11.6001,-2.330013 24.55,-12.309993 36.78,-8.330013 4.25,1.390015 5.4299,5.540039 9.5801,7.840027 6.1399,3.400026 11.6499,7.390016 17.1799,11.690006 3.6599,2.85998 9.3001,5.77002 10.8101,10.46002 1.6299,5.09997 -2.4502,7.86999 -4.73,11.79999 -0.2002,0.35998 -0.3901,0.83996 -0.1201,1.14996 0.1999,0.23004 0.55,0.23999 0.8501,0.23004 3.6299,-0.19 7.1098,-1.42004 10.53,-2.63 0.99,-0.35004 1.98,-0.71003 2.9099,-1.20002 z"
         id="path4224"
         style="fill:#e2bd4d;fill-opacity:1" />
      <path
         inkscape:connector-curvature="0"
         d="m 2244.689,135.55835 c -9.063,-1.74365 -8.0584,6.93683 -7.8811,14.8302 0.025,1.13391 0.5886,2.19067 1.5136,2.84692 0.2139,0.15168 0.4278,0.30097 0.6436,0.45319 0.488,0.34436 1.0718,0.52972 1.6692,0.52972 h 9.2947 c 0.8518,0 1.56,-0.73004 1.57,-1.27002 0.02,-7.57 2.47,-15.59997 -6.81,-17.39001 z"
         id="path4226"
         style="fill:#e2bd4d;fill-opacity:1" />
      <path
         inkscape:connector-curvature="0"
         d="m 2278.3489,136.67834 c 1.8301,-8.53997 -4.0899,-11.48999 -10.5,-7.51995 -9.8626,6.12951 -15.8604,17.49157 -9.9683,25.13025 0.521,0.67529 1.3399,1.05975 2.1926,1.05975 h 11.6573 c 1.4277,0 2.5803,-1.17859 2.5354,-2.60571 -0.069,-2.19654 -0.2027,-4.37006 0.2131,-6.38428 0.6799,-3.33002 3.1101,-6.12006 3.8699,-9.68006 z"
         id="path4228"
         style="fill:#e2bd4d;fill-opacity:1" />
      <path
         inkscape:connector-curvature="0"
         d="m 2344.8689,125.83838 c -4.3298,-6.72998 -22.3799,-16.09003 -27.25,-20.59003 -2.3699,-2.19 -4.5498,-4.66998 -6.7898,-7.089964 -1.1301,-1.210022 -2.6902,-1.970032 -4.3501,-1.970032 h -0.03 c -5.1599,0 -10.96,2.380005 -16.5698,4.679996 -4.3101,1.77002 -8.7603,3.59002 -13.2002,4.48004 -2.0601,0.41998 -4.16,0.63 -6.24,0.63 -4.4099,0 -8.8499,-0.89001 -13.95,-2.80999 -0.29,-0.10004 -0.6098,-0.21003 -0.97,-0.33002 -2.78,-0.92999 -6.9899,-2.34003 -8.59,-6.220033 -0.98,-2.380005 -0.98,-4.849975 0.01,-6.940002 0.9599,-2.019959 2.76,-3.519959 5.1001,-4.219971 l 0.3401,-0.109985 0.3598,-0.05005 c 6.6099,-1.009949 19.8201,-5.289978 25.2,-7.419983 -44.8299,-1.919983 -47.5901,2.429993 -66.45,11.960022 v 45.149962 c 8.1099,1.15003 14.49,6.92005 22.21,9.25 0.07,-3.75995 0.6001,-7.26996 2.8401,-9.57995 1.5,-1.54004 3.52,-2.33002 5.99,-2.33002 0.8398,0 1.76,0.1 2.7299,0.28003 5.5201,1.06994 7.92,4.00995 8.8999,7.44995 2.2002,-5.09998 6.51,-9.96997 12.1101,-13.44995 2.3101,-1.43006 4.71,-2.19 6.94,-2.19 2.6301,0 4.9202,1.04998 6.4599,2.94995 1.3501,1.67004 2.72,4.75 1.6102,9.94 -0.09,0.42004 -0.21,0.82001 -0.3301,1.22003 0.9599,-0.33002 1.99,-0.5 3.0801,-0.5 1.8698,0 3.8698,0.5 5.6198,1.42999 2.2102,1.15998 4.4402,3.02997 6.24,5.18 0.6702,0.22998 1.3301,0.48999 1.9702,0.79998 1.47,0.70002 20.5201,8.14002 22.7798,5.62 4.1201,-4.58997 -3.3198,-8.26996 -6.29,-9.72998 -5.5999,-2.73999 -11.2898,-5.28998 -17.0698,-7.65997 -2.0601,-0.85004 -4.1402,-1.61005 -6.3001,-2.19001 -1.6499,-0.45001 -3.46,-0.80999 -3.74,-2.86004 -0.1098,-0.82001 0.1099,-1.63996 0.3999,-2.40998 0.1001,-0.27002 0.2202,-0.55999 0.4502,-0.75 0.23,-0.21002 0.5598,-0.28997 0.8699,-0.32 1.24,-0.12 2.78,0.60998 3.8899,1.15002 1.4101,0.69995 2.6902,1.60999 4.0801,2.33997 2.4301,1.27002 4.8601,2.54998 7.31,3.79998 5.8001,2.97004 11.6599,5.89002 17.78,8.20002 1.5501,0.59002 3.1399,1.05999 4.7601,1.44 1.4799,0.34003 3.28,0.66998 4.6599,0 0.31,-0.13001 0.6001,-0.28998 0.8701,-0.46997 10.7099,-7.10004 -9.47,-12.60004 -13.8201,-14.48004 -5.25,-2.25995 -10.3401,-4.88001 -15.56,-7.19995 -2.5899,-1.15003 -5.22,-2.24006 -7.91,-3.17005 -1.8501,-0.64996 -5.79,-1.01996 -5.57,-3.76996 0.3301,-3.90002 5.6401,-1.58001 7.74,-0.78003 3.1999,1.22998 6.27,2.78998 9.3,4.39002 6.98,3.66998 13.76,7.73999 20.8799,11.14001 2.9702,1.41999 6.02,2.76996 9.2002,3.60999 1.29,0.33996 2.73,0.64996 4.1199,0.64996 0.9201,0 1.82,-0.11999 2.6599,-0.45996 0.6401,-0.26001 1.2202,-0.64001 1.6902,-1.15002 1.1499,-1.26001 0.9399,-2.81 -0.1702,-4.53998 z"
         id="path4230"
         style="fill:#e2bd4d;fill-opacity:1" />
      <path
         inkscape:connector-curvature="0"
         d="m 2299.5591,151.88837 c -1.8801,-1.63001 -3.98,-2.79999 -5.53,-4.78998 -1.49,-1.92005 -3.6202,-3.85004 -5.7801,-4.98999 -2.6799,-1.41004 -6.4599,-1.73004 -8.6399,0.78998 -1.7961,2.09246 -1.2641,7.78198 -0.9985,11.95825 0.086,1.36383 1.2197,2.42175 2.5864,2.42175 h 15.9097 c 0.5012,0 0.9971,-0.13525 1.4177,-0.40808 0.865,-0.56128 1.5962,-1.29376 1.9446,-2.25195 0.1602,-0.43 0.22,-0.90998 0.1001,-1.35999 -0.1502,-0.54999 -0.5801,-0.98999 -1.01,-1.36999 z"
         id="path4232"
         style="fill:#e2bd4d;fill-opacity:1" />
    </g>
  </g>
</svg>
