<?xml version="1.0" encoding="UTF-8" standalone="no"?>
<!-- Created with Inkscape (http://www.inkscape.org/) -->

<svg
   xmlns:dc="http://purl.org/dc/elements/1.1/"
   xmlns:cc="http://creativecommons.org/ns#"
   xmlns:rdf="http://www.w3.org/1999/02/22-rdf-syntax-ns#"
   xmlns:svg="http://www.w3.org/2000/svg"
   xmlns="http://www.w3.org/2000/svg"
   xmlns:sodipodi="http://sodipodi.sourceforge.net/DTD/sodipodi-0.dtd"
   xmlns:inkscape="http://www.inkscape.org/namespaces/inkscape"
   width="50.535416mm"
   height="50.535416mm"
   viewBox="0 0 50.535415 50.535416"
   version="1.1"
   id="svg795"
   inkscape:version="0.92.4 (f8dce91, 2019-08-02)"
   sodipodi:docname="ecological_engineering.svg">
  <defs
     id="defs789" />
  <sodipodi:namedview
     id="base"
     pagecolor="#ffffff"
     bordercolor="#666666"
     borderopacity="1.0"
     inkscape:pageopacity="0.0"
     inkscape:pageshadow="2"
     inkscape:zoom="0.35"
     inkscape:cx="-58.774094"
     inkscape:cy="-61.800019"
     inkscape:document-units="mm"
     inkscape:current-layer="g4730"
     showgrid="false"
     inkscape:window-width="955"
     inkscape:window-height="803"
     inkscape:window-x="1205"
     inkscape:window-y="767"
     inkscape:window-maximized="0" />
  <metadata
     id="metadata792">
    <rdf:RDF>
      <cc:Work
         rdf:about="">
        <dc:format>image/svg+xml</dc:format>
        <dc:type
           rdf:resource="http://purl.org/dc/dcmitype/StillImage" />
        <dc:title />
      </cc:Work>
    </rdf:RDF>
  </metadata>
  <g
     inkscape:label="Layer 1"
     inkscape:groupmode="layer"
     id="layer1"
     transform="translate(4.1041166,-21.470478)">
    <g
       transform="matrix(0.26458333,0,0,0.26458333,-746.89586,-735.21316)"
       id="g4730"
       style="fill:#90ae50;fill-opacity:1">
      <path
         inkscape:connector-curvature="0"
         d="m 2892.4595,2971.2129 c 1.6318,1.6321 3.792,2.6079 6.0801,2.76 v -18.8081 c -5.1041,1.2241 -8.6724,5.4241 -12.7442,9.384 z"
         id="path4724"
         style="fill:#e2bd4d;fill-opacity:1" />
      <path
         inkscape:connector-curvature="0"
         d="m 2908.8115,2973.9089 c 2.336,-0.28 4.5279,-1.344 6.2158,-3.0319 l 6.168,-6.168 c -4.208,-3.3362 -8.312,-6.624 -12.3838,-8.312 z"
         id="path4726"
         style="fill:#e2bd4d;fill-opacity:1" />
      <path
         inkscape:connector-curvature="0"
         d="m 2998.4019,2968.0769 v -25.3401 h -19.5801 c -0.2603,-1.5801 -0.5698,-3.1399 -0.9302,-4.6799 l 18.0903,-7.49 -9.6904,-23.4102 -18.0898,7.5 c -0.8501,-1.3598 -1.7398,-2.6799 -2.6602,-3.9699 l 13.8501,-13.8499 -17.9097,-17.9202 -13.8603,13.8602 c -1.2901,-0.93 -2.6099,-1.8201 -3.96,-2.66 l 7.4903,-18.09 -23.3999,-9.7 -7.4903,18.0898 c -1.5498,-0.3498 -3.1098,-0.6699 -4.6899,-0.9299 v -19.5801 h -25.3301 v 19.5801 c -1.5801,0.26 -3.1401,0.5801 -4.6899,0.9299 l -7.4903,-18.0898 -23.3999,9.7 7.4903,18.09 c -1.3501,0.8399 -2.67,1.73 -3.96,2.66 l -13.8604,-13.8602 -17.9096,17.9202 13.8501,13.8499 c -0.9204,1.29 -1.8101,2.6101 -2.6602,3.9699 l -18.0898,-7.5 -9.6905,23.4102 18.0904,7.49 c -0.3604,1.54 -0.6699,3.0998 -0.9302,4.6799 h -19.5898 v 25.3401 h 19.5898 c 0.2603,1.5798 0.5698,3.1399 0.9302,4.6799 l -18.0904,7.49 9.6905,23.4099 18.0898,-7.49 c 0.8501,1.3501 1.7398,2.6702 2.6602,3.9603 l -13.8501,13.8498 17.9096,17.9202 13.8604,-13.8601 c 1.29,0.9299 2.6099,1.82 3.96,2.6599 l -7.4903,18.0901 23.3999,9.6999 7.4903,-18.0898 c 1.5498,0.3498 3.1098,0.6699 4.6899,0.9299 v 19.5798 h 25.3301 v -19.5798 c 1.5801,-0.26 3.1401,-0.5801 4.6899,-0.9299 l 7.4903,18.0898 23.3999,-9.6999 -7.4903,-18.0901 c 1.3501,-0.8399 2.6699,-1.73 3.96,-2.6599 l 13.8603,13.8601 17.9097,-17.9202 -13.8501,-13.8498 c 0.9204,-1.2901 1.8101,-2.6102 2.6602,-3.9603 l 18.0898,7.49 9.6904,-23.4099 -18.0903,-7.49 c 0.3604,-1.54 0.6699,-3.1001 0.9302,-4.6799 z m -54.3907,6.4961 c -6.872,1.4399 -13.2959,-2.5442 -19.4799,-7.2642 l -15.7198,15.72 v 18.936 l 9.688,8.7681 h -25.312 l 5.3521,-3.8159 v -21.384 l -17.168,-17.168 c -1.2403,0.9119 -2.5684,1.72 -4.0161,2.3838 -13.752,6.2641 -26.5279,-5.336 -26.7281,-18.792 -0.2558,-16.7998 3.3838,-27.888 21.584,-37.7839 5.6719,-3.0879 3.6802,-6.408 8.544,-10.3279 5.2641,-4.2481 14.688,-4.9361 21.1201,-4.8882 11.6558,0.104 21.168,7.928 28.7759,15.1282 5.416,5.1359 9.0962,3.0559 15.2158,6.6079 5.208,3.0239 5.456,8.0481 6.9682,13.6079 3.3838,12.448 5.0401,37.3681 -8.8242,40.2722 z"
         id="path4728"
         style="fill:#e2bd4d;fill-opacity:1" />
    </g>
  </g>
</svg>
