<?xml version="1.0" encoding="UTF-8" standalone="no"?>
<!-- Created with Inkscape (http://www.inkscape.org/) -->

<svg
   xmlns:dc="http://purl.org/dc/elements/1.1/"
   xmlns:cc="http://creativecommons.org/ns#"
   xmlns:rdf="http://www.w3.org/1999/02/22-rdf-syntax-ns#"
   xmlns:svg="http://www.w3.org/2000/svg"
   xmlns="http://www.w3.org/2000/svg"
   xmlns:sodipodi="http://sodipodi.sourceforge.net/DTD/sodipodi-0.dtd"
   xmlns:inkscape="http://www.inkscape.org/namespaces/inkscape"
   width="53.229828mm"
   height="53.229813mm"
   viewBox="0 0 53.229829 53.229813"
   version="1.1"
   id="svg883"
   inkscape:version="0.92.4 (f8dce91, 2019-08-02)"
   sodipodi:docname="advanced_subatomic_theory.svg">
  <defs
     id="defs877" />
  <sodipodi:namedview
     id="base"
     pagecolor="#ffffff"
     bordercolor="#666666"
     borderopacity="1.0"
     inkscape:pageopacity="0.0"
     inkscape:pageshadow="2"
     inkscape:zoom="0.35"
     inkscape:cx="358.55702"
     inkscape:cy="-78.449328"
     inkscape:document-units="mm"
     inkscape:current-layer="layer1"
     showgrid="false"
     inkscape:window-width="446"
     inkscape:window-height="439"
     inkscape:window-x="1255"
     inkscape:window-y="1048"
     inkscape:window-maximized="0" />
  <metadata
     id="metadata880">
    <rdf:RDF>
      <cc:Work
         rdf:about="">
        <dc:format>image/svg+xml</dc:format>
        <dc:type
           rdf:resource="http://purl.org/dc/dcmitype/StillImage" />
        <dc:title></dc:title>
      </cc:Work>
    </rdf:RDF>
  </metadata>
  <g
     inkscape:label="Layer 1"
     inkscape:groupmode="layer"
     id="layer1"
     transform="translate(44.104949,-19.453352)">
    <g
       transform="matrix(0.26458333,0,0,0.26458333,-703.6347,-210.27881)"
       id="g4370"
       style="fill:#d7e6ed;fill-opacity:1">
      <path
         inkscape:connector-curvature="0"
         d="m 2693.8945,968.87036 c 0,-12.24628 -13.9834,-21.42187 -34.5053,-27.37347 10.3027,-18.71967 13.7021,-35.09577 5.0424,-43.75556 -8.6596,-8.65942 -25.0354,-5.2597 -43.7548,5.04297 -5.9517,-20.52179 -15.1272,-34.50525 -27.3736,-34.50525 -12.2468,0 -21.4226,13.98352 -27.3742,34.50531 -18.7195,-10.30267 -35.0955,-13.70245 -43.7552,-5.04303 -8.6596,8.65979 -5.2602,25.03589 5.0425,43.75556 -20.522,5.9516 -34.5054,15.12719 -34.5054,27.37347 0,12.24677 13.9834,21.42261 34.5054,27.37433 -10.3027,18.71951 -13.7024,35.09551 -5.043,43.75491 8.6597,8.6598 25.0359,5.2602 43.7554,-5.0423 5.9519,20.5218 15.1277,34.5053 27.3745,34.5053 12.2464,0 21.4219,-13.9835 27.3736,-34.5053 18.7194,10.3026 35.0957,13.7021 43.7553,5.0423 8.6595,-8.6594 5.2598,-25.0354 -5.0429,-43.75491 20.5219,-5.95172 34.5053,-15.12756 34.5053,-27.37433 z m -188.1836,0 c 0,-4.30096 9.8164,-10.89447 28.5215,-15.83234 3.4568,5.22144 7.336,10.53309 11.5398,15.83283 -4.2036,5.29968 -8.0827,10.61114 -11.5395,15.83246 -18.7054,-4.93817 -28.5218,-11.53198 -28.5218,-15.83295 z m 25.6548,61.93694 c -3.0412,-3.0412 -0.7624,-14.6446 8.9724,-31.3629 6.1365,1.2478 12.6355,2.2606 19.3555,3.0355 0.7752,6.7199 1.7878,13.2187 3.0354,19.3551 -16.7183,9.7348 -28.3223,12.0134 -31.3633,8.9723 z m 22.8897,-51.75682 c 1.2812,1.46637 2.5825,2.92639 3.9023,4.37799 0.093,1.95953 0.2056,3.91198 0.3364,5.85479 -3.7202,-0.471 -7.2702,-1.0039 -10.6125,-1.59851 1.9431,-2.78375 4.0764,-5.67077 6.3738,-8.63427 z m -6.3736,-28.99378 c 3.3423,-0.59448 6.8921,-1.12738 10.6123,-1.59839 -0.1308,1.94281 -0.2431,3.89533 -0.3364,5.85492 -1.3198,1.45154 -2.6211,2.91156 -3.9023,4.37787 -2.2974,-2.96356 -4.4307,-5.85065 -6.3736,-8.6344 z m 11.8118,-14.79498 c -6.7197,0.77496 -13.2185,1.78778 -19.355,3.03546 -9.7348,-16.71851 -12.0134,-28.3222 -8.9724,-31.36346 3.0413,-3.0412 14.6448,-0.76239 31.363,8.97259 -1.2478,6.13648 -2.2604,12.63538 -3.0356,19.35541 z m 54.0217,-1.19959 c -1.9428,-0.13086 -3.8955,-0.2431 -5.8549,-0.33636 -1.4517,-1.3197 -2.9117,-2.62103 -4.378,-3.90228 2.9636,-2.29749 5.8506,-4.43085 8.6343,-6.37391 0.5947,3.34241 1.1274,6.8924 1.5986,10.61255 z m -20.4121,-52.78308 c 4.301,0 10.8946,9.81623 15.8323,28.52143 -5.2214,3.45678 -10.533,7.33612 -15.8328,11.53985 -5.2998,-4.20367 -10.611,-8.08282 -15.8325,-11.53961 4.9382,-18.70532 11.532,-28.52167 15.833,-28.52167 z m -18.8144,42.17072 c 2.7837,1.94299 5.6709,4.07629 8.6342,6.37372 -1.4663,1.28125 -2.9262,2.58258 -4.3779,3.90228 -1.9595,0.0933 -3.9121,0.2055 -5.8547,0.33636 0.4709,-3.72009 1.0039,-7.27008 1.5984,-10.61236 z m -1.5984,80.22983 c 1.9426,0.1308 3.8952,0.2431 5.8547,0.3363 1.4517,1.3197 2.9116,2.6209 4.3779,3.9022 -2.9636,2.2974 -5.8505,4.4307 -8.6342,6.3736 -0.5945,-3.3422 -1.1275,-6.8922 -1.5984,-10.6121 z m 20.4128,52.783 c -4.301,0 -10.8948,-9.8164 -15.833,-28.5217 5.2215,-3.4568 10.533,-7.3359 15.8325,-11.5396 5.2998,4.2038 10.6114,8.0831 15.8328,11.5399 -4.9377,18.7052 -11.5313,28.5214 -15.8323,28.5214 z m 18.8137,-42.1708 c -2.7839,-1.943 -5.6709,-4.0763 -8.6345,-6.3737 1.4663,-1.2813 2.9263,-2.5825 4.378,-3.9022 1.9594,-0.093 3.9121,-0.2055 5.8549,-0.3363 -0.4712,3.72 -1.0039,7.2699 -1.5984,10.6122 z m 3.5699,-38.13854 c -0.014,1.26361 -0.4983,2.46936 -1.3701,3.38409 -1.6487,1.72992 -3.3475,3.47498 -5.1099,5.23749 -1.7625,1.76251 -3.5076,3.46106 -5.2376,5.10993 -0.9148,0.87182 -2.1206,1.35571 -3.384,1.37005 -3.7878,0.0429 -10.7429,0.043 -14.543,2.5e-4 -1.2883,-0.0145 -2.5122,-0.52143 -3.4333,-1.42218 -2.7124,-2.6518 -7.6165,-7.55591 -10.2681,-10.26807 -0.9009,-0.92127 -1.4077,-2.14514 -1.4223,-3.43353 -0.043,-3.79285 -0.043,-10.72821 0,-14.52106 0.015,-1.28839 0.5214,-2.51221 1.4223,-3.43353 2.6516,-2.7121 7.5557,-7.61621 10.2681,-10.26795 0.9211,-0.90075 2.145,-1.40765 3.4333,-1.42212 3.7928,-0.0427 10.7283,-0.0427 14.521,0 1.2884,0.0145 2.5122,0.52137 3.4334,1.42212 2.7124,2.65174 7.6164,7.55585 10.268,10.26795 0.9009,0.92132 1.4078,2.14514 1.4224,3.43353 0.043,3.80023 0.043,10.75507 -2e-4,14.54303 z m 39.5525,-69.21954 c 3.041,3.04126 0.7624,14.64495 -8.9725,31.36346 -6.1362,-1.24768 -12.635,-2.2605 -19.3549,-3.03546 -0.7749,-6.72003 -1.7879,-13.219 -3.0357,-19.35541 16.7183,-9.73492 28.3218,-12.01379 31.3631,-8.97259 z m -26.7915,76.49475 c 1.3198,-1.4516 2.621,-2.91162 3.9023,-4.37799 2.2974,2.9635 4.4307,5.85052 6.3738,8.63427 -3.3423,0.59461 -6.8924,1.12751 -10.6126,1.59851 0.1309,-1.94281 0.2432,-3.89526 0.3365,-5.85479 z m -0.3365,-34.97016 c 3.7202,0.47101 7.27,1.00391 10.6123,1.59839 -1.9428,2.78375 -4.0761,5.67084 -6.3735,8.6344 -1.2813,-1.46631 -2.5825,-2.92633 -3.9023,-4.37787 -0.093,-1.95959 -0.2056,-3.91211 -0.3365,-5.85492 z m 27.1284,82.34899 c -3.041,3.0411 -14.6447,0.7625 -31.3632,-8.9723 1.2475,-6.1363 2.2605,-12.6352 3.0354,-19.3551 6.7199,-0.7749 13.219,-1.7877 19.3554,-3.0355 9.7349,16.7183 12.0137,28.3217 8.9724,31.3629 z m -2.8669,-46.10399 c -3.4568,-5.22132 -7.3359,-10.53278 -11.5395,-15.83246 4.2038,-5.29974 8.083,-10.61139 11.5397,-15.83283 18.7051,4.93787 28.5215,11.53138 28.5215,15.83234 0,4.30097 -9.8164,10.89478 -28.5217,15.83295 z"
         id="path4366"
         style="fill:#d7e6ed;fill-opacity:1" />
      <path
         inkscape:connector-curvature="0"
         d="m 2593.3027,952.04999 c -9.2898,0 -16.8208,7.53094 -16.8208,16.82086 0,9.28992 7.531,16.82086 16.8208,16.82086 9.2901,0 16.8211,-7.53094 16.8211,-16.82086 0,-9.28992 -7.531,-16.82086 -16.8211,-16.82086 z"
         id="path4368"
         style="fill:#d7e6ed;fill-opacity:1" />
    </g>
  </g>
</svg>
