<?xml version="1.0" encoding="UTF-8" standalone="no"?>
<!-- Created with Inkscape (http://www.inkscape.org/) -->

<svg
   xmlns:dc="http://purl.org/dc/elements/1.1/"
   xmlns:cc="http://creativecommons.org/ns#"
   xmlns:rdf="http://www.w3.org/1999/02/22-rdf-syntax-ns#"
   xmlns:svg="http://www.w3.org/2000/svg"
   xmlns="http://www.w3.org/2000/svg"
   xmlns:sodipodi="http://sodipodi.sourceforge.net/DTD/sodipodi-0.dtd"
   xmlns:inkscape="http://www.inkscape.org/namespaces/inkscape"
   width="53.509335mm"
   height="53.509335mm"
   viewBox="0 0 53.509334 53.509335"
   version="1.1"
   id="svg795"
   inkscape:version="0.92.4 (f8dce91, 2019-08-02)"
   sodipodi:docname="advanced_military_algorithms.svg">
  <defs
     id="defs789" />
  <sodipodi:namedview
     id="base"
     pagecolor="#ffffff"
     bordercolor="#666666"
     borderopacity="1.0"
     inkscape:pageopacity="0.0"
     inkscape:pageshadow="2"
     inkscape:zoom="0.35"
     inkscape:cx="394.82019"
     inkscape:cy="-88.205703"
     inkscape:document-units="mm"
     inkscape:current-layer="layer1"
     showgrid="false"
     inkscape:window-width="446"
     inkscape:window-height="439"
     inkscape:window-x="1205"
     inkscape:window-y="767"
     inkscape:window-maximized="0" />
  <metadata
     id="metadata792">
    <rdf:RDF>
      <cc:Work
         rdf:about="">
        <dc:format>image/svg+xml</dc:format>
        <dc:type
           rdf:resource="http://purl.org/dc/dcmitype/StillImage" />
        <dc:title></dc:title>
      </cc:Work>
    </rdf:RDF>
  </metadata>
  <g
     inkscape:label="Layer 1"
     inkscape:groupmode="layer"
     id="layer1"
     transform="translate(-1.3704921,-11.510054)">
    <g
       transform="matrix(0.26458333,0,0,0.26458333,-739.93424,-443.34134)"
       id="g4462"
       style="fill:#e1561c;fill-opacity:1">
      <g
         id="g4458"
         style="fill:#e1561c;fill-opacity:1">
        <path
           inkscape:connector-curvature="0"
           d="m 2974.4019,1790.6234 v -41.88 h -41.8802 l -29.6198,-29.62 -29.6202,29.62 h -41.8798 v 41.88 l -29.6202,29.62 29.6202,29.62 v 41.88 h 41.8798 l 29.6202,29.62 29.6198,-29.62 h 41.8802 v -41.88 l 29.6198,-29.62 z m -16,52.61 v 32.51 h -32.5101 l -22.9899,22.99 -22.99,-22.99 h -32.51 v -32.51 l -22.99,-22.99 22.99,-22.99 v -32.51 h 32.51 l 22.99,-22.99 22.9899,22.99 h 32.5101 v 32.51 l 22.9899,22.99 z"
           id="path4456"
           style="fill:#e1561c;fill-opacity:1" />
      </g>
      <path
         inkscape:connector-curvature="0"
         d="m 2902.9019,1765.9005 c -21.5701,0 -39.0501,18.0501 -39.0501,40.32 0,13.81 6.72,26 16.97,33.26 v 29.17 h 11.1299 v -14.9599 h 3.8701 v 14.9599 h 7.0801 7.08 v -14.9599 h 3.8702 v 14.9599 h 11.1298 v -29.17 c 10.25,-7.26 16.97,-19.45 16.97,-33.26 0,-22.2699 -17.48,-40.32 -39.05,-40.32 z m -15.0201,57.87 c -5.54,0 -10.03,-3.8099 -10.03,-8.52 0,-4.7 4.49,-8.51 10.03,-8.51 5.5301,0 10.0201,3.81 10.0201,8.51 0,4.7101 -4.49,8.52 -10.0201,8.52 z m 15.0201,15.95 c -2.7901,0 -5.0501,-2.68 -5.0501,-5.98 0,-3.31 2.26,-5.99 5.0501,-5.99 2.79,0 5.05,2.68 5.05,5.99 0,3.3 -2.26,5.98 -5.05,5.98 z m 15.02,-15.95 c -5.5301,0 -10.02,-3.8099 -10.02,-8.52 0,-4.7 4.4899,-8.51 10.02,-8.51 5.54,0 10.03,3.81 10.03,8.51 0,4.7101 -4.49,8.52 -10.03,8.52 z"
         id="path4460"
         style="fill:#e1561c;fill-opacity:1" />
    </g>
  </g>
</svg>
