<?xml version="1.0" encoding="UTF-8" standalone="no"?>
<!-- Created with Inkscape (http://www.inkscape.org/) -->

<svg
   xmlns:dc="http://purl.org/dc/elements/1.1/"
   xmlns:cc="http://creativecommons.org/ns#"
   xmlns:rdf="http://www.w3.org/1999/02/22-rdf-syntax-ns#"
   xmlns:svg="http://www.w3.org/2000/svg"
   xmlns="http://www.w3.org/2000/svg"
   xmlns:sodipodi="http://sodipodi.sourceforge.net/DTD/sodipodi-0.dtd"
   xmlns:inkscape="http://www.inkscape.org/namespaces/inkscape"
   width="51.451111mm"
   height="54.699959mm"
   viewBox="0 0 51.451111 54.699959"
   version="1.1"
   id="svg1442"
   inkscape:version="0.92.4 (f8dce91, 2019-08-02)"
   sodipodi:docname="advanced_spaceflight.svg">
  <defs
     id="defs1436" />
  <sodipodi:namedview
     id="base"
     pagecolor="#ffffff"
     bordercolor="#666666"
     borderopacity="1.0"
     inkscape:pageopacity="0.0"
     inkscape:pageshadow="2"
     inkscape:zoom="0.35"
     inkscape:cx="37.230438"
     inkscape:cy="166.22716"
     inkscape:document-units="mm"
     inkscape:current-layer="layer1"
     showgrid="false"
     inkscape:window-width="696"
     inkscape:window-height="441"
     inkscape:window-x="1080"
     inkscape:window-y="709"
     inkscape:window-maximized="0" />
  <metadata
     id="metadata1439">
    <rdf:RDF>
      <cc:Work
         rdf:about="">
        <dc:format>image/svg+xml</dc:format>
        <dc:type
           rdf:resource="http://purl.org/dc/dcmitype/StillImage" />
        <dc:title></dc:title>
      </cc:Work>
    </rdf:RDF>
  </metadata>
  <g
     inkscape:label="Layer 1"
     inkscape:groupmode="layer"
     id="layer1"
     transform="translate(-95.98278,-138.11431)">
    <g
       transform="matrix(0.26458333,0,0,0.26458333,-728.26581,-616.48703)"
       id="g4872"
       style="fill:#d7e6ed;fill-opacity:1">
      <path
         inkscape:connector-curvature="0"
         d="m 3196.3503,3003.7866 12.0503,-34.9499 h 8.2002 l 12.0503,34.9499 c 10.2598,0 24.77,-18.1899 27.1397,-35.1499 l -39.0996,-12.53 c 22.08,-51.1001 10.7299,-93.3301 -0.9903,-100.0501 -0.3198,-2 -1.6299,-4.02 -3.2002,-4.02 -1.5703,0 -2.8803,2.02 -3.2002,4.02 -11.7202,6.72 -23.0703,48.95 -0.9902,100.0501 l -39.0996,12.53 c 2.3696,16.96 16.8799,35.1499 27.1396,35.1499 z"
         id="path4868"
         style="fill:#d7e6ed;fill-opacity:1" />
      <path
         style="fill:#d7e6ed;fill-opacity:1"
         d="m 3115.2703,2990.3967 79.8203,33.19 -72.8203,35.1899 83.4502,-26.3398 6.7802,25.6599 6.7803,-25.6599 83.4502,26.3398 -72.8203,-35.1899 79.8203,-33.19 -90.4502,20.3401 -6.7803,-25.6601 -6.7802,25.6601 z"
         id="polygon4870"
         inkscape:connector-curvature="0" />
    </g>
  </g>
</svg>
