<?xml version="1.0" encoding="UTF-8" standalone="no"?>
<!-- Generator: Adobe Illustrator 22.1.0, SVG Export Plug-In . SVG Version: 6.00 Build 0)  -->

<svg
   xmlns:dc="http://purl.org/dc/elements/1.1/"
   xmlns:cc="http://creativecommons.org/ns#"
   xmlns:rdf="http://www.w3.org/1999/02/22-rdf-syntax-ns#"
   xmlns:svg="http://www.w3.org/2000/svg"
   xmlns="http://www.w3.org/2000/svg"
   xmlns:sodipodi="http://sodipodi.sourceforge.net/DTD/sodipodi-0.dtd"
   xmlns:inkscape="http://www.inkscape.org/namespaces/inkscape"
   version="1.1"
   id="Layer_2_1_"
   x="0px"
   y="0px"
   viewBox="0 0 205.79999 209.64011"
   enable-background="new 0 0 3947.9399414 3860.8613281"
   xml:space="preserve"
   sodipodi:docname="applied_gravitonics.svg"
   inkscape:version="0.92.4 (5da689c313, 2019-01-14)"
   width="205.8"
   height="209.64011"><metadata
   id="metadata5465"><rdf:RDF><cc:Work
       rdf:about=""><dc:format>image/svg+xml</dc:format><dc:type
         rdf:resource="http://purl.org/dc/dcmitype/StillImage" /><dc:title></dc:title></cc:Work></rdf:RDF></metadata><defs
   id="defs5463" /><sodipodi:namedview
   pagecolor="#ffffff"
   bordercolor="#666666"
   borderopacity="1"
   objecttolerance="10"
   gridtolerance="10"
   guidetolerance="10"
   inkscape:pageopacity="0"
   inkscape:pageshadow="2"
   inkscape:window-width="1920"
   inkscape:window-height="1022"
   id="namedview5461"
   showgrid="false"
   inkscape:zoom="0.21212883"
   inkscape:cx="-2248.0339"
   inkscape:cy="1047.0105"
   inkscape:window-x="1079"
   inkscape:window-y="709"
   inkscape:window-maximized="1"
   inkscape:current-layer="Layer_2_1_" />



































































































































































<g
   id="g5244"
   style="fill:#90ae50;fill-opacity:1"
   transform="translate(-3109.6006,-2566.7959)">
	<g
   id="g5228"
   style="fill:#90ae50;fill-opacity:1">
		<polygon
   points="3264.5618,2690.3525 3212.5007,2776.436 3160.4395,2690.3525 3171.4165,2690.3525 3212.5007,2758.3032 3253.585,2690.3525 "
   id="polygon5220"
   style="fill:#90ae50;fill-opacity:1" />
		<polygon
   points="3250.489,2690.3525 3212.5007,2753.1604 3174.5125,2690.3525 3185.4893,2690.3525 3212.5007,2735.0276 3239.512,2690.3525 "
   id="polygon5222"
   style="fill:#90ae50;fill-opacity:1" />
		<polygon
   points="3236.416,2690.3525 3212.5007,2729.8931 3188.5852,2690.3525 3199.5537,2690.3525 3212.5007,2711.7605 3225.4478,2690.3525 "
   id="polygon5224"
   style="fill:#90ae50;fill-opacity:1" />
		<polygon
   points="3222.3433,2690.3525 3212.5007,2706.6174 3202.6582,2690.3525 "
   id="polygon5226"
   style="fill:#90ae50;fill-opacity:1" />
	</g>
	<g
   id="g5242"
   style="fill:#90ae50;fill-opacity:1">
		<path
   d="m 3212.5007,2566.7959 c -56.83,0 -102.9001,46.0701 -102.9001,102.9001 0,4.99 0.3601,9.8999 1.05,14.7 h 11.1302 c -0.7801,-4.79 -1.1802,-9.7 -1.1802,-14.7 0,-50.6799 41.2302,-91.9001 91.9001,-91.9001 50.68,0 91.8999,41.2202 91.8999,91.9001 0,5 -0.3999,9.91 -1.1799,14.7 h 11.1299 c 0.6902,-4.8001 1.05,-9.71 1.05,-14.7 0,-56.83 -46.0698,-102.9001 -102.8999,-102.9001 z"
   id="path5230"
   style="fill:#90ae50;fill-opacity:1"
   inkscape:connector-curvature="0" />
		<path
   d="m 3212.5007,2583.7959 c -47.3601,0 -85.9001,38.5303 -85.9001,85.9001 0,5.0101 0.4302,9.92 1.2602,14.7 h 11.19 c -0.9502,-4.76 -1.4502,-9.6699 -1.4502,-14.7 0,-41.3 33.6001,-74.9001 74.9001,-74.9001 41.3001,0 74.8999,33.6001 74.8999,74.9001 0,5.0301 -0.5,9.94 -1.4499,14.7 h 11.1899 c 0.8301,-4.78 1.26,-9.6899 1.26,-14.7 0,-47.3698 -38.53,-85.9001 -85.8999,-85.9001 z"
   id="path5232"
   style="fill:#90ae50;fill-opacity:1"
   inkscape:connector-curvature="0" />
		<path
   d="m 3212.5007,2600.7959 c -37.99,0 -68.9001,30.9001 -68.9001,68.9001 0,5.0401 0.55,9.96 1.5801,14.7 h 11.32 c -1.24,-4.7 -1.9001,-9.6201 -1.9001,-14.7 0,-31.9299 25.9802,-57.9001 57.9001,-57.9001 31.93,0 57.8999,25.9702 57.8999,57.9001 0,5.0799 -0.6599,10 -1.8999,14.7 h 11.3201 c 1.0298,-4.74 1.5798,-9.6599 1.5798,-14.7 0,-38 -30.9099,-68.9001 -68.8999,-68.9001 z"
   id="path5234"
   style="fill:#90ae50;fill-opacity:1"
   inkscape:connector-curvature="0" />
		<path
   d="m 3212.5007,2617.7959 c -28.6198,0 -51.9001,23.2803 -51.9001,51.9001 0,5.0999 0.7402,10.0401 2.1201,14.7 h 11.6101 c -1.76,-4.5698 -2.7302,-9.52 -2.7302,-14.7 0,-22.56 18.3501,-40.9001 40.9001,-40.9001 22.5501,0 40.8999,18.3401 40.8999,40.9001 0,5.18 -0.9699,10.1302 -2.7299,14.7 h 11.6101 c 1.3798,-4.6599 2.1198,-9.6001 2.1198,-14.7 0,-28.6198 -23.28,-51.9001 -51.8999,-51.9001 z"
   id="path5236"
   style="fill:#90ae50;fill-opacity:1"
   inkscape:connector-curvature="0" />
		<g
   id="g5240"
   style="fill:#90ae50;fill-opacity:1">
			<polygon
   points="3244.5908,2684.396 3180.4106,2684.396 3212.5007,2634.866 "
   id="polygon5238"
   style="fill:#90ae50;fill-opacity:1" />
		</g>
	</g>
</g>















</svg>