<?xml version="1.0" encoding="UTF-8" standalone="no"?>
<!-- Created with Inkscape (http://www.inkscape.org/) -->

<svg
   xmlns:dc="http://purl.org/dc/elements/1.1/"
   xmlns:cc="http://creativecommons.org/ns#"
   xmlns:rdf="http://www.w3.org/1999/02/22-rdf-syntax-ns#"
   xmlns:svg="http://www.w3.org/2000/svg"
   xmlns="http://www.w3.org/2000/svg"
   xmlns:sodipodi="http://sodipodi.sourceforge.net/DTD/sodipodi-0.dtd"
   xmlns:inkscape="http://www.inkscape.org/namespaces/inkscape"
   width="44.03297mm"
   height="46.596153mm"
   viewBox="0 0 44.03297 46.596153"
   version="1.1"
   id="svg795"
   inkscape:version="0.92.4 (f8dce91, 2019-08-02)"
   sodipodi:docname="applied_relativity.svg">
  <defs
     id="defs789" />
  <sodipodi:namedview
     id="base"
     pagecolor="#ffffff"
     bordercolor="#666666"
     borderopacity="1.0"
     inkscape:pageopacity="0.0"
     inkscape:pageshadow="2"
     inkscape:zoom="0.35"
     inkscape:cx="400.11281"
     inkscape:cy="-50.34618"
     inkscape:document-units="mm"
     inkscape:current-layer="layer1"
     showgrid="false"
     inkscape:window-width="446"
     inkscape:window-height="439"
     inkscape:window-x="1205"
     inkscape:window-y="767"
     inkscape:window-maximized="0" />
  <metadata
     id="metadata792">
    <rdf:RDF>
      <cc:Work
         rdf:about="">
        <dc:format>image/svg+xml</dc:format>
        <dc:type
           rdf:resource="http://purl.org/dc/dcmitype/StillImage" />
        <dc:title></dc:title>
      </cc:Work>
    </rdf:RDF>
  </metadata>
  <g
     inkscape:label="Layer 1"
     inkscape:groupmode="layer"
     id="layer1"
     transform="translate(0.02984702,-28.440233)">
    <path
       transform="matrix(0.26458333,0,0,0.26458333,-90.755074,-130.18503)"
       style="fill:#d7e6ed;fill-opacity:1"
       d="m 426.11044,754.38007 48.16999,-79.67005 h 12.86999 L 426.11044,775.64001 365.0704,674.71002 h 12.87 z"
       id="polygon3796"
       inkscape:connector-curvature="0" />
    <path
       transform="matrix(0.26458333,0,0,0.26458333,-90.755074,-130.18503)"
       style="fill:#d7e6ed;fill-opacity:1"
       d="m 426.11044,727.09003 31.66999,-52.38001 h 12.86999 l -44.53998,73.64002 -44.54004,-73.64002 h 12.87 z"
       id="polygon3798"
       inkscape:connector-curvature="0" />
    <path
       transform="matrix(0.26458333,0,0,0.26458333,-90.755074,-130.18503)"
       style="fill:#d7e6ed;fill-opacity:1"
       d="m 426.11044,699.81006 15.18,-25.10004 h 12.85998 l -28.03998,46.35999 -28.04004,-46.35999 h 12.85999 z"
       id="polygon3800"
       inkscape:connector-curvature="0" />
    <path
       transform="matrix(0.26458333,0,0,0.26458333,-90.755074,-130.18503)"
       style="fill:#d7e6ed;fill-opacity:1"
       d="M 426.11044,693.78003 414.5704,674.71002 h 23.08002 z"
       id="polygon3802"
       inkscape:connector-curvature="0" />
    <g
       transform="matrix(0.26458333,0,0,0.26458333,-90.755074,-130.18503)"
       id="g3816"
       style="fill:#d7e6ed;fill-opacity:1">
      <path
         style="fill:#d7e6ed;fill-opacity:1"
         d="m 354.98737,612.41528 h 10.29687 V 600.18335 H 342.8985 v 63.42969 h 23.17773 v -12.23145 h -11.08886 v -14.63086 h 9.50488 v -11.67041 h -9.50488 z"
         id="polygon3804"
         inkscape:connector-curvature="0" />
      <path
         style="fill:#d7e6ed;fill-opacity:1"
         d="m 368.85455,634.03149 h 34.84278 v 10.64063 h -34.84278 z"
         id="rect3806"
         inkscape:connector-curvature="0" />
      <path
         style="fill:#d7e6ed;fill-opacity:1"
         d="m 368.85455,618.75024 h 34.84278 v 10.64063 h -34.84278 z"
         id="rect3808"
         inkscape:connector-curvature="0" />
      <path
         style="fill:#d7e6ed;fill-opacity:1"
         d="m 418.77203,663.61304 v -45.87696 l 5.31885,45.87696 h 13.62744 l 6.29004,-46.41407 -0.31787,46.41407 h 11.08447 v -63.42969 h -18.4458 l -5.02392,45.71728 -5.02442,-45.71728 h -18.4458 v 63.42969 z"
         id="polygon3810"
         inkscape:connector-curvature="0" />
      <path
         inkscape:connector-curvature="0"
         d="m 474.79889,599.52856 h -4.17676 c -8.06445,0 -11.66064,4.83057 -11.66064,15.6626 v 35.19239 c 0,9.34326 3.81445,13.88476 11.66064,13.88476 h 4.17676 c 9.89795,0 13.09912,-3.646 13.17285,-15.00439 v -9.67579 h -11.729 v 10.32764 c 0,1.48633 -0.71192,2.12061 -2.38037,2.12061 -1.66797,0 -2.37989,-0.63428 -2.37989,-2.12061 v -35.9414 c 0,-1.57276 0.71045,-2.21436 2.45215,-2.21436 1.63965,0 2.30811,0.6416 2.30811,2.21436 v 8.64306 h 11.729 v -11.92334 c -0.0742,-8.04394 -3.64307,-11.06982 -13.17285,-11.16553 z"
         id="path3812"
         style="fill:#d7e6ed;fill-opacity:1" />
      <path
         inkscape:connector-curvature="0"
         d="m 498.8858,633.82251 c 0,-3.15088 0.69678,-4.19336 4.14991,-6.20166 6.05175,-3.6499 6.28662,-4.1665 6.28662,-13.81055 0,-7.2207 -0.3003,-9.51367 -1.46143,-11.15478 -1.23535,-1.73926 -3.46191,-2.48145 -7.44482,-2.48145 -6.64502,0 -9.00049,2.47608 -9.00049,9.4624 v 7.06788 h 7.75342 v -7.62061 c 0,-1.01953 0.3706,-1.21875 1.01123,-1.21875 0.48584,0 0.86963,0 0.86963,3.36719 v 4.41992 c 0,3.6958 -0.10206,3.8999 -2.73047,5.46289 -5.42774,3.21289 -7.18604,6.24023 -7.23438,12.46191 v 8.9712 h 18.0957 v -7.99805 H 498.8858 Z"
         id="path3814"
         style="fill:#d7e6ed;fill-opacity:1" />
    </g>
  </g>
</svg>
