<?xml version="1.0" encoding="UTF-8" standalone="no"?>
<!-- Created with Inkscape (http://www.inkscape.org/) -->

<svg
   xmlns:dc="http://purl.org/dc/elements/1.1/"
   xmlns:cc="http://creativecommons.org/ns#"
   xmlns:rdf="http://www.w3.org/1999/02/22-rdf-syntax-ns#"
   xmlns:svg="http://www.w3.org/2000/svg"
   xmlns="http://www.w3.org/2000/svg"
   xmlns:sodipodi="http://sodipodi.sourceforge.net/DTD/sodipodi-0.dtd"
   xmlns:inkscape="http://www.inkscape.org/namespaces/inkscape"
   width="54.957821mm"
   height="45.756447mm"
   viewBox="0 0 54.95782 45.756446"
   version="1.1"
   id="svg795"
   inkscape:version="0.92.4 (f8dce91, 2019-08-02)"
   sodipodi:docname="bio_engineering.svg">
  <defs
     id="defs789" />
  <sodipodi:namedview
     id="base"
     pagecolor="#ffffff"
     bordercolor="#666666"
     borderopacity="1.0"
     inkscape:pageopacity="0.0"
     inkscape:pageshadow="2"
     inkscape:zoom="0.35"
     inkscape:cx="194.91322"
     inkscape:cy="-4.0197287"
     inkscape:document-units="mm"
     inkscape:current-layer="layer1"
     showgrid="false"
     inkscape:window-width="446"
     inkscape:window-height="439"
     inkscape:window-x="1205"
     inkscape:window-y="767"
     inkscape:window-maximized="0" />
  <metadata
     id="metadata792">
    <rdf:RDF>
      <cc:Work
         rdf:about="">
        <dc:format>image/svg+xml</dc:format>
        <dc:type
           rdf:resource="http://purl.org/dc/dcmitype/StillImage" />
        <dc:title></dc:title>
      </cc:Work>
    </rdf:RDF>
  </metadata>
  <g
     inkscape:label="Layer 1"
     inkscape:groupmode="layer"
     id="layer1"
     transform="translate(14.083536,-41.537149)">
    <g
       transform="matrix(0.26458333,0,0,0.26458333,-918.49344,-116.84538)"
       id="g4530"
       style="fill:#e2bd4d;fill-opacity:1">
      <path
         inkscape:connector-curvature="0"
         d="m 3597.0967,598.61114 c -9.5801,0 -19.8499,27.62 -26,51.27997 -6.1699,-23.65997 -16.43,-51.27997 -26,-51.27997 -9.5801,0 -19.8499,27.62 -26,51.27997 -6.1699,-23.65997 -16.43,-51.27997 -26,-51.27997 -0.1699,0 -0.3499,0.01 -0.53,0.03 h -0.03 c -0.1799,0.02 -0.3598,0.05 -0.5398,0.09 -0.1801,0.03 -0.3501,0.08 -0.52,0.13001 -0.02,0.01 -0.03,0.01 -0.04,0.01 -0.1702,0.06 -0.3401,0.13001 -0.5,0.19001 -0.2,0.08 -0.4099,0.17999 -0.6001,0.27997 -0.3699,0.17999 -0.74,0.41998 -1.1099,0.67999 -0.1201,0.08 -0.24,0.16998 -0.3601,0.26001 -0.06,0.05 -0.1199,0.1 -0.2,0.15997 -0.1501,0.12006 -0.3,0.24005 -0.4499,0.38001 -0.1602,0.13 -0.3201,0.28003 -0.48,0.44 -0.06,0.05 -0.1101,0.10004 -0.1701,0.16003 -0.1099,0.1 -0.22,0.20996 -0.3299,0.32001 -0.1101,0.12 -0.2099,0.22998 -0.3201,0.34998 -0.2099,0.22998 -0.4399,0.47998 -0.6501,0.72998 -6.75,7.90002 -13.2698,25.66003 -17.9399,42.45001 -0.02,0.06 -0.03,0.10998 -0.05,0.16998 -1.8201,6.30005 -3.4602,12.59003 -4.8802,18.41004 -1.53,6.26001 -2.79,11.98999 -3.7199,16.58996 h 10.55 l 27.6399,-56.89996 c 0.6802,0.84997 1.3999,1.83996 2.1301,2.96997 l -26.1801,53.92999 h 7.1601 l 22.9099,-47.19995 c 0.6201,1.16998 1.23,2.39996 1.8401,3.64996 l -21.1702,43.54999 h 7.1702 l 17.4299,-35.86999 c 0.5501,1.33001 1.0901,2.68005 1.6202,4.04004 l -15.4703,31.82995 h 7.1702 l 11.3499,-23.36999 c 0.5,1.51001 0.9799,2.99005 1.4101,4.47003 l -9.1802,18.89996 h 18.7002 c 0,-1.15997 -0.1301,-2.68994 -0.33,-4.51996 l 25.4299,-52.38 c 0.6902,0.84997 1.4099,1.83996 2.1401,2.96997 l -26.1802,53.92999 h 7.1602 l 22.9099,-47.19995 c 0.6101,1.16998 1.23,2.39996 1.8401,3.64996 l -21.1702,43.54999 h 7.1702 l 17.4199,-35.86999 c 0.5601,1.33001 1.1001,2.68005 1.6199,4.04004 l -15.46,31.82995 h 7.1702 l 11.3398,-23.36999 c 0.5101,1.51001 0.99,2.99005 1.4202,4.47003 l -9.1802,18.89996 h 18.6902 c 0,-1.15997 -0.1201,-2.68994 -0.32,-4.51996 l 25.4299,-52.38 c 0.6902,0.84997 1.4099,1.83996 2.1401,2.96997 l -26.1902,53.92999 h 7.1702 l 22.9099,-47.19995 c 0.6101,1.16998 1.22,2.39996 1.8401,3.64996 l -21.1702,43.54999 h 7.1702 l 17.4199,-35.86999 c 0.5601,1.33001 1.1001,2.68005 1.6199,4.04004 l -15.46,31.82995 h 7.1602 l 11.3498,-23.36999 c 0.5101,1.51001 0.9803,2.99005 1.4202,4.47003 l -9.1802,18.89996 h 7.1602 l 4.51,-9.26996 c 0.72,3.46997 1.1699,6.65998 1.23,9.26996 h 3 v -18.5 c -5.3601,-24.98999 -17.5901,-63.32996 -28.8601,-63.32996 z m -127.8599,69.12 c 4.77,-19.33002 16.8399,-45.72998 23.1599,-47.66003 z m 53.3499,-2.78003 c -0.08,-0.42999 -0.17,-0.86999 -0.26,-1.29999 5.32,-18.77997 16.1801,-41.79998 22.07,-43.58001 z m 52,0 c -0.09,-0.42999 -0.17,-0.86999 -0.26,-1.29999 5.32,-18.77997 16.1801,-41.79998 22.07,-43.58001 z"
         id="path4522"
         style="fill:#e2bd4d;fill-opacity:1" />
      <path
         style="fill:#e2bd4d;fill-opacity:1"
         d="m 3433.74,645.55933 h -15.4978 l 23.0395,29.86657 23.0396,-29.86657 h -15.4978 V 601.44446 H 3433.74 Z"
         id="polygon4524"
         inkscape:connector-curvature="0" />
      <path
         inkscape:connector-curvature="0"
         d="m 3584.5222,689.71893 h -10.55 l -27.6399,56.89997 c -0.6802,-0.84998 -1.3999,-1.83997 -2.1302,-2.96997 l 26.1802,-53.93 h -7.1601 l -22.9099,47.19995 c -0.6202,-1.16998 -1.23,-2.39996 -1.8401,-3.64996 l 21.1701,-43.54999 h -7.1701 l -17.43,35.87 c -0.55,-1.33002 -1.0901,-2.68006 -1.6201,-4.04004 l 15.4702,-31.82996 h -7.1701 l -11.3499,23.37 c -0.5,-1.51001 -0.98,-2.99005 -1.4101,-4.47003 l 9.1801,-18.89997 h -18.7002 c 0,1.15998 0.1302,2.68994 0.3301,4.51996 l -25.4299,52.38001 c -0.6902,-0.84998 -1.4099,-1.83997 -2.1402,-2.96997 l 26.1802,-53.93 h -7.1601 l -22.9099,47.19995 c -0.6102,-1.16998 -1.23,-2.39996 -1.8401,-3.64996 l 21.1701,-43.54999 h -7.1701 l -17.42,35.86994 c -0.56,-1.33002 -1.1001,-2.68006 -1.6198,-4.04004 l 15.4599,-31.8299 h -7.1701 l -11.3399,23.36994 c -0.51,-1.51001 -0.99,-2.99005 -1.4201,-4.47003 l 9.1801,-18.89991 -18.6902,-6e-5 c 0,1.15998 0.1202,2.68994 0.3201,4.51996 l -25.4299,52.38001 c -0.6902,-0.84998 -1.4099,-1.83997 -2.1402,-2.96998 l 26.1902,-53.92999 h -7.1701 l -22.9099,47.19995 c -0.6102,-1.16998 -1.22,-2.39996 -1.8401,-3.64996 l 21.1701,-43.54999 h -7.1701 l -17.42,35.87 c -0.56,-1.33002 -1.1001,-2.68006 -1.6198,-4.04004 l 15.4599,-31.82996 h -7.1601 l -11.3499,23.37 c -0.51,-1.51001 -0.9802,-2.99005 -1.4201,-4.47003 l 9.1801,-18.89997 h -7.1601 l -4.51,9.26996 c -0.72,-3.46997 -1.17,-6.65997 -1.23,-9.26996 h -3 v 18.5 c 5.3601,24.98999 17.5901,63.32996 28.8601,63.32996 9.5801,0 19.8498,-27.62 26,-51.27997 6.1699,23.65997 16.4299,51.28003 26,51.28003 9.5801,0 19.8498,-27.62 26,-51.27997 6.1699,23.65997 16.4299,51.27997 26,51.27997 0.1699,0 0.3498,-0.01 0.53,-0.03 h 0.03 c 0.1799,-0.02 0.3598,-0.05 0.5397,-0.09 0.1802,-0.03 0.3501,-0.08 0.5201,-0.13 0.02,-0.01 0.03,-0.01 0.04,-0.01 0.1702,-0.06 0.3401,-0.13001 0.5,-0.19 0.2,-0.08 0.4099,-0.18 0.6001,-0.27997 0.3699,-0.17999 0.74,-0.41998 1.1099,-0.67999 0.1201,-0.08 0.24,-0.16999 0.3601,-0.26001 0.06,-0.05 0.1198,-0.1 0.1999,-0.15998 0.1502,-0.12005 0.3001,-0.24005 0.45,-0.38 0.1601,-0.13001 0.32,-0.28003 0.48,-0.44 0.06,-0.05 0.1101,-0.10004 0.1701,-0.16004 0.1099,-0.1 0.22,-0.20996 0.3299,-0.32001 0.1101,-0.11999 0.2099,-0.22998 0.32,-0.34997 0.21,-0.22998 0.44,-0.47998 0.6502,-0.72998 6.75,-7.90003 13.2697,-25.66004 17.9399,-42.45001 0.02,-0.06 0.03,-0.10999 0.05,-0.16999 1.8201,-6.30005 3.4602,-12.59002 4.8801,-18.41003 1.5301,-6.26001 2.7901,-11.98999 3.72,-16.58997 z m -136.72,60.36994 21.8101,-44.88001 c 0.09,0.42999 0.1699,0.87 0.26,1.29999 -5.3201,18.77997 -16.1802,41.79999 -22.0701,43.58002 z m 52,6e-5 21.8101,-44.88001 c 0.08,0.43 0.1699,0.87 0.26,1.29999 -5.3201,18.77997 -16.1802,41.79999 -22.0701,43.58002 z m 52,0 23.16,-47.66004 c -4.7701,19.33002 -16.8399,45.72998 -23.16,47.66004 z"
         id="path4526"
         style="fill:#e2bd4d;fill-opacity:1" />
      <path
         style="fill:#e2bd4d;fill-opacity:1"
         d="m 3610.459,724.60071 h 15.4978 l -23.0396,-29.86658 -23.0395,29.86658 h 15.4978 v 44.11487 h 15.0835 z"
         id="polygon4528"
         inkscape:connector-curvature="0" />
    </g>
  </g>
</svg>
