<?xml version="1.0" encoding="UTF-8" standalone="no"?>
<!-- Created with Inkscape (http://www.inkscape.org/) -->

<svg
   xmlns:dc="http://purl.org/dc/elements/1.1/"
   xmlns:cc="http://creativecommons.org/ns#"
   xmlns:rdf="http://www.w3.org/1999/02/22-rdf-syntax-ns#"
   xmlns:svg="http://www.w3.org/2000/svg"
   xmlns="http://www.w3.org/2000/svg"
   xmlns:sodipodi="http://sodipodi.sourceforge.net/DTD/sodipodi-0.dtd"
   xmlns:inkscape="http://www.inkscape.org/namespaces/inkscape"
   width="55.405682mm"
   height="48.908802mm"
   viewBox="0 0 55.405681 48.908802"
   version="1.1"
   id="svg795"
   inkscape:version="0.92.4 (f8dce91, 2019-08-02)"
   sodipodi:docname="bioadaptive_resonance.svg">
  <defs
     id="defs789" />
  <sodipodi:namedview
     id="base"
     pagecolor="#ffffff"
     bordercolor="#666666"
     borderopacity="1.0"
     inkscape:pageopacity="0.0"
     inkscape:pageshadow="2"
     inkscape:zoom="0.35"
     inkscape:cx="420.21526"
     inkscape:cy="-52.231061"
     inkscape:document-units="mm"
     inkscape:current-layer="layer1"
     showgrid="false"
     inkscape:window-width="446"
     inkscape:window-height="439"
     inkscape:window-x="1205"
     inkscape:window-y="767"
     inkscape:window-maximized="0" />
  <metadata
     id="metadata792">
    <rdf:RDF>
      <cc:Work
         rdf:about="">
        <dc:format>image/svg+xml</dc:format>
        <dc:type
           rdf:resource="http://purl.org/dc/dcmitype/StillImage" />
        <dc:title></dc:title>
      </cc:Work>
    </rdf:RDF>
  </metadata>
  <g
     inkscape:label="Layer 1"
     inkscape:groupmode="layer"
     id="layer1"
     transform="translate(5.3486222,-25.628878)">
    <g
       transform="matrix(0.26458333,0,0,0.26458333,-745.70522,-356.43647)"
       id="g4678"
       style="fill:#e1561c;fill-opacity:1">
      <path
         inkscape:connector-curvature="0"
         d="m 3002.4561,1526.1042 -16.2393,-12.2802 c -12.1397,-9.1797 -20.1797,-23.1065 -22.0605,-38.21 l -2.5157,-20.2021 c -0.5068,-4.0723 -2.8349,-7.583 -6.3877,-9.6348 -3.5527,-2.0508 -7.7597,-2.3115 -11.5361,-0.7158 l -18.7559,7.9238 c -14.0195,5.9238 -30.0996,5.9238 -44.1191,0 l -18.7539,-7.9238 c -3.7813,-1.5967 -7.9844,-1.336 -11.5381,0.7158 -3.5527,2.0518 -5.8818,5.5635 -6.3877,9.6348 l -2.5146,20.2031 c -1.8809,15.1025 -9.9209,29.0293 -22.0606,38.209 l -16.2392,12.2802 c -3.2725,2.4747 -5.1495,6.2461 -5.1495,10.3487 0,4.1025 1.877,7.874 5.1495,10.3486 l 16.2392,12.2803 c 12.1397,9.1797 20.1797,23.1064 22.0606,38.209 l 2.5146,20.2031 c 0.5059,4.0713 2.835,7.583 6.3877,9.6348 2.0147,1.163 4.2373,1.75 6.4746,1.75 1.709,0 3.4268,-0.3428 5.0635,-1.0342 l 18.7539,-7.9238 c 14.0195,-5.9239 30.0996,-5.9239 44.1191,0 l 18.7559,7.9238 c 3.7773,1.5947 7.9824,1.3359 11.5361,-0.7158 3.5528,-2.0518 5.8809,-5.5625 6.3877,-9.6338 l 2.5157,-20.2041 c 1.8808,-15.1026 9.9208,-29.0293 22.0605,-38.209 l 16.2393,-12.2803 c 3.2724,-2.4746 5.1494,-6.2461 5.1494,-10.3486 0,-4.1026 -1.877,-7.874 -5.1494,-10.3487 z m -3.6192,15.9122 -16.2392,12.2802 c -13.4239,10.1504 -22.3164,25.5518 -24.3946,42.253 l -2.5156,20.2041 c -0.2725,2.1884 -1.5244,4.0761 -3.4346,5.1787 -1.9101,1.1015 -4.1709,1.2441 -6.2011,0.3847 l -18.7549,-7.9238 c -15.5039,-6.5488 -33.2871,-6.5488 -48.791,0 l -18.753,7.9238 c -2.0351,0.8594 -4.2939,0.7168 -6.2031,-0.3847 -1.9102,-1.1026 -3.1621,-2.9903 -3.4346,-5.1787 l -2.5146,-20.2032 c -2.0781,-16.7021 -10.9697,-32.1035 -24.3945,-42.2539 l -16.2393,-12.2802 c -1.7598,-1.3301 -2.7686,-3.3584 -2.7686,-5.5635 0,-2.2051 1.0088,-4.2334 2.7686,-5.5635 l 16.2393,-12.2803 c 13.4248,-10.1504 22.3164,-25.5517 24.3945,-42.2539 l 2.5146,-20.2031 c 0.2725,-2.1885 1.5244,-4.0762 3.4346,-5.1787 1.083,-0.625 2.2783,-0.9414 3.4815,-0.9414 0.9179,0 1.8408,0.1846 2.7207,0.5566 l 18.7539,7.9239 c 15.5048,6.5507 33.288,6.5507 48.791,0 l 18.7549,-7.9239 c 2.0312,-0.8594 4.291,-0.7187 6.2011,0.3848 1.9102,1.1025 3.1621,2.9902 3.4346,5.1797 l 2.5156,20.2021 c 2.0781,16.7022 10.9707,32.1035 24.3946,42.2539 l 16.2392,12.2803 c 1.7598,1.3301 2.7686,3.3584 2.7686,5.5635 0,2.2051 -1.0088,4.2334 -2.7686,5.5635 z"
         id="path4672"
         style="fill:#e1561c;fill-opacity:1" />
      <path
         inkscape:connector-curvature="0"
         d="m 2982.0957,1528.7937 -12.9949,-9.8265 c -9.8813,-7.4726 -16.4267,-18.8083 -17.957,-31.1028 l -2.0125,-16.1673 c -0.3745,-3.0122 -2.0976,-5.6109 -4.727,-7.1286 -2.6304,-1.5188 -5.7417,-1.7096 -8.5388,-0.5294 l -15.0071,6.3407 c -11.4087,4.822 -24.5005,4.821 -35.9133,0 l -15.0081,-6.3407 c -2.7971,-1.1802 -5.9072,-0.9883 -8.5378,0.5294 -2.6292,1.5177 -4.3526,4.1153 -4.7281,7.1286 l -2.0124,16.1673 c -1.5303,12.2945 -8.0757,23.6313 -17.9561,31.1028 l -12.9958,9.8265 c -2.4214,1.8309 -3.8106,4.6227 -3.8106,7.6591 0,3.0365 1.3892,5.8282 3.8106,7.6591 l 12.9958,9.8266 c 9.8804,7.4714 16.4258,18.8082 17.9561,31.1028 l 2.0124,16.1672 c 0.3755,3.0133 2.0989,5.611 4.7281,7.1287 2.6284,1.5177 5.7397,1.7107 8.5378,0.5294 l 15.0081,-6.3407 c 11.4109,-4.82 24.5027,-4.82 35.9133,0 l 15.0071,6.3407 c 1.2119,0.5116 2.4826,0.7657 3.7483,0.7657 1.6548,0 3.3003,-0.4345 4.7905,-1.2951 2.6294,-1.5177 4.3525,-4.1165 4.727,-7.1287 l 2.0125,-16.1672 c 1.5303,-12.2946 8.0757,-23.6304 17.957,-31.1028 l 12.9949,-9.8266 c 2.4226,-1.8309 3.8115,-4.6226 3.8115,-7.6591 0,-3.0364 -1.3889,-5.8282 -3.8115,-7.6591 z m -1.9534,12.7343 -12.9948,9.8265 c -10.5765,7.9966 -17.5806,20.1287 -19.2185,33.2859 l -2.0123,16.1673 c -0.249,1.9965 -1.3901,3.7178 -3.1325,4.7229 -1.7422,1.0061 -3.8042,1.1349 -5.6572,0.3512 l -15.0071,-6.3408 c -6.1067,-2.5797 -12.6626,-3.8696 -19.2176,-3.8696 -6.5559,0 -13.1118,1.2899 -19.2185,3.8696 l -15.0083,6.3408 c -1.853,0.7837 -3.9138,0.654 -5.6562,-0.3501 -1.7424,-1.0062 -2.8845,-2.7275 -3.1336,-4.724 l -2.0122,-16.1673 c -1.6379,-13.1572 -8.6421,-25.2903 -19.2175,-33.2859 l -12.9958,-9.8265 c -1.6043,-1.2129 -2.524,-3.0628 -2.524,-5.0752 0,-2.0124 0.9197,-3.8622 2.524,-5.0751 l 12.9958,-9.8266 c 10.5754,-7.9956 17.5796,-20.1287 19.2175,-33.286 l 2.0122,-16.1672 c 0.2491,-1.9966 1.3912,-3.7178 3.1336,-4.724 1.7424,-1.0051 3.8032,-1.1338 5.6562,-0.3501 l 15.0083,6.3408 c 12.2144,5.1605 26.2237,5.1585 38.4361,0 l 15.0071,-6.3408 c 1.853,-0.7837 3.915,-0.655 5.6572,0.3512 1.7424,1.0051 2.8835,2.7263 3.1325,4.7229 l 2.0123,16.1672 c 1.6379,13.1573 8.642,25.2893 19.2185,33.286 l 12.9948,9.8266 c 1.6043,1.2139 2.5249,3.0627 2.5249,5.0751 0,2.0124 -0.9206,3.8612 -2.5249,5.0752 z"
         id="path4674"
         style="fill:#e1561c;fill-opacity:1" />
      <path
         inkscape:connector-curvature="0"
         d="m 2962.3154,1530.4929 -9.7199,-7.3501 c -7.3299,-5.54 -12.19,-13.9499 -13.3199,-23.0699 l -1.51,-12.09 c -0.08,-0.68 -0.25,-1.3401 -0.52,-1.9501 -0.3518,-0.8651 -1.3953,-1.9594 -2.2312,-2.7387 -0.6108,-0.5695 -1.5681,-0.5218 -2.1257,0.1 -0.3999,0.4461 -0.8394,0.9346 -1.1431,1.2688 -4.8088,5.2961 -9.2932,9.7355 -14.5276,13.4363 v 0 c -1.7229,1.219 -3.5227,2.3626 -5.4483,3.4248 -0.01,0 -0.01,0.01 -0.02,0.01 -2.1602,1.1901 -4.48,2.2901 -7.01,3.2901 -0.01,0.01 -0.02,0.01 -0.03,0.02 -0.47,0.18 -0.95,0.37 -1.44,0.5499 -1.9001,-0.6199 -3.75,-1.23 -5.55,-1.85 -3.0701,-1.0499 -6,-2.0999 -8.8001,-3.25 -0.9016,-0.3663 -1.7881,-0.7437 -2.665,-1.1311 v 0 c -5.5669,-2.4634 -10.6563,-5.3994 -15.3916,-9.502 -0.1634,-0.1416 -0.355,-0.3132 -0.5598,-0.4997 -0.8936,-0.8134 -2.336,-0.2859 -2.4954,0.9119 l -0.4248,3.1879 -0.8499,6.81 c -1.1301,9.12 -5.99,17.5299 -13.32,23.0699 l -9.72,7.3501 c -1.8801,1.43 -2.96,3.6 -2.96,5.96 0,2.36 1.0799,4.53 2.96,5.9599 l 9.72,7.3501 c 7.33,5.54 12.1899,13.95 13.32,23.07 l 1,8 0.4663,3.1288 c 0.1631,1.093 1.4126,1.639 2.3274,1.019 0.2566,-0.1738 0.4986,-0.3367 0.6963,-0.4678 4.9932,-3.3381 9.9588,-6.2014 14.992,-8.6738 l -0.01,-0.01 c 0.9626,-0.4736 1.9272,-0.9353 2.8955,-1.3796 3.1699,-1.46 6.3601,-2.75 9.6201,-3.9 l 0.01,-0.01 c 1.6197,-0.5816 3.2591,-1.1171 4.9182,-1.6187 4.2486,1.8227 8.0225,3.7331 11.4354,5.7893 l 0.015,-0.01 c 6.4504,3.8844 11.5596,8.3104 15.9011,13.7468 0.4307,0.5383 0.8535,1.0847 1.2681,1.6416 0.4411,0.5925 1.251,0.8132 1.8969,0.4551 0.045,-0.025 0.09,-0.051 0.1351,-0.077 1.08,-0.6201 1.9602,-1.49 2.6001,-2.51 0.57,-0.9 0.9399,-1.94 1.07,-3.04 l 1.51,-12.09 c 1.1299,-9.12 5.99,-17.53 13.3199,-23.07 l 9.7199,-7.3501 c 1.8802,-1.4299 2.9602,-3.5999 2.9602,-5.9599 0,-2.36 -1.08,-4.53 -2.9602,-5.96 z m -55.2199,-17.8901 c 0.1101,0.02 0.2102,0.04 0.31,0.06 l 0.4099,0.2801 15.9302,10.79 c -0.3301,0.53 -0.71,1.0599 -1.1301,1.57 l -19.0398,-12.9001 c 1.2197,-0.06 2.4099,0 3.5198,0.2 z m -7.3799,0.3301 21.1101,14.31 c -0.4602,0.45 -0.9702,0.8899 -1.5,1.31 l -22.0801,-14.96 c 0.8198,-0.25 1.6499,-0.4801 2.47,-0.66 z m -6.4002,28.6899 c 0.7202,-0.2999 1.4502,-0.58 2.2202,-0.83 l 22.5699,15.3001 c -0.5799,0.37 -1.19,0.74 -1.8101,1.1 z m 20.3601,16.9401 c -0.6899,0.3299 -1.3801,0.64 -2.0901,0.93 l -22.8498,-15.49 c 0.5901,-0.3701 1.21,-0.73 1.8498,-1.08 z m -13.3899,-23.32 c -1.1101,0.06 -2.2402,0.07 -3.4001,0.03 l -15.77,-10.68 c 0.1902,-0.52 0.52,-1.09 0.9699,-1.6801 z m -16.4001,-14.26 c 0.47,-0.43 0.99,-0.8601 1.54,-1.29 l 21.5701,14.62 c -0.8601,0.2 -1.76,0.37 -2.6802,0.52 z m 14.9202,18.8799 c 0.8598,-0.2 1.7597,-0.3699 2.6799,-0.5199 l 20.4299,13.85 c -0.4699,0.4299 -0.99,0.86 -1.54,1.29 z m 6.7199,-0.9299 c 1.0999,-0.06 2.23,-0.07 3.3899,-0.03 l 15.77,10.6801 c -0.1899,0.5199 -0.52,1.09 -0.9699,1.68 z m 4.75,-5.5501 -22.58,-15.2999 c 0.58,-0.37 1.1899,-0.74 1.82,-1.1 l 22.97,15.57 c -0.71,0.2999 -1.45,0.5799 -2.21,0.8299 z m -18.1401,-17.77 c 0.6799,-0.33 1.3701,-0.6399 2.0801,-0.9299 l 22.8498,15.49 c -0.5898,0.3699 -1.2099,0.7299 -1.8498,1.08 z m -10.1785,56.6501 v 0 c -3.232,1.6536 -6.4407,3.46 -9.6492,5.4526 -0.9331,0.5797 -2.1526,0.011 -2.2881,-1.0791 l -0.5188,-4.1777 c -1.23,-9.9201 -6.52,-19.0601 -14.49,-25.0901 l -9.7202,-7.3499 c -1.1299,-0.8601 -1.7698,-2.1601 -1.7698,-3.57 0,-1.4101 0.6399,-2.71 1.7698,-3.5701 l 9.7202,-7.35 c 7.97,-6.0299 13.26,-15.17 14.49,-25.0899 l 0.3023,-2.4033 c 0.1403,-1.116 1.4172,-1.689 2.3374,-1.0422 3.2446,2.2809 6.6328,4.1645 10.153,5.8283 l -0.01,0.01 c 4.6125,2.1789 9.4614,3.9682 14.5625,5.7019 l -13.0899,6.1601 c -0.2099,0.1 -0.4101,0.1899 -0.6201,0.29 l -0.5801,0.27 c -4.7099,2.25 -9.4199,4.7799 -10.0298,9.1099 0.6499,4.5 5.73,7.04 10.6399,9.3401 0.21,0.1 0.4099,0.1899 0.6199,0.29 l 6.9202,3.23 -6.44,3.02 c -0.4101,0.19 -0.82,0.3899 -1.2302,0.58 -4.6999,2.24 -9.3899,4.77 -10,9.0899 0.6301,4.3201 5.3201,6.8301 10.02,9.0501 0.4202,0.1999 0.8301,0.3899 1.2403,0.5799 l 13.0798,6.1 c -5.2678,1.8418 -10.3777,4.0347 -15.4285,6.6201 z m 16.7486,-10.69 c -0.1001,-0.02 -0.21,-0.04 -0.3101,-0.06 l -0.4099,-0.28 -15.9299,-10.79 c 0.3398,-0.5301 0.7099,-1.0601 1.1298,-1.5701 l 19.0401,12.9001 c -1.22,0.06 -2.3999,0 -3.52,-0.2 z m 7.3798,-0.33 -21.1098,-14.31 c 0.4599,-0.45 0.97,-0.8901 1.5,-1.3101 l 22.0801,14.9601 c -0.8201,0.25 -1.6502,0.48 -2.4703,0.66 z m 54.4202,-21.22 -9.72,7.3499 c -7.9702,6.03 -13.25,15.17 -14.4902,25.0901 0,0 -0.7092,5.6392 -1.1985,9.4265 -0.1655,1.2817 -1.7546,1.7546 -2.6145,0.7898 -3.551,-3.9839 -12.3117,-10.5394 -12.3117,-10.5394 -0.3089,-0.2041 -3.4144,-2.1503 -3.4144,-2.1503 -2.5046,-1.4698 -5.1977,-2.8674 -8.0996,-4.2136 l 13.3789,-6.293 c 0.21,-0.1001 0.41,-0.1901 0.6199,-0.29 l 0.5801,-0.27 c 4.71,-2.25 9.4199,-4.7801 10.03,-9.11 -0.6501,-4.5 -5.73,-7.04 -10.6401,-9.34 -0.2,-0.1001 -0.4099,-0.1901 -0.6199,-0.29 l -6.9202,-3.23 6.4402,-3.02 c 0.4099,-0.19 0.8199,-0.38 1.23,-0.5801 4.7,-2.24 9.3899,-4.7699 10,-9.0899 -0.6201,-4.32 -5.31,-6.83 -10.02,-9.05 -0.4099,-0.2 -0.8301,-0.39 -1.24,-0.5801 l -12.8801,-6 c 5.8528,-2.5261 10.6189,-5.5281 14.9839,-9.0686 v -2e-4 c 3.1451,-2.5511 6.0811,-5.3821 9.0572,-8.5251 0.8706,-0.9193 2.4201,-0.4145 2.5761,0.842 l 1.064,8.562 c 1.2402,9.9199 6.52,19.06 14.4902,25.0899 l 9.72,7.35 c 1.1299,0.8601 1.77,2.16 1.77,3.5701 0,1.4099 -0.6401,2.7099 -1.77,3.57 z"
         id="path4676"
         style="fill:#e1561c;fill-opacity:1" />
    </g>
  </g>
</svg>
