<?xml version="1.0" encoding="UTF-8" standalone="no"?>
<!-- Created with Inkscape (http://www.inkscape.org/) -->

<svg
   xmlns:dc="http://purl.org/dc/elements/1.1/"
   xmlns:cc="http://creativecommons.org/ns#"
   xmlns:rdf="http://www.w3.org/1999/02/22-rdf-syntax-ns#"
   xmlns:svg="http://www.w3.org/2000/svg"
   xmlns="http://www.w3.org/2000/svg"
   xmlns:sodipodi="http://sodipodi.sourceforge.net/DTD/sodipodi-0.dtd"
   xmlns:inkscape="http://www.inkscape.org/namespaces/inkscape"
   width="48.947918mm"
   height="48.947914mm"
   viewBox="0 0 48.947918 48.947914"
   version="1.1"
   id="svg6461"
   inkscape:version="0.92.4 (f8dce91, 2019-08-02)"
   sodipodi:docname="drawing.svg">
  <defs
     id="defs6455" />
  <sodipodi:namedview
     id="base"
     pagecolor="#ffffff"
     bordercolor="#666666"
     borderopacity="1.0"
     inkscape:pageopacity="0.0"
     inkscape:pageshadow="2"
     inkscape:zoom="0.35"
     inkscape:cx="121.07143"
     inkscape:cy="-233.21429"
     inkscape:document-units="mm"
     inkscape:current-layer="layer1"
     showgrid="false"
     inkscape:window-width="1920"
     inkscape:window-height="1022"
     inkscape:window-x="1079"
     inkscape:window-y="709"
     inkscape:window-maximized="1" />
  <metadata
     id="metadata6458">
    <rdf:RDF>
      <cc:Work
         rdf:about="">
        <dc:format>image/svg+xml</dc:format>
        <dc:type
           rdf:resource="http://purl.org/dc/dcmitype/StillImage" />
        <dc:title></dc:title>
      </cc:Work>
    </rdf:RDF>
  </metadata>
  <g
     inkscape:label="Layer 1"
     inkscape:groupmode="layer"
     id="layer1"
     transform="translate(-73.799852,-38.180804)">
    <path
       inkscape:connector-curvature="0"
       d="m 95.461713,45.59255 2.838979,14.782324 C 97.737156,59.866821 97.184097,59.324425 96.641754,58.744987 L 94.178457,45.936535 c 0.341339,-0.161423 0.775282,-0.277839 1.283256,-0.343985 z m 4.624517,33.950592 -3.190873,-16.599958 c -0.513291,-0.375761 -1.031848,-0.724958 -1.547838,-1.04775 l 3.368119,17.526 c 0.476223,0.06085 0.936651,0.103161 1.370592,0.121708 z m 1.91863,-16.366384 -3.368147,-17.526 c -0.476197,-0.06085 -0.936625,-0.103161 -1.370595,-0.121682 l 3.190902,16.599932 c 0.51326,0.375708 1.03185,0.724958 1.54784,1.04775 z M 93.490117,78.15408 89.883899,59.397741 c -0.476197,-0.142902 -0.949828,-0.267256 -1.41814,-0.370417 l 3.56915,18.565813 c 0.481647,0.201083 0.965729,0.388911 1.455208,0.560943 z m 20.185483,-30.897274 9.07217,3.271123 V 38.180804 H 110.3727 Z M 90.037357,76.653839 86.589784,58.715142 c -0.465614,-0.05297 -0.92075,-0.08469 -1.365171,-0.09263 l 3.296708,17.150318 c 0.486781,0.312182 0.994754,0.605896 1.516036,0.881009 z m -7.921651,-17.745551 2.48711,12.940745 0.06345,0.333375 c 0.03966,0.06085 0.07943,0.119062 0.121814,0.177244 0.444421,0.637699 0.986764,1.240949 1.605968,1.801839 L 83.420075,58.693949 c -0.449712,0.04763 -0.886328,0.119063 -1.304369,0.214339 z m 14.72139,20.195593 -3.524223,-18.34351 c -0.492072,-0.246115 -0.984171,-0.468312 -1.476402,-0.669395 l 3.587777,18.666354 c 0.476329,0.129646 0.949827,0.246036 1.412848,0.346551 z m 18.399524,-12.939977 -2.48706,-12.940744 -0.0635,-0.333375 c -0.0397,-0.06086 -0.0794,-0.119036 -0.12181,-0.177298 -0.44442,-0.637646 -0.98676,-1.240896 -1.606,-1.801786 l 2.974,15.467542 c 0.44971,-0.0476 0.88625,-0.119036 1.30432,-0.214339 z M 73.799852,74.254121 V 87.12872 h 13.266261 l -3.389339,-9.313307 z m 4.995306,-9.847791 c -0.105807,-0.291068 -0.214259,-0.584782 -0.317473,-0.881089 -1.203881,-3.35489 -2.259489,-6.842152 -0.468339,-9.236578 2.386568,-1.799167 5.879042,-0.751443 9.241896,0.441854 0.293767,0.103161 0.587428,0.209021 0.878496,0.314828 l 4.580599,1.65145 -1.788901,-4.912995 c -0.05297,-0.145495 -0.105807,-0.293661 -0.158776,-0.439209 -1.264656,-3.489827 -2.494942,-7.180765 -0.629682,-9.678405 2.394558,-1.801839 5.900288,-0.746151 9.268301,0.449792 l 0.412882,0.148167 c 0.148061,0.05292 0.293659,0.105806 0.439129,0.158723 l 9.85843,3.550682 -2.8347,-7.792746 H 73.799852 v 32.980285 l 8.580437,3.090387 z m 36.176872,-13.585587 3.58516,9.845119 c 0.10583,0.291068 0.21421,0.584729 0.31745,0.881089 1.2039,3.35489 2.25954,6.842099 0.46831,9.236578 -2.38654,1.799193 -5.87899,0.751443 -9.24182,-0.441828 -0.29379,-0.103214 -0.58742,-0.209047 -0.87849,-0.314854 l -4.58073,-1.65145 1.78903,4.912969 c 0.053,0.145521 0.10581,0.293714 0.15878,0.439235 1.26465,3.489827 2.49494,7.180765 0.62968,9.678405 -2.39456,1.801839 -5.90029,0.746152 -9.268302,-0.449765 l -0.412882,-0.148193 c -0.148061,-0.05289 -0.293661,-0.105807 -0.439129,-0.158697 l -9.858455,-3.550762 2.921027,8.030131 H 122.74777 V 53.621278 Z m -9.45615,14.1605 -3.58775,-18.666381 c -0.47633,-0.129645 -0.94983,-0.246036 -1.41285,-0.346604 l 3.5242,18.343563 c 0.4921,0.246062 0.98419,0.468339 1.4764,0.669422 z m -2.34199,14.154415 -2.46327,-12.808453 c -0.54234,-0.579464 -1.095399,-1.121834 -1.658935,-1.62986 l 2.838955,14.782297 c 0.508,-0.06615 0.94194,-0.182615 1.28325,-0.343984 z m 8.95387,-12.685978 -3.29671,-17.150291 c -0.48678,-0.312209 -0.99478,-0.605923 -1.51606,-0.881089 l 3.4476,17.93875 c 0.46562,0.05292 0.92075,0.08469 1.36517,0.09263 z m -3.24114,-0.404812 -3.56918,-18.565786 c -0.48162,-0.201083 -0.9657,-0.38899 -1.45521,-0.560943 l 3.60625,18.756286 c 0.47619,0.142875 0.9498,0.267229 1.41814,0.370443 z"
       id="path4670"
       style="fill:#d7e6ed;fill-opacity:1;stroke-width:0.26458332" />
  </g>
</svg>
