<?xml version="1.0" encoding="UTF-8" standalone="no"?>
<!-- Created with Inkscape (http://www.inkscape.org/) -->

<svg
   xmlns:dc="http://purl.org/dc/elements/1.1/"
   xmlns:cc="http://creativecommons.org/ns#"
   xmlns:rdf="http://www.w3.org/1999/02/22-rdf-syntax-ns#"
   xmlns:svg="http://www.w3.org/2000/svg"
   xmlns="http://www.w3.org/2000/svg"
   xmlns:sodipodi="http://sodipodi.sourceforge.net/DTD/sodipodi-0.dtd"
   xmlns:inkscape="http://www.inkscape.org/namespaces/inkscape"
   width="50.535416mm"
   height="50.535416mm"
   viewBox="0 0 50.535415 50.535413"
   version="1.1"
   id="svg795"
   inkscape:version="0.92.4 (f8dce91, 2019-08-02)"
   sodipodi:docname="biomachinery.svg">
  <defs
     id="defs789" />
  <sodipodi:namedview
     id="base"
     pagecolor="#ffffff"
     bordercolor="#666666"
     borderopacity="1.0"
     inkscape:pageopacity="0.0"
     inkscape:pageshadow="2"
     inkscape:zoom="0.35"
     inkscape:cx="1.2008802"
     inkscape:cy="223.11086"
     inkscape:document-units="mm"
     inkscape:current-layer="layer1"
     showgrid="false"
     inkscape:window-width="446"
     inkscape:window-height="439"
     inkscape:window-x="1205"
     inkscape:window-y="767"
     inkscape:window-maximized="0" />
  <metadata
     id="metadata792">
    <rdf:RDF>
      <cc:Work
         rdf:about="">
        <dc:format>image/svg+xml</dc:format>
        <dc:type
           rdf:resource="http://purl.org/dc/dcmitype/StillImage" />
        <dc:title></dc:title>
      </cc:Work>
    </rdf:RDF>
  </metadata>
  <g
     inkscape:label="Layer 1"
     inkscape:groupmode="layer"
     id="layer1"
     transform="translate(-37.169522,-96.853143)">
    <g
       transform="matrix(0.26458333,0,0,0.26458333,-132.2192,-734.91681)"
       id="g4822"
       style="fill:#e2bd4d;fill-opacity:1">
      <g
         id="g4772"
         style="fill:#e2bd4d;fill-opacity:1">
        <path
           inkscape:connector-curvature="0"
           d="m 705.06775,3230.2827 7.50976,39.0672 c 1.1084,0.7114 2.26563,1.3803 3.45313,2.007 l -7.85352,-40.8632 c -1.06054,-0.1207 -2.09716,-0.1929 -3.10937,-0.211 z"
           id="path4770"
           style="fill:#e2bd4d;fill-opacity:1" />
      </g>
      <g
         id="g4776"
         style="fill:#e2bd4d;fill-opacity:1">
        <path
           inkscape:connector-curvature="0"
           d="m 712.45056,3231.2048 8.13037,42.2918 c 1.09717,0.458 2.19971,0.886 3.31494,1.2778 l -8.21484,-42.7258 c -1.08447,-0.3255 -2.16357,-0.6087 -3.23047,-0.8438 z"
           id="path4774"
           style="fill:#e2bd4d;fill-opacity:1" />
      </g>
      <g
         id="g4780"
         style="fill:#e2bd4d;fill-opacity:1">
        <path
           inkscape:connector-curvature="0"
           d="m 720.12927,3233.6277 8.17237,42.5207 c 1.08496,0.2954 2.16357,0.5606 3.21826,0.7896 l -8.02783,-41.7854 c -1.12061,-0.5606 -2.2417,-1.0669 -3.3628,-1.5249 z"
           id="path4778"
           style="fill:#e2bd4d;fill-opacity:1" />
      </g>
      <g
         id="g4784"
         style="fill:#e2bd4d;fill-opacity:1">
        <path
           inkscape:connector-curvature="0"
           d="m 728.12683,3237.7383 7.67236,39.9231 c 1.08497,0.1384 2.13379,0.2348 3.12207,0.2771 l -7.26855,-37.8137 c -1.16895,-0.8558 -2.35059,-1.6514 -3.52588,-2.3865 z"
           id="path4782"
           style="fill:#e2bd4d;fill-opacity:1" />
      </g>
      <g
         id="g4788"
         style="fill:#e2bd4d;fill-opacity:1">
        <path
           inkscape:connector-curvature="0"
           d="m 743.29187,3240.657 -7.67236,-39.9231 c -1.08496,-0.1387 -2.13379,-0.2351 -3.12207,-0.2771 l 7.26855,37.8135 c 1.16943,0.8559 2.35059,1.6513 3.52588,2.3867 z"
           id="path4786"
           style="fill:#e2bd4d;fill-opacity:1" />
      </g>
      <g
         id="g4792"
         style="fill:#e2bd4d;fill-opacity:1">
        <path
           inkscape:connector-curvature="0"
           d="m 734.85388,3234.2744 -6.4668,-33.6731 c -1.15722,0.1507 -2.1455,0.4158 -2.92333,0.7835 l 5.61132,29.177 c 1.23535,1.3198 2.49512,2.5554 3.77881,3.7126 z"
           id="path4790"
           style="fill:#e2bd4d;fill-opacity:1" />
      </g>
      <g
         id="g4796"
         style="fill:#e2bd4d;fill-opacity:1">
        <path
           inkscape:connector-curvature="0"
           d="m 697.98572,3230.9336 5.66553,29.4783 0.14453,0.7595 c 0.0903,0.1384 0.18115,0.271 0.27734,0.4038 1.01221,1.4524 2.24805,2.8267 3.6582,4.1042 l -6.77441,-35.2341 c -1.02441,0.1087 -2.01904,0.2713 -2.97119,0.4883 z"
           id="path4794"
           style="fill:#e2bd4d;fill-opacity:1" />
      </g>
      <g
         id="g4800"
         style="fill:#e2bd4d;fill-opacity:1">
        <path
           inkscape:connector-curvature="0"
           d="m 736.56482,3244.1208 6.4668,33.6731 c 1.15722,-0.1508 2.14599,-0.416 2.92334,-0.7836 l -5.61133,-29.1768 c -1.23535,-1.3201 -2.49512,-2.5554 -3.77881,-3.7127 z"
           id="path4798"
           style="fill:#e2bd4d;fill-opacity:1" />
      </g>
      <g
         id="g4804"
         style="fill:#e2bd4d;fill-opacity:1">
        <path
           inkscape:connector-curvature="0"
           d="m 755.38806,3207.0381 7.85352,40.8635 c 1.06054,0.1204 2.09717,0.1929 3.10937,0.2109 l -7.50928,-39.0673 c -1.10888,-0.7112 -2.26611,-1.3802 -3.45361,-2.0071 z"
           id="path4802"
           style="fill:#e2bd4d;fill-opacity:1" />
      </g>
      <g
         id="g4808"
         style="fill:#e2bd4d;fill-opacity:1">
        <path
           inkscape:connector-curvature="0"
           d="m 831.20935,3251.8677 v -25.3401 h -19.58008 c -0.25976,-1.5801 -0.56982,-3.1399 -0.92969,-4.6799 l 18.08985,-7.49 -9.69043,-23.4102 -18.08984,7.5 c -0.84961,-1.3599 -1.73975,-2.6799 -2.66016,-3.97 l 13.85059,-13.8498 -17.91016,-17.9202 -13.86035,13.8601 c -1.29004,-0.9299 -2.60987,-1.82 -3.95996,-2.6599 l 7.49023,-18.0901 -23.3999,-9.6999 -7.49024,18.0898 c -1.5498,-0.3498 -3.10986,-0.6699 -4.68994,-0.9299 v -19.5801 h -25.33008 v 19.5801 c -1.58007,0.26 -3.13964,0.5801 -4.68994,0.9299 l -7.48974,-18.0898 -23.40039,9.6999 7.49023,18.0901 c -1.3501,0.8399 -2.66992,1.73 -3.95996,2.6599 l -13.86035,-13.8601 -17.90967,17.9202 13.8501,13.8498 c -0.91992,1.2901 -1.81006,2.6101 -2.66016,3.97 l -18.08984,-7.5 -9.69043,23.4102 18.09033,7.49 c -0.35986,1.54 -0.66992,3.0998 -0.93018,4.6799 h -19.58984 v 25.3401 h 19.58984 c 0.26026,1.5798 0.57032,3.1399 0.93018,4.6799 l -18.09033,7.49 9.69043,23.4099 18.08984,-7.49 c 0.8501,1.3501 1.74024,2.6702 2.66016,3.9602 l -13.8501,13.8499 17.90967,17.9201 13.86035,-13.8601 c 1.29004,0.93 2.60986,1.8201 3.95996,2.6599 l -7.49023,18.0901 23.40039,9.7 7.48974,-18.0899 c 1.5503,0.3499 3.10987,0.67 4.68994,0.93 v 19.5798 h 25.33008 v -19.5798 c 1.58008,-0.26 3.14014,-0.5801 4.68994,-0.93 l 7.49024,18.0899 23.3999,-9.7 -7.49023,-18.0901 c 1.35009,-0.8398 2.66992,-1.7299 3.95996,-2.6599 l 13.86035,13.8601 17.91016,-17.9201 -13.85059,-13.8499 c 0.92041,-1.29 1.81055,-2.6101 2.66016,-3.9602 l 18.08984,7.49 9.69043,-23.4099 -18.08985,-7.49 c 0.35987,-1.54 0.66993,-3.1001 0.92969,-4.6799 z m -38.83301,-32.3174 -19.5459,-7.0396 8.16651,22.4266 c 0.24121,0.663 0.48828,1.332 0.72314,2.007 2.74268,7.6424 5.14698,15.586 1.0669,21.0403 -5.43653,4.0987 -13.39209,1.7119 -21.05225,-1.0063 -0.66943,-0.2351 -1.33838,-0.4761 -2.00098,-0.7173 l -10.43457,-3.7617 4.0752,11.1914 c 0.12061,0.3313 0.24072,0.6689 0.36133,1.0005 2.88086,7.9494 5.68359,16.3571 1.43457,22.0468 -5.45459,4.1043 -13.44043,1.6995 -21.11231,-1.0246 l -0.94091,-0.3377 c -0.33741,-0.1203 -0.66895,-0.2409 -1,-0.3613 l -22.45704,-8.0884 6.65381,18.292 h -7.05127 l -7.7207,-21.2151 -22.49902,-8.1125 v -7.0457 l 19.54541,7.0398 -8.16651,-22.4267 c -0.24121,-0.6629 -0.48828,-1.3321 -0.72314,-2.0069 -2.74219,-7.6423 -5.14697,-15.5859 -1.0669,-21.0405 5.43653,-4.0984 13.39209,-1.7117 21.05225,1.0066 0.66943,0.2351 1.33838,0.4761 2.00146,0.7173 l 10.43409,3.7617 -4.0752,-11.1914 c -0.1206,-0.3316 -0.24072,-0.669 -0.36133,-1.0005 -2.88086,-7.9497 -5.68359,-16.3574 -1.43457,-22.0469 5.45459,-4.1045 13.44043,-1.6997 21.1128,1.0247 l 0.94043,0.3374 c 0.3374,0.1206 0.66894,0.241 1.00048,0.3616 l 22.45655,8.0883 -6.65381,-18.292 h 7.05176 l 7.7207,21.2151 22.49902,8.1123 z"
           id="path4806"
           style="fill:#e2bd4d;fill-opacity:1" />
      </g>
      <g
         id="g4812"
         style="fill:#e2bd4d;fill-opacity:1">
        <path
           inkscape:connector-curvature="0"
           d="m 767.62292,3217.2239 c -0.0903,-0.1387 -0.18066,-0.2713 -0.27734,-0.4038 -1.01221,-1.4524 -2.24756,-2.8267 -3.6582,-4.1045 l 6.77441,35.2341 c 1.02442,-0.1084 2.01904,-0.2712 2.97119,-0.488 l -5.66552,-29.4783 z"
           id="path4810"
           style="fill:#e2bd4d;fill-opacity:1" />
      </g>
      <g
         id="g4816"
         style="fill:#e2bd4d;fill-opacity:1">
        <path
           inkscape:connector-curvature="0"
           d="m 747.52283,3203.6208 8.21484,42.7256 c 1.08496,0.3257 2.16358,0.6089 3.23047,0.844 l -8.13037,-42.2917 c -1.09717,-0.458 -2.19971,-0.886 -3.31494,-1.2779 z"
           id="path4814"
           style="fill:#e2bd4d;fill-opacity:1" />
      </g>
      <g
         id="g4820"
         style="fill:#e2bd4d;fill-opacity:1">
        <path
           inkscape:connector-curvature="0"
           d="m 739.8988,3201.4573 8.02784,41.7854 c 1.12109,0.5605 2.24169,1.0666 3.36328,1.5246 l -8.17285,-42.5207 c -1.08497,-0.2952 -2.16358,-0.5603 -3.21827,-0.7893 z"
           id="path4818"
           style="fill:#e2bd4d;fill-opacity:1" />
      </g>
    </g>
  </g>
</svg>
