<?xml version="1.0" encoding="UTF-8" standalone="no"?>
<!-- Generator: Adobe Illustrator 22.1.0, SVG Export Plug-In . SVG Version: 6.00 Build 0)  -->

<svg
   xmlns:dc="http://purl.org/dc/elements/1.1/"
   xmlns:cc="http://creativecommons.org/ns#"
   xmlns:rdf="http://www.w3.org/1999/02/22-rdf-syntax-ns#"
   xmlns:svg="http://www.w3.org/2000/svg"
   xmlns="http://www.w3.org/2000/svg"
   xmlns:sodipodi="http://sodipodi.sourceforge.net/DTD/sodipodi-0.dtd"
   xmlns:inkscape="http://www.inkscape.org/namespaces/inkscape"
   version="1.1"
   id="Layer_2_1_"
   x="0px"
   y="0px"
   viewBox="0 0 207.38961 207.3999"
   enable-background="new 0 0 3947.9399414 3860.8613281"
   xml:space="preserve"
   sodipodi:docname="centauri_psi.svg"
   inkscape:version="0.92.4 (5da689c313, 2019-01-14)"
   width="207.3896"
   height="207.3999"><metadata
   id="metadata5465"><rdf:RDF><cc:Work
       rdf:about=""><dc:format>image/svg+xml</dc:format><dc:type
         rdf:resource="http://purl.org/dc/dcmitype/StillImage" /><dc:title></dc:title></cc:Work></rdf:RDF></metadata><defs
   id="defs5463" /><sodipodi:namedview
   pagecolor="#ffffff"
   bordercolor="#666666"
   borderopacity="1"
   objecttolerance="10"
   gridtolerance="10"
   guidetolerance="10"
   inkscape:pageopacity="0"
   inkscape:pageshadow="2"
   inkscape:window-width="1920"
   inkscape:window-height="1022"
   id="namedview5461"
   showgrid="false"
   inkscape:zoom="0.21212883"
   inkscape:cx="-2866.437"
   inkscape:cy="1047.778"
   inkscape:window-x="1079"
   inkscape:window-y="709"
   inkscape:window-maximized="1"
   inkscape:current-layer="Layer_2_1_" />





































































































































<g
   id="g4922"
   style="fill:#90ae50;fill-opacity:1"
   transform="translate(-3728.0037,-3135.4976)">
	<path
   d="m 3831.6936,3135.4976 c -57.27,0 -103.6899,46.4299 -103.6899,103.6999 0,57.27 46.4199,103.7 103.6899,103.7 57.27,0 103.6997,-46.43 103.6997,-103.7 0,-57.27 -46.4297,-103.6999 -103.6997,-103.6999 z m 0,191.3999 c -48.3501,0 -87.6899,-39.3399 -87.6899,-87.7 0,-48.3601 39.3398,-87.6999 87.6899,-87.6999 48.3599,0 87.6997,39.3398 87.6997,87.6999 0,48.3601 -39.3398,87.7 -87.6997,87.7 z"
   id="path4916"
   style="fill:#90ae50;fill-opacity:1"
   inkscape:connector-curvature="0" />
	<path
   d="m 3831.6936,3167.4976 c -39.5303,0 -71.6899,32.1699 -71.6899,71.6999 0,39.53 32.1596,71.7 71.6899,71.7 39.54,0 71.6997,-32.17 71.6997,-71.7 0,-39.53 -32.1597,-71.6999 -71.6997,-71.6999 z m 0,127.3999 c -30.7075,0 -55.6899,-24.9869 -55.6899,-55.7 0,-30.7129 24.9824,-55.6999 55.6899,-55.6999 30.7129,0 55.6997,24.987 55.6997,55.6999 0,30.7131 -24.9868,55.7 -55.6997,55.7 z"
   id="path4918"
   style="fill:#90ae50;fill-opacity:1"
   inkscape:connector-curvature="0" />
	<path
   d="m 3850.1301,3231.5623 20.3335,-20.3328 -10.7973,-10.7974 -20.3335,20.3335 V 3192.01 h -15.2701 v 28.7556 l -20.332,-20.3335 -10.7974,10.7974 20.3335,20.3328 h -28.7563 v 15.2697 h 28.7563 l -20.3335,20.3335 10.7974,10.7974 20.332,-20.3335 v 28.7556 h 15.2701 v -28.7556 l 20.3335,20.3335 10.7973,-10.7974 -20.3335,-20.3335 h 28.7564 v -15.2697 z m -18.4326,25.9824 c -10.1318,0 -18.3457,-8.2146 -18.3457,-18.3474 0,-10.1324 8.2139,-18.347 18.3457,-18.347 10.1338,0 18.3477,8.2146 18.3477,18.347 0,10.1328 -8.2139,18.3474 -18.3477,18.3474 z"
   id="path4920"
   style="fill:#90ae50;fill-opacity:1"
   inkscape:connector-curvature="0" />
</g>













































</svg>