<?xml version="1.0" encoding="UTF-8" standalone="no"?>
<!-- Created with Inkscape (http://www.inkscape.org/) -->

<svg
   xmlns:dc="http://purl.org/dc/elements/1.1/"
   xmlns:cc="http://creativecommons.org/ns#"
   xmlns:rdf="http://www.w3.org/1999/02/22-rdf-syntax-ns#"
   xmlns:svg="http://www.w3.org/2000/svg"
   xmlns="http://www.w3.org/2000/svg"
   xmlns:sodipodi="http://sodipodi.sourceforge.net/DTD/sodipodi-0.dtd"
   xmlns:inkscape="http://www.inkscape.org/namespaces/inkscape"
   width="55.08094mm"
   height="55.080933mm"
   viewBox="0 0 55.08094 55.080933"
   version="1.1"
   id="svg1454"
   inkscape:version="0.92.4 (f8dce91, 2019-08-02)"
   sodipodi:docname="centauri_genetics.svg">
  <defs
     id="defs1448" />
  <sodipodi:namedview
     id="base"
     pagecolor="#ffffff"
     bordercolor="#666666"
     borderopacity="1.0"
     inkscape:pageopacity="0.0"
     inkscape:pageshadow="2"
     inkscape:zoom="0.35"
     inkscape:cx="-7.3386091"
     inkscape:cy="138.37566"
     inkscape:document-units="mm"
     inkscape:current-layer="layer1"
     showgrid="false"
     inkscape:window-width="696"
     inkscape:window-height="821"
     inkscape:window-x="1121"
     inkscape:window-y="715"
     inkscape:window-maximized="0" />
  <metadata
     id="metadata1451">
    <rdf:RDF>
      <cc:Work
         rdf:about="">
        <dc:format>image/svg+xml</dc:format>
        <dc:type
           rdf:resource="http://purl.org/dc/dcmitype/StillImage" />
        <dc:title></dc:title>
      </cc:Work>
    </rdf:RDF>
  </metadata>
  <g
     inkscape:label="Layer 1"
     inkscape:groupmode="layer"
     id="layer1"
     transform="translate(-107.77501,-130.3643)">
    <g
       transform="matrix(0.26458333,0,0,0.26458333,22.573764,-699.13294)"
       id="g4668"
       style="fill:#90ae50;fill-opacity:1">
      <path
         inkscape:connector-curvature="0"
         d="m 451.96448,3169.1379 -26.40399,12.4092 -24.95881,-11.6396 -6.08224,6.0822 21.51724,10.0386 -26.34695,12.3936 c -0.38977,0.1819 -0.77979,0.364 -1.17465,0.551 l -1.10242,0.52 c -8.96744,4.2678 -17.9299,9.0818 -19.09451,17.3272 1.24255,8.5725 10.91198,13.4072 20.25387,17.7795 0.38999,0.1817 0.78491,0.3692 1.17493,0.5508 l 13.16812,6.1384 -12.24493,5.7554 c -0.77988,0.364 -1.56479,0.7329 -2.34476,1.1074 -8.95209,4.263 -17.87296,9.0664 -19.02704,17.2908 1.18539,8.2241 10.11136,13.0017 19.06866,17.2283 0.78507,0.3793 1.5752,0.7434 2.35498,1.1074 l 26.38837,12.2998 -22.93124,10.7873 6.07724,6.0772 26.40402,-12.4092 24.95877,11.6397 6.08228,-6.0823 -21.51728,-10.0386 26.34696,-12.3936 c 0.38977,-0.1818 0.77981,-0.364 1.17465,-0.551 l 1.10242,-0.52 c 8.96743,-4.2678 17.9299,-9.0818 19.09454,-17.3271 -1.24255,-8.5726 -10.91202,-13.4073 -20.25388,-17.7796 -0.39001,-0.1816 -0.78494,-0.3691 -1.17492,-0.5508 l -13.1684,-6.1382 12.24521,-5.7556 c 0.77985,-0.364 1.56476,-0.7329 2.34476,-1.1074 8.95205,-4.2629 17.8728,-9.0662 19.02688,-17.2905 -1.18527,-8.2244 -10.11123,-13.002 -19.06866,-17.2283 -0.78507,-0.3796 -1.57507,-0.7436 -2.35483,-1.1077 l -26.38852,-12.2998 22.93137,-10.7873 z m -59.10868,38.8028 41.05378,27.8178 c -1.64807,0.3797 -3.35321,0.7124 -5.09992,0.9827 l -38.88595,-26.3467 c 0.889,-0.8161 1.87689,-1.6377 2.93209,-2.4538 z m -6.35272,6.124 34.62302,23.4668 c -2.10541,0.1091 -4.25781,0.1299 -6.46195,0.057 L 384.6575,3217.262 c 0.35355,-0.9878 0.97745,-2.0691 1.84558,-3.1973 z m 31.62119,73.5652 c -0.19763,-0.031 -0.39017,-0.067 -0.58768,-0.1089 l -0.77966,-0.5303 -30.31345,-20.5398 c 0.63431,-1.0085 1.35178,-2.0068 2.14182,-2.9841 l 36.23474,24.5481 c -2.31876,0.1145 -4.5697,-0.01 -6.69577,-0.385 z m 14.04147,-0.6289 -40.17514,-27.2202 c 0.88879,-0.8575 1.84546,-1.6895 2.86429,-2.5003 l 42.02084,28.4729 c -1.56491,0.4837 -3.14004,0.9046 -4.70999,1.2476 z m 10.48038,-3.3269 -43.49179,-29.4663 c 1.12292,-0.7173 2.29782,-1.4036 3.51425,-2.0584 l 43.93893,29.7673 c -1.29971,0.6241 -2.61996,1.2061 -3.96139,1.7574 z m 8.94693,-4.3721 -43.72589,-29.6272 c 1.36224,-0.572 2.76577,-1.1023 4.21612,-1.5857 l 42.9668,29.1179 c -1.10733,0.7122 -2.26639,1.4136 -3.45703,2.095 z m 7.77197,-5.1624 -41.05377,-27.8178 c 1.64807,-0.3797 3.35321,-0.7124 5.09991,-0.9827 l 38.88596,26.3467 c -0.88901,0.8162 -1.87689,1.6377 -2.9321,2.4538 z m 6.35272,-6.124 -34.62301,-23.4668 c 2.10543,-0.1091 4.25784,-0.1299 6.46197,-0.057 l 30.00662,20.3267 c -0.35351,0.9878 -0.97744,2.0691 -1.84558,3.1972 z m -25.5802,-34.0244 -42.96679,-29.1179 c 1.10733,-0.7122 2.26638,-1.4136 3.45703,-2.095 l 43.72589,29.6272 c -1.36221,0.572 -2.76578,1.1023 -4.21613,1.5857 z m 9.41474,-4.0603 -43.93894,-29.7673 c 1.29968,-0.624 2.61994,-1.2061 3.96137,-1.7573 l 43.49179,29.4663 c -1.12293,0.7172 -2.29782,1.4035 -3.51422,2.0583 z m 7.81369,-5.1311 -42.02088,-28.4729 c 1.56491,-0.4836 3.14005,-0.9045 4.70999,-1.2476 l 40.17514,27.2203 c -0.88879,0.8574 -1.84545,1.6894 -2.86425,2.5002 z m 8.41125,-9.1702 c -0.63428,1.0086 -1.35165,2.0066 -2.14169,2.9839 l -36.23474,-24.5481 c 2.31875,-0.1145 4.5697,0.01 6.69577,0.385 0.19763,0.031 0.3902,0.067 0.58767,0.1089 l 0.77967,0.5303 z"
         id="path4664"
         style="fill:#90ae50;fill-opacity:1" />
      <path
         inkscape:connector-curvature="0"
         d="m 426.11053,3135.1077 c -57.39013,0 -104.09008,46.6899 -104.09008,104.0898 0,57.3901 46.69995,104.0901 104.09008,104.0901 57.39991,0 104.08985,-46.7 104.08985,-104.0901 0,-57.3999 -46.68994,-104.0898 -104.08985,-104.0898 z m 0,192.1799 c -48.6499,0 -88.09008,-39.4399 -88.09008,-88.0901 0,-48.6499 39.44018,-88.0898 88.09008,-88.0898 48.64991,0 88.08985,39.4399 88.08985,88.0898 0,48.6502 -39.43994,88.0901 -88.08985,88.0901 z"
         id="path4666"
         style="fill:#90ae50;fill-opacity:1" />
    </g>
  </g>
</svg>
