<?xml version="1.0" encoding="UTF-8" standalone="no"?>
<!-- Created with Inkscape (http://www.inkscape.org/) -->

<svg
   xmlns:dc="http://purl.org/dc/elements/1.1/"
   xmlns:cc="http://creativecommons.org/ns#"
   xmlns:rdf="http://www.w3.org/1999/02/22-rdf-syntax-ns#"
   xmlns:svg="http://www.w3.org/2000/svg"
   xmlns="http://www.w3.org/2000/svg"
   xmlns:sodipodi="http://sodipodi.sourceforge.net/DTD/sodipodi-0.dtd"
   xmlns:inkscape="http://www.inkscape.org/namespaces/inkscape"
   width="55.080959mm"
   height="55.080959mm"
   viewBox="0 0 55.080962 55.080961"
   version="1.1"
   id="svg883"
   inkscape:version="0.92.4 (f8dce91, 2019-08-02)"
   sodipodi:docname="centauri_empathy.svg">
  <defs
     id="defs877" />
  <sodipodi:namedview
     id="base"
     pagecolor="#ffffff"
     bordercolor="#666666"
     borderopacity="1.0"
     inkscape:pageopacity="0.0"
     inkscape:pageshadow="2"
     inkscape:zoom="0.35"
     inkscape:cx="408.53832"
     inkscape:cy="-23.995008"
     inkscape:document-units="mm"
     inkscape:current-layer="layer1"
     showgrid="false"
     inkscape:window-width="446"
     inkscape:window-height="440"
     inkscape:window-x="1255"
     inkscape:window-y="1048"
     inkscape:window-maximized="0" />
  <metadata
     id="metadata880">
    <rdf:RDF>
      <cc:Work
         rdf:about="">
        <dc:format>image/svg+xml</dc:format>
        <dc:type
           rdf:resource="http://purl.org/dc/dcmitype/StillImage" />
        <dc:title></dc:title>
      </cc:Work>
    </rdf:RDF>
  </metadata>
  <g
     inkscape:label="Layer 1"
     inkscape:groupmode="layer"
     id="layer1"
     transform="translate(57.329167,-32.38789)">
    <g
       transform="matrix(0.26458333,0,0,0.26458333,-224.44511,-346.59135)"
       id="g3922"
       style="fill:#90ae50;fill-opacity:1">
      <path
         inkscape:connector-curvature="0"
         d="m 735.71271,1604.5426 c 29.57995,-16.26 64.94,-47.87 64.91998,-78.55 -0.03,-36.58 -32.82001,-64.5101 -64.91998,-27.21 -32.11005,-37.3001 -64.89002,-9.37 -64.92005,27.21 -0.03,30.68 35.34003,62.29 64.92005,78.55 z"
         id="path3918"
         style="fill:#90ae50;fill-opacity:1" />
      <path
         inkscape:connector-curvature="0"
         d="m 735.70935,1432.3625 c -57.39001,0 -104.09003,46.69 -104.09003,104.09 0,57.39 46.70002,104.09 104.09003,104.09 57.39996,0 104.08997,-46.7 104.08997,-104.09 0,-57.4 -46.69001,-104.09 -104.08997,-104.09 z m 0,192.18 c -48.65002,0 -88.09003,-39.44 -88.09003,-88.09 0,-48.65 39.44001,-88.09 88.09003,-88.09 48.64996,0 88.08997,39.44 88.08997,88.09 0,48.65 -39.44001,88.09 -88.08997,88.09 z"
         id="path3920"
         style="fill:#90ae50;fill-opacity:1" />
    </g>
  </g>
</svg>
