<?xml version="1.0" encoding="UTF-8" standalone="no"?>
<!-- Generator: Adobe Illustrator 22.1.0, SVG Export Plug-In . SVG Version: 6.00 Build 0)  -->

<svg
   xmlns:dc="http://purl.org/dc/elements/1.1/"
   xmlns:cc="http://creativecommons.org/ns#"
   xmlns:rdf="http://www.w3.org/1999/02/22-rdf-syntax-ns#"
   xmlns:svg="http://www.w3.org/2000/svg"
   xmlns="http://www.w3.org/2000/svg"
   xmlns:sodipodi="http://sodipodi.sourceforge.net/DTD/sodipodi-0.dtd"
   xmlns:inkscape="http://www.inkscape.org/namespaces/inkscape"
   version="1.1"
   id="Layer_2_1_"
   x="0px"
   y="0px"
   viewBox="0 0 208.64699 208.6465"
   enable-background="new 0 0 3947.9399414 3860.8613281"
   xml:space="preserve"
   sodipodi:docname="controlled_singularity.svg"
   inkscape:version="0.92.4 (5da689c313, 2019-01-14)"
   width="208.647"
   height="208.6465"><metadata
   id="metadata5465"><rdf:RDF><cc:Work
       rdf:about=""><dc:format>image/svg+xml</dc:format><dc:type
         rdf:resource="http://purl.org/dc/dcmitype/StillImage" /><dc:title></dc:title></cc:Work></rdf:RDF></metadata><defs
   id="defs5463" /><sodipodi:namedview
   pagecolor="#ffffff"
   bordercolor="#666666"
   borderopacity="1"
   objecttolerance="10"
   gridtolerance="10"
   guidetolerance="10"
   inkscape:pageopacity="0"
   inkscape:pageshadow="2"
   inkscape:window-width="1920"
   inkscape:window-height="1022"
   id="namedview5461"
   showgrid="false"
   inkscape:zoom="0.21212883"
   inkscape:cx="-2556.2094"
   inkscape:cy="1897.886"
   inkscape:window-x="1079"
   inkscape:window-y="709"
   inkscape:window-maximized="1"
   inkscape:current-layer="Layer_2_1_" />








































































































































































<g
   id="g5304"
   style="fill:#e1561c;fill-opacity:1"
   transform="translate(-3417.7761,-3418.665)">
	<g
   id="g5282"
   style="fill:#e1561c;fill-opacity:1">
		<path
   d="m 3522.3616,3444.9871 c -43.1299,0 -78.0899,34.9599 -78.0899,78.09 0,43.1299 34.96,78.0899 78.0899,78.0899 43.1201,0 78.0801,-34.96 78.0801,-78.0899 0,-43.1301 -34.96,-78.09 -78.0801,-78.09 z m -24.5899,92.28 c -15.6201,-8.3401 -24.6801,-24.03 -30.0102,-39.26 9.5102,-20.6502 30.4101,-35.02 54.6001,-35.02 4.02,0 7.9399,0.3999 11.7397,1.1499 -24.1196,10.2302 -46.5898,30.8401 -36.3296,73.1301 z m 10.3799,-38.77 c 8.3501,-15.6201 24.0401,-24.69 39.2798,-30.02 20.6504,9.52 35.0103,30.4199 35.0103,54.6 0,4.0201 -0.4,7.95 -1.15,11.75 -8.4836,-20.0024 -24.1147,-38.8837 -53.322,-38.8847 -6.0127,-3e-4 -12.5986,0.7998 -19.8181,2.5547 z m 6.8399,42.04 c -0.3501,-9.6899 -8.0899,-15.73 -10.1001,-24.8301 9.6904,-0.3501 15.7402,-8.0898 24.8403,-10.0898 0.3398,9.6899 8.0801,15.7397 10.0898,24.8298 -9.6899,0.3501 -15.7299,8.0801 -24.83,10.0901 z m 7.3701,42.6299 c -4.02,0 -7.9497,-0.3999 -11.75,-1.1499 24.1201,-10.23 46.5898,-30.8401 36.3301,-73.1301 15.6098,8.3401 24.6801,24.02 30.0097,39.25 -9.5097,20.6601 -30.3999,35.03 -54.5898,35.03 z m -25.0801,-5.49 c -20.6499,-9.52 -35.0098,-30.4199 -35.0098,-54.5999 0,-4.02 0.3999,-7.9501 1.1499,-11.75 8.4837,20.0022 24.1148,38.8846 53.3221,38.8846 6.0126,0 12.5986,-0.7998 19.8181,-2.5547 -8.3501,15.6201 -24.0401,24.6902 -39.2803,30.02 z"
   id="path5280"
   style="fill:#e1561c;fill-opacity:1"
   inkscape:connector-curvature="0" />
	</g>
	<g
   id="g5286"
   style="fill:#e1561c;fill-opacity:1">
		<path
   d="m 3626.4231,3418.665 h -208.647 v 208.6465 h 208.647 z m -192.647,192.6465 V 3434.665 h 176.647 v 176.6465 z"
   id="path5284"
   style="fill:#e1561c;fill-opacity:1"
   inkscape:connector-curvature="0" />
	</g>
	<g
   id="g5290"
   style="fill:#e1561c;fill-opacity:1">
		<polygon
   points="3465.5188,3437.665 3436.5188,3437.665 3436.5188,3466.665 3465.5188,3466.665 "
   id="polygon5288"
   style="fill:#e1561c;fill-opacity:1" />
	</g>
	<g
   id="g5294"
   style="fill:#e1561c;fill-opacity:1">
		<polygon
   points="3607.4231,3437.665 3578.4231,3437.665 3578.4231,3466.665 3607.4231,3466.665 "
   id="polygon5292"
   style="fill:#e1561c;fill-opacity:1" />
	</g>
	<g
   id="g5298"
   style="fill:#e1561c;fill-opacity:1">
		<polygon
   points="3607.4231,3579.3115 3578.4231,3579.3115 3578.4231,3608.3115 3607.4231,3608.3115 "
   id="polygon5296"
   style="fill:#e1561c;fill-opacity:1" />
	</g>
	<g
   id="g5302"
   style="fill:#e1561c;fill-opacity:1">
		<polygon
   points="3465.7761,3579.3115 3436.7761,3579.3115 3436.7761,3608.3115 3465.7761,3608.3115 "
   id="polygon5300"
   style="fill:#e1561c;fill-opacity:1" />
	</g>
</g>










</svg>