<?xml version="1.0" encoding="UTF-8" standalone="no"?>
<!-- Created with Inkscape (http://www.inkscape.org/) -->

<svg
   xmlns:dc="http://purl.org/dc/elements/1.1/"
   xmlns:cc="http://creativecommons.org/ns#"
   xmlns:rdf="http://www.w3.org/1999/02/22-rdf-syntax-ns#"
   xmlns:svg="http://www.w3.org/2000/svg"
   xmlns="http://www.w3.org/2000/svg"
   xmlns:sodipodi="http://sodipodi.sourceforge.net/DTD/sodipodi-0.dtd"
   xmlns:inkscape="http://www.inkscape.org/namespaces/inkscape"
   width="50.535416mm"
   height="50.535416mm"
   viewBox="0 0 50.535415 50.535416"
   version="1.1"
   id="svg795"
   inkscape:version="0.92.4 (f8dce91, 2019-08-02)"
   sodipodi:docname="cyberethics.svg">
  <defs
     id="defs789" />
  <sodipodi:namedview
     id="base"
     pagecolor="#ffffff"
     bordercolor="#666666"
     borderopacity="1.0"
     inkscape:pageopacity="0.0"
     inkscape:pageshadow="2"
     inkscape:zoom="0.35"
     inkscape:cx="373.17731"
     inkscape:cy="-86.991437"
     inkscape:document-units="mm"
     inkscape:current-layer="layer1"
     showgrid="false"
     inkscape:window-width="446"
     inkscape:window-height="439"
     inkscape:window-x="1205"
     inkscape:window-y="767"
     inkscape:window-maximized="0" />
  <metadata
     id="metadata792">
    <rdf:RDF>
      <cc:Work
         rdf:about="">
        <dc:format>image/svg+xml</dc:format>
        <dc:type
           rdf:resource="http://purl.org/dc/dcmitype/StillImage" />
        <dc:title></dc:title>
      </cc:Work>
    </rdf:RDF>
  </metadata>
  <g
     inkscape:label="Layer 1"
     inkscape:groupmode="layer"
     id="layer1"
     transform="translate(-7.096836,-14.805247)">
    <g
       transform="matrix(0.26458333,0,0,0.26458333,-653.78012,-516.61942)"
       id="g4426"
       style="fill:#e2bd4d;fill-opacity:1">
      <path
         inkscape:connector-curvature="0"
         d="m 2637.541,2070.7493 h -38.8794 v -5.9532 c 0,-2.9497 -2.3064,-5.4809 -5.2556,-5.5363 -3.0054,-0.057 -5.4619,2.3652 -5.4619,5.3579 v 6.1316 h -38.8794 c -0.7576,0 -1.3718,0.614 -1.3718,1.3715 v 37.9329 c 0,9.3782 6.5752,16.9819 14.6821,16.9819 8.1116,0 14.6865,-7.6037 14.6865,-16.9819 v -10.9829 c 0,-0.7544 -0.6172,-1.3716 -1.3716,-1.3716 h -13.3195 c -0.7576,0 -1.3716,0.614 -1.3716,1.3716 v 6.0081 c 0,0.4665 0.3794,0.8505 0.8503,0.8505 h 7.8967 v 4.1243 c 0,5.24 -3.3745,9.6663 -7.3708,9.6663 -3.9917,0 -7.3662,-4.4263 -7.3662,-9.6663 v -31.1199 h 34.7505 v 18.5642 l -1.7925,1.3672 v 31.344 h -15.0615 v 11.4036 h -6.4334 c -0.7546,0 -1.3718,0.6172 -1.3718,1.3716 v 5.8254 h 56.4055 v -5.8254 c 0,-0.7544 -0.6174,-1.3716 -1.3718,-1.3716 h -6.4334 v -11.4036 h -15.0615 v -31.344 l -1.7925,-1.3672 v -18.5642 h 34.7505 v 31.1199 c 0,5.24 -3.3745,9.6663 -7.3662,9.6663 -3.9963,0 -7.3708,-4.4263 -7.3708,-9.6663 v -4.1243 h 7.8967 c 0.4709,0 0.8503,-0.384 0.8503,-0.8505 v -6.0081 c 0,-0.7576 -0.614,-1.3716 -1.3715,-1.3716 h -13.3196 c -0.7544,0 -1.3716,0.6172 -1.3716,1.3716 v 10.9829 c 0,9.3782 6.5749,16.9819 14.6865,16.9819 8.1069,0 14.6821,-7.6037 14.6821,-16.9819 v -37.9329 c 0,-0.7575 -0.6142,-1.3715 -1.3718,-1.3715 z"
         id="path4422"
         style="fill:#e2bd4d;fill-opacity:1" />
      <path
         inkscape:connector-curvature="0"
         d="m 2688.8027,2116.7043 v -25.34 h -19.5798 c -0.26,-1.5801 -0.5701,-3.1399 -0.9302,-4.68 l 18.0901,-7.49 -9.6899,-23.4101 -18.0901,7.5 c -0.8501,-1.3599 -1.74,-2.68 -2.6599,-3.97 l 13.8498,-13.85 -17.9099,-17.92 -13.8601,13.86 c -1.2898,-0.93 -2.6099,-1.82 -3.96,-2.6599 l 7.49,-18.0901 -23.3999,-9.7 -7.49,18.09 c -1.55,-0.35 -3.1101,-0.6701 -4.6899,-0.9301 v -19.5799 h -25.3301 v 19.5799 c -1.5801,0.26 -3.1401,0.5801 -4.6899,0.9301 l -7.49,-18.09 -23.4002,9.7 7.49,18.0901 c -1.3498,0.8399 -2.6699,1.7299 -3.9599,2.6599 l -13.8599,-13.86 -17.9101,17.92 13.8501,13.85 c -0.9202,1.29 -1.8101,2.6101 -2.6602,3.97 l -18.0898,-7.5 -9.69,23.4101 18.0899,7.49 c -0.3599,1.5401 -0.67,3.0999 -0.93,4.68 h -19.5901 v 25.34 h 19.5901 c 0.26,1.5799 0.5701,3.1399 0.93,4.68 l -18.0899,7.49 9.69,23.4099 18.0898,-7.49 c 0.8501,1.3501 1.74,2.6702 2.6602,3.9602 l -13.8501,13.8498 17.9101,17.9202 13.8599,-13.8601 c 1.29,0.9299 2.6101,1.8201 3.9599,2.6599 l -7.49,18.0901 23.4002,9.7 7.49,-18.0899 c 1.5498,0.3499 3.1098,0.6699 4.6899,0.9299 v 19.5799 h 25.3301 v -19.5799 c 1.5798,-0.26 3.1399,-0.58 4.6899,-0.9299 l 7.49,18.0899 23.3999,-9.7 -7.49,-18.0901 c 1.3501,-0.8398 2.6702,-1.73 3.96,-2.6599 l 13.8601,13.8601 17.9099,-17.9202 -13.8498,-13.8498 c 0.9199,-1.29 1.8098,-2.6101 2.6599,-3.9602 l 18.0901,7.49 9.6899,-23.4099 -18.0901,-7.49 c 0.3601,-1.5401 0.6702,-3.1001 0.9302,-4.68 z m -95.5,46.7 c -32.79,0 -59.3698,-26.5801 -59.3698,-59.3701 0,-32.7898 26.5798,-59.37 59.3698,-59.37 32.8001,0 59.3802,26.5802 59.3802,59.37 0,32.79 -26.5801,59.3701 -59.3802,59.3701 z"
         id="path4424"
         style="fill:#e2bd4d;fill-opacity:1" />
    </g>
  </g>
</svg>
