<?xml version="1.0" encoding="UTF-8" standalone="no"?>
<!-- Generator: Adobe Illustrator 22.1.0, SVG Export Plug-In . SVG Version: 6.00 Build 0)  -->

<svg
   xmlns:dc="http://purl.org/dc/elements/1.1/"
   xmlns:cc="http://creativecommons.org/ns#"
   xmlns:rdf="http://www.w3.org/1999/02/22-rdf-syntax-ns#"
   xmlns:svg="http://www.w3.org/2000/svg"
   xmlns="http://www.w3.org/2000/svg"
   xmlns:sodipodi="http://sodipodi.sourceforge.net/DTD/sodipodi-0.dtd"
   xmlns:inkscape="http://www.inkscape.org/namespaces/inkscape"
   version="1.1"
   id="Layer_2_1_"
   x="0px"
   y="0px"
   viewBox="0 0 207.27999 201.92992"
   enable-background="new 0 0 3947.9399414 3860.8613281"
   xml:space="preserve"
   sodipodi:docname="digital_sentience.svg"
   inkscape:version="0.92.4 (5da689c313, 2019-01-14)"
   width="207.28"
   height="201.92992"><metadata
   id="metadata5465"><rdf:RDF><cc:Work
       rdf:about=""><dc:format>image/svg+xml</dc:format><dc:type
         rdf:resource="http://purl.org/dc/dcmitype/StillImage" /><dc:title></dc:title></cc:Work></rdf:RDF></metadata><defs
   id="defs5463" /><sodipodi:namedview
   pagecolor="#ffffff"
   bordercolor="#666666"
   borderopacity="1"
   objecttolerance="10"
   gridtolerance="10"
   guidetolerance="10"
   inkscape:pageopacity="0"
   inkscape:pageshadow="2"
   inkscape:window-width="1920"
   inkscape:window-height="1022"
   id="namedview5461"
   showgrid="false"
   inkscape:zoom="0.21212883"
   inkscape:cx="-699.29939"
   inkscape:cy="-659.58971"
   inkscape:window-x="1079"
   inkscape:window-y="709"
   inkscape:window-maximized="1"
   inkscape:current-layer="Layer_2_1_" />









































<g
   id="g4078"
   style="fill:#d7e6ed;fill-opacity:1"
   transform="translate(-1560.8661,-867.90588)">
	<path
   d="m 1748.7762,903.15588 c -16.9101,-17.70001 -47.76,-34.36999 -84.27,-35.25 -36.51,0.88001 -67.3601,17.54999 -84.27,35.25 -5.49,5.73999 -10.78,13.66999 -10.78,21.54999 0,10.92999 9,21.81 18.6899,30.01001 9.6801,8.19 20.0601,13.71002 22.8101,13.89002 v -30.19001 c -2.14,-1.77002 -4.48,-4.28997 -6.26,-6.67999 -0.63,-0.85004 -1.35,-2.06 -1.92,-3.32001 -0.57,-1.27002 -0.9799,-2.59002 -0.9799,-3.64001 0,-2.09998 0.6399,-4.16998 1.8999,-5.84998 4.16,-5.54004 12.82,-12.79998 25.27,-18.09002 -7.02,8.19 -11.27,18.82 -11.27,30.45001 0,25.84997 20.9599,46.81 46.81,46.81 25.85,0 46.81,-20.96003 46.81,-46.81 0,-11.63001 -4.25,-22.26001 -11.2699,-30.45001 12.4499,5.29004 21.1098,12.54998 25.2699,18.09002 1.26,1.68 1.9,3.75 1.9,5.84998 0,1.04999 -0.41,2.36999 -0.98,3.64001 -0.5701,1.26001 -1.29,2.46997 -1.92,3.32001 -1.7799,2.39002 -4.12,4.90997 -6.26,6.67999 v 30.19001 c 2.75,-0.18 13.13,-5.70002 22.8099,-13.89002 9.6901,-8.20001 18.6901,-19.08002 18.6901,-30.01001 0,-7.88 -5.29,-15.81 -10.78,-21.54999 z m -84.27,40.63001 c -6.9,0 -12.5,-5.59998 -12.5,-12.5 0,-6.90003 5.6,-12.5 12.5,-12.5 6.8999,0 12.5,5.59997 12.5,12.5 0,6.90002 -5.6001,12.5 -12.5,12.5 z"
   id="path4068"
   style="fill:#d7e6ed;fill-opacity:1"
   inkscape:connector-curvature="0" />
	<path
   d="m 1744.5662,974.61591 c -3.9401,0 -23.58,1.59997 -23.58,33.11999 v 28.9699 c 0,31.53 19.6399,33.13 23.58,33.13 3.94,0 23.5799,-1.6 23.5799,-33.13 v -28.9699 c 0,-31.52002 -19.6399,-33.11999 -23.5799,-33.11999 z m 7.5799,62.08989 c 0,9.47 -2.2999,17.13 -7.5799,17.13 -5.29,0 -7.58,-7.66 -7.58,-17.13 v -28.9699 c 0,-9.46997 2.29,-17.11999 7.58,-17.11999 5.28,0 7.5799,7.65002 7.5799,17.11999 z"
   id="path4070"
   style="fill:#d7e6ed;fill-opacity:1"
   inkscape:connector-curvature="0" />
	<path
   d="m 1707.0862,974.71588 v 93.88992 h -16.13 v -73.38992 c 0,0 -7.9,6.00002 -15.88,6.13002 v -20.51002 c 7.19,-0.15003 15.88,-6.12 15.88,-6.12 z"
   id="path4072"
   style="fill:#d7e6ed;fill-opacity:1"
   inkscape:connector-curvature="0" />
	<path
   d="m 1584.4462,974.61591 c -3.94,0 -23.5801,1.59997 -23.5801,33.11999 v 28.9699 c 0,31.53 19.6401,33.13 23.5801,33.13 3.9399,0 23.58,-1.6 23.58,-33.13 v -28.9699 c 0,-31.52002 -19.6401,-33.11999 -23.58,-33.11999 z m 7.58,62.08989 c 0,9.47 -2.29,17.13 -7.58,17.13 -5.2801,0 -7.5801,-7.66 -7.5801,-17.13 v -28.9699 c 0,-9.46997 2.3,-17.11999 7.5801,-17.11999 5.29,0 7.58,7.65002 7.58,17.11999 z"
   id="path4074"
   style="fill:#d7e6ed;fill-opacity:1"
   inkscape:connector-curvature="0" />
	<path
   d="m 1621.9261,974.71588 v 93.88992 h 16.1301 v -73.38992 c 0,0 7.9,6.00002 15.88,6.13002 v -20.51002 c -7.1901,-0.15003 -15.88,-6.12 -15.88,-6.12 z"
   id="path4076"
   style="fill:#d7e6ed;fill-opacity:1"
   inkscape:connector-curvature="0" />
</g>









































































































































</svg>