<?xml version="1.0" encoding="UTF-8" standalone="no"?>
<!-- Created with Inkscape (http://www.inkscape.org/) -->

<svg
   xmlns:dc="http://purl.org/dc/elements/1.1/"
   xmlns:cc="http://creativecommons.org/ns#"
   xmlns:rdf="http://www.w3.org/1999/02/22-rdf-syntax-ns#"
   xmlns:svg="http://www.w3.org/2000/svg"
   xmlns="http://www.w3.org/2000/svg"
   xmlns:sodipodi="http://sodipodi.sourceforge.net/DTD/sodipodi-0.dtd"
   xmlns:inkscape="http://www.inkscape.org/namespaces/inkscape"
   width="53.509335mm"
   height="53.509335mm"
   viewBox="0 0 53.509334 53.509335"
   version="1.1"
   id="svg795"
   inkscape:version="0.92.4 (f8dce91, 2019-08-02)"
   sodipodi:docname="doctrine_initiative.svg">
  <defs
     id="defs789" />
  <sodipodi:namedview
     id="base"
     pagecolor="#ffffff"
     bordercolor="#666666"
     borderopacity="1.0"
     inkscape:pageopacity="0.0"
     inkscape:pageshadow="2"
     inkscape:zoom="0.35"
     inkscape:cx="382.86875"
     inkscape:cy="-74.442885"
     inkscape:document-units="mm"
     inkscape:current-layer="layer1"
     showgrid="false"
     inkscape:window-width="446"
     inkscape:window-height="439"
     inkscape:window-x="1205"
     inkscape:window-y="767"
     inkscape:window-maximized="0" />
  <metadata
     id="metadata792">
    <rdf:RDF>
      <cc:Work
         rdf:about="">
        <dc:format>image/svg+xml</dc:format>
        <dc:type
           rdf:resource="http://purl.org/dc/dcmitype/StillImage" />
        <dc:title></dc:title>
      </cc:Work>
    </rdf:RDF>
  </metadata>
  <g
     inkscape:label="Layer 1"
     inkscape:groupmode="layer"
     id="layer1"
     transform="translate(-4.5326425,-15.151468)">
    <g
       transform="matrix(0.26458333,0,0,0.26458333,-327.19855,-289.52727)"
       id="g4090"
       style="fill:#90ae50;fill-opacity:1">
      <path
         inkscape:connector-curvature="0"
         d="m 1426.4072,1223.0417 v -41.88 h -41.88 l -29.62,-29.62 -29.62,29.62 h -41.88 v 41.88 l -29.62,29.62 29.62,29.62 v 41.88 h 41.88 l 29.62,29.62 29.62,-29.62 h 41.88 v -41.88 l 29.62,-29.62 z m -16,52.61 v 32.51 h -32.51 l -22.99,22.99 -22.99,-22.99 h -32.51 v -32.51 l -22.99,-22.99 22.99,-22.9899 v -32.5101 h 32.51 l 22.99,-22.9899 22.99,22.9899 h 32.51 v 32.5101 l 22.99,22.9899 z"
         id="path4086"
         style="fill:#90ae50;fill-opacity:1" />
      <path
         inkscape:connector-curvature="0"
         d="m 1354.9072,1198.3619 c -29.989,0 -54.2998,24.311 -54.2998,54.2998 0,29.9891 24.3108,54.2998 54.2998,54.2998 29.989,0 54.2998,-24.3107 54.2998,-54.2998 0,-29.9888 -24.3108,-54.2998 -54.2998,-54.2998 z m 24.2796,93.8435 -21.1197,-21.1196 -24.7431,24.7432 -20.8806,-20.8809 24.7431,-24.7431 -21.1198,-21.1197 74.1085,-10.9883 z"
         id="path4088"
         style="fill:#90ae50;fill-opacity:1" />
    </g>
  </g>
</svg>
