<?xml version="1.0" encoding="UTF-8" standalone="no"?>
<!-- Created with Inkscape (http://www.inkscape.org/) -->

<svg
   xmlns:dc="http://purl.org/dc/elements/1.1/"
   xmlns:cc="http://creativecommons.org/ns#"
   xmlns:rdf="http://www.w3.org/1999/02/22-rdf-syntax-ns#"
   xmlns:svg="http://www.w3.org/2000/svg"
   xmlns="http://www.w3.org/2000/svg"
   xmlns:sodipodi="http://sodipodi.sourceforge.net/DTD/sodipodi-0.dtd"
   xmlns:inkscape="http://www.inkscape.org/namespaces/inkscape"
   width="53.509331mm"
   height="53.509331mm"
   viewBox="0 0 53.509331 53.509331"
   version="1.1"
   id="svg6608"
   inkscape:version="0.92.4 (f8dce91, 2019-08-02)"
   sodipodi:docname="doctrine_mobility.svg">
  <defs
     id="defs6602" />
  <sodipodi:namedview
     id="base"
     pagecolor="#ffffff"
     bordercolor="#666666"
     borderopacity="1.0"
     inkscape:pageopacity="0.0"
     inkscape:pageshadow="2"
     inkscape:zoom="0.35"
     inkscape:cx="55.405708"
     inkscape:cy="118.26285"
     inkscape:document-units="mm"
     inkscape:current-layer="layer1"
     showgrid="false"
     inkscape:window-width="1920"
     inkscape:window-height="1022"
     inkscape:window-x="1079"
     inkscape:window-y="709"
     inkscape:window-maximized="1" />
  <metadata
     id="metadata6605">
    <rdf:RDF>
      <cc:Work
         rdf:about="">
        <dc:format>image/svg+xml</dc:format>
        <dc:type
           rdf:resource="http://purl.org/dc/dcmitype/StillImage" />
        <dc:title></dc:title>
      </cc:Work>
    </rdf:RDF>
  </metadata>
  <g
     inkscape:label="Layer 1"
     inkscape:groupmode="layer"
     id="layer1"
     transform="translate(-91.173906,-126.61438)">
    <g
       transform="matrix(0.26458333,0,0,0.26458333,5.1868589,47.194611)"
       id="g3776"
       style="fill:#90ae50;fill-opacity:1">
      <path
         inkscape:connector-curvature="0"
         d="m 497.61041,371.66922 v -41.88 h -41.88 l -29.62,-29.62 -29.61999,29.62 h -41.88001 v 41.88 l -29.61999,29.62 29.61999,29.61999 v 41.88001 h 41.88001 l 29.61999,29.61999 29.62,-29.61999 h 41.88 v -41.88001 l 29.62,-29.61999 z m -16,52.60999 v 32.51001 H 449.1004 l -22.98999,22.98999 -22.98999,-22.98999 h -32.51001 v -32.51001 l -22.98999,-22.98999 22.98999,-22.99 v -32.51 h 32.51001 l 22.98999,-22.99 22.98999,22.99 h 32.51001 v 32.51 l 22.98999,22.99 z"
         id="path3772"
         style="fill:#90ae50;fill-opacity:1" />
      <path
         style="fill:#90ae50;fill-opacity:1"
         d="M 473.61041,377.36917 V 353.78922 H 450.0304 l 6.13,6.13 -22.04999,22.04999 v -31.17999 h 8.68 l -16.68,-16.68 -16.67999,16.68 h 8.67999 v 31.17999 l -22.04999,-22.04999 6.13001,-6.13 h -23.58002 v 23.57995 l 6.13001,-6.12994 22.04999,22.04999 h -31.18 v -8.68 l -16.67999,16.68 16.67999,16.67999 v -8.67999 h 31.18 l -22.04999,22.04998 -6.13001,-6.13 v 23.58002 h 23.58002 l -6.13001,-6.13001 22.04999,-22.04999 v 31.18 h -8.67999 l 16.67999,16.67999 16.68,-16.67999 h -8.68 v -31.18 l 22.04999,22.04999 -6.13,6.13001 h 23.58001 V 425.2092 l -6.13,6.13 -22.04999,-22.04998 h 31.17999 v 8.67999 l 16.68,-16.67999 -16.68,-16.68 v 8.68 h -31.17999 l 22.04999,-22.04999 z"
         id="polygon3774"
         inkscape:connector-curvature="0" />
    </g>
  </g>
</svg>
