<?xml version="1.0" encoding="UTF-8" standalone="no"?>
<!-- Created with Inkscape (http://www.inkscape.org/) -->

<svg
   xmlns:dc="http://purl.org/dc/elements/1.1/"
   xmlns:cc="http://creativecommons.org/ns#"
   xmlns:rdf="http://www.w3.org/1999/02/22-rdf-syntax-ns#"
   xmlns:svg="http://www.w3.org/2000/svg"
   xmlns="http://www.w3.org/2000/svg"
   xmlns:sodipodi="http://sodipodi.sourceforge.net/DTD/sodipodi-0.dtd"
   xmlns:inkscape="http://www.inkscape.org/namespaces/inkscape"
   width="50.535416mm"
   height="50.535416mm"
   viewBox="0 0 50.535416 50.535416"
   version="1.1"
   id="svg2082"
   inkscape:version="0.92.4 (f8dce91, 2019-08-02)"
   sodipodi:docname="ecological_engineering.svg">
  <defs
     id="defs2076" />
  <sodipodi:namedview
     id="base"
     pagecolor="#ffffff"
     bordercolor="#666666"
     borderopacity="1.0"
     inkscape:pageopacity="0.0"
     inkscape:pageshadow="2"
     inkscape:zoom="0.35"
     inkscape:cx="141.21429"
     inkscape:cy="138.35714"
     inkscape:document-units="mm"
     inkscape:current-layer="layer1"
     showgrid="false"
     inkscape:window-width="1920"
     inkscape:window-height="1022"
     inkscape:window-x="1079"
     inkscape:window-y="709"
     inkscape:window-maximized="1" />
  <metadata
     id="metadata2079">
    <rdf:RDF>
      <cc:Work
         rdf:about="">
        <dc:format>image/svg+xml</dc:format>
        <dc:type
           rdf:resource="http://purl.org/dc/dcmitype/StillImage" />
        <dc:title></dc:title>
      </cc:Work>
    </rdf:RDF>
  </metadata>
  <g
     inkscape:label="Layer 1"
     inkscape:groupmode="layer"
     id="layer1"
     transform="translate(-68.470386,-134.90491)">
    <g
       transform="matrix(0.26458333,0,0,0.26458333,-592.40657,-246.3471)"
       id="g4394"
       style="fill:#90ae50;fill-opacity:1">
      <path
         inkscape:connector-curvature="0"
         d="m 2642.8962,1516.0497 c -1.5017,-5.5221 -1.748,-10.5119 -6.9206,-13.5153 -6.0781,-3.5278 -9.7332,-1.4619 -15.1123,-6.563 -7.5562,-7.151 -17.0032,-14.9216 -28.5799,-15.0249 -6.3881,-0.048 -15.748,0.6357 -20.976,4.8546 -4.8308,3.8934 -2.8526,7.1907 -8.4859,10.2577 -18.0759,9.8287 -21.6911,20.8411 -21.4367,37.5265 0.1985,13.3644 12.8874,24.8853 26.5456,18.664 1.4383,-0.6595 2.7571,-1.4619 3.9888,-2.3677 l 17.051,17.0509 v 21.2384 l -5.3157,3.7899 h 25.1397 l -9.6221,-8.7082 v -18.8069 l 15.6131,-15.6129 c 6.1418,4.6878 12.5219,8.6446 19.3471,7.2144 13.7696,-2.8841 12.1248,-27.6344 8.7639,-39.9975 z m -53.926,39.4016 c -2.2724,-0.1509 -4.4177,-1.1202 -6.0386,-2.7411 l -6.6186,-6.6186 c 4.0442,-3.933 7.5879,-8.1044 12.6572,-9.3201 z m 16.3755,-3.0748 c -1.6763,1.6765 -3.8535,2.7332 -6.1736,3.0113 v -17.3927 c 4.0445,1.6765 8.1204,4.9422 12.2996,8.2554 z"
         id="path4390"
         style="fill:#90ae50;fill-opacity:1" />
      <path
         inkscape:connector-curvature="0"
         d="m 2688.8027,1549.1226 v -25.3401 h -19.5798 c -0.26,-1.58 -0.5701,-3.1399 -0.9302,-4.68 l 18.0901,-7.49 -9.6899,-23.41 -18.0901,7.5 c -0.8501,-1.36 -1.74,-2.68 -2.6599,-3.97 l 13.8498,-13.8499 -17.9099,-17.9201 -13.8601,13.86 c -1.2898,-0.9299 -2.6099,-1.8199 -3.96,-2.6599 l 7.49,-18.0901 -23.3999,-9.6999 -7.49,18.0899 c -1.55,-0.35 -3.1101,-0.67 -4.6899,-0.93 v -19.58 h -25.3301 v 19.58 c -1.5801,0.26 -3.1401,0.58 -4.6899,0.93 l -7.49,-18.0899 -23.4002,9.6999 7.49,18.0901 c -1.3498,0.84 -2.6699,1.73 -3.9599,2.6599 l -13.8599,-13.86 -17.9101,17.9201 13.8501,13.8499 c -0.9202,1.29 -1.8101,2.61 -2.6602,3.97 l -18.0898,-7.5 -9.69,23.41 18.0899,7.49 c -0.3599,1.5401 -0.67,3.1 -0.93,4.68 h -19.5901 v 25.3401 h 19.5901 c 0.26,1.5799 0.5701,3.14 0.93,4.6799 l -18.0899,7.49 9.69,23.41 18.0898,-7.49 c 0.8501,1.35 1.74,2.6701 2.6602,3.9601 l -13.8501,13.8499 17.9101,17.9201 13.8599,-13.8601 c 1.29,0.9301 2.6101,1.8201 3.9599,2.6601 l -7.49,18.0899 23.4002,9.7 7.49,-18.0899 c 1.5498,0.3499 3.1098,0.6699 4.6899,0.93 v 19.5799 h 25.3301 v -19.5799 c 1.5798,-0.2601 3.1399,-0.5801 4.6899,-0.93 l 7.49,18.0899 23.3999,-9.7 -7.49,-18.0899 c 1.3501,-0.84 2.6702,-1.73 3.96,-2.6601 l 13.8601,13.8601 17.9099,-17.9201 -13.8498,-13.8499 c 0.9199,-1.29 1.8098,-2.6101 2.6599,-3.9601 l 18.0901,7.49 9.6899,-23.41 -18.0901,-7.49 c 0.3601,-1.5399 0.6702,-3.1 0.9302,-4.6799 z m -95.5,46.6999 c -32.79,0 -59.3698,-26.5799 -59.3698,-59.37 0,-32.7899 26.5798,-59.37 59.3698,-59.37 32.8001,0 59.3802,26.5801 59.3802,59.37 0,32.7901 -26.5801,59.37 -59.3802,59.37 z"
         id="path4392"
         style="fill:#90ae50;fill-opacity:1" />
    </g>
  </g>
</svg>
