<?xml version="1.0" encoding="UTF-8" standalone="no"?>
<!-- Created with Inkscape (http://www.inkscape.org/) -->

<svg
   xmlns:dc="http://purl.org/dc/elements/1.1/"
   xmlns:cc="http://creativecommons.org/ns#"
   xmlns:rdf="http://www.w3.org/1999/02/22-rdf-syntax-ns#"
   xmlns:svg="http://www.w3.org/2000/svg"
   xmlns="http://www.w3.org/2000/svg"
   xmlns:sodipodi="http://sodipodi.sourceforge.net/DTD/sodipodi-0.dtd"
   xmlns:inkscape="http://www.inkscape.org/namespaces/inkscape"
   width="50.006248mm"
   height="50.00626mm"
   viewBox="0 0 50.006248 50.006259"
   version="1.1"
   id="svg795"
   inkscape:version="0.92.4 (f8dce91, 2019-08-02)"
   sodipodi:docname="environmental_economics.svg">
  <defs
     id="defs789" />
  <sodipodi:namedview
     id="base"
     pagecolor="#ffffff"
     bordercolor="#666666"
     borderopacity="1.0"
     inkscape:pageopacity="0.0"
     inkscape:pageshadow="2"
     inkscape:zoom="0.35"
     inkscape:cx="196.24735"
     inkscape:cy="17.314583"
     inkscape:document-units="mm"
     inkscape:current-layer="layer1"
     showgrid="false"
     inkscape:window-width="446"
     inkscape:window-height="439"
     inkscape:window-x="1205"
     inkscape:window-y="767"
     inkscape:window-maximized="0" />
  <metadata
     id="metadata792">
    <rdf:RDF>
      <cc:Work
         rdf:about="">
        <dc:format>image/svg+xml</dc:format>
        <dc:type
           rdf:resource="http://purl.org/dc/dcmitype/StillImage" />
        <dc:title></dc:title>
      </cc:Work>
    </rdf:RDF>
  </metadata>
  <g
     inkscape:label="Layer 1"
     inkscape:groupmode="layer"
     id="layer1"
     transform="translate(14.436526,-42.932041)">
    <g
       transform="matrix(0.26458333,0,0,0.26458333,-347.91926,-38.239272)"
       id="g3982"
       style="fill:#e2bd4d;fill-opacity:1">
      <g
         id="g3980"
         style="fill:#e2bd4d;fill-opacity:1">
        <path
           inkscape:connector-curvature="0"
           d="m 1361.7444,306.78922 c 10.3293,2.0227 19.6313,7.22308 27.9958,13.54412 v -3.54412 h 19.834 v 19.47747 c 1.905,0.80658 3.8062,1.24005 5.9231,1.72254 3.56,0.79999 7.5999,1.71997 12.47,4.53998 2.0881,1.21331 3.7727,2.59423 5.1628,4.0935 h 6.2771 v 12.88757 c 0.2991,1.15198 0.5767,2.30817 0.85,3.45893 0.35,1.5 0.7201,3.03998 1.13,4.58001 3.7,13.56995 7.9201,43.75 -2.51,60.77997 -2.0151,3.30005 -4.4797,5.88654 -7.3384,7.79352 h 7.8684 v 19.83301 h -19.833 v -16.00995 c -0.4984,0.0276 -0.9977,0.0435 -1.4971,0.0435 -2.9019,0 -5.7358,-0.46338 -8.5029,-1.26013 v 17.22662 h -19.834 v -19.83301 h 13.1265 c -4.1472,-2.00519 -8.1365,-4.612 -11.9795,-7.41351 l -11.147,11.14697 v 16.09955 h -11.343 v 10 h 11.343 v 19.8335 h -4.083 -5.9607 l -5.2964,-4.79346 v -31.45593 l 26.1136,-26.11365 c 10.2727,7.84076 20.9441,14.45886 32.3596,12.06677 23.0305,-4.82404 20.2795,-46.22046 14.6582,-66.89874 -2.5117,-9.23615 -2.9236,-17.58179 -11.575,-22.60523 -10.1663,-5.90051 -16.2795,-2.44519 -25.2764,-10.97705 -12.6381,-11.96045 -28.4393,-24.9574 -47.8019,-25.13012 -10.6846,-0.0798 -26.3395,1.06311 -35.084,8.11975 -8.0798,6.51184 -4.7708,12.02685 -14.193,17.15661 -30.2333,16.43897 -36.2799,34.85803 -35.8546,62.76569 0.3321,22.35272 21.5552,41.62231 44.3996,31.21673 2.4054,-1.10302 4.6115,-2.44519 6.6714,-3.9602 l 28.5189,28.51892 v 32.0899 h -3.9993 -13.263 v -19.83349 h 13.263 v -10 h -13.263 v -13.85944 l -11.7471,-11.74707 c -1.4699,0.91999 -2.9699,1.71997 -4.51,2.43 -4.7598,2.15997 -9.6399,3.26001 -14.5,3.26001 -8.8393,0 -17.0949,-3.78711 -23.4248,-9.91651 h -5.4851 v -6.6333 c -4.0671,-6.16675 -6.541,-13.60077 -6.6599,-21.51019 -0.2196,-14.3288 1.1836,-26.50257 6.6599,-37.28791 v -14.0686 h 10.3883 c 4.9992,-4.96252 11.3741,-9.65271 19.4447,-14.17267 v -15.66082 h 12.9283 c 0.6272,-0.62775 1.3265,-1.26197 2.1187,-1.90003 5.058,-4.0874 12.4179,-6.79455 21.955,-8.09997 h -76.835 v 189 h 189 v -189 h -87.6628 z m 77.6628,29.83349 h -19.833 v -19.83349 h 19.833 z m -75.0071,68.67676 c 6.7643,2.80402 13.5818,8.26599 20.5721,13.80768 l -10.2462,10.24609 c -2.8041,2.80408 -6.4454,4.5716 -10.3259,5.03668 z m -93.9929,-88.51025 h 19.833 v 19.83349 h -19.833 z m 19.833,169 h -19.833 v -19.8335 h 19.833 z m 0,-29.8335 h -19.833 v -19.83301 h 19.833 z m 29.834,29.8335 h -19.834 v -19.8335 h 19.834 z m 0,-29.8335 h -19.834 v -19.83301 h 19.834 z m 17.1624,-26.04431 -11.07,-11.07007 c 6.7643,-6.57825 12.6913,-13.55518 21.1699,-15.58844 v 31.24335 c -3.8007,-0.25251 -7.3887,-1.87384 -10.0999,-4.58484 z m 72.3376,55.87781 h -19.834 v -19.8335 h 19.834 z m 29.833,0 h -19.833 v -19.8335 h 19.833 z"
           id="path3978"
           style="fill:#e2bd4d;fill-opacity:1" />
      </g>
    </g>
  </g>
</svg>
