<?xml version="1.0" encoding="UTF-8" standalone="no"?>
<!-- Generator: Adobe Illustrator 22.1.0, SVG Export Plug-In . SVG Version: 6.00 Build 0)  -->

<svg
   xmlns:dc="http://purl.org/dc/elements/1.1/"
   xmlns:cc="http://creativecommons.org/ns#"
   xmlns:rdf="http://www.w3.org/1999/02/22-rdf-syntax-ns#"
   xmlns:svg="http://www.w3.org/2000/svg"
   xmlns="http://www.w3.org/2000/svg"
   xmlns:sodipodi="http://sodipodi.sourceforge.net/DTD/sodipodi-0.dtd"
   xmlns:inkscape="http://www.inkscape.org/namespaces/inkscape"
   version="1.1"
   id="Layer_2_1_"
   x="0px"
   y="0px"
   viewBox="0 0 186.80913 205.0366"
   enable-background="new 0 0 3947.9399414 3860.8613281"
   xml:space="preserve"
   sodipodi:docname="eudaimonia.svg"
   inkscape:version="0.92.4 (5da689c313, 2019-01-14)"
   width="186.80914"
   height="205.03661"><metadata
   id="metadata5465"><rdf:RDF><cc:Work
       rdf:about=""><dc:format>image/svg+xml</dc:format><dc:type
         rdf:resource="http://purl.org/dc/dcmitype/StillImage" /><dc:title></dc:title></cc:Work></rdf:RDF></metadata><defs
   id="defs5463" /><sodipodi:namedview
   pagecolor="#ffffff"
   bordercolor="#666666"
   borderopacity="1"
   objecttolerance="10"
   gridtolerance="10"
   guidetolerance="10"
   inkscape:pageopacity="0"
   inkscape:pageshadow="2"
   inkscape:window-width="1920"
   inkscape:window-height="1022"
   id="namedview5461"
   showgrid="false"
   inkscape:zoom="0.21212883"
   inkscape:cx="219.26196"
   inkscape:cy="193.33621"
   inkscape:window-x="1079"
   inkscape:window-y="709"
   inkscape:window-maximized="1"
   inkscape:current-layer="Layer_2_1_" />

































<g
   id="g3948"
   style="fill:#90ae50;fill-opacity:1"
   transform="translate(-642.30475,-1717.7251)">
	<path
   d="m 698.70129,1821.4453 c -0.48559,-0.023 -0.88769,-0.3852 -0.94659,-0.8677 -2.63397,-21.5803 -9.75537,-43.7158 -17.12042,-43.7158 -3.03998,0 -5.5,2.33 -5.5,10.1699 v 21.4201 c 0,3 0.22003,5.9801 0.67004,8.94 0.44,2.96 1.09998,5.8799 1.97998,8.75 0.14997,0.49 -0.47998,0.85 -0.83002,0.46 l -6.10998,-6.8201 c -4.88001,-5.4499 -7.34003,-12.6399 -6.81,-19.9299 l 2.10999,-29.1799 c 0.21002,-2.9201 0.17999,-5.8601 -0.09,-8.7801 l -0.93005,-9.16 c -0.1,-1.02 -0.95996,-1.7999 -1.97998,-1.7999 h -6.15998 c -0.92999,0 -1.73004,0.6299 -1.95001,1.5299 l -11.03003,46.35 c -1.29999,5.49 -1.85998,11.14 -1.65997,16.78 l 0.70001,23.8301 c 0.1,2.7199 1.02997,5.3398 2.63996,7.5299 12.3208,16.8082 26.79028,31.2904 43.12487,45.0315 0.22455,0.1889 0.35517,0.4676 0.35517,0.7611 v 30.0173 h 43.23999 c -0.34003,-16.6399 -3.06,-19.1499 -3.06,-43.5299 0,-39.8375 -5.4483,-56.6102 -30.64301,-57.7865 z"
   id="path3940"
   style="fill:#90ae50;fill-opacity:1"
   inkscape:connector-curvature="0" />
	<path
   d="m 783.28363,1765.2993 c 0,-26.2324 -21.3418,-47.5742 -47.57422,-47.5742 -26.23242,0 -47.57422,21.3418 -47.57422,47.5742 0,26.2324 21.3418,47.5742 47.57422,47.5742 26.23242,0 47.57422,-21.3418 47.57422,-47.5742 z m -47.57422,38.5742 c -21.26953,0 -38.57422,-17.3047 -38.57422,-38.5742 0,-21.2695 17.30469,-38.5742 38.57422,-38.5742 21.26953,0 38.57422,17.3047 38.57422,38.5742 0,21.2695 -17.30469,38.5742 -38.57422,38.5742 z"
   id="path3942"
   style="fill:#90ae50;fill-opacity:1"
   inkscape:connector-curvature="0" />
	<path
   d="m 827.41443,1798.8118 -11.03003,-46.35 c -0.21997,-0.9 -1.02002,-1.5299 -1.95001,-1.5299 h -6.15998 c -1.02002,0 -1.88,0.7799 -1.97998,1.7999 l -0.93005,9.16 c -0.26996,2.92 -0.29999,5.86 -0.09,8.7801 l 2.10999,29.1799 c 0.53003,7.29 -1.92999,14.48 -6.81,19.9299 l -6.10998,6.8201 c -0.35004,0.39 -0.97998,0.03 -0.83002,-0.46 0.88,-2.8701 1.53998,-5.79 1.97998,-8.75 0.45001,-2.9599 0.67004,-5.94 0.67004,-8.94 v -21.4201 c 0,-7.8399 -2.46002,-10.1699 -5.5,-10.1699 -7.36505,0 -14.48645,22.1355 -17.12036,43.7158 -0.0589,0.4825 -0.461,0.845 -0.94659,0.8677 -25.19476,1.1763 -30.64307,17.949 -30.64307,57.7865 0,24.38 -2.71997,26.89 -3.06,43.5299 h 43.23999 v -30.0173 c 0,-0.2935 0.13062,-0.5722 0.35523,-0.7611 16.33453,-13.7411 30.80402,-28.2233 43.12482,-45.0315 1.60998,-2.1901 2.53997,-4.81 2.63995,-7.5299 l 0.70001,-23.8301 c 0.20001,-5.64 -0.35998,-11.29 -1.65997,-16.78 z"
   id="path3944"
   style="fill:#90ae50;fill-opacity:1"
   inkscape:connector-curvature="0" />
	<polygon
   points="717.04828,1790.3237 731.20941,1776.1626 731.20941,1796.1899 740.20941,1796.1899 740.20941,1776.1626 754.37054,1790.3237 760.73383,1783.9604 746.57269,1769.7993 766.60004,1769.7993 766.60004,1760.7993 746.57269,1760.7993 760.73383,1746.6382 754.37054,1740.2749 740.20941,1754.436 740.20941,1734.4087 731.20941,1734.4087 731.20941,1754.436 717.04828,1740.2749 710.685,1746.6382 724.84613,1760.7993 704.81879,1760.7993 704.81879,1769.7993 724.84613,1769.7993 710.685,1783.9604 "
   id="polygon3946"
   style="fill:#90ae50;fill-opacity:1" />
</g>

















































































































































</svg>