<?xml version="1.0" encoding="UTF-8" standalone="no"?>
<!-- Created with Inkscape (http://www.inkscape.org/) -->

<svg
   xmlns:dc="http://purl.org/dc/elements/1.1/"
   xmlns:cc="http://creativecommons.org/ns#"
   xmlns:rdf="http://www.w3.org/1999/02/22-rdf-syntax-ns#"
   xmlns:svg="http://www.w3.org/2000/svg"
   xmlns="http://www.w3.org/2000/svg"
   xmlns:sodipodi="http://sodipodi.sourceforge.net/DTD/sodipodi-0.dtd"
   xmlns:inkscape="http://www.inkscape.org/namespaces/inkscape"
   width="55.406422mm"
   height="48.908131mm"
   viewBox="0 0 55.406422 48.908131"
   version="1.1"
   id="svg883"
   inkscape:version="0.92.4 (f8dce91, 2019-08-02)"
   sodipodi:docname="field_modulation.svg">
  <defs
     id="defs877" />
  <sodipodi:namedview
     id="base"
     pagecolor="#ffffff"
     bordercolor="#666666"
     borderopacity="1.0"
     inkscape:pageopacity="0.0"
     inkscape:pageshadow="2"
     inkscape:zoom="0.35"
     inkscape:cx="30.419324"
     inkscape:cy="175.28197"
     inkscape:document-units="mm"
     inkscape:current-layer="layer1"
     showgrid="false"
     inkscape:window-width="1920"
     inkscape:window-height="1022"
     inkscape:window-x="1079"
     inkscape:window-y="709"
     inkscape:window-maximized="1" />
  <metadata
     id="metadata880">
    <rdf:RDF>
      <cc:Work
         rdf:about="">
        <dc:format>image/svg+xml</dc:format>
        <dc:type
           rdf:resource="http://purl.org/dc/dcmitype/StillImage" />
        <dc:title></dc:title>
      </cc:Work>
    </rdf:RDF>
  </metadata>
  <g
     inkscape:label="Layer 1"
     inkscape:groupmode="layer"
     id="layer1"
     transform="translate(-97.784887,-146.30189)">
    <g
       transform="matrix(0.26458333,0,0,0.26458333,-396.82719,-310.8501)"
       id="g4218"
       style="fill:#e1561c;fill-opacity:1">
      <path
         inkscape:connector-curvature="0"
         d="m 2073.6602,1809.8882 -16.24,-12.28 c -12.14,-9.18 -20.1801,-23.0999 -22.0602,-38.2 l -2.5198,-20.21 c -0.5,-4.07 -2.8301,-7.58 -6.3901,-9.63 -3.5501,-2.0499 -7.75,-2.3099 -11.5301,-0.7199 l -18.76,7.93 c -14.02,5.9199 -30.1001,5.9199 -44.1198,0 l -18.75,-7.93 c -3.7801,-1.59 -7.9803,-1.33 -11.5401,0.7199 -3.55,2.05 -5.8801,5.56 -6.3901,9.63 l -2.51,20.21 c -1.8799,15.1001 -9.9199,29.02 -22.0598,38.2 l -16.2402,12.28 c -3.2698,2.48 -5.15,6.25 -5.15,10.3501 0,4.11 1.8802,7.8799 5.15,10.35 l 16.2402,12.2799 c 12.1399,9.18 20.1799,23.1101 22.0598,38.21 l 2.51,20.2001 c 0.51,4.0799 2.8401,7.5899 6.3901,9.6399 3.5501,2.0501 7.76,2.3101 11.5401,0.71 l 1.1399,-0.48 3.76,-8.1 -7.24,3.06 c -2.0301,0.8601 -4.2901,0.72 -6.2,-0.3899 -1.9099,-1.1001 -3.1599,-2.99 -3.4299,-5.1801 l -2.52,-20.1999 c -2.0801,-16.7001 -10.9702,-32.1 -24.3902,-42.25 l -16.24,-12.2801 c -1.76,-1.3299 -2.77,-3.36 -2.77,-5.5699 0,-2.2001 1.01,-4.23 2.77,-5.5601 l 16.24,-12.28 c 13.42,-10.1499 22.3101,-25.5499 24.3902,-42.25 l 2.52,-20.21 c 0.27,-2.1899 1.52,-4.07 3.4299,-5.1799 1.9099,-1.1001 4.1699,-1.24 6.2,-0.3801 l 18.76,7.92 c 15.5,6.5501 33.28,6.5501 48.79,0 l 18.75,-7.92 c 2.0301,-0.8599 4.2901,-0.72 6.2,0.3801 1.9199,1.1099 3.1699,2.99 3.4399,5.1799 l 2.51,20.21 c 2.0801,16.7001 10.97,32.1001 24.4003,42.25 l 16.24,12.28 c 1.76,1.3301 2.7698,3.36 2.7698,5.5601 0,2.2099 -1.0098,4.24 -2.7698,5.5699 l -16.24,12.2801 c -13.4303,10.15 -22.3202,25.5499 -24.4003,42.25 l -2.51,20.1999 c -0.27,2.1901 -1.52,4.08 -3.4399,5.1801 -1.9099,1.1099 -4.1699,1.25 -6.2,0.3899 l -7.24,-3.06 3.76,8.09 1.1499,0.49 c 1.6302,0.7 3.3501,1.04 5.0601,1.04 2.24,0 4.46,-0.59 6.47,-1.75 3.56,-2.05 5.8901,-5.56 6.3901,-9.6399 l 2.5198,-20.2001 c 1.8801,-15.0999 9.9202,-29.03 22.0602,-38.21 l 16.24,-12.2799 c 3.27,-2.4701 5.1499,-6.24 5.1499,-10.35 0,-4.1001 -1.8799,-7.8701 -5.1499,-10.3501 z"
         id="path4210"
         style="fill:#e1561c;fill-opacity:1" />
      <path
         inkscape:connector-curvature="0"
         d="m 2016.9301,1880.2283 1.8601,-14.97 c 1.4199,-11.3901 7.49,-21.9001 16.6399,-28.8201 l 12.04,-9.0999 c 2.2401,-1.7001 3.5301,-4.2801 3.5301,-7.1 0,-2.8101 -1.29,-5.4 -3.5301,-7.0901 l -12.04,-9.11 c -9.1499,-6.92 -15.22,-17.42 -16.6399,-28.8099 l -1.8601,-14.98 c -0.3501,-2.79 -1.94,-5.1901 -4.3799,-6.6001 -2.4302,-1.4099 -5.3201,-1.58 -7.9102,-0.49 l -13.8999,5.8701 c -10.5701,4.47 -22.6999,4.47 -33.27,0 l -13.9102,-5.8701 c -2.5898,-1.1 -5.4697,-0.9199 -7.8999,0.49 -2.4399,1.41 -4.04,3.8101 -4.3798,6.6001 l -1.8702,14.98 c -1.4199,11.3899 -7.4799,21.8899 -16.6298,28.8099 l -12.0401,9.11 c -2.25,1.6901 -3.53,4.28 -3.53,7.0901 0,2.8199 1.28,5.3999 3.53,7.1 l 12.0401,9.0999 c 9.1499,6.92 15.2099,17.43 16.6298,28.8201 l 1.8702,14.97 c 0.3398,2.79 1.9399,5.1999 4.3798,6.61 1.3702,0.7899 2.8999,1.1999 4.4302,1.1999 1.1699,0 2.3499,-0.24 3.4697,-0.71 l 2.3902,-1.01 1.8799,-4.0499 -5.43,2.2899 c -1.7199,0.73 -3.6299,0.61 -5.24,-0.3199 -1.6198,-0.9301 -2.6799,-2.53 -2.9099,-4.3801 l -1.8601,-14.98 c -1.52,-12.18 -8.01,-23.4199 -17.81,-30.83 l -12.0298,-9.1 c -1.4903,-1.13 -2.3401,-2.84 -2.3401,-4.7099 0,-1.8601 0.8498,-3.5701 2.3401,-4.7001 l 12.0298,-9.1 c 9.8,-7.4099 16.29,-18.65 17.81,-30.8399 l 1.8601,-14.9801 c 0.23,-1.8499 1.2901,-3.44 2.9099,-4.3699 0.9102,-0.53 1.92,-0.8001 2.94,-0.8001 0.77,0 1.55,0.16 2.3,0.47 l 13.9002,5.88 c 11.3098,4.78 24.29,4.78 35.6098,0 l 13.8999,-5.88 c 1.7203,-0.72 3.6302,-0.6 5.2403,0.3301 1.6198,0.9299 2.6699,2.52 2.8999,4.3699 l 1.8701,14.9801 c 1.52,12.1899 8.0098,23.43 17.7998,30.8399 l 12.04,9.1 c 1.49,1.13 2.3402,2.84 2.3402,4.7001 0,1.8699 -0.8502,3.5799 -2.3402,4.7099 l -12.04,9.1 c -9.79,7.4101 -16.2798,18.65 -17.7998,30.83 l -1.8701,14.98 c -0.23,1.8501 -1.2801,3.45 -2.8999,4.3801 -1.6101,0.9299 -3.52,1.0499 -5.2403,0.3199 l -5.4399,-2.2999 1.8801,4.0599 2.3899,1.01 c 2.6001,1.09 5.48,0.9101 7.9102,-0.4899 2.4399,-1.4101 4.0298,-3.82 4.3799,-6.61 z"
         id="path4212"
         style="fill:#e1561c;fill-opacity:1" />
      <path
         inkscape:connector-curvature="0"
         d="m 2005.66,1826.1282 c -5.8798,4.45 -9.77,11.19 -10.6799,18.5 l -1.03,8.27 c -0.05,0.46 -0.3599,0.7001 -0.5301,0.8 -0.1699,0.1 -0.53,0.24 -0.9599,0.06 l -6.6001,-2.78 3.76,8.0999 0.5,0.21 c 2.0701,0.87 4.3601,0.7301 6.3,-0.39 1.94,-1.1199 3.21,-3.04 3.49,-5.26 l 1.0301,-8.27 c 0.7099,-5.71 3.75,-10.98 8.3401,-14.45 l 6.6499,-5.03 c 1.78,-1.35 2.81,-3.4099 2.81,-5.6499 0,-2.24 -1.03,-4.3001 -2.81,-5.65 l -6.6499,-5.0201 c -4.5901,-3.4799 -7.6302,-8.74 -8.3401,-14.45 l -1.0301,-8.2699 c -0.28,-2.2201 -1.55,-4.14 -3.49,-5.26 -1.9399,-1.12 -4.2399,-1.2601 -6.3,-0.3901 l -7.6799,3.24 c -5.3001,2.24 -11.3802,2.24 -16.68,0 l -7.6801,-3.24 c -2.0599,-0.87 -4.3499,-0.7299 -6.2898,0.3901 -1.9402,1.12 -3.22,3.0399 -3.49,5.26 l -1.0301,8.2699 c -0.7102,5.71 -3.75,10.9701 -8.34,14.45 l -6.6499,5.0201 c -1.7901,1.3499 -2.8101,3.41 -2.8101,5.65 0,2.24 1.02,4.2999 2.8101,5.6499 l 6.6499,5.03 c 4.59,3.47 7.6298,8.74 8.34,14.45 l 1.0301,8.27 c 0.27,2.22 1.5498,4.1401 3.49,5.26 1.0998,0.6301 2.3098,0.9501 3.53,0.9501 0.9299,0 1.8699,-0.1801 2.7598,-0.5601 l 0.5,-0.21 3.7602,-8.0999 -6.5901,2.78 c -0.4299,0.1799 -0.79,0.04 -0.9599,-0.06 -0.1802,-0.1 -0.4803,-0.34 -0.5401,-0.8 l -1.03,-8.27 c -0.9102,-7.31 -4.8001,-14.05 -10.6699,-18.5 l -6.6502,-5.02 c -0.3799,-0.29 -0.4299,-0.67 -0.4299,-0.8699 0,-0.2001 0.05,-0.5801 0.4299,-0.8601 l 6.6502,-5.0299 c 5.8698,-4.4401 9.7597,-11.1801 10.6699,-18.4901 l 1.03,-8.2699 c 0.06,-0.4701 0.3599,-0.7001 0.5401,-0.8001 0.1098,-0.07 0.3,-0.15 0.5398,-0.15 0.1201,0 0.27,0.02 0.4201,0.09 l 7.68,3.24 c 6.78,2.8599 14.56,2.8599 21.3501,0 l 7.6799,-3.24 c 0.4299,-0.1901 0.79,-0.05 0.9599,0.06 0.1702,0.1 0.48,0.33 0.5301,0.8001 l 1.03,8.2699 c 0.9099,7.31 4.8001,14.05 10.6799,18.4901 l 6.6499,5.0299 c 0.3702,0.28 0.4302,0.66 0.4302,0.8601 0,0.1999 -0.06,0.5799 -0.4302,0.8699 z"
         id="path4214"
         style="fill:#e1561c;fill-opacity:1" />
      <path
         inkscape:connector-curvature="0"
         d="m 1944.0302,1907.0883 8.01,-3.38 c 14.0197,-5.9201 30.0998,-5.9201 44.1198,0 l 8.01,3.38 -30.07,-64.83 z"
         id="path4216"
         style="fill:#e1561c;fill-opacity:1" />
    </g>
  </g>
</svg>
