<?xml version="1.0" encoding="UTF-8" standalone="no"?>
<!-- Created with Inkscape (http://www.inkscape.org/) -->

<svg
   xmlns:dc="http://purl.org/dc/elements/1.1/"
   xmlns:cc="http://creativecommons.org/ns#"
   xmlns:rdf="http://www.w3.org/1999/02/22-rdf-syntax-ns#"
   xmlns:svg="http://www.w3.org/2000/svg"
   xmlns="http://www.w3.org/2000/svg"
   xmlns:sodipodi="http://sodipodi.sourceforge.net/DTD/sodipodi-0.dtd"
   xmlns:inkscape="http://www.inkscape.org/namespaces/inkscape"
   width="46.611626mm"
   height="53.035728mm"
   viewBox="0 0 46.611627 53.035729"
   version="1.1"
   id="svg883"
   inkscape:version="0.92.4 (f8dce91, 2019-08-02)"
   sodipodi:docname="gene_splicing.svg">
  <defs
     id="defs877" />
  <sodipodi:namedview
     id="base"
     pagecolor="#ffffff"
     bordercolor="#666666"
     borderopacity="1.0"
     inkscape:pageopacity="0.0"
     inkscape:pageshadow="2"
     inkscape:zoom="0.35"
     inkscape:cx="372.35627"
     inkscape:cy="-49.652919"
     inkscape:document-units="mm"
     inkscape:current-layer="layer1"
     showgrid="false"
     inkscape:window-width="446"
     inkscape:window-height="440"
     inkscape:window-x="1255"
     inkscape:window-y="1048"
     inkscape:window-maximized="0" />
  <metadata
     id="metadata880">
    <rdf:RDF>
      <cc:Work
         rdf:about="">
        <dc:format>image/svg+xml</dc:format>
        <dc:type
           rdf:resource="http://purl.org/dc/dcmitype/StillImage" />
        <dc:title></dc:title>
      </cc:Work>
    </rdf:RDF>
  </metadata>
  <g
     inkscape:label="Layer 1"
     inkscape:groupmode="layer"
     id="layer1"
     transform="translate(47.756,-27.266486)">
    <g
       transform="matrix(0.26458333,0,0,0.26458333,-301.02132,-427.82171)"
       id="g3962"
       style="fill:#e2bd4d;fill-opacity:1;stroke:#000000;stroke-opacity:1">
      <path
         inkscape:connector-curvature="0"
         d="m 1132.8932,1819.4484 c 0,-9.58 -20.5899,-19.84 -38.22,-26 17.6301,-6.17 38.22,-16.42 38.22,-26 0,-11.71 -30.76,-24.43 -49.26,-29.45 l 43.4601,-17.48 h -24.12 l -31.0801,12.5 v 11.5601 l 42.4202,27.6399 c -0.6402,0.69 -1.3802,1.41 -2.2201,2.14 l -40.2001,-26.1899 v 7.16 l 35.18,22.9199 c -0.87,0.61 -1.7799,1.22 -2.7199,1.8301 l -32.4601,-21.16 v 7.16 l 26.74,17.4299 c -0.99,0.5501 -2,1.0901 -3.0099,1.62 l -23.7301,-15.4599 v 7.16 l 17.4202,11.3498 c -1.1202,0.5 -2.2301,0.9801 -3.3301,1.4202 l -14.0901,-9.18 v 18.6899 c 0.8701,0 2.01,-0.12 3.3701,-0.33 l 39.0501,25.44 c -0.6402,0.69 -1.3802,1.41 -2.2201,2.14 l -40.2001,-26.1899 v 7.16 l 35.18,22.9199 c -0.87,0.61 -1.7799,1.22 -2.7199,1.8301 l -32.4601,-21.16 v 7.16 l 26.74,17.4299 c -0.99,0.5501 -2,1.0901 -3.0099,1.62 l -23.7301,-15.4599 v 7.16 l 17.4202,11.3498 c -1.1202,0.5 -2.2301,0.9801 -3.3301,1.4202 l -14.0901,-9.18 v 18.6899 c 0.8701,0 2.01,-0.12 3.3701,-0.33 l 39.0501,25.44 c -0.6402,0.69 -1.3802,1.41 -2.2201,2.14 l -40.2001,-26.1899 v 7.16 l 35.18,22.9199 c -0.87,0.61 -1.7799,1.22 -2.7199,1.8301 l -32.4601,-21.16 v 7.16 l 26.74,17.4299 c -0.99,0.5501 -2,1.0901 -3.0099,1.62 l -23.7301,-15.4599 v 7.16 l 17.4202,11.3498 c -1.1202,0.5 -2.2301,0.9801 -3.3301,1.4202 l -14.0901,-9.18 v 7.16 l 6.9101,4.5 c -2.59,0.73 -4.96,1.1699 -6.9101,1.23 v 10.1599 l 31.0901,12.5 h 24.13 l -45.89,-18.45 c 18.0901,-4.5 51.6699,-17.8401 51.6699,-30.07 0,-9.58 -20.5899,-19.84 -38.22,-26 17.6301,-6.17 38.22,-16.42 38.22,-26 z m -51.5199,-75.8499 c 14.41,4.7699 34.09,16.8298 35.5199,23.1499 z m 35.5199,127.1499 -33.45,-21.8 c 0.3201,-0.09 0.6401,-0.18 0.97,-0.2701 14,5.3201 31.1502,16.1901 32.48,22.0701 z m -33.45,-73.8 c 0.3201,-0.09 0.6401,-0.18 0.97,-0.2701 14,5.3201 31.1502,16.1901 32.48,22.0701 z"
         id="path3950"
         style="fill:#e2bd4d;fill-opacity:1;stroke:#000000;stroke-opacity:1" />
      <path
         inkscape:connector-curvature="0"
         d="m 1055.9598,1733.0184 v 4.36 5.34 0.4599 c -1.9541,0.057 -4.3164,0.5026 -6.9126,1.2303 l 6.9126,4.4997 v 7.1601 l -14.0861,-9.1783 c -1.1015,0.4433 -2.2166,0.9185 -3.3388,1.4189 l 17.4249,11.3493 v 7.1601 l -23.7287,-15.4629 c -1.0147,0.5291 -2.0167,1.0743 -3.0069,1.6278 l 26.7356,17.425 v 7.1601 l -32.4627,-21.1556 c -0.9413,0.6061 -1.845,1.2145 -2.7152,1.8227 l 35.1779,22.9228 v 7.1601 l -40.198,-26.195 c -0.8376,0.7355 -1.581,1.4528 -2.2257,2.147 l 39.0509,25.4407 c 1.3615,-0.2168 2.5059,-0.3327 3.3728,-0.3327 v 18.69 l -14.0861,-9.1783 c -1.1015,0.4433 -2.2166,0.9185 -3.3388,1.4189 l 17.4249,11.3493 v 7.1601 l -23.7287,-15.4629 c -1.0147,0.5291 -2.0167,1.0743 -3.0069,1.6278 l 26.7356,17.425 v 7.1601 l -32.4627,-21.1556 c -0.9413,0.6061 -1.845,1.2145 -2.7152,1.8227 l 35.1779,22.9228 v 7.1601 l -40.198,-26.195 c -0.8376,0.7355 -1.581,1.4528 -2.2257,2.147 l 39.0509,25.4407 c 1.3615,-0.2168 2.5059,-0.3327 3.3728,-0.3327 v 18.69 l -14.0861,-9.1783 c -1.1015,0.4433 -2.2166,0.9185 -3.3388,1.4189 l 17.4249,11.3493 v 7.1601 l -23.7287,-15.4629 c -1.0147,0.5291 -2.0167,1.0743 -3.0069,1.6278 l 26.7356,17.425 v 7.1601 l -32.4627,-21.1556 c -0.9413,0.6061 -1.845,1.2145 -2.7152,1.8227 l 35.1779,22.9228 v 7.1601 l -40.198,-26.195 c -0.8376,0.7355 -1.581,1.4528 -2.2257,2.147 l 42.4237,27.6379 v 1.8601 1.1399 4.1601 1.64 2.76 l -31.0791,12.5 h 41.8426 v -199.45 h -41.8526 z"
         id="path3952"
         style="fill:#e2bd4d;fill-opacity:1;stroke:#000000;stroke-opacity:1" />
      <path
         inkscape:connector-curvature="0"
         d="m 1044.4113,1791.5419 -33.4545,-21.8033 c 1.3321,5.8821 18.483,16.7464 32.4796,22.0706 0.3284,-0.091 0.6541,-0.1808 0.9749,-0.2673 z"
         id="path3954"
         style="fill:#e2bd4d;fill-opacity:1;stroke:#000000;stroke-opacity:1" />
      <path
         inkscape:connector-curvature="0"
         d="m 994.95984,1873.0385 c 0,-9.5793 20.59486,-19.8348 38.21536,-25.9966 -17.6205,-6.1647 -38.21536,-16.4242 -38.21536,-26.0034 0,-9.5793 20.59486,-19.8348 38.21536,-25.9966 -17.6205,-6.1647 -38.21536,-16.4242 -38.21536,-26.0034 0,-12.2322 33.58056,-25.5669 51.66796,-30.0721 l -45.8848,-18.448 h -43.01973 v 199.45 h 43.03653 l 43.4566,-17.4771 c -18.498,-5.0228 -49.25656,-17.7462 -49.25656,-29.4528 z"
         id="path3956"
         style="fill:#e2bd4d;fill-opacity:1;stroke:#000000;stroke-opacity:1" />
      <path
         inkscape:connector-curvature="0"
         d="m 1044.4113,1843.5419 -33.4545,-21.8033 c 1.3321,5.8821 18.483,16.7464 32.4796,22.0706 0.3284,-0.091 0.6541,-0.1808 0.9749,-0.2673 z"
         id="path3958"
         style="fill:#e2bd4d;fill-opacity:1;stroke:#000000;stroke-opacity:1" />
      <path
         inkscape:connector-curvature="0"
         d="m 1010.9568,1873.7386 c 1.4308,6.3179 21.1092,18.3804 35.5279,23.1546 z"
         id="path3960"
         style="fill:#e2bd4d;fill-opacity:1;stroke:#000000;stroke-opacity:1" />
    </g>
  </g>
</svg>
