<?xml version="1.0" encoding="UTF-8" standalone="no"?>
<!-- Generator: Adobe Illustrator 22.1.0, SVG Export Plug-In . SVG Version: 6.00 Build 0)  -->

<svg
   xmlns:dc="http://purl.org/dc/elements/1.1/"
   xmlns:cc="http://creativecommons.org/ns#"
   xmlns:rdf="http://www.w3.org/1999/02/22-rdf-syntax-ns#"
   xmlns:svg="http://www.w3.org/2000/svg"
   xmlns="http://www.w3.org/2000/svg"
   xmlns:sodipodi="http://sodipodi.sourceforge.net/DTD/sodipodi-0.dtd"
   xmlns:inkscape="http://www.inkscape.org/namespaces/inkscape"
   version="1.1"
   id="Layer_2_1_"
   x="0px"
   y="0px"
   viewBox="0 0 205.8004 205.80029"
   enable-background="new 0 0 3947.9399414 3860.8613281"
   xml:space="preserve"
   sodipodi:docname="graviton_theory.svg"
   inkscape:version="0.92.4 (5da689c313, 2019-01-14)"
   width="205.80042"
   height="205.80029"><metadata
   id="metadata5465"><rdf:RDF><cc:Work
       rdf:about=""><dc:format>image/svg+xml</dc:format><dc:type
         rdf:resource="http://purl.org/dc/dcmitype/StillImage" /><dc:title></dc:title></cc:Work></rdf:RDF></metadata><defs
   id="defs5463" /><sodipodi:namedview
   pagecolor="#ffffff"
   bordercolor="#666666"
   borderopacity="1"
   objecttolerance="10"
   gridtolerance="10"
   guidetolerance="10"
   inkscape:pageopacity="0"
   inkscape:pageshadow="2"
   inkscape:window-width="1920"
   inkscape:window-height="1022"
   id="namedview5461"
   showgrid="false"
   inkscape:zoom="0.21212883"
   inkscape:cx="228.75757"
   inkscape:cy="1045.0906"
   inkscape:window-x="1079"
   inkscape:window-y="709"
   inkscape:window-maximized="1"
   inkscape:current-layer="Layer_2_1_" />



























































































































































<g
   id="g5150"
   style="fill:#90ae50;fill-opacity:1"
   transform="translate(-632.80914,-2568.7158)">
	<path
   d="m 735.70935,2579.7158 c 50.67395,0 91.90021,41.2263 91.90021,91.9002 0,50.6738 -41.22626,91.9001 -91.90021,91.9001 -50.67395,0 -91.90021,-41.2263 -91.90021,-91.9001 0,-50.6739 41.22626,-91.9002 91.90021,-91.9002 m 0,-11 c -56.8302,0 -102.90021,46.0698 -102.90021,102.9002 0,56.8303 46.07001,102.9001 102.90021,102.9001 56.8302,0 102.90021,-46.0698 102.90021,-102.9001 0,-56.8304 -46.07001,-102.9002 -102.90021,-102.9002 z"
   id="path5138"
   style="fill:#90ae50;fill-opacity:1"
   inkscape:connector-curvature="0" />
	<path
   d="m 735.70953,2596.7156 c 41.30017,0 74.90039,33.6001 74.90039,74.9004 0,41.3003 -33.60022,74.9004 -74.90039,74.9004 -41.30017,0 -74.90039,-33.6001 -74.90039,-74.9004 0,-41.3003 33.60022,-74.9004 74.90039,-74.9004 m 0,-11 c -47.36523,0 -85.90039,38.5351 -85.90039,85.9004 0,47.3652 38.53516,85.9004 85.90039,85.9004 47.36524,0 85.90039,-38.5352 85.90039,-85.9004 0,-47.3653 -38.53515,-85.9004 -85.90039,-85.9004 z"
   id="path5140"
   style="fill:#90ae50;fill-opacity:1"
   inkscape:connector-curvature="0" />
	<path
   d="m 735.70953,2613.7156 c 31.9264,0 57.90039,25.9739 57.90039,57.9004 0,31.9265 -25.97399,57.9004 -57.90039,57.9004 -31.92639,0 -57.90039,-25.9739 -57.90039,-57.9004 0,-31.9265 25.974,-57.9004 57.90039,-57.9004 m 0,-11 c -37.99218,0 -68.90039,30.9082 -68.90039,68.9004 0,37.9922 30.90821,68.9004 68.90039,68.9004 37.99219,0 68.90039,-30.9082 68.90039,-68.9004 0,-37.9922 -30.9082,-68.9004 -68.90039,-68.9004 z"
   id="path5142"
   style="fill:#90ae50;fill-opacity:1"
   inkscape:connector-curvature="0" />
	<path
   d="m 735.70953,2630.7156 c 22.55255,0 40.90039,18.3479 40.90039,40.9004 0,22.5525 -18.34784,40.9004 -40.90039,40.9004 -22.55255,0 -40.90039,-18.3479 -40.90039,-40.9004 0,-22.5525 18.34784,-40.9004 40.90039,-40.9004 m 0,-11 c -28.61816,0 -51.90039,23.2822 -51.90039,51.9004 0,28.6181 23.28223,51.9004 51.90039,51.9004 28.61817,0 51.90039,-23.2823 51.90039,-51.9004 0,-28.6182 -23.28222,-51.9004 -51.90039,-51.9004 z"
   id="path5144"
   style="fill:#90ae50;fill-opacity:1"
   inkscape:connector-curvature="0" />
	<g
   id="g5148"
   style="fill:#90ae50;fill-opacity:1">
		<polygon
   points="767.79669,2686.3167 735.70953,2636.7903 703.62238,2686.3167 "
   id="polygon5146"
   style="fill:#90ae50;fill-opacity:1" />
	</g>
</g>























</svg>