<?xml version="1.0" encoding="UTF-8" standalone="no"?>
<!-- Generator: Adobe Illustrator 22.1.0, SVG Export Plug-In . SVG Version: 6.00 Build 0)  -->

<svg
   xmlns:dc="http://purl.org/dc/elements/1.1/"
   xmlns:cc="http://creativecommons.org/ns#"
   xmlns:rdf="http://www.w3.org/1999/02/22-rdf-syntax-ns#"
   xmlns:svg="http://www.w3.org/2000/svg"
   xmlns="http://www.w3.org/2000/svg"
   xmlns:sodipodi="http://sodipodi.sourceforge.net/DTD/sodipodi-0.dtd"
   xmlns:inkscape="http://www.inkscape.org/namespaces/inkscape"
   version="1.1"
   id="Layer_2_1_"
   x="0px"
   y="0px"
   viewBox="0 0 187.42696 204.03"
   enable-background="new 0 0 3947.9399414 3860.8613281"
   xml:space="preserve"
   sodipodi:docname="homo_superior.svg"
   inkscape:version="0.92.4 (5da689c313, 2019-01-14)"
   width="187.42696"
   height="204.03"><metadata
   id="metadata5465"><rdf:RDF><cc:Work
       rdf:about=""><dc:format>image/svg+xml</dc:format><dc:type
         rdf:resource="http://purl.org/dc/dcmitype/StillImage" /><dc:title></dc:title></cc:Work></rdf:RDF></metadata><defs
   id="defs5463" /><sodipodi:namedview
   pagecolor="#ffffff"
   bordercolor="#666666"
   borderopacity="1"
   objecttolerance="10"
   gridtolerance="10"
   guidetolerance="10"
   inkscape:pageopacity="0"
   inkscape:pageshadow="2"
   inkscape:window-width="1920"
   inkscape:window-height="1022"
   id="namedview5461"
   showgrid="false"
   inkscape:zoom="0.21212883"
   inkscape:cx="-90.028126"
   inkscape:cy="-656.65198"
   inkscape:window-x="1079"
   inkscape:window-y="709"
   inkscape:window-maximized="1"
   inkscape:current-layer="Layer_2_1_" />






























<path
   d="M 185.87021,103.4601 172.43011,79.13 V 73.4501 C 172.43011,32.9501 136.29011,0 91.860207,0 47.44006,0 11.30005,32.9501 11.30005,73.4501 c 0,20.1799 9.1101,39.4399 25.10009,53.27 v 33.77 L 24.61011,172.28 0,196.9 v 7.13 h 138.87021 v -8.2199 l -13.8301,-13.83 h 37.89 c 3.3199,0 6,-2.6801 6,-6 V 124.64 h 2.78 c 5.2899,0 10.3,-2.78 13.06,-7.25 l 0.77,-1.23 c 2.39,-3.8499 2.52,-8.7099 0.3301,-12.6999 z m -10.5201,6.3598 -0.77,1.2402 c -0.61,0.9799 -1.7099,1.5799 -2.87,1.5799 h -8.78 c -3.3099,0 -6,2.69 -6,6 v 51.3401 h -43.89 l -12.51,-12.51 16.9599,-16.9601 h 22.2901 v -20.0699 h -11.85 v -5.01 h 11.85 V 104.39 h 5.53 c 2.0501,0 3.95,-1.06 5.02,-2.79 l 0.48,-0.77 c 0.79,-1.2699 0.8301,-2.8699 0.1101,-4.18 l -8.94,-16.1699 V 75.92 c 0,-23.4699 -21.0301,-42.4899 -46.970103,-42.4899 -25.939997,0 -46.970067,19.02 -46.970067,42.4899 0,12.6499 6.11007,24.0101 15.81007,31.7901 V 133.04 L 48.40014,148.4901 V 123.92 c 0,-1.83 -0.83007,-3.55 -2.25,-4.6899 C 31.63012,107.59 23.30005,90.9 23.30005,73.4501 23.30005,39.5699 54.06001,12 91.860207,12 129.67021,12 160.43011,39.5699 160.43011,73.4501 V 79.13 c 0,2.03 0.51,4.03 1.5,5.8001 l 13.4301,24.3199 0.01,0.01 c 0.09,0.1801 0.08,0.39 -0.02,0.5599 z m -66.52,-28.4799 h 22.99 c -3.56,18.8601 -20.4299,6.7299 -22.99,0 z"
   id="path3924"
   style="fill:#90ae50;fill-opacity:1"
   inkscape:connector-curvature="0" />




















































































































































</svg>