<?xml version="1.0" encoding="UTF-8" standalone="no"?>
<!-- Generator: Adobe Illustrator 22.1.0, SVG Export Plug-In . SVG Version: 6.00 Build 0)  -->

<svg
   xmlns:dc="http://purl.org/dc/elements/1.1/"
   xmlns:cc="http://creativecommons.org/ns#"
   xmlns:rdf="http://www.w3.org/1999/02/22-rdf-syntax-ns#"
   xmlns:svg="http://www.w3.org/2000/svg"
   xmlns="http://www.w3.org/2000/svg"
   xmlns:sodipodi="http://sodipodi.sourceforge.net/DTD/sodipodi-0.dtd"
   xmlns:inkscape="http://www.inkscape.org/namespaces/inkscape"
   version="1.1"
   id="Layer_2_1_"
   x="0px"
   y="0px"
   viewBox="0 0 206.93506 205.82"
   enable-background="new 0 0 3947.9399414 3860.8613281"
   xml:space="preserve"
   sodipodi:docname="industrial_nanorobotics.svg"
   inkscape:version="0.92.4 (5da689c313, 2019-01-14)"
   width="206.93506"
   height="205.82001"><metadata
   id="metadata5465"><rdf:RDF><cc:Work
       rdf:about=""><dc:format>image/svg+xml</dc:format><dc:type
         rdf:resource="http://purl.org/dc/dcmitype/StillImage" /><dc:title></dc:title></cc:Work></rdf:RDF></metadata><defs
   id="defs5463" /><sodipodi:namedview
   pagecolor="#ffffff"
   bordercolor="#666666"
   borderopacity="1"
   objecttolerance="10"
   gridtolerance="10"
   guidetolerance="10"
   inkscape:pageopacity="0"
   inkscape:pageshadow="2"
   inkscape:window-width="1920"
   inkscape:window-height="1022"
   id="namedview5461"
   showgrid="false"
   inkscape:zoom="0.21212883"
   inkscape:cx="229.32484"
   inkscape:cy="1330.7789"
   inkscape:window-x="1079"
   inkscape:window-y="709"
   inkscape:window-maximized="1"
   inkscape:current-layer="Layer_2_1_" />







































































































































<g
   id="g4944"
   style="fill:#e2bd4d;fill-opacity:1"
   transform="translate(-632.24182,-3420.0784)">
	<path
   d="m 714.90686,3537.9685 4.91992,-4.9299 c 0.45996,0.3298 0.93018,0.6499 1.41016,0.9499 l -2.66016,6.43 8.31006,3.4399 2.66016,-6.4199 c 0.5498,0.1201 1.09961,0.23 1.66992,0.3301 v 6.9499 h 8.98975 v -6.9499 c 0.56005,-0.1001 1.12011,-0.21 1.67041,-0.3301 l 2.65966,6.4199 8.31006,-3.4399 -2.66015,-6.43 c 0.47998,-0.3 0.95019,-0.6201 1.41015,-0.9499 l 4.91992,4.9299 6.36036,-6.3701 -4.92041,-4.9199 c 0.33007,-0.46 0.6499,-0.92 0.95019,-1.3999 l 6.41992,2.6599 3.4502,-8.3201 -6.43018,-2.6599 c 0.12988,-0.5501 0.24024,-1.1001 0.33008,-1.6599 h 6.95996 v -9 h -6.95996 c -0.0898,-0.5601 -0.2002,-1.1201 -0.33008,-1.6702 l 6.43018,-2.6599 -3.4502,-8.3101 -6.41992,2.6602 c -0.30029,-0.4802 -0.62012,-0.9502 -0.95019,-1.4102 l 4.92041,-4.9199 -6.36036,-6.3601 -4.91992,4.9202 c -0.45996,-0.3301 -0.93017,-0.6502 -1.41015,-0.9402 l 2.66015,-6.4299 -8.31006,-3.45 -2.65966,6.4299 c -0.5503,-0.1198 -1.11036,-0.2399 -1.67041,-0.33 v -6.95 h -8.98975 v 6.95 c -0.57031,0.09 -1.12012,0.2102 -1.66992,0.33 l -2.66016,-6.4299 -8.31006,3.45 2.66016,6.4299 c -0.47998,0.29 -0.9502,0.6101 -1.41016,0.9402 l -4.91992,-4.9202 -6.35986,6.3601 4.91992,4.9199 c -0.33008,0.46 -0.65039,0.93 -0.9502,1.4102 l -6.41992,-2.6602 -3.45019,8.3101 6.43017,2.6599 c -0.12988,0.5501 -0.23974,1.1101 -0.33008,1.6702 h -6.95996 v 9 h 6.95996 c 0.0903,0.5598 0.2002,1.1098 0.33008,1.6599 l -6.43017,2.6599 3.45019,8.3201 6.41992,-2.6599 c 0.29981,0.4799 0.62012,0.9399 0.9502,1.3999 l -4.91992,4.9199 z m 20.79981,-48.26 c 11.6499,0 21.10009,9.4399 21.10009,21.0901 0,11.6499 -9.45019,21.0898 -21.10009,21.0898 -11.64014,0 -21.08985,-9.4399 -21.08985,-21.0898 0,-11.6502 9.44971,-21.0901 21.08985,-21.0901 z"
   id="path4934"
   style="fill:#e2bd4d;fill-opacity:1"
   inkscape:connector-curvature="0" />
	<path
   d="m 633.53674,3420.0784 31.97998,64.4201 4.97998,10.0401 3.14014,6.3198 32.04981,64.5701 30.02002,60.4699 29.97021,-60.3698 32.10986,-64.6702 3.12989,-6.3098 4.99023,-10.0601 31.97998,-64.4101 z m 124.49024,131.6201 c -6.62012,3.6201 -14.22998,5.6799 -22.32031,5.6799 -8.08985,0 -15.69971,-2.0698 -22.32959,-5.6899 -14.4502,-7.9099 -24.25,-23.26 -24.25,-40.8899 0,-2.3601 0.17968,-4.6702 0.51953,-6.9302 3.34033,-22.4399 22.70019,-39.6499 46.06006,-39.6499 23.38037,0 42.72021,17.2 46.07031,39.6399 0.33984,2.26 0.52002,4.5801 0.52002,6.9402 0,17.6399 -9.81006,32.99 -24.27002,40.8999 z m 38.06006,-76.6699 -9.15039,3.7998 c -0.65967,-1.0699 -1.35987,-2.0999 -2.08008,-3.1199 l 10.86035,-10.8601 -14.05029,-14.0598 -10.86963,10.8698 c -1.02002,-0.7299 -2.0503,-1.4299 -3.11035,-2.08 l 5.87988,-14.2 -18.35987,-7.6098 -5.87988,14.1999 c -1.20996,-0.28 -2.43994,-0.53 -3.68017,-0.73 v -15.3601 h -19.86963 v 15.3601 c -1.24024,0.2 -2.46045,0.45 -3.68018,0.73 l -5.87988,-14.1999 -18.3501,7.6098 5.87012,14.2 c -1.06006,0.6501 -2.09033,1.3501 -3.1001,2.08 l -10.87988,-10.8698 -14.0503,14.0598 10.87012,10.8601 c -0.72021,1.02 -1.41992,2.05 -2.08984,3.1199 l -9.17041,-3.7998 -20.81983,-41.9502 h 162.41993 z"
   id="path4936"
   style="fill:#e2bd4d;fill-opacity:1"
   inkscape:connector-curvature="0" />
	<polygon
   points="783.57678,3557.6785 739.86682,3625.8984 820.88684,3625.8984 810.62659,3607.1384 839.17688,3591.5283 822.3468,3560.7485 793.797,3576.3584 "
   id="polygon4938"
   style="fill:#e2bd4d;fill-opacity:1" />
	<polygon
   points="660.79211,3607.1384 650.53186,3625.8984 731.55188,3625.8984 687.84192,3557.6785 677.6217,3576.3584 649.0719,3560.7485 632.24182,3591.5283 "
   id="polygon4940"
   style="fill:#e2bd4d;fill-opacity:1" />
	<path
   d="m 735.70959,3525.844 c 8.31055,0 15.04737,-6.7371 15.04737,-15.0479 0,-8.3105 -6.73682,-15.0476 -15.04737,-15.0476 -8.31103,0 -15.04785,6.7371 -15.04785,15.0476 0,8.3108 6.73682,15.0479 15.04785,15.0479 z"
   id="path4942"
   style="fill:#e2bd4d;fill-opacity:1"
   inkscape:connector-curvature="0" />
</g>











































</svg>