<?xml version="1.0" encoding="UTF-8" standalone="no"?>
<!-- Created with Inkscape (http://www.inkscape.org/) -->

<svg
   xmlns:dc="http://purl.org/dc/elements/1.1/"
   xmlns:cc="http://creativecommons.org/ns#"
   xmlns:rdf="http://www.w3.org/1999/02/22-rdf-syntax-ns#"
   xmlns:svg="http://www.w3.org/2000/svg"
   xmlns="http://www.w3.org/2000/svg"
   xmlns:sodipodi="http://sodipodi.sourceforge.net/DTD/sodipodi-0.dtd"
   xmlns:inkscape="http://www.inkscape.org/namespaces/inkscape"
   width="51.560452mm"
   height="51.56041mm"
   viewBox="0 0 51.560452 51.56041"
   version="1.1"
   id="svg883"
   inkscape:version="0.92.4 (f8dce91, 2019-08-02)"
   sodipodi:docname="industrial_economics.svg">
  <defs
     id="defs877" />
  <sodipodi:namedview
     id="base"
     pagecolor="#ffffff"
     bordercolor="#666666"
     borderopacity="1.0"
     inkscape:pageopacity="0.0"
     inkscape:pageshadow="2"
     inkscape:zoom="0.35"
     inkscape:cx="-4.4391878"
     inkscape:cy="230.02683"
     inkscape:document-units="mm"
     inkscape:current-layer="layer1"
     showgrid="false"
     inkscape:window-width="446"
     inkscape:window-height="439"
     inkscape:window-x="1255"
     inkscape:window-y="1048"
     inkscape:window-maximized="0" />
  <metadata
     id="metadata880">
    <rdf:RDF>
      <cc:Work
         rdf:about="">
        <dc:format>image/svg+xml</dc:format>
        <dc:type
           rdf:resource="http://purl.org/dc/dcmitype/StillImage" />
        <dc:title></dc:title>
      </cc:Work>
    </rdf:RDF>
  </metadata>
  <g
     inkscape:label="Layer 1"
     inkscape:groupmode="layer"
     id="layer1"
     transform="translate(-107.00787,-158.13419)">
    <path
       inkscape:connector-curvature="0"
       d="m 150.83745,181.54238 v 7.48241 l -14.49387,14.49655 -11.45118,-11.45119 -4.11956,4.12488 -5.87639,-5.87637 v -7.48509 l 5.87639,5.8764 4.11956,-4.12488 11.45118,11.45381 z m 4.0434,18.68807 h -1.70912 v 5.40846 h -4.06779 v 0.36819 c 0,0.58447 0.47383,1.05834 1.05834,1.05834 h 4.71857 c 0.58451,0 1.05833,-0.47387 1.05833,-1.05834 v -4.71831 c 0,-0.58455 -0.47382,-1.05834 -1.05833,-1.05834 z m -13.67022,5.40846 v 0.36819 c 0,0.58447 0.47382,1.05834 1.05833,1.05834 h 4.71832 c 0.58451,0 1.05833,-0.47387 1.05833,-1.05834 v -0.36819 z m 13.67022,-36.98224 h -3.1651 v 6.83524 h 3.1651 c 0.58451,0 1.05833,-0.47387 1.05833,-1.05833 V 169.715 c 0,-0.58452 -0.47382,-1.05833 -1.05833,-1.05833 z m 0,23.68021 h -1.70912 v 6.83524 h 1.70912 c 0.58451,0 1.05833,-0.47387 1.05833,-1.05833 v -4.71858 c 0,-0.58452 -0.47382,-1.05833 -1.05833,-1.05833 z m 0,-15.78663 h -3.1651 v 1.00555 h 1.45598 v 5.82943 h 1.70912 c 0.58451,0 1.05833,-0.47387 1.05833,-1.05834 v -4.71831 c 0,-0.58454 -0.47382,-1.05833 -1.05833,-1.05833 z m -15.78689,-7.89358 h -1.93795 v 6.83524 h 1.93795 c 0.58451,0 1.05833,-0.47387 1.05833,-1.05833 V 169.715 c 0,-0.58452 -0.47382,-1.05833 -1.05833,-1.05833 z m 15.78689,15.78689 h -1.70912 v 6.83498 h 1.70912 c 0.58451,0 1.05833,-0.47387 1.05833,-1.05833 v -4.71832 c 0,-0.58451 -0.47382,-1.05833 -1.05833,-1.05833 z m -21.56354,21.19535 v 0.36819 c 0,0.58447 0.47383,1.05834 1.05833,1.05834 h 4.71832 c 0.58451,0 1.05833,-0.47387 1.05833,-1.05834 v -0.36819 z m -10.01024,-36.98224 h -0.71079 v 6.83524 h 0.71079 c 0.58451,0 1.05833,-0.47387 1.05833,-1.05833 V 169.715 c 0,-0.58452 -0.47382,-1.05833 -1.05833,-1.05833 z m 0,7.89358 h -0.71079 v 1.00555 h 1.45598 v 4.5779 h 0.31314 v -4.52512 c 0,-0.58454 -0.47382,-1.05833 -1.05833,-1.05833 z m 15.78689,0 h -1.93795 v 1.00555 h 1.45599 v 4.5779 h 1.54029 v -4.52512 c 0,-0.58454 -0.47382,-1.05833 -1.05833,-1.05833 z m -21.56354,29.08866 v 0.36819 c 0,0.58447 0.47382,1.05834 1.05833,1.05834 h 4.71832 c 0.58451,0 1.05833,-0.47387 1.05833,-1.05834 v -0.36819 z m 34.18533,-41.93207 v 3.89149 h 3.1651 c 0.58451,0 1.05833,-0.47384 1.05833,-1.05833 v -4.71831 c 0,-0.58452 -0.47382,-1.05834 -1.05833,-1.05834 h -4.71857 c -0.58451,0 -1.05834,0.47382 -1.05834,1.05834 v 1.88515 z m -26.29201,41.93207 v 0.36819 c 0,0.58447 0.47382,1.05834 1.05833,1.05834 h 4.71857 c 0.58451,0 1.05834,-0.47387 1.05834,-1.05834 v -0.36819 z m -14.72831,-14.36037 h 1.70903 v -6.83498 h -1.70903 c -0.5845,0 -1.05833,0.47382 -1.05833,1.05833 v 4.71832 c 0,0.58446 0.47383,1.05833 1.05833,1.05833 z m 31.57353,-23.68021 h 0.71094 v -3.89149 h 5.06571 v -1.88515 c 0,-0.58452 -0.47382,-1.05834 -1.05833,-1.05834 h -4.71832 c -0.58451,0 -1.05833,0.47382 -1.05833,1.05834 V 166.54 c 0,0.58449 0.47382,1.05833 1.05833,1.05833 z m -31.57353,7.89358 h 3.16499 v -6.83524 h -3.16499 c -0.5845,0 -1.05833,0.47381 -1.05833,1.05833 v 4.71858 c 0,0.58446 0.47383,1.05833 1.05833,1.05833 z m 0,-7.89358 h 3.16499 v -3.89149 h 2.61167 v -1.88515 c 0,-0.58452 -0.47383,-1.05834 -1.05834,-1.05834 h -4.71832 c -0.5845,0 -1.05833,0.47382 -1.05833,1.05834 V 166.54 c 0,0.58449 0.47383,1.05833 1.05833,1.05833 z m 0,39.46711 h 4.71832 c 0.58451,0 1.05834,-0.47387 1.05834,-1.05834 v -0.36819 h -4.06763 v -5.40846 h -1.70903 c -0.5845,0 -1.05833,0.47379 -1.05833,1.05834 v 4.71831 c 0,0.58447 0.47383,1.05834 1.05833,1.05834 z m 47.87289,-47.87292 v 49.44375 c 0,0.58446 -0.47382,1.05833 -1.05833,1.05833 H 108.0662 c -0.58451,0 -1.05833,-0.47387 -1.05833,-1.05833 v -49.44375 c 0,-0.58454 0.47382,-1.05833 1.05833,-1.05833 h 49.44379 c 0.58451,0 1.05833,0.47379 1.05833,1.05833 z m -1.5708,0.5125 h -48.41875 v 48.41875 h 48.41875 z m -46.30209,39.4671 h 1.70903 v -6.83524 h -1.70903 c -0.5845,0 -1.05833,0.47381 -1.05833,1.05833 v 4.71858 c 0,0.58446 0.47383,1.05833 1.05833,1.05833 z m 11.90085,-35.46528 v 3.89149 h 0.71079 c 0.58451,0 1.05833,-0.47384 1.05833,-1.05833 v -4.71831 c 0,-0.58452 -0.47382,-1.05834 -1.05833,-1.05834 h -4.71832 c -0.58451,0 -1.05833,0.47382 -1.05833,1.05834 v 1.88515 z m -11.90085,19.67839 h 1.70903 v -5.82943 h 1.45596 v -1.00555 h -3.16499 c -0.5845,0 -1.05833,0.47379 -1.05833,1.05833 v 4.71831 c 0,0.58447 0.47383,1.05834 1.05833,1.05834 z m 30.8285,-1.25153 v -4.5779 h 1.45597 v -1.00555 h -0.71094 c -0.58451,0 -1.05833,0.47379 -1.05833,1.05833 v 4.52512 z m -4.36792,-18.42686 v 3.89149 h 1.93795 c 0.58451,0 1.05833,-0.47384 1.05833,-1.05833 v -4.71831 c 0,-0.58452 -0.47382,-1.05834 -1.05833,-1.05834 h -4.71832 c -0.5845,0 -1.05833,0.47382 -1.05833,1.05834 v 1.88515 z m -10.19182,18.42686 v -4.5779 h 1.45597 v -1.00555 h -1.93809 c -0.58451,0 -1.05833,0.47379 -1.05833,1.05833 v 4.52512 z m 15.30477,-6.64179 h 0.71094 v -6.83524 h -0.71094 c -0.58451,0 -1.05833,0.47381 -1.05833,1.05833 v 4.71858 c 0,0.58446 0.47382,1.05833 1.05833,1.05833 z m -15.78689,-7.89358 h 1.93809 v -3.89149 h 3.83882 v -1.88515 c 0,-0.58452 -0.47383,-1.05834 -1.05834,-1.05834 h -4.71857 c -0.58451,0 -1.05833,0.47382 -1.05833,1.05834 V 166.54 c 0,0.58449 0.47382,1.05833 1.05833,1.05833 z m 0,7.89358 h 1.93809 v -6.83524 h -1.93809 c -0.58451,0 -1.05833,0.47381 -1.05833,1.05833 v 4.71858 c 0,0.58446 0.47382,1.05833 1.05833,1.05833 z"
       id="path4154"
       style="fill:#e2bd4d;fill-opacity:1;stroke-width:0.26458332" />
  </g>
</svg>
