<?xml version="1.0" encoding="UTF-8" standalone="no"?>
<!-- Created with Inkscape (http://www.inkscape.org/) -->

<svg
   xmlns:dc="http://purl.org/dc/elements/1.1/"
   xmlns:cc="http://creativecommons.org/ns#"
   xmlns:rdf="http://www.w3.org/1999/02/22-rdf-syntax-ns#"
   xmlns:svg="http://www.w3.org/2000/svg"
   xmlns="http://www.w3.org/2000/svg"
   xmlns:sodipodi="http://sodipodi.sourceforge.net/DTD/sodipodi-0.dtd"
   xmlns:inkscape="http://www.inkscape.org/namespaces/inkscape"
   width="46.891697mm"
   height="51.927128mm"
   viewBox="0 0 46.891699 51.927129"
   version="1.1"
   id="svg883"
   inkscape:version="0.92.4 (f8dce91, 2019-08-02)"
   sodipodi:docname="intellectual_integrity.svg">
  <defs
     id="defs877" />
  <sodipodi:namedview
     id="base"
     pagecolor="#ffffff"
     bordercolor="#666666"
     borderopacity="1.0"
     inkscape:pageopacity="0.0"
     inkscape:pageshadow="2"
     inkscape:zoom="0.35"
     inkscape:cx="353.01974"
     inkscape:cy="-8.0850219"
     inkscape:document-units="mm"
     inkscape:current-layer="layer1"
     showgrid="false"
     inkscape:window-width="446"
     inkscape:window-height="440"
     inkscape:window-x="1255"
     inkscape:window-y="1048"
     inkscape:window-maximized="0" />
  <metadata
     id="metadata880">
    <rdf:RDF>
      <cc:Work
         rdf:about="">
        <dc:format>image/svg+xml</dc:format>
        <dc:type
           rdf:resource="http://purl.org/dc/dcmitype/StillImage" />
        <dc:title></dc:title>
      </cc:Work>
    </rdf:RDF>
  </metadata>
  <g
     inkscape:label="Layer 1"
     inkscape:groupmode="layer"
     id="layer1"
     transform="translate(42.639876,-39.751237)">
    <g
       transform="matrix(0.26458333,0,0,0.26458333,-705.3387,-40.459636)"
       id="g4344"
       style="fill:#90ae50;fill-opacity:1">
      <path
         inkscape:connector-curvature="0"
         d="m 2551.9387,363.06424 c -1.0544,3.76977 -1.6304,7.73914 -1.6304,11.84497 0,16.34918 8.9459,30.60437 22.2029,38.15967 l 14.7161,-14.71601 z"
         id="path4332"
         style="fill:#90ae50;fill-opacity:1" />
      <path
         transform="rotate(-44.999903,2593.5372,373.80827)"
         style="fill:#90ae50;fill-opacity:1"
         d="m 2581.7197,360.91443 h 23.6353 v 25.78784 h -23.6353 z"
         id="rect4334"
         inkscape:connector-curvature="0" />
      <path
         inkscape:connector-curvature="0"
         d="m 2603.064,331.90524 c -2.8633,-0.58722 -5.8284,-0.89599 -8.8658,-0.89599 -16.2995,0 -30.5129,8.89636 -38.0827,22.09015 l 12.8769,12.87701 z"
         id="path4336"
         style="fill:#90ae50;fill-opacity:1" />
      <path
         inkscape:connector-curvature="0"
         d="m 2582.5017,417.22006 c 3.7254,1.02838 7.6443,1.58917 11.6965,1.58917 16.534,0 30.9231,-9.14349 38.4102,-22.64251 l -14.5266,-14.52667 z"
         id="path4338"
         style="fill:#90ae50;fill-opacity:1" />
      <path
         inkscape:connector-curvature="0"
         d="m 2613.5891,335.5217 -13.7422,13.74219 36.8133,36.81304 c 0.9357,-3.56646 1.4382,-7.30816 1.4382,-11.16772 0,-17.27985 -9.9898,-32.22546 -24.5093,-39.38751 z"
         id="path4340"
         style="fill:#90ae50;fill-opacity:1" />
      <path
         inkscape:connector-curvature="0"
         d="m 2681.1084,403.18924 -14.1501,-25.60004 v -7.20001 c 0,-37.12994 -33.2801,-67.22998 -74.3199,-67.22998 -41.04,0 -74.32,30.10004 -74.32,67.22998 0,20.02002 9.6699,37.99005 25.02,50.30005 v 40.07996 l -38.6499,38.65002 h 131.0598 l -22.8599,-22.84998 v -3.98004 h 50.5899 v -31.75 h -18.75 v -7.92999 h 18.75 v -17.46997 h 8.75 c 3.24,0 6.25,-1.67999 7.9402,-4.41003 l 0.7597,-1.21998 c 1.25,-2.01001 1.3201,-4.54003 0.1802,-6.61999 z m -86.9102,26.25 c -30.1098,0 -54.5297,-24.41003 -54.5297,-54.53003 0,-30.11999 24.4199,-54.52997 54.5297,-54.52997 30.1202,0 54.5401,24.40997 54.5401,54.52997 0,30.12 -24.4199,54.53003 -54.5401,54.53003 z"
         id="path4342"
         style="fill:#90ae50;fill-opacity:1" />
    </g>
  </g>
</svg>
