<?xml version="1.0" encoding="UTF-8" standalone="no"?>
<!-- Generator: Adobe Illustrator 22.1.0, SVG Export Plug-In . SVG Version: 6.00 Build 0)  -->

<svg
   xmlns:dc="http://purl.org/dc/elements/1.1/"
   xmlns:cc="http://creativecommons.org/ns#"
   xmlns:rdf="http://www.w3.org/1999/02/22-rdf-syntax-ns#"
   xmlns:svg="http://www.w3.org/2000/svg"
   xmlns="http://www.w3.org/2000/svg"
   xmlns:sodipodi="http://sodipodi.sourceforge.net/DTD/sodipodi-0.dtd"
   xmlns:inkscape="http://www.inkscape.org/namespaces/inkscape"
   version="1.1"
   id="Layer_2_1_"
   x="0px"
   y="0px"
   viewBox="0 0 191.03365 191.0337"
   enable-background="new 0 0 3947.9399414 3860.8613281"
   xml:space="preserve"
   sodipodi:docname="matter_compression.svg"
   inkscape:version="0.92.4 (5da689c313, 2019-01-14)"
   width="191.03365"
   height="191.03371"><metadata
   id="metadata5465"><rdf:RDF><cc:Work
       rdf:about=""><dc:format>image/svg+xml</dc:format><dc:type
         rdf:resource="http://purl.org/dc/dcmitype/StillImage" /><dc:title></dc:title></cc:Work></rdf:RDF></metadata><defs
   id="defs5463" /><sodipodi:namedview
   pagecolor="#ffffff"
   bordercolor="#666666"
   borderopacity="1"
   objecttolerance="10"
   gridtolerance="10"
   guidetolerance="10"
   inkscape:pageopacity="0"
   inkscape:pageshadow="2"
   inkscape:window-width="1920"
   inkscape:window-height="1022"
   id="namedview5461"
   showgrid="false"
   inkscape:zoom="0.21212883"
   inkscape:cx="221.37416"
   inkscape:cy="188.22232"
   inkscape:window-x="1079"
   inkscape:window-y="709"
   inkscape:window-maximized="1"
   inkscape:current-layer="Layer_2_1_" />











































































































































<g
   id="g4984"
   style="fill:#e1561c;fill-opacity:1"
   transform="translate(-640.1925,-2292.3081)">
	<circle
   cx="735.70935"
   cy="2387.825"
   r="9.5"
   id="circle4968"
   style="fill:#e1561c;fill-opacity:1" />
	<path
   d="m 735.70935,2369.9917 c -4.56396,0 -9.12793,1.741 -12.61011,5.2231 -6.96435,6.9644 -6.96435,18.2559 0,25.2203 3.48218,3.4821 8.04615,5.2231 12.61011,5.2231 4.5639,0 9.12787,-1.741 12.61005,-5.2231 6.96435,-6.9644 6.96435,-18.2559 0,-25.2203 -3.48218,-3.4821 -8.04615,-5.2231 -12.61005,-5.2231 z m 9.07452,26.9077 c -2.42388,2.4241 -5.6466,3.7588 -9.07452,3.7588 -3.42792,0 -6.6507,-1.3347 -9.07458,-3.7588 -5.00373,-5.0036 -5.00373,-13.1452 0,-18.1489 2.42388,-2.4241 5.64666,-3.7588 9.07458,-3.7588 3.42792,0 6.65064,1.3347 9.07452,3.7588 5.00373,5.0037 5.00373,13.1453 0,18.1489 z"
   id="path4970"
   style="fill:#e1561c;fill-opacity:1"
   inkscape:connector-curvature="0" />
	<path
   d="m 757.74493,2365.7893 c -6.08496,-6.085 -14.0603,-9.1274 -22.03564,-9.1274 -7.97528,0 -15.95062,3.0424 -22.03558,9.1274 -12.16999,12.1699 -12.16999,31.9014 0,44.0713 6.08496,6.085 14.0603,9.1274 22.03558,9.1274 7.97534,0 15.95068,-3.0424 22.03564,-9.1274 12.16999,-12.1699 12.16999,-31.9014 0,-44.0713 z m -3.53552,40.5357 c -4.94159,4.9416 -11.51166,7.663 -18.50006,7.663 -6.98846,0 -13.55853,-2.7214 -18.50012,-7.663 -4.94159,-4.9415 -7.66303,-11.5115 -7.66303,-18.5 0,-6.9886 2.72144,-13.5586 7.66303,-18.5 4.94159,-4.9417 11.51166,-7.6631 18.50012,-7.6631 6.9884,0 13.55847,2.7214 18.50006,7.6631 4.94159,4.9414 7.66303,11.5114 7.66303,18.5 0,6.9885 -2.72144,13.5585 -7.66303,18.5 z"
   id="path4972"
   style="fill:#e1561c;fill-opacity:1"
   inkscape:connector-curvature="0" />
	<path
   d="m 765.11597,2358.4182 c -8.12043,-8.1203 -18.76355,-12.1804 -29.40662,-12.1804 -10.64313,0 -21.28625,4.0601 -29.40662,12.1804 -16.24084,16.241 -16.24084,42.5725 0,58.8132 8.12037,8.1204 18.76349,12.1807 29.40662,12.1807 10.64307,0 21.28619,-4.0603 29.40662,-12.1807 16.24078,-16.2407 16.24078,-42.5722 0,-58.8132 z m -29.40662,65.9939 c -9.77283,0 -18.96069,-3.8057 -25.87109,-10.7163 -14.26532,-14.2651 -14.26532,-37.4766 0,-51.7419 6.9104,-6.9104 16.09826,-10.7164 25.87109,-10.7164 9.77277,0 18.96069,3.806 25.87109,10.7164 14.26526,14.2653 14.26526,37.4768 0,51.7421 -6.91046,6.9104 -16.09832,10.7161 -25.87109,10.7161 z"
   id="path4974"
   style="fill:#e1561c;fill-opacity:1"
   inkscape:connector-curvature="0" />
	<path
   d="m 821.94611,2349.6099 -9.09998,-9.1001 18.38001,-18.3899 -27.52002,-27.52 -21.45002,21.4499 -9.09997,-9.0998 -26.75,26.75 45.71997,45.7299 z m -46.93,-25.99 27.20002,27.1899 -27.40003,0.2 z"
   id="path4976"
   style="fill:#e1561c;fill-opacity:1"
   inkscape:connector-curvature="0" />
	<path
   d="m 654.83435,2350.3782 26.75,26.75 45.72998,-45.72 -29.82007,-29.8201 -9.10009,9.0999 -18.3899,-18.3799 -27.52002,27.52 21.44995,21.45 z m 43.85986,-29.0601 0.19996,27.4002 -27.3899,-0.2002 z"
   id="path4978"
   style="fill:#e1561c;fill-opacity:1"
   inkscape:connector-curvature="0" />
	<path
   d="m 816.58429,2425.2717 -26.75,-26.75 -45.72998,45.72 29.82007,29.8201 9.1001,-9.1001 18.38989,18.3801 27.52002,-27.52 -21.44995,-21.4502 z m -43.85986,29.0601 -0.19995,-27.4002 27.38989,0.2002 z"
   id="path4980"
   style="fill:#e1561c;fill-opacity:1"
   inkscape:connector-curvature="0" />
	<path
   d="m 649.47253,2426.04 9.09998,9.1001 -18.38001,18.3899 27.52002,27.52 21.45002,-21.4499 9.09997,9.0999 26.75,-26.75 -45.71997,-45.73 z m 46.93,25.99 -27.20002,-27.1899 27.40003,-0.2 z"
   id="path4982"
   style="fill:#e1561c;fill-opacity:1"
   inkscape:connector-curvature="0" />
</g>







































</svg>