<?xml version="1.0" encoding="UTF-8" standalone="no"?>
<!-- Generator: Adobe Illustrator 22.1.0, SVG Export Plug-In . SVG Version: 6.00 Build 0)  -->

<svg
   xmlns:dc="http://purl.org/dc/elements/1.1/"
   xmlns:cc="http://creativecommons.org/ns#"
   xmlns:rdf="http://www.w3.org/1999/02/22-rdf-syntax-ns#"
   xmlns:svg="http://www.w3.org/2000/svg"
   xmlns="http://www.w3.org/2000/svg"
   xmlns:sodipodi="http://sodipodi.sourceforge.net/DTD/sodipodi-0.dtd"
   xmlns:inkscape="http://www.inkscape.org/namespaces/inkscape"
   version="1.1"
   id="Layer_2_1_"
   x="0px"
   y="0px"
   viewBox="0 0 206.07999 181.75"
   enable-background="new 0 0 3947.9399414 3860.8613281"
   xml:space="preserve"
   sodipodi:docname="matter_transmission.svg"
   inkscape:version="0.92.4 (5da689c313, 2019-01-14)"
   width="206.08"
   height="181.75"><metadata
   id="metadata5465"><rdf:RDF><cc:Work
       rdf:about=""><dc:format>image/svg+xml</dc:format><dc:type
         rdf:resource="http://purl.org/dc/dcmitype/StillImage" /><dc:title></dc:title></cc:Work></rdf:RDF></metadata><defs
   id="defs5463" /><sodipodi:namedview
   pagecolor="#ffffff"
   bordercolor="#666666"
   borderopacity="1"
   objecttolerance="10"
   gridtolerance="10"
   guidetolerance="10"
   inkscape:pageopacity="0"
   inkscape:pageshadow="2"
   inkscape:window-width="1920"
   inkscape:window-height="1022"
   id="namedview5461"
   showgrid="false"
   inkscape:zoom="0.21212883"
   inkscape:cx="-2557.4929"
   inkscape:cy="1033.0655"
   inkscape:window-x="1079"
   inkscape:window-y="709"
   inkscape:window-maximized="1"
   inkscape:current-layer="Layer_2_1_" />




































































































































































<g
   id="g5256"
   style="fill:#e2bd4d;fill-opacity:1"
   transform="translate(-3419.0596,-2580.741)">
	<path
   d="m 3419.0596,2656.571 v 30.0899 h 61.1401 c -0.76,-2.8699 -1.22,-6.1799 -1.22,-10.1099 0,-9.3901 2.6299,-15.25 5.5899,-19.98 z"
   id="path5246"
   style="fill:#e2bd4d;fill-opacity:1"
   inkscape:connector-curvature="0" />
	<path
   d="m 3625.1396,2671.6208 -59.04,-51.77 v 36.7202 h -15.53 c -2.96,4.73 -5.5899,10.5899 -5.5899,19.98 0,3.93 0.46,7.24 1.22,10.1099 h 19.8999 v 36.7202 z"
   id="path5248"
   style="fill:#e2bd4d;fill-opacity:1"
   inkscape:connector-curvature="0" />
	<path
   d="m 3509.0195,2737.3811 c 3.4602,-5.0503 6.4602,-9.4102 6.4602,-18.5801 0,-9.1699 -3,-13.53 -6.4602,-18.5801 -3.7697,-5.4899 -8.0398,-11.7099 -8.0398,-23.6699 0,-11.9599 4.2701,-18.1802 8.0398,-23.6699 3.4602,-5.0503 6.4602,-9.4102 6.4602,-18.5801 0,-9.1699 -3,-13.53 -6.4602,-18.5801 -3.7697,-5.4899 -8.0398,-11.7099 -8.0398,-23.6699 0,-4.49 0.5999,-8.1699 1.5498,-11.31 h -10 c -0.9499,3.1401 -1.5498,6.82 -1.5498,11.31 0,11.96 4.2701,18.18 8.0398,23.6699 3.4602,5.0501 6.4602,9.4102 6.4602,18.5801 0,9.1699 -3,13.5298 -6.4602,18.5801 -3.7697,5.4897 -8.0398,11.71 -8.0398,23.6699 0,11.96 4.2701,18.18 8.0398,23.6699 3.4602,5.0501 6.4602,9.4102 6.4602,18.5801 0,9.1699 -3,13.5298 -6.4602,18.5801 -3.7697,5.4897 -8.0398,11.71 -8.0398,23.6699 0,0.49 0.01,0.97 0.02,1.44 h 10 c -0.01,-0.47 -0.02,-0.95 -0.02,-1.44 0,-11.9599 4.2701,-18.1802 8.0398,-23.6699 z"
   id="path5250"
   style="fill:#e2bd4d;fill-opacity:1"
   inkscape:connector-curvature="0" />
	<path
   d="m 3525.0195,2737.3811 c 3.4602,-5.0503 6.4602,-9.4102 6.4602,-18.5801 0,-9.1699 -3,-13.53 -6.4602,-18.5801 -3.7697,-5.4899 -8.0398,-11.7099 -8.0398,-23.6699 0,-11.9599 4.2701,-18.1802 8.0398,-23.6699 3.4602,-5.0503 6.4602,-9.4102 6.4602,-18.5801 0,-9.1699 -3,-13.53 -6.4602,-18.5801 -3.7697,-5.4899 -8.0398,-11.7099 -8.0398,-23.6699 0,-4.49 0.5999,-8.1699 1.5498,-11.31 h -10 c -0.9499,3.1401 -1.5498,6.82 -1.5498,11.31 0,11.96 4.2701,18.18 8.0398,23.6699 3.4602,5.0501 6.4602,9.4102 6.4602,18.5801 0,9.1699 -3,13.5298 -6.4602,18.5801 -3.7697,5.4897 -8.0398,11.71 -8.0398,23.6699 0,11.96 4.2701,18.18 8.0398,23.6699 3.4602,5.0501 6.4602,9.4102 6.4602,18.5801 0,9.1699 -3,13.5298 -6.4602,18.5801 -3.7697,5.4897 -8.0398,11.71 -8.0398,23.6699 0,0.49 0.01,0.97 0.02,1.44 h 10 c -0.01,-0.47 -0.02,-0.95 -0.02,-1.44 0,-11.9599 4.2701,-18.1802 8.0398,-23.6699 z"
   id="path5252"
   style="fill:#e2bd4d;fill-opacity:1"
   inkscape:connector-curvature="0" />
	<path
   d="m 3532.9797,2676.551 c 0,-11.9599 4.2701,-18.1802 8.0398,-23.6699 3.4602,-5.0503 6.4602,-9.4102 6.4602,-18.5801 0,-9.1699 -3,-13.53 -6.4602,-18.5801 -3.7697,-5.4899 -8.0398,-11.7099 -8.0398,-23.6699 0,-4.49 0.5999,-8.1699 1.5498,-11.31 h -10 c -0.9499,3.1401 -1.5498,6.82 -1.5498,11.31 0,11.96 4.2701,18.18 8.0398,23.6699 3.4602,5.0501 6.4602,9.4102 6.4602,18.5801 0,9.1699 -3,13.5298 -6.4602,18.5801 -3.7697,5.4897 -8.0398,11.71 -8.0398,23.6699 0,11.96 4.2701,18.18 8.0398,23.6699 3.4602,5.0501 6.4602,9.4102 6.4602,18.5801 0,9.1699 -3,13.5298 -6.4602,18.5801 -3.7697,5.4897 -8.0398,11.71 -8.0398,23.6699 0,0.49 0.01,0.97 0.02,1.44 h 10 c -0.01,-0.47 -0.02,-0.95 -0.02,-1.44 0,-11.9599 4.2701,-18.1802 8.0398,-23.6699 3.4602,-5.0503 6.4602,-9.4102 6.4602,-18.5801 0,-9.1699 -3,-13.53 -6.4602,-18.5801 -3.7697,-5.4899 -8.0398,-11.7099 -8.0398,-23.6699 z"
   id="path5254"
   style="fill:#e2bd4d;fill-opacity:1"
   inkscape:connector-curvature="0" />
</g>














</svg>