<?xml version="1.0" encoding="UTF-8" standalone="no"?>
<!-- Generator: Adobe Illustrator 22.1.0, SVG Export Plug-In . SVG Version: 6.00 Build 0)  -->

<svg
   xmlns:dc="http://purl.org/dc/elements/1.1/"
   xmlns:cc="http://creativecommons.org/ns#"
   xmlns:rdf="http://www.w3.org/1999/02/22-rdf-syntax-ns#"
   xmlns:svg="http://www.w3.org/2000/svg"
   xmlns="http://www.w3.org/2000/svg"
   xmlns:sodipodi="http://sodipodi.sourceforge.net/DTD/sodipodi-0.dtd"
   xmlns:inkscape="http://www.inkscape.org/namespaces/inkscape"
   version="1.1"
   id="Layer_2_1_"
   x="0px"
   y="0px"
   viewBox="0 0 203.97998 203.96997"
   enable-background="new 0 0 3947.9399414 3860.8613281"
   xml:space="preserve"
   sodipodi:docname="n_space_compression.svg"
   inkscape:version="0.92.4 (5da689c313, 2019-01-14)"
   width="203.97998"
   height="203.96997"><metadata
   id="metadata5465"><rdf:RDF><cc:Work
       rdf:about=""><dc:format>image/svg+xml</dc:format><dc:type
         rdf:resource="http://purl.org/dc/dcmitype/StillImage" /><dc:title></dc:title></cc:Work></rdf:RDF></metadata><defs
   id="defs5463" /><sodipodi:namedview
   pagecolor="#ffffff"
   bordercolor="#666666"
   borderopacity="1"
   objecttolerance="10"
   gridtolerance="10"
   guidetolerance="10"
   inkscape:pageopacity="0"
   inkscape:pageshadow="2"
   inkscape:window-width="1920"
   inkscape:window-height="1022"
   id="namedview5461"
   showgrid="false"
   inkscape:zoom="0.21212883"
   inkscape:cx="-124.17862"
   inkscape:cy="1088.4901"
   inkscape:window-x="1079"
   inkscape:window-y="709"
   inkscape:window-maximized="1"
   inkscape:current-layer="Layer_2_1_" />


































































































































<g
   id="g4898"
   style="fill:#e1561c;fill-opacity:1"
   transform="translate(-943.31824,-3137.2126)">
	<circle
   cx="1045.3094"
   cy="3239.1995"
   r="8.75"
   id="circle4880"
   style="fill:#e1561c;fill-opacity:1" />
	<path
   d="m 1045.3085,3225.6526 c -7.4805,0 -13.5401,6.0701 -13.5401,13.55 0,7.48 6.0596,13.5401 13.5401,13.5401 7.48,0 13.5498,-6.0601 13.5498,-13.5401 0,-7.4799 -6.0698,-13.55 -13.5498,-13.55 z m 0,23.5901 c -5.5401,0 -10.0401,-4.5 -10.0401,-10.0401 0,-5.54 4.5,-10.05 10.0401,-10.05 5.54,0 10.0498,4.51 10.0498,10.05 0,5.5401 -4.5098,10.0401 -10.0498,10.0401 z"
   id="path4882"
   style="fill:#e1561c;fill-opacity:1"
   inkscape:connector-curvature="0" />
	<path
   d="m 1045.3085,3218.2825 c -11.5503,0 -20.9102,9.3701 -20.9102,20.9201 0,11.5498 9.3599,20.9099 20.9102,20.9099 11.5498,0 20.9199,-9.3601 20.9199,-20.9099 0,-11.55 -9.3701,-20.9201 -20.9199,-20.9201 z m 0,39.83 c -10.4302,0 -18.9102,-8.4799 -18.9102,-18.9099 0,-10.4301 8.48,-18.9201 18.9102,-18.9201 10.4297,0 18.9199,8.49 18.9199,18.9201 0,10.43 -8.4902,18.9099 -18.9199,18.9099 z"
   id="path4884"
   style="fill:#e1561c;fill-opacity:1"
   inkscape:connector-curvature="0" />
	<path
   d="m 1045.3085,3209.9927 c -16.1304,0 -29.2002,13.0798 -29.2002,29.2099 0,16.1299 13.0698,29.2 29.2002,29.2 16.1299,0 29.1997,-13.0701 29.1997,-29.2 0,-16.1301 -13.0698,-29.2099 -29.1997,-29.2099 z m 0,56.4099 c -15,0 -27.2002,-12.2 -27.2002,-27.2 0,-15 12.2002,-27.2099 27.2002,-27.2099 15,0 27.1997,12.2099 27.1997,27.2099 0,15 -12.1997,27.2 -27.1997,27.2 z"
   id="path4886"
   style="fill:#e1561c;fill-opacity:1"
   inkscape:connector-curvature="0" />
	<path
   d="m 1051.9081,3182.9727 v 21.2299 c 14.3603,2.69 25.7002,14.0401 28.4004,28.3899 h 21.23 c -3.0103,-25.99 -23.6402,-46.6098 -49.6304,-49.6198 z m 20.81,28.6699 -2.54,-18.3701 20.9204,20.9101 z m -62.3999,34.1599 H 989.078 c 3.02051,25.99 23.6401,46.6101 49.6304,49.6201 v -21.23 c -14.3599,-2.6902 -25.7002,-14.03 -28.3902,-28.3901 z m -10.79,18.4101 18.3701,2.5499 2.5401,18.3601 z m -10.4502,-31.6201 h 21.2402 c 2.7002,-14.3498 14.0401,-25.6999 28.3902,-28.3899 v -21.2299 c -25.9903,3.01 -46.60989,23.6298 -49.6304,49.6198 z m 28.6704,-20.8 -18.3701,2.54 20.9199,-20.9199 z m 62.5601,34.01 c -2.6905,14.3601 -14.0401,25.6999 -28.4004,28.3901 v 21.23 c 26,-3.01 46.6201,-23.6301 49.6304,-49.6201 z m -9.9903,39.1802 2.5498,-18.3702 18.3702,-2.55 z"
   id="path4888"
   style="fill:#e1561c;fill-opacity:1"
   inkscape:connector-curvature="0" />
	<path
   d="m 1147.1581,3174.2524 -37.0401,-37.0398 -18.4399,18.45 -9.46,-9.46 -27.8501,27.8399 c 29.0103,3.98 51.9703,26.8801 56.0704,55.8501 l 27.7299,-27.74 -9.4502,-9.45 z m -52.5899,15.5401 -4.1899,-30.24 34.4399,34.4302 z"
   id="path4890"
   style="fill:#e1561c;fill-opacity:1"
   inkscape:connector-curvature="0" />
	<path
   d="m 1008.2582,3146.3425 -9.44973,9.45 -18.45019,-18.44 -37.04004,37.0401 18.45019,18.4399 -9.45996,9.46 27.83985,27.8501 c 3.97998,-29.01 26.89018,-51.97 55.85008,-56.0701 z m -12.35988,43.6001 -30.24024,4.19 34.43022,-34.44 z"
   id="path4892"
   style="fill:#e1561c;fill-opacity:1"
   inkscape:connector-curvature="0" />
	<path
   d="m 980.1781,3248.5024 -27.72998,27.7403 9.4502,9.4499 -18.43995,18.45 37.04004,37.04 18.43994,-18.4499 9.45995,9.4599 27.8399,-27.8301 c -29,-3.9899 -51.96977,-26.8898 -56.0601,-55.8601 z m -14.37988,35.9102 30.25,4.1899 4.18998,30.24 z"
   id="path4894"
   style="fill:#e1561c;fill-opacity:1"
   inkscape:connector-curvature="0" />
	<path
   d="m 1128.8485,3285.5725 9.46,-9.46 -27.8404,-27.85 c -3.9799,29 -26.8798,51.9702 -55.8501,56.07 l 27.7403,27.73 9.4502,-9.45 18.4497,18.44 37.04,-37.04 z m -38.3203,33.1401 4.1899,-30.25 30.2403,-4.1901 z"
   id="path4896"
   style="fill:#e1561c;fill-opacity:1"
   inkscape:connector-curvature="0" />
</g>
















































</svg>