<?xml version="1.0" encoding="UTF-8" standalone="no"?>
<!-- Created with Inkscape (http://www.inkscape.org/) -->

<svg
   xmlns:dc="http://purl.org/dc/elements/1.1/"
   xmlns:cc="http://creativecommons.org/ns#"
   xmlns:rdf="http://www.w3.org/1999/02/22-rdf-syntax-ns#"
   xmlns:svg="http://www.w3.org/2000/svg"
   xmlns="http://www.w3.org/2000/svg"
   xmlns:sodipodi="http://sodipodi.sourceforge.net/DTD/sodipodi-0.dtd"
   xmlns:inkscape="http://www.inkscape.org/namespaces/inkscape"
   width="52.810242mm"
   height="52.810223mm"
   viewBox="0 0 52.810242 52.810223"
   version="1.1"
   id="svg883"
   inkscape:version="0.92.4 (f8dce91, 2019-08-02)"
   sodipodi:docname="nonlinear_mathematics.svg">
  <defs
     id="defs877" />
  <sodipodi:namedview
     id="base"
     pagecolor="#ffffff"
     bordercolor="#666666"
     borderopacity="1.0"
     inkscape:pageopacity="0.0"
     inkscape:pageshadow="2"
     inkscape:zoom="0.35"
     inkscape:cx="300"
     inkscape:cy="16.740553"
     inkscape:document-units="mm"
     inkscape:current-layer="layer1"
     showgrid="false"
     inkscape:window-width="446"
     inkscape:window-height="439"
     inkscape:window-x="1255"
     inkscape:window-y="1048"
     inkscape:window-maximized="0" />
  <metadata
     id="metadata880">
    <rdf:RDF>
      <cc:Work
         rdf:about="">
        <dc:format>image/svg+xml</dc:format>
        <dc:type
           rdf:resource="http://purl.org/dc/dcmitype/StillImage" />
        <dc:title></dc:title>
      </cc:Work>
    </rdf:RDF>
  </metadata>
  <g
     inkscape:label="Layer 1"
     inkscape:groupmode="layer"
     id="layer1"
     transform="translate(28.611737,-45.058599)">
    <g
       transform="matrix(0.26458333,0,0,0.26458333,-33.033636,-109.79704)"
       id="g3794"
       style="fill:#e1561c;fill-opacity:1">
      <path
         inkscape:connector-curvature="0"
         d="m 111.03649,677.23505 c -2.46997,1.73004 -4.08996,4.60003 -4.08996,7.85003 0,5.27997 4.27996,9.56 9.56994,9.56 5.28003,0 9.56006,-4.28003 9.56006,-9.56 0,-3.25 -1.61005,-6.11999 -4.08002,-7.85003 -1.54998,-1.07996 -3.44,-1.71997 -5.48004,-1.71997 -2.03998,0 -3.92999,0.64001 -5.47998,1.71997 z"
         id="path3790"
         style="fill:#e1561c;fill-opacity:1" />
      <path
         inkscape:connector-curvature="0"
         d="m 200.4765,688.30505 c -0.09,0.12 -0.15997,0.25 -0.23999,0.38001 -5.09997,8.02002 -11.01001,15.02002 -17.45001,20.94 0.88,-0.82001 1.75,-1.65997 2.60998,-2.51001 17.5,-27.33002 11.44001,-58.56 6.30005,-80.26001 -0.71002,-3.22998 -1.67004,-6.38995 -2.88,-9.45996 -0.02,-0.0501 -0.05,-0.10004 -0.07,-0.13 -4.61999,-10.65003 -12.38,2.42999 -10.58002,10.71997 0.02,0.15002 0.06,0.29004 0.1,0.44 1.78003,8.01001 2.59003,15.90002 2.54004,23.53003 -6.95001,-31.70001 -33.32001,-49.5 -52.29999,-61.21002 -2.79005,-1.77997 -5.70002,-3.33997 -8.73005,-4.65003 -0.05,-0.02 -0.1,-0.04 -0.13995,-0.05 -10.80005,-4.26001 -7.04004,10.48005 0.1,15.07001 0.12,0.09 0.25,0.16004 0.38001,0.23999 6.91998,4.40003 13.08002,9.41004 18.44001,14.84003 -27.33003,-17.5 -58.570016,-11.44 -80.270021,-6.29999 -3.22998,0.70996 -6.390014,1.66998 -9.459961,2.88001 -0.05005,0.03 -0.100036,0.05 -0.130004,0.0699 -10.650025,4.62006 2.429992,12.39002 10.71997,10.58002 0.150025,-0.02 0.289978,-0.06 0.440003,-0.1 8.010009,-1.78003 15.900024,-2.59002 23.530029,-2.54004 -31.700008,6.95002 -49.499996,33.32001 -61.210022,52.30005 -1.780029,2.78998 -3.340027,5.69995 -4.650024,8.72998 -0.01996,0.05 -0.03998,0.1 -0.04999,0.14002 -4.26001,10.79999 10.47998,7.03998 15.070007,-0.10004 0.09003,-0.11999 0.159973,-0.25 0.23999,-0.38 4.401795,-6.91303 9.409851,-13.05249 14.830384,-18.41425 -17.487612,27.32623 -11.429383,58.5484 -6.290345,80.24426 0.719971,3.22998 1.669983,6.39002 2.889954,9.46003 0.02002,0.05 0.04004,0.1 0.06,0.13 4.619995,10.64996 12.390014,-2.42999 10.590026,-10.72003 -0.03003,-0.14996 -0.07001,-0.28998 -0.100036,-0.44 -1.779968,-8.01001 -2.599976,-15.89997 -2.549988,-23.52997 0,-1.94 0.07001,-3.87 0.200012,-5.77002 -0.119995,1.90002 -0.190002,3.83002 -0.200012,5.77002 6.950012,31.70001 33.320007,49.5 52.299988,61.20996 2.79004,1.78003 5.70001,3.34003 8.73004,4.65002 0.05,0.02 0.1,0.04 0.14002,0.05 10.79998,4.26001 7.03997,-10.47998 -0.10004,-15.07001 -0.12,-0.09 -0.25,-0.15997 -0.38001,-0.23999 -8.01995,-5.09997 -15.019954,-11.01001 -20.939998,-17.45001 0.820007,0.88001 1.660034,1.75 2.51001,2.61005 27.330018,17.5 58.559998,11.44 80.260008,6.29999 3.22998,-0.71003 6.39002,-1.67005 9.46002,-2.88001 0.05,-0.03 0.1,-0.05 0.13996,-0.07 10.65002,-4.61999 -2.44001,-12.39001 -10.72998,-10.58001 -0.15003,0.02 -0.28998,0.06 -0.44001,0.10003 -8,1.77997 -15.90002,2.58997 -23.52996,2.53998 -1.90003,0 -3.79004,-0.07 -5.65003,-0.19 1.87,0.11999 3.75,0.17999 5.65003,0.19 31.69995,-6.95001 49.5,-33.32001 61.20996,-52.29999 1.78003,-2.79004 3.34002,-5.70001 4.65002,-8.73004 0.02,-0.05 0.04,-0.1 0.05,-0.13995 4.26001,-10.79999 -10.47998,-7.04004 -15.07001,0.1 z m -8.88,-28.89001 c -0.75,7.58002 -5.84998,51.97003 -30.13001,65.04004 -12.78998,6.42999 -26.28998,9.26001 -38.93,8.15997 31.78004,-0.88 61.66004,-36.19 69.06001,-73.20001 z m -61.01996,25.66003 c 0,7.76001 -6.31007,14.07001 -14.06007,14.07001 -7.75995,0 -14.06994,-6.31 -14.06994,-14.07001 0,-4.76001 2.38,-8.98004 6.00994,-11.52002 2.29004,-1.59997 5.07001,-2.53997 8.06,-2.53997 2.99005,0 5.76001,0.94 8.05005,2.53997 3.63001,2.53998 6.01002,6.76001 6.01002,11.52002 z m -27.83003,-19.71002 c -6.220028,4.35004 -10.299984,11.56 -10.299984,19.71002 0,13.26996 10.799984,24.07001 24.069944,24.07001 13.27003,0 24.06007,-10.80005 24.06007,-24.07001 0,-8.15002 -4.07001,-15.35998 -10.29004,-19.71002 l 2.58002,-3.69 c 7.38,5.16003 12.21002,13.73004 12.21002,23.40002 0,15.76001 -12.81006,28.57001 -28.56007,28.57001 -15.75001,0 -28.569944,-12.81 -28.569944,-28.57001 0,-9.66998 4.839965,-18.23999 12.219974,-23.40002 z m 73.40998,15.72998 c -4.48999,13.60004 -12.04998,25.17005 -21.76995,33.34003 h -0.01 c 21.85998,-23.08002 18.01995,-69.19 -2.92005,-100.59003 4.83002,5.89002 32.58002,40.84003 24.70001,67.25 z m -20.26995,-40.96997 c 6.42999,12.78998 9.25994,26.28998 8.15997,38.92999 -0.88001,-31.77996 -36.19001,-61.65997 -73.200021,-69.04998 7.580017,0.75 51.970041,5.83996 65.040051,30.11999 z m -43.36006,-14.69 c 0.01,0 0.03,0.01 0.04,0.01 13.57996,4.5 25.13996,12.04999 33.3,21.76001 v 0.01 c -23.07999,-21.86003 -69.189974,-18.02 -100.589991,2.92 5.890011,-4.83002 40.840019,-32.58002 67.249991,-24.70001 z m -57.919978,31.31 c -2.352661,1.93927 -4.645629,4.00744 -6.872501,6.19854 2.226994,-2.19561 4.516117,-4.27343 6.872501,-6.19854 z m -13.169982,54 c 0.75,-7.58002 5.839965,-51.96997 30.119991,-65.03998 12.789978,-6.42999 26.289978,-9.26001 38.929989,-8.16004 -31.780026,0.88001 -61.659966,36.19001 -69.04998,73.20002 z m 15.380004,-21.51001 c 4.489991,-13.66999 12.059994,-25.31 21.829953,-33.51001 -21.859982,23.08001 -18.019955,69.19 2.920044,100.59002 -4.820008,-5.86999 -32.460019,-40.70001 -24.749997,-67.08001 z m 31.359982,57.75 c 1.169983,1.42004 2.380005,2.80999 3.630005,4.19 -1.26001,-1.37 -2.470032,-2.76996 -3.630005,-4.19 z M 77.136528,730.03503 c -6.430054,-12.78997 -9.26001,-26.28997 -8.160034,-38.92999 l 0.01001,-0.04 v 0.03 0.07 c 0.909973,31.75 36.210026,61.61005 73.190006,68.99005 -7.58001,-0.74005 -51.970036,-5.84003 -65.039982,-30.12006 z m 43.419982,14.71003 c -13.63,-4.5 -25.220031,-12.04999 -33.390014,-21.78998 23.080014,21.84997 69.180004,18.01001 100.580024,-2.92999 -5.88,4.81994 -40.79004,32.53997 -67.19001,24.71997 z"
         id="path3792"
         style="fill:#e1561c;fill-opacity:1" />
    </g>
  </g>
</svg>
