<?xml version="1.0" encoding="UTF-8" standalone="no"?>
<!-- Created with Inkscape (http://www.inkscape.org/) -->

<svg
   xmlns:dc="http://purl.org/dc/elements/1.1/"
   xmlns:cc="http://creativecommons.org/ns#"
   xmlns:rdf="http://www.w3.org/1999/02/22-rdf-syntax-ns#"
   xmlns:svg="http://www.w3.org/2000/svg"
   xmlns="http://www.w3.org/2000/svg"
   xmlns:sodipodi="http://sodipodi.sourceforge.net/DTD/sodipodi-0.dtd"
   xmlns:inkscape="http://www.inkscape.org/namespaces/inkscape"
   width="50.535416mm"
   height="50.535416mm"
   viewBox="0 0 50.535415 50.535414"
   version="1.1"
   id="svg795"
   inkscape:version="0.92.4 (f8dce91, 2019-08-02)"
   sodipodi:docname="photon_wave_mechanics.svg">
  <defs
     id="defs789" />
  <sodipodi:namedview
     id="base"
     pagecolor="#ffffff"
     bordercolor="#666666"
     borderopacity="1.0"
     inkscape:pageopacity="0.0"
     inkscape:pageshadow="2"
     inkscape:zoom="0.35"
     inkscape:cx="208.95463"
     inkscape:cy="23.876261"
     inkscape:document-units="mm"
     inkscape:current-layer="layer1"
     showgrid="false"
     inkscape:window-width="446"
     inkscape:window-height="439"
     inkscape:window-x="1205"
     inkscape:window-y="767"
     inkscape:window-maximized="0" />
  <metadata
     id="metadata792">
    <rdf:RDF>
      <cc:Work
         rdf:about="">
        <dc:format>image/svg+xml</dc:format>
        <dc:type
           rdf:resource="http://purl.org/dc/dcmitype/StillImage" />
        <dc:title></dc:title>
      </cc:Work>
    </rdf:RDF>
  </metadata>
  <g
     inkscape:label="Layer 1"
     inkscape:groupmode="layer"
     id="layer1"
     transform="translate(17.798659,-44.138995)">
    <g
       transform="matrix(0.26458333,0,0,0.26458333,-1006.3345,-111.85405)"
       id="g4612"
       style="fill:#e1561c;fill-opacity:1">
      <path
         inkscape:connector-curvature="0"
         d="m 3927.1985,697.75006 v -25.34009 h -19.5801 c -0.26,-1.57995 -0.5698,-3.13989 -0.9299,-4.67993 l 18.0901,-7.48999 -9.6902,-23.41003 -18.0899,7.5 c -0.8501,-1.35999 -1.74,-2.68006 -2.6601,-3.96997 l 13.8501,-13.84998 -17.9099,-17.92004 -13.8601,13.85998 c -1.2901,-0.92993 -2.6102,-1.81994 -3.96,-2.65991 l 7.49,-18.09009 -23.3999,-9.69995 -7.4903,18.08997 c -1.5498,-0.34998 -3.1098,-0.67005 -4.6899,-0.93006 v -19.57995 h -25.3301 v 19.57995 c -1.5798,0.26001 -3.1399,0.58008 -4.6899,0.93006 l -7.49,-18.08997 -23.3999,9.69995 7.49,18.09009 c -1.3501,0.83997 -2.6699,1.72998 -3.96,2.65991 l -13.8601,-13.85998 -17.9099,17.92004 13.8501,13.84998 c -0.9202,1.28991 -1.8101,2.60998 -2.6602,3.96997 l -18.0898,-7.5 -9.6902,23.41003 18.0901,7.48999 c -0.3601,1.54004 -0.6699,3.09998 -0.9302,4.67993 h -19.5898 v 25.34009 h 19.5898 c 0.2603,1.57996 0.5701,3.14002 0.9302,4.67993 l -18.0901,7.48999 9.6902,23.41004 18.0898,-7.48999 c 0.8501,1.34997 1.74,2.67004 2.6602,3.96008 l -13.8501,13.84985 17.9099,17.92017 13.8601,-13.86011 c 1.2901,0.93006 2.6099,1.82007 3.96,2.66004 l -7.49,18.08996 23.3999,9.69995 7.49,-18.08984 c 1.55,0.34985 3.1101,0.66992 4.6899,0.92993 v 19.57996 h 25.3301 v -19.57996 c 1.5801,-0.26001 3.1401,-0.58008 4.6899,-0.92993 l 7.4903,18.08984 23.3999,-9.69995 -7.49,-18.08996 c 1.3498,-0.83997 2.6699,-1.72998 3.96,-2.66004 l 13.8601,13.86011 17.9099,-17.92017 -13.8501,-13.84985 c 0.9201,-1.29004 1.81,-2.61011 2.6601,-3.96008 l 18.0899,7.48999 9.6902,-23.41004 -18.0901,-7.48999 c 0.3601,-1.53991 0.6699,-3.09997 0.9299,-4.67993 z m -95.5,46.69995 c -32.7901,0 -59.3701,-26.57995 -59.3701,-59.36999 0,-32.78992 26.58,-59.37 59.3701,-59.37 32.8,0 59.3799,26.58008 59.3799,59.37 0,32.79004 -26.5799,59.36999 -59.3799,59.36999 z"
         id="path4604"
         style="fill:#e1561c;fill-opacity:1" />
      <path
         inkscape:connector-curvature="0"
         d="m 3797.0881,643.97028 h 2.0196 v 0.0495 82.12048 0.0495 h -2.0196 v 5.8905 h 69.2207 v -5.8905 h -2.0195 v -0.0495 -82.12048 -0.0495 h 2.0195 v -5.89051 h -69.2207 z m 60.2417,58.02386 c -2.9516,-8.96313 -7.6914,-14.05676 -12.5158,-16.91418 4.8244,-2.85743 9.5642,-7.95099 12.5158,-16.91413 z m -5.8711,-55.99438 c 0,17.95159 -4.8515,32.58471 -18.278,33.58709 v 10.98627 c 13.4265,1.00238 18.278,15.63556 18.278,33.58716 h -39.5205 c 0,-17.9491 4.8501,-32.58057 18.2725,-33.58685 v -10.98688 c -13.4224,-1.00623 -18.2725,-15.63776 -18.2725,-33.58679 z m -45.3916,22.16607 c 2.9517,8.96314 7.6914,14.0567 12.5159,16.91413 -4.8245,2.85742 -9.5642,7.95105 -12.5159,16.91418 z"
         id="path4606"
         style="fill:#e1561c;fill-opacity:1" />
      <path
         inkscape:connector-curvature="0"
         d="m 3831.6985,676.68976 c 5.1975,0 11.0781,-2.4552 14.3154,-11.96912 h -28.6308 c 3.2373,9.51392 9.1179,11.96912 14.3154,11.96912 z"
         id="path4608"
         style="fill:#e1561c;fill-opacity:1" />
      <path
         style="fill:#e1561c;fill-opacity:1"
         d="M 3848.6023,721.086 3831.696,703.38098 3814.7898,721.086 Z"
         id="polygon4610"
         inkscape:connector-curvature="0" />
    </g>
  </g>
</svg>
