<?xml version="1.0" encoding="UTF-8" standalone="no"?>
<!-- Created with Inkscape (http://www.inkscape.org/) -->

<svg
   xmlns:dc="http://purl.org/dc/elements/1.1/"
   xmlns:cc="http://creativecommons.org/ns#"
   xmlns:rdf="http://www.w3.org/1999/02/22-rdf-syntax-ns#"
   xmlns:svg="http://www.w3.org/2000/svg"
   xmlns="http://www.w3.org/2000/svg"
   xmlns:sodipodi="http://sodipodi.sourceforge.net/DTD/sodipodi-0.dtd"
   xmlns:inkscape="http://www.inkscape.org/namespaces/inkscape"
   width="55.080933mm"
   height="55.080875mm"
   viewBox="0 0 55.080932 55.080874"
   version="1.1"
   id="svg795"
   inkscape:version="0.92.4 (f8dce91, 2019-08-02)"
   sodipodi:docname="planetary_economics.svg">
  <defs
     id="defs789" />
  <sodipodi:namedview
     id="base"
     pagecolor="#ffffff"
     bordercolor="#666666"
     borderopacity="1.0"
     inkscape:pageopacity="0.0"
     inkscape:pageshadow="2"
     inkscape:zoom="0.35"
     inkscape:cx="232.99873"
     inkscape:cy="25.494428"
     inkscape:document-units="mm"
     inkscape:current-layer="layer1"
     showgrid="false"
     inkscape:window-width="446"
     inkscape:window-height="439"
     inkscape:window-x="1205"
     inkscape:window-y="767"
     inkscape:window-maximized="0" />
  <metadata
     id="metadata792">
    <rdf:RDF>
      <cc:Work
         rdf:about="">
        <dc:format>image/svg+xml</dc:format>
        <dc:type
           rdf:resource="http://purl.org/dc/dcmitype/StillImage" />
        <dc:title></dc:title>
      </cc:Work>
    </rdf:RDF>
  </metadata>
  <g
     inkscape:label="Layer 1"
     inkscape:groupmode="layer"
     id="layer1"
     transform="translate(24.160327,-40.021676)">
    <path
       inkscape:connector-curvature="0"
       d="m 3.3801771,40.021676 c -15.1844901,0 -27.5405041,12.353395 -27.5405041,27.540451 0,15.184464 12.356014,27.540426 27.5405041,27.540426 15.1870569,0 27.5404269,-12.355962 27.5404269,-27.540426 0,-15.187056 -12.35337,-27.540451 -27.5404269,-27.540451 z m 0,4.233333 c 8.7922109,0 16.4463949,4.869418 20.4158059,12.057724 l -4.011639,4.012432 v -9.167177 h -32.808333 v 11.176688 l -4.691327,-4.69138 C -13.988872,49.731857 -5.9444005,44.255009 3.3801771,44.255009 Z M 17.932261,73.647544 v 3.307291 h -3.307292 v -1.718759 l 1.588268,-1.588532 z m -5.159375,5.159375 V 82.11421 H 9.4655935 V 80.396403 L 11.054761,78.806919 Z M -7.8646141,68.488169 v 3.307291 h -3.3072919 v -0.600868 l 2.7029307,-2.706423 z M 12.772886,56.317337 H 9.4655935 v -3.307292 h 3.3072925 z m 0,1.852083 v 3.307292 H 9.4655935 V 58.16942 Z m 0,5.159375 v 3.30729 H 9.4655935 v -3.30729 z m -1.150064,5.159374 -2.1572285,2.157624 V 68.488169 Z M 7.6135105,56.317337 H 4.3062187 v -3.307292 h 3.3072918 z m 0,1.852083 v 3.307292 H 4.3062187 V 58.16942 Z m 0,5.159375 v 3.30729 H 4.3062187 v -3.30729 z m 0,5.159374 v 3.307291 h -0.43643 L 4.3062187,68.923938 V 68.488169 Z M 2.4541354,56.317337 H -0.85315565 V 53.010045 H 2.4541354 Z m 0,1.852083 v 3.307292 H -0.85315565 V 58.16942 Z m 0,5.159375 v 3.30729 H 2.0188699 L -0.85315565,63.76332 v -0.434525 z m -5.1593745,-7.011458 h -3.3072916 v -3.307292 h 3.3072916 z m 0,1.852083 v 3.307292 H -3.1392616 L -6.0125307,58.602781 V 58.16942 Z m -5.159375,-1.852083 h -3.3072919 v -3.307292 h 3.3072919 z m -0.040375,1.852083 -3.2669159,3.271123 V 58.16942 Z m -3.2669159,20.637499 h 3.3072913 v 3.307291 h -3.3072913 z m 0,-1.852084 v -3.307291 h 3.3072913 v 3.307291 z m 5.1593747,1.852084 h 3.3072912 v 3.307291 h -3.3072916 z m 0,-1.852084 v -3.307291 h 3.3072912 v 3.307291 z m 0,-5.159375 v -3.307291 h 0.1316302 l 3.175661,3.175635 v 0.131656 z m 5.15937505,7.011459 H 2.4541358 v 3.307291 h -3.30729145 z m 0,-1.852084 v -3.307291 h 0.1316298 l 3.17566085,3.175635 v 0.131656 z m 5.15937435,1.852084 h 0.1316294 l 3.175662,3.175635 V 82.11421 H 4.3062187 Z m 10.3187499,0 h 3.307292 v 3.307291 h -3.307292 z m 0,-13.321426 v -2.156698 h 2.156328 z m 3.307292,-7.316073 v 3.307292 H 14.624969 V 58.16942 Z m -3.307292,-1.852083 v -3.307292 h 3.307292 v 3.307292 z M 3.3801771,90.86922 c -12.8720316,0 -23.3071711,-10.43514 -23.3071711,-23.307093 0,-0.764752 0.03797,-1.520586 0.109987,-2.266473 l 6.793018,6.793071 V 83.966294 H 19.784344 V 70.075801 l 6.553015,-6.554257 c 0.229367,1.312439 0.349911,2.662423 0.349911,4.040583 0,12.871953 -10.43514,23.307093 -23.3070929,23.307093 z"
       id="path4464"
       style="fill:#e2bd4d;fill-opacity:1;stroke-width:0.26458332" />
  </g>
</svg>
