<?xml version="1.0" encoding="UTF-8" standalone="no"?>
<!-- Created with Inkscape (http://www.inkscape.org/) -->

<svg
   xmlns:dc="http://purl.org/dc/elements/1.1/"
   xmlns:cc="http://creativecommons.org/ns#"
   xmlns:rdf="http://www.w3.org/1999/02/22-rdf-syntax-ns#"
   xmlns:svg="http://www.w3.org/2000/svg"
   xmlns="http://www.w3.org/2000/svg"
   xmlns:sodipodi="http://sodipodi.sourceforge.net/DTD/sodipodi-0.dtd"
   xmlns:inkscape="http://www.inkscape.org/namespaces/inkscape"
   width="54.358429mm"
   height="51.749561mm"
   viewBox="0 0 54.358429 51.749562"
   version="1.1"
   id="svg883"
   inkscape:version="0.92.4 (f8dce91, 2019-08-02)"
   sodipodi:docname="planetary_networks.svg">
  <defs
     id="defs877" />
  <sodipodi:namedview
     id="base"
     pagecolor="#ffffff"
     bordercolor="#666666"
     borderopacity="1.0"
     inkscape:pageopacity="0.0"
     inkscape:pageshadow="2"
     inkscape:zoom="0.35"
     inkscape:cx="12.571105"
     inkscape:cy="244.96413"
     inkscape:document-units="mm"
     inkscape:current-layer="layer1"
     showgrid="false"
     inkscape:window-width="446"
     inkscape:window-height="439"
     inkscape:window-x="1255"
     inkscape:window-y="1048"
     inkscape:window-maximized="0" />
  <metadata
     id="metadata880">
    <rdf:RDF>
      <cc:Work
         rdf:about="">
        <dc:format>image/svg+xml</dc:format>
        <dc:type
           rdf:resource="http://purl.org/dc/dcmitype/StillImage" />
        <dc:title></dc:title>
      </cc:Work>
    </rdf:RDF>
  </metadata>
  <g
     inkscape:label="Layer 1"
     inkscape:groupmode="layer"
     id="layer1"
     transform="translate(-102.50723,-161.8972)">
    <path
       inkscape:connector-curvature="0"
       d="m 150.99657,191.53675 c 0,-0.088 0.005,-0.17505 0.005,-0.26337 0,-7.36232 -3.75323,-13.86289 -9.44674,-17.69303 -0.10216,-6.45911 -5.38512,-11.68315 -11.86812,-11.68315 -6.48203,0 -11.76438,5.22256 -11.868,11.68037 -5.69274,3.83072 -9.44684,10.33198 -9.44684,17.69581 0,0.0882 0.004,0.17531 0.005,0.26324 -3.5085,2.06544 -5.86964,5.8798 -5.86964,10.23723 0,6.54664 5.32603,11.87291 11.87267,11.87291 2.78929,0 5.35503,-0.96933 7.38365,-2.58551 2.45059,0.9842 5.1245,1.52691 7.92289,1.52691 2.79755,0 5.47108,-0.54409 7.92234,-1.52736 2.02875,1.61645 4.59468,2.58596 7.38423,2.58596 6.54664,0 11.87265,-5.32627 11.87265,-11.87291 0,-4.35737 -2.36101,-8.17166 -5.86941,-10.2371 z m -21.30981,-25.40622 c 4.21241,0 7.63961,3.4272 7.63961,7.63961 0,4.2124 -3.4272,7.63931 -7.63961,7.63931 -4.2124,0 -7.63958,-3.42691 -7.63958,-7.63931 0,-4.21241 3.42718,-7.63961 7.63958,-7.63961 z m -22.94588,35.64332 c 0,-4.21241 3.42694,-7.63958 7.63934,-7.63958 4.2124,0 7.63958,3.42717 7.63958,7.63958 0,4.2124 -3.42718,7.63958 -7.63958,7.63958 -4.2124,0 -7.63934,-3.42718 -7.63934,-7.63958 z m 17.22588,6.99312 c 1.43598,-1.96308 2.28637,-4.38018 2.28637,-6.99312 0,-6.54664 -5.3263,-11.87292 -11.87291,-11.87292 -1.06164,0 -2.09031,0.14211 -3.07023,0.40476 0.28274,-5.4261 2.925,-10.23815 6.92045,-13.42387 1.37104,5.04169 5.98638,8.76096 11.45632,8.76096 5.46949,0 10.08457,-3.71869 11.45604,-8.75971 3.99536,3.18571 6.63794,7.9975 6.92065,13.42262 -0.97988,-0.26265 -2.00853,-0.40476 -3.07012,-0.40476 -6.54664,0 -11.87291,5.32628 -11.87291,11.87292 0,2.61236 0.85,5.02888 2.28534,6.99169 -1.80107,0.59008 -3.72227,0.91221 -5.719,0.91221 -1.99567,0 -3.91858,-0.32012 -5.72,-0.91078 z m 21.02657,0.64646 c -4.2124,0 -7.63958,-3.42718 -7.63958,-7.63958 0,-4.21241 3.42718,-7.63958 7.63958,-7.63958 4.21241,0 7.63932,3.42717 7.63932,7.63958 0,4.2124 -3.42691,7.63958 -7.63932,7.63958 z"
       id="path4158"
       style="fill:#d7e6ed;fill-opacity:1;stroke-width:0.26458332" />
  </g>
</svg>
