<?xml version="1.0" encoding="UTF-8" standalone="no"?>
<!-- Created with Inkscape (http://www.inkscape.org/) -->

<svg
   xmlns:dc="http://purl.org/dc/elements/1.1/"
   xmlns:cc="http://creativecommons.org/ns#"
   xmlns:rdf="http://www.w3.org/1999/02/22-rdf-syntax-ns#"
   xmlns:svg="http://www.w3.org/2000/svg"
   xmlns="http://www.w3.org/2000/svg"
   xmlns:sodipodi="http://sodipodi.sourceforge.net/DTD/sodipodi-0.dtd"
   xmlns:inkscape="http://www.inkscape.org/namespaces/inkscape"
   width="54.467232mm"
   height="55.940929mm"
   viewBox="0 0 54.467232 55.94093"
   version="1.1"
   id="svg883"
   inkscape:version="0.92.4 (f8dce91, 2019-08-02)"
   sodipodi:docname="polymorphic_software.svg">
  <defs
     id="defs877" />
  <sodipodi:namedview
     id="base"
     pagecolor="#ffffff"
     bordercolor="#666666"
     borderopacity="1.0"
     inkscape:pageopacity="0.0"
     inkscape:pageshadow="2"
     inkscape:zoom="0.35"
     inkscape:cx="-124.49871"
     inkscape:cy="233.53641"
     inkscape:document-units="mm"
     inkscape:current-layer="layer1"
     showgrid="false"
     inkscape:window-width="446"
     inkscape:window-height="439"
     inkscape:window-x="1255"
     inkscape:window-y="1048"
     inkscape:window-maximized="0" />
  <metadata
     id="metadata880">
    <rdf:RDF>
      <cc:Work
         rdf:about="">
        <dc:format>image/svg+xml</dc:format>
        <dc:type
           rdf:resource="http://purl.org/dc/dcmitype/StillImage" />
        <dc:title></dc:title>
      </cc:Work>
    </rdf:RDF>
  </metadata>
  <g
     inkscape:label="Layer 1"
     inkscape:groupmode="layer"
     id="layer1"
     transform="translate(-138.77362,-154.68225)">
    <g
       transform="matrix(0.26458333,0,0,0.26458333,-356.30804,1.3919502)"
       id="g4198"
       style="fill:#d7e6ed;fill-opacity:1">
      <path
         inkscape:connector-curvature="0"
         d="m 1913.7048,614.52466 c -4.6599,0 -8.4299,6.32001 -8.4299,14.10998 v 15.82001 c 0,7.78998 3.77,14.10999 8.4299,14.10999 4.6702,0 8.4402,-6.32001 8.4402,-14.10999 v -15.82001 c 0,-7.78997 -3.77,-14.10998 -8.4402,-14.10998 z"
         id="path4192"
         style="fill:#d7e6ed;fill-opacity:1" />
      <path
         inkscape:connector-curvature="0"
         d="m 2071.2351,590.00464 c -1.3701,-2.90997 -3.53,-5.28998 -6.1501,-6.95001 -2.6099,-1.64997 -5.69,-2.58002 -8.91,-2.58002 h -11.9699 c -5.5,0 -10.98,0.82001 -16.24,2.42004 -6.0701,1.84998 -11.6599,4.83997 -16.5,8.76001 -4.8401,3.91999 -8.9299,8.76996 -12,14.31995 0,0 -16.21,27.81006 -19.8501,38.69 -0.1931,0.59595 -0.5598,0.30377 -0.5598,-0.0562 v -3.02374 h -3.2403 c 0.3702,-16.87 6.5,-49.93 12.6202,-57.65003 0.3701,-0.46997 0.57,-1.03998 0.57,-1.64001 0,-0.64997 -0.23,-1.25 -0.6201,-1.70996 -0.3999,-0.47004 -0.9499,-0.81 -1.5898,-0.93 -11.1101,-2.10003 -11.6902,7.5 -11.6902,19.56995 h -2 c 0,-12.06995 -0.5801,-21.66998 -11.6902,-19.56995 -0.6399,0.12 -1.1899,0.45996 -1.5898,0.93 -0.3902,0.45996 -0.6202,1.05999 -0.6202,1.70996 0,0.60003 0.2,1.17004 0.5701,1.64001 6.1201,7.72003 12.25,40.78003 12.6201,57.65003 h -3.2402 v 3.02374 c 0,0.35998 -0.3667,0.65216 -0.5598,0.0562 -3.6402,-10.87994 -19.8501,-38.69 -19.8501,-38.69 -3.0701,-5.54999 -7.1599,-10.39996 -12,-14.31995 -4.8401,-3.92004 -10.43,-6.91003 -16.5,-8.76001 -5.26,-1.60003 -10.74,-2.42004 -16.24,-2.42004 h -11.97 c -3.22,0 -6.3,0.93005 -8.9099,2.58002 -2.6201,1.66003 -4.78,4.04004 -6.1501,6.95001 -3.82,8.08002 -5.8001,16.90997 -5.8001,25.84003 v 8.08996 c 0,12.03003 1.2101,24.03998 3.6101,35.84003 l 1.57,7.69 c 1.2201,5.96997 5.5401,10.82996 11.3399,12.73999 l 34.8301,11.44 c 0.8201,0.26996 1.52,0.82996 1.97,1.57996 0.8801,1.5 0.56,3.42004 -0.76,4.56006 -40.24,34.57995 -48.61,41.35998 -48.61,70.97998 0,39.44 62.61,16.70001 75.0899,2.5 0.5801,-0.66004 1.67,-0.22998 1.69,0.65997 0.1702,11.53003 1.1601,17.72003 5.1802,17.72003 5.6198,0 9.54,-26.61999 11.24,-40.82 0.06,-0.58002 0.9299,-0.53003 0.9299,0.06 v 13.51001 h 9.7002 v -13.51001 c 0,-0.59002 0.8701,-0.64001 0.9299,-0.06 1.7,14.20001 5.6201,40.82 11.24,40.82 4.02,0 5.01,-6.19 5.1802,-17.72003 0.02,-0.88995 1.1098,-1.32001 1.6899,-0.65997 12.48,14.20001 75.0899,36.94 75.0899,-2.5 0,-29.62 -8.3699,-36.40003 -48.6099,-70.97998 -1.3201,-1.14002 -1.6401,-3.06006 -0.76,-4.56006 0.4499,-0.75 1.1499,-1.31 1.97,-1.57996 l 34.83,-11.44 c 5.7998,-1.91003 10.1199,-6.77002 11.3399,-12.73999 l 1.57,-7.69 c 2.4002,-11.80005 3.6102,-23.81 3.6102,-35.84003 v -8.08996 c 0,-8.93006 -1.98,-17.76001 -5.8001,-25.84003 z M 1933.335,771.47461 h -15.1602 v -35.46997 c -3.8799,3.33002 -12.99,7.65002 -15.98,7.64001 v -12.51001 c 2.76,0.01 11.75,-4.57 15.98,-10.47003 0.9302,-1.28998 1.6301,-2.63995 1.99,-4.01996 h 13.1702 z m 8.04,-128.14996 c 0,15.60998 -12.3801,28.25 -27.6702,28.25 -15.28,0 -27.6699,-12.64002 -27.6699,-28.25 v -13.56 c 0,-15.60999 12.3899,-28.25 27.6699,-28.25 15.2901,0 27.6702,12.64001 27.6702,28.25 z m 86.6702,73.32 c 0.3598,1.38001 1.0598,2.72998 1.99,4.01996 4.2299,5.90003 13.2199,10.48004 15.9799,10.47003 v 12.51001 c -2.99,0.01 -12.1001,-4.30999 -15.9799,-7.64001 v 35.46997 h -15.1602 v -54.82996 z m 34.1298,-73.32 c 0,15.60998 -12.3898,28.25 -27.6699,28.25 -15.29,0 -27.6701,-12.64002 -27.6701,-28.25 v -13.56 c 0,-15.60999 12.3801,-28.25 27.6701,-28.25 15.2801,0 27.6699,12.64001 27.6699,28.25 z"
         id="path4194"
         style="fill:#d7e6ed;fill-opacity:1" />
      <path
         inkscape:connector-curvature="0"
         d="m 2034.5051,614.52466 c -4.6701,0 -8.4402,6.32001 -8.4402,14.10998 v 15.82001 c 0,7.78998 3.7701,14.10999 8.4402,14.10999 4.6599,0 8.43,-6.32001 8.43,-14.10999 v -15.82001 c 0,-7.78997 -3.7701,-14.10998 -8.43,-14.10998 z"
         id="path4196"
         style="fill:#d7e6ed;fill-opacity:1" />
    </g>
  </g>
</svg>
