<?xml version="1.0" encoding="UTF-8" standalone="no"?>
<!-- Created with Inkscape (http://www.inkscape.org/) -->

<svg
   xmlns:dc="http://purl.org/dc/elements/1.1/"
   xmlns:cc="http://creativecommons.org/ns#"
   xmlns:rdf="http://www.w3.org/1999/02/22-rdf-syntax-ns#"
   xmlns:svg="http://www.w3.org/2000/svg"
   xmlns="http://www.w3.org/2000/svg"
   xmlns:sodipodi="http://sodipodi.sourceforge.net/DTD/sodipodi-0.dtd"
   xmlns:inkscape="http://www.inkscape.org/namespaces/inkscape"
   width="50.535416mm"
   height="50.535416mm"
   viewBox="0 0 50.535415 50.535413"
   version="1.1"
   id="svg795"
   inkscape:version="0.92.4 (f8dce91, 2019-08-02)"
   sodipodi:docname="probability_mechanics.svg">
  <defs
     id="defs789" />
  <sodipodi:namedview
     id="base"
     pagecolor="#ffffff"
     bordercolor="#666666"
     borderopacity="1.0"
     inkscape:pageopacity="0.0"
     inkscape:pageshadow="2"
     inkscape:zoom="0.35"
     inkscape:cx="256.04868"
     inkscape:cy="130.68816"
     inkscape:document-units="mm"
     inkscape:current-layer="layer1"
     showgrid="false"
     inkscape:window-width="446"
     inkscape:window-height="439"
     inkscape:window-x="1205"
     inkscape:window-y="767"
     inkscape:window-maximized="0" />
  <metadata
     id="metadata792">
    <rdf:RDF>
      <cc:Work
         rdf:about="">
        <dc:format>image/svg+xml</dc:format>
        <dc:type
           rdf:resource="http://purl.org/dc/dcmitype/StillImage" />
        <dc:title></dc:title>
      </cc:Work>
    </rdf:RDF>
  </metadata>
  <g
     inkscape:label="Layer 1"
     inkscape:groupmode="layer"
     id="layer1"
     transform="translate(30.258959,-72.399638)">
    <g
       transform="matrix(0.26458333,0,0,0.26458333,-1018.7948,-684.284)"
       id="g4768"
       style="fill:#e2bd4d;fill-opacity:1">
      <g
         id="g4734"
         style="fill:#e2bd4d;fill-opacity:1">
        <path
           inkscape:connector-curvature="0"
           d="m 3927.1985,2968.0769 v -25.3401 h -19.5801 c -0.2598,-1.5801 -0.5698,-3.1399 -0.9297,-4.6799 l 18.0899,-7.49 -9.6905,-23.4102 -18.0898,7.5 c -0.8496,-1.3598 -1.7398,-2.6799 -2.6602,-3.9699 l 13.8506,-13.8499 -17.9101,-17.9202 -13.8604,13.8602 c -1.29,-0.93 -2.6099,-1.8201 -3.9599,-2.66 l 7.4902,-18.09 -23.3999,-9.7 -7.4903,18.0898 c -1.5498,-0.3498 -3.1098,-0.6699 -4.6899,-0.9299 v -19.5801 h -25.3301 v 19.5801 c -1.58,0.26 -3.1396,0.5801 -4.6899,0.9299 l -7.4898,-18.0898 -23.4003,9.7 7.4902,18.09 c -1.3501,0.8399 -2.6699,1.73 -3.96,2.66 l -13.8603,-13.8602 -17.9097,17.9202 13.8501,13.8499 c -0.9199,1.29 -1.8101,2.6101 -2.6602,3.9699 l -18.0898,-7.5 -9.6904,23.4102 18.0903,7.49 c -0.3599,1.54 -0.6699,3.0998 -0.9302,4.6799 h -19.5898 v 25.3401 h 19.5898 c 0.2603,1.5798 0.5703,3.1399 0.9302,4.6799 l -18.0903,7.49 9.6904,23.4099 18.0898,-7.49 c 0.8501,1.3501 1.7403,2.6702 2.6602,3.9603 l -13.8501,13.8498 17.9097,17.9202 13.8603,-13.8601 c 1.2901,0.9299 2.6099,1.82 3.96,2.6599 l -7.4902,18.0901 23.4003,9.6999 7.4898,-18.0898 c 1.5503,0.3498 3.1099,0.6699 4.6899,0.9299 v 19.5798 h 25.3301 v -19.5798 c 1.5801,-0.26 3.1401,-0.5801 4.6899,-0.9299 l 7.4903,18.0898 23.3999,-9.6999 -7.4902,-18.0901 c 1.35,-0.8399 2.6699,-1.73 3.9599,-2.6599 l 13.8604,13.8601 17.9101,-17.9202 -13.8506,-13.8498 c 0.9204,-1.2901 1.8106,-2.6102 2.6602,-3.9603 l 18.0898,7.49 9.6905,-23.4099 -18.0899,-7.49 c 0.3599,-1.54 0.6699,-3.1001 0.9297,-4.6799 z m -95.5,46.7 c -32.7901,0 -59.3701,-26.5801 -59.3701,-59.3702 0,-32.7898 26.58,-59.3698 59.3701,-59.3698 32.7998,0 59.3799,26.58 59.3799,59.3698 0,32.7901 -26.5801,59.3702 -59.3799,59.3702 z"
           id="path4732"
           style="fill:#e2bd4d;fill-opacity:1" />
      </g>
      <g
         id="g4738"
         style="fill:#e2bd4d;fill-opacity:1">
        <path
           transform="rotate(-86.67301,3824.5116,2971.262)"
           style="fill:#e2bd4d;fill-opacity:1"
           d="m 3829.2615,2971.262 a 4.75,4.7497559 0 0 1 -4.75,4.7497 4.75,4.7497559 0 0 1 -4.75,-4.7497 4.75,4.7497559 0 0 1 4.75,-4.7498 4.75,4.7497559 0 0 1 4.75,4.7498 z"
           id="ellipse4736"
           inkscape:connector-curvature="0" />
      </g>
      <g
         id="g4742"
         style="fill:#e2bd4d;fill-opacity:1">
        <path
           inkscape:connector-curvature="0"
           d="m 3823.3113,2961.865 c 2.6235,-0.011 4.7407,-2.1472 4.729,-4.7708 -0.011,-2.6233 -2.147,-4.7404 -4.7705,-4.729 -2.6231,0.011 -4.7407,2.1475 -4.729,4.7708 0.011,2.6233 2.1474,4.7405 4.7705,4.729 z"
           id="path4740"
           style="fill:#e2bd4d;fill-opacity:1" />
      </g>
      <g
         id="g4746"
         style="fill:#e2bd4d;fill-opacity:1">
        <path
           inkscape:connector-curvature="0"
           d="m 3833.9084,2970.0625 c 0.011,2.6233 2.1475,4.7405 4.7706,4.729 2.6235,-0.011 4.7407,-2.1475 4.7294,-4.7707 -0.012,-2.6233 -2.1474,-4.7408 -4.7709,-4.7291 -2.6231,0.011 -4.7408,2.1473 -4.7291,4.7708 z"
           id="path4744"
           style="fill:#e2bd4d;fill-opacity:1" />
      </g>
      <g
         id="g4750"
         style="fill:#e2bd4d;fill-opacity:1">
        <path
           inkscape:connector-curvature="0"
           d="m 3825.7112,2980.6594 c -2.6236,0.012 -4.7407,2.1475 -4.7295,4.7708 0.012,2.6233 2.1475,4.7407 4.771,4.729 2.6235,-0.012 4.7407,-2.1472 4.729,-4.7708 -0.011,-2.6233 -2.1475,-4.7405 -4.7705,-4.729 z"
           id="path4748"
           style="fill:#e2bd4d;fill-opacity:1" />
      </g>
      <g
         id="g4754"
         style="fill:#e2bd4d;fill-opacity:1">
        <path
           inkscape:connector-curvature="0"
           d="m 3810.3435,2967.7329 c -2.6235,0.012 -4.7407,2.1475 -4.7295,4.7708 0.012,2.6233 2.1475,4.7407 4.771,4.7292 2.6231,-0.012 4.7407,-2.1475 4.729,-4.7707 -0.011,-2.6233 -2.1474,-4.7408 -4.7705,-4.7293 z"
           id="path4752"
           style="fill:#e2bd4d;fill-opacity:1" />
      </g>
      <g
         id="g4758"
         style="fill:#e2bd4d;fill-opacity:1">
        <path
           inkscape:connector-curvature="0"
           d="m 3847.9485,2902.2568 -51.5303,24.2901 10.2305,21.6999 -22.27,26.48 43.6001,36.6699 36.6596,-43.5998 -7.9399,-6.6802 15.54,-7.3298 z m 1.2002,66.8799 -22.5103,26.76 -26.7597,-22.51 11.9296,-14.1899 7.8003,-9.26 2.7798,-3.3101 14.0904,11.8501 9.2695,7.8001 z m -1.7202,-15.82 -2.437,-2.0501 c 1.2207,0.5371 2.6513,0.5786 3.9497,-0.041 2.3681,-1.1289 3.373,-3.9636 2.2441,-6.3318 -1.1289,-2.3679 -3.9639,-3.3726 -6.332,-2.2437 -2.3677,1.1289 -3.3726,3.9637 -2.2437,6.3316 0.099,0.2065 0.2251,0.3886 0.3482,0.574 l -16.8907,-14.2078 c 0.5567,-1.2305 0.607,-2.6802 -0.02,-3.9944 -1.1284,-2.3682 -3.9634,-3.3728 -6.3315,-2.2439 -2.3535,1.1221 -3.356,3.929 -2.2593,6.2883 l -3.0176,3.5884 -3.3804,-7.1802 31.6304,-14.9099 14.9097,31.6302 z"
           id="path4756"
           style="fill:#e2bd4d;fill-opacity:1" />
      </g>
      <g
         id="g4762"
         style="fill:#e2bd4d;fill-opacity:1">
        <path
           inkscape:connector-curvature="0"
           d="m 3839.1501,2930.4524 c 2.3677,-1.1289 3.3726,-3.9636 2.2437,-6.3318 -1.1289,-2.3679 -3.9639,-3.3726 -6.3315,-2.2436 -2.3682,1.1286 -3.3726,3.9636 -2.2442,6.3315 1.1289,2.3682 3.9639,3.3728 6.332,2.2439 z"
           id="path4760"
           style="fill:#e2bd4d;fill-opacity:1" />
      </g>
      <g
         id="g4766"
         style="fill:#e2bd4d;fill-opacity:1">
        <path
           transform="rotate(-40.237316,3842.0023,2936.5514)"
           style="fill:#e2bd4d;fill-opacity:1"
           d="m 3846.752,2936.5515 a 4.7497559,4.75 0 0 1 -4.7498,4.75 4.7497559,4.75 0 0 1 -4.7498,-4.75 4.7497559,4.75 0 0 1 4.7498,-4.75 4.7497559,4.75 0 0 1 4.7498,4.75 z"
           id="ellipse4764"
           inkscape:connector-curvature="0" />
      </g>
    </g>
  </g>
</svg>
