<?xml version="1.0" encoding="UTF-8" standalone="no"?>
<!-- Created with Inkscape (http://www.inkscape.org/) -->

<svg
   xmlns:dc="http://purl.org/dc/elements/1.1/"
   xmlns:cc="http://creativecommons.org/ns#"
   xmlns:rdf="http://www.w3.org/1999/02/22-rdf-syntax-ns#"
   xmlns:svg="http://www.w3.org/2000/svg"
   xmlns="http://www.w3.org/2000/svg"
   xmlns:sodipodi="http://sodipodi.sourceforge.net/DTD/sodipodi-0.dtd"
   xmlns:inkscape="http://www.inkscape.org/namespaces/inkscape"
   width="51.748798mm"
   height="51.749039mm"
   viewBox="0 0 51.748798 51.749039"
   version="1.1"
   id="svg6713"
   inkscape:version="0.92.4 (f8dce91, 2019-08-02)"
   sodipodi:docname="progenitor_psych.svg">
  <defs
     id="defs6707" />
  <sodipodi:namedview
     id="base"
     pagecolor="#ffffff"
     bordercolor="#666666"
     borderopacity="1.0"
     inkscape:pageopacity="0.0"
     inkscape:pageshadow="2"
     inkscape:zoom="0.35"
     inkscape:cx="186.36443"
     inkscape:cy="-136.49225"
     inkscape:document-units="mm"
     inkscape:current-layer="layer1"
     showgrid="false"
     inkscape:window-width="1920"
     inkscape:window-height="1022"
     inkscape:window-x="1079"
     inkscape:window-y="709"
     inkscape:window-maximized="1" />
  <metadata
     id="metadata6710">
    <rdf:RDF>
      <cc:Work
         rdf:about="">
        <dc:format>image/svg+xml</dc:format>
        <dc:type
           rdf:resource="http://purl.org/dc/dcmitype/StillImage" />
        <dc:title></dc:title>
      </cc:Work>
    </rdf:RDF>
  </metadata>
  <g
     inkscape:label="Layer 1"
     inkscape:groupmode="layer"
     id="layer1"
     transform="translate(-56.524411,-60.970721)">
    <path
       inkscape:connector-curvature="0"
       d="M 98.075425,91.671992 C 97.92628,91.570498 97.842513,91.396958 97.842513,91.216539 v -0.07392 c 0,-0.159623 -0.07091,-0.310991 -0.19349,-0.4132 l -6.618817,-5.516907 c -0.2717,-0.226404 -0.461698,-0.535569 -0.541073,-0.880215 l -0.82923,-3.60098 c -0.06485,-0.281569 -0.0042,-0.577215 0.161448,-0.813964 1.63285,-2.33254 0.241353,-4.646612 -1.313365,-6.475915 -1.503759,-1.767813 -3.888713,-3.257074 -4.212008,-5.671714 -0.01085,-0.08123 0.06146,-0.151077 0.142637,-0.1397 l 2.636732,0.369649 c 0.176794,0.02461 0.334645,-0.112527 0.334645,-0.291068 v -0.140922 c 0,-0.809598 -2.436786,-1.465791 -2.899807,-1.465791 l -0.864844,-2.7e-5 c -0.103584,0 -0.191029,-0.07493 -0.20828,-0.177059 -0.08408,-0.497576 -0.51652,-0.875956 -1.038252,-0.875956 -0.521732,0 -0.954167,0.37838 -1.038252,0.875956 -0.0172,0.102129 -0.104695,0.177059 -0.20828,0.177059 l -0.864843,2.7e-5 c -0.463021,0 -2.899807,0.656193 -2.899807,1.465791 V 67.7086 c 0,0.178541 0.15785,0.315807 0.334671,0.291068 l 2.636705,-0.369649 c 0.08118,-0.01138 0.153512,0.05847 0.142637,0.1397 -0.323294,2.41464 -2.708222,3.903901 -4.212008,5.671714 -1.554718,1.829303 -2.946214,4.143375 -1.313365,6.475915 0.165682,0.236749 0.226298,0.532395 0.161449,0.813964 l -0.829231,3.60098 c -0.07937,0.344646 -0.269372,0.653811 -0.541073,0.880215 l -6.61879,5.516907 c -0.122608,0.102209 -0.193516,0.253577 -0.193516,0.4132 v 0.07392 c 0,0.180419 -0.08377,0.353959 -0.232913,0.455453 -2.087192,1.420654 -3.906996,4.995704 -2.029274,6.455066 -0.260932,-1.990513 1.057486,-3.977507 2.497454,-4.719108 0.164915,-0.08493 0.347663,-0.128032 0.533136,-0.128032 h 1.182661 c 0.180287,0 0.313214,0.168434 0.271277,0.343773 l -0.785204,3.28467 c -0.131789,0.551233 -0.413491,1.055238 -0.813964,1.456293 l -1.105508,1.10707 c -0.09774,0.0979 -0.152665,0.230611 -0.152665,0.368961 v 0.30514 c -1.023937,0.74352 -2.121958,3.58249 -0.751417,4.58524 0.100516,-1.57692 0.851959,-2.60879 1.677459,-3.1882 h 0.602059 c 0.287073,0 0.565864,-0.0961 0.791871,-0.27305 l 0.541973,-0.42421 c 0.271383,-0.21243 0.616611,-0.30718 0.958453,-0.26308 l 3.638471,0.46967 c 0.356182,0.046 0.571685,0.4174 0.434869,0.74943 l -0.73414,1.78115 c -0.0053,0.0106 -0.0079,0.0238 -0.01323,0.0344 -0.597932,1.59276 0.590048,4.84981 1.82036,4.9027 -0.228256,-0.34875 -1.323948,-2.05465 -0.670745,-3.18074 0.04133,-0.0713 0.102579,-0.12951 0.170497,-0.17621 l 1.69934,-1.16906 c 0.04101,-0.0282 0.08967,-0.0433 0.139462,-0.0433 h 0.222461 c 0.135917,0 0.246089,-0.11015 0.246089,-0.24607 v -2.3e-4 c 0,-0.081 0.03987,-0.15688 0.106601,-0.20273 l 0.46609,-0.32051 c 0.101362,-0.0697 0.237093,0.0148 0.219313,0.13652 l -0.778801,5.32408 c 0.336021,-0.0979 0.672042,-0.25929 0.997479,-0.47623 1.057725,-0.70683 1.973025,-1.99302 2.248694,-3.46045 0.02662,-0.14145 0.145521,-0.24636 0.289507,-0.24636 h 3.511975 c 0.143986,0 0.26289,0.10491 0.289507,0.24636 0.275696,1.46743 1.190969,2.75362 2.248693,3.46045 0.325438,0.21694 0.661459,0.37833 0.99748,0.47623 l -0.778801,-5.32408 c -0.01773,-0.12173 0.117951,-0.20624 0.219313,-0.13652 l 0.46609,0.32051 c 0.06673,0.0459 0.1066,0.12168 0.1066,0.20273 v 2.3e-4 c 0,0.13592 0.110173,0.24607 0.246089,0.24607 h 0.222462 c 0.04979,0 0.09845,0.0151 0.139462,0.0433 l 1.699339,1.16906 c 0.06792,0.0467 0.12917,0.1049 0.170498,0.17621 0.653203,1.12609 -0.442489,2.83199 -0.670745,3.18074 1.230312,-0.0529 2.418291,-3.30994 1.820359,-4.9027 -0.0053,-0.0106 -0.0079,-0.0238 -0.01323,-0.0344 l -0.734137,-1.78115 c -0.136816,-0.33203 0.07869,-0.70348 0.434869,-0.74943 l 3.638471,-0.46967 c 0.341841,-0.0441 0.68707,0.0506 0.958453,0.26308 l 0.541972,0.42421 c 0.226007,0.17692 0.504799,0.27305 0.791872,0.27305 h 0.602059 c 0.8255,0.57941 1.576943,1.61128 1.677458,3.1882 1.370541,-1.00275 0.272521,-3.84172 -0.751416,-4.58523 v -0.305145 c 0,-0.13835 -0.05493,-0.271065 -0.152665,-0.368961 l -1.105482,-1.10707 c -0.4005,-0.401055 -0.682202,-0.90506 -0.813991,-1.456293 l -0.785204,-3.28467 c -0.04194,-0.175339 0.09102,-0.343773 0.271304,-0.343773 h 1.182635 c 0.185499,0 0.36822,0.0431 0.533135,0.128032 1.439969,0.741601 2.758385,2.728595 2.497455,4.719108 1.87772,-1.459362 0.0579,-5.034412 -2.029275,-6.455066 z m -19.629465,14.157088 0.351896,-2.42094 1.066297,1.12184 c -0.238178,0.635 -0.738214,1.10066 -1.418193,1.2991 z m 0.219604,-22.772715 -2.88925,-0.949828 c 0.309563,-0.288396 2.942167,-0.695854 4.897438,-0.01588 z m 6.267901,21.473615 1.066298,-1.12184 0.351896,2.42094 c -0.67998,-0.19844 -1.180016,-0.6641 -1.418194,-1.2991 z m 1.198589,-21.473615 -2.008187,-0.965703 c 1.955271,-0.679979 4.587875,-0.272521 4.897437,0.01588 z"
       id="path4146"
       style="fill:#90ae50;fill-opacity:1;stroke-width:0.26458332" />
    <path
       inkscape:connector-curvature="0"
       d="M 108.27321,112.71976 H 56.524411 V 60.970721 h 51.748799 z m -50.161299,-1.5875 H 106.68571 V 62.558221 H 58.111911 Z"
       id="path4148"
       style="fill:#90ae50;fill-opacity:1;stroke-width:0.26458332" />
  </g>
</svg>
