<?xml version="1.0" encoding="UTF-8" standalone="no"?>
<!-- Generator: Adobe Illustrator 22.1.0, SVG Export Plug-In . SVG Version: 6.00 Build 0)  -->

<svg
   xmlns:dc="http://purl.org/dc/elements/1.1/"
   xmlns:cc="http://creativecommons.org/ns#"
   xmlns:rdf="http://www.w3.org/1999/02/22-rdf-syntax-ns#"
   xmlns:svg="http://www.w3.org/2000/svg"
   xmlns="http://www.w3.org/2000/svg"
   xmlns:sodipodi="http://sodipodi.sourceforge.net/DTD/sodipodi-0.dtd"
   xmlns:inkscape="http://www.inkscape.org/namespaces/inkscape"
   version="1.1"
   id="Layer_2_1_"
   x="0px"
   y="0px"
   viewBox="0 0 191.00001 191"
   enable-background="new 0 0 3947.9399414 3860.8613281"
   xml:space="preserve"
   sodipodi:docname="quantum_machinery.svg"
   inkscape:version="0.92.4 (5da689c313, 2019-01-14)"
   width="191.00002"
   height="191"><metadata
   id="metadata5465"><rdf:RDF><cc:Work
       rdf:about=""><dc:format>image/svg+xml</dc:format><dc:type
         rdf:resource="http://purl.org/dc/dcmitype/StillImage" /><dc:title></dc:title></cc:Work></rdf:RDF></metadata><defs
   id="defs5463" /><sodipodi:namedview
   pagecolor="#ffffff"
   bordercolor="#666666"
   borderopacity="1"
   objecttolerance="10"
   gridtolerance="10"
   guidetolerance="10"
   inkscape:pageopacity="0"
   inkscape:pageshadow="2"
   inkscape:window-width="1920"
   inkscape:window-height="1022"
   id="namedview5461"
   showgrid="false"
   inkscape:zoom="0.21212883"
   inkscape:cx="840.55521"
   inkscape:cy="-381.26379"
   inkscape:window-x="1079"
   inkscape:window-y="709"
   inkscape:window-maximized="1"
   inkscape:current-layer="Layer_2_1_" />

























<g
   id="g3898"
   style="fill:#e2bd4d;fill-opacity:1"
   transform="translate(-21.011499,-1157.1617)">
	<g
   id="g3894"
   style="fill:#e2bd4d;fill-opacity:1">
		<path
   d="m 86.509148,1226.7716 c -4.26796,11.7628 -13.603287,21.0982 -25.370743,25.3665 -0.496014,0.1799 -0.495873,0.8791 2.1e-4,1.0588 11.76736,4.2631 21.102604,13.5933 25.370533,25.3556 0.179908,0.4958 0.878868,0.4958 1.058769,0 4.267929,-11.7623 13.603143,-21.0925 25.370533,-25.3556 0.49608,-0.1797 0.49622,-0.8789 2.1e-4,-1.0588 -11.76749,-4.2683 -21.102784,-13.6037 -25.370743,-25.3665 -0.179901,-0.4957 -0.878868,-0.4957 -1.058769,0 z m 0.529388,34.415 -8.524567,-8.5245 8.524567,-8.5245 8.524559,8.5245 z"
   id="path3886"
   style="fill:#e2bd4d;fill-opacity:1"
   inkscape:connector-curvature="0" />
		<path
   d="m 145.46565,1226.7699 c -4.26765,11.7635 -13.60327,21.0996 -25.37124,25.368 -0.50267,0.1824 -0.50253,0.877 2.1e-4,1.0591 11.76726,4.263 21.10242,13.5932 25.37036,25.3554 0.18233,0.5025 0.87654,0.5025 1.05887,0 4.26793,-11.7622 13.6031,-21.0924 25.37036,-25.3554 0.50273,-0.1821 0.50288,-0.8767 2.1e-4,-1.0591 -11.76799,-4.2684 -21.10359,-13.6045 -25.37124,-25.368 -0.18209,-0.5018 -0.87544,-0.5018 -1.05753,0 z m 0.52877,34.4167 -8.52457,-8.5245 8.52457,-8.5245 8.52456,8.5245 z"
   id="path3888"
   style="fill:#e2bd4d;fill-opacity:1"
   inkscape:connector-curvature="0" />
		<path
   d="m 115.98709,1197.2937 c -4.26797,11.7628 -13.60329,21.0981 -25.370742,25.3663 -0.496017,0.18 -0.49588,0.8792 2.06e-4,1.059 11.767366,4.2631 21.102596,13.5933 25.370536,25.3556 0.1799,0.4958 0.87886,0.4958 1.05877,0 4.26793,-11.7623 13.60317,-21.0925 25.37054,-25.3556 0.49608,-0.1798 0.49621,-0.879 2e-4,-1.059 -11.76746,-4.2682 -21.10278,-13.6035 -25.37074,-25.3663 -0.1799,-0.4957 -0.87887,-0.4957 -1.05877,0 z m 0.52938,34.4149 -8.52456,-8.5245 8.52456,-8.5246 8.52457,8.5246 z"
   id="path3890"
   style="fill:#e2bd4d;fill-opacity:1"
   inkscape:connector-curvature="0" />
		<path
   d="m 115.98709,1256.2496 c -4.26797,11.7629 -13.60329,21.0982 -25.370742,25.3664 -0.496017,0.1799 -0.49588,0.8791 2.06e-4,1.0588 11.767366,4.2631 21.102596,13.5934 25.370536,25.3557 0.1799,0.4957 0.87886,0.4957 1.05877,0 4.26793,-11.7623 13.60317,-21.0926 25.37054,-25.3557 0.49608,-0.1797 0.49621,-0.8789 2e-4,-1.0588 -11.76746,-4.2682 -21.10278,-13.6035 -25.37074,-25.3664 -0.1799,-0.4958 -0.87887,-0.4958 -1.05877,0 z m 0.52938,34.415 -8.52456,-8.5246 8.52456,-8.5245 8.52457,8.5245 z"
   id="path3892"
   style="fill:#e2bd4d;fill-opacity:1"
   inkscape:connector-curvature="0" />
	</g>
	<path
   d="m 212.01151,1265.3318 v -25.3401 h -19.58002 c -0.26001,-1.58 -0.57001,-3.1399 -0.92999,-4.6799 l 18.08996,-7.49 -9.69,-23.4101 -18.08997,7.5 c -0.85003,-1.3599 -1.73999,-2.68 -2.66003,-3.9699 l 13.85004,-13.85 -17.91004,-17.92 -13.85998,13.8599 c -1.28998,-0.9299 -2.60999,-1.8199 -3.95997,-2.6599 l 7.48999,-18.0901 -23.40002,-9.6999 -7.48999,18.09 c -1.54999,-0.35 -3.10999,-0.6701 -4.69,-0.9301 v -19.58 h -25.33003 v 19.58 c -1.57995,0.26 -3.14001,0.5801 -4.689999,0.9301 l -7.48999,-18.09 -23.399964,9.6999 7.489991,18.0901 c -1.350037,0.84 -2.670044,1.73 -3.960022,2.6599 l -13.859982,-13.8599 -17.910034,17.92 13.850036,13.85 c -0.920044,1.2899 -1.809997,2.61 -2.660034,3.9699 l -18.089966,-7.5 -9.690004,23.4101 18.089968,7.49 c -0.359986,1.54 -0.669983,3.0999 -0.929993,4.6799 H 21.011499 v 25.3401 h 19.589968 c 0.26001,1.5799 0.570007,3.14 0.929993,4.6799 l -18.089968,7.49 9.690004,23.41 18.089966,-7.4899 c 0.850037,1.3499 1.73999,2.67 2.660034,3.96 l -13.850036,13.8499 17.910034,17.9202 13.859982,-13.8602 c 1.289978,0.9301 2.609985,1.8201 3.960022,2.6601 l -7.489991,18.0899 23.399964,9.7 7.48999,-18.0898 c 1.549989,0.3498 3.110049,0.6699 4.689999,0.9299 v 19.5799 h 25.33003 v -19.5799 c 1.58002,-0.26 3.14001,-0.5801 4.69,-0.9299 l 7.48999,18.0898 23.40002,-9.7 -7.48999,-18.0899 c 1.34998,-0.84 2.66999,-1.73 3.95997,-2.6601 l 13.85998,13.8602 17.91004,-17.9202 -13.85004,-13.8499 c 0.92004,-1.29 1.81,-2.6101 2.66003,-3.96 l 18.08997,7.4899 9.69,-23.41 -18.08996,-7.49 c 0.35998,-1.5399 0.66998,-3.1 0.92999,-4.6799 z m -95.50001,46.6999 c -32.790042,0 -59.369994,-26.5799 -59.369994,-59.37 0,-32.7899 26.579952,-59.37 59.369994,-59.37 32.79999,0 59.38001,26.5801 59.38001,59.37 0,32.7901 -26.58002,59.37 -59.38001,59.37 z"
   id="path3896"
   style="fill:#e2bd4d;fill-opacity:1"
   inkscape:connector-curvature="0" />
</g>

























































































































































</svg>