<?xml version="1.0" encoding="UTF-8" standalone="no"?>
<!-- Generator: Adobe Illustrator 22.1.0, SVG Export Plug-In . SVG Version: 6.00 Build 0)  -->

<svg
   xmlns:dc="http://purl.org/dc/elements/1.1/"
   xmlns:cc="http://creativecommons.org/ns#"
   xmlns:rdf="http://www.w3.org/1999/02/22-rdf-syntax-ns#"
   xmlns:svg="http://www.w3.org/2000/svg"
   xmlns="http://www.w3.org/2000/svg"
   xmlns:sodipodi="http://sodipodi.sourceforge.net/DTD/sodipodi-0.dtd"
   xmlns:inkscape="http://www.inkscape.org/namespaces/inkscape"
   version="1.1"
   id="Layer_2_1_"
   x="0px"
   y="0px"
   viewBox="0 0 196.22724 196.16327"
   enable-background="new 0 0 3947.9399414 3860.8613281"
   xml:space="preserve"
   sodipodi:docname="quantum_power.svg"
   inkscape:version="0.92.4 (5da689c313, 2019-01-14)"
   width="196.22725"
   height="196.16327"><metadata
   id="metadata5465"><rdf:RDF><cc:Work
       rdf:about=""><dc:format>image/svg+xml</dc:format><dc:type
         rdf:resource="http://purl.org/dc/dcmitype/StillImage" /><dc:title></dc:title></cc:Work></rdf:RDF></metadata><defs
   id="defs5463" /><sodipodi:namedview
   pagecolor="#ffffff"
   bordercolor="#666666"
   borderopacity="1"
   objecttolerance="10"
   gridtolerance="10"
   guidetolerance="10"
   inkscape:pageopacity="0"
   inkscape:pageshadow="2"
   inkscape:window-width="1920"
   inkscape:window-height="1022"
   id="namedview5461"
   showgrid="false"
   inkscape:zoom="0.21212883"
   inkscape:cx="533.56992"
   inkscape:cy="-378.68222"
   inkscape:window-x="1079"
   inkscape:window-y="709"
   inkscape:window-maximized="1"
   inkscape:current-layer="Layer_2_1_" />
























<g
   id="g3884"
   style="fill:#d7e6ed;fill-opacity:1"
   transform="translate(-327.99679,-1154.58)">
	<path
   d="m 373.29413,1207.1044 c -7.50998,20.698 -23.93662,37.1246 -44.64288,44.6352 -0.87281,0.3166 -0.87253,1.547 3.6e-4,1.8632 20.70612,7.5013 37.1326,23.9191 44.64252,44.6162 0.31659,0.8724 1.54648,0.8724 1.86304,0 7.50994,-20.6971 23.93637,-37.1149 44.64251,-44.6162 0.87293,-0.3162 0.87317,-1.5466 3.7e-4,-1.8632 -20.7063,-7.5106 -37.13287,-23.9372 -44.64288,-44.6352 -0.31656,-0.8725 -1.54648,-0.8725 -1.86304,0 z m 0.93152,60.5573 -15,-15 15,-15 15,15 z"
   id="path3876"
   style="fill:#d7e6ed;fill-opacity:1"
   inkscape:connector-curvature="0" />
	<path
   d="m 477.06412,1207.1044 c -7.50992,20.6977 -23.93628,37.1244 -44.64225,44.635 -0.87301,0.3166 -0.87277,1.5473 3.7e-4,1.8636 20.7056,7.5014 37.13168,23.9187 44.64166,44.6154 0.31665,0.8727 1.54685,0.8727 1.8635,0 7.50995,-20.6967 23.93606,-37.114 44.64163,-44.6154 0.87317,-0.3163 0.87341,-1.547 3.7e-4,-1.8636 -20.70594,-7.5106 -37.13233,-23.9373 -44.64225,-44.635 -0.31655,-0.8725 -1.54647,-0.8725 -1.86303,0 z m 0.93152,60.5573 -15,-15 15,-15 15,15 z"
   id="path3878"
   style="fill:#d7e6ed;fill-opacity:1"
   inkscape:connector-curvature="0" />
	<path
   d="m 425.17914,1155.2344 c -7.51001,20.6981 -23.93662,37.1246 -44.64289,44.6351 -0.8728,0.3165 -0.87255,1.547 3.7e-4,1.8632 20.70609,7.5014 37.13257,23.9193 44.64252,44.6163 0.31656,0.8724 1.54645,0.8724 1.86304,0 7.50994,-20.697 23.9364,-37.1149 44.64251,-44.6163 0.87293,-0.3162 0.87317,-1.5467 3.7e-4,-1.8632 -20.70627,-7.5105 -37.13291,-23.937 -44.64288,-44.6351 -0.31656,-0.8725 -1.54648,-0.8725 -1.86304,0 z m 0.93152,60.5572 -15,-15 15,-15 15,15 z"
   id="path3880"
   style="fill:#d7e6ed;fill-opacity:1"
   inkscape:connector-curvature="0" />
	<path
   d="m 425.17914,1258.9744 c -7.51001,20.6981 -23.93662,37.1246 -44.64289,44.6351 -0.8728,0.3165 -0.87255,1.547 3.7e-4,1.8632 20.70609,7.5014 37.13257,23.9193 44.64252,44.6163 0.31656,0.8724 1.54645,0.8724 1.86304,0 7.50994,-20.697 23.9364,-37.1149 44.64251,-44.6163 0.87293,-0.3162 0.87317,-1.5467 3.7e-4,-1.8632 -20.70627,-7.5105 -37.13291,-23.937 -44.64288,-44.6351 -0.31656,-0.8725 -1.54648,-0.8725 -1.86304,0 z m 0.93152,60.5572 -15,-15 15,-15 15,15 z"
   id="path3882"
   style="fill:#d7e6ed;fill-opacity:1"
   inkscape:connector-curvature="0" />
</g>


























































































































































</svg>