<?xml version="1.0" encoding="UTF-8" standalone="no"?>
<!-- Created with Inkscape (http://www.inkscape.org/) -->

<svg
   xmlns:dc="http://purl.org/dc/elements/1.1/"
   xmlns:cc="http://creativecommons.org/ns#"
   xmlns:rdf="http://www.w3.org/1999/02/22-rdf-syntax-ns#"
   xmlns:svg="http://www.w3.org/2000/svg"
   xmlns="http://www.w3.org/2000/svg"
   xmlns:sodipodi="http://sodipodi.sourceforge.net/DTD/sodipodi-0.dtd"
   xmlns:inkscape="http://www.inkscape.org/namespaces/inkscape"
   width="50.535416mm"
   height="50.535385mm"
   viewBox="0 0 50.535416 50.535383"
   version="1.1"
   id="svg795"
   inkscape:version="0.92.4 (f8dce91, 2019-08-02)"
   sodipodi:docname="retroviral_engineering.svg">
  <defs
     id="defs789" />
  <sodipodi:namedview
     id="base"
     pagecolor="#ffffff"
     bordercolor="#666666"
     borderopacity="1.0"
     inkscape:pageopacity="0.0"
     inkscape:pageshadow="2"
     inkscape:zoom="0.35"
     inkscape:cx="209.69655"
     inkscape:cy="84.613012"
     inkscape:document-units="mm"
     inkscape:current-layer="layer1"
     showgrid="false"
     inkscape:window-width="446"
     inkscape:window-height="439"
     inkscape:window-x="1205"
     inkscape:window-y="767"
     inkscape:window-maximized="0" />
  <metadata
     id="metadata792">
    <rdf:RDF>
      <cc:Work
         rdf:about="">
        <dc:format>image/svg+xml</dc:format>
        <dc:type
           rdf:resource="http://purl.org/dc/dcmitype/StillImage" />
        <dc:title></dc:title>
      </cc:Work>
    </rdf:RDF>
  </metadata>
  <g
     inkscape:label="Layer 1"
     inkscape:groupmode="layer"
     id="layer1"
     transform="translate(17.994959,-60.208954)">
    <g
       transform="matrix(0.26458333,0,0,0.26458333,-1006.5308,-170.87043)"
       id="g4620"
       style="fill:#e1561c;fill-opacity:1">
      <path
         inkscape:connector-curvature="0"
         d="m 3927.1985,981.54095 v -25.34008 h -19.5801 c -0.26,-1.57996 -0.5698,-3.1399 -0.9299,-4.67993 l 18.0901,-7.49 -9.6902,-23.41003 -18.0899,7.5 c -0.8501,-1.35998 -1.74,-2.68005 -2.6601,-3.96997 l 13.8501,-13.84998 -17.9099,-17.92004 -13.8601,13.85999 c -1.2901,-0.92994 -2.6102,-1.81995 -3.96,-2.65992 l 7.49,-18.09008 -23.3999,-9.69996 -7.4903,18.08997 c -1.5498,-0.34998 -3.1098,-0.67004 -4.6899,-0.93005 v -19.57996 h -25.3301 v 19.57996 c -1.5798,0.26001 -3.1399,0.58007 -4.6899,0.93005 l -7.49,-18.08997 -23.3999,9.69996 7.49,18.09008 c -1.3501,0.83997 -2.6699,1.72998 -3.96,2.65992 l -13.8601,-13.85999 -17.9099,17.92004 13.8501,13.84998 c -0.9202,1.28992 -1.8101,2.60999 -2.6602,3.96997 l -18.0898,-7.5 -9.6902,23.41003 18.0901,7.49 c -0.3601,1.54003 -0.6699,3.09997 -0.9302,4.67993 h -19.5898 v 25.34008 h 19.5898 c 0.2603,1.57996 0.5701,3.14002 0.9302,4.67994 l -18.0901,7.48999 9.6902,23.41002 18.0898,-7.49 c 0.8501,1.35 1.74,2.6701 2.6602,3.9601 l -13.8501,13.8498 17.9099,17.9202 13.8601,-13.8601 c 1.2901,0.93 2.6099,1.82 3.96,2.66 l -7.49,18.0901 23.3999,9.6999 7.49,-18.0899 c 1.55,0.3498 3.1101,0.6699 4.6899,0.9299 v 19.5799 h 25.3301 v -19.5799 c 1.5801,-0.26 3.1401,-0.5801 4.6899,-0.9299 l 7.4903,18.0899 23.3999,-9.6999 -7.49,-18.0901 c 1.3498,-0.84 2.6699,-1.73 3.96,-2.66 l 13.8601,13.8601 17.9099,-17.9202 -13.8501,-13.8498 c 0.9201,-1.29 1.81,-2.6101 2.6601,-3.9601 l 18.0899,7.49 9.6902,-23.41002 -18.0901,-7.48999 c 0.3601,-1.53992 0.6699,-3.09998 0.9299,-4.67994 z m -95.5,46.69985 c -32.7901,0 -59.3701,-26.5799 -59.3701,-59.36989 0,-32.78992 26.58,-59.36999 59.3701,-59.36999 32.8,0 59.3799,26.58007 59.3799,59.36999 0,32.78999 -26.5799,59.36989 -59.3799,59.36989 z"
         id="path4614"
         style="fill:#e1561c;fill-opacity:1" />
      <path
         inkscape:connector-curvature="0"
         d="m 3850.2351,945.28784 c 0,7.74439 6.2781,14.02246 14.0225,14.02246 7.7444,0 14.0224,-6.27807 14.0224,-14.02246 0,-7.74438 -6.278,-14.02246 -14.0224,-14.02246 -7.7444,0 -14.0225,6.27808 -14.0225,14.02246 z m 19.0449,0 c 0,2.76941 -2.2531,5.02246 -5.0224,5.02246 -2.7693,0 -5.0225,-2.25305 -5.0225,-5.02246 0,-2.76941 2.2532,-5.02246 5.0225,-5.02246 2.7693,0 5.0224,2.25305 5.0224,5.02246 z"
         id="path4616"
         style="fill:#e1561c;fill-opacity:1" />
      <path
         inkscape:connector-curvature="0"
         d="m 3861.2576,967.30035 c -5.4895,0 -10.2293,3.16187 -12.5318,7.7569 -2.5693,-2.91107 -6.3178,-4.7569 -10.5058,-4.7569 -2.7224,0 -5.2549,0.78852 -7.406,2.13111 1.5673,-2.26374 2.4909,-5.00684 2.4909,-7.96863 0,-5.32068 -2.9636,-9.94885 -7.33,-12.32483 1.1081,0.28156 2.2622,0.44733 3.4577,0.44733 7.7444,0 14.0225,-6.27808 14.0225,-14.02246 0,-7.74445 -6.2781,-14.02246 -14.0225,-14.02246 -7.7444,0 -14.0224,6.27801 -14.0224,14.02246 0,0.0634 0.01,0.12457 0.01,0.18774 -1.8838,-5.52118 -7.1033,-9.49774 -13.2622,-9.49774 -7.7444,0 -14.0225,6.27807 -14.0225,14.02246 0,5.39185 3.0471,10.06604 7.5098,12.41248 -1.064,-0.25812 -2.1692,-0.40992 -3.3123,-0.40992 -7.7444,0 -14.0224,6.27808 -14.0224,14.02246 0,7.74439 6.278,14.02246 14.0224,14.02246 2.5886,0 5.0051,-0.71374 7.0864,-1.93695 -2.0041,2.42505 -3.2087,5.53522 -3.2087,8.92701 0,7.74438 6.2781,14.02243 14.0225,14.02243 2.9189,0 5.6281,-0.8933 7.8728,-2.4193 -1.8086,2.3614 -2.8953,5.3051 -2.8953,8.5094 0,7.7443 6.2781,14.0224 14.0225,14.0224 7.7444,0 14.0224,-6.2781 14.0224,-14.0224 0,-5.2831 -2.9243,-9.8795 -7.24,-12.27025 0.72,0.11402 1.4527,0.19013 2.2049,0.19013 5.4895,0 10.2292,-3.16187 12.5317,-7.75696 2.5693,2.91107 6.3179,4.75696 10.5059,4.75696 7.7444,0 14.0224,-6.27808 14.0224,-14.02246 0,-7.74439 -6.278,-14.02247 -14.0224,-14.02247 z m -31.825,-33.75994 c 2.7693,0 5.0225,2.25305 5.0225,5.02246 0,2.76941 -2.2532,5.02246 -5.0225,5.02246 -2.7693,0 -5.0224,-2.25305 -5.0224,-5.02246 0,-2.76941 2.2531,-5.02246 5.0224,-5.02246 z m -13.2527,9.73492 c 0,-0.0634 -0.01,-0.12457 -0.01,-0.18774 1.1426,3.34845 3.5044,6.13208 6.5696,7.80011 -1.1079,-0.28156 -2.262,-0.44733 -3.4575,-0.44733 -2.1573,0 -4.1927,0.50152 -6.0183,1.37182 1.8212,-2.3659 2.9157,-5.32031 2.9157,-8.53686 z m -23.8474,31.04748 c -2.7693,0 -5.0224,-2.25305 -5.0224,-5.02246 0,-2.76941 2.2531,-5.02246 5.0224,-5.02246 2.7693,0 5.0225,2.25305 5.0225,5.02246 0,2.76941 -2.2532,5.02246 -5.0225,5.02246 z m 4.8025,-31.04748 c 0,-2.76941 2.2532,-5.02246 5.0225,-5.02246 2.7693,0 5.0224,2.25305 5.0224,5.02246 0,2.76941 -2.2531,5.02246 -5.0224,5.02246 -2.7693,0 -5.0225,-2.25305 -5.0225,-5.02246 z m 1.7105,13.61255 c 1.0637,0.25812 2.1689,0.40991 3.312,0.40991 2.1572,0 4.1926,-0.50153 6.0183,-1.37183 -1.7202,2.23462 -2.7766,4.99762 -2.8892,8.00818 -1.2585,-3.03503 -3.5525,-5.52734 -6.4411,-7.04626 z m 7.4829,12.94116 c 1.1386,2.74597 3.1301,5.04028 5.6374,6.57947 -0.5691,-0.0703 -1.145,-0.1181 -1.7331,-0.1181 -2.5887,0 -5.0052,0.7138 -7.0865,1.93701 1.8987,-2.29743 3.063,-5.21418 3.1822,-8.39838 z m 3.9043,25.50629 c -2.7693,0 -5.0225,-2.25305 -5.0225,-5.02246 0,-2.76941 2.2532,-5.02246 5.0225,-5.02246 2.7693,0 5.0224,2.25305 5.0224,5.02246 0,2.76941 -2.2531,5.02246 -5.0224,5.02246 z m 4.0273,-30.8725 c 0,-2.76941 2.2532,-5.02246 5.0225,-5.02246 2.7693,0 5.0224,2.25305 5.0224,5.02246 0,2.76941 -2.2531,5.02246 -5.0224,5.02246 -2.7693,0 -5.0225,-2.25305 -5.0225,-5.02246 z m 3.2893,13.90436 c 0.5691,0.0703 1.145,0.1181 1.7332,0.1181 2.7224,0 5.2549,-0.78851 7.406,-2.1311 -1.5674,2.26373 -2.491,5.00683 -2.491,7.96862 0,5.28302 2.9243,9.87946 7.24,12.27021 -0.72,-0.11402 -1.4526,-0.19013 -2.2048,-0.19013 -2.919,0 -5.6282,0.89331 -7.8728,2.41931 1.8086,-2.36138 2.8952,-5.30511 2.8952,-8.50933 0,-5.05945 -2.6884,-9.47962 -6.7058,-11.94568 z m 11.6834,37.08061 c -2.7693,0 -5.0225,-2.253 -5.0225,-5.0224 0,-2.7695 2.2532,-5.0225 5.0225,-5.0225 2.7693,0 5.0224,2.253 5.0224,5.0225 0,2.7694 -2.2531,5.0224 -5.0224,5.0224 z m 8.9873,-26.10252 c -2.7693,0 -5.0225,-2.25306 -5.0225,-5.02247 0,-2.7694 2.2532,-5.02246 5.0225,-5.02246 2.7693,0 5.0224,2.25306 5.0224,5.02246 0,2.76941 -2.2531,5.02247 -5.0224,5.02247 z m 23.0376,-3 c -2.7693,0 -5.0225,-2.25306 -5.0225,-5.02247 0,-2.7694 2.2532,-5.02246 5.0225,-5.02246 2.7693,0 5.0224,2.25306 5.0224,5.02246 0,2.76941 -2.2531,5.02247 -5.0224,5.02247 z"
         id="path4618"
         style="fill:#e1561c;fill-opacity:1" />
    </g>
  </g>
</svg>
