<?xml version="1.0" encoding="UTF-8" standalone="no"?>
<!-- Generator: Adobe Illustrator 22.1.0, SVG Export Plug-In . SVG Version: 6.00 Build 0)  -->

<svg
   xmlns:dc="http://purl.org/dc/elements/1.1/"
   xmlns:cc="http://creativecommons.org/ns#"
   xmlns:rdf="http://www.w3.org/1999/02/22-rdf-syntax-ns#"
   xmlns:svg="http://www.w3.org/2000/svg"
   xmlns="http://www.w3.org/2000/svg"
   xmlns:sodipodi="http://sodipodi.sourceforge.net/DTD/sodipodi-0.dtd"
   xmlns:inkscape="http://www.inkscape.org/namespaces/inkscape"
   version="1.1"
   id="Layer_2_1_"
   x="0px"
   y="0px"
   viewBox="0 0 198.78998 198.8001"
   enable-background="new 0 0 3947.9399414 3860.8613281"
   xml:space="preserve"
   sodipodi:docname="secrets_of_the_manifolds.svg"
   inkscape:version="0.92.4 (5da689c313, 2019-01-14)"
   width="198.78999"
   height="198.80009"><metadata
   id="metadata5465"><rdf:RDF><cc:Work
       rdf:about=""><dc:format>image/svg+xml</dc:format><dc:type
         rdf:resource="http://purl.org/dc/dcmitype/StillImage" /><dc:title></dc:title></cc:Work></rdf:RDF></metadata><defs
   id="defs5463" /><sodipodi:namedview
   pagecolor="#ffffff"
   bordercolor="#666666"
   borderopacity="1"
   objecttolerance="10"
   gridtolerance="10"
   guidetolerance="10"
   inkscape:pageopacity="0"
   inkscape:pageshadow="2"
   inkscape:window-width="1920"
   inkscape:window-height="1022"
   id="namedview5461"
   showgrid="false"
   inkscape:zoom="0.21212883"
   inkscape:cx="-1013.1433"
   inkscape:cy="1041.5904"
   inkscape:window-x="1079"
   inkscape:window-y="709"
   inkscape:window-maximized="1"
   inkscape:current-layer="Layer_2_1_" />































































































































































<g
   id="g5190"
   style="fill:#d7e6ed;fill-opacity:1"
   transform="translate(-1874.71,-2572.2158)">
	<path
   d="m 2069.46,2643.4958 c -4.51,-15.34 -12.6199,-29.1301 -23.3499,-40.4001 -12.9702,-13.6299 -29.77,-23.5798 -48.6702,-28.1101 -7.4799,-1.8198 -15.3,-2.7698 -23.3398,-2.7698 -8.04,0 -15.8501,0.95 -23.3301,2.76 -18.8999,4.5401 -35.6999,14.49 -48.6799,28.1199 -10.73,11.27 -18.8301,25.0601 -23.3401,40.4001 -2.6299,8.91 -4.04,18.3499 -4.04,28.1199 0,9.77 1.4101,19.21 4.04,28.1199 4.51,15.3401 12.6101,29.1301 23.3401,40.4001 12.98,13.6302 29.78,23.5801 48.6799,28.1199 7.48,1.8101 15.2901,2.7603 23.3301,2.7603 8.0398,0 15.8599,-0.9502 23.3398,-2.7701 18.9002,-4.53 35.7,-14.4799 48.6702,-28.1101 10.73,-11.27 18.8399,-25.06 23.3499,-40.4001 2.6301,-8.9099 4.04,-18.3499 4.04,-28.1199 0,-9.77 -1.4099,-19.2099 -4.04,-28.1199 z m -5.5743,52.9183 c -2.8088,-1.179 -5.8972,-1.8284 -9.1357,-1.8284 -13.03,0 -23.5901,10.5601 -23.5901,23.5901 0,7.6599 3.6502,14.4599 9.3001,18.77 7e-4,5e-4 0,0 0,0 -11.6343,11.8169 -26.3975,20.544 -42.9519,24.8301 -3e-4,-7e-4 -3e-4,0 -3e-4,0 -1.46,-11.6298 -11.3899,-20.6298 -23.4099,-20.6298 -12.02,0 -21.9402,9 -23.4001,20.6298 -3e-4,0 -3e-4,0 -5e-4,0 -16.5562,-4.2854 -31.3225,-13.014 -42.9595,-24.8333 5.6499,-4.3101 9.3,-11.1101 9.3,-18.77 0,-13.03 -10.56,-23.5901 -23.59,-23.5901 -3.2382,0 -6.3262,0.6494 -9.1351,1.8281 -2.1765,-7.8962 -3.3449,-16.2104 -3.3449,-24.7981 0,-8.5876 1.1684,-16.9018 3.3449,-24.7981 2.8089,1.1787 5.8969,1.8282 9.1351,1.8282 13.03,0 23.59,-10.5601 23.59,-23.5901 0,-7.6599 -3.6501,-14.47 -9.3,-18.7698 0,0 0,0 -3e-4,0 11.6375,-11.8198 26.4043,-20.5486 42.9612,-24.834 1.4532,11.627 11.3714,20.6238 23.3992,20.6238 12.0273,0 21.9551,-8.9961 23.4084,-20.6221 16.5552,4.2857 31.3191,13.013 42.9539,24.8306 -7e-4,5e-4 0,0 0,0 -5.6499,4.2998 -9.3001,11.1099 -9.3001,18.7698 0,13.03 10.5601,23.5901 23.5901,23.5901 3.2385,0 6.3269,-0.6495 9.1357,-1.8284 2.1761,7.8962 3.3443,16.2104 3.3443,24.7983 0,8.5879 -1.1682,16.9021 -3.3443,24.7984 z"
   id="path5186"
   style="fill:#d7e6ed;fill-opacity:1"
   inkscape:connector-curvature="0" />
	<path
   d="m 2050.488,2666.5969 -12.8505,-9.7173 c -10.459,-7.9079 -17.3853,-19.9052 -19.0052,-32.9165 l -1.99,-15.9878 c -0.2461,-1.9743 -1.3745,-3.6765 -3.0976,-4.6704 -1.7229,-0.9951 -3.762,-1.1223 -5.5945,-0.3474 l -14.8406,6.2703 c -12.0766,5.1013 -25.9306,5.1035 -38.0093,0 l -14.8415,-6.2703 c -1.8325,-0.7749 -3.8706,-0.6477 -5.5935,0.3462 -1.7232,0.9951 -2.8526,2.6973 -3.0986,4.6716 l -1.9903,15.9878 c -1.6196,13.0113 -8.5461,25.0098 -19.0039,32.9165 l -12.8518,9.7173 c -1.5862,1.1997 -2.4958,3.0288 -2.4958,5.0191 0,1.99 0.9096,3.8193 2.4958,5.0188 l 12.8518,9.7173 c 10.4578,7.9069 17.3843,19.9052 19.0039,32.9165 l 1.9903,15.9877 c 0.246,1.9744 1.3754,3.6766 3.0986,4.6717 1.7229,0.9929 3.761,1.1211 5.5935,0.3462 l 14.8415,-6.2703 c 6.0389,-2.5513 12.522,-3.8269 19.0052,-3.8269 6.4821,0 12.9653,1.2756 19.0041,3.8269 l 14.8406,6.2703 c 1.8325,0.7749 3.8716,0.6477 5.5945,-0.3472 1.7231,-0.9941 2.8515,-2.6963 3.0976,-4.6707 l 1.99,-15.9877 c 1.6199,-13.0113 8.5462,-25.0086 19.0052,-32.9165 l 12.8505,-9.7173 c 1.5865,-1.2005 2.4971,-3.0288 2.4971,-5.0188 0,-1.9903 -0.9106,-3.8184 -2.4971,-5.0191 z m -64.861,43.0742 -11.7239,-21.0615 -12.8092,21.0615 h -28.8026 l 24.8827,-40.9121 -19.5994,-35.1985 h 30.3008 l 7.8936,14.1814 8.6202,-14.1814 h 28.8027 l -20.694,34.0325 23.4208,42.0781 z"
   id="path5188"
   style="fill:#d7e6ed;fill-opacity:1"
   inkscape:connector-curvature="0" />
</g>



















</svg>