<?xml version="1.0" encoding="UTF-8" standalone="no"?>
<!-- Created with Inkscape (http://www.inkscape.org/) -->

<svg
   xmlns:dc="http://purl.org/dc/elements/1.1/"
   xmlns:cc="http://creativecommons.org/ns#"
   xmlns:rdf="http://www.w3.org/1999/02/22-rdf-syntax-ns#"
   xmlns:svg="http://www.w3.org/2000/svg"
   xmlns="http://www.w3.org/2000/svg"
   xmlns:sodipodi="http://sodipodi.sourceforge.net/DTD/sodipodi-0.dtd"
   xmlns:inkscape="http://www.inkscape.org/namespaces/inkscape"
   width="46.891804mm"
   height="51.927139mm"
   viewBox="0 0 46.891804 51.92714"
   version="1.1"
   id="svg883"
   inkscape:version="0.92.4 (f8dce91, 2019-08-02)"
   sodipodi:docname="secrets_of_the_human_brain.svg">
  <defs
     id="defs877" />
  <sodipodi:namedview
     id="base"
     pagecolor="#ffffff"
     bordercolor="#666666"
     borderopacity="1.0"
     inkscape:pageopacity="0.0"
     inkscape:pageshadow="2"
     inkscape:zoom="0.35"
     inkscape:cx="-121.59858"
     inkscape:cy="231.66644"
     inkscape:document-units="mm"
     inkscape:current-layer="layer1"
     showgrid="false"
     inkscape:window-width="446"
     inkscape:window-height="439"
     inkscape:window-x="1255"
     inkscape:window-y="1048"
     inkscape:window-maximized="0" />
  <metadata
     id="metadata880">
    <rdf:RDF>
      <cc:Work
         rdf:about="">
        <dc:format>image/svg+xml</dc:format>
        <dc:type
           rdf:resource="http://purl.org/dc/dcmitype/StillImage" />
        <dc:title></dc:title>
      </cc:Work>
    </rdf:RDF>
  </metadata>
  <g
     inkscape:label="Layer 1"
     inkscape:groupmode="layer"
     id="layer1"
     transform="translate(-138.00629,-158.20128)">
    <g
       transform="matrix(0.26458333,0,0,0.26458333,-360.86309,-72.182235)"
       id="g4204"
       style="fill:#d7e6ed;fill-opacity:1">
      <path
         inkscape:connector-curvature="0"
         d="m 1992.0406,927.82086 20.0801,-27.56 h -27.9599 l -8.3902,11.48999 -7.6699,-11.48999 h -29.5601 l 19.15,28.51001 -24.19,33.13001 h 28.01 l 12.45,-17.06 11.4001,17.06 h 29.45 z m 0,0 20.0801,-27.56 h -27.9599 l -8.3902,11.48999 -7.6699,-11.48999 h -29.5601 l 19.15,28.51001 -24.19,33.13001 h 28.01 l 12.45,-17.06 11.4001,17.06 h 29.45 z m 0,0 20.0801,-27.56 h -27.9599 l -8.3902,11.48999 -7.6699,-11.48999 h -29.5601 l 19.15,28.51001 -24.19,33.13001 h 28.01 l 12.45,-17.06 11.4001,17.06 h 29.45 z"
         id="path4200"
         style="fill:#d7e6ed;fill-opacity:1" />
      <path
         inkscape:connector-curvature="0"
         d="m 2061.9109,970.77087 -14.1503,-25.60003 v -7.19995 c 0,-37.13001 -33.28,-67.23005 -74.32,-67.23005 -41.0401,0 -74.3199,30.10004 -74.3199,67.23005 0,20.01995 9.6699,37.98999 25.02,50.29998 v 40.07993 l -38.6501,38.6501 h 131.0601 l -22.8601,-22.85 v -3.98 h 50.59 v -31.75 h -18.75 v -7.9301 h 18.75 v -17.46993 h 8.7502 c 3.24,0 6.25,-1.67999 7.9399,-4.41003 l 0.76,-1.21997 c 1.25,-2.01001 1.3201,-4.53998 0.1802,-6.62 z m -37.3002,-14.04004 c -13.6701,14.96003 -26.3501,6.70002 -42.02,7.20002 -30.1301,0.97003 -32.8801,8.40002 -41.7,8.91003 -5.4799,0.31 -15.9001,2.01996 -22.4702,-19.19 -6.5298,-19.20001 4.3101,-40.19 20.1201,-53.39002 8.48,-7.08001 18.3799,-11.90997 27.8101,-13.03002 16.3101,-1.93995 32.96,2.96002 45.77,13.03002 7.6699,6.03003 13.97,13.90998 17.98,23.28998 4.75,11.10004 2.6899,24.23004 -5.49,33.17999 z"
         id="path4202"
         style="fill:#d7e6ed;fill-opacity:1" />
    </g>
  </g>
</svg>
