<?xml version="1.0" encoding="UTF-8" standalone="no"?>
<!-- Generator: Adobe Illustrator 22.1.0, SVG Export Plug-In . SVG Version: 6.00 Build 0)  -->

<svg
   xmlns:dc="http://purl.org/dc/elements/1.1/"
   xmlns:cc="http://creativecommons.org/ns#"
   xmlns:rdf="http://www.w3.org/1999/02/22-rdf-syntax-ns#"
   xmlns:svg="http://www.w3.org/2000/svg"
   xmlns="http://www.w3.org/2000/svg"
   xmlns:sodipodi="http://sodipodi.sourceforge.net/DTD/sodipodi-0.dtd"
   xmlns:inkscape="http://www.inkscape.org/namespaces/inkscape"
   version="1.1"
   id="Layer_2_1_"
   x="0px"
   y="0px"
   viewBox="0 0 207.39 207.3999"
   enable-background="new 0 0 3947.9399414 3860.8613281"
   xml:space="preserve"
   sodipodi:docname="secrets_of_alpha_centauri.svg"
   inkscape:version="0.92.4 (5da689c313, 2019-01-14)"
   width="207.39001"
   height="207.3999"><metadata
   id="metadata5465"><rdf:RDF><cc:Work
       rdf:about=""><dc:format>image/svg+xml</dc:format><dc:type
         rdf:resource="http://purl.org/dc/dcmitype/StillImage" /><dc:title></dc:title></cc:Work></rdf:RDF></metadata><defs
   id="defs5463" /><sodipodi:namedview
   pagecolor="#ffffff"
   bordercolor="#666666"
   borderopacity="1"
   objecttolerance="10"
   gridtolerance="10"
   guidetolerance="10"
   inkscape:pageopacity="0"
   inkscape:pageshadow="2"
   inkscape:window-width="1920"
   inkscape:window-height="1022"
   id="namedview5461"
   showgrid="false"
   inkscape:zoom="0.21212883"
   inkscape:cx="848.75022"
   inkscape:cy="-89.272994"
   inkscape:window-x="1079"
   inkscape:window-y="709"
   inkscape:window-maximized="1"
   inkscape:current-layer="Layer_2_1_" />



























<g
   id="g3910"
   style="fill:#d7e6ed;fill-opacity:1"
   transform="translate(-12.81649,-1432.7526)">
	<path
   d="m 116.50649,1432.7526 c -57.269952,0 -103.69,46.4299 -103.69,103.6999 0,57.27 46.420044,103.7 103.69,103.7 57.27003,0 103.70002,-46.43 103.70002,-103.7 0,-57.27 -46.42999,-103.6999 -103.70002,-103.6999 z m 0,191.3999 c -48.349973,0 -87.69,-39.34 -87.69,-87.7 0,-48.3601 39.340027,-87.6999 87.69,-87.6999 48.36006,0 87.70002,39.3398 87.70002,87.6999 0,48.36 -39.33996,87.7 -87.70002,87.7 z"
   id="path3906"
   style="fill:#d7e6ed;fill-opacity:1"
   inkscape:connector-curvature="0" />
	<path
   d="m 116.50649,1464.7526 c -39.529966,0 -71.69,32.1699 -71.69,71.6999 0,39.53 32.160027,71.7 71.69,71.7 39.54005,0 71.70002,-32.17 71.70002,-71.7 0,-39.53 -32.15997,-71.6999 -71.70002,-71.6999 z m 12.91004,113.1499 -13.07001,-23.48 -14.28003,23.48 H 69.956505 l 27.73999,-45.61 -21.849976,-39.24 h 33.779971 l 8.80005,15.8099 9.60999,-15.8099 h 32.10998 l -23.07,37.9401 26.11004,46.9099 z"
   id="path3908"
   style="fill:#d7e6ed;fill-opacity:1"
   inkscape:connector-curvature="0" />
</g>























































































































































</svg>