<?xml version="1.0" encoding="UTF-8" standalone="no"?>
<!-- Generator: Adobe Illustrator 22.1.0, SVG Export Plug-In . SVG Version: 6.00 Build 0)  -->

<svg
   xmlns:dc="http://purl.org/dc/elements/1.1/"
   xmlns:cc="http://creativecommons.org/ns#"
   xmlns:rdf="http://www.w3.org/1999/02/22-rdf-syntax-ns#"
   xmlns:svg="http://www.w3.org/2000/svg"
   xmlns="http://www.w3.org/2000/svg"
   xmlns:sodipodi="http://sodipodi.sourceforge.net/DTD/sodipodi-0.dtd"
   xmlns:inkscape="http://www.inkscape.org/namespaces/inkscape"
   version="1.1"
   id="Layer_2_1_"
   x="0px"
   y="0px"
   viewBox="0 0 198.54979 198.56"
   enable-background="new 0 0 3947.9399414 3860.8613281"
   xml:space="preserve"
   sodipodi:docname="the_secrets_of_creation.svg"
   inkscape:version="0.92.4 (5da689c313, 2019-01-14)"
   width="198.5498"
   height="198.56"><metadata
   id="metadata5465"><rdf:RDF><cc:Work
       rdf:about=""><dc:format>image/svg+xml</dc:format><dc:type
         rdf:resource="http://purl.org/dc/dcmitype/StillImage" /><dc:title></dc:title></cc:Work></rdf:RDF></metadata><defs
   id="defs5463" /><sodipodi:namedview
   pagecolor="#ffffff"
   bordercolor="#666666"
   borderopacity="1"
   objecttolerance="10"
   gridtolerance="10"
   guidetolerance="10"
   inkscape:pageopacity="0"
   inkscape:pageshadow="2"
   inkscape:window-width="1920"
   inkscape:window-height="1022"
   id="namedview5461"
   showgrid="false"
   inkscape:zoom="0.21212883"
   inkscape:cx="-1632.4611"
   inkscape:cy="1892.8428"
   inkscape:window-x="1079"
   inkscape:window-y="709"
   inkscape:window-maximized="1"
   inkscape:current-layer="Layer_2_1_" />
























































































































































<g
   id="g5120"
   style="fill:#d7e6ed;fill-opacity:1"
   transform="translate(-2494.0278,-3423.7083)">
	<polygon
   points="2607.5537,3519.2539 2625.7004,3551.8572 2602.23,3551.8572 2593.146,3535.5381 2583.2212,3551.8572 2560.9043,3551.8572 2580.1838,3520.1575 2564.9978,3492.885 2588.4756,3492.885 2594.5916,3503.8733 2601.2708,3492.885 2623.5876,3492.885 "
   id="polygon5116"
   style="fill:#d7e6ed;fill-opacity:1" />
	<path
   d="m 2593.2974,3423.7083 c -54.8296,0 -99.2696,44.4499 -99.2696,99.28 0,54.8301 44.44,99.28 99.2696,99.28 54.83,0 99.2802,-44.4499 99.2802,-99.28 0,-54.8301 -44.4502,-99.28 -99.2802,-99.28 z m 55.9004,28.4289 c -42.5,-6.0513 -91.6719,12.6692 -104.6207,46.4343 3.5943,-13.9775 11.7305,-27.3928 23.46,-38.6865 23.1953,-21.1135 72.7446,-9.8064 81.1607,-7.7478 z m -55.9004,25.2012 c 25.1801,0 45.6504,20.48 45.6504,45.6499 0,25.1699 -20.4703,45.6499 -45.6504,45.6499 -25.17,0 -45.6397,-20.48 -45.6397,-45.6499 0,-25.1699 20.4697,-45.6499 45.6397,-45.6499 z m -62.4844,18.8469 c 1.522,-31.3123 44.4975,-58.3284 51.9048,-62.8235 -34.3282,25.78 -55.8662,73.8018 -41.1304,106.8223 h -0.011 c -7.3423,-12.4373 -11.083,-27.7068 -10.7637,-43.9949 z m -8.376,-29.093 c -6.041,42.5039 12.6802,91.6758 46.4448,104.6245 -13.9775,-3.5942 -27.393,-11.7305 -38.686,-23.4605 -21.1138,-23.1948 -9.8179,-72.748 -7.7588,-81.164 z m -18.7646,66.4839 c 25.7797,34.3281 73.791,55.8623 106.8076,41.1372 -12.4448,7.3642 -27.7324,11.0864 -44.0562,10.7661 -31.2788,-1.582 -58.2632,-44.5107 -62.7514,-51.9033 z m 33.7339,60.27 c 42.4643,6.0508 91.6181,-12.6521 104.5874,-46.3735 l 0.026,-0.075 0.012,-0.032 v 0.047 c -3.5942,13.977 -11.7304,27.3923 -23.4604,38.686 -23.1948,21.1135 -72.7481,9.8171 -81.1606,7.7478 z m 118.3745,-43.8469 c -1.6929,31.2158 -44.5054,58.1447 -51.8941,62.6223 34.3281,-25.7798 55.8657,-73.8015 41.1304,-106.822 7.3848,12.4885 11.1099,27.8366 10.7637,44.1997 z m 8.3759,28.8882 c 6.0513,-42.5003 -12.6689,-91.6722 -46.4345,-104.6211 13.9775,3.5944 27.393,11.7304 38.6865,23.4607 21.1138,23.1948 9.8066,72.7441 7.748,81.1604 z m -88.0468,-107.6106 v -0.011 c 12.4228,-7.3354 27.6777,-11.0693 43.9482,-10.7676 0.01,0 0.036,5e-4 0.046,0 31.312,1.5215 58.3286,44.4973 62.8237,51.9043 -25.7802,-34.3281 -73.8017,-55.8657 -106.8222,-41.1303 z"
   id="path5118"
   style="fill:#d7e6ed;fill-opacity:1"
   inkscape:connector-curvature="0" />
</g>


























</svg>