<?xml version="1.0" encoding="UTF-8" standalone="no"?>
<!-- Generator: Adobe Illustrator 22.1.0, SVG Export Plug-In . SVG Version: 6.00 Build 0)  -->

<svg
   xmlns:dc="http://purl.org/dc/elements/1.1/"
   xmlns:cc="http://creativecommons.org/ns#"
   xmlns:rdf="http://www.w3.org/1999/02/22-rdf-syntax-ns#"
   xmlns:svg="http://www.w3.org/2000/svg"
   xmlns="http://www.w3.org/2000/svg"
   xmlns:sodipodi="http://sodipodi.sourceforge.net/DTD/sodipodi-0.dtd"
   xmlns:inkscape="http://www.inkscape.org/namespaces/inkscape"
   version="1.1"
   id="Layer_2_1_"
   x="0px"
   y="0px"
   viewBox="0 0 190.99999 191"
   enable-background="new 0 0 3947.9399414 3860.8613281"
   xml:space="preserve"
   sodipodi:docname="self_aware_machines.svg"
   inkscape:version="0.92.4 (5da689c313, 2019-01-14)"
   width="191"
   height="191"><metadata
   id="metadata5465"><rdf:RDF><cc:Work
       rdf:about=""><dc:format>image/svg+xml</dc:format><dc:type
         rdf:resource="http://purl.org/dc/dcmitype/StillImage" /><dc:title></dc:title></cc:Work></rdf:RDF></metadata><defs
   id="defs5463" /><sodipodi:namedview
   pagecolor="#ffffff"
   bordercolor="#666666"
   borderopacity="1"
   objecttolerance="10"
   gridtolerance="10"
   guidetolerance="10"
   inkscape:pageopacity="0"
   inkscape:pageshadow="2"
   inkscape:window-width="1920"
   inkscape:window-height="1022"
   id="namedview5461"
   showgrid="false"
   inkscape:zoom="0.21212883"
   inkscape:cx="-2874.6318"
   inkscape:cy="753.89951"
   inkscape:window-x="1079"
   inkscape:window-y="709"
   inkscape:window-maximized="1"
   inkscape:current-layer="Layer_2_1_" />




















































































































































<g
   id="g5080"
   style="fill:#d7e6ed;fill-opacity:1"
   transform="translate(-3736.1985,-2292.325)">
	<path
   d="m 3879.7517,2374.165 c -9.6428,-10.093 -27.2341,-19.5986 -48.0532,-20.1005 -20.8189,0.5019 -38.4104,10.0075 -48.053,20.1005 -3.1306,3.2732 -6.147,7.795 -6.147,12.2884 0,6.2326 5.1319,12.4367 10.6575,17.1125 5.5198,4.6702 11.4387,7.8179 13.0068,7.9204 v -17.2151 c -1.2202,-1.0092 -2.5546,-2.4462 -3.5695,-3.809 -0.3594,-0.4847 -0.7698,-1.1746 -1.0948,-1.8931 -0.3252,-0.7244 -0.5588,-1.4771 -0.5588,-2.0757 0,-1.1975 0.3647,-2.3779 1.0832,-3.3359 2.3724,-3.159 7.3104,-7.2989 14.4097,-10.3155 -4.0029,4.6702 -6.4265,10.7317 -6.4265,17.3636 0,14.7402 11.9519,26.6923 26.6924,26.6923 14.7405,0 26.6924,-11.9521 26.6924,-26.6923 0,-6.6319 -2.4236,-12.6934 -6.4265,-17.3636 7.0993,3.0166 12.0376,7.1565 14.4096,10.3155 0.7185,0.958 1.0835,2.1384 1.0835,3.3359 0,0.5986 -0.2339,1.3513 -0.5588,2.0757 -0.3252,0.7185 -0.7356,1.4084 -1.095,1.8931 -1.0149,1.3628 -2.3491,2.7998 -3.5696,3.809 v 17.2151 c 1.5681,-0.1025 7.4871,-3.2502 13.0069,-7.9204 5.5256,-4.6758 10.6577,-10.8799 10.6577,-17.1125 0,-4.4934 -3.0166,-9.0152 -6.147,-12.2884 z m -48.0532,23.1685 c -3.9346,0 -7.1277,-3.1934 -7.1277,-7.1279 0,-3.9346 3.1931,-7.128 7.1277,-7.128 3.9346,0 7.1279,3.1934 7.1279,7.128 0,3.9345 -3.1933,7.1279 -7.1279,7.1279 z"
   id="path5076"
   style="fill:#d7e6ed;fill-opacity:1"
   inkscape:connector-curvature="0" />
	<path
   d="m 3927.1985,2400.4951 v -25.3401 h -19.5801 c -0.26,-1.58 -0.5698,-3.1399 -0.9299,-4.6799 l 18.0901,-7.49 -9.6902,-23.4101 -18.0899,7.5 c -0.8501,-1.3599 -1.74,-2.68 -2.6601,-3.97 l 13.8501,-13.8499 -17.9099,-17.9201 -13.8601,13.8601 c -1.2901,-0.93 -2.6099,-1.8201 -3.96,-2.6599 l 7.49,-18.0901 -23.3999,-9.7 -7.49,18.0899 c -1.5501,-0.3499 -3.1101,-0.67 -4.6902,-0.93 v -19.58 h -25.3298 v 19.58 c -1.5801,0.26 -3.1402,0.5801 -4.6902,0.93 l -7.49,-18.0899 -23.3999,9.7 7.49,18.0901 c -1.3501,0.8398 -2.6699,1.7299 -3.96,2.6599 l -13.8601,-13.8601 -17.9099,17.9201 13.8501,13.8499 c -0.9202,1.29 -1.8101,2.6101 -2.6602,3.97 l -18.0898,-7.5 -9.6902,23.4101 18.0901,7.49 c -0.3601,1.54 -0.6699,3.0999 -0.9299,4.6799 h -19.5901 v 25.3401 h 19.5901 c 0.26,1.5799 0.5698,3.1399 0.9299,4.6799 l -18.0901,7.49 9.6902,23.41 18.0898,-7.49 c 0.8501,1.3501 1.74,2.6701 2.6602,3.9602 l -13.8501,13.8498 17.9099,17.9202 13.8601,-13.8601 c 1.2901,0.9299 2.6099,1.82 3.96,2.6599 l -7.49,18.0901 23.3999,9.6999 7.49,-18.0898 c 1.55,0.3498 3.1101,0.6699 4.6902,0.9299 v 19.5799 h 25.3298 v -19.5799 c 1.5801,-0.26 3.1401,-0.5801 4.6902,-0.9299 l 7.49,18.0898 23.3999,-9.6999 -7.49,-18.0901 c 1.3501,-0.8399 2.6699,-1.73 3.96,-2.6599 l 13.8601,13.8601 17.9099,-17.9202 -13.8501,-13.8498 c 0.9201,-1.2901 1.81,-2.6101 2.6601,-3.9602 l 18.0899,7.49 9.6902,-23.41 -18.0901,-7.49 c 0.3601,-1.54 0.6699,-3.1 0.9299,-4.6799 z m -95.5,46.7 c -32.7901,0 -59.3699,-26.5801 -59.3699,-59.3701 0,-32.7898 26.5798,-59.3699 59.3699,-59.3699 32.8,0 59.3801,26.5801 59.3801,59.3699 0,32.79 -26.5801,59.3701 -59.3801,59.3701 z"
   id="path5078"
   style="fill:#d7e6ed;fill-opacity:1"
   inkscape:connector-curvature="0" />
</g>






























</svg>