<?xml version="1.0" encoding="UTF-8" standalone="no"?>
<!-- Generator: Adobe Illustrator 22.1.0, SVG Export Plug-In . SVG Version: 6.00 Build 0)  -->

<svg
   xmlns:dc="http://purl.org/dc/elements/1.1/"
   xmlns:cc="http://creativecommons.org/ns#"
   xmlns:rdf="http://www.w3.org/1999/02/22-rdf-syntax-ns#"
   xmlns:svg="http://www.w3.org/2000/svg"
   xmlns="http://www.w3.org/2000/svg"
   xmlns:sodipodi="http://sodipodi.sourceforge.net/DTD/sodipodi-0.dtd"
   xmlns:inkscape="http://www.inkscape.org/namespaces/inkscape"
   version="1.1"
   id="Layer_2_1_"
   x="0px"
   y="0px"
   viewBox="0 0 209.40722 184.85208"
   enable-background="new 0 0 3947.9399414 3860.8613281"
   xml:space="preserve"
   sodipodi:docname="sentient_resonance.svg"
   inkscape:version="0.92.4 (5da689c313, 2019-01-14)"
   width="209.40723"
   height="184.85208"><metadata
   id="metadata5465"><rdf:RDF><cc:Work
       rdf:about=""><dc:format>image/svg+xml</dc:format><dc:type
         rdf:resource="http://purl.org/dc/dcmitype/StillImage" /><dc:title></dc:title></cc:Work></rdf:RDF></metadata><defs
   id="defs5463" /><sodipodi:namedview
   pagecolor="#ffffff"
   bordercolor="#666666"
   borderopacity="1"
   objecttolerance="10"
   gridtolerance="10"
   guidetolerance="10"
   inkscape:pageopacity="0"
   inkscape:pageshadow="2"
   inkscape:window-width="1920"
   inkscape:window-height="1022"
   id="namedview5461"
   showgrid="false"
   inkscape:zoom="0.21212883"
   inkscape:cx="540.15989"
   inkscape:cy="185.1317"
   inkscape:window-x="1079"
   inkscape:window-y="709"
   inkscape:window-maximized="1"
   inkscape:current-layer="Layer_2_1_" />










































































































































<g
   id="g4966"
   style="fill:#e1561c;fill-opacity:1"
   transform="translate(-321.4068,-2295.3991)">
	<path
   d="m 468.24545,2377.9026 c -8.45508,-8.8501 -23.88,-17.1851 -42.13501,-17.625 -18.255,0.4399 -33.68005,8.7749 -42.13501,17.625 -2.74499,2.8699 -5.39001,6.8349 -5.39001,10.7749 0,5.4651 4.5,10.905 9.34497,15.0051 4.84003,4.095 10.03003,6.855 11.40503,6.9448 v -15.0949 c -1.07001,-0.885 -2.23999,-2.145 -3.13001,-3.3399 -0.315,-0.425 -0.67498,-1.03 -0.95996,-1.6601 -0.28503,-0.635 -0.48999,-1.295 -0.48999,-1.8199 0,-1.05 0.31995,-2.0852 0.94995,-2.925 2.08002,-2.77 6.41004,-6.4001 12.63501,-9.0452 -3.51001,4.0952 -5.63501,9.4102 -5.63501,15.2251 0,12.9251 10.47998,23.4051 23.40503,23.4051 12.92499,0 23.40497,-10.48 23.40497,-23.4051 0,-5.8149 -2.125,-11.1299 -5.63495,-15.2251 6.22498,2.6451 10.55493,6.2752 12.63495,9.0452 0.63001,0.8398 0.95001,1.875 0.95001,2.925 0,0.5249 -0.20501,1.1849 -0.48999,1.8199 -0.28503,0.6301 -0.64502,1.2351 -0.96002,1.6601 -0.88995,1.1949 -2.06,2.4549 -3.13,3.3399 v 15.0949 c 1.375,-0.09 6.565,-2.8498 11.40496,-6.9448 4.84504,-4.1001 9.34504,-9.54 9.34504,-15.0051 0,-3.94 -2.64496,-7.905 -5.38996,-10.7749 z m -42.13501,20.3149 c -3.45001,0 -6.25,-2.8 -6.25,-6.25 0,-3.4499 2.79999,-6.25 6.25,-6.25 3.44995,0 6.25,2.8001 6.25,6.25 0,3.45 -2.80005,6.25 -6.25,6.25 z"
   id="path4958"
   style="fill:#e1561c;fill-opacity:1"
   inkscape:connector-curvature="0" />
	<path
   d="m 525.66461,2377.4768 -16.23926,-12.2803 c -12.13964,-9.1797 -20.17968,-23.1064 -22.06054,-38.2099 l -2.51563,-20.2022 c -0.50683,-4.0722 -2.83496,-7.583 -6.38769,-9.6347 -3.55274,-2.0508 -7.75977,-2.3116 -11.53614,-0.7159 l -18.75586,7.9239 c -14.01953,5.9238 -30.0996,5.9238 -44.11914,0 l -18.7539,-7.9239 c -3.78125,-1.5966 -7.98438,-1.3359 -11.53809,0.7159 -3.55273,2.0517 -5.88183,5.5634 -6.38769,9.6347 l -2.51465,20.2031 c -1.88086,15.1026 -9.9209,29.0293 -22.06055,38.209 l -16.23926,12.2803 c -3.27246,2.4746 -5.14941,6.2461 -5.14941,10.3486 0,4.1026 1.87695,7.8741 5.14941,10.3487 l 16.23926,12.2802 c 12.13965,9.1797 20.17969,23.1065 22.06055,38.209 l 2.51465,20.2032 c 0.50586,4.0712 2.83496,7.583 6.38769,9.6347 2.01465,1.1631 4.23731,1.75 6.47461,1.75 1.70899,0 3.42676,-0.3428 5.06348,-1.0342 l 18.7539,-7.9238 c 14.01954,-5.9238 30.09961,-5.9238 44.11914,0 l 18.75586,7.9238 c 3.77735,1.5948 7.98243,1.336 11.53614,-0.7158 3.55273,-2.0517 5.88086,-5.5625 6.38769,-9.6338 l 2.51563,-20.2041 c 1.88086,-15.1025 9.9209,-29.0293 22.06054,-38.209 l 16.23926,-12.2802 c 3.27246,-2.4746 5.14942,-6.2461 5.14942,-10.3487 0,-4.1025 -1.87696,-7.874 -5.14942,-10.3486 z m -3.61914,15.9121 -16.23926,12.2803 c -13.42382,10.1504 -22.3164,25.5517 -24.39453,42.2529 l -2.51562,20.2041 c -0.27246,2.1885 -1.52442,4.0762 -3.43457,5.1787 -1.91016,1.1016 -4.1709,1.2442 -6.20118,0.3848 l -18.75488,-7.9238 c -15.5039,-6.5489 -33.28711,-6.5489 -48.79101,0 l -18.75293,7.9238 c -2.03516,0.8594 -4.29395,0.7168 -6.20313,-0.3848 -1.91015,-1.1025 -3.16211,-2.9902 -3.43457,-5.1787 l -2.51465,-20.2031 c -2.07812,-16.7022 -10.96972,-32.1035 -24.39453,-42.2539 l -16.23926,-12.2803 c -1.75976,-1.3301 -2.76855,-3.3584 -2.76855,-5.5635 0,-2.205 1.00879,-4.2334 2.76855,-5.5634 l 16.23926,-12.2803 c 13.42481,-10.1504 22.31641,-25.5518 24.39453,-42.2539 l 2.51465,-20.2031 c 0.27246,-2.1885 1.52442,-4.0762 3.43457,-5.1788 1.08301,-0.625 2.27832,-0.9414 3.48145,-0.9414 0.91797,0 1.84082,0.1846 2.7207,0.5567 l 18.75391,7.9238 c 15.50488,6.5508 33.28808,6.5508 48.79101,0 l 18.75488,-7.9238 c 2.03125,-0.8594 4.29102,-0.7188 6.20118,0.3847 1.91015,1.1026 3.16211,2.9903 3.43457,5.1797 l 2.51562,20.2022 c 2.07813,16.7021 10.97071,32.1035 24.39453,42.2539 l 16.23926,12.2803 c 1.75977,1.33 2.76856,3.3584 2.76856,5.5634 0,2.2051 -1.00879,4.2334 -2.76856,5.5635 z"
   id="path4960"
   style="fill:#e1561c;fill-opacity:1"
   inkscape:connector-curvature="0" />
	<path
   d="m 505.30426,2380.1658 -12.99481,-9.8267 c -9.88135,-7.4724 -16.42676,-18.8081 -17.95709,-31.1025 L 472.34,2323.0691 c -0.37439,-3.0122 -2.09775,-5.6108 -4.72712,-7.1284 -2.63037,-1.5188 -5.74169,-1.7097 -8.53872,-0.5296 l -15.00717,6.3409 c -11.40854,4.822 -24.50037,4.8208 -35.91315,0 l -15.00821,-6.3409 c -2.79703,-1.1801 -5.90729,-0.9882 -8.53769,0.5296 -2.62933,1.5176 -4.35269,4.1152 -4.72818,7.1284 l -2.01233,16.1675 c -1.53036,12.2944 -8.07574,23.6313 -17.95605,31.1025 l -12.99585,9.8267 c -2.42157,1.8308 -3.81061,4.6225 -3.81061,7.6592 0,3.0363 1.38904,5.8281 3.81061,7.6591 l 12.99585,9.8264 c 9.88031,7.4715 16.42569,18.8084 17.95605,31.1028 l 2.01233,16.1673 c 0.37549,3.0132 2.09885,5.6111 4.72818,7.1286 2.62827,1.5176 5.73959,1.7107 8.53769,0.5296 l 15.00821,-6.3409 c 11.41067,-4.82 24.5025,-4.82 35.91315,0 l 15.00717,6.3409 c 1.21182,0.5114 2.48272,0.7656 3.74835,0.7656 1.65482,0 3.30011,-0.4346 4.79037,-1.2952 2.62937,-1.5175 4.35273,-4.1164 4.72712,-7.1286 l 2.01236,-16.1673 c 1.53033,-12.2944 8.07574,-23.6303 17.95709,-31.1028 l 12.99481,-9.8264 c 2.42261,-1.831 3.81165,-4.6228 3.81165,-7.6591 0,-3.0367 -1.38904,-5.8284 -3.81165,-7.6592 z m -1.95328,12.7343 -12.99481,9.8265 c -10.57638,7.9965 -17.58057,20.1286 -19.21851,33.2859 l -2.01235,16.1674 c -0.24891,1.9964 -1.39008,3.7178 -3.13242,4.7227 -1.74234,1.0063 -3.80426,1.135 -5.65735,0.3513 l -15.00714,-6.3408 c -6.10663,-2.5798 -12.66257,-3.8696 -19.21747,-3.8696 -6.55594,0 -13.11185,1.2898 -19.2185,3.8696 l -15.00821,6.3408 c -1.85309,0.7837 -3.91394,0.6538 -5.65628,-0.3501 -1.74234,-1.0061 -2.88459,-2.7275 -3.13349,-4.7239 l -2.01233,-16.1674 c -1.63794,-13.1573 -8.64212,-25.2903 -19.21747,-33.2859 l -12.99585,-9.8265 c -1.60418,-1.2128 -2.52386,-3.0629 -2.52386,-5.0751 0,-2.0125 0.91968,-3.8624 2.52386,-5.0752 l 12.99585,-9.8267 c 10.57535,-7.9954 17.57953,-20.1287 19.21747,-33.2859 l 2.01233,-16.1672 c 0.2489,-1.9966 1.39115,-3.7178 3.13349,-4.7239 1.74234,-1.0051 3.80319,-1.1338 5.65628,-0.3503 l 15.00821,6.3408 c 12.21432,5.1606 26.22375,5.1584 38.43597,0 l 15.00714,-6.3408 c 1.85309,-0.7835 3.91501,-0.6548 5.65735,0.3513 1.74234,1.0051 2.88351,2.7263 3.13242,4.7229 l 2.01235,16.1672 c 1.63794,13.1572 8.64213,25.2893 19.21851,33.2859 l 12.99481,9.8267 c 1.60419,1.2138 2.52494,3.0627 2.52494,5.0752 0,2.0122 -0.92075,3.861 -2.52494,5.0751 z"
   id="path4962"
   style="fill:#e1561c;fill-opacity:1"
   inkscape:connector-curvature="0" />
	<path
   d="m 453.6405,2335.949 c 0.72382,0 1.44715,0.1968 2.09204,0.5691 1.15027,0.664 1.90387,1.8003 2.06769,3.1181 l 1.50891,12.1236 c 1.24701,10.0178 6.58063,19.2561 14.63336,25.3457 l 9.74518,7.3691 c 1.05951,0.8008 1.66712,2.022 1.66712,3.3504 0,1.3283 -0.60761,2.5493 -1.66773,3.3505 l -9.74463,7.3687 c -8.05267,6.0896 -13.38629,15.3279 -14.6333,25.3457 l -1.50903,12.124 c -0.1637,1.3174 -0.9173,2.4536 -2.06775,3.1177 -0.64496,0.3726 -1.36841,0.5693 -2.09216,0.5693 -0.55951,0 -1.11273,-0.1137 -1.64325,-0.3376 l -11.25391,-4.7551 c -4.6297,-1.9556 -9.55285,-2.9471 -14.63263,-2.9471 -5.07977,0 -10.00293,0.9915 -14.63287,2.9473 l -11.25354,4.7544 c -0.53107,0.2244 -1.08405,0.3379 -1.64362,0.3379 -0.72381,0 -1.4472,-0.1968 -2.0921,-0.5691 -1.15039,-0.6641 -1.9043,-1.8008 -2.06848,-3.1182 l -1.50891,-12.1235 c -1.24707,-10.0186 -6.58045,-19.2566 -14.63266,-25.346 l -9.74536,-7.3684 c -1.05933,-0.801 -1.66687,-2.0222 -1.66687,-3.3505 0,-1.3284 0.60754,-2.5499 1.66687,-3.3506 l 9.74551,-7.3689 c 8.05213,-6.0891 13.38544,-15.3272 14.63251,-25.3457 l 1.50891,-12.1231 c 0.16418,-1.3179 0.91809,-2.4546 2.06775,-3.1181 0.64557,-0.3726 1.36932,-0.5694 2.09314,-0.5694 0.55975,0 1.11273,0.1138 1.64245,0.3372 l 11.25452,4.7549 c 4.63098,1.9563 9.55481,2.9482 14.63464,2.9482 5.08002,0 10.00275,-0.9919 14.63105,-2.9482 l 11.25226,-4.7544 c 0.53155,-0.2242 1.08496,-0.3379 1.64489,-0.3379 m 0,-3 c -0.94909,0 -1.9021,0.1904 -2.81115,0.5739 l -11.25361,4.7549 c -4.27697,1.8079 -8.87048,2.7117 -13.46344,2.7117 -4.59405,0 -9.18762,-0.9038 -13.46722,-2.7117 l -11.25439,-4.7549 c -0.90857,-0.3833 -1.86152,-0.5737 -2.80988,-0.5737 -1.24097,0 -2.47436,0.3257 -3.59241,0.9707 -1.97168,1.1382 -3.26403,3.0862 -3.54559,5.3457 l -1.50897,12.1236 c -1.14759,9.2194 -6.05591,17.7207 -13.46497,23.3234 l -9.74536,7.3687 c -1.81589,1.373 -2.85751,3.4666 -2.85751,5.7437 0,2.2768 1.04162,4.3703 2.85751,5.7434 l 9.74536,7.3686 c 7.40906,5.6028 12.31738,14.104 13.46497,23.3235 l 1.50897,12.1235 c 0.28156,2.2596 1.57391,4.2076 3.54559,5.3457 1.11719,0.6451 2.35077,0.971 3.59198,0.971 0.94849,0 1.90143,-0.1902 2.81031,-0.574 l 11.25439,-4.7549 c 4.27832,-1.8071 8.87183,-2.7107 13.46533,-2.7107 4.59351,0 9.18701,0.9036 13.46533,2.7107 l 11.25361,4.7549 c 0.90875,0.3836 1.86175,0.5742 2.81085,0.5742 1.2409,0 2.47467,-0.3259 3.59222,-0.9712 1.97168,-1.1381 3.26404,-3.0869 3.5448,-5.3457 l 1.50897,-12.1235 c 1.14759,-9.2195 6.05591,-17.72 13.46576,-23.3235 l 9.74457,-7.3686 c 1.81671,-1.3731 2.85828,-3.4666 2.85828,-5.7434 0,-2.2771 -1.04157,-4.3707 -2.85828,-5.7437 l -9.74457,-7.3687 c -7.40985,-5.6035 -12.31817,-14.104 -13.46576,-23.3234 l -1.50897,-12.1236 c -0.28076,-2.2588 -1.57312,-4.2075 -3.5448,-5.3457 -1.11755,-0.6452 -2.35126,-0.9709 -3.59192,-0.9709 z"
   id="path4964"
   style="fill:#e1561c;fill-opacity:1"
   inkscape:connector-curvature="0" />
</g>








































</svg>