<?xml version="1.0" encoding="UTF-8" standalone="no"?>
<!-- Generator: Adobe Illustrator 22.1.0, SVG Export Plug-In . SVG Version: 6.00 Build 0)  -->

<svg
   xmlns:dc="http://purl.org/dc/elements/1.1/"
   xmlns:cc="http://creativecommons.org/ns#"
   xmlns:rdf="http://www.w3.org/1999/02/22-rdf-syntax-ns#"
   xmlns:svg="http://www.w3.org/2000/svg"
   xmlns="http://www.w3.org/2000/svg"
   xmlns:sodipodi="http://sodipodi.sourceforge.net/DTD/sodipodi-0.dtd"
   xmlns:inkscape="http://www.inkscape.org/namespaces/inkscape"
   version="1.1"
   id="Layer_2_1_"
   x="0px"
   y="0px"
   viewBox="0 0 190.10009 189"
   enable-background="new 0 0 3947.9399414 3860.8613281"
   xml:space="preserve"
   sodipodi:docname="sentient_econometrics.svg"
   inkscape:version="0.92.4 (5da689c313, 2019-01-14)"
   width="190.1001"
   height="189"><metadata
   id="metadata5465"><rdf:RDF><cc:Work
       rdf:about=""><dc:format>image/svg+xml</dc:format><dc:type
         rdf:resource="http://purl.org/dc/dcmitype/StillImage" /><dc:title></dc:title></cc:Work></rdf:RDF></metadata><defs
   id="defs5463" /><sodipodi:namedview
   pagecolor="#ffffff"
   bordercolor="#666666"
   borderopacity="1"
   objecttolerance="10"
   gridtolerance="10"
   guidetolerance="10"
   inkscape:pageopacity="0"
   inkscape:pageshadow="2"
   inkscape:window-width="1920"
   inkscape:window-height="1022"
   id="namedview5461"
   showgrid="false"
   inkscape:zoom="0.21212883"
   inkscape:cx="-1636.686"
   inkscape:cy="752.89951"
   inkscape:window-x="1079"
   inkscape:window-y="709"
   inkscape:window-maximized="1"
   inkscape:current-layer="Layer_2_1_" />
















































































































































<g
   id="g5052"
   style="fill:#90ae50;fill-opacity:1"
   transform="translate(-2498.2527,-2293.325)">
	<path
   d="m 2677.8027,2423.0291 v 19.4628 h -19.833 v -5.1342 c -3.904,2.1516 -7.4507,3.6362 -10,3.976 v 1.1582 h -19.834 v -4.1123 c -9.4777,7.8243 -21.6123,12.5401 -34.833,12.5401 -13.2207,0 -25.3552,-4.7158 -34.833,-12.5401 v 4.1123 h -19.834 v -1.1582 c -2.5493,-0.3398 -6.0959,-1.8242 -10,-3.9758 v 5.134 h -19.833 v -19.4626 c -3.4546,-3.1648 -6.9702,-6.8496 -10,-10.9368 v 70.2325 h 189 v -70.2325 c -3.03,4.0874 -6.5454,7.772 -10,10.9366 z m -149.167,49.2959 h -19.833 v -19.8331 h 19.833 z m 29.834,0 h -19.834 v -19.8331 h 19.834 z m 29.833,0 h -19.833 v -19.8331 h 19.833 z m 29.833,0 h -19.833 v -19.8331 h 19.833 z m 29.834,0 h -19.834 v -19.8331 h 19.834 z m 29.833,0 h -19.833 v -19.8331 h 19.833 z"
   id="path5044"
   style="fill:#90ae50;fill-opacity:1"
   inkscape:connector-curvature="0" />
	<path
   d="m 2513.7148,2352.9919 h -4.9121 v -19.8339 h 19.833 v 9.7287 c 3.1673,-1.832 6.5059,-3.584 10,-5.2302 v -4.4985 h 10.7207 c 13.0113,-4.8238 27.7427,-8.0396 43.754,-8.4258 0.063,-10e-4 0.3212,-10e-4 0.3847,0 16.0108,0.386 30.7417,3.602 43.7529,8.4258 h 10.7217 v 4.499 c 3.4942,1.6462 6.8328,3.3982 10,5.2305 v -9.7295 h 19.833 v 19.8339 h -4.9126 c 3.9563,3.1289 7.4654,6.3199 10.4673,9.462 1.3157,1.3754 2.8736,3.1438 4.4453,5.2089 v -74.3378 h -189 v 74.3383 c 1.5728,-2.0666 3.1324,-3.8364 4.4493,-5.2133 3.0004,-3.1409 6.508,-6.3301 10.4628,-9.4581 z m 144.2549,-49.6669 h 19.833 v 19.833 h -19.833 z m -29.834,0 h 19.834 v 19.833 h -19.834 z m -29.833,0 h 19.833 v 19.833 h -19.833 z m -29.833,0 h 19.833 v 19.833 h -19.833 z m -29.834,0 h 19.834 v 19.833 h -19.834 z m -29.833,0 h 19.833 v 19.833 h -19.833 z"
   id="path5046"
   style="fill:#90ae50;fill-opacity:1"
   inkscape:connector-curvature="0" />
	<path
   d="m 2516.9426,2419.5398 c 9.6802,8.1902 20.0601,13.7102 22.8101,13.8901 V 2403.24 c -2.1399,-1.77 -4.48,-4.29 -6.26,-6.6802 -0.6299,-0.8498 -1.3499,-2.0598 -1.9199,-3.3198 -0.5701,-1.27 -0.98,-2.5901 -0.98,-3.6401 0,-2.0999 0.6399,-4.17 1.8999,-5.8499 4.1601,-5.54 12.82,-12.8 25.27,-18.0901 -2.9937,3.4927 -5.478,7.4321 -7.3494,11.7007 l 10.9414,10.9414 9.8138,-9.8262 27.2788,27.2852 34.5027,-34.5088 c -1.2352,-1.9648 -2.6031,-3.8376 -4.1072,-5.5923 12.4499,5.2901 21.1098,12.5501 25.27,18.0901 1.26,1.6799 1.8999,3.75 1.8999,5.8499 0,1.05 -0.4099,2.3701 -0.98,3.6401 -0.5701,1.26 -1.29,2.47 -1.9199,3.3198 -1.78,2.3902 -4.1201,4.9102 -6.26,6.6802 v 30.1899 c 2.75,-0.1799 13.1299,-5.6999 22.8098,-13.8901 9.6902,-8.2 18.6902,-19.0798 18.6902,-30.0098 0,-7.8801 -5.2901,-15.81 -10.78,-21.55 -16.9102,-17.7 -47.7601,-34.3701 -84.2701,-35.25 -36.51,0.8799 -67.3601,17.55 -84.27,35.25 -5.49,5.74 -10.78,13.6699 -10.78,21.55 0,10.93 9,21.8098 18.6899,30.0098 z"
   id="path5048"
   style="fill:#90ae50;fill-opacity:1"
   inkscape:connector-curvature="0" />
	<path
   d="m 2571.1685,2396.3066 -9.8138,9.8265 -14.6316,-14.6319 c -0.1486,1.5166 -0.2304,3.0528 -0.2304,4.6087 0,25.8501 20.9599,46.81 46.81,46.81 25.8501,0 46.8101,-20.9599 46.8101,-46.81 0,-4.3311 -0.5913,-8.5227 -1.6936,-12.502 l -39.9719,39.9778 z"
   id="path5050"
   style="fill:#90ae50;fill-opacity:1"
   inkscape:connector-curvature="0" />
</g>


































</svg>