<?xml version="1.0" encoding="UTF-8" standalone="no"?>
<!-- Created with Inkscape (http://www.inkscape.org/) -->

<svg
   xmlns:dc="http://purl.org/dc/elements/1.1/"
   xmlns:cc="http://creativecommons.org/ns#"
   xmlns:rdf="http://www.w3.org/1999/02/22-rdf-syntax-ns#"
   xmlns:svg="http://www.w3.org/2000/svg"
   xmlns="http://www.w3.org/2000/svg"
   xmlns:sodipodi="http://sodipodi.sourceforge.net/DTD/sodipodi-0.dtd"
   xmlns:inkscape="http://www.inkscape.org/namespaces/inkscape"
   width="44.582367mm"
   height="46.897392mm"
   viewBox="0 0 44.582367 46.897392"
   version="1.1"
   id="svg795"
   inkscape:version="0.92.4 (f8dce91, 2019-08-02)"
   sodipodi:docname="silksteel_alloys.svg">
  <defs
     id="defs789" />
  <sodipodi:namedview
     id="base"
     pagecolor="#ffffff"
     bordercolor="#666666"
     borderopacity="1.0"
     inkscape:pageopacity="0.0"
     inkscape:pageshadow="2"
     inkscape:zoom="0.35"
     inkscape:cx="358.53585"
     inkscape:cy="-111.37501"
     inkscape:document-units="mm"
     inkscape:current-layer="layer1"
     showgrid="false"
     inkscape:window-width="446"
     inkscape:window-height="439"
     inkscape:window-x="1205"
     inkscape:window-y="767"
     inkscape:window-maximized="0" />
  <metadata
     id="metadata792">
    <rdf:RDF>
      <cc:Work
         rdf:about="">
        <dc:format>image/svg+xml</dc:format>
        <dc:type
           rdf:resource="http://purl.org/dc/dcmitype/StillImage" />
        <dc:title></dc:title>
      </cc:Work>
    </rdf:RDF>
  </metadata>
  <g
     inkscape:label="Layer 1"
     inkscape:groupmode="layer"
     id="layer1"
     transform="translate(-10.970722,-11.99178)">
    <path
       inkscape:connector-curvature="0"
       d="m 38.950411,23.437658 c 4.585255,-3.709464 8.916458,-7.212545 14.618229,-7.212545 0.680005,0 1.341464,0.05027 1.984375,0.145518 v -4.27038 c -0.642911,-0.07143 -1.30437,-0.108471 -1.984375,-0.108471 -7.199286,0 -12.324292,4.146015 -17.279938,8.154461 -1.014545,0.82083 -2.017184,1.631569 -3.026834,2.400239 C 32.252245,21.77781 31.249606,20.967071 30.235061,20.146241 25.279416,16.137795 20.15441,11.99178 12.955097,11.99178 c -0.679979,0 -1.341438,0.03704 -1.984375,0.108471 v 4.27038 c 0.642937,-0.09525 1.304396,-0.145518 1.984375,-0.145518 5.701797,0 10.033001,3.503081 14.61823,7.212545 0.668311,0.540583 1.340247,1.083008 2.019406,1.618699 -0.518452,0.305586 -1.044258,0.590855 -1.579245,0.852951 -4.2994,-3.36877 -8.926328,-6.376903 -15.058391,-6.376903 -0.679979,0 -1.341438,0.03704 -1.984375,0.108471 v 4.270381 c 0.642937,-0.09525 1.304396,-0.145519 1.984375,-0.145519 3.822515,0 7.028789,1.57534 10.108751,3.730845 -0.742844,0.11167 -1.509078,0.171759 -2.303543,0.171759 -0.611187,0 -1.203854,-0.0344 -1.783291,-0.103192 -1.145646,-0.396875 -2.346802,-0.693206 -3.611589,-0.862542 -0.777849,-0.103193 -1.579483,-0.158745 -2.410328,-0.158745 -0.679979,0 -1.341438,0.03705 -1.984375,0.108472 v 2.722573 1.547807 c 0.642937,-0.09525 1.304396,-0.145518 1.984375,-0.145518 0.478922,0 0.949881,0.02381 1.410256,0.07408 1.256771,0.127011 2.450041,0.428622 3.595661,0.857247 2.003478,0.750181 3.869002,1.897042 5.701057,3.227192 -0.653706,0.124815 -1.325113,0.210421 -2.01803,0.249436 -2.587626,-1.307042 -5.423959,-2.158992 -8.688944,-2.158992 -0.08731,0 -0.174599,0 -0.261938,0.0053 -0.587348,0.0053 -1.161494,0.03969 -1.722437,0.10319 v 3.780906 0.489474 c 0.259292,-0.03971 0.523875,-0.06881 0.788458,-0.08998 0.391584,-0.03703 0.791104,-0.05555 1.195917,-0.05555 2.82575,0 5.315506,0.859896 7.667625,2.182812 1.227773,0.688573 2.417049,1.503736 3.596746,2.386013 -0.318981,0.07303 -0.641614,0.137718 -0.969459,0.191026 -3.016224,-1.791234 -6.342037,-3.040059 -10.294912,-3.040059 -0.648203,0 -1.277938,0.03439 -1.891744,0.100541 -0.03178,-0.02117 -0.06086,-0.04234 -0.09263,-0.06086 v 0.06879 4.27038 c 0.642937,-0.09525 1.304396,-0.14552 1.984375,-0.14552 3.4925,0 6.471708,1.314966 9.308042,3.18557 0.837459,0.551339 1.662219,1.152816 2.484014,1.782075 -1.256718,0.334036 -2.577623,0.522446 -3.986848,0.522446 v 4.233333 c 2.944284,0 5.538048,-0.625554 7.906306,-1.628695 0.307102,0.246618 0.615342,0.492548 0.925195,0.737023 -2.65512,1.565037 -5.497856,2.611464 -8.831501,2.611464 v 4.233333 c 4.964431,0 8.933631,-1.776201 12.501563,-4.14909 3.567933,2.372889 7.537133,4.14909 12.501563,4.14909 V 54.65584 c -3.333644,0 -6.176354,-1.046427 -8.831501,-2.611464 0.30988,-0.244475 0.61812,-0.490405 0.925222,-0.737023 2.368259,1.003141 4.962023,1.628695 7.906279,1.628695 v -4.233333 c -1.409197,0 -2.730129,-0.18841 -3.986821,-0.522446 0.82177,-0.629259 1.646529,-1.230736 2.484015,-1.782075 2.836333,-1.870604 5.815541,-3.18557 9.308015,-3.18557 0.680005,0 1.341464,0.05027 1.984375,0.145518 v -4.27038 c -0.03178,-0.0026 -0.06083,-0.0079 -0.09263,-0.0079 -0.61378,-0.06615 -1.243515,-0.100541 -1.891744,-0.100541 -3.952849,0 -7.278688,1.248825 -10.294911,3.040059 -0.327872,-0.05332 -0.650664,-0.118033 -0.969645,-0.19109 1.179327,-0.882261 2.367941,-1.697392 3.594285,-2.385949 2.352119,-1.320268 4.844547,-2.182812 7.670271,-2.182812 0.407485,0 0.807005,0.01852 1.201235,0.05555 0.264583,0.02117 0.523875,0.05292 0.78314,0.08997 v -0.489474 -3.780906 c -0.558218,-0.06085 -1.132417,-0.09789 -1.719792,-0.10319 -0.08731,-0.0053 -0.177244,-0.0053 -0.264583,-0.0053 -3.264985,0 -6.101292,0.85195 -8.688943,2.158992 -0.692653,-0.039 -1.363795,-0.124555 -2.017237,-0.249306 1.833272,-1.331362 3.699907,-2.47958 5.705581,-3.229954 1.142974,-0.425993 2.330926,-0.724972 3.582485,-0.854615 0.463021,-0.05027 0.936572,-0.07407 1.418114,-0.07407 0.680005,0 1.341464,0.05027 1.984375,0.145518 V 29.3749 26.652327 c -0.642911,-0.07143 -1.30437,-0.108472 -1.984375,-0.108472 -0.82812,0 -1.627161,0.05555 -2.402417,0.158745 h -0.0026 c -1.267301,0.166688 -2.468509,0.465669 -3.616827,0.86519 -0.579412,0.06615 -1.172078,0.100545 -1.783292,0.100545 -0.794465,0 -1.560671,-0.06009 -2.303542,-0.17176 3.079988,-2.155505 6.286262,-3.730845 10.10875,-3.730845 0.680006,0 1.341464,0.05027 1.984375,0.145519 v -4.270381 c -0.642911,-0.07143 -1.304369,-0.108471 -1.984375,-0.108471 -6.132036,0 -10.758964,3.008133 -15.058363,6.376903 -0.534988,-0.262096 -1.060794,-0.547365 -1.579246,-0.852951 0.67916,-0.535691 1.351095,-1.078116 2.01938,-1.618699 z m -13.149766,7.821083 c 0.523028,-0.137396 1.031901,-0.299321 1.533181,-0.474149 0.07982,0.06455 0.159544,0.128997 0.239501,0.193691 0.668496,0.540567 1.340114,1.083378 2.019273,1.61907 -0.386027,0.227555 -0.775917,0.44424 -1.170807,0.648234 -0.859367,-0.680013 -1.729158,-1.350354 -2.621148,-1.986846 z m 8.739373,4.844262 c -0.425742,0.337706 -0.851297,0.671017 -1.27815,0.996013 -0.426825,-0.324996 -0.852381,-0.658307 -1.278149,-0.996013 0.431827,-0.26079 0.858494,-0.529556 1.278149,-0.808768 0.419682,0.279212 0.84635,0.547978 1.27815,0.808768 z m -7.704879,2.394733 c 0.32258,-0.103402 0.640001,-0.215734 0.954194,-0.333378 0.596106,0.482206 1.195096,0.965155 1.800277,1.442614 -0.255137,0.150395 -0.512365,0.295426 -0.771313,0.435745 -0.654235,-0.521933 -1.312968,-1.040458 -1.983158,-1.544981 z m 7.326683,4.386619 c -0.29972,0.235387 -0.599519,0.467784 -0.899954,0.6965 -0.300434,-0.228716 -0.600207,-0.461113 -0.899927,-0.6965 0.303213,-0.188764 0.602668,-0.383246 0.899927,-0.580956 0.297286,0.19771 0.596742,0.392192 0.899954,0.580956 z m -6.376802,2.294099 c 0.14978,-0.05599 0.296545,-0.117025 0.444553,-0.17608 0.451564,0.364358 0.905113,0.728213 1.362233,1.088866 -0.125888,0.07422 -0.252491,0.146659 -0.379306,0.218493 -0.47244,-0.37965 -0.94697,-0.75819 -1.42748,-1.131279 z m 5.476848,4.355518 c -0.175313,-0.133456 -0.350361,-0.268314 -0.525356,-0.404151 0.176106,-0.112792 0.351208,-0.227092 0.525356,-0.342873 0.174149,0.115781 0.349277,0.230081 0.525357,0.342873 -0.174969,0.135837 -0.350044,0.270695 -0.525357,0.404151 z m 4.049369,-3.224239 c -0.126788,-0.07183 -0.253392,-0.144277 -0.379307,-0.218493 0.457147,-0.360653 0.91067,-0.724508 1.362261,-1.088866 0.147981,0.05906 0.294746,0.120094 0.444553,0.17608 -0.480536,0.373089 -0.95504,0.751629 -1.427507,1.131279 z m 0.394309,-6.267016 c -0.258974,-0.140319 -0.516256,-0.285369 -0.77142,-0.435763 0.605209,-0.477457 1.204199,-0.96039 1.800279,-1.442596 0.314192,0.117644 0.631613,0.229976 0.95422,0.333378 -0.67019,0.504523 -1.328923,1.023048 -1.983079,1.544981 z m 3.017573,-8.783976 c -0.892016,0.636492 -1.761781,1.306833 -2.621174,1.986846 -0.394864,-0.203994 -0.784755,-0.420679 -1.170782,-0.648234 0.679159,-0.535692 1.350751,-1.078503 2.019248,-1.61907 0.07998,-0.06469 0.159676,-0.129143 0.239527,-0.193691 0.501253,0.174828 1.010153,0.336753 1.533181,0.474149 z m -5.800884,-2.47065 c -0.553376,0.442447 -1.105879,0.877496 -1.660367,1.299773 -0.554487,-0.422277 -1.106963,-0.857326 -1.660366,-1.299773 0.564065,-0.329615 1.117071,-0.676479 1.660366,-1.037939 0.543322,0.36146 1.096328,0.708324 1.660367,1.037939 z"
       id="path4482"
       style="fill:#e2bd4d;fill-opacity:1;stroke-width:0.26458332" />
  </g>
</svg>
