<?xml version="1.0" encoding="UTF-8" standalone="no"?>
<!-- Generator: Adobe Illustrator 22.1.0, SVG Export Plug-In . SVG Version: 6.00 Build 0)  -->

<svg
   xmlns:dc="http://purl.org/dc/elements/1.1/"
   xmlns:cc="http://creativecommons.org/ns#"
   xmlns:rdf="http://www.w3.org/1999/02/22-rdf-syntax-ns#"
   xmlns:svg="http://www.w3.org/2000/svg"
   xmlns="http://www.w3.org/2000/svg"
   xmlns:sodipodi="http://sodipodi.sourceforge.net/DTD/sodipodi-0.dtd"
   xmlns:inkscape="http://www.inkscape.org/namespaces/inkscape"
   version="1.1"
   id="Layer_2_1_"
   x="0px"
   y="0px"
   viewBox="0 0 190.99999 190.99989"
   enable-background="new 0 0 3947.9399414 3860.8613281"
   xml:space="preserve"
   sodipodi:docname="singularity_mechanics.svg"
   inkscape:version="0.92.4 (5da689c313, 2019-01-14)"
   width="191"
   height="190.99989"><metadata
   id="metadata5465"><rdf:RDF><cc:Work
       rdf:about=""><dc:format>image/svg+xml</dc:format><dc:type
         rdf:resource="http://purl.org/dc/dcmitype/StillImage" /><dc:title></dc:title></cc:Work></rdf:RDF></metadata><defs
   id="defs5463" /><sodipodi:namedview
   pagecolor="#ffffff"
   bordercolor="#666666"
   borderopacity="1"
   objecttolerance="10"
   gridtolerance="10"
   guidetolerance="10"
   inkscape:pageopacity="0"
   inkscape:pageshadow="2"
   inkscape:window-width="1920"
   inkscape:window-height="1022"
   id="namedview5461"
   showgrid="false"
   inkscape:zoom="0.21212883"
   inkscape:cx="-1636.236"
   inkscape:cy="1037.6904"
   inkscape:window-x="1079"
   inkscape:window-y="709"
   inkscape:window-maximized="1"
   inkscape:current-layer="Layer_2_1_" />

































































































































































<path
   d="M 191,108.17 V 82.8299 H 171.4202 C 171.1602,81.2501 170.8501,79.69 170.49,78.15 l 18.0901,-7.49 -9.6899,-23.41 -18.0901,7.5 c -0.8499,-1.36 -1.74,-2.6801 -2.6599,-3.9701 L 171.99,36.93 154.0801,19.0098 l -13.8599,13.86 c -1.29,-0.9298 -2.6101,-1.82 -3.9602,-2.6598 l 7.49,-18.0902 -23.3999,-9.6998 -7.49,18.0898 c -1.55,-0.3498 -3.1101,-0.6699 -4.6899,-0.93 V 0 H 82.8401 v 19.5798 c -1.5801,0.2601 -3.1399,0.5802 -4.6899,0.93 L 70.6602,2.42 47.26,12.1198 54.75,30.21 c -1.3498,0.8398 -2.6699,1.73 -3.9599,2.6598 L 36.9302,19.0098 19.0201,36.93 32.8702,50.7799 c -0.92,1.29 -1.8101,2.6101 -2.6602,3.9701 l -18.0898,-7.5 -9.69,23.41 18.0899,7.4899 c -0.3599,1.5401 -0.67,3.1001 -0.93,4.6799 H 0 v 25.3401 h 19.5901 c 0.26,1.5801 0.5701,3.1401 0.93,4.6799 l -18.0899,7.49 9.69,23.4102 18.0898,-7.4902 c 0.8501,1.3499 1.7402,2.6702 2.6602,3.9602 L 19.0201,154.0697 36.9302,171.99 50.7901,158.1297 c 1.29,0.9302 2.6101,1.8203 3.9599,2.6602 l -7.49,18.0898 23.4002,9.7 7.49,-18.0898 c 1.55,0.3498 3.1098,0.6699 4.6899,0.9299 v 19.5801 h 25.3301 v -19.5801 c 1.5798,-0.26 3.1399,-0.5801 4.6899,-0.9299 l 7.49,18.0898 23.3999,-9.7 -7.49,-18.0898 c 1.3501,-0.8401 2.6702,-1.73 3.9602,-2.6602 L 154.0801,171.99 171.99,154.0697 158.1402,140.22 c 0.9199,-1.2902 1.81,-2.6103 2.6599,-3.9602 l 18.0901,7.4902 9.6899,-23.4102 -18.0901,-7.49 c 0.3601,-1.5398 0.6702,-3.0998 0.9302,-4.6799 z M 95.5,36.1299 c 3.6101,0 7.1402,0.3201 10.5601,0.94 C 82.3902,47.47 60.8101,68.0999 70.9102,109.69 55.6202,101.5201 46.6101,86.3199 41.23,71.39 50.48,50.6099 71.3001,36.1299 95.5,36.1299 Z M 36.1302,95.5001 c 0,-3.6101 0.32,-7.1402 0.9399,-10.5701 10.4001,23.6699 31.02,45.25 72.6199,35.1499 -8.1699,15.3 -23.3799,24.3101 -38.3098,29.6902 -20.7701,-9.25 -35.25,-30.0701 -35.25,-54.27 z m 41.8999,-7.3702 c 9.6999,-0.35 15.74,-8.08 24.8401,-10.0898 0.35,9.7 8.0898,15.7398 10.0898,24.8298 C 103.2701,103.22 97.23,110.95 88.1302,112.96 87.7801,103.27 80.0401,97.23 78.0301,88.1299 Z m 17.4699,66.74 c -3.6098,0 -7.1399,-0.32 -10.5698,-0.9399 23.6699,-10.4001 45.25,-31.03 35.1499,-72.6301 15.3001,8.1801 24.3101,23.4001 29.6799,38.33 -9.2399,20.7701 -30.0598,35.24 -54.26,35.24 z m 58.4302,-48.78 C 143.5501,82.41 122.9202,60.7999 81.2901,70.92 89.4702,55.6199 104.69,46.6099 119.6202,41.23 c 20.78,9.25 35.26,30.0699 35.26,54.2701 0,3.6098 -0.3201,7.1499 -0.95,10.5898 z"
   id="path5204"
   style="fill:#d7e6ed;fill-opacity:1"
   inkscape:connector-curvature="0" />

















</svg>