<?xml version="1.0" encoding="UTF-8" standalone="no"?>
<!-- Created with Inkscape (http://www.inkscape.org/) -->

<svg
   xmlns:dc="http://purl.org/dc/elements/1.1/"
   xmlns:cc="http://creativecommons.org/ns#"
   xmlns:rdf="http://www.w3.org/1999/02/22-rdf-syntax-ns#"
   xmlns:svg="http://www.w3.org/2000/svg"
   xmlns="http://www.w3.org/2000/svg"
   xmlns:sodipodi="http://sodipodi.sourceforge.net/DTD/sodipodi-0.dtd"
   xmlns:inkscape="http://www.inkscape.org/namespaces/inkscape"
   width="48.386997mm"
   height="48.389633mm"
   viewBox="0 0 48.386997 48.389633"
   version="1.1"
   id="svg6564"
   inkscape:version="0.92.4 (f8dce91, 2019-08-02)"
   sodipodi:docname="social_psych.svg">
  <defs
     id="defs6558" />
  <sodipodi:namedview
     id="base"
     pagecolor="#ffffff"
     bordercolor="#666666"
     borderopacity="1.0"
     inkscape:pageopacity="0.0"
     inkscape:pageshadow="2"
     inkscape:zoom="0.35"
     inkscape:cx="140.01143"
     inkscape:cy="-28.555024"
     inkscape:document-units="mm"
     inkscape:current-layer="layer1"
     showgrid="false"
     inkscape:window-width="1920"
     inkscape:window-height="1022"
     inkscape:window-x="1079"
     inkscape:window-y="709"
     inkscape:window-maximized="1" />
  <metadata
     id="metadata6561">
    <rdf:RDF>
      <cc:Work
         rdf:about="">
        <dc:format>image/svg+xml</dc:format>
        <dc:type
           rdf:resource="http://purl.org/dc/dcmitype/StillImage" />
        <dc:title></dc:title>
      </cc:Work>
    </rdf:RDF>
  </metadata>
  <g
     inkscape:label="Layer 1"
     inkscape:groupmode="layer"
     id="layer1"
     transform="translate(-68.788643,-92.888517)">
    <path
       inkscape:connector-curvature="0"
       d="M 68.788643,92.888517 V 141.27815 H 117.17564 V 92.888517 Z m 44.153667,44.156303 h -7.89252 l -7.744347,-7.74435 v -0.6641 h 8.458717 v -5.31019 h -3.1353 v -1.32557 h 3.1353 v -2.92099 h 1.46316 c 0.54239,0 1.0451,-0.28046 1.32819,-0.7382 l 0.12702,-0.20372 c 0.20901,-0.33602 0.21959,-0.75935 0.0291,-1.10595 l -2.36538,-4.27833 v -1.2065 c 0,-6.20976 -5.56419,-11.24214 -12.427472,-11.24214 -6.863293,0 -12.427488,5.03238 -12.427488,11.24214 0,3.34699 1.6166,6.35265 4.183062,8.41112 v 6.70188 l -10.384894,10.3849 H 73.021977 V 97.121851 H 112.94231 Z M 97.575307,112.98096 h 6.082783 c -0.94192,4.99005 -5.40545,1.78066 -6.082783,0 z"
       id="path4330"
       style="fill:#e2bd4d;fill-opacity:1;stroke-width:0.26458332" />
  </g>
</svg>
