<?xml version="1.0" encoding="UTF-8" standalone="no"?>
<!-- Generator: Adobe Illustrator 22.1.0, SVG Export Plug-In . SVG Version: 6.00 Build 0)  -->

<svg
   xmlns:dc="http://purl.org/dc/elements/1.1/"
   xmlns:cc="http://creativecommons.org/ns#"
   xmlns:rdf="http://www.w3.org/1999/02/22-rdf-syntax-ns#"
   xmlns:svg="http://www.w3.org/2000/svg"
   xmlns="http://www.w3.org/2000/svg"
   xmlns:sodipodi="http://sodipodi.sourceforge.net/DTD/sodipodi-0.dtd"
   xmlns:inkscape="http://www.inkscape.org/namespaces/inkscape"
   version="1.1"
   id="Layer_2_1_"
   x="0px"
   y="0px"
   viewBox="0 0 205.02979 205.0296"
   enable-background="new 0 0 3947.9399414 3860.8613281"
   xml:space="preserve"
   sodipodi:docname="string_resonance.svg"
   inkscape:version="0.92.4 (5da689c313, 2019-01-14)"
   width="205.0298"
   height="205.0296"><metadata
   id="metadata5465"><rdf:RDF><cc:Work
       rdf:about=""><dc:format>image/svg+xml</dc:format><dc:type
         rdf:resource="http://purl.org/dc/dcmitype/StillImage" /><dc:title></dc:title></cc:Work></rdf:RDF></metadata><defs
   id="defs5463" /><sodipodi:namedview
   pagecolor="#ffffff"
   bordercolor="#666666"
   borderopacity="1"
   objecttolerance="10"
   gridtolerance="10"
   guidetolerance="10"
   inkscape:pageopacity="0"
   inkscape:pageshadow="2"
   inkscape:window-width="1920"
   inkscape:window-height="1022"
   id="namedview5461"
   showgrid="false"
   inkscape:zoom="0.21212883"
   inkscape:cx="-700.42449"
   inkscape:cy="1328.4959"
   inkscape:window-x="1079"
   inkscape:window-y="709"
   inkscape:window-maximized="1"
   inkscape:current-layer="Layer_2_1_" />














































































































































































<g
   id="g5406"
   style="fill:#e1561c;fill-opacity:1"
   transform="translate(-1561.9912,-2852.8918)">
	<path
   d="m 1742.6516,2961.6782 c 1.9824,-1.5 3.1201,-3.7861 3.1201,-6.2715 0,-2.4853 -1.1377,-4.7714 -3.1211,-6.2714 l -12.9941,-9.8262 c -10.2539,-7.7539 -17.0469,-19.5176 -18.6348,-32.2754 l -2.0127,-16.168 c -0.3076,-2.4678 -1.7187,-4.5947 -3.8701,-5.8359 -2.1543,-1.2442 -4.7031,-1.4043 -6.9912,-0.4336 l -15.0078,6.3398 c -11.8438,5.0039 -25.4277,5.0039 -37.2676,0 l -15.0078,-6.3388 c -2.2871,-0.9678 -4.835,-0.8116 -6.9912,0.4316 -2.1524,1.2422 -3.5635,3.3701 -3.8711,5.8369 l -2.0127,16.168 c -1.5879,12.7588 -8.3799,24.5225 -18.6338,32.2754 l -12.9951,9.8262 c -1.9834,1.498 -3.1201,3.7841 -3.1201,6.2714 0,2.4873 1.1367,4.7735 3.1201,6.2715 l 12.9951,9.8262 c 10.2539,7.7529 17.0459,19.5166 18.6338,32.2754 l 2.0127,16.167 c 0.3076,2.4658 1.7178,4.5937 3.8721,5.8388 2.1552,1.2403 4.7011,1.3985 6.9892,0.4317 l 15.0088,-6.3408 c 5.8926,-2.4893 12.1621,-3.751 18.6348,-3.751 6.4707,0 12.7402,1.2617 18.6328,3.751 l 15.0068,6.3398 c 0.9922,0.4199 2.0323,0.6289 3.0694,0.6289 1.3545,0 2.7021,-0.3564 3.9228,-1.0615 2.1524,-1.2422 3.5625,-3.3701 3.8701,-5.8369 l 2.0127,-16.167 c 1.5879,-12.7578 8.3809,-24.5215 18.6348,-32.2754 l 12.9941,-9.8262 z m -1.8096,-2.3926 -12.9941,9.8262 c -10.8975,8.2393 -18.1152,20.7403 -19.8027,34.2969 l -2.0127,16.167 c -0.1905,1.5264 -1.0625,2.8418 -2.3936,3.6103 -1.331,0.7686 -2.9082,0.8672 -4.3232,0.2676 l -15.0078,-6.3408 c -6.2647,-2.6455 -12.9268,-3.9873 -19.8008,-3.9873 -6.876,0 -13.5381,1.3418 -19.8028,3.9873 l -15.0097,6.3418 c -1.4121,0.5976 -2.9873,0.501 -4.3203,-0.2676 -1.3321,-0.7695 -2.2051,-2.0859 -2.3955,-3.6113 l -2.0127,-16.167 c -1.6875,-13.5576 -8.9053,-26.0586 -19.8018,-34.2969 l -12.9951,-9.8262 c -1.2256,-0.9267 -1.9287,-2.3408 -1.9287,-3.8789 0,-1.538 0.7031,-2.9521 1.9287,-3.8789 l 12.9951,-9.8261 c 10.8965,-8.2383 18.1143,-20.7393 19.8018,-34.2969 l 2.0127,-16.168 c 0.1904,-1.5254 1.0634,-2.8418 2.3935,-3.6094 1.335,-0.7685 2.9092,-0.8652 4.3233,-0.2675 l 15.0087,6.3398 c 12.5821,5.3174 27.0176,5.3174 39.6036,0 l 15.0088,-6.3408 c 1.413,-0.5967 2.9892,-0.501 4.3232,0.2695 1.3301,0.7666 2.2021,2.082 2.3926,3.6084 l 2.0127,16.168 c 1.6875,13.5566 8.9052,26.0576 19.8027,34.2969 l 12.9932,9.8261 c 1.2275,0.9278 1.9306,2.3418 1.9306,3.8789 0,1.5371 -0.7031,2.9512 -1.9306,3.8789 z"
   id="path5350"
   style="fill:#e1561c;fill-opacity:1"
   inkscape:connector-curvature="0" />
	<path
   d="m 1686.3479,2960.8013 4.3564,-3.295 c 0.6641,-0.5019 1.045,-1.2675 1.045,-2.0996 0,-0.833 -0.3809,-1.5986 -1.045,-2.1005 l -4.3564,-3.294 c -3.4395,-2.6016 -5.7168,-6.5459 -6.249,-10.8232 l -0.6748,-5.4209 c -0.1035,-0.8262 -0.5762,-1.5391 -1.2969,-1.9541 -0.7217,-0.417 -1.5732,-0.4678 -2.3408,-0.1455 l -5.0313,2.1259 c -3.9687,1.6778 -8.5254,1.6787 -12.498,0 l -5.0313,-2.1259 c -0.7666,-0.3223 -1.6211,-0.2715 -2.3408,0.1455 -0.7217,0.416 -1.1943,1.1289 -1.2969,1.955 l -0.6748,5.42 c -0.5322,4.2783 -2.8095,8.2226 -6.249,10.8232 l -4.3564,3.294 c -0.6641,0.5019 -1.045,1.2675 -1.045,2.1005 0,0.833 0.3809,1.5987 1.045,2.0996 l 4.3564,3.295 c 3.4395,2.6006 5.7168,6.5449 6.249,10.8222 l 0.6748,5.4209 c 0.1026,0.8252 0.5752,1.5381 1.2979,1.9561 0.7197,0.415 1.5732,0.4668 2.3398,0.1445 l 5.0313,-2.126 c 3.9531,-1.6699 8.5449,-1.6699 12.498,0 l 5.0313,2.126 c 0.332,0.1397 0.6797,0.21 1.0273,0.21 0.4531,0 0.9053,-0.1201 1.3135,-0.3565 0.7207,-0.415 1.1934,-1.1269 1.2969,-1.9541 l 0.6748,-5.4209 c 0.5322,-4.2773 2.8095,-8.2216 6.249,-10.8222 z m -7.2412,10.6992 -0.6748,5.4199 c -0.064,0.5127 -0.3574,0.9541 -0.8047,1.2129 -0.4463,0.2578 -0.9756,0.2939 -1.4522,0.09 l -5.0312,-2.1259 c -2.0996,-0.8868 -4.333,-1.3369 -6.6377,-1.3369 -2.3047,0 -4.5381,0.4501 -6.6377,1.3369 l -5.0312,2.1259 c -0.4747,0.2002 -1.0039,0.168 -1.4522,-0.089 -0.4473,-0.2598 -0.7412,-0.7012 -0.8047,-1.2129 l -0.6748,-5.4209 c -0.5654,-4.5449 -2.9844,-8.7344 -6.6377,-11.4961 l -4.3564,-3.2959 c -0.4121,-0.3106 -0.6485,-0.7852 -0.6485,-1.3018 0,-0.5166 0.2364,-0.9912 0.6485,-1.3037 l 4.3564,-3.2939 c 3.6524,-2.7617 6.0723,-6.9522 6.6377,-11.4971 l 0.6748,-5.4199 c 0.063,-0.5117 0.3565,-0.9541 0.8047,-1.2129 0.4473,-0.2559 0.9766,-0.291 1.4522,-0.089 l 5.0312,2.126 c 4.2197,1.7822 9.0596,1.7822 13.2754,0 l 5.0312,-2.126 c 0.4766,-0.2021 1.0059,-0.167 1.4522,0.089 0.4473,0.2588 0.7402,0.7002 0.8047,1.2129 l 0.6748,5.4199 c 0.5654,4.544 2.9844,8.7344 6.6377,11.4971 l 4.3564,3.2939 c 0.4121,0.3125 0.6485,0.7871 0.6485,1.3037 0,0.5157 -0.2364,0.9903 -0.6485,1.3028 l -4.3564,3.2949 c -3.6533,2.7617 -6.0723,6.9512 -6.6377,11.4961 z"
   id="path5352"
   style="fill:#e1561c;fill-opacity:1"
   inkscape:connector-curvature="0" />
	<path
   d="m 1708.4192,2959.0503 c 1.1514,-0.8721 1.8115,-2.1992 1.8115,-3.6436 0,-1.4443 -0.6601,-2.7714 -1.8115,-3.6435 l -7.2871,-5.5098 c -5.7158,-4.3222 -9.502,-10.8799 -10.3867,-17.9892 l -1.128,-9.0655 c -0.1787,-1.4326 -0.998,-2.6689 -2.249,-3.3906 -1.251,-0.7227 -2.7324,-0.8164 -4.0615,-0.2519 l -8.4141,3.5556 c -6.6015,2.7881 -14.1728,2.7881 -20.7724,0 l -8.4151,-3.5556 c -1.3301,-0.5645 -2.8115,-0.4717 -4.0615,0.2509 -1.251,0.7237 -2.0703,1.959 -2.249,3.3916 l -1.1289,9.0655 c -0.8848,7.1113 -4.67,13.6679 -10.3858,17.9892 l -7.2861,5.5098 c -1.1523,0.8701 -1.8125,2.1982 -1.8125,3.6435 0,1.4444 0.6602,2.7715 1.8115,3.6436 l 7.2871,5.5098 c 5.7158,4.3212 9.501,10.8779 10.3858,17.9892 l 1.1289,9.0654 c 0.1787,1.4327 0.999,2.669 2.249,3.3907 0.709,0.4092 1.4922,0.6162 2.2793,0.6162 0.6016,-10e-4 1.2061,-0.1211 1.7812,-0.3653 l 8.4161,-3.5546 c 3.2822,-1.3877 6.7763,-2.0909 10.3857,-2.0909 3.6094,0 7.1035,0.7032 10.3867,2.0909 l 8.4141,3.5546 c 1.3291,0.5635 2.8096,0.4717 4.0615,-0.2509 1.25,-0.7217 2.0703,-1.958 2.249,-3.3916 l 1.128,-9.0655 c 0.8847,-7.1103 4.6709,-13.667 10.3867,-17.9882 z m -19.6582,23.2519 -1.1279,9.0645 c -0.1006,0.8057 -0.5616,1.501 -1.2647,1.9062 -0.7031,0.4073 -1.5351,0.4571 -2.2832,0.1417 l -8.4141,-3.5547 c -3.5302,-1.4922 -7.2871,-2.2491 -11.165,-2.2491 -3.8779,0 -7.6348,0.7569 -11.1641,2.2491 l -8.416,3.5547 c -0.7461,0.3164 -1.5781,0.2646 -2.2822,-0.1417 -0.7031,-0.4052 -1.1641,-1.1005 -1.2646,-1.9062 l -1.129,-9.0645 c -0.9511,-7.6445 -5.0205,-14.6923 -11.163,-19.3378 l -7.2872,-5.5098 c -0.6474,-0.4893 -1.0185,-1.2363 -1.0185,-2.0479 0,-0.8125 0.3711,-1.5586 1.0185,-2.0478 l 7.2872,-5.5098 c 6.1435,-4.6455 10.2119,-11.6933 11.163,-19.3379 l 1.129,-9.0644 c 0.1005,-0.8057 0.5615,-1.501 1.2646,-1.9072 0.3984,-0.2305 0.8379,-0.3467 1.2803,-0.3467 0.3388,0 0.6787,0.068 1.0019,0.205 l 8.4151,3.5557 c 7.0966,2.999 15.2334,2.999 22.33,0 l 8.4151,-3.5557 c 0.7471,-0.3154 1.5801,-0.2636 2.2822,0.1426 0.7031,0.4053 1.1641,1.1006 1.2647,1.9053 l 1.1279,9.0645 c 0.9512,7.6435 5.0205,14.6923 11.164,19.3388 l 7.2872,5.5098 c 0.6474,0.4892 1.0185,1.2363 1.0185,2.0478 0,0.8116 -0.3711,1.5586 -1.0185,2.0479 l -7.2872,5.5098 c -6.1435,4.6455 -10.2128,11.6943 -11.164,19.3378 z"
   id="path5354"
   style="fill:#e1561c;fill-opacity:1"
   inkscape:connector-curvature="0" />
	<path
   d="m 1653.5535,2980.085 -1.6453,8.2089 0.6555,-0.2768 c 1.9036,-0.8047 3.8684,-1.4082 5.8799,-1.8103 v -8.1814 l -4.8281,2.0405 c -0.02,0.01 -0.042,0.011 -0.062,0.019 z"
   id="path5356"
   style="fill:#e1561c;fill-opacity:1"
   inkscape:connector-curvature="0" />
	<path
   d="m 1675.4587,2930.7285 1.6452,-8.2085 -0.6544,0.2764 c -1.9043,0.8044 -3.8695,1.4082 -5.8809,1.81 v 8.1812 l 4.8281,-2.04 c 0.02,-0.01 0.042,-0.011 0.062,-0.019 z"
   id="path5358"
   style="fill:#e1561c;fill-opacity:1"
   inkscape:connector-curvature="0" />
	<path
   d="m 1642.0608,2949.2144 c 1.3395,-1.0127 2.4775,-2.2515 3.4018,-3.6309 l -9.3972,-1.8833 c -1.6535,2.1499 -3.5869,4.0918 -5.7722,5.7446 l -0.4455,0.3369 h 11.4628 z"
   id="path5360"
   style="fill:#e1561c;fill-opacity:1"
   inkscape:connector-curvature="0" />
	<path
   d="m 1653.6135,2930.7466 4.8301,2.041 v -8.1812 c -2.0113,-0.4023 -3.9766,-1.0061 -5.8809,-1.811 l -0.6545,-0.2764 1.6453,8.209 c 0.02,0.01 0.041,0.01 0.06,0.019 z"
   id="path5362"
   style="fill:#e1561c;fill-opacity:1"
   inkscape:connector-curvature="0" />
	<path
   d="m 1702.3381,2966.1558 c -0.9362,0.7077 -1.8134,1.4834 -2.6328,2.312 l 19.9155,3.9914 c 1.9764,-2.0727 4.1155,-3.9995 6.4175,-5.74 l 6.364,-4.8125 h -24.444 z"
   id="path5364"
   style="fill:#e1561c;fill-opacity:1"
   inkscape:connector-curvature="0" />
	<path
   d="m 1642.4272,2961.9067 h -11.4592 c 1.909,1.5318 3.6179,3.2828 5.0974,5.2066 l 9.3975,-1.8833 c -0.8363,-1.2481 -1.8565,-2.3701 -3.0357,-3.3233 z"
   id="path5366"
   style="fill:#e1561c;fill-opacity:1"
   inkscape:connector-curvature="0" />
	<path
   d="m 1621.0544,2961.9067 h -24.445 l 6.3645,4.8125 c 2.302,1.7403 4.4411,3.6673 6.4175,5.74 l 19.9152,-3.9914 c -0.8193,-0.8286 -1.6962,-1.6043 -2.6325,-2.312 z"
   id="path5368"
   style="fill:#e1561c;fill-opacity:1"
   inkscape:connector-curvature="0" />
	<path
   d="m 1719.6207,2938.354 -19.9149,3.9915 c 0.8192,0.8288 1.6963,1.6045 2.6323,2.3122 l 6.7769,5.124 h 24.4437 l -7.5204,-5.6875 c -2.302,-1.7404 -4.4411,-3.6674 -6.4176,-5.7402 z"
   id="path5370"
   style="fill:#e1561c;fill-opacity:1"
   inkscape:connector-curvature="0" />
	<path
   d="m 1692.9468,2943.7002 -9.3969,1.8833 c 0.9245,1.3791 2.0622,2.6179 3.4015,3.6309 l 0.7505,0.5673 h 11.4627 l -0.4456,-0.3369 c -2.1853,-1.6528 -4.1187,-3.5947 -5.7722,-5.7446 z"
   id="path5372"
   style="fill:#e1561c;fill-opacity:1"
   inkscape:connector-curvature="0" />
	<path
   d="m 1626.6741,2944.6577 c 0.9363,-0.7077 1.8132,-1.4834 2.6325,-2.3122 l -19.9151,-3.9915 c -1.9765,2.0728 -4.1156,4 -6.4176,5.7402 l -7.5218,5.6875 h 24.4468 z"
   id="path5374"
   style="fill:#e1561c;fill-opacity:1"
   inkscape:connector-curvature="0" />
	<path
   d="m 1647.0393,2888.1724 c 3.6607,1.5473 7.4794,2.5771 11.4043,3.103 v -38.3836 h -20.49 l 6.8845,34.3509 z"
   id="path5376"
   style="fill:#e1561c;fill-opacity:1"
   inkscape:connector-curvature="0" />
	<path
   d="m 1681.9729,3022.6401 c -3.6599,-1.5461 -7.479,-2.5754 -11.4043,-3.1013 v 38.3826 h 20.49 l -6.8846,-34.3516 z"
   id="path5378"
   style="fill:#e1561c;fill-opacity:1"
   inkscape:connector-curvature="0" />
	<path
   d="m 1644.8383,3023.5701 -6.8847,34.3513 h 20.49 v -38.3826 c -3.9255,0.5261 -7.7445,1.5554 -11.4043,3.1013 z"
   id="path5380"
   style="fill:#e1561c;fill-opacity:1"
   inkscape:connector-curvature="0" />
	<path
   d="m 1584.551,2964.0708 c -0.8288,-0.626 -1.536,-1.3611 -2.1399,-2.1641 h -20.4199 v 20.0523 l 36.4934,-7.314 c -0.3124,-0.2497 -0.6189,-0.5063 -0.9385,-0.748 z"
   id="path5382"
   style="fill:#e1561c;fill-opacity:1"
   inkscape:connector-curvature="0" />
	<path
   d="m 1675.3987,2980.0669 -4.8301,-2.041 v 8.1811 c 2.0117,0.4021 3.9768,1.0059 5.8809,1.8111 l 0.6545,0.2763 -1.6453,-8.209 c -0.02,-0.01 -0.04,-0.01 -0.06,-0.019 z"
   id="path5384"
   style="fill:#e1561c;fill-opacity:1"
   inkscape:connector-curvature="0" />
	<path
   d="m 1584.553,2946.7417 12.9931,-9.8252 c 0.3197,-0.2417 0.6263,-0.4983 0.9388,-0.7483 l -36.4937,-7.314 v 20.9275 h 19.8236 c 0.7025,-1.1565 1.6161,-2.1928 2.7382,-3.04 z"
   id="path5386"
   style="fill:#e1561c;fill-opacity:1"
   inkscape:connector-curvature="0" />
	<path
   d="m 1744.4622,2964.0708 -12.9961,9.8262 c -0.3196,0.2417 -0.626,0.4983 -0.9384,0.748 l 36.4933,7.314 v -20.0523 h -20.4214 c -0.6034,0.8025 -1.3097,1.5376 -2.1374,2.1641 z"
   id="path5388"
   style="fill:#e1561c;fill-opacity:1"
   inkscape:connector-curvature="0" />
	<path
   d="m 1730.5276,2936.1682 c 0.3124,0.25 0.6189,0.5066 0.9385,0.7483 l 12.9941,9.8262 c 1.1207,0.8476 2.0335,1.8838 2.7356,3.039 h 19.8252 v -20.9275 z"
   id="path5390"
   style="fill:#e1561c;fill-opacity:1"
   inkscape:connector-curvature="0" />
	<path
   d="m 1678.53,2915.4036 3.5376,-17.6512 c -3.7273,1.2847 -7.57,2.1519 -11.499,2.5889 v 18.1152 c 1.2069,-0.3042 2.3908,-0.6994 3.5459,-1.1875 z"
   id="path5392"
   style="fill:#e1561c;fill-opacity:1"
   inkscape:connector-curvature="0" />
	<path
   d="m 1684.1742,2887.2422 6.8844,-34.3504 h -20.49 v 38.3836 c 3.9242,-0.5264 7.7429,-1.5559 11.4033,-3.103 z"
   id="path5394"
   style="fill:#e1561c;fill-opacity:1"
   inkscape:connector-curvature="0" />
	<path
   d="m 1654.8987,2917.269 c 1.155,0.4881 2.3384,0.8833 3.5449,1.1873 v -18.1145 c -3.9294,-0.437 -7.7723,-1.3042 -11.499,-2.5889 l 3.5375,17.6504 z"
   id="path5396"
   style="fill:#e1561c;fill-opacity:1"
   inkscape:connector-curvature="0" />
	<path
   d="m 1683.5493,2965.23 9.397,1.8833 c 1.4796,-1.9241 3.1887,-3.6748 5.0978,-5.2066 h -11.4591 c -1.1792,0.9532 -2.1993,2.0752 -3.0357,3.3233 z"
   id="path5398"
   style="fill:#e1561c;fill-opacity:1"
   inkscape:connector-curvature="0" />
	<path
   d="m 1650.4822,2995.4097 -3.5376,17.6504 c 3.728,-1.2845 7.5705,-2.1512 11.499,-2.5882 v -18.1155 c -1.2068,0.304 -2.3899,0.6993 -3.5439,1.1871 z"
   id="path5400"
   style="fill:#e1561c;fill-opacity:1"
   inkscape:connector-curvature="0" />
	<path
   d="m 1674.1145,2993.5444 c -1.1549,-0.4882 -2.3387,-0.8838 -3.5459,-1.1877 v 18.1152 c 3.9282,0.4368 7.7711,1.3035 11.499,2.5884 l -3.5376,-17.6506 z"
   id="path5402"
   style="fill:#e1561c;fill-opacity:1"
   inkscape:connector-curvature="0" />
	<path
   d="m 1673.0969,2949.7817 h 10.0149 c -1.0461,-1.0788 -1.969,-2.269 -2.7164,-3.5661 l -8.3771,1.6789 2.7288,-13.615 -3.2137,1.3577 c -0.3167,0.1338 -0.6425,0.2371 -0.9648,0.3521 v 12.7924 h -2.5999 c -1.3605,-1.7004 -2.4537,-3.624 -3.2104,-5.7097 -0.086,-0.2361 -0.4187,-0.2361 -0.5044,0 -0.7567,2.0857 -1.8498,4.0093 -3.2104,5.7097 h -2.5999 v -12.7929 c -0.322,-0.115 -0.6475,-0.2178 -0.9639,-0.3516 l -3.2146,-1.3581 2.7288,13.6154 -8.377,-1.6789 c -0.7474,1.2971 -1.6704,2.4873 -2.7165,3.5661 h 5.2717 6.2715 v 2.4771 c -1.595,1.2082 -3.3611,2.2034 -5.2769,2.8982 -0.2362,0.086 -0.236,0.4189 3e-4,0.5046 1.9155,0.6939 3.6816,1.6883 5.2766,2.8958 v 3.3493 h -10.7351 c 0.7141,0.8406 1.3591,1.7373 1.9087,2.691 l 8.3767,-1.6788 -2.7288,13.6155 3.2137,-1.3581 c 0.3169,-0.1338 0.6425,-0.2368 0.9648,-0.3518 v -11.9178 h 3.2279 c 1.0612,1.4805 1.9503,3.0926 2.5824,4.8348 0.086,0.236 0.4187,0.236 0.5044,0 0.6321,-1.7422 1.5212,-3.3543 2.5824,-4.8348 h 3.2279 v 11.918 c 0.322,0.1148 0.6475,0.2178 0.9639,0.3516 l 3.2146,1.3581 -2.7288,-13.6155 8.3766,1.6788 c 0.5496,-0.9537 1.1947,-1.8504 1.9088,-2.691 h -10.7351 v -3.3493 c 1.595,-1.2075 3.3611,-2.2019 5.2766,-2.8958 0.2363,-0.086 0.2365,-0.4189 3e-4,-0.5046 -1.9158,-0.6948 -3.6819,-1.69 -5.2769,-2.8982 v -2.4771 z m -14.6533,0 h 1.7095 c -0.5377,0.5879 -1.1062,1.1441 -1.7095,1.6646 z m 0,12.125 v -2.5376 c 0.8999,0.7764 1.7434,1.6155 2.4939,2.5376 z m 12.125,0 h -2.4939 c 0.7505,-0.9221 1.594,-1.7612 2.4939,-2.5376 z m 0,-10.4604 c -0.6033,-0.5205 -1.1717,-1.0767 -1.7095,-1.6646 h 1.7095 z"
   id="path5404"
   style="fill:#e1561c;fill-opacity:1"
   inkscape:connector-curvature="0" />
</g>




</svg>