<?xml version="1.0" encoding="UTF-8" standalone="no"?>
<!-- Generator: Adobe Illustrator 22.1.0, SVG Export Plug-In . SVG Version: 6.00 Build 0)  -->

<svg
   xmlns:dc="http://purl.org/dc/elements/1.1/"
   xmlns:cc="http://creativecommons.org/ns#"
   xmlns:rdf="http://www.w3.org/1999/02/22-rdf-syntax-ns#"
   xmlns:svg="http://www.w3.org/2000/svg"
   xmlns="http://www.w3.org/2000/svg"
   xmlns:sodipodi="http://sodipodi.sourceforge.net/DTD/sodipodi-0.dtd"
   xmlns:inkscape="http://www.inkscape.org/namespaces/inkscape"
   version="1.1"
   id="Layer_2_1_"
   x="0px"
   y="0px"
   viewBox="0 0 197.32999 205.68981"
   enable-background="new 0 0 3947.9399414 3860.8613281"
   xml:space="preserve"
   sodipodi:docname="super_tensile_solids.svg"
   inkscape:version="0.92.4 (5da689c313, 2019-01-14)"
   width="197.33"
   height="205.6898"><metadata
   id="metadata5465"><rdf:RDF><cc:Work
       rdf:about=""><dc:format>image/svg+xml</dc:format><dc:type
         rdf:resource="http://purl.org/dc/dcmitype/StillImage" /><dc:title></dc:title></cc:Work></rdf:RDF></metadata><defs
   id="defs5463" /><sodipodi:namedview
   pagecolor="#ffffff"
   bordercolor="#666666"
   borderopacity="1"
   objecttolerance="10"
   gridtolerance="10"
   guidetolerance="10"
   inkscape:pageopacity="0"
   inkscape:pageshadow="2"
   inkscape:window-width="1920"
   inkscape:window-height="1022"
   id="namedview5461"
   showgrid="false"
   inkscape:zoom="0.21212883"
   inkscape:cx="-2561.8679"
   inkscape:cy="761.24437"
   inkscape:window-x="1079"
   inkscape:window-y="709"
   inkscape:window-maximized="1"
   inkscape:current-layer="Layer_2_1_" />



















































































































































<path
   d="M 161.25,87.74 C 173.7002,73.8598 185.32,62.76 197.33,54.0599 V 0 C 174.5,16.02 163.28,30.8301 151.9502,64.5801 143.6899,89.1799 120.7002,106.01 101.8701,104.57 107.4399,85.1401 91.52,61.0801 65.4502,50.1298 32.8501,36.4198 16.9101,22.07 0,0.6298 V 55.8099 C 13.6701,61.1098 28.8901,64.32 49.26,65.47 75.8401,66.9599 94.31,81.5399 97.4101,100.0599 91.9702,81.3598 62.9201,72.5 35.6899,76.6401 21.99,78.7199 10.4702,78.8598 0,77.6698 v 53.79 c 10.1401,-3.9499 20.48,-10.04 32.26,-19.5299 18.4201,-14.8401 41.6001,-19.71 56.6601,-12.17 C 72.26,94.7799 48.58,105.02 32.9301,123.4598 21.6601,136.7399 10.99,145.4398 0,151.9899 V 204 c 20.3801,-14.3001 34.08,-28.0101 45.1101,-59.1301 8.6799,-24.4799 28.53,-41.7299 46.76,-40.08 -4.95,19.6002 11.6599,43.35 38.0801,53.45 32.7099,12.4901 49.9499,26.9099 67.3798,47.4499 v -54.5099 c -14.3999,-5.3402 -30.2399,-8.31 -51.6999,-8.81 -25.24,-0.59 -43.5801,-13.67 -48.5701,-30.7898 7.3501,19.2399 34.8701,25.9098 60.4102,22.6097 15.5898,-2.0099 28.3098,-1.6001 39.8598,0.3999 V 79.3099 c -11.1201,5.48 -22.5,13.1299 -35.81,22.5402 -20.0498,14.1799 -44.45,17.1097 -58.8198,7.3197 16.5298,6.8901 41.75,-2.7199 58.5498,-21.4298 z"
   id="path5074"
   style="fill:#e2bd4d;fill-opacity:1"
   inkscape:connector-curvature="0" />































</svg>