<?xml version="1.0" encoding="UTF-8" standalone="no"?>
<!-- Created with Inkscape (http://www.inkscape.org/) -->

<svg
   xmlns:dc="http://purl.org/dc/elements/1.1/"
   xmlns:cc="http://creativecommons.org/ns#"
   xmlns:rdf="http://www.w3.org/1999/02/22-rdf-syntax-ns#"
   xmlns:svg="http://www.w3.org/2000/svg"
   xmlns="http://www.w3.org/2000/svg"
   xmlns:sodipodi="http://sodipodi.sourceforge.net/DTD/sodipodi-0.dtd"
   xmlns:inkscape="http://www.inkscape.org/namespaces/inkscape"
   width="41.544876mm"
   height="52.265793mm"
   viewBox="0 0 41.544876 52.265793"
   version="1.1"
   id="svg795"
   inkscape:version="0.92.4 (f8dce91, 2019-08-02)"
   sodipodi:docname="synthetic_fossil_fuels.svg">
  <defs
     id="defs789" />
  <sodipodi:namedview
     id="base"
     pagecolor="#ffffff"
     bordercolor="#666666"
     borderopacity="1.0"
     inkscape:pageopacity="0.0"
     inkscape:pageshadow="2"
     inkscape:zoom="0.35"
     inkscape:cx="362.76014"
     inkscape:cy="-98.319297"
     inkscape:document-units="mm"
     inkscape:current-layer="layer1"
     showgrid="false"
     inkscape:window-width="446"
     inkscape:window-height="439"
     inkscape:window-x="1205"
     inkscape:window-y="767"
     inkscape:window-maximized="0" />
  <metadata
     id="metadata792">
    <rdf:RDF>
      <cc:Work
         rdf:about="">
        <dc:format>image/svg+xml</dc:format>
        <dc:type
           rdf:resource="http://purl.org/dc/dcmitype/StillImage" />
        <dc:title></dc:title>
      </cc:Work>
    </rdf:RDF>
  </metadata>
  <g
     inkscape:label="Layer 1"
     inkscape:groupmode="layer"
     id="layer1"
     transform="translate(-9.8530468,-10.077705)">
    <g
       transform="matrix(0.26458333,0,0,0.26458333,-655.51918,-445.39546)"
       id="g4420"
       style="fill:#90ae50;fill-opacity:1">
      <path
         inkscape:connector-curvature="0"
         d="m 2618.5427,1788.6733 v -46.1699 c 1.94,0 4.44,-1.27 4.44,-4.06 v -16.97 h -59.3599 v 16.97 c 0,2.79 2.5,4.06 4.4399,4.06 v 46.1699 c -30.9499,9.19 -53.27,34.8001 -53.27,64.86 0,28.8163 20.5012,53.5342 49.4505,63.6382 3.5163,1.2273 7.2194,1.8419 10.9438,1.8419 h 36.2317 c 3.7241,0 7.4275,-0.6146 10.9436,-1.8419 28.9492,-10.104 49.4504,-34.8219 49.4504,-63.6382 0,-30.0599 -22.32,-55.67 -53.27,-64.86 z m -25.24,121.36 c -36.6699,0 -66.51,-25.35 -66.51,-56.5 0,-25.16 19.47,-46.5399 46.3001,-53.8199 0.48,-0.13 0.9599,-0.26 1.4499,-0.38 5.52,-1.9001 5.52,-7.9901 5.52,-11.4501 v -52.6799 c -1.9399,0 -4.3598,-1.47 -4.3598,-4.26 v -1.5201 h 35.1997 v 1.5201 c 0,2.79 -2.4199,4.26 -4.3599,4.26 v 52.6799 c 0,3.46 0,9.55 5.52,11.4501 0.49,0.12 0.97,0.25 1.45,0.38 26.8301,7.28 46.3,28.6599 46.3,53.8199 0,31.15 -29.84,56.5 -66.51,56.5 z"
         id="path4396"
         style="fill:#90ae50;fill-opacity:1" />
      <path
         inkscape:connector-curvature="0"
         d="m 2595.0093,1842.354 c -0.1973,0.8453 -0.3936,1.6935 -0.5891,2.5427 l 46.9602,-17.5051 c -1.6221,-2.9071 -3.7434,-5.5651 -6.4143,-7.8589 -1.1988,-1.0294 -2.4441,-1.9897 -3.7259,-2.8905 z"
         id="path4398"
         style="fill:#90ae50;fill-opacity:1" />
      <path
         inkscape:connector-curvature="0"
         d="m 2581.5198,1810.3634 c 4.2092,4.0845 9.2363,7.1314 12.6294,8.3319 0.7617,-4.0533 1.3156,-7.8338 1.5144,-11.1273 -4.6748,0.3909 -9.4185,1.3185 -14.1438,2.7954 z"
         id="path4400"
         style="fill:#90ae50;fill-opacity:1" />
      <path
         inkscape:connector-curvature="0"
         d="m 2625.6541,1813.2494 c -7.2459,-3.7664 -15.4244,-5.7431 -23.9732,-5.8789 -0.3403,7.2673 -2.2854,16.2605 -4.5976,26.1546 z"
         id="path4402"
         style="fill:#90ae50;fill-opacity:1" />
      <path
         inkscape:connector-curvature="0"
         d="m 2592.0801,1855.6705 52.9407,-8.1574 c 0.5905,-5.0862 0.174,-10.0451 -1.2652,-14.6026 l -50.8901,18.97 c -0.2705,1.266 -0.5335,2.5301 -0.7854,3.79 z"
         id="path4404"
         style="fill:#90ae50;fill-opacity:1" />
      <path
         inkscape:connector-curvature="0"
         d="m 2590.2295,1836.4645 c 0.01,-0.036 0.017,-0.073 0.026,-0.1094 0.9275,-3.9336 1.8618,-7.8997 2.6914,-11.7363 -5.5049,-1.6886 -12.5879,-6.5261 -17.5716,-12.0069 -3.4108,1.4213 -6.7924,3.1235 -10.1093,5.1316 -1.3391,0.8107 -2.6238,1.6687 -3.8782,2.5506 z"
         id="path4406"
         style="fill:#90ae50;fill-opacity:1" />
      <path
         inkscape:connector-curvature="0"
         d="m 2592.7813,1861.6329 c 10.1198,1.6436 28.9099,6.0562 41.6306,10.4965 4.5276,-5.7753 7.6823,-12.0674 9.3845,-18.3571 z"
         id="path4408"
         style="fill:#90ae50;fill-opacity:1" />
      <path
         inkscape:connector-curvature="0"
         d="m 2590.1033,1867.2872 c -1.3658,10.2694 -1.3655,19.5977 1.6291,26.3008 9.8006,-0.1069 19.3628,-2.4597 27.4697,-7.6827 4.1111,-2.6488 7.7537,-5.6537 10.9261,-8.8942 -12.9607,-4.2761 -31.407,-8.5154 -40.0249,-9.7239 z"
         id="path4410"
         style="fill:#90ae50;fill-opacity:1" />
      <path
         inkscape:connector-curvature="0"
         d="m 2584.7959,1862.2653 c 0.4341,-2.711 0.9395,-5.4541 1.4937,-8.2095 l -43.2933,20.0344 c 1.9121,2.6384 4.3858,5.0481 7.5054,7.1259 1.9202,1.2788 3.9375,2.4736 6.0281,3.5826 6.6079,-7.7456 17.707,-17.5083 28.2661,-22.5334 z"
         id="path4412"
         style="fill:#90ae50;fill-opacity:1" />
      <path
         inkscape:connector-curvature="0"
         d="m 2588.3564,1844.5006 c 0.149,-0.6529 0.2989,-1.3044 0.4493,-1.9553 l -32.5611,-18.2556 c -6.9345,5.9748 -12.1186,13.0096 -15.1389,20.2109 z"
         id="path4414"
         style="fill:#90ae50;fill-opacity:1" />
      <path
         inkscape:connector-curvature="0"
         d="m 2539.1008,1850.5006 c -1.5774,6.3895 -1.3576,12.7075 0.9554,18.3389 l 39.6293,-18.3389 z"
         id="path4416"
         style="fill:#90ae50;fill-opacity:1" />
      <path
         inkscape:connector-curvature="0"
         d="m 2562.1233,1887.4755 c 7.2617,3.1132 15.1775,5.1704 23.114,5.8589 -2.2104,-6.7402 -2.3628,-14.9395 -1.4275,-23.7499 -7.7556,4.4657 -15.9941,11.4734 -21.6865,17.891 z"
         id="path4418"
         style="fill:#90ae50;fill-opacity:1" />
    </g>
  </g>
</svg>
