<?xml version="1.0" encoding="UTF-8" standalone="no"?>
<!-- Generator: Adobe Illustrator 22.1.0, SVG Export Plug-In . SVG Version: 6.00 Build 0)  -->

<svg
   xmlns:dc="http://purl.org/dc/elements/1.1/"
   xmlns:cc="http://creativecommons.org/ns#"
   xmlns:rdf="http://www.w3.org/1999/02/22-rdf-syntax-ns#"
   xmlns:svg="http://www.w3.org/2000/svg"
   xmlns="http://www.w3.org/2000/svg"
   xmlns:sodipodi="http://sodipodi.sourceforge.net/DTD/sodipodi-0.dtd"
   xmlns:inkscape="http://www.inkscape.org/namespaces/inkscape"
   version="1.1"
   id="Layer_2_1_"
   x="0px"
   y="0px"
   viewBox="0 0 190.99999 191"
   enable-background="new 0 0 3947.9399414 3860.8613281"
   xml:space="preserve"
   sodipodi:docname="temporal_mechanics.svg"
   inkscape:version="0.92.4 (5da689c313, 2019-01-14)"
   width="191"
   height="191"><metadata
   id="metadata5465"><rdf:RDF><cc:Work
       rdf:about=""><dc:format>image/svg+xml</dc:format><dc:type
         rdf:resource="http://purl.org/dc/dcmitype/StillImage" /><dc:title></dc:title></cc:Work></rdf:RDF></metadata><defs
   id="defs5463" /><sodipodi:namedview
   pagecolor="#ffffff"
   bordercolor="#666666"
   borderopacity="1"
   objecttolerance="10"
   gridtolerance="10"
   guidetolerance="10"
   inkscape:pageopacity="0"
   inkscape:pageshadow="2"
   inkscape:window-width="1920"
   inkscape:window-height="1022"
   id="namedview5461"
   showgrid="false"
   inkscape:zoom="0.21212883"
   inkscape:cx="-2255.434"
   inkscape:cy="1889.0628"
   inkscape:window-x="1079"
   inkscape:window-y="709"
   inkscape:window-maximized="1"
   inkscape:current-layer="Layer_2_1_" />







































































































































































<g
   id="g5278"
   style="fill:#e2bd4d;fill-opacity:1"
   transform="translate(-3117.0007,-3427.4883)">
	<path
   d="m 3308.0007,3535.6582 v -25.3398 h -19.5796 c -0.2602,-1.5801 -0.5703,-3.1402 -0.9301,-4.6802 l 18.0898,-7.4898 -9.6899,-23.4101 -18.0899,7.5 c -0.8501,-1.3599 -1.7402,-2.6802 -2.6601,-3.97 l 13.8501,-13.8498 -17.9102,-17.9202 -13.8599,13.8601 c -1.29,-0.9302 -2.6098,-1.8201 -3.9599,-2.6602 l 7.4897,-18.0898 -23.3999,-9.7002 -7.4897,18.0901 c -1.5503,-0.3499 -3.1104,-0.6702 -4.69,-0.9299 v -19.5801 h -25.33 v 19.5801 c -1.5801,0.2597 -3.1402,0.58 -4.6905,0.9299 l -7.4897,-18.0901 -23.3999,9.7002 7.4897,18.0898 c -1.3501,0.8401 -2.6699,1.73 -3.9599,2.6602 l -13.8599,-13.8601 -17.9101,17.9202 13.85,13.8498 c -0.9199,1.2898 -1.81,2.6101 -2.6601,3.97 l -18.0899,-7.5 -9.6899,23.4101 18.0899,7.4898 c -0.3599,1.54 -0.67,3.1001 -0.9297,4.6802 h -19.5904 v 25.3398 h 19.5904 c 0.2597,1.5801 0.5698,3.1401 0.9297,4.6802 l -18.0899,7.4897 9.6899,23.4102 18.0899,-7.49 c 0.8501,1.3498 1.7402,2.6702 2.6601,3.9602 l -13.85,13.8496 17.9101,17.9204 13.8599,-13.8603 c 1.29,0.9301 2.6098,1.8203 3.9599,2.6601 l -7.4897,18.0899 23.3999,9.7002 7.4897,-18.0899 c 1.5503,0.3496 3.1104,0.6699 4.6905,0.9297 v 19.5801 h 25.33 v -19.5801 c 1.5796,-0.2598 3.1397,-0.5801 4.69,-0.9297 l 7.4897,18.0899 23.3999,-9.7002 -7.4897,-18.0899 c 1.3501,-0.8398 2.6699,-1.73 3.9599,-2.6601 l 13.8599,13.8603 17.9102,-17.9204 -13.8501,-13.8496 c 0.9199,-1.29 1.81,-2.6104 2.6601,-3.9602 l 18.0899,7.49 9.6899,-23.4102 -18.0898,-7.4897 c 0.3598,-1.5401 0.6699,-3.1001 0.9301,-4.6802 z m -95.5,46.7002 c -32.79,0 -59.3696,-26.5801 -59.3696,-59.3701 0,-32.7901 26.5796,-59.3701 59.3696,-59.3701 32.8003,0 59.3804,26.58 59.3804,59.3701 0,32.79 -26.5801,59.3701 -59.3804,59.3701 z"
   id="path5274"
   style="fill:#e2bd4d;fill-opacity:1"
   inkscape:connector-curvature="0" />
	<path
   d="m 3220.0842,3520.0884 v -41.5501 l -7.58,-13.9201 -7.42,13.9201 v 26.5398 21.2202 l 5.1602,5.1499 17.4897,17.49 15.2002,4.49 -4.6001,-15.0898 z m -7.5835,8.0632 c -2.8515,0 -5.1631,-2.3118 -5.1631,-5.1633 0,-2.8516 2.3116,-5.1633 5.1631,-5.1633 2.8521,0 5.1636,2.3117 5.1636,5.1633 0,2.8515 -2.3115,5.1633 -5.1636,5.1633 z"
   id="path5276"
   style="fill:#e2bd4d;fill-opacity:1"
   inkscape:connector-curvature="0" />
</g>











</svg>