<?xml version="1.0" encoding="UTF-8" standalone="no"?>
<!-- Generator: Adobe Illustrator 22.1.0, SVG Export Plug-In . SVG Version: 6.00 Build 0)  -->

<svg
   xmlns:dc="http://purl.org/dc/elements/1.1/"
   xmlns:cc="http://creativecommons.org/ns#"
   xmlns:rdf="http://www.w3.org/1999/02/22-rdf-syntax-ns#"
   xmlns:svg="http://www.w3.org/2000/svg"
   xmlns="http://www.w3.org/2000/svg"
   xmlns:sodipodi="http://sodipodi.sourceforge.net/DTD/sodipodi-0.dtd"
   xmlns:inkscape="http://www.inkscape.org/namespaces/inkscape"
   version="1.1"
   id="Layer_2_1_"
   x="0px"
   y="0px"
   viewBox="0 0 215.59245 211.8298"
   enable-background="new 0 0 3947.9399414 3860.8613281"
   xml:space="preserve"
   sodipodi:docname="the_will_to_power.svg"
   inkscape:version="0.92.4 (5da689c313, 2019-01-14)"
   width="215.59245"
   height="211.8298"><metadata
   id="metadata5465"><rdf:RDF><cc:Work
       rdf:about=""><dc:format>image/svg+xml</dc:format><dc:type
         rdf:resource="http://purl.org/dc/dcmitype/StillImage" /><dc:title></dc:title></cc:Work></rdf:RDF></metadata><defs
   id="defs5463" /><sodipodi:namedview
   pagecolor="#ffffff"
   bordercolor="#666666"
   borderopacity="1"
   objecttolerance="10"
   gridtolerance="10"
   guidetolerance="10"
   inkscape:pageopacity="0"
   inkscape:pageshadow="2"
   inkscape:window-width="1920"
   inkscape:window-height="1022"
   id="namedview5461"
   showgrid="false"
   inkscape:zoom="0.21212883"
   inkscape:cx="-385.54431"
   inkscape:cy="198.62051"
   inkscape:window-x="1079"
   inkscape:window-y="709"
   inkscape:window-maximized="1"
   inkscape:current-layer="Layer_2_1_" />














































































































































<g
   id="g5016"
   style="fill:#90ae50;fill-opacity:1"
   transform="translate(-1247.111,-2281.9102)">
	<path
   d="m 1416.9418,2413 -9.9202,-17.9399 V 2390 c 0,-26.04 -23.3298,-47.1399 -52.1099,-47.1399 -28.78,0 -52.1201,21.0999 -52.1201,47.1399 0,14.03 6.7801,26.6399 17.5501,35.27 v 28.1101 l -40.37,40.3599 h 118.44 l -29.3,-29.29 v -2.7901 h 35.47 v -22.26 h -13.1499 v -5.5598 h 13.1499 v -12.25 h 6.14 c 2.27,0 4.38,-1.1802 5.5699,-3.1001 l 0.5301,-0.8501 c 0.88,-1.4099 0.92,-3.1899 0.1201,-4.6399 z m -46.7001,-16.99 h 25.51 c -3.9501,20.9299 -22.67,7.47 -25.51,0 z"
   id="path5000"
   style="fill:#90ae50;fill-opacity:1"
   inkscape:connector-curvature="0" />
	<path
   d="m 1354.9077,2303.2998 5.1875,12.5989 c -1.72,-0.1189 -3.4488,-0.1787 -5.1842,-0.1787 -1.7369,0 -3.4667,0.06 -5.1881,0.1789 l 5.1848,-12.5991 m 0,-21.3896 c -1.1324,0 -2.265,0.6198 -2.775,1.8598 l -18.7901,45.6599 h 0.05 c 6.72,-2.3999 13.97,-3.7099 21.52,-3.7099 7.5499,0 14.7999,1.31 21.52,3.7099 h 0.05 l -18.8,-45.6599 c -0.51,-1.24 -1.6424,-1.8598 -2.775,-1.8598 z"
   id="path5002"
   style="fill:#90ae50;fill-opacity:1"
   inkscape:connector-curvature="0" />
	<path
   d="m 1293.8025,2328.6016 12.5983,5.2526 c -2.6156,2.2742 -5.0713,4.73 -7.3455,7.3455 l -5.2528,-12.5981 m -13.01,-16.0108 c -2.0059,0 -3.6273,2.0845 -2.7616,4.1692 l 19,45.5698 0.06,-0.06 c 6.3201,-13.29 17.0901,-24.06 30.38,-30.3801 l 0.06,-0.06 -45.57,-19 c -0.3938,-0.164 -0.7879,-0.239 -1.1684,-0.239 z"
   id="path5004"
   style="fill:#90ae50;fill-opacity:1"
   inkscape:connector-curvature="0" />
	<path
   d="m 1281.1,2384.5217 c -0.1193,1.7215 -0.179,3.4512 -0.179,5.1883 0,1.7334 0.06,3.4599 0.1784,5.1779 l -12.5945,-5.1831 12.5951,-5.1831 m 13.531,-16.3818 -45.6601,18.79 c -2.4799,1.0201 -2.4799,4.5301 0,5.5501 l 45.6601,18.79 v -0.04 c -2.4,-6.72 -3.71,-13.97 -3.71,-21.52 0,-7.5501 1.31,-14.8001 3.71,-21.5201 z"
   id="path5006"
   style="fill:#90ae50;fill-opacity:1"
   inkscape:connector-curvature="0" />
	<path
   d="m 1299.053,2438.2153 c 2.274,2.615 4.728,5.0684 7.3434,7.3421 l -12.5938,5.2507 5.2504,-12.5928 m -2.0221,-21.1355 -19,45.5701 c -0.8657,2.0847 0.7554,4.1692 2.7612,4.1692 0.3805,0 0.775,-0.075 1.1688,-0.2393 l 45.57,-19 -0.06,-0.06 c -13.2999,-6.32 -24.0699,-17.0901 -30.39,-30.3899 l -0.05,-0.05 z"
   id="path5008"
   style="fill:#90ae50;fill-opacity:1"
   inkscape:connector-curvature="0" />
	<path
   d="m 1416.0079,2328.6047 -5.2496,12.5906 c -2.2728,-2.6145 -4.7267,-5.0688 -7.3407,-7.3423 l 12.5903,-5.2483 m 13.0208,-16.0139 c -0.3799,0 -0.7741,0.075 -1.1677,0.239 l -45.5801,19 0.05,0.05 c 13.3001,6.3199 24.0701,17.0899 30.39,30.3899 l 0.06,0.06 19,-45.5698 c 0.8658,-2.0847 -0.7483,-4.1694 -2.7522,-4.1692 z"
   id="path5010"
   style="fill:#90ae50;fill-opacity:1"
   inkscape:connector-curvature="0" />
	<path
   d="m 1428.7119,2384.5176 12.6052,5.1875 -12.6045,5.1867 c 0.1188,-1.7187 0.1784,-3.4467 0.1784,-5.1818 0,-1.7388 -0.06,-3.4698 -0.1791,-5.1924 m -13.5209,-16.3777 v 0.08 c 2.3999,6.7199 3.7,13.9499 3.7,21.49 0,7.54 -1.3001,14.77 -3.7,21.49 v 0.07 l 45.66,-18.79 c 2.4699,-1.02 2.4699,-4.53 0,-5.5501 l -45.66,-18.79 z"
   id="path5012"
   style="fill:#90ae50;fill-opacity:1"
   inkscape:connector-curvature="0" />
	<path
   d="m 1431.7816,2462.6499 -7.4299,-17.8098 h -10.8301 l 2.49,5.9599 -2.8899,-1.2001 v 10.84 l 14.74,6.1399 c 0.39,0.1602 0.79,0.2403 1.1699,0.2403 2,0 3.6101,-2.0901 2.75,-4.1702 z"
   id="path5014"
   style="fill:#90ae50;fill-opacity:1"
   inkscape:connector-curvature="0" />
</g>




































</svg>