<?xml version="1.0" encoding="UTF-8" standalone="no"?>
<!-- Generator: Adobe Illustrator 22.1.0, SVG Export Plug-In . SVG Version: 6.00 Build 0)  -->

<svg
   xmlns:dc="http://purl.org/dc/elements/1.1/"
   xmlns:cc="http://creativecommons.org/ns#"
   xmlns:rdf="http://www.w3.org/1999/02/22-rdf-syntax-ns#"
   xmlns:svg="http://www.w3.org/2000/svg"
   xmlns="http://www.w3.org/2000/svg"
   xmlns:sodipodi="http://sodipodi.sourceforge.net/DTD/sodipodi-0.dtd"
   xmlns:inkscape="http://www.inkscape.org/namespaces/inkscape"
   version="1.1"
   id="Layer_2_1_"
   x="0px"
   y="0px"
   viewBox="0 0 204.79718 204.7973"
   enable-background="new 0 0 3947.9399414 3860.8613281"
   xml:space="preserve"
   sodipodi:docname="threshold_of_transcendence.svg"
   inkscape:version="0.92.4 (5da689c313, 2019-01-14)"
   width="204.7972"
   height="204.7973"><metadata
   id="metadata5465"><rdf:RDF><cc:Work
       rdf:about=""><dc:format>image/svg+xml</dc:format><dc:type
         rdf:resource="http://purl.org/dc/dcmitype/StillImage" /><dc:title></dc:title></cc:Work></rdf:RDF></metadata><defs
   id="defs5463" /><sodipodi:namedview
   pagecolor="#ffffff"
   bordercolor="#666666"
   borderopacity="1"
   objecttolerance="10"
   gridtolerance="10"
   guidetolerance="10"
   inkscape:pageopacity="0"
   inkscape:pageshadow="2"
   inkscape:window-width="1920"
   inkscape:window-height="1022"
   id="namedview5461"
   showgrid="false"
   inkscape:zoom="0.21212883"
   inkscape:cx="537.85481"
   inkscape:cy="1328.38"
   inkscape:window-x="1079"
   inkscape:window-y="709"
   inkscape:window-maximized="1"
   inkscape:current-layer="Layer_2_1_" />











































































































































































<path
   d="m 180.1608,169.0163 c 15.3556,-17.9079 24.6364,-41.1777 24.6364,-66.6177 0,-25.4397 -9.2808,-48.7097 -24.6364,-66.6174 L 198.3791,14.883 c 2.0732,-2.3779 1.9507,-5.9541 -0.2798,-8.1846 -1.1675,-1.1679 -2.7036,-1.7578 -4.2437,-1.7578 -1.4028,0 -2.8086,0.4893 -3.9419,1.4776 L 169.016,24.6362 C 151.1082,9.2807 127.8384,0 102.3986,0 76.9588,0 53.689,9.2807 35.7812,24.6362 L 14.8835,6.4182 C 13.7497,5.4299 12.3444,4.9406 10.9416,4.9406 9.4015,4.9406 7.8654,5.5305 6.6979,6.6984 4.4675,8.9289 4.3449,12.5051 6.4181,14.883 L 24.6365,35.7812 C 9.2808,53.6889 0,76.9589 0,102.3986 c 0,25.44 9.2808,48.7098 24.6365,66.6177 l -18.2184,20.898 c -2.0732,2.3779 -1.9506,5.9541 0.2798,8.1845 1.1675,1.168 2.7036,1.7578 4.2437,1.7578 1.4028,0 2.8086,-0.4892 3.9419,-1.4775 l 20.8977,-18.218 c 17.9078,15.3555 41.1776,24.6362 66.6174,24.6362 25.4397,0 48.7094,-9.2807 66.6172,-24.6362 l 20.8979,18.218 c 1.1338,0.9883 2.5391,1.4775 3.9419,1.4775 1.5401,0 3.0762,-0.5899 4.2437,-1.7578 2.2305,-2.2304 2.353,-5.8066 0.2798,-8.1845 z m -70.8997,-48.9072 -6.8625,59.5486 -6.8625,-59.549 -84.5955,73.7479 73.7479,-84.5955 -59.5487,-6.8625 59.5487,-6.8623 -73.7479,-84.5954 84.5955,73.7478 6.8625,-59.549 6.8625,59.5489 84.5955,-73.7478 -73.7478,84.5954 59.5487,6.8623 -59.5487,6.8626 73.7478,84.5954 z"
   id="path5314"
   style="fill:#90ae50;fill-opacity:1"
   inkscape:connector-curvature="0" />







</svg>