<?xml version="1.0" encoding="UTF-8" standalone="no"?>
<!-- Generator: Adobe Illustrator 22.1.0, SVG Export Plug-In . SVG Version: 6.00 Build 0)  -->

<svg
   xmlns:dc="http://purl.org/dc/elements/1.1/"
   xmlns:cc="http://creativecommons.org/ns#"
   xmlns:rdf="http://www.w3.org/1999/02/22-rdf-syntax-ns#"
   xmlns:svg="http://www.w3.org/2000/svg"
   xmlns="http://www.w3.org/2000/svg"
   xmlns:sodipodi="http://sodipodi.sourceforge.net/DTD/sodipodi-0.dtd"
   xmlns:inkscape="http://www.inkscape.org/namespaces/inkscape"
   version="1.1"
   id="Layer_2_1_"
   x="0px"
   y="0px"
   viewBox="0 0 177.22846 196.2603"
   enable-background="new 0 0 3947.9399414 3860.8613281"
   xml:space="preserve"
   sodipodi:docname="transcendent_thought.svg"
   inkscape:version="0.92.4 (5da689c313, 2019-01-14)"
   width="177.22847"
   height="196.2603"><metadata
   id="metadata5465"><rdf:RDF><cc:Work
       rdf:about=""><dc:format>image/svg+xml</dc:format><dc:type
         rdf:resource="http://purl.org/dc/dcmitype/StillImage" /><dc:title></dc:title></cc:Work></rdf:RDF></metadata><defs
   id="defs5463" /><sodipodi:namedview
   pagecolor="#ffffff"
   bordercolor="#666666"
   borderopacity="1"
   objecttolerance="10"
   gridtolerance="10"
   guidetolerance="10"
   inkscape:pageopacity="0"
   inkscape:pageshadow="2"
   inkscape:window-width="1920"
   inkscape:window-height="1022"
   id="namedview5461"
   showgrid="false"
   inkscape:zoom="0.21212883"
   inkscape:cx="-404.72629"
   inkscape:cy="1324.1114"
   inkscape:window-x="1079"
   inkscape:window-y="709"
   inkscape:window-maximized="1"
   inkscape:current-layer="Layer_2_1_" />













































































































































































<path
   d="M 176.4199,100.0304 162.2697,74.4302 V 67.23 c 0,-18.4107 -8.1895,-35.0872 -21.4432,-47.2285 l 6.6716,-7.6531 c 1.2863,-1.4753 1.2102,-3.6941 -0.1735,-5.0779 -0.7244,-0.7246 -1.6775,-1.0906 -2.6329,-1.0906 -0.8703,0 -1.7425,0.3038 -2.4456,0.9168 l -8.3715,7.2978 C 121.2303,5.3882 105.2895,0 87.9499,0 70.6103,0 54.6695,5.3882 42.0251,14.3945 L 33.6539,7.0967 c -0.7035,-0.613 -1.5754,-0.9168 -2.4457,-0.9168 -0.9554,0 -1.9085,0.366 -2.6329,1.0906 -1.3838,1.3838 -1.4597,3.6026 -0.1736,5.078 l 6.6715,7.6527 C 21.8194,32.1428 13.6299,48.8191 13.6299,67.23 c 0,18.1514 7.9666,34.602 20.8908,46.6924 l -6.119,7.019 c -1.2861,1.4751 -1.2102,3.6939 0.1736,5.0777 0.7244,0.7246 1.6775,1.0908 2.6329,1.0908 0.8703,0 1.7426,-0.3037 2.4457,-0.9168 l 4.996,-4.3554 v 35.7724 L 0,196.2603 h 131.0598 l -22.8599,-22.8501 v -3.98 h 50.5899 v -31.75 h -18.75 V 129.75 h 18.75 v -17.4697 h 8.75 c 3.24,0 6.25,-1.6802 7.9401,-4.4102 l 0.7598,-1.2199 c 1.25,-2.0101 1.3201,-4.5401 0.1802,-6.6198 z M 92.2076,77.6329 87.9499,114.5779 83.6922,77.6327 31.2076,123.3873 76.9622,70.9027 40.0169,66.6451 76.9622,62.3876 31.2076,9.9029 83.6922,55.6573 87.9499,18.712 92.2076,55.6573 144.6922,9.9029 98.9376,62.3876 l 36.9453,4.2575 -36.9453,4.2576 45.7546,52.4846 z"
   id="path5348"
   style="fill:#d7e6ed;fill-opacity:1"
   inkscape:connector-curvature="0" />





</svg>