<?xml version="1.0" encoding="UTF-8" standalone="no"?>
<!-- Created with Inkscape (http://www.inkscape.org/) -->

<svg
   xmlns:dc="http://purl.org/dc/elements/1.1/"
   xmlns:cc="http://creativecommons.org/ns#"
   xmlns:rdf="http://www.w3.org/1999/02/22-rdf-syntax-ns#"
   xmlns:svg="http://www.w3.org/2000/svg"
   xmlns="http://www.w3.org/2000/svg"
   xmlns:sodipodi="http://sodipodi.sourceforge.net/DTD/sodipodi-0.dtd"
   xmlns:inkscape="http://www.inkscape.org/namespaces/inkscape"
   width="49.565193mm"
   height="49.565243mm"
   viewBox="0 0 49.565193 49.56524"
   version="1.1"
   id="svg795"
   inkscape:version="0.92.4 (f8dce91, 2019-08-02)"
   sodipodi:docname="unified_field_theory.svg">
  <defs
     id="defs789" />
  <sodipodi:namedview
     id="base"
     pagecolor="#ffffff"
     bordercolor="#666666"
     borderopacity="1.0"
     inkscape:pageopacity="0.0"
     inkscape:pageshadow="2"
     inkscape:zoom="0.35"
     inkscape:cx="243.40596"
     inkscape:cy="118.0453"
     inkscape:document-units="mm"
     inkscape:current-layer="layer1"
     showgrid="false"
     inkscape:window-width="446"
     inkscape:window-height="439"
     inkscape:window-x="1205"
     inkscape:window-y="767"
     inkscape:window-maximized="0" />
  <metadata
     id="metadata792">
    <rdf:RDF>
      <cc:Work
         rdf:about="">
        <dc:format>image/svg+xml</dc:format>
        <dc:type
           rdf:resource="http://purl.org/dc/dcmitype/StillImage" />
        <dc:title></dc:title>
      </cc:Work>
    </rdf:RDF>
  </metadata>
  <g
     inkscape:label="Layer 1"
     inkscape:groupmode="layer"
     id="layer1"
     transform="translate(26.913906,-70.024721)">
    <g
       transform="matrix(0.26458333,0,0,0.26458333,-32.958311,-837.31666)"
       id="g4712"
       style="fill:#e1561c;fill-opacity:1">
      <path
         style="fill:#e1561c;fill-opacity:1"
         d="m 70.145062,3522.9883 a 9.6499033,9.6499062 0 0 1 -9.649903,9.6499 9.6499033,9.6499062 0 0 1 -9.649903,-9.6499 9.6499033,9.6499062 0 0 1 9.649903,-9.6499 9.6499033,9.6499062 0 0 1 9.649903,9.6499 z"
         id="ellipse4700"
         inkscape:connector-curvature="0" />
      <path
         style="fill:#e1561c;fill-opacity:1"
         d="m 126.16142,3466.9717 a 9.6499176,9.6499176 0 0 1 -9.64992,9.6499 9.6499176,9.6499176 0 0 1 -9.64992,-9.6499 9.6499176,9.6499176 0 0 1 9.64992,-9.6499 9.6499176,9.6499176 0 0 1 9.64992,9.6499 z"
         id="circle4702"
         inkscape:connector-curvature="0" />
      <path
         inkscape:connector-curvature="0"
         d="m 172.52811,3485.3384 c -11.00293,0 -20.91797,4.7458 -27.80811,12.2969 -0.9082,-0.9952 -1.87305,-1.9363 -2.88183,-2.8296 7.5664,-6.8914 12.32324,-16.8174 12.32324,-27.834 0,-20.76 -16.88965,-37.6499 -37.64991,-37.6499 -20.759768,0 -37.649905,16.8899 -37.649905,37.6499 0,11.207 4.927735,21.2798 12.723633,28.1828 -1.014648,0.9241 -1.973145,1.9085 -2.881836,2.9371 -6.903809,-7.8128 -16.987305,-12.7532 -28.208492,-12.7532 -20.759766,0 -37.649903,16.8899 -37.649903,37.6499 0,20.76 16.890141,37.6501 37.649903,37.6501 11.221187,0 21.304683,-4.9404 28.208492,-12.7534 0.908691,1.0288 1.867188,2.0129 2.881836,2.9373 -7.795898,6.903 -12.723633,16.9758 -12.723633,28.1826 0,20.76 16.889649,37.6501 37.649415,37.6501 20.76075,0 37.6504,-16.8901 37.6504,-37.6501 0,-11.0164 -4.75684,-20.9424 -12.32373,-27.8338 1.00879,-0.8933 1.97412,-1.8344 2.88232,-2.8295 6.89014,7.551 16.80518,12.2968 27.80811,12.2968 20.76025,0 37.6499,-16.8901 37.6499,-37.6501 0,-20.76 -16.88965,-37.6499 -37.6499,-37.6499 z m -33.67871,20.8486 c -0.70215,1.4021 -1.31934,2.853 -1.84522,4.3479 -2.04248,-3.2832 -4.86621,-6.0293 -8.20996,-7.9812 1.52686,-0.5288 3.00977,-1.1506 4.44092,-1.8633 2.12158,1.5574 4.0122,3.4099 5.61426,5.4966 z m -22.33839,59.168 c 7.52051,0 13.6504,6.1201 13.6504,13.6499 0,7.53 -6.12989,13.6501 -13.6504,13.6501 -7.5293,0 -13.64941,-6.1201 -13.64941,-13.6501 0,-7.5298 6.12011,-13.6499 13.64941,-13.6499 z m 0.40039,-28.7166 c -7.52979,0 -13.6499,-6.1201 -13.6499,-13.6501 0,-7.5298 6.12011,-13.6499 13.6499,-13.6499 7.52002,0 13.64991,6.1201 13.64991,13.6499 0,7.53 -6.12989,13.6501 -13.64991,13.6501 z m -14.0498,-69.6667 c 0,-7.5298 6.12011,-13.6499 13.6499,-13.6499 7.52002,0 13.64991,6.1201 13.64991,13.6499 0,7.53 -6.12989,13.6501 -13.64991,13.6501 -7.52979,0 -13.6499,-6.1201 -13.6499,-13.6501 z m -14.000005,0 c 0,-15.25 12.400395,-27.6499 27.649905,-27.6499 15.24024,0 27.64991,12.3999 27.64991,27.6499 0,9.001 -4.3252,17.0063 -11.00147,22.0581 -1.44043,-0.6922 -2.93506,-1.2871 -4.46924,-1.794 6.86768,-4.1433 11.47071,-11.6757 11.47071,-20.2641 0,-13.0398 -10.60987,-23.6499 -23.64991,-23.6499 -13.03955,0 -23.649905,10.6101 -23.649905,23.6499 0,8.7102 4.737305,16.3308 11.767575,20.4348 -1.52783,0.529 -3.01172,1.1514 -4.44336,1.8645 -6.860836,-5.0356 -11.324215,-13.1528 -11.324215,-22.2993 z m 11.398925,33.9575 c 1.44141,0.6926 2.93701,1.2881 4.47217,1.7952 -3.50049,2.1118 -6.408204,5.1064 -8.422364,8.6706 -0.509278,-1.5688 -1.114258,-3.0945 -1.816407,-4.5659 1.619629,-2.2412 3.562989,-4.2327 5.766601,-5.8999 z m -39.76562,49.7092 c -15.249756,0 -27.649903,-12.4001 -27.649903,-27.6501 0,-15.25 12.400147,-27.6499 27.649903,-27.6499 9.21484,0 17.389156,4.5376 22.4165,11.4929 -0.70166,1.4709 -1.306641,2.9956 -1.81543,4.5637 -4.061523,-7.1892 -11.771973,-12.0566 -20.60107,-12.0566 -13.039551,0 -23.649903,10.6101 -23.649903,23.6499 0,13.04 10.610352,23.6501 23.649903,23.6501 8.829097,0 16.539547,-4.8674 20.60107,-12.0566 0.508789,1.5679 1.11377,3.0928 1.81543,4.5635 -5.027344,6.9555 -13.20166,11.4931 -22.4165,11.4931 z m 13.649898,-27.6501 c 0,7.53 -6.129883,13.6501 -13.649898,13.6501 -7.529785,0 -13.649902,-6.1201 -13.649902,-13.6501 0,-7.5298 6.120117,-13.6499 13.649902,-13.6499 7.520015,0 13.649898,6.1201 13.649898,13.6499 z m 20.349121,16.1594 c 0.702149,-1.4714 1.307129,-2.9971 1.816407,-4.5659 2.01416,3.5642 4.921874,6.5588 8.421874,8.6706 -1.53516,0.5071 -3.03076,1.1026 -4.47168,1.795 -2.203612,-1.6673 -4.146972,-3.6587 -5.766601,-5.8997 z m 49.667491,39.8572 c 0,15.25 -12.41016,27.6501 -27.6504,27.6501 -15.24951,0 -27.649415,-12.4001 -27.649415,-27.6501 0,-9.1463 4.463379,-17.2637 11.323735,-22.2993 1.43212,0.7133 2.91552,1.3357 4.44335,1.8645 -7.02978,4.104 -11.767085,11.7246 -11.767085,20.4348 0,13.04 10.610355,23.6501 23.649415,23.6501 13.04005,0 23.6504,-10.6101 23.6504,-23.6501 0,-8.5882 -4.60352,-16.1206 -11.47071,-20.2639 1.53418,-0.5069 3.02881,-1.1018 4.46924,-1.794 6.67627,5.0518 11.00147,13.0572 11.00147,22.0579 z m -10.92627,-33.7185 c -1.43115,-0.7127 -2.91406,-1.3345 -4.44092,-1.8633 3.34375,-1.9519 6.16748,-4.6978 8.20996,-7.9812 0.52588,1.4946 1.14307,2.9456 1.84522,4.3479 -1.60206,2.0867 -3.49268,3.9392 -5.61426,5.4966 z m 39.29297,5.352 c -8.93164,0 -16.88135,-4.2575 -21.93897,-10.8464 0.70264,-1.4028 1.32031,-2.8545 1.84619,-4.3501 4.17725,6.7146 11.62061,11.1965 20.09278,11.1965 13.04004,0 23.6499,-10.6101 23.6499,-23.6501 0,-13.0398 -10.60986,-23.6499 -23.6499,-23.6499 -8.47217,0 -15.91553,4.4819 -20.09278,11.1965 -0.52588,-1.4956 -1.14355,-2.9473 -1.84619,-4.3501 5.05762,-6.5889 13.00733,-10.8464 21.93897,-10.8464 15.24023,0 27.6499,12.3999 27.6499,27.6499 0,15.25 -12.40967,27.6501 -27.6499,27.6501 z m -13.64991,-27.6501 c 0,-7.5298 6.12012,-13.6499 13.64991,-13.6499 7.52002,0 13.6499,6.1201 13.6499,13.6499 0,7.53 -6.12988,13.6501 -13.6499,13.6501 -7.52979,0 -13.64991,-6.1201 -13.64991,-13.6501 z"
         id="path4704"
         style="fill:#e1561c;fill-opacity:1" />
      <path
         style="fill:#e1561c;fill-opacity:1"
         d="m 182.17802,3522.9883 a 9.6499176,9.6499176 0 0 1 -9.64991,9.6499 9.6499176,9.6499176 0 0 1 -9.64992,-9.6499 9.6499176,9.6499176 0 0 1 9.64992,-9.6499 9.6499176,9.6499176 0 0 1 9.64991,9.6499 z"
         id="circle4706"
         inkscape:connector-curvature="0" />
      <path
         inkscape:connector-curvature="0"
         d="m 116.51101,3588.655 c 5.33008,0 9.65039,-4.32 9.65039,-9.6501 0,-5.3299 -4.32031,-9.6499 -9.65039,-9.6499 -5.3291,0 -9.64941,4.32 -9.64941,9.6499 0,5.3301 4.32031,9.6501 9.64941,9.6501 z"
         id="path4708"
         style="fill:#e1561c;fill-opacity:1" />
      <path
         style="fill:#e1561c;fill-opacity:1"
         d="m 126.56132,3522.9883 a 9.6499176,9.6499176 0 0 1 -9.64992,9.6499 9.6499176,9.6499176 0 0 1 -9.64992,-9.6499 9.6499176,9.6499176 0 0 1 9.64992,-9.6499 9.6499176,9.6499176 0 0 1 9.64992,9.6499 z"
         id="circle4710"
         inkscape:connector-curvature="0" />
    </g>
  </g>
</svg>
